<svg width="375" height="667" viewBox="0 0 375 667" fill="none" xmlns="http://www.w3.org/2000/svg">
<path d="M375.316 0H-0.315918V667H375.316V0Z" fill="#60423E"/>
<path d="M374.272 0C374.272 0.132357 374.272 0.257361 374.272 0.389719C373.596 0.389719 372.993 0.470604 373.001 1.29416C373.001 2.00007 372.993 2.70597 372.993 3.41188C372.993 223.404 372.993 443.397 372.993 663.39C372.993 664.544 372.986 665.698 372.979 666.853C372.009 667.029 371.038 667.037 370.076 666.853C370.076 665.823 370.068 664.801 370.068 663.772C370.068 443.537 370.068 223.301 370.068 3.05892C370.068 2.47802 370.068 1.90447 370.054 1.32357C370.046 0.919148 369.929 0.588255 369.436 0.441191C368.018 0.0147064 367.187 0.529429 367.143 1.90447C367.129 2.28684 367.143 2.67656 367.143 3.05892C367.143 223.103 367.143 443.147 367.143 663.191C367.143 664.412 367.136 665.632 367.129 666.846C366.158 667.029 365.196 667.022 364.225 666.846C364.225 665.948 364.218 665.051 364.218 664.154C364.218 444.441 364.218 224.721 364.218 5.00752C364.218 4.23543 364.218 3.4707 364.218 2.69862C364.218 2.1839 364.218 1.67653 364.218 1.1618C363.38 0.0735319 362.55 0.0735319 361.719 1.1618C361.719 1.67653 361.719 2.19125 361.719 2.69862C361.719 222.926 361.719 443.154 361.719 663.382C361.719 664.537 361.712 665.691 361.705 666.846C360.734 667.029 359.772 667.029 358.802 666.831C358.802 665.801 358.794 664.779 358.794 663.75C358.794 443.97 358.794 224.199 358.794 4.41926C358.794 3.33099 358.794 2.23537 358.787 1.1471C357.949 0.0735318 357.126 0.0735318 356.273 1.1471C355.707 1.9633 355.869 2.88245 355.869 3.77218C355.869 26.295 355.869 48.8104 355.869 71.3332C355.869 268.81 355.869 466.287 355.869 663.765C355.869 664.787 355.752 665.816 356.031 666.831C354.936 667.007 353.848 667 352.753 666.831C353.032 665.816 352.915 664.787 352.915 663.765C352.915 443.669 352.915 223.574 352.915 3.4707C352.915 2.69862 352.907 1.93389 352.9 1.1618C351.981 0.036766 350.526 0.036766 349.607 1.1618C349.607 27.5965 349.593 54.0385 349.593 80.4732C349.593 274.906 349.593 469.332 349.593 663.765C349.593 664.787 349.468 665.816 349.754 666.831C348.16 667.007 346.572 666.993 344.977 666.831C344.977 665.676 344.977 664.522 344.977 663.367C344.977 443.265 344.977 223.162 344.977 3.05892C344.977 2.61038 344.955 2.16184 344.977 1.71329C345.021 0.889735 344.779 0.375012 343.713 0.375012C342.655 0.375012 342.398 0.875029 342.442 1.70594C342.464 2.15448 342.442 2.60303 342.442 3.05157C342.442 223.088 342.442 443.125 342.442 663.169C342.442 664.39 342.442 665.61 342.442 666.823C341.479 667.022 340.509 667.022 339.539 666.846C339.539 665.691 339.524 664.537 339.524 663.382C339.524 444.051 339.524 224.713 339.524 5.38253C339.524 4.48544 339.509 3.58835 339.502 2.69127C339.502 2.17654 339.502 1.66917 339.494 1.15445C338.613 0.0882382 337.525 0.0882382 336.606 1.15445C336.606 1.73535 336.599 2.3089 336.599 2.8898C336.599 223.184 336.599 443.471 336.599 663.765C336.599 664.794 336.599 665.816 336.591 666.846C335.482 667.044 334.379 667.022 333.269 666.868C333.269 665.713 333.255 664.559 333.255 663.404C333.255 443.654 333.255 223.912 333.255 4.1619C333.255 3.64718 333.218 3.13246 333.262 2.62509C333.306 2.08095 333.093 1.62505 332.843 1.1618C331.998 0.0882382 331.168 0.0882382 330.344 1.1618C330.344 1.80153 330.33 2.44861 330.33 3.08834C330.33 223.382 330.33 443.676 330.33 663.97C330.33 664.934 330.33 665.897 330.322 666.86C329.213 667.044 328.11 667.051 327 666.86C327 665.772 326.993 664.676 326.993 663.588C326.993 443.419 326.993 223.25 326.993 3.08834C326.993 2.63979 326.971 2.19125 326.993 1.7427C327.037 0.919148 326.802 0.404425 325.729 0.404425C324.671 0.404425 324.413 0.904442 324.457 1.73535C324.479 2.1839 324.457 2.63244 324.457 3.08098C324.457 223.184 324.457 443.287 324.457 663.39C324.457 664.544 324.457 665.698 324.457 666.853C323.495 667.051 322.525 667.044 321.554 666.868C321.554 665.779 321.54 664.684 321.54 663.595C321.54 444.265 321.54 224.927 321.54 5.59577C321.54 4.63251 321.525 3.66924 321.518 2.70597C321.518 2.19125 321.518 1.68388 321.518 1.16916C320.628 0.102945 319.541 0.102945 318.629 1.16916C318.629 1.75006 318.622 2.32361 318.622 2.90451C318.622 223.324 318.622 443.743 318.622 664.162C318.622 665.059 318.622 665.956 318.615 666.86C317.586 667.051 316.564 667.037 315.543 666.831C315.807 665.882 315.69 664.912 315.69 663.956C315.69 443.735 315.69 223.515 315.69 3.29423C315.69 2.58832 315.667 1.88242 315.66 1.17651C314.778 0.110298 313.683 0.110298 312.786 1.17651C312.786 1.81624 312.772 2.46332 312.772 3.10304C312.772 223.522 312.772 443.948 312.772 664.367C312.772 665.198 312.764 666.037 312.757 666.868C311.787 667.044 310.824 667.051 309.854 666.868C309.854 665.904 309.839 664.941 309.839 663.978C309.839 443.684 309.839 223.382 309.839 3.08834C309.839 2.57361 309.817 2.05889 309.839 1.55152C309.876 0.735318 309.472 0.404425 308.59 0.404425C307.715 0.404425 307.296 0.713259 307.318 1.53682C307.341 2.4339 307.318 3.33099 307.318 4.23543C307.318 225.11 307.318 445.985 307.318 666.86C306.297 667 305.268 667.073 304.254 666.831C304.511 665.882 304.393 664.912 304.393 663.956C304.393 443.801 304.393 223.647 304.393 3.49276C304.393 2.72068 304.379 1.95595 304.371 1.18386C303.489 0.117651 302.387 0.117651 301.498 1.18386C301.498 1.56623 301.498 1.95595 301.49 2.33831C301.49 3.16922 301.476 4.00748 301.476 4.83839C301.476 224.235 301.476 443.632 301.476 663.029C301.476 664.316 301.468 665.595 301.461 666.882C300.351 667.066 299.249 667.073 298.139 666.882C298.139 665.919 298.132 664.956 298.132 663.992C298.132 444.728 298.132 225.463 298.132 6.19138C298.132 5.03693 298.132 3.88248 298.124 2.72803C298.124 2.21331 298.124 1.70594 298.117 1.19122C297.213 0.125004 296.118 0.125004 295.243 1.19122C295.236 1.77212 295.214 2.34567 295.214 2.92657C295.214 223.471 295.214 444.007 295.214 664.551C295.214 665.316 295.302 666.081 295.353 666.853C293.854 667.081 292.355 667.044 290.863 666.868C291.142 665.853 291.017 664.823 291.017 663.801C291.017 444.096 291.017 224.382 291.017 4.67662C291.017 3.52218 291.01 2.36773 291.003 1.21328C290.121 0.132357 289.026 0.125004 288.1 1.20592C288.1 1.72064 288.1 2.23537 288.1 2.74274C288.1 223.162 288.1 443.581 288.1 664.007C288.1 664.97 288.1 665.934 288.092 666.897C287.122 667.081 286.159 667.081 285.189 666.897C285.189 666 285.174 665.103 285.174 664.198C285.174 443.831 285.174 223.471 285.174 3.10304C285.174 2.52214 285.16 1.94859 285.167 1.36769C285.167 0.727965 284.814 0.448544 284.138 0.433838C282.514 0.404425 282.161 0.477957 282.249 1.93389C282.271 2.31625 282.249 2.70597 282.249 3.08834C282.249 223.456 282.249 443.816 282.249 664.184C282.249 665.081 282.249 665.978 282.242 666.882C281.132 667.081 280.03 667.059 278.92 666.904C278.92 665.684 278.905 664.463 278.905 663.25C278.905 443.566 278.905 223.882 278.905 4.19867C278.905 3.68394 278.869 3.16922 278.913 2.66185C278.964 2.11772 278.736 1.66182 278.494 1.19857C277.649 0.125004 276.811 0.125004 275.995 1.19857C275.995 1.8383 275.98 2.48538 275.98 3.1251C275.98 223.544 275.98 443.97 275.98 664.39C275.98 665.22 275.98 666.059 275.966 666.89C274.856 667.073 273.753 667.081 272.644 666.875C272.644 665.978 272.636 665.081 272.636 664.184C272.636 444.213 272.636 224.243 272.636 4.2722C272.636 3.24275 272.636 2.22066 272.629 1.19122C271.71 0.125004 270.622 0.125004 269.741 1.19122C269.733 1.77212 269.711 2.34567 269.711 2.92657C269.711 223.471 269.711 444.015 269.711 664.559C269.711 665.323 269.799 666.088 269.851 666.86C268.969 667.044 268.087 667.059 267.205 666.89C267.205 660.536 267.198 654.183 267.198 647.83C267.198 432.919 267.198 218.007 267.198 3.09569C267.198 2.51479 267.198 1.94124 267.183 1.36034C267.176 0.955914 267.065 0.625021 266.573 0.477957C265.162 0.0441191 264.317 0.566195 264.273 1.93389C264.258 2.31625 264.273 2.70597 264.273 3.08834C264.273 223.324 264.273 443.559 264.273 663.801C264.273 664.831 264.273 665.853 264.265 666.882C263.244 667.073 262.222 667.059 261.2 666.853C261.465 665.838 261.34 664.809 261.34 663.787C261.34 443.757 261.34 223.728 261.34 3.706C261.34 2.87509 261.325 2.03683 261.311 1.20592C260.429 0.13971 259.334 0.13971 258.437 1.20592C258.437 2.03683 258.415 2.87509 258.415 3.706C258.415 223.875 258.415 444.037 258.415 664.206C258.415 665.103 258.415 666 258.4 666.904C257.43 667.081 256.467 667.081 255.497 666.904C255.497 666.007 255.483 665.11 255.483 664.206C255.483 443.846 255.483 223.485 255.483 3.11775C255.483 2.66921 255.461 2.22066 255.483 1.77212C255.527 0.948561 255.299 0.433838 254.226 0.433838C253.16 0.433838 252.925 0.941208 252.962 1.77212C252.991 2.34567 252.962 2.92657 252.962 3.50747C252.962 202.882 252.962 402.263 252.962 601.638C252.962 623.388 252.962 645.146 252.954 666.897C251.984 667.081 251.021 667.081 250.051 666.897C250.051 665.809 250.044 664.713 250.044 663.625C250.044 444.676 250.044 225.735 250.044 6.78699C250.044 5.44136 250.044 4.08837 250.037 2.74274C250.037 2.22801 250.037 1.72064 250.029 1.20592C249.133 0.13971 248.03 0.13971 247.156 1.20592C247.148 1.78682 247.126 2.36037 247.126 2.94127C247.126 223.485 247.126 444.022 247.126 664.566C247.126 665.331 247.214 666.095 247.266 666.868C246.185 667.081 245.112 667.066 244.032 666.875C244.297 665.926 244.179 664.956 244.179 664C244.179 443.904 244.179 223.816 244.179 3.72071C244.179 2.8898 244.164 2.05154 244.157 1.22063C243.275 0.147064 242.187 0.13971 241.254 1.21328C241.254 1.59564 241.254 1.98536 241.254 2.36773C241.254 222.787 241.254 443.206 241.254 663.625C241.254 664.713 241.254 665.809 241.247 666.897C239.586 667.103 237.917 667.11 236.256 666.897C236.256 665.868 236.256 664.845 236.256 663.816C236.256 444.044 236.256 224.265 236.256 4.4928C236.256 3.40452 236.256 2.3089 236.249 1.22063C235.323 0.154417 234.235 0.154417 233.361 1.22063C233.353 1.80153 233.331 2.37508 233.331 2.95598C233.331 223.507 233.331 444.051 233.331 664.603C233.331 665.368 233.258 666.147 233.486 666.897C232.537 667.073 231.589 667.073 230.634 666.897C230.913 665.882 230.796 664.853 230.796 663.831C230.796 443.735 230.796 223.64 230.796 3.53688C230.796 2.7648 230.788 2.00007 230.781 1.22798C229.862 0.102945 228.407 0.102945 227.488 1.22798C227.488 27.6627 227.474 54.1047 227.474 80.5394C227.474 274.972 227.474 469.398 227.474 663.831C227.474 664.853 227.349 665.882 227.635 666.897C226.467 667.066 225.291 667.073 224.122 666.882C224.122 665.787 224.108 664.698 224.108 663.61C224.108 444.029 224.108 224.449 224.108 4.87516C224.108 4.04425 224.108 3.20599 224.108 2.37508C224.108 1.99271 224.1 1.60299 224.093 1.22063C223.277 0.147064 222.439 0.147064 221.601 1.22063C221.601 1.80153 221.587 2.37508 221.587 2.95598C221.587 218.11 221.587 433.272 221.587 648.426C221.587 654.588 221.587 660.742 221.587 666.904C220.484 667.118 219.375 667.096 218.265 666.919C218.265 666.088 218.257 665.25 218.257 664.419C218.257 444.316 218.257 224.213 218.257 4.11778C218.257 3.15452 218.257 2.19125 218.25 1.22798C217.339 0.154417 216.251 0.154417 215.34 1.22798C215.34 1.80888 215.332 2.38243 215.332 2.96333C215.332 223.324 215.332 443.676 215.332 664.037C215.332 665 215.332 665.963 215.318 666.926C214.421 667.118 213.532 667.059 212.642 666.912C212.936 665.897 212.804 664.867 212.804 663.845C212.804 443.875 212.804 223.904 212.804 3.93395C212.804 3.03686 212.789 2.13978 212.782 1.24269C211.871 0.125004 210.416 0.125004 209.504 1.24269C209.497 2.01477 209.482 2.7795 209.482 3.55159C209.482 223.588 209.482 443.632 209.482 663.669C209.482 664.757 209.475 665.853 209.467 666.941C208.497 667.096 207.527 667.118 206.564 666.919C206.564 665.698 206.564 664.478 206.564 663.265C206.564 443.162 206.564 223.059 206.564 2.95598C206.564 2.57361 206.542 2.1839 206.564 1.80153C206.608 0.97062 206.366 0.463251 205.3 0.463251C204.235 0.463251 203.992 0.97062 204.036 1.80153C204.058 2.25007 204.036 2.69862 204.036 3.14716C204.036 223.574 204.036 443.993 204.036 664.419C204.036 665.25 204.036 666.088 204.029 666.919C203.059 667.11 202.096 667.11 201.126 666.934C201.118 666.573 201.104 666.206 201.096 665.846C201.096 665.206 201.111 664.559 201.111 663.919C201.111 443.669 201.111 223.419 201.111 3.16922C201.111 2.5295 201.096 1.88242 201.089 1.24269C200.2 0.176476 199.097 0.176476 198.223 1.24269C198.215 1.81624 198.193 2.39714 198.193 2.97069C198.193 223.515 198.193 444.051 198.193 664.595C198.193 665.36 198.282 666.125 198.333 666.897C197.458 667.096 196.576 667.103 195.687 666.941C195.687 665.978 195.672 665.015 195.672 664.051C195.672 443.882 195.672 223.721 195.672 3.55159C195.672 2.7795 195.658 2.01477 195.65 1.24269C194.754 0.176476 193.651 0.176476 192.777 1.24269C192.769 1.82359 192.747 2.39714 192.747 2.97804C192.747 223.522 192.747 444.066 192.747 664.617C192.747 665.382 192.667 666.162 192.902 666.912C191.74 667.088 190.572 667.147 189.411 666.926C189.411 665.897 189.403 664.875 189.403 663.845C189.403 444.073 189.403 224.294 189.403 4.52221C189.403 3.43394 189.403 2.33831 189.396 1.25004C188.558 0.176476 187.735 0.176476 186.882 1.25004C186.361 2.00742 186.478 2.85304 186.478 3.68395C186.478 224 186.478 444.316 186.478 664.632C186.478 665.397 186.574 666.162 186.625 666.926C185.185 667.11 183.737 667.14 182.289 666.948C182.289 665.985 182.274 665.022 182.274 664.059C182.274 443.89 182.274 223.721 182.274 3.55894C182.274 2.78686 182.26 2.02213 182.252 1.25004C181.37 0.18383 180.268 0.18383 179.379 1.25004C179.379 1.76476 179.379 2.27213 179.371 2.78686C179.371 7.7282 179.357 12.6695 179.357 17.6109C179.357 233.022 179.357 448.427 179.357 663.838C179.357 664.86 179.217 665.89 179.533 666.904C178.504 667.118 177.475 667.118 176.439 666.948C176.439 666.176 176.424 665.412 176.424 664.64C176.424 490.803 176.424 316.966 176.424 143.13C176.424 95.834 176.424 48.5457 176.417 1.25004C175.505 0.176476 174.418 0.176476 173.506 1.25004C173.506 1.88977 173.499 2.53685 173.499 3.17658C173.499 223.596 173.499 444.022 173.499 664.441C173.499 665.272 173.499 666.11 173.492 666.941C172.382 667.125 171.272 667.118 170.17 666.941C170.17 666.11 170.155 665.272 170.155 664.441C170.155 444.081 170.155 223.721 170.155 3.3604C170.155 2.6545 170.14 1.94859 170.126 1.24269C169.244 0.176476 168.149 0.176476 167.245 1.24269C167.245 1.88242 167.23 2.5295 167.23 3.16922C167.23 223.588 167.23 444.015 167.23 664.434C167.23 665.265 167.23 666.103 167.215 666.934C166.245 667.118 165.275 667.103 164.305 666.948C164.305 665.728 164.283 664.507 164.283 663.294C164.283 443.676 164.283 224.059 164.283 4.44868C164.283 3.93395 164.261 3.41923 164.283 2.91186C164.312 2.31625 164.18 1.76476 163.871 1.25004C163.026 0.176476 162.203 0.176476 161.35 1.25004C160.799 2.0736 160.946 2.98539 160.946 3.87513C160.946 224 160.946 444.125 160.946 664.257C160.946 665.154 160.858 666.059 161.108 666.941C160.219 667.081 159.329 667.14 158.433 666.948C158.433 666.118 158.418 665.279 158.418 664.448C158.418 444.279 158.418 224.118 158.418 3.94866C158.418 3.05157 158.403 2.15448 158.396 1.25739C157.499 0.198536 156.404 0.198536 155.515 1.25739C155.515 1.51476 155.508 1.77212 155.5 2.02948C155.5 2.86039 155.493 3.69865 155.493 4.52956C155.493 224.052 155.493 443.581 155.493 663.103C155.493 664.39 155.493 665.669 155.485 666.956C154.515 667.132 153.553 667.14 152.582 666.956C152.582 645.779 152.575 624.602 152.575 603.424C152.575 403.403 152.575 203.382 152.575 3.3604C152.575 2.72068 152.575 2.0736 152.56 1.43387C152.553 1.02945 152.443 0.698552 151.943 0.551489C150.525 0.117651 149.665 0.639727 149.65 2.01477C149.628 4.9634 149.65 7.91938 149.65 10.868C149.65 229.566 149.65 448.257 149.65 666.956C148.761 667.096 147.871 667.132 146.982 666.926C147.247 665.978 147.129 665.007 147.129 664.051C147.129 443.831 147.129 223.603 147.129 3.38246C147.129 2.67656 147.114 1.97065 147.1 1.26475C146.218 0.191183 145.123 0.191183 144.226 1.26475C144.226 1.97065 144.204 2.67656 144.204 3.38246C144.204 223.551 144.204 443.713 144.204 663.882C144.204 664.912 144.197 665.934 144.189 666.963C143.219 667.14 142.256 667.14 141.286 666.948C141.286 665.919 141.286 664.897 141.286 663.867C141.286 443.632 141.286 223.404 141.286 3.16922C141.286 2.72068 141.264 2.27213 141.286 1.82359C141.33 1.00003 141.088 0.48531 140.022 0.48531C138.964 0.48531 138.714 0.985327 138.758 1.81624C138.78 2.26478 138.758 2.71332 138.758 3.16187C138.758 223.522 138.758 443.882 138.758 664.242C138.758 665.14 138.758 666.037 138.758 666.941C137.516 667.14 136.267 667.14 135.025 666.941C135.025 666.235 135.017 665.529 135.017 664.823C135.017 443.632 135.017 222.449 135.017 1.25739C134.157 0.18383 133.334 0.18383 132.504 1.26475C132.504 1.84565 132.504 2.4192 132.504 3.0001C132.504 223.228 132.504 443.456 132.504 663.684C132.504 664.772 132.504 665.868 132.496 666.956C130.968 667.154 129.446 667.132 127.918 666.971C127.918 665.816 127.903 664.662 127.903 663.507C127.903 443.596 127.903 223.684 127.903 3.77954C127.903 2.94863 127.888 2.11036 127.881 1.27945C126.962 0.16177 125.514 0.16177 124.596 1.27945C124.588 1.79418 124.574 2.3089 124.574 2.81627C124.574 223.426 124.574 444.037 124.574 664.647C124.574 665.412 124.5 666.191 124.728 666.941C123.846 667.132 122.957 667.088 122.067 666.963C122.053 666.47 122.038 665.978 122.023 665.485C122.031 664.779 122.053 664.073 122.053 663.367C122.053 443.434 122.053 223.507 122.053 3.57365C122.053 2.80156 122.031 2.03683 122.023 1.26475C121.149 0.198536 120.054 0.198536 119.135 1.26475C119.135 1.77947 119.128 2.29419 119.128 2.80156C119.128 223.221 119.128 443.64 119.128 664.059C119.128 665.022 119.128 665.985 119.12 666.948C117.878 667.14 116.629 667.154 115.387 666.941C115.387 666.11 115.387 665.272 115.387 664.441C115.387 444.015 115.387 223.596 115.387 3.16922C115.387 2.6545 115.365 2.13978 115.387 1.63241C115.416 0.80885 114.99 0.500017 114.115 0.500017C113.233 0.500017 112.829 0.83091 112.858 1.63976C112.881 2.21331 112.858 2.79421 112.858 3.37511C112.858 223.669 112.858 443.963 112.858 664.265C112.858 665.162 112.858 666.059 112.851 666.963C111.741 667.154 110.639 667.154 109.529 666.963C109.529 653.742 109.522 640.521 109.522 627.307C109.522 419.264 109.522 211.22 109.522 3.17658C109.522 2.59567 109.522 2.02213 109.507 1.44122C109.5 1.0368 109.382 0.705906 108.89 0.558842C107.471 0.132357 106.641 0.64708 106.597 2.02213C106.582 2.40449 106.597 2.79421 106.597 3.17658C106.597 223.221 106.597 443.265 106.597 663.309C106.597 664.529 106.589 665.75 106.582 666.963C105.752 667.147 104.921 667.14 104.091 666.963C104.076 666.596 104.069 666.235 104.054 665.868C104.061 665.162 104.076 664.456 104.076 663.75C104.076 443.691 104.076 223.632 104.076 3.57365C104.076 2.80156 104.054 2.03683 104.039 1.26475C103.165 0.198536 102.077 0.198536 101.158 1.26475C101.158 1.77947 101.151 2.29419 101.151 2.80156C101.151 223.154 101.151 443.515 101.151 663.867C101.151 664.897 101.151 665.919 101.143 666.948C100.173 667.14 99.2105 667.14 98.2404 666.948C98.2404 627.227 98.233 587.505 98.233 547.783C98.233 366.306 98.233 184.83 98.233 3.35305C98.233 2.71332 98.2257 2.06624 98.2183 1.42652C98.2183 0.911795 97.9905 0.610314 97.3878 0.50737C95.8665 0.250008 95.3447 0.602961 95.3006 2.00742C95.2859 2.38978 95.3006 2.7795 95.3006 3.16187C95.3006 223.338 95.3006 443.507 95.3006 663.684C95.3006 664.772 95.2932 665.868 95.2859 666.956C94.3157 667.132 93.3456 667.132 92.3828 666.956C92.3828 665.735 92.3755 664.515 92.3755 663.301C92.3755 443.257 92.3755 223.221 92.3755 3.17658C92.3755 2.66185 92.3534 2.14713 92.3755 1.63976C92.4122 0.823557 91.9933 0.500017 91.1114 0.500017C90.2294 0.500017 89.8179 0.823557 89.8546 1.63976C89.8767 2.15448 89.8546 2.66921 89.8546 3.17658C89.8546 223.537 89.8546 443.897 89.8546 664.265C89.8546 665.162 89.8546 666.059 89.8399 666.963C88.8698 667.147 87.907 667.14 86.9369 666.963C86.9369 666.191 86.9295 665.426 86.9295 664.654C86.9295 444.228 86.9295 223.809 86.9295 3.38246C86.9295 2.67656 86.9148 1.97065 86.9075 1.26475C86.0108 0.198536 84.9158 0.205889 84.0338 1.26475C84.0265 2.09566 84.0044 2.93392 84.0044 3.76483C84.0044 223.699 84.0044 443.625 84.0044 663.559C84.0044 664.331 84.0191 665.095 84.0191 665.868C84.0118 666.228 83.9971 666.596 83.9897 666.956C82.88 667.14 81.7775 667.14 80.6678 666.956C80.6678 666.059 80.6531 665.162 80.6531 664.257C80.6531 444.287 80.6531 224.309 80.6531 4.33838C80.6531 3.30893 80.6384 2.28684 80.6384 1.25739C79.8226 0.18383 78.9921 0.18383 78.1395 1.25739C77.5075 2.13242 77.7353 3.11775 77.7353 4.06631C77.728 223.941 77.728 443.816 77.728 663.691C77.728 664.779 77.7206 665.875 77.7133 666.963C76.3242 667.132 74.9352 667.132 73.5461 666.963C73.5461 665.934 73.5314 664.912 73.5314 663.882C73.5314 443.779 73.5314 223.676 73.5314 3.57365C73.5314 2.80156 73.5167 2.03683 73.5094 1.26475C72.5907 0.147064 71.1428 0.147064 70.2242 1.26475C70.2168 1.97065 70.2021 2.67656 70.2021 3.38246C70.2021 223.551 70.2021 443.72 70.2021 663.882C70.2021 664.912 70.1948 665.934 70.1874 666.963C69.2173 667.118 68.2471 667.14 67.2844 666.934C67.2844 666.037 67.2844 665.14 67.2844 664.242C67.2844 443.882 67.2844 223.522 67.2844 3.16187C67.2844 2.64715 67.2623 2.13242 67.2844 1.62505C67.3211 0.80885 66.9022 0.48531 66.0202 0.48531C65.1457 0.48531 64.7194 0.801497 64.7561 1.62505C64.7782 2.0736 64.7561 2.52214 64.7561 2.97069C64.7561 224.294 64.7561 445.618 64.7561 666.934C63.5802 667.096 62.4117 667.11 61.2357 666.934C61.5224 665.919 61.3974 664.89 61.3974 663.867C61.3974 444 61.3974 224.125 61.3974 4.25749C61.3974 3.74277 61.368 3.22805 61.3974 2.72068C61.4342 2.1839 61.2357 1.71329 60.9859 1.25004C60.1407 0.176476 59.3102 0.176476 58.487 1.25004C58.487 1.88977 58.4723 2.53685 58.4723 3.17658C58.4723 223.338 58.4723 443.507 58.4723 663.669C58.4723 664.757 58.4723 665.853 58.465 666.941C57.3552 667.132 56.2528 667.132 55.143 666.941C55.143 665.978 55.1357 665.015 55.1357 664.051C55.1357 444.206 55.1357 224.368 55.1357 4.52221C55.1357 3.43394 55.1283 2.33831 55.121 1.25004C54.2096 0.18383 53.1219 0.18383 52.2326 1.25004C52.2326 1.63241 52.2326 2.02213 52.2326 2.40449C52.2326 3.2354 52.2106 4.07366 52.2106 4.90457C52.2106 224.493 52.2106 444.088 52.2106 663.676C52.2106 664.765 52.2106 665.86 52.2032 666.948C51.3727 667.118 50.5422 667.125 49.7191 666.948C49.7191 654.882 49.7117 642.823 49.7117 630.756C49.7117 421.558 49.7117 212.353 49.7117 3.15452C49.7117 2.57361 49.7117 2.00007 49.697 1.41916C49.6897 1.01474 49.5795 0.683846 49.0797 0.536782C47.6539 0.110298 46.8307 0.625021 46.7793 1.99271C46.7646 2.37508 46.7793 2.7648 46.7793 3.14716C46.7793 223.449 46.7793 443.75 46.7793 664.051C46.7793 665.015 46.7793 665.978 46.7646 666.941C45.7945 667.125 44.8317 667.118 43.8616 666.941C43.8616 665.912 43.8542 664.89 43.8542 663.86C43.8542 444.206 43.8542 224.552 43.8542 4.89722C43.8542 4.06631 43.8469 3.22805 43.8395 2.39714C43.8395 2.01477 43.8395 1.62505 43.8322 1.24269C42.9429 0.176476 41.8404 0.176476 40.9512 1.24269C40.9512 1.88242 40.9512 2.52214 40.9438 3.16187C40.9438 4.05896 40.9291 4.95605 40.9291 5.85313C40.9291 224.993 40.9291 444.132 40.9291 663.272C40.9291 664.492 40.9218 665.713 40.9144 666.926C39.9443 667.103 38.9815 667.103 38.0114 666.919C38.0114 666.279 38.004 665.64 38.004 664.992C38.004 443.735 38.004 222.478 38.004 1.22063C37.1441 0.147064 36.3283 0.147064 35.4905 1.22798C35.4905 222.037 35.4905 442.845 35.4905 663.654C35.4905 664.742 35.4905 665.838 35.4831 666.926C34.513 667.103 33.5429 667.103 32.5801 666.926C32.5801 666.029 32.5728 665.132 32.5728 664.235C32.5728 444.456 32.5728 224.669 32.5728 4.88987C32.5728 4.05896 32.5654 3.22069 32.558 2.38978C32.558 2.00742 32.558 1.62505 32.558 1.23533C31.6467 0.16177 30.5516 0.16177 29.6624 1.23533C29.6624 1.87506 29.6624 2.51479 29.6624 3.15452C29.655 3.98543 29.633 4.82369 29.633 5.6546C29.633 224.927 29.633 444.198 29.633 663.47C29.633 664.625 29.6256 665.779 29.6183 666.934C28.5085 667.096 27.3987 667.118 26.2963 666.919C26.2963 665.831 26.2889 664.735 26.2889 663.647C26.2889 444.25 26.2889 224.86 26.2889 5.46342C26.2889 4.56633 26.2889 3.66924 26.2816 2.7648C26.2816 2.25007 26.2816 1.7427 26.2816 1.22798C25.4584 0.147064 24.628 0.147064 23.7754 1.22798C23.7754 221.963 23.7754 442.706 23.7754 663.441C23.7754 664.595 23.7754 665.75 23.7681 666.904C22.1071 667.118 20.4388 667.125 18.7778 666.904C18.7778 665.875 18.7704 664.853 18.7704 663.823C18.7704 444.11 18.7704 224.397 18.7704 4.68398C18.7704 3.52953 18.7704 2.37508 18.7631 1.22063C17.837 0.154417 16.7493 0.154417 15.8747 1.22063C15.8674 1.80153 15.8453 2.37508 15.8453 2.95598C15.8453 223.5 15.8453 444.044 15.8453 664.588C15.8453 665.353 15.7645 666.132 15.9923 666.882C14.9707 667.088 13.9492 667.096 12.9202 666.912C12.9202 666.015 12.9055 665.117 12.9055 664.22C12.9055 444.184 12.9055 224.147 12.9055 4.11043C12.9055 3.14716 12.8908 2.1839 12.8835 1.22063C11.9868 0.154417 10.8918 0.154417 10.0098 1.22063C10.0025 1.80153 9.98044 2.37508 9.98044 2.95598C9.98044 223.5 9.98044 444.044 9.98044 664.588C9.98044 665.353 9.89959 666.132 10.1348 666.882L9.98779 666.948L9.8261 666.904C9.58357 666.706 9.36308 666.735 9.1573 666.956C8.45175 667.081 7.73885 667.081 7.0333 666.956C6.90101 666.831 6.77606 666.706 6.64377 666.573C6.64377 665.934 6.62908 665.287 6.62908 664.647C6.62908 444.596 6.62908 224.544 6.62908 4.48544C6.62908 3.77954 6.62173 3.07363 6.61438 2.36773C6.61438 1.98536 6.61438 1.60299 6.61438 1.21328C5.70304 0.132357 4.60062 0.132357 3.71868 1.22063C3.71868 1.86036 3.73338 2.49273 3.73338 3.13246C3.71868 3.96337 3.69663 4.80163 3.69663 5.63254C3.69663 224.713 3.69663 443.801 3.69663 662.882C3.69663 664.228 3.69663 665.581 3.69663 666.926C2.71915 667.081 1.74902 667.11 0.778887 666.89C0.778887 665.095 0.778887 663.294 0.778887 661.5C0.778887 442.684 0.778887 223.868 0.778887 5.05164C0.778887 3.76483 0.778887 2.48538 0.778887 1.19857C0.44081 -0.080885 -0.646913 0.558842 -1.37451 0.382366C-1.37451 0.257361 -1.37451 0.125004 -1.37451 0C123.839 0 249.059 0 374.272 0Z" fill="#513836"/>
<path d="M278.207 535.826C278.362 535.738 278.472 535.473 278.634 535.547C278.847 535.643 278.81 535.929 278.839 536.143C279.435 540.665 276.642 545.15 272.328 546.636C272.012 546.746 271.696 546.863 271.38 546.974C270.064 547.334 268.749 547.54 267.389 547.143C266.999 547.025 267.014 546.863 267.139 546.562C267.235 546.349 267.382 546.187 267.543 546.025C270.74 542.79 273.967 539.584 277.178 536.37C277.472 536.076 277.788 535.848 278.215 535.819L278.207 535.826Z" fill="#492E2B"/>
<path d="M329.58 549.834C329.397 549.643 329.191 549.459 329.029 549.246C328.882 549.062 328.515 548.944 328.64 548.687C328.735 548.489 329.081 548.525 329.331 548.496C334.71 547.974 339.326 551.54 340.178 556.908C340.347 557.974 340.311 559.055 340.046 560.217C339.443 559.651 338.9 559.143 338.356 558.629C337.489 558.29 336.908 557.599 336.276 556.967C334.703 555.393 333.145 553.79 331.543 552.246C330.786 551.518 330.22 550.658 329.588 549.834H329.58Z" fill="#492E2B"/>
<path d="M326.141 549.334C327.611 556.46 321.04 562.328 314.587 560.864C315.778 559.644 316.925 558.467 318.071 557.291C318.159 556.746 318.578 556.408 318.924 556.055C320.937 553.982 323.01 551.952 325.053 549.901C325.362 549.592 325.707 549.386 326.148 549.334H326.141Z" fill="#492E2B"/>
<path d="M328.316 545.886C327.721 546.4 327.691 545.967 327.684 545.503C327.927 544.878 327.706 544.231 327.743 543.592C327.794 542.819 328.059 542.091 328.081 541.319C329.419 536.93 334.343 533.54 339.237 534.746C339.26 534.988 339.017 535.062 338.921 535.231C338.936 535.297 338.943 535.385 338.899 535.422C337.878 536.297 337.238 537.496 336.261 538.422C334.277 540.319 332.336 542.275 330.425 544.253C329.793 544.908 329.029 545.342 328.316 545.878V545.886Z" fill="#492E2B"/>
<path d="M252.705 560.239C252.249 559.158 252.367 558.033 252.492 556.923C252.925 553.018 256.284 549.393 260.128 548.643C260.194 548.628 260.26 548.643 260.326 548.636C261.024 548.805 261.737 548.592 262.435 548.702C262.516 548.717 262.641 548.695 262.737 548.695C263.633 548.673 263.633 548.68 263.347 549.467C263.325 549.525 263.361 549.599 263.376 549.665C263.472 549.996 263.207 550.15 263.023 550.334C260.694 552.717 258.32 555.055 255.968 557.415C255.189 558.195 254.41 558.974 253.631 559.754C253.366 560.018 253.094 560.232 252.705 560.239Z" fill="#492E2B"/>
<path d="M315.072 553.283C316.535 550.835 318.666 549.298 321.43 548.629C321.584 548.592 321.731 548.548 321.878 548.504C321.996 548.349 322.165 548.357 322.326 548.357C322.393 548.357 322.459 548.379 322.525 548.393C323.127 548.43 323.737 548.437 324.333 548.298C324.399 548.29 324.465 548.283 324.531 548.283C324.899 548.261 325.318 548.401 325.443 548.665C325.575 548.967 325.303 549.335 325.053 549.592C323.017 551.665 321.048 553.82 318.857 555.724C317.535 556.872 316.307 558.1 315.058 559.313C314.903 559.46 314.749 559.651 314.514 559.703C314.021 559.761 313.83 559.526 313.801 559.048C313.727 557.622 313.852 556.217 314.389 554.886C314.609 554.349 315.058 553.901 315.072 553.268V553.283Z" fill="#492E2B"/>
<path d="M277.355 535.363C277.355 535.408 277.348 535.452 277.34 535.488C277.428 535.797 277.259 536.003 277.068 536.202C273.827 539.452 270.586 542.702 267.338 545.937C267.161 546.114 266.977 546.283 266.691 546.18C266.176 546.026 266.367 545.584 266.309 545.246C266.353 544.07 266.507 542.9 266.588 541.731C267.845 537.797 270.512 535.43 274.547 534.606C274.768 534.562 274.996 534.584 275.216 534.569C275.804 534.702 276.407 534.584 276.995 534.731C277.428 534.834 277.561 534.966 277.362 535.363H277.355Z" fill="#492E2B"/>
<path d="M270.873 548.636C273.011 548.945 274.746 550.011 276.216 551.548C278.31 553.739 279.104 556.379 278.839 559.364C278.817 559.599 278.744 559.835 278.7 560.07C278.413 560.085 278.347 559.835 278.171 559.754C277.899 559.916 277.7 559.768 277.517 559.585C274.569 556.673 271.652 553.746 268.741 550.798C268.66 550.717 268.602 550.621 268.55 550.518C268.528 550.011 268.455 549.54 267.815 549.452C267.764 549.408 267.72 549.356 267.698 549.298C267.565 548.878 267.698 548.702 268.153 548.702C269.057 548.695 269.961 548.702 270.865 548.636H270.873Z" fill="#492E2B"/>
<path d="M253.308 560.938C253.293 560.894 253.293 560.85 253.3 560.806C253.315 560.438 253.521 560.181 253.763 559.938C256.99 556.71 260.209 553.474 263.45 550.254C263.648 550.055 263.817 549.776 264.177 549.842C264.699 549.886 264.854 550.21 264.868 550.688C264.89 551.474 264.957 552.261 264.743 553.033C264.692 553.217 264.692 553.43 264.773 553.621C263.832 557.158 261.576 559.46 258.166 560.658C256.894 561.107 255.571 561.122 254.241 561.078C253.91 561.144 253.58 561.232 253.308 560.923V560.938Z" fill="#492E2B"/>
<path d="M259.54 546.864C257.129 546.069 255.218 544.628 253.851 542.474C252.573 540.444 252.19 538.238 252.514 535.885C252.536 535.716 252.639 535.554 252.712 535.393C253.249 535.422 253.579 535.723 253.778 536.194C253.697 536.782 254.042 537.084 254.447 537.459C255.233 538.179 255.939 538.988 256.732 539.716C256.945 539.915 257.137 540.04 257.423 539.952C257.695 539.952 257.872 540.128 258.048 540.304C259.871 542.106 261.679 543.915 263.494 545.716C263.817 546.04 263.891 546.511 264.244 546.812C264.391 546.937 264.266 547.106 264.089 547.15C262.575 547.533 261.076 547.569 259.599 546.989C259.562 546.974 259.555 546.915 259.54 546.871V546.864Z" fill="#492E2B"/>
<path d="M318.872 534.834C323.811 535.878 327.419 541.525 326.104 546.15C325.972 546.194 325.891 546.099 325.817 546.025C322.275 542.481 318.74 538.929 315.205 535.378C315.205 534.9 315.432 534.79 315.91 534.76C316.91 534.694 317.887 534.915 318.879 534.834H318.872Z" fill="#492E2B"/>
<path d="M275.326 560.945C271.365 560.849 268.859 558.607 267.095 555.298C266.926 554.989 266.838 554.629 266.713 554.298C266.492 553.004 266.36 551.702 266.309 550.393C266.367 550.048 266.154 549.599 266.691 549.445C266.977 549.342 267.161 549.518 267.338 549.695C270.321 552.665 273.305 555.643 276.274 558.636C276.399 558.761 276.517 558.901 276.598 559.07C276.782 559.496 276.738 560.055 277.355 560.217C277.472 560.246 277.597 560.489 277.561 560.68C277.517 560.886 277.303 560.857 277.156 560.901C276.554 561.077 275.944 561.041 275.341 560.952L275.326 560.945Z" fill="#492E2B"/>
<path d="M338.084 537.275C338.716 536.68 339.341 536.084 339.987 535.474C341.288 540.165 337.922 545.621 332.939 546.856C331.888 546.886 330.837 546.996 329.786 546.937C329.522 546.923 329.242 546.952 329.147 546.658C329.029 546.305 329.279 546.209 329.566 546.136C329.742 546.084 329.838 545.93 329.779 545.717C329.728 545.518 329.72 545.32 329.867 545.143C332.3 542.599 334.835 540.15 337.32 537.643C337.533 537.43 337.775 537.29 338.091 537.283L338.084 537.275Z" fill="#492E2B"/>
<path d="M320.232 546.599C316.983 545.643 314.051 542.025 313.764 538.606C313.867 537.944 313.771 537.275 313.816 536.613C313.838 536.224 313.889 535.827 314.448 535.908C315.219 536.268 315.682 536.988 316.263 537.562C318.718 539.981 321.143 542.43 323.576 544.871C324.002 545.298 324.465 545.687 324.803 546.195C324.803 546.283 324.788 546.378 324.84 546.459C325.104 546.901 324.928 547.011 324.48 546.981C323.061 546.871 321.628 546.967 320.232 546.606V546.599Z" fill="#492E2B"/>
<path d="M259.364 535.378C261.282 536.385 262.833 537.775 263.898 539.68C264.302 540.408 264.626 541.172 264.765 542.003C264.787 542.93 264.979 543.856 264.883 544.79C264.861 545.011 264.883 545.312 264.582 545.408C264.302 545.496 264.119 545.305 263.935 545.15C263.575 544.842 263.156 544.665 262.708 544.533C262.443 544.4 262.245 544.18 262.039 543.974C259.349 541.297 256.659 538.613 253.991 535.915C253.756 535.672 253.293 535.474 253.58 534.981C254.072 534.584 254.645 534.797 255.182 534.782C256.468 534.738 257.747 534.834 259.018 534.966C259.202 535.047 259.319 535.18 259.356 535.385L259.364 535.378Z" fill="#492E2B"/>
<path d="M334.159 560.526C331.138 559.423 329.147 557.32 328.081 554.305C328.323 553.857 327.794 553.364 328.169 552.923C328.221 552.864 328.213 552.849 328.184 552.893C327.956 552.68 327.736 552.129 327.75 551.68C327.75 551.504 327.75 551.327 327.75 551.151C327.758 550.467 328.154 550.261 328.757 550.607C329.073 550.783 329.389 550.967 329.735 551.092C332.638 553.158 334.82 555.982 337.393 558.394C337.562 558.555 337.709 558.754 337.753 559.004C337.591 559.475 337.709 559.82 338.209 559.982C338.275 560.004 338.356 560.004 338.4 560.048C338.62 560.254 338.995 560.453 338.914 560.754C338.833 561.056 338.458 560.85 338.209 560.872C337.437 560.938 336.65 561.041 335.893 560.82C335.32 560.658 334.747 560.585 334.159 560.526Z" fill="#492E2B"/>
<path d="M308.568 569.482C308.722 569.394 308.832 569.129 308.994 569.203C309.207 569.298 309.17 569.585 309.2 569.798C309.795 574.321 307.002 578.806 302.688 580.291C302.372 580.402 302.056 580.519 301.74 580.63C300.425 580.99 299.109 581.196 297.749 580.799C297.36 580.681 297.375 580.519 297.499 580.218C297.595 580.005 297.742 579.843 297.904 579.681C301.101 576.446 304.327 573.24 307.539 570.026C307.833 569.732 308.149 569.504 308.575 569.475L308.568 569.482Z" fill="#492E2B"/>
<path d="M359.941 583.49C359.757 583.299 359.551 583.115 359.39 582.902C359.243 582.718 358.875 582.6 359 582.343C359.096 582.144 359.441 582.181 359.691 582.152C365.071 581.63 369.686 585.196 370.539 590.564C370.708 591.63 370.671 592.711 370.406 593.873C369.804 593.306 369.26 592.799 368.716 592.284C367.849 591.946 367.268 591.255 366.636 590.623C365.063 589.049 363.505 587.446 361.903 585.902C361.146 585.174 360.58 584.314 359.948 583.49H359.941Z" fill="#492E2B"/>
<path d="M356.501 582.998C357.971 590.123 351.401 595.991 344.948 594.527C346.138 593.307 347.285 592.13 348.431 590.954C348.52 590.41 348.939 590.071 349.284 589.718C351.298 587.645 353.37 585.615 355.413 583.564C355.722 583.255 356.068 583.049 356.508 582.998H356.501Z" fill="#492E2B"/>
<path d="M358.684 579.542C358.089 580.056 358.059 579.622 358.052 579.159C358.294 578.534 358.074 577.887 358.111 577.247C358.162 576.475 358.427 575.747 358.449 574.975C359.786 570.585 364.71 567.195 369.605 568.401C369.627 568.644 369.385 568.718 369.289 568.887C369.304 568.953 369.311 569.041 369.267 569.078C368.245 569.953 367.606 571.152 366.629 572.078C364.644 573.975 362.704 575.931 360.793 577.909C360.161 578.564 359.397 578.997 358.684 579.534V579.542Z" fill="#492E2B"/>
<path d="M283.065 593.895C282.609 592.814 282.727 591.689 282.852 590.579C283.286 586.674 286.644 583.049 290.488 582.299C290.554 582.284 290.62 582.299 290.686 582.292C291.385 582.461 292.098 582.247 292.796 582.358C292.877 582.372 293.002 582.35 293.097 582.35C293.994 582.328 293.994 582.336 293.707 583.122C293.685 583.181 293.722 583.255 293.737 583.321C293.832 583.652 293.567 583.806 293.384 583.99C291.054 586.373 288.68 588.711 286.328 591.071C285.549 591.851 284.77 592.63 283.991 593.41C283.727 593.674 283.455 593.887 283.065 593.895Z" fill="#492E2B"/>
<path d="M345.433 586.946C346.895 584.498 349.027 582.961 351.79 582.292C351.944 582.255 352.091 582.211 352.238 582.167C352.356 582.012 352.525 582.02 352.687 582.02C352.753 582.02 352.819 582.042 352.885 582.056C353.488 582.093 354.098 582.101 354.693 581.961C354.759 581.953 354.825 581.946 354.892 581.946C355.259 581.924 355.678 582.064 355.803 582.328C355.935 582.63 355.663 582.998 355.413 583.255C353.378 585.329 351.408 587.483 349.218 589.388C347.895 590.535 346.667 591.763 345.418 592.976C345.264 593.123 345.109 593.314 344.874 593.366C344.382 593.424 344.191 593.189 344.161 592.711C344.088 591.285 344.213 589.88 344.749 588.549C344.97 588.013 345.418 587.564 345.433 586.932V586.946Z" fill="#492E2B"/>
<path d="M307.715 569.019C307.715 569.063 307.708 569.107 307.701 569.144C307.789 569.453 307.62 569.659 307.429 569.857C304.187 573.108 300.946 576.358 297.698 579.593C297.521 579.77 297.338 579.939 297.051 579.836C296.537 579.681 296.728 579.24 296.669 578.902C296.713 577.725 296.867 576.556 296.948 575.387C298.205 571.453 300.873 569.085 304.908 568.262C305.128 568.218 305.356 568.24 305.577 568.225C306.164 568.357 306.767 568.24 307.355 568.387C307.789 568.49 307.921 568.622 307.723 569.019H307.715Z" fill="#492E2B"/>
<path d="M301.24 582.292C303.379 582.6 305.113 583.667 306.583 585.203C308.678 587.395 309.472 590.034 309.207 593.02C309.185 593.255 309.112 593.49 309.068 593.726C308.781 593.74 308.715 593.49 308.538 593.41C308.266 593.571 308.068 593.424 307.884 593.24C304.937 590.329 302.019 587.402 299.109 584.453C299.028 584.372 298.969 584.277 298.918 584.174C298.896 583.667 298.822 583.196 298.183 583.108C298.131 583.064 298.087 583.012 298.065 582.953C297.933 582.534 298.065 582.358 298.521 582.358C299.425 582.35 300.329 582.358 301.233 582.292H301.24Z" fill="#492E2B"/>
<path d="M283.668 594.594C283.653 594.55 283.653 594.505 283.661 594.461C283.675 594.094 283.881 593.836 284.124 593.594C287.35 590.366 290.569 587.13 293.81 583.909C294.009 583.711 294.178 583.432 294.538 583.498C295.06 583.542 295.214 583.865 295.229 584.343C295.251 585.13 295.317 585.917 295.104 586.689C295.052 586.873 295.052 587.086 295.133 587.277C294.192 590.814 291.936 593.116 288.526 594.314C287.254 594.763 285.932 594.777 284.601 594.733C284.271 594.8 283.94 594.888 283.668 594.579V594.594Z" fill="#492E2B"/>
<path d="M289.9 580.519C287.49 579.725 285.579 578.284 284.212 576.129C282.933 574.1 282.551 571.894 282.874 569.541C282.896 569.372 282.999 569.21 283.073 569.048C283.609 569.078 283.94 569.379 284.138 569.85C284.057 570.438 284.403 570.74 284.807 571.115C285.593 571.835 286.299 572.644 287.093 573.372C287.306 573.571 287.497 573.696 287.784 573.607C288.055 573.607 288.232 573.784 288.408 573.96C290.231 575.762 292.039 577.571 293.854 579.372C294.178 579.696 294.251 580.166 294.604 580.468C294.751 580.593 294.626 580.762 294.45 580.806C292.936 581.188 291.436 581.225 289.959 580.644C289.922 580.63 289.915 580.571 289.9 580.527V580.519Z" fill="#492E2B"/>
<path d="M349.232 568.489C354.171 569.534 357.78 575.181 356.464 579.806C356.332 579.85 356.251 579.755 356.178 579.681C352.635 576.137 349.1 572.585 345.565 569.034C345.565 568.556 345.793 568.445 346.27 568.416C347.27 568.35 348.248 568.57 349.24 568.489H349.232Z" fill="#492E2B"/>
<path d="M305.687 594.601C301.725 594.505 299.219 592.262 297.455 588.953C297.286 588.645 297.198 588.284 297.073 587.953C296.853 586.659 296.72 585.358 296.669 584.049C296.728 583.703 296.515 583.255 297.051 583.1C297.338 582.997 297.521 583.174 297.698 583.35C300.682 586.321 303.666 589.299 306.635 592.292C306.76 592.417 306.877 592.557 306.958 592.726C307.142 593.152 307.098 593.711 307.715 593.873C307.833 593.902 307.958 594.145 307.921 594.336C307.877 594.542 307.664 594.512 307.517 594.557C306.914 594.733 306.304 594.696 305.701 594.608L305.687 594.601Z" fill="#492E2B"/>
<path d="M368.444 570.931C369.076 570.335 369.701 569.74 370.348 569.129C371.649 573.821 368.283 579.277 363.3 580.512C362.249 580.542 361.198 580.652 360.147 580.593C359.882 580.578 359.603 580.608 359.507 580.314C359.39 579.961 359.64 579.865 359.926 579.792C360.103 579.74 360.198 579.586 360.139 579.372C360.088 579.174 360.081 578.975 360.228 578.799C362.66 576.255 365.196 573.806 367.68 571.299C367.893 571.085 368.136 570.946 368.452 570.938L368.444 570.931Z" fill="#492E2B"/>
<path d="M350.592 580.255C347.344 579.299 344.411 575.681 344.125 572.262C344.227 571.6 344.132 570.931 344.176 570.269C344.198 569.879 344.249 569.482 344.808 569.563C345.58 569.924 346.043 570.644 346.623 571.218C349.078 573.637 351.503 576.086 353.936 578.527C354.362 578.953 354.825 579.343 355.163 579.85C355.163 579.939 355.149 580.034 355.2 580.115C355.465 580.556 355.288 580.667 354.84 580.637C353.422 580.527 351.988 580.622 350.592 580.262V580.255Z" fill="#492E2B"/>
<path d="M289.731 569.034C291.649 570.041 293.2 571.431 294.266 573.335C294.67 574.063 294.993 574.828 295.133 575.659C295.155 576.586 295.346 577.512 295.251 578.446C295.229 578.666 295.251 578.968 294.949 579.064C294.67 579.152 294.486 578.961 294.303 578.806C293.942 578.497 293.524 578.321 293.075 578.189C292.811 578.056 292.612 577.836 292.406 577.63C289.717 574.953 287.027 572.269 284.359 569.571C284.124 569.328 283.661 569.129 283.947 568.637C284.44 568.24 285.013 568.453 285.549 568.438C286.836 568.394 288.114 568.49 289.386 568.622C289.57 568.703 289.687 568.835 289.724 569.041L289.731 569.034Z" fill="#492E2B"/>
<path d="M364.519 594.182C361.499 593.079 359.507 590.976 358.441 587.961C358.684 587.513 358.155 587.02 358.529 586.579C358.581 586.52 358.574 586.505 358.544 586.549C358.316 586.336 358.096 585.785 358.111 585.336C358.111 585.16 358.111 584.983 358.111 584.807C358.118 584.123 358.515 583.917 359.117 584.262C359.433 584.439 359.749 584.623 360.095 584.748C362.998 586.814 365.181 589.638 367.753 592.049C367.922 592.211 368.069 592.41 368.113 592.66C367.952 593.13 368.069 593.476 368.569 593.638C368.635 593.66 368.716 593.66 368.76 593.704C368.98 593.91 369.355 594.108 369.274 594.41C369.194 594.711 368.819 594.505 368.569 594.527C367.797 594.594 367.011 594.697 366.254 594.476C365.681 594.314 365.107 594.241 364.519 594.182Z" fill="#492E2B"/>
<path d="M276.267 597.314C276.421 597.225 276.532 596.961 276.693 597.034C276.906 597.13 276.87 597.417 276.899 597.63C277.494 602.152 274.702 606.638 270.387 608.123C270.071 608.233 269.755 608.351 269.439 608.461C268.124 608.821 266.808 609.027 265.449 608.63C265.059 608.513 265.074 608.351 265.199 608.049C265.294 607.836 265.441 607.674 265.603 607.513C268.8 604.277 272.026 601.071 275.238 597.858C275.532 597.564 275.848 597.336 276.274 597.306L276.267 597.314Z" fill="#492E2B"/>
<path d="M327.64 611.329C327.456 611.138 327.251 610.954 327.089 610.741C326.942 610.557 326.574 610.439 326.699 610.182C326.795 609.983 327.14 610.02 327.39 609.991C332.77 609.468 337.385 613.035 338.238 618.403C338.407 619.469 338.37 620.55 338.106 621.712C337.503 621.145 336.959 620.638 336.415 620.123C335.548 619.785 334.967 619.094 334.335 618.461C332.763 616.888 331.205 615.285 329.602 613.741C328.845 613.013 328.279 612.152 327.647 611.329H327.64Z" fill="#492E2B"/>
<path d="M324.2 610.829C325.67 617.954 319.1 623.822 312.647 622.359C313.838 621.138 314.984 619.962 316.131 618.785C316.219 618.241 316.638 617.903 316.983 617.55C318.997 615.476 321.069 613.447 323.113 611.395C323.421 611.086 323.767 610.881 324.208 610.829H324.2Z" fill="#492E2B"/>
<path d="M326.376 607.38C325.78 607.895 325.751 607.461 325.744 606.998C325.986 606.373 325.766 605.726 325.802 605.086C325.854 604.314 326.118 603.586 326.141 602.814C327.478 598.424 332.402 595.034 337.297 596.24C337.319 596.483 337.077 596.556 336.981 596.726C336.996 596.792 337.003 596.88 336.959 596.917C335.937 597.792 335.298 598.99 334.321 599.917C332.336 601.814 330.396 603.77 328.485 605.748C327.853 606.402 327.089 606.836 326.376 607.373V607.38Z" fill="#492E2B"/>
<path d="M250.764 621.734C250.309 620.653 250.426 619.528 250.551 618.417C250.985 614.513 254.343 610.888 258.187 610.138C258.253 610.123 258.32 610.138 258.386 610.13C259.084 610.299 259.797 610.086 260.495 610.197C260.576 610.211 260.701 610.189 260.796 610.189C261.693 610.167 261.693 610.174 261.406 610.961C261.384 611.02 261.421 611.094 261.436 611.16C261.531 611.491 261.267 611.645 261.083 611.829C258.753 614.211 256.379 616.55 254.027 618.91C253.248 619.69 252.469 620.469 251.69 621.248C251.426 621.513 251.154 621.726 250.764 621.734Z" fill="#492E2B"/>
<path d="M313.132 614.778C314.595 612.329 316.726 610.792 319.489 610.123C319.644 610.086 319.791 610.042 319.938 609.998C320.055 609.844 320.224 609.851 320.386 609.851C320.452 609.851 320.518 609.873 320.584 609.888C321.187 609.925 321.797 609.932 322.392 609.792C322.459 609.785 322.525 609.778 322.591 609.778C322.958 609.756 323.377 609.895 323.502 610.16C323.634 610.461 323.362 610.829 323.113 611.087C321.077 613.16 319.107 615.315 316.917 617.219C315.594 618.366 314.367 619.594 313.117 620.807C312.963 620.954 312.809 621.146 312.573 621.197C312.081 621.256 311.89 621.021 311.861 620.543C311.787 619.116 311.912 617.712 312.449 616.381C312.669 615.844 313.117 615.395 313.132 614.763V614.778Z" fill="#492E2B"/>
<path d="M275.414 596.858C275.414 596.902 275.407 596.946 275.4 596.983C275.488 597.292 275.319 597.498 275.128 597.696C271.887 600.947 268.646 604.197 265.397 607.432C265.221 607.608 265.037 607.778 264.75 607.675C264.236 607.52 264.427 607.079 264.368 606.741C264.412 605.564 264.567 604.395 264.647 603.226C265.904 599.292 268.572 596.924 272.607 596.101C272.827 596.057 273.055 596.079 273.276 596.064C273.864 596.196 274.466 596.079 275.054 596.226C275.488 596.329 275.62 596.461 275.422 596.858H275.414Z" fill="#492E2B"/>
<path d="M268.932 610.13C271.071 610.439 272.805 611.505 274.275 613.042C276.37 615.233 277.164 617.873 276.899 620.859C276.877 621.094 276.803 621.329 276.759 621.565C276.473 621.579 276.407 621.329 276.23 621.248C275.958 621.41 275.76 621.263 275.576 621.079C272.629 618.167 269.711 615.241 266.801 612.292C266.72 612.211 266.661 612.116 266.61 612.013C266.588 611.505 266.514 611.035 265.875 610.947C265.823 610.902 265.779 610.851 265.757 610.792C265.625 610.373 265.757 610.197 266.213 610.197C267.117 610.189 268.021 610.197 268.925 610.13H268.932Z" fill="#492E2B"/>
<path d="M251.367 622.433C251.352 622.388 251.352 622.344 251.36 622.3C251.375 621.932 251.58 621.675 251.823 621.432C255.049 618.204 258.268 614.969 261.509 611.748C261.708 611.55 261.877 611.27 262.237 611.337C262.759 611.381 262.913 611.704 262.928 612.182C262.95 612.969 263.016 613.756 262.803 614.528C262.751 614.712 262.752 614.925 262.832 615.116C261.892 618.653 259.635 620.955 256.225 622.153C254.954 622.602 253.631 622.616 252.301 622.572C251.97 622.638 251.639 622.727 251.367 622.418V622.433Z" fill="#492E2B"/>
<path d="M257.599 608.358C255.189 607.564 253.278 606.123 251.911 603.968C250.632 601.939 250.25 599.733 250.573 597.38C250.595 597.211 250.698 597.049 250.772 596.887C251.308 596.917 251.639 597.218 251.837 597.689C251.757 598.277 252.102 598.578 252.506 598.953C253.293 599.674 253.998 600.483 254.792 601.211C255.005 601.409 255.196 601.534 255.483 601.446C255.755 601.446 255.931 601.623 256.107 601.799C257.93 603.601 259.738 605.41 261.553 607.211C261.877 607.535 261.95 608.005 262.303 608.307C262.45 608.432 262.325 608.601 262.149 608.645C260.635 609.027 259.135 609.064 257.658 608.483C257.621 608.468 257.614 608.41 257.599 608.366V608.358Z" fill="#492E2B"/>
<path d="M316.932 596.328C321.87 597.372 325.479 603.02 324.163 607.645C324.031 607.689 323.95 607.593 323.877 607.52C320.334 603.976 316.799 600.424 313.264 596.872C313.264 596.394 313.492 596.284 313.97 596.255C314.969 596.189 315.947 596.409 316.939 596.328H316.932Z" fill="#492E2B"/>
<path d="M273.386 622.44C269.425 622.344 266.918 620.101 265.155 616.792C264.986 616.483 264.897 616.123 264.772 615.792C264.552 614.498 264.42 613.197 264.368 611.888C264.427 611.542 264.214 611.094 264.75 610.939C265.037 610.836 265.221 611.013 265.397 611.189C268.381 614.16 271.365 617.138 274.334 620.131C274.459 620.256 274.577 620.395 274.657 620.565C274.841 620.991 274.797 621.55 275.414 621.712C275.532 621.741 275.657 621.984 275.62 622.175C275.576 622.381 275.363 622.351 275.216 622.395C274.613 622.572 274.003 622.535 273.401 622.447L273.386 622.44Z" fill="#492E2B"/>
<path d="M336.143 598.762C336.776 598.167 337.4 597.571 338.047 596.961C339.348 601.652 335.982 607.108 330.999 608.344C329.948 608.373 328.897 608.483 327.846 608.425C327.581 608.41 327.302 608.439 327.207 608.145C327.089 607.792 327.339 607.697 327.625 607.623C327.802 607.572 327.897 607.417 327.839 607.204C327.787 607.005 327.78 606.807 327.927 606.63C330.359 604.086 332.895 601.638 335.379 599.13C335.592 598.917 335.835 598.777 336.151 598.77L336.143 598.762Z" fill="#492E2B"/>
<path d="M318.291 608.086C315.043 607.13 312.11 603.513 311.824 600.093C311.927 599.432 311.831 598.763 311.875 598.101C311.897 597.711 311.949 597.314 312.507 597.395C313.279 597.755 313.742 598.476 314.323 599.049C316.777 601.469 319.203 603.917 321.635 606.358C322.062 606.785 322.525 607.175 322.863 607.682C322.863 607.77 322.848 607.866 322.899 607.947C323.164 608.388 322.988 608.498 322.539 608.469C321.121 608.358 319.688 608.454 318.291 608.094V608.086Z" fill="#492E2B"/>
<path d="M257.423 596.873C259.341 597.88 260.892 599.27 261.958 601.174C262.362 601.902 262.685 602.667 262.825 603.498C262.847 604.424 263.038 605.351 262.943 606.285C262.921 606.505 262.943 606.807 262.641 606.902C262.362 606.991 262.178 606.8 261.995 606.645C261.634 606.336 261.215 606.16 260.767 606.027C260.503 605.895 260.304 605.674 260.098 605.469C257.408 602.792 254.719 600.108 252.051 597.409C251.815 597.167 251.352 596.968 251.639 596.476C252.132 596.079 252.705 596.292 253.241 596.277C254.527 596.233 255.806 596.329 257.078 596.461C257.261 596.542 257.379 596.674 257.416 596.88L257.423 596.873Z" fill="#492E2B"/>
<path d="M332.219 622.021C329.198 620.918 327.206 618.815 326.141 615.8C326.383 615.351 325.854 614.859 326.229 614.418C326.28 614.359 326.273 614.344 326.243 614.388C326.016 614.175 325.795 613.623 325.81 613.175C325.81 612.998 325.81 612.822 325.81 612.645C325.817 611.962 326.214 611.756 326.817 612.101C327.133 612.278 327.449 612.462 327.794 612.587C330.697 614.653 332.88 617.476 335.452 619.888C335.621 620.05 335.768 620.249 335.812 620.499C335.651 620.969 335.768 621.315 336.268 621.477C336.334 621.499 336.415 621.499 336.459 621.543C336.68 621.749 337.054 621.947 336.974 622.249C336.893 622.55 336.518 622.344 336.268 622.366C335.496 622.433 334.71 622.535 333.953 622.315C333.38 622.153 332.806 622.08 332.219 622.021Z" fill="#492E2B"/>
<path d="M34.8734 19.6843C35.0278 19.596 35.138 19.3313 35.2997 19.4048C35.5128 19.5004 35.4761 19.7872 35.5055 20.0004C36.1008 24.5227 33.308 29.0081 28.9938 30.4934C28.6778 30.6037 28.3618 30.7214 28.0458 30.8317C26.7302 31.192 25.4146 31.3979 24.055 31.0008C23.6655 30.8832 23.6802 30.7214 23.8051 30.4199C23.9007 30.2067 24.0476 30.0449 24.2093 29.8831C27.4064 26.6477 30.6328 23.4417 33.8445 20.2284C34.1385 19.9343 34.4545 19.7063 34.8808 19.6769L34.8734 19.6843Z" fill="#492E2B"/>
<path d="M86.2465 33.6994C86.0627 33.5083 85.857 33.3244 85.6953 33.1112C85.5483 32.9274 85.1808 32.8097 85.3058 32.5523C85.4013 32.3538 85.7467 32.3906 85.9966 32.3612C91.3764 31.8391 95.9919 35.4054 96.8444 40.7732C97.0135 41.8394 96.9767 42.9203 96.7121 44.0821C96.1095 43.5159 95.5656 43.0086 95.0218 42.4938C94.1545 42.1556 93.5739 41.4644 92.9419 40.832C91.3691 39.2584 89.811 37.6555 88.2088 36.1113C87.4518 35.3833 86.8859 34.523 86.2538 33.6994H86.2465Z" fill="#492E2B"/>
<path d="M82.8068 33.1997C84.2767 40.3249 77.7063 46.1928 71.2534 44.7295C72.444 43.5089 73.5906 42.3324 74.7371 41.1559C74.8253 40.6117 75.2442 40.2735 75.5896 39.9205C77.6034 37.8469 79.6759 35.8174 81.7191 33.7659C82.0278 33.4571 82.3732 33.2512 82.8142 33.1997H82.8068Z" fill="#492E2B"/>
<path d="M84.9822 29.751C84.3868 30.2657 84.3574 29.8318 84.3501 29.3686C84.5926 28.7436 84.3721 28.0965 84.4089 27.4568C84.4603 26.6847 84.7249 25.9567 84.747 25.1846C86.0846 20.7948 91.0087 17.405 95.9035 18.6109C95.9255 18.8535 95.683 18.9271 95.5875 19.0962C95.6022 19.1624 95.6095 19.2506 95.5654 19.2874C94.5438 20.1624 93.9044 21.361 92.9269 22.2875C90.9426 24.1846 89.0023 26.1406 87.0915 28.1186C86.4594 28.773 85.6951 29.2068 84.9822 29.7436V29.751Z" fill="#492E2B"/>
<path d="M9.37073 44.1043C8.91507 43.0234 9.03266 41.8983 9.1576 40.788C9.59122 36.8835 12.9499 33.2584 16.7937 32.5083C16.8599 32.4936 16.926 32.5083 16.9921 32.501C17.6903 32.6701 18.4032 32.4569 19.1014 32.5672C19.1823 32.5819 19.3072 32.5598 19.4028 32.5598C20.2994 32.5377 20.2994 32.5451 20.0128 33.3319C19.9907 33.3907 20.0275 33.4642 20.0422 33.5304C20.1377 33.8613 19.8731 34.0157 19.6894 34.1996C17.3596 36.582 14.9857 38.9203 12.6339 41.2807C11.8549 42.0601 11.0758 42.8396 10.2968 43.619C10.0322 43.8837 9.76026 44.0969 9.37073 44.1043Z" fill="#492E2B"/>
<path d="M71.7384 37.1484C73.201 34.6998 75.3323 33.163 78.0958 32.4939C78.2501 32.4571 78.3971 32.413 78.5441 32.3689C78.6617 32.2144 78.8307 32.2218 78.9924 32.2218C79.0585 32.2218 79.1247 32.2439 79.1908 32.2586C79.7935 32.2953 80.4035 32.3027 80.9988 32.163C81.0649 32.1556 81.1311 32.1483 81.1972 32.1483C81.5647 32.1262 81.9836 32.2659 82.1086 32.5306C82.2409 32.8321 81.9689 33.1998 81.719 33.4571C79.6832 35.5307 77.7136 37.6852 75.5234 39.5897C74.2005 40.7368 72.9732 41.9648 71.7237 43.178C71.5694 43.3251 71.4151 43.5163 71.1799 43.5678C70.6875 43.6266 70.4964 43.3913 70.467 42.9133C70.3935 41.4868 70.5184 40.0823 71.0549 38.7514C71.2754 38.2146 71.7237 37.7661 71.7384 37.1337V37.1484Z" fill="#492E2B"/>
<path d="M34.0209 19.2287C34.0209 19.2728 34.0135 19.317 34.0062 19.3537C34.0944 19.6626 33.9253 19.8684 33.7343 20.067C30.4931 23.3171 27.252 26.5672 24.0035 29.8026C23.8271 29.9791 23.6434 30.1482 23.3568 30.0452C22.8423 29.8908 23.0334 29.4496 22.9746 29.1114C23.0187 27.9349 23.173 26.7657 23.2539 25.5966C24.5107 21.6626 27.1785 19.2949 31.2134 18.4713C31.4339 18.4272 31.6617 18.4493 31.8822 18.4346C32.4701 18.5669 33.0728 18.4493 33.6608 18.5963C34.0944 18.6993 34.2267 18.8316 34.0282 19.2287H34.0209Z" fill="#492E2B"/>
<path d="M27.5386 32.501C29.6773 32.8098 31.4118 33.876 32.8817 35.4128C34.9763 37.6041 35.7701 40.2439 35.5055 43.2293C35.4834 43.4646 35.4099 43.6999 35.3658 43.9352C35.0792 43.9499 35.0131 43.6999 34.8367 43.619C34.5647 43.7808 34.3663 43.6337 34.1826 43.4499C31.2354 40.538 28.3177 37.6114 25.4073 34.6628C25.3264 34.5819 25.2677 34.4863 25.2162 34.3834C25.1942 33.876 25.1207 33.4054 24.4813 33.3172C24.4298 33.2731 24.3857 33.2216 24.3637 33.1628C24.2314 32.7436 24.3637 32.5672 24.8193 32.5672C25.7233 32.5598 26.6273 32.5672 27.5313 32.501H27.5386Z" fill="#492E2B"/>
<path d="M9.9736 44.8031C9.9589 44.759 9.9589 44.7149 9.96625 44.6708C9.98095 44.3031 10.1867 44.0458 10.4293 43.8031C13.6557 40.5751 16.8748 37.3397 20.1159 34.119C20.3143 33.9204 20.4834 33.641 20.8435 33.7072C21.3653 33.7513 21.5196 34.0748 21.5343 34.5528C21.5564 35.3396 21.6225 36.1264 21.4094 36.8985C21.358 37.0823 21.358 37.2955 21.4388 37.4867C20.4981 41.0236 18.2418 43.3251 14.8316 44.5237C13.5602 44.9723 12.2372 44.987 10.907 44.9428C10.5763 45.009 10.2455 45.0973 9.9736 44.7884V44.8031Z" fill="#492E2B"/>
<path d="M16.2059 30.7288C13.7952 29.9346 11.8844 28.4934 10.5174 26.3389C9.23856 24.3094 8.85639 22.1035 9.17976 19.7505C9.20181 19.5814 9.3047 19.4196 9.3782 19.2578C9.91471 19.2872 10.2454 19.5887 10.4439 20.0593C10.363 20.6476 10.7085 20.949 11.1127 21.3241C11.8991 22.0447 12.6046 22.8535 13.3984 23.5815C13.6115 23.78 13.8026 23.905 14.0892 23.8168C14.3611 23.8168 14.5375 23.9933 14.7139 24.1697C16.5366 25.9713 18.3446 27.7802 20.1599 29.5817C20.4833 29.9052 20.5568 30.3758 20.9095 30.6773C21.0565 30.8023 20.9316 30.9714 20.7552 31.0156C19.2412 31.3979 17.7419 31.4347 16.2647 30.8538C16.2279 30.8391 16.2206 30.7803 16.2059 30.7361V30.7288Z" fill="#492E2B"/>
<path d="M75.538 18.6989C80.4768 19.743 84.0854 25.3903 82.7699 30.0154C82.6376 30.0596 82.5568 29.964 82.4833 29.8904C78.9408 26.3462 75.4057 22.7946 71.8706 19.243C71.8706 18.7651 72.0984 18.6548 72.5762 18.6254C73.5757 18.5592 74.5532 18.7798 75.5453 18.6989H75.538Z" fill="#492E2B"/>
<path d="M31.9924 44.8102C28.0311 44.7146 25.5249 42.4719 23.761 39.1629C23.592 38.8541 23.5038 38.4938 23.3788 38.1629C23.1583 36.8687 23.0261 35.5672 22.9746 34.2583C23.0334 33.9127 22.8203 33.4642 23.3568 33.3098C23.6434 33.2068 23.8271 33.3833 24.0035 33.5598C26.9874 36.5305 29.9713 39.5085 32.9405 42.5013C33.0654 42.6263 33.183 42.766 33.2639 42.9351C33.4476 43.3616 33.4035 43.9204 34.0209 44.0822C34.1385 44.1116 34.2634 44.3543 34.2267 44.5455C34.1826 44.7513 33.9694 44.7219 33.8224 44.766C33.2198 44.9425 32.6098 44.9058 32.0071 44.8175L31.9924 44.8102Z" fill="#492E2B"/>
<path d="M94.7499 21.1331C95.382 20.5375 96.0067 19.9419 96.6534 19.3315C97.9543 24.0229 94.5882 29.4789 89.6053 30.7143C88.5543 30.7437 87.5033 30.854 86.4524 30.7952C86.1878 30.7805 85.9085 30.8099 85.813 30.5157C85.6954 30.1628 85.9452 30.0672 86.2319 29.9937C86.4083 29.9422 86.5038 29.7878 86.445 29.5745C86.3936 29.376 86.3862 29.1775 86.5332 29.001C88.9659 26.4568 91.5014 24.0082 93.9856 21.5007C94.1987 21.2875 94.4412 21.1478 94.7573 21.1404L94.7499 21.1331Z" fill="#492E2B"/>
<path d="M76.8977 30.457C73.6492 29.5011 70.7168 25.8833 70.4302 22.4641C70.5331 21.8023 70.4375 21.1332 70.4816 20.4714C70.5037 20.0817 70.5551 19.6846 71.1137 19.7655C71.8854 20.1258 72.3484 20.8464 72.929 21.4199C75.3837 23.8391 77.8091 26.2877 80.2417 28.729C80.668 29.1555 81.131 29.5452 81.4691 30.0526C81.4691 30.1408 81.4544 30.2364 81.5058 30.3173C81.7704 30.7585 81.594 30.8688 81.1457 30.8394C79.7273 30.7291 78.2941 30.8247 76.8977 30.4643V30.457Z" fill="#492E2B"/>
<path d="M16.0296 19.2433C17.9478 20.2507 19.4985 21.6404 20.5642 23.5449C20.9684 24.2729 21.2918 25.0376 21.4315 25.8685C21.4535 26.795 21.6446 27.7215 21.549 28.6554C21.527 28.876 21.549 29.1774 21.2477 29.273C20.9684 29.3613 20.7847 29.1701 20.601 29.0157C20.2408 28.7068 19.8219 28.5304 19.3736 28.398C19.109 28.2657 18.9106 28.0451 18.7048 27.8392C16.0149 25.1626 13.325 22.4787 10.6571 19.7801C10.4219 19.5374 9.95891 19.3389 10.2455 18.8462C10.738 18.4492 11.3112 18.6624 11.8477 18.6477C13.1339 18.6036 14.4127 18.6992 15.6842 18.8315C15.8679 18.9124 15.9855 19.0448 16.0222 19.2506L16.0296 19.2433Z" fill="#492E2B"/>
<path d="M90.825 44.3913C87.8043 43.2884 85.8126 41.1854 84.7469 38.1705C84.9895 37.722 84.4603 37.2293 84.8351 36.7881C84.8866 36.7293 84.8792 36.7146 84.8498 36.7587C84.622 36.5455 84.4015 35.994 84.4162 35.5455C84.4162 35.369 84.4162 35.1925 84.4162 35.016C84.4236 34.3322 84.8204 34.1263 85.4231 34.4719C85.7391 34.6484 86.0552 34.8322 86.4006 34.9572C89.3036 37.0235 91.4864 39.8471 94.0587 42.2589C94.2278 42.4207 94.3748 42.6192 94.4189 42.8692C94.2572 43.3398 94.3748 43.6854 94.8745 43.8472C94.9407 43.8693 95.0215 43.8693 95.0656 43.9134C95.2861 44.1193 95.6609 44.3178 95.5801 44.6193C95.4992 44.9208 95.1244 44.7149 94.8745 44.7369C94.1028 44.8031 93.3164 44.9061 92.5595 44.6855C91.9862 44.5237 91.4129 44.4502 90.825 44.3913Z" fill="#492E2B"/>
<path d="M65.2338 53.3473C65.3881 53.2591 65.4984 52.9944 65.6601 53.0679C65.8732 53.1635 65.8364 53.4503 65.8658 53.6635C66.4612 58.1857 63.6683 62.6712 59.3542 64.1565C59.0382 64.2668 58.7221 64.3845 58.4061 64.4948C57.0906 64.8551 55.775 65.061 54.4153 64.6639C54.0258 64.5462 54.0405 64.3845 54.1655 64.083C54.261 63.8698 54.408 63.708 54.5697 63.5462C57.7667 60.3108 60.9931 57.1048 64.2049 53.8915C64.4988 53.5974 64.8149 53.3694 65.2411 53.34L65.2338 53.3473Z" fill="#492E2B"/>
<path d="M116.607 67.3552C116.423 67.164 116.217 66.9802 116.056 66.7669C115.909 66.5831 115.541 66.4655 115.666 66.2081C115.762 66.0096 116.107 66.0463 116.357 66.0169C121.737 65.4948 126.352 69.0611 127.205 74.429C127.374 75.4952 127.337 76.5761 127.072 77.7379C126.47 77.1717 125.926 76.6643 125.382 76.1496C124.515 75.8114 123.934 75.1202 123.302 74.4878C121.729 72.9142 120.171 71.3112 118.569 69.767C117.812 69.0391 117.246 68.1788 116.614 67.3552H116.607Z" fill="#492E2B"/>
<path d="M113.167 66.8628C114.637 73.988 108.067 79.8559 101.614 78.3926C102.804 77.172 103.951 75.9954 105.097 74.8189C105.186 74.2748 105.605 73.9366 105.95 73.5836C107.964 71.51 110.036 69.4805 112.079 67.429C112.388 67.1202 112.734 66.9143 113.175 66.8628H113.167Z" fill="#492E2B"/>
<path d="M115.35 63.4067C114.755 63.9215 114.725 63.4876 114.718 63.0244C114.96 62.3993 114.74 61.7523 114.777 61.1125C114.828 60.3404 115.093 59.6125 115.115 58.8404C116.452 54.4505 121.376 51.0607 126.271 52.2667C126.293 52.5093 126.051 52.5828 125.955 52.752C125.97 52.8181 125.977 52.9064 125.933 52.9431C124.912 53.8182 124.272 55.0167 123.295 55.9432C121.31 57.8404 119.37 59.7963 117.459 61.7743C116.827 62.4288 116.063 62.8626 115.35 63.3994V63.4067Z" fill="#492E2B"/>
<path d="M39.7311 77.7601C39.2754 76.6791 39.393 75.5541 39.518 74.4438C39.9516 70.5392 43.3103 66.9141 47.1541 66.1641C47.2202 66.1494 47.2864 66.1641 47.3525 66.1567C48.0507 66.3259 48.7636 66.1126 49.4618 66.2229C49.5426 66.2376 49.6676 66.2156 49.7631 66.2156C50.6598 66.1935 50.6598 66.2009 50.3731 66.9876C50.3511 67.0465 50.3878 67.12 50.4025 67.1862C50.4981 67.5171 50.2335 67.6715 50.0498 67.8553C47.72 70.2378 45.3461 72.5761 42.9943 74.9364C42.2152 75.7159 41.4362 76.4953 40.6571 77.2747C40.3925 77.5395 40.1206 77.7527 39.7311 77.7601Z" fill="#492E2B"/>
<path d="M102.106 70.8042C103.569 68.3556 105.7 66.8188 108.463 66.1496C108.618 66.1129 108.765 66.0687 108.912 66.0246C109.029 65.8702 109.198 65.8776 109.36 65.8776C109.426 65.8776 109.492 65.8996 109.559 65.9143C110.161 65.9511 110.771 65.9584 111.366 65.8187C111.433 65.8114 111.499 65.804 111.565 65.804C111.932 65.782 112.351 65.9217 112.476 66.1864C112.609 66.4879 112.337 66.8555 112.087 67.1129C110.051 69.1865 108.081 71.341 105.891 73.2454C104.568 74.3925 103.341 75.6205 102.091 76.8338C101.937 76.9809 101.783 77.172 101.548 77.2235C101.055 77.2823 100.864 77.047 100.835 76.5691C100.761 75.1426 100.886 73.7381 101.423 72.4072C101.643 71.8704 102.091 71.4219 102.106 70.7895V70.8042Z" fill="#492E2B"/>
<path d="M64.3812 52.8845C64.3812 52.9286 64.3739 52.9727 64.3665 53.0095C64.4547 53.3183 64.2857 53.5242 64.0946 53.7227C60.8535 56.9728 57.6124 60.223 54.3639 63.4584C54.1875 63.6348 54.0038 63.804 53.7171 63.701C53.2027 63.5466 53.3938 63.1054 53.335 62.7672C53.3791 61.5906 53.5334 60.4215 53.6142 59.2523C54.871 55.3184 57.5389 52.9507 61.5737 52.1271C61.7942 52.083 62.0221 52.105 62.2425 52.0903C62.8305 52.2227 63.4332 52.105 64.0211 52.2521C64.4547 52.355 64.587 52.4874 64.3886 52.8845H64.3812Z" fill="#492E2B"/>
<path d="M57.9063 66.1567C60.045 66.4656 61.7795 67.5318 63.2494 69.0686C65.344 71.2598 66.1377 73.8996 65.8732 76.885C65.8511 77.1203 65.7776 77.3556 65.7335 77.5909C65.4469 77.6056 65.3807 77.3556 65.2044 77.2747C64.9324 77.4365 64.734 77.2895 64.5503 77.1056C61.6031 74.1938 58.6854 71.2672 55.775 68.3186C55.6941 68.2377 55.6353 68.1421 55.5839 68.0392C55.5618 67.5318 55.4883 67.0612 54.8489 66.9729C54.7975 66.9288 54.7534 66.8774 54.7313 66.8185C54.5991 66.3994 54.7313 66.2229 55.187 66.2229C56.091 66.2156 56.995 66.2229 57.899 66.1567H57.9063Z" fill="#492E2B"/>
<path d="M40.334 78.4589C40.3193 78.4148 40.3193 78.3707 40.3266 78.3265C40.3413 77.9589 40.5471 77.7015 40.7896 77.4589C44.016 74.2308 47.2351 70.9954 50.4762 67.7747C50.6747 67.5762 50.8437 67.2968 51.2038 67.3629C51.7257 67.4071 51.88 67.7306 51.8947 68.2086C51.9167 68.9954 51.9829 69.7821 51.7698 70.5542C51.7183 70.7381 51.7183 70.9513 51.7992 71.1425C50.8584 74.6794 48.6021 76.9809 45.192 78.1795C43.9205 78.628 42.5976 78.6427 41.2673 78.5986C40.9366 78.6648 40.6059 78.753 40.334 78.4442V78.4589Z" fill="#492E2B"/>
<path d="M46.5662 64.3845C44.1556 63.5904 42.2447 62.1492 40.8777 59.9947C39.5989 57.9652 39.2167 55.7593 39.5401 53.4062C39.5622 53.2371 39.6651 53.0753 39.7386 52.9136C40.2751 52.943 40.6058 53.2445 40.8042 53.7151C40.7234 54.3033 41.0688 54.6048 41.473 54.9798C42.2594 55.7004 42.965 56.5093 43.7587 57.2372C43.9719 57.4358 44.1629 57.5608 44.4496 57.4726C44.7215 57.4726 44.8979 57.649 45.0743 57.8255C46.8969 59.627 48.7049 61.4359 50.5202 63.2374C50.8436 63.561 50.9171 64.0316 51.2699 64.3331C51.4169 64.4581 51.2919 64.6272 51.1156 64.6713C49.6016 65.0537 48.1023 65.0905 46.625 64.5095C46.5883 64.4948 46.5809 64.436 46.5662 64.3919V64.3845Z" fill="#492E2B"/>
<path d="M105.906 52.3547C110.845 53.3988 114.453 59.0461 113.138 63.6712C113.005 63.7153 112.924 63.6197 112.851 63.5462C109.308 60.002 105.773 56.4504 102.238 52.8988C102.238 52.4208 102.466 52.3105 102.944 52.2811C103.943 52.2149 104.921 52.4355 105.913 52.3547H105.906Z" fill="#492E2B"/>
<path d="M62.3528 78.4659C58.3914 78.3703 55.8852 76.1276 54.1214 72.8187C53.9523 72.5098 53.8641 72.1495 53.7392 71.8186C53.5187 70.5245 53.3864 69.223 53.335 67.9141C53.3938 67.5685 53.1806 67.12 53.7171 66.9655C54.0038 66.8626 54.1875 67.0391 54.3639 67.2156C57.3478 70.1862 60.3317 73.1643 63.3009 76.157C63.4258 76.282 63.5434 76.4217 63.6242 76.5909C63.808 77.0174 63.7639 77.5762 64.3812 77.738C64.4988 77.7674 64.6238 78.01 64.587 78.2012C64.5429 78.4071 64.3298 78.3777 64.1828 78.4218C63.5801 78.5983 62.9701 78.5615 62.3675 78.4733L62.3528 78.4659Z" fill="#492E2B"/>
<path d="M125.11 54.7962C125.742 54.2005 126.367 53.6049 127.014 52.9946C128.315 57.686 124.949 63.142 119.966 64.3774C118.915 64.4068 117.864 64.5171 116.813 64.4582C116.548 64.4435 116.269 64.4729 116.173 64.1788C116.056 63.8259 116.306 63.7303 116.592 63.6567C116.769 63.6053 116.864 63.4509 116.805 63.2376C116.754 63.0391 116.747 62.8405 116.894 62.6641C119.326 60.1199 121.862 57.6713 124.346 55.1638C124.559 54.9506 124.802 54.8109 125.118 54.8035L125.11 54.7962Z" fill="#492E2B"/>
<path d="M107.258 64.1201C104.01 63.1642 101.077 59.5464 100.791 56.1272C100.893 55.4654 100.798 54.7962 100.842 54.1345C100.864 53.7447 100.915 53.3477 101.474 53.4285C102.246 53.7889 102.709 54.5095 103.289 55.083C105.744 57.5022 108.169 59.9508 110.602 62.3921C111.028 62.8186 111.491 63.2083 111.829 63.7157C111.829 63.8039 111.815 63.8995 111.866 63.9804C112.131 64.4216 111.954 64.5319 111.506 64.5024C110.088 64.3921 108.654 64.4877 107.258 64.1274V64.1201Z" fill="#492E2B"/>
<path d="M46.3973 52.8991C48.3155 53.9064 49.8662 55.2962 50.9319 57.2007C51.3361 57.9286 51.6595 58.6934 51.7991 59.5243C51.8212 60.4508 52.0123 61.3773 51.9167 62.3111C51.8947 62.5317 51.9167 62.8332 51.6154 62.9288C51.3361 63.017 51.1524 62.8259 50.9686 62.6714C50.6085 62.3626 50.1896 62.1861 49.7413 62.0538C49.4767 61.9214 49.2783 61.7008 49.0725 61.4949C46.3826 58.8184 43.6927 56.1345 41.0248 53.4358C40.7896 53.1932 40.3266 52.9946 40.6132 52.502C41.1056 52.1049 41.6789 52.3182 42.2154 52.3034C43.5016 52.2593 44.7804 52.3549 46.0518 52.4873C46.2356 52.5682 46.3532 52.7005 46.3899 52.9064L46.3973 52.8991Z" fill="#492E2B"/>
<path d="M121.185 78.0471C118.165 76.9441 116.173 74.8411 115.107 71.8263C115.35 71.3778 114.821 70.8851 115.196 70.4439C115.247 70.3851 115.24 70.3704 115.21 70.4145C114.982 70.2013 114.762 69.6498 114.777 69.2012C114.777 69.0247 114.777 68.8483 114.777 68.6718C114.784 67.9879 115.181 67.7821 115.783 68.1277C116.099 68.3041 116.416 68.488 116.761 68.613C119.664 70.6792 121.847 73.5028 124.419 75.9147C124.588 76.0764 124.735 76.275 124.779 76.525C124.618 76.9956 124.735 77.3412 125.235 77.503C125.301 77.525 125.382 77.525 125.426 77.5691C125.646 77.775 126.021 77.9736 125.94 78.275C125.86 78.5765 125.485 78.3706 125.235 78.3927C124.463 78.4589 123.677 78.5618 122.92 78.3412C122.347 78.1795 121.773 78.1059 121.185 78.0471Z" fill="#492E2B"/>
<path d="M32.933 81.1789C33.0873 81.0907 33.1976 80.8259 33.3593 80.8995C33.5724 80.9951 33.5357 81.2818 33.5651 81.4951C34.1604 86.0173 31.3676 90.5027 27.0534 91.9881C26.7374 92.0984 26.4214 92.216 26.1053 92.3263C24.7898 92.6866 23.4742 92.8925 22.1146 92.4954C21.725 92.3778 21.7397 92.216 21.8647 91.9145C21.9602 91.7013 22.1072 91.5395 22.2689 91.3778C25.4659 88.1424 28.6924 84.9364 31.9041 81.723C32.1981 81.4289 32.5141 81.2009 32.9404 81.1715L32.933 81.1789Z" fill="#492E2B"/>
<path d="M84.3061 95.1867C84.1223 94.9956 83.9165 94.8117 83.7548 94.5985C83.6079 94.4147 83.2404 94.297 83.3653 94.0396C83.4609 93.8411 83.8063 93.8779 84.0562 93.8485C89.436 93.3264 94.0515 96.8927 94.904 102.261C95.0731 103.327 95.0363 104.408 94.7717 105.569C94.1691 105.003 93.6252 104.496 93.0813 103.981C92.2141 103.643 91.6335 102.952 91.0014 102.319C89.4286 100.746 87.8706 99.1428 86.2684 97.5986C85.5114 96.8706 84.9455 96.0103 84.3134 95.1867H84.3061Z" fill="#492E2B"/>
<path d="M80.8664 94.6943C82.3363 101.82 75.7658 107.687 69.313 106.224C70.5036 105.004 71.6501 103.827 72.7966 102.65C72.8848 102.106 73.3038 101.768 73.6492 101.415C75.6629 99.3415 77.7355 97.3121 79.7787 95.2605C80.0873 94.9517 80.4328 94.7458 80.8737 94.6943H80.8664Z" fill="#492E2B"/>
<path d="M83.0417 91.2456C82.4464 91.7603 82.417 91.3265 82.4097 90.8632C82.6522 90.2382 82.4317 89.5911 82.4685 88.9514C82.5199 88.1793 82.7845 87.4513 82.8065 86.6793C84.1441 82.2894 89.0683 78.8996 93.9631 80.1055C93.9851 80.3482 93.7426 80.4217 93.647 80.5908C93.6617 80.657 93.6691 80.7452 93.625 80.782C92.6034 81.657 91.964 82.8556 90.9865 83.7821C89.0022 85.6792 87.0619 87.6352 85.151 89.6132C84.519 90.2676 83.7546 90.7015 83.0417 91.2382V91.2456Z" fill="#492E2B"/>
<path d="M7.4303 105.599C6.97464 104.518 7.09223 103.393 7.21717 102.283C7.65079 98.3781 11.0095 94.753 14.8533 94.003C14.9194 93.9882 14.9856 94.003 15.0517 93.9956C15.7499 94.1647 16.4628 93.9515 17.161 94.0618C17.2419 94.0765 17.3668 94.0544 17.4623 94.0544C18.359 94.0324 18.359 94.0397 18.0724 94.8265C18.0503 94.8853 18.0871 94.9589 18.1018 95.025C18.1973 95.3559 17.9327 95.5104 17.749 95.6942C15.4192 98.0766 13.0453 100.415 10.6935 102.775C9.91443 103.555 9.13538 104.334 8.35634 105.114C8.09176 105.378 7.81983 105.592 7.4303 105.599Z" fill="#492E2B"/>
<path d="M69.798 98.6431C71.2606 96.1944 73.3919 94.6576 76.1553 93.9885C76.3097 93.9517 76.4567 93.9076 76.6036 93.8635C76.7212 93.7091 76.8903 93.7164 77.052 93.7164C77.1181 93.7164 77.1842 93.7385 77.2504 93.7532C77.8531 93.79 78.4631 93.7973 79.0584 93.6576C79.1245 93.6502 79.1907 93.6429 79.2568 93.6429C79.6243 93.6208 80.0432 93.7605 80.1681 94.0253C80.3004 94.3267 80.0285 94.6944 79.7786 94.9518C77.7428 97.0254 75.7731 99.1798 73.583 101.084C72.2601 102.231 71.0327 103.459 69.7833 104.673C69.629 104.82 69.4746 105.011 69.2395 105.062C68.747 105.121 68.556 104.886 68.5266 104.408C68.4531 102.981 68.578 101.577 69.1145 100.246C69.335 99.7093 69.7833 99.2607 69.798 98.6284V98.6431Z" fill="#492E2B"/>
<path d="M32.0805 80.7233C32.0805 80.7675 32.0731 80.8116 32.0658 80.8483C32.1539 81.1572 31.9849 81.3631 31.7938 81.5616C28.5527 84.8117 25.3116 88.0618 22.0631 91.2972C21.8867 91.4737 21.703 91.6428 21.4164 91.5399C20.9019 91.3855 21.093 90.9443 21.0342 90.606C21.0783 89.4295 21.2326 88.2604 21.3135 87.0912C22.5702 83.1573 25.2381 80.7895 29.273 79.966C29.4934 79.9218 29.7213 79.9439 29.9418 79.9292C30.5297 80.0616 31.1324 79.9439 31.7203 80.091C32.1539 80.1939 32.2862 80.3263 32.0878 80.7233H32.0805Z" fill="#492E2B"/>
<path d="M25.5982 93.9956C27.7369 94.3044 29.4714 95.3706 30.9413 96.9075C33.0359 99.0987 33.8296 101.739 33.5651 104.724C33.543 104.959 33.4695 105.195 33.4254 105.43C33.1388 105.445 33.0726 105.195 32.8962 105.114C32.6243 105.275 32.4259 105.128 32.2421 104.944C29.295 102.033 26.3773 99.1061 23.4669 96.1574C23.386 96.0766 23.3272 95.981 23.2758 95.878C23.2537 95.3706 23.1802 94.9 22.5408 94.8118C22.4894 94.7677 22.4453 94.7162 22.4232 94.6574C22.2909 94.2383 22.4232 94.0618 22.8789 94.0618C23.7829 94.0544 24.6869 94.0618 25.5909 93.9956H25.5982Z" fill="#492E2B"/>
<path d="M8.03317 106.298C8.01847 106.254 8.01847 106.21 8.02582 106.165C8.04052 105.798 8.24631 105.54 8.48884 105.298C11.7153 102.07 14.9343 98.8343 18.1755 95.6136C18.3739 95.4151 18.5429 95.1356 18.9031 95.2018C19.4249 95.2459 19.5792 95.5695 19.5939 96.0474C19.616 96.8342 19.6821 97.621 19.469 98.3931C19.4175 98.5769 19.4175 98.7902 19.4984 98.9813C18.5576 102.518 16.3013 104.82 12.8912 106.018C11.6197 106.467 10.2968 106.482 8.96656 106.437C8.63583 106.504 8.3051 106.592 8.03317 106.283V106.298Z" fill="#492E2B"/>
<path d="M14.2654 92.2161C11.8548 91.4219 9.94394 89.9807 8.57694 87.8262C7.29813 85.7968 6.91596 83.5908 7.23933 81.2378C7.26138 81.0687 7.36427 80.9069 7.43777 80.7451C7.97428 80.7745 8.30501 81.076 8.50344 81.5466C8.4226 82.1349 8.76803 82.4364 9.17225 82.8114C9.95864 83.532 10.6642 84.3408 11.4579 85.0688C11.6711 85.2673 11.8622 85.3923 12.1488 85.3041C12.4207 85.3041 12.5971 85.4806 12.7735 85.657C14.5962 87.4586 16.4041 89.2675 18.2195 91.069C18.5428 91.3925 18.6163 91.8631 18.9691 92.1646C19.1161 92.2896 18.9912 92.4587 18.8148 92.5029C17.3008 92.8852 15.8015 92.922 14.3242 92.3411C14.2875 92.3264 14.2801 92.2676 14.2654 92.2234V92.2161Z" fill="#492E2B"/>
<path d="M73.5976 80.1935C78.5364 81.2377 82.145 86.8849 80.8295 91.5101C80.6972 91.5542 80.6163 91.4586 80.5428 91.3851C77.0004 87.8408 73.4653 84.2893 69.9302 80.7377C69.9302 80.2597 70.158 80.1494 70.6357 80.12C71.6353 80.0538 72.6127 80.2744 73.6049 80.1935H73.5976Z" fill="#492E2B"/>
<path d="M30.052 106.305C26.0906 106.209 23.5844 103.966 21.8206 100.658C21.6515 100.349 21.5633 99.9884 21.4384 99.6575C21.2179 98.3634 21.0856 97.0618 21.0342 95.753C21.093 95.4074 20.8798 94.9588 21.4164 94.8044C21.703 94.7015 21.8867 94.878 22.0631 95.0544C25.047 98.0251 28.0309 101.003 31.0001 103.996C31.125 104.121 31.2426 104.261 31.3235 104.43C31.5072 104.856 31.4631 105.415 32.0805 105.577C32.198 105.606 32.323 105.849 32.2862 106.04C32.2421 106.246 32.029 106.217 31.882 106.261C31.2794 106.437 30.6693 106.4 30.0667 106.312L30.052 106.305Z" fill="#492E2B"/>
<path d="M92.8095 82.6277C93.4415 82.0321 94.0662 81.4365 94.713 80.8262C96.0139 85.5175 92.6478 90.9736 87.6649 92.2089C86.6139 92.2383 85.5629 92.3486 84.5119 92.2898C84.2473 92.2751 83.9681 92.3045 83.8725 92.0104C83.7549 91.6574 84.0048 91.5618 84.2914 91.4883C84.4678 91.4368 84.5634 91.2824 84.5046 91.0692C84.4531 90.8706 84.4458 90.6721 84.5928 90.4956C87.0254 87.9514 89.561 85.5028 92.0451 82.9954C92.2583 82.7821 92.5008 82.6424 92.8168 82.6351L92.8095 82.6277Z" fill="#492E2B"/>
<path d="M74.9573 91.9516C71.7088 90.9957 68.7764 87.3779 68.4897 83.9587C68.5926 83.2969 68.4971 82.6278 68.5412 81.966C68.5632 81.5763 68.6147 81.1792 69.1732 81.2601C69.9449 81.6204 70.408 82.341 70.9886 82.9146C73.4433 85.3338 75.8686 87.7824 78.3013 90.2236C78.7276 90.6501 79.1906 91.0398 79.5287 91.5472C79.5287 91.6354 79.514 91.731 79.5654 91.8119C79.83 92.2531 79.6536 92.3634 79.2053 92.334C77.7868 92.2237 76.3537 92.3193 74.9573 91.959V91.9516Z" fill="#492E2B"/>
<path d="M14.0892 80.7379C16.0074 81.7453 17.5581 83.1351 18.6238 85.0395C19.028 85.7675 19.3514 86.5322 19.491 87.3631C19.5131 88.2896 19.7042 89.2161 19.6086 90.15C19.5866 90.3706 19.6086 90.6721 19.3073 90.7677C19.028 90.8559 18.8443 90.6647 18.6605 90.5103C18.3004 90.2015 17.8815 90.025 17.4332 89.8926C17.1686 89.7603 16.9702 89.5397 16.7644 89.3338C14.0745 86.6572 11.3845 83.9733 8.71668 81.2747C8.4815 81.0321 8.01848 80.8335 8.30511 80.3409C8.79753 79.9438 9.37079 80.157 9.9073 80.1423C11.1935 80.0982 12.4723 80.1938 13.7437 80.3261C13.9275 80.407 14.0451 80.5394 14.0818 80.7453L14.0892 80.7379Z" fill="#492E2B"/>
<path d="M88.8845 105.886C85.8639 104.783 83.8722 102.68 82.8065 99.6652C83.0491 99.2166 82.5199 98.724 82.8947 98.2828C82.9462 98.224 82.9388 98.2092 82.9094 98.2534C82.6816 98.0401 82.4611 97.4886 82.4758 97.0401C82.4758 96.8636 82.4758 96.6871 82.4758 96.5107C82.4831 95.8268 82.88 95.6209 83.4827 95.9665C83.7987 96.143 84.1147 96.3268 84.4602 96.4518C87.3632 98.5181 89.546 101.342 92.1183 103.754C92.2873 103.915 92.4343 104.114 92.4784 104.364C92.3168 104.834 92.4343 105.18 92.9341 105.342C93.0002 105.364 93.0811 105.364 93.1252 105.408C93.3457 105.614 93.7205 105.812 93.6397 106.114C93.5588 106.415 93.184 106.21 92.9341 106.232C92.1624 106.298 91.376 106.401 90.619 106.18C90.0458 106.018 89.4725 105.945 88.8845 105.886Z" fill="#492E2B"/>
<path d="M374.941 646.264H354.047V667.169H374.941V646.264Z" fill="#995E4B"/>
<path d="M20.1524 625.359H-0.742188V646.264H20.1524V625.359Z" fill="#995E4B"/>
<path d="M41.0396 646.264H20.145V667.169H41.0396V646.264Z" fill="#995E4B"/>
<path d="M61.8829 625.359H40.9883V646.264H61.8829V625.359Z" fill="#995E4B"/>
<path d="M82.7774 646.264H61.8828V667.169H82.7774V646.264Z" fill="#995E4B"/>
<path d="M103.613 625.359H82.7188V646.264H103.613V625.359Z" fill="#995E4B"/>
<path d="M124.508 646.264H103.613V667.169H124.508V646.264Z" fill="#995E4B"/>
<path d="M145.343 625.359H124.449V646.264H145.343V625.359Z" fill="#995E4B"/>
<path d="M166.238 646.264H145.343V667.169H166.238V646.264Z" fill="#995E4B"/>
<path d="M187.081 625.359H166.187V646.264H187.081V625.359Z" fill="#995E4B"/>
<path d="M207.968 646.264H187.074V667.169H207.968V646.264Z" fill="#995E4B"/>
<path d="M228.812 625.359H207.917V646.264H228.812V625.359Z" fill="#995E4B"/>
<path d="M249.699 646.264H228.804V667.169H249.699V646.264Z" fill="#995E4B"/>
<path d="M270.542 625.359H249.647V646.264H270.542V625.359Z" fill="#995E4B"/>
<path d="M291.429 646.264H270.535V667.169H291.429V646.264Z" fill="#995E4B"/>
<path d="M312.273 625.359H291.378V646.264H312.273V625.359Z" fill="#995E4B"/>
<path d="M333.211 646.264H312.316V667.169H333.211V646.264Z" fill="#995E4B"/>
<path d="M354.047 625.359H333.152V646.264H354.047V625.359Z" fill="#995E4B"/>
</svg>
