<svg width="57" height="98" viewBox="0 0 57 98" fill="none" xmlns="http://www.w3.org/2000/svg">
<path d="M12.6036 48.3058C12.7506 48.0558 12.905 47.8131 13.052 47.5631C14.1397 47.1146 15.1319 46.5263 15.8007 45.519C15.9771 45.2542 16.249 45.1219 16.4989 44.9454C17.5645 44.188 18.7625 43.813 20.034 43.6586C21.1878 43.5262 22.0257 42.96 22.5695 41.9453C22.9076 41.3056 23.3927 40.7835 23.9292 40.3202C25.4211 39.0408 26.9278 37.7834 28.4491 36.5481C29.1253 36.0039 29.7353 35.423 30.2571 34.7171C30.6613 34.1656 31.0068 33.5112 31.705 33.195C32.8515 32.6656 33.8877 31.945 34.9167 31.2097C35.6149 30.7096 36.4454 30.4449 37.2612 30.1949C37.6066 30.0846 37.9888 30.0331 38.1945 30.4376C38.5179 31.0699 39.025 31.0479 39.6203 30.967C40.37 30.8641 41.737 31.2832 42.2074 31.6729C41.6488 31.8788 41.1196 32.1435 40.5684 32.3568C39.3778 32.82 38.1357 33.2171 37.0701 33.9671C36.3131 34.2318 35.4238 34.3789 34.9828 35.0848C34.4169 36.0039 33.5864 36.5334 32.7192 37.0554C31.8078 37.5996 30.8818 38.1143 30.0734 38.8129C29.4413 39.357 28.8313 39.9011 28.5447 40.6953C28.7799 40.8717 28.9121 40.7982 29.0518 40.7467C30.7275 40.0923 31.874 38.6805 33.3733 37.7613C35.071 36.7245 36.5703 35.2245 38.834 35.7907C38.878 35.8054 38.9368 35.776 38.9809 35.7686C39.1059 36.2319 39.0985 36.6584 38.7237 37.026C38.2386 37.4966 38.1945 38.0849 38.3342 38.7026C37.7977 39.2099 37.4081 39.8129 37.1362 40.5041C36.3131 41.0703 35.7545 41.8277 35.3944 42.7615C35.0196 43.7395 34.3508 44.4748 33.5056 45.0925C31.9916 46.2028 30.2424 47.0264 29.1547 48.6588C29.1253 48.6955 29.0738 48.7176 29.0371 48.7544C27.6701 49.8647 26.2222 50.8721 25.1345 52.3133C24.2893 53.4457 23.0105 54.2913 22.3123 55.4605C21.1952 57.3429 19.9164 59.115 18.7772 60.968C18.4538 61.4901 18.1084 61.9974 18.0055 62.6151C17.7997 63.8725 17.1015 64.902 16.2857 65.7917C15.5214 66.6226 15.2789 67.527 15.3891 68.5712C15.4405 69.0344 15.4846 69.483 15.323 69.9242C14.8893 71.1007 14.5513 72.2993 14.0147 73.4537C12.7286 76.2553 10.7295 78.5568 9.06854 81.0936C8.9289 81.3142 8.73782 81.5128 8.45119 81.4466C8.12781 81.3731 7.99552 81.0937 7.87058 80.7995C7.67214 80.3584 8.00287 79.8216 7.65009 79.3583C7.25322 79.7039 6.99599 80.1231 6.48153 80.1083C6.27574 79.2554 6.66526 78.4392 6.59912 77.5936C7.03274 76.998 6.48153 76.2773 6.8343 75.667C7.61335 75.314 7.34142 74.5861 7.42961 73.9905C7.47371 73.6669 7.51045 73.3508 7.55455 73.0272C7.81178 72.836 7.94407 72.586 8.00287 72.2698C8.39239 70.3065 8.23805 68.3653 7.77504 66.4314C8.67902 65.0711 10.0607 63.8578 9.09059 61.9313C8.99505 61.7401 9.14204 61.4386 9.14939 61.1886C9.16409 60.8209 9.10529 60.4827 8.71577 60.3062C8.77456 60.0856 8.83336 59.865 8.89216 59.6444C8.98035 59.1959 9.39927 58.8429 9.25228 58.3282C9.64915 58.24 9.80349 57.9973 9.73 57.6076C9.82554 57.5855 9.92843 57.5635 10.024 57.5414C10.5384 57.7032 10.2151 57.3208 10.2665 57.1738C10.1783 56.8429 10.318 56.534 10.3841 56.2252C10.6266 56.1664 10.8398 56.0781 10.9059 55.8061L10.9206 55.784C11.0015 55.6663 11.075 55.5487 11.1558 55.4311C11.1264 54.7252 11.2146 54.1001 12.0965 53.9972C12.1774 53.8722 12.2582 53.7472 12.3464 53.6295C12.2656 53.1074 12.6036 52.5486 12.1774 52.0412C11.9128 51.725 12.0377 51.2544 12.2656 51.078C12.9932 50.5044 12.6992 49.5926 13.0961 48.9088C13.2871 48.5926 12.8682 48.4308 12.5963 48.3058H12.6036Z" fill="#806B3B"/>
<path d="M6.4813 80.1011C6.99576 80.1158 7.253 79.6967 7.64987 79.3511C8.00264 79.8217 7.67192 80.3511 7.87035 80.7923C8.00264 81.0864 8.12758 81.3658 8.45096 81.4394C8.73024 81.5056 8.92133 81.2997 9.06832 81.0864C10.722 78.5496 12.7284 76.248 14.0145 73.4465C14.5437 72.2847 14.8818 71.0861 15.3227 69.9169C15.4844 69.4758 15.4403 69.0272 15.3889 68.5639C15.2713 67.5198 15.5212 66.6154 16.2855 65.7844C17.1087 64.8947 17.7995 63.8653 18.0053 62.6079C18.1082 61.9902 18.4536 61.4902 18.777 60.9608C19.9235 59.1004 21.195 57.3283 22.3121 55.4532C23.0103 54.2841 24.2817 53.4385 25.1343 52.3061C26.2147 50.8648 27.6625 49.8574 29.0369 48.7471C29.0736 48.7177 29.1324 48.6956 29.1545 48.6515C30.2422 47.0191 31.9914 46.1882 33.5053 45.0852C34.3505 44.4676 35.0193 43.7396 35.3942 42.7543C35.7469 41.8278 36.3129 41.063 37.136 40.4968C38.3634 40.0924 38.4075 40.0336 38.3928 38.9968C38.8925 38.8939 39.3923 38.7983 39.892 38.6953C40.0023 39.0189 40.1934 39.188 40.5609 39.1733C40.9798 39.1586 41.5163 38.7688 41.7882 39.3203C42.0307 39.8056 41.7368 40.2983 41.4942 40.7469C41.3766 40.9675 41.2297 41.1807 41.0827 41.3866C40.0611 42.8131 39.0248 44.2323 38.0106 45.6588C37.8342 45.9014 37.6578 46.1588 37.5549 46.4382C37.3859 46.9088 37.6652 47.1956 38.187 47.1441C38.7823 47.0853 39.2159 46.747 39.5981 46.3353C40.2889 45.5779 41.215 45.9088 42.0013 45.9308C42.5158 45.9455 42.3835 46.7691 42.5599 47.225C41.8985 48.4383 40.9945 49.306 39.5246 49.3868C38.8852 49.4236 38.4442 49.7692 38.0106 50.2692C37.43 50.9384 36.8053 51.7472 35.7543 51.5707C35.0634 51.4604 34.7254 51.7546 34.3873 52.2619C34.086 52.7178 33.8728 53.2693 33.2702 53.4458C32.0501 53.8061 31.1388 54.7105 30.4406 55.6223C29.3676 57.0268 28.4048 58.4901 26.9496 59.5489C25.9207 60.299 26.2441 60.6299 26.9349 61.3505C27.8536 62.3137 27.883 62.3579 28.9266 61.7696C29.5219 61.4314 29.9261 61.424 30.3451 61.9902C30.6023 62.3431 31.0359 62.4314 31.4401 62.4388C31.9105 62.4461 31.8885 61.9534 32.0501 61.6667C32.3735 61.1005 32.91 61.0049 33.4686 60.9093C33.5494 61.2255 33.7111 61.4608 34.0786 61.3799C34.2917 61.3358 34.2844 61.2034 34.1154 61.0857C34.9605 59.7181 36.063 58.6298 37.5108 57.9018C37.599 57.7768 37.6946 57.6518 37.7827 57.5268C38.0106 57.4753 38.2164 57.3944 38.2899 57.1371C38.5691 57.093 38.9146 56.9091 39.1057 57.2033C39.3041 57.5121 39.0616 57.7768 38.7896 57.9092C38.2899 58.1371 37.9812 58.4533 38.0767 59.0416C37.1286 59.2989 36.7171 60.6519 35.4677 60.3137C35.4677 60.3137 35.3574 60.571 35.3574 60.7034C35.3574 60.8652 35.5044 61.0196 35.6514 60.9608C36.0924 60.7843 36.548 60.8946 36.989 60.8725C36.4598 62.2108 35.1443 62.652 34.0933 63.38C31.9693 64.8579 29.6983 66.0933 27.6258 67.6669C25.8031 69.0493 23.6791 70.0272 21.511 70.8434C21.1141 70.8581 20.8422 71.064 20.6658 71.4096C20.5923 71.6743 20.4159 71.8434 20.1513 71.9023C19.975 71.6302 19.7177 71.3728 19.4384 71.667C19.1959 71.9243 19.5928 72.0567 19.7251 72.2405L19.6736 72.2847C18.6594 71.8214 17.6599 71.542 16.6383 72.4023C17.3046 72.7111 17.775 73.1695 18.0494 73.7774L17.9832 73.7406L18.0567 73.7626C17.4467 73.8288 16.8 73.8509 16.2782 73.5788C15.6314 73.2406 15.3448 73.395 15.2051 74.0274C15.1316 74.3582 14.7421 74.5127 14.7715 74.873C15.3962 75.1377 15.6608 74.3509 16.1606 74.3362C16.4178 74.9024 15.7931 75.5862 16.6089 75.8804C15.771 76.9833 14.9332 78.079 14.0954 79.1819C13.8528 79.1158 13.5001 78.9981 13.647 78.7334C13.8602 78.3437 13.7793 78.0937 13.5589 77.7848C13.3898 77.5422 13.3016 77.2039 12.9121 77.2774C12.574 77.3363 12.427 77.601 12.3388 77.9025C11.942 79.2408 12.2947 79.7114 13.8528 79.9173C13.0811 81.5791 12.1478 83.1968 11.5892 84.9321C11.0527 86.6013 10.4133 88.2484 10.0458 89.9911C9.67832 91.7044 9.22266 93.3956 9.14916 95.153C9.12711 95.7413 9.05362 96.3516 8.31867 96.3516C7.79686 96.3516 8.10554 97.4767 7.26769 96.9767C6.60624 96.5869 5.87864 96.2855 5.62876 95.506C5.27598 94.4104 4.56308 93.5133 4.04862 92.5059C3.17403 90.7926 2.31414 89.1161 1.98342 87.1822C1.68209 85.388 1.21172 83.6233 0.983887 81.8144C1.21172 80.9761 1.76293 81.8291 2.10836 81.6011C2.27005 82.057 2.10836 82.7556 2.95355 82.6673C3.24753 82.6085 3.54886 82.5497 3.84284 82.4909C3.94573 82.4909 4.05597 82.4688 4.14416 82.5056C5.61406 83.0424 5.94479 82.8218 6.09913 81.2114C6.13587 80.807 6.18732 80.4026 6.47395 80.0864L6.4813 80.1011Z" fill="#72673C"/>
<path d="M56.8695 27.2462C56.311 27.3123 55.9656 27.7903 55.4805 27.9962C55.2698 27.0305 54.6623 26.5329 53.6578 26.5035C52.7538 26.4814 51.938 26.2976 51.5338 25.3564C52.1512 24.8417 52.8861 25.2608 53.6578 25.0843C53.3271 23.8343 52.3937 23.0475 51.4971 22.3416C49.8875 21.0695 47.9473 20.5989 45.9188 20.5033C45.7645 20.5033 45.6101 20.4886 45.4705 20.4445C42.3911 19.6136 39.3116 19.8194 36.2322 20.4445C35.681 20.5548 35.1518 20.5548 34.5859 20.5254C32.6456 20.4077 30.698 20.3709 28.7504 20.3268C28.2507 20.3121 27.7509 20.4151 27.3467 20.018C27.479 19.9445 27.7288 19.8489 27.7215 19.8047C27.5745 19.1062 27.7582 18.6871 28.4638 18.3562C28.9636 18.1209 28.8239 17.415 28.3682 16.9076C28.089 16.5988 27.479 16.6796 27.3614 16.0473C28.0302 15.9443 28.4858 16.3193 29.0077 16.4443C30.4041 16.7679 31.8299 17.3782 33.1969 16.334C33.5202 16.2017 34.2037 16.187 33.7775 15.6428C32.9911 14.6355 32.3149 13.4516 30.9626 13.0398C30.9406 12.9442 30.9185 12.8413 30.8891 12.7457C31.1096 12.2898 31.5065 12.2457 31.9254 12.3192C32.3737 12.4001 32.8147 12.5471 33.2557 12.6501C34.0714 12.8413 34.8799 13.2236 35.7324 12.8119C35.6442 11.7015 34.7402 11.2456 33.9539 10.7603C33.1822 10.2824 32.3076 9.97353 31.5726 9.41469C30.8818 8.88526 30.1321 8.48083 29.2575 8.30435C28.6622 8.1867 28.1257 7.91464 27.795 7.38521C28.1331 6.66459 28.8827 7.3411 29.3163 6.84844C28.993 6.07635 28.3682 5.68664 27.5819 5.61311C27.1776 5.56899 26.9351 5.3925 26.6926 5.12044C26.3545 4.73807 26.0091 4.3704 25.6489 4.0101C25.4285 3.7895 25.1271 3.53215 24.8772 3.85569C24.3628 4.53218 23.9733 4.20128 23.7234 3.71597C23.422 3.12772 22.7459 3.25273 22.3784 2.8483C23.5176 2.51006 24.5759 3.35567 25.7151 3.07625C28.3756 4.02481 31.1831 4.1204 33.9318 4.52483C34.8872 4.66454 35.8427 4.87042 36.8055 5.02484C37.3273 6.28959 38.5032 6.95874 39.4439 7.81906C40.8109 9.06175 42.5601 9.84853 43.7507 11.3265C43.8022 11.3854 43.9345 11.4368 44.0079 11.4148C44.9928 11.1427 45.1839 11.9368 45.5219 12.5324C45.2353 13.1869 44.6547 12.8413 44.3313 12.7383C43.1628 12.378 41.9501 12.3192 40.7815 11.9883C40.2377 11.8339 39.7232 11.7677 39.635 12.5104C39.5321 13.3486 39.0323 13.3634 38.437 13.1428C37.9593 12.9663 37.5037 12.7383 36.9745 12.7677C36.7687 12.7751 36.5409 12.8339 36.4527 13.0251C36.3571 13.231 36.4821 13.4075 36.6585 13.5398C36.7834 13.6281 36.9083 13.7163 37.0259 13.8119C38.0769 14.6575 38.0843 14.6722 37.0774 15.5693C36.7834 15.834 36.5482 16.084 36.7908 16.4664C37.0186 16.8267 37.1215 17.3635 37.7609 17.2605C38.7457 17.0914 39.7452 16.6649 40.6786 17.4444C40.8403 17.5767 41.0608 17.3414 41.2372 17.3341C42.3102 17.2899 43.3759 17.7017 44.4563 17.312C44.5886 17.2605 44.8458 17.5988 45.0589 17.7238C46.1246 18.312 47.1535 19.0032 48.4838 18.5547C49.0497 18.3635 49.4833 18.6282 49.6597 19.2165C49.7993 19.6945 50.1742 19.8195 50.5857 19.8783C50.8944 19.9224 51.2178 19.9224 51.4162 19.6356C51.6367 19.3268 51.4015 19.0768 51.2472 18.8121C51.0855 18.5253 50.6739 18.3414 50.8283 17.9076C51.8425 17.8267 52.2247 16.9149 52.8788 16.3708C53.5255 16.5473 53.8122 17.2238 53.9224 17.6355C54.3854 19.4959 55.9509 21.143 55.1204 23.2901C55.0028 23.5843 55.1351 23.9814 55.1718 24.3343C55.2747 25.3711 55.2747 25.3711 56.5021 25.3343C56.627 25.9667 56.7446 26.5991 56.8695 27.2315V27.2462ZM54.7455 25.3784C54.65 25.099 54.3854 25.0917 54.1429 25.0843C54.0914 25.0843 53.9812 25.2608 54.0032 25.3196C54.0914 25.5549 54.2164 25.7829 54.5324 25.702C54.672 25.6652 54.7823 25.5696 54.7455 25.3784Z" fill="#72673C"/>
<path d="M51.5337 25.3562C51.9379 26.2974 52.7537 26.4813 53.6577 26.5033C54.667 26.5278 55.2746 27.0254 55.4804 27.996C55.3922 28.2534 55.2305 28.4225 54.9512 28.4666C54.6278 28.7019 54.3118 28.9446 53.9002 29.0034C53.5842 29.0549 53.3343 29.2314 53.2755 29.5623C53.1653 30.2682 53.033 30.9814 52.9962 31.6947C52.9815 31.9447 53.0991 32.18 52.7904 32.2903C52.4891 32.3932 52.1878 32.4227 52.0187 32.0844C51.7909 31.6432 51.5925 31.1873 51.3793 30.7388C51.5998 30.6652 51.8938 30.6138 51.7689 30.2902C51.6954 30.0991 51.4528 30.1358 51.2691 30.1652C50.6958 29.7755 50.4092 29.9446 50.4386 30.6211C50.4386 30.8049 50.5415 31.0329 50.6811 31.1579C51.4308 31.8565 51.4087 32.6432 51.0633 33.5183C50.9163 33.8933 50.8502 34.2757 51.1295 34.6727C51.5484 35.261 50.9531 35.3933 50.6517 35.7022C49.9903 36.386 51.6807 36.0257 51.1368 36.7169C50.8208 37.114 50.5195 37.5111 50.2108 37.9155C49.9756 38.2243 49.6081 38.489 49.8139 39.0699C50.3357 38.9449 51.0266 39.467 51.2544 38.3714C51.3793 37.7537 52.0114 37.6214 52.592 38.0552C52.4965 39.4449 51.7174 40.5553 51.078 41.7244C50.7105 41.9083 50.3431 42.0921 49.9756 42.2686C49.9094 41.57 49.4611 41.1877 48.8438 40.8347C48.8438 41.0774 48.8879 41.2318 48.8438 41.3641C48.5351 42.3936 48.5277 42.3936 49.5346 42.3495C49.6816 42.3495 49.8286 42.298 49.9756 42.2686C50.0491 42.5847 50.0491 42.9377 50.4092 43.0995C50.5782 43.7392 49.9021 43.9892 49.7625 44.4892C49.5126 44.5334 49.27 44.5995 49.0202 44.6142C47.4988 44.6878 46.8815 45.2466 46.6463 46.6878C46.4405 47.9305 46.3376 49.1511 46.9182 50.335C46.5434 50.9159 46.1759 51.5042 45.8011 52.0851C44.9926 51.3497 44.3238 51.1953 43.9564 51.8204C43.5742 52.4748 42.8319 52.9527 42.7951 53.7984C43.2876 54.0925 43.8461 53.5925 44.2577 54.0484C44.2577 54.2322 44.1622 54.3499 43.9784 54.394C43.4346 54.5263 43.2214 54.8866 43.2729 55.4308C43.0524 55.6073 42.8025 55.7028 42.5159 55.6955C41.0827 56.0337 40.9725 56.2028 41.5016 57.1882C41.509 57.3352 41.4502 57.4382 41.3106 57.4897C40.7887 57.5338 40.2743 57.6 40.4507 58.3426C39.9288 58.6147 39.7672 59.2838 39.1645 59.475C38.7823 59.3794 38.5545 58.8794 38.0694 59.0338C37.9665 58.4456 38.2826 58.1294 38.7823 57.9014C39.0543 57.7764 39.2968 57.5044 39.0984 57.1955C38.9073 56.9014 38.5692 57.0852 38.2899 57.1294C37.8489 56.519 38.4222 56.2543 38.7015 55.8793C38.9661 55.519 39.385 55.0558 38.8926 54.6881C38.2973 54.2396 38.4957 53.9822 38.9293 53.666C39.2674 53.4233 39.5393 53.1292 39.7451 52.7689C40.4213 51.5997 41.4428 50.7836 42.4718 49.9526C43.3684 49.2247 44.3018 48.4967 44.8677 47.4231C45.1176 46.9525 45.4189 46.4672 44.9779 46.0334C44.5149 45.5848 44.1768 46.2393 43.7653 46.3275C43.7138 46.3422 43.6697 46.3643 43.6183 46.379C43.655 45.8716 43.8682 45.3054 43.7065 44.879C43.2214 43.5921 44.0593 42.798 44.6325 41.8936C44.9559 41.3788 45.316 40.8788 45.6394 40.3641C45.8305 40.0626 46.051 39.7685 46.1539 39.4376C46.5434 38.217 46.3743 37.8714 45.1249 37.7464C44.3238 37.6655 43.9123 37.3566 43.8094 36.5698C43.78 36.3272 43.7359 36.0625 43.3537 35.9154C41.9573 36.4743 41.1048 37.8125 39.8848 38.6949C39.385 38.7979 38.8852 38.8935 38.3855 38.9964C38.3634 38.8935 38.3414 38.7979 38.3193 38.6949C38.1797 38.0699 38.2238 37.4816 38.7088 37.0184C39.091 36.6507 39.091 36.2243 38.9661 35.761C38.8999 35.2757 38.7162 34.9522 38.1356 34.9301C37.5476 34.9154 37.0919 34.6507 37.0479 33.9668C38.1135 33.2168 39.3556 32.8197 40.5462 32.3565C41.0974 32.1432 41.6339 31.8785 42.1851 31.6726C43.3537 31.555 44.4341 31.1211 45.4924 30.6726C46.0804 30.4226 46.5581 30.0402 46.2127 29.2828C46.0877 29.0108 46.1024 28.8196 46.3743 28.6578C47.1019 28.2313 47.2195 27.8269 46.3523 27.3931C45.6688 27.0475 45.8525 26.6063 46.3376 26.2239C46.5287 26.0695 46.8006 26.0107 46.9035 25.7533C47.6238 25.5621 48.344 25.3636 49.079 25.6945C49.5567 26.4298 49.7551 25.9445 49.9609 25.4886C50.4754 25.4224 50.9678 25.1136 51.5116 25.3562H51.5337ZM45.6026 50.5703C45.5145 50.5482 45.3895 50.4894 45.3381 50.5262C45.2866 50.563 45.294 50.6953 45.2719 50.7836C45.3601 50.8056 45.4777 50.8644 45.5365 50.8277C45.5953 50.7909 45.5806 50.6585 45.6026 50.5703ZM45.7643 48.8938C45.6835 48.8717 45.588 48.8129 45.5145 48.8276C45.441 48.8423 45.3822 48.9379 45.316 48.9967C45.3969 49.0188 45.4924 49.0776 45.5659 49.0629C45.6394 49.0482 45.6982 48.9526 45.7643 48.8938Z" fill="#645A33"/>
<path d="M22.3785 2.85572C22.746 3.26014 23.4222 3.14249 23.7235 3.72339C23.9734 4.2087 24.3702 4.53959 24.8773 3.8631C25.1199 3.53956 25.4286 3.79692 25.649 4.01751C26.0018 4.37782 26.3546 4.74548 26.6927 5.12785C26.9352 5.39992 27.1777 5.58373 27.582 5.6205C28.3684 5.70139 28.9931 6.0911 29.3164 6.85583C28.8828 7.34849 28.1332 6.67201 27.7951 7.39262C28.1258 7.92205 28.6623 8.19412 29.2576 8.31177C30.1322 8.48825 30.8819 8.89268 31.5727 9.42211C32.3077 9.98095 33.1823 10.2898 33.954 10.7677C34.7404 11.253 35.637 11.7016 35.7325 12.8193C34.8726 13.2311 34.0716 12.8413 33.2558 12.6575C32.8074 12.5546 32.3738 12.4075 31.9255 12.3266C31.5066 12.2531 31.1097 12.2972 30.8892 12.7531C30.338 12.8781 29.8456 12.8634 29.2797 12.606C28.1626 12.0913 27.141 11.4295 26.1415 10.7383C25.5462 10.3265 24.87 10.106 24.2159 9.83388C24.0322 9.76035 23.7896 9.78975 23.6867 10.003C23.5765 10.2162 23.7014 10.3927 23.8778 10.5104C24.3776 10.8633 24.87 11.2016 25.458 11.4222C26.3546 11.7604 27.016 12.3928 27.3688 13.3487C25.9798 12.7752 24.9141 11.6354 23.4369 11.2457C23.0326 11.1354 22.7019 10.7163 22.3491 10.4295C22.2315 10.3339 22.1433 10.2015 22.0551 10.0765C21.8347 9.76769 21.526 9.57651 21.1585 9.5471C19.3873 9.41474 17.6822 8.78973 15.8816 8.91473C15.5729 8.93679 15.2936 8.90737 14.9923 8.78972C13.9854 8.39265 13.809 8.55442 13.5885 9.62063C13.5003 10.0618 13.9781 10.356 13.7502 10.753C13.4636 10.9001 13.2358 10.753 13.0447 10.606C12.0378 9.81181 10.8398 9.34857 9.75211 8.70149C9.32584 8.44413 8.78198 8.04706 8.37041 8.45148C7.90004 8.90738 8.01764 9.59857 8.30427 10.1721C8.51005 10.5839 8.83343 10.9148 9.2009 11.2016C10.2004 11.9884 10.9133 13.0472 11.7438 13.9958C12.7507 15.1502 13.4563 16.6356 15.0584 17.1871C15.3083 17.2753 15.3377 17.5915 15.3965 17.8415C14.7351 17.9738 14.2206 17.6283 13.7135 17.2974C11.5968 15.9223 9.63452 14.2826 8.19402 12.2678C7.0475 10.6648 5.87894 9.01769 4.9235 7.26763C4.54868 6.58378 4.53398 5.79698 4.40169 5.04695C4.24735 4.20134 4.16651 3.34836 3.5859 2.62775C3.26987 2.23068 3.18903 1.70125 3.33602 1.17917C3.57855 0.304142 4.15181 0.157086 4.9382 0.612984C7.48847 2.07627 10.1269 3.22338 13.1623 3.28955C15.4333 3.34103 17.6822 3.091 19.9458 3.01747C20.7543 2.98805 21.5186 2.32627 22.3785 2.83364V2.85572Z" fill="#867042"/>
<path d="M15.3962 17.8488C15.3448 17.5988 15.308 17.2826 15.0581 17.1943C13.4559 16.6429 12.7504 15.1575 11.7435 14.003C10.913 13.0545 10.2075 11.9956 9.20059 11.2088C8.83311 10.9221 8.50974 10.5912 8.30395 10.1794C8.01732 9.60585 7.90708 8.91466 8.3701 8.45876C8.78167 8.05433 9.32553 8.45876 9.7518 8.70877C10.8395 9.35585 12.0375 9.81909 13.0444 10.6132C13.2355 10.7677 13.4633 10.9074 13.7499 10.7603C13.9778 10.3559 13.5 10.0691 13.5882 9.62791C13.8014 8.5617 13.9778 8.39258 14.992 8.797C15.286 8.91465 15.5652 8.94407 15.8813 8.92201C17.6745 8.80436 19.387 9.42202 21.1582 9.55438C21.5183 9.58379 21.8343 9.76762 22.0548 10.0838C22.143 10.2088 22.2312 10.3412 22.3488 10.4368C22.7016 10.7235 23.025 11.1427 23.4365 11.253C24.9138 11.6427 25.9795 12.7824 27.3685 13.356C27.0157 12.4001 26.3543 11.7677 25.4576 11.4294C24.8697 11.2088 24.3773 10.8706 23.8775 10.5176C23.7011 10.3926 23.5762 10.2235 23.6864 10.0103C23.7967 9.79703 24.0318 9.76763 24.2156 9.84116C24.8697 10.1059 25.5458 10.3265 26.1411 10.7456C27.1407 11.4368 28.1549 12.1059 29.2794 12.6133C29.8453 12.8707 30.3377 12.8854 30.8889 12.7604C30.9183 12.8559 30.9404 12.9589 30.9624 13.0545C30.9845 13.2016 31.0653 13.3633 31.0286 13.4957C30.7566 14.5251 31.1755 15.0987 32.1677 15.3707C32.6601 15.5105 33.0717 15.7972 33.204 16.3487C31.837 17.3929 30.4112 16.7899 29.0148 16.459C28.493 16.3414 28.0373 15.959 27.3685 16.062C27.4861 16.6943 28.0961 16.6061 28.3754 16.9223C28.8311 17.4296 28.9707 18.1355 28.4709 18.3708C27.758 18.7017 27.5816 19.1209 27.7286 19.8194C27.736 19.8635 27.4861 19.9591 27.3538 20.0327C26.369 20.143 21.0186 19.518 20.1146 19.2385C19.5487 19.0547 18.9534 18.9518 18.358 18.8488C17.3218 18.6723 16.3369 18.3488 15.4036 17.8635L15.3962 17.8488Z" fill="#916D4D"/>
<path d="M46.9255 25.7533C46.8226 26.0106 46.5507 26.0695 46.3596 26.2239C45.8819 26.6063 45.6908 27.0475 46.3743 27.3931C47.2416 27.8269 47.124 28.2313 46.3964 28.6578C46.1244 28.8196 46.1097 29.0107 46.2347 29.2828C46.5801 30.0402 46.1024 30.4226 45.5144 30.6726C44.4487 31.1285 43.3684 31.5549 42.2072 31.6726C41.7368 31.2829 40.3771 30.8637 39.6201 30.9667C39.0175 31.0476 38.5177 31.0696 38.1943 30.4373C37.9886 30.0328 37.599 30.0843 37.261 30.1946C36.4452 30.452 35.6147 30.7167 34.9165 31.2094C33.8875 31.9447 32.8513 32.6653 31.7047 33.1947C31.0065 33.5182 30.6685 34.1653 30.2569 34.7168C29.7351 35.4227 29.1251 36.0036 28.4489 36.5478C26.9276 37.7831 25.4209 39.0478 23.929 40.3199C23.3925 40.7832 22.9074 41.3126 22.5693 41.945C22.0255 42.9597 21.195 43.5259 20.0338 43.6583C18.7623 43.8054 17.5643 44.1877 16.4987 44.9451C16.2488 45.1216 15.9769 45.2539 15.8005 45.5186C15.1317 46.526 14.1395 47.1143 13.0518 47.5628C13.1179 47.1363 12.9489 46.6216 13.4192 46.3275C14.676 45.5554 15.1758 44.1804 15.9181 43.0406C17.1454 41.1509 18.5418 39.4596 20.2028 37.9522C21.4449 36.8272 22.4444 35.4374 23.8188 34.4448C24.7374 33.783 25.4944 32.8785 26.6483 32.5697C27.3759 32.3785 27.6699 31.6579 28.2725 31.2755C29.4999 30.4961 30.7714 29.7975 31.9546 28.9372C32.8292 28.3048 33.9684 28.0475 34.9826 27.5989C36.2467 27.0401 37.6137 26.7019 38.9366 26.268C39.0322 26.2386 39.113 26.1209 39.1939 26.1283C41.6118 26.2754 43.9196 25.165 46.3523 25.5474C46.5507 25.5768 46.7344 25.6798 46.9182 25.7533H46.9255Z" fill="#72673C"/>
<path d="M52.8864 16.3853C52.2323 16.9295 51.8501 17.8413 50.8359 17.9221C50.6815 18.356 51.0931 18.5398 51.2548 18.8266C51.4091 19.0913 51.6443 19.3413 51.4238 19.6502C51.2254 19.9296 50.8947 19.9369 50.5933 19.8928C50.1818 19.8266 49.7996 19.7016 49.6673 19.231C49.4909 18.6354 49.0573 18.3781 48.4914 18.5692C47.1538 19.0178 46.1248 18.3339 45.0665 17.7383C44.846 17.6207 44.5962 17.2824 44.4639 17.3265C43.3835 17.7163 42.3105 17.3045 41.2448 17.3486C41.0684 17.356 40.8479 17.5986 40.6862 17.4589C39.7528 16.6795 38.7533 17.1059 37.7685 17.2751C37.1364 17.3854 37.0335 16.8412 36.7984 16.4809C36.5485 16.0986 36.791 15.8486 37.085 15.5838C38.0919 14.6868 38.0845 14.672 37.0335 13.8264C36.9159 13.7308 36.7837 13.6499 36.6661 13.5544C36.4897 13.422 36.3647 13.2455 36.4603 13.0396C36.5485 12.8411 36.7763 12.7896 36.9821 12.7823C37.5039 12.7529 37.9669 12.9808 38.4446 13.1573C39.0399 13.3779 39.5471 13.3705 39.6426 12.5249C39.7308 11.7896 40.2453 11.8484 40.7891 12.0028C41.9503 12.3337 43.1704 12.3926 44.3389 12.7529C44.6623 12.8558 45.2429 13.2014 45.5295 12.547C46.6467 12.9073 47.1391 14.2529 48.3811 14.3926C48.5502 14.2676 48.5575 14.1205 48.484 13.9882C48.3664 13.7602 48.1827 13.5249 48.4546 13.319C48.6825 13.1499 48.925 13.2382 49.1308 13.4367C49.6011 13.8852 50.314 14.0323 50.6521 14.6573C50.5345 15.0397 50.439 15.3632 50.8212 15.7309C51.4091 16.2897 51.9824 16.0397 52.5777 15.8559C52.6806 16.0324 52.7908 16.2089 52.8937 16.3853H52.8864Z" fill="#645A33"/>
<path d="M10.384 56.225C10.3179 56.5412 10.1783 56.8427 10.2664 57.1736C10.1856 57.2986 10.1048 57.4163 10.0239 57.5413C9.92837 57.5633 9.82548 57.5854 9.72993 57.6074C9.34041 57.6957 9.17872 57.9383 9.25222 58.328C9.39921 58.8354 8.98028 59.1957 8.89209 59.6443C8.52462 59.784 8.15714 59.9237 8.7157 60.306C9.10523 60.4825 9.15667 60.8281 9.14932 61.1884C9.14197 61.4384 8.99498 61.7399 9.09053 61.9311C10.0607 63.8576 8.67896 65.0709 7.77497 66.4313C7.23846 66.3798 7.02532 65.7989 6.47411 65.7033C5.91555 65.6077 5.8788 65.1959 6.34182 64.8797C6.84158 64.5415 6.90038 64.1591 6.68725 63.5782C5.90085 64.1297 5.21735 64.5488 5.23205 65.593C5.23205 65.9754 4.72493 66.1665 4.53385 65.6224C4.35746 65.1224 3.88709 65.0047 3.60781 64.6591C3.49022 63.74 4.02673 62.9532 4.40156 62.2547C5.54073 60.1296 6.23893 57.806 7.63533 55.7765C8.55401 54.4456 9.458 53.0411 10.237 51.5705C10.8397 50.4307 11.3615 49.063 12.5962 48.3057C12.8682 48.4233 13.2871 48.5851 13.096 48.9086C12.6918 49.5851 12.9931 50.5043 12.2655 51.0778C12.0377 51.2543 11.9054 51.7322 12.1773 52.0411C12.6036 52.5484 12.2655 53.0999 12.3463 53.6294C12.2655 53.7544 12.1847 53.8794 12.0965 53.997C11.2145 54.1 11.119 54.725 11.1557 55.4309C11.0749 55.5486 11.0014 55.6662 10.9205 55.7838L10.9058 55.8059C10.656 55.85 10.4502 55.953 10.384 56.225ZM8.39967 58.3501C8.31883 58.3207 8.23064 58.2545 8.15714 58.2692C8.08365 58.2839 8.0175 58.3648 7.94401 58.4236C8.02485 58.453 8.11304 58.5192 8.18654 58.5119C8.26003 58.4972 8.32618 58.4163 8.39967 58.3575V58.3501Z" fill="#72673C"/>
<path d="M3.60788 64.6517C3.87981 64.9973 4.35752 65.115 4.53391 65.615C4.71765 66.1518 5.23211 65.968 5.23211 65.5856C5.21741 64.5414 5.90091 64.1223 6.68731 63.5708C6.90044 64.1517 6.84165 64.5341 6.34188 64.8723C5.87887 65.1885 5.91561 65.6003 6.47417 65.6959C7.02538 65.7915 7.23852 66.3724 7.77503 66.4238C8.23805 68.3577 8.39239 70.299 8.00287 72.2623C7.93672 72.5785 7.81178 72.8285 7.55455 73.0196C7.52515 72.3137 7.34876 71.5711 7.51045 70.9093C7.77503 69.8504 7.08418 69.321 6.54767 68.7033C6.14345 68.2327 5.51874 68.2989 5.08512 68.7695C4.83524 69.0416 4.76909 69.3798 4.67355 69.7328C4.48246 70.4608 4.36487 71.3652 3.87981 71.8284C3.38004 72.299 3.3139 72.6888 3.57113 73.1079C4.00475 73.8358 3.88716 74.4609 3.45354 75.0859C3.16691 75.4977 3.2257 75.9389 3.18161 76.3948C3.07871 77.4389 3.11546 78.5272 2.21882 79.3434C1.92484 79.6081 1.71906 80.0052 2.04244 80.4317C2.32172 80.8067 1.99099 81.2258 2.10858 81.6155C1.76316 81.8361 1.21929 80.9831 0.98411 81.8287C0.910615 81.5346 0.741577 81.2331 0.770975 80.9537C1.02821 78.483 0.726878 75.9903 1.02821 73.527C1.12375 72.7476 1.37363 71.9829 1.50592 71.2034C1.71171 69.946 2.02774 68.7033 2.24822 67.4459C2.43196 66.3797 2.82883 65.4312 3.60053 64.6591L3.60788 64.6517Z" fill="#867042"/>
<path d="M50.6447 14.6575C50.314 14.0325 49.6011 13.8854 49.1234 13.4369C48.9176 13.2384 48.6751 13.1501 48.4472 13.3192C48.1753 13.5178 48.3591 13.7604 48.4766 13.9884C48.5501 14.1281 48.5354 14.2752 48.3738 14.3928C47.1317 14.2604 46.6393 12.9075 45.5222 12.5472C45.1841 11.9442 44.993 11.1574 44.0082 11.4295C43.9347 11.4515 43.8024 11.4001 43.7509 11.3412C42.5677 9.86324 40.8111 9.07646 39.4441 7.83377C38.5034 6.97345 37.3275 6.3043 36.8057 5.03955C39.5029 5.56163 41.9283 6.71609 44.1625 8.26761C46.5878 9.95149 48.8809 11.8118 50.924 13.9663C51.2327 14.2899 51.6002 14.5987 51.6443 15.0987C51.3135 14.9517 50.9755 14.8046 50.6447 14.6649V14.6575Z" fill="#916D4D"/>
<path d="M52.5777 38.0627C51.9971 37.6289 51.3651 37.7612 51.2401 38.3789C51.0123 39.4745 50.3214 38.9524 49.7996 39.0774C49.5938 38.4965 49.9613 38.2392 50.1965 37.923C50.5052 37.5259 50.8065 37.1215 51.1225 36.7244C51.6664 36.0332 49.976 36.3935 50.6375 35.7097C50.9388 35.4009 51.5341 35.2685 51.1152 34.6802C50.8359 34.2832 50.902 33.8935 51.049 33.5258C51.3945 32.6508 51.4092 31.864 50.6669 31.1654C50.5346 31.0404 50.4317 30.8125 50.4243 30.6286C50.3949 29.9595 50.6889 29.783 51.2548 30.1727C51.2916 30.3639 51.3283 30.5551 51.3724 30.7389C51.5855 31.1875 51.784 31.6434 52.0118 32.0846C52.1808 32.4228 52.4895 32.4008 52.7835 32.2905C53.0922 32.1802 52.9819 31.9448 52.9893 31.6948C53.026 30.9816 53.151 30.2683 53.2686 29.5624C53.32 29.2242 53.5699 29.0477 53.8933 29.0036C54.3122 28.9374 54.6209 28.7021 54.9443 28.4668C54.9002 29.2683 54.7973 30.0257 54.2167 30.6728C53.9668 30.9522 53.7683 31.4081 53.7904 31.7684C53.9006 33.2758 53.592 34.6949 53.1289 36.1067C53.0701 36.2832 53.0775 36.5332 53.151 36.7024C53.4523 37.3862 53.0407 37.7318 52.563 38.0627H52.5777Z" fill="#72673C"/>
<path d="M46.9182 50.3424C46.3303 49.1659 46.4405 47.9452 46.6463 46.6952C46.8815 45.2613 47.4988 44.6951 49.0202 44.6216C49.2701 44.6069 49.5126 44.5407 49.7625 44.4966C49.1157 46.5114 48.0868 48.3497 47.1975 50.2541C47.1681 50.313 47.0138 50.313 46.9182 50.3424Z" fill="#72673C"/>
<path d="M44.2506 54.0631C43.8464 53.6072 43.2805 54.1072 42.7881 53.8131C42.8248 52.9675 43.5671 52.4895 43.9493 51.8351C44.3168 51.2101 44.9856 51.3645 45.794 52.0998C45.1032 52.6219 45.0076 53.5999 44.2506 54.0631Z" fill="#72673C"/>
<path d="M16.6089 75.8947C15.7932 75.608 16.4179 74.9168 16.1606 74.3506C15.6609 74.3653 15.3963 75.1521 14.7716 74.8874C14.7422 74.527 15.139 74.3653 15.2052 74.0418C15.3448 73.4094 15.6315 73.255 16.2782 73.5932C16.7927 73.8653 17.4468 73.8432 18.0568 73.7771C17.8143 74.6521 16.8809 75.0491 16.6089 75.8947Z" fill="#867042"/>
<path d="M13.853 79.9391C12.2949 79.7332 11.9421 79.2626 12.339 77.9243C12.4272 77.6155 12.5742 77.3581 12.9122 77.2993C13.3018 77.2258 13.39 77.564 13.559 77.8067C13.7721 78.1155 13.8603 78.3655 13.6472 78.7552C13.5075 79.0126 13.8603 79.1302 14.0955 79.2038C14.1249 79.4905 14.0882 79.7479 13.853 79.9464V79.9391Z" fill="#867042"/>
<path d="M18.0571 73.7846C17.7827 73.1767 17.3123 72.7184 16.646 72.4095C17.6676 71.5492 18.6745 71.8286 19.6813 72.2919C19.4755 73.1522 18.6965 73.3875 18.0571 73.7846Z" fill="#867042"/>
<path d="M36.9968 60.8798C36.5485 60.8945 36.1002 60.7915 35.6592 60.968C35.5122 61.0268 35.3652 60.8724 35.3652 60.7107C35.3652 60.5783 35.4681 60.3209 35.4755 60.3209C36.7175 60.6592 37.1365 59.3062 38.0845 59.0488C38.158 59.4091 38.2242 59.7768 38.2977 60.1371C37.9817 60.5857 37.6436 60.9974 37.0042 60.8871L36.9968 60.8798Z" fill="#645A33"/>
<path d="M50.6445 14.6578C50.9752 14.8048 51.3133 14.9519 51.644 15.0916C51.9968 15.2975 52.5186 15.2828 52.57 15.849C51.9674 16.0328 51.4015 16.2828 50.8135 15.724C50.4313 15.3637 50.5269 15.0328 50.6445 14.6504V14.6578Z" fill="#72673C"/>
<path d="M41.509 57.1958C40.9724 56.2105 41.09 56.0414 42.5232 55.7031C42.7584 56.5855 42.0969 56.8649 41.509 57.1958Z" fill="#7D6D3F"/>
<path d="M50.4019 43.1143C50.0418 42.9526 50.0418 42.5923 49.9683 42.2834C50.3357 42.0996 50.7032 41.9158 51.0707 41.7319C50.9384 42.232 50.8722 42.7687 50.4092 43.1143H50.4019Z" fill="#72673C"/>
<path d="M38.2903 60.1296C38.2168 59.7693 38.1506 59.4017 38.0771 59.0414C38.5622 58.8943 38.7827 59.387 39.1722 59.4826C38.9958 59.8649 38.599 59.9385 38.2903 60.1296Z" fill="#72673C"/>
<path d="M49.983 25.4888C49.7772 25.9447 49.5861 26.4226 49.1011 25.6946C49.3657 25.4888 49.6082 25.2093 49.983 25.4888Z" fill="#72673C"/>
<path d="M43.2733 55.4455C43.2218 54.9014 43.4276 54.541 43.9788 54.4087C43.8024 54.7911 43.7657 55.2764 43.2733 55.4455Z" fill="#867042"/>
<path d="M19.7327 72.2476C19.6004 72.0711 19.2035 71.9314 19.446 71.674C19.7253 71.3799 19.9826 71.6373 20.1589 71.9093C20.0193 72.0196 19.8797 72.1299 19.7327 72.2476Z" fill="#867042"/>
<path d="M20.6733 71.4168C20.8571 71.0712 21.1217 70.8653 21.5185 70.8506C21.4083 71.2991 20.9967 71.2918 20.6733 71.4168Z" fill="#867042"/>
<path d="M40.4584 58.3574C40.2894 57.6073 40.7965 57.5485 41.3183 57.5044C41.164 57.9235 40.7671 58.1 40.4584 58.3574Z" fill="#72673C"/>
<path d="M2.10865 81.6156C1.99105 81.2259 2.32178 80.8068 2.0425 80.4318C1.71912 80.0053 1.92491 79.6082 2.21889 79.3435C3.11553 78.5346 3.07878 77.439 3.18167 76.3949C3.22577 75.939 3.16697 75.4978 3.4536 75.086C3.88722 74.461 4.00481 73.836 3.57119 73.108C3.32131 72.6889 3.38011 72.2991 3.87987 71.8285C4.37229 71.3653 4.48253 70.4682 4.67362 69.7329C4.76916 69.38 4.83531 69.0417 5.08519 68.7696C5.51881 68.299 6.14351 68.2328 6.54773 68.7034C7.08425 69.3211 7.7751 69.8505 7.51052 70.9094C7.34883 71.5712 7.52522 72.3138 7.55461 73.0198C7.51052 73.3433 7.47377 73.6595 7.42967 73.983C6.61388 74.3213 6.74617 74.9978 6.83436 75.6596C6.47424 76.2625 7.0328 76.9831 6.59918 77.5861C5.83483 77.6964 5.12928 77.8508 4.90145 78.7773C4.59277 80.0274 4.20325 81.2627 3.85047 82.498C3.55649 82.5568 3.25517 82.6157 2.96119 82.6745C2.7995 82.2259 2.93914 81.5347 2.116 81.6083L2.10865 81.6156Z" fill="#916D4D"/>
<path d="M37.0625 33.9668C37.1066 34.6507 37.5622 34.9154 38.1502 34.9301C38.7308 34.9448 38.9146 35.2757 38.9807 35.761C38.9293 35.7684 38.8778 35.7978 38.8337 35.7831C36.5701 35.2169 35.0708 36.7169 33.373 37.7537C31.8737 38.6729 30.7272 40.0847 29.0515 40.7391C28.9119 40.7979 28.7723 40.8641 28.5444 40.6876C28.8311 39.8935 29.4411 39.3494 30.0731 38.8052C30.8816 38.114 31.8076 37.5993 32.7189 37.0478C33.5862 36.5257 34.4167 35.9963 34.9826 35.0771C35.4235 34.3712 36.3128 34.2242 37.0698 33.9595L37.0625 33.9668Z" fill="#6F653A"/>
<path d="M3.85059 82.5052C4.20336 81.2625 4.59288 80.0345 4.90156 78.7845C5.1294 77.858 5.8276 77.6962 6.59929 77.5933C6.66544 78.4389 6.27592 79.2551 6.4817 80.108C6.19507 80.4316 6.14362 80.8286 6.10688 81.2331C5.95254 82.8434 5.61446 83.0566 4.15191 82.5272C4.06372 82.4978 3.95348 82.5199 3.85059 82.5125V82.5052Z" fill="#867042"/>
<path d="M38.3268 38.7026C38.3489 38.8056 38.3709 38.9012 38.393 39.0041C38.4077 40.0409 38.3562 40.0997 37.1362 40.5042C37.4008 39.813 37.7977 39.21 38.3342 38.7026H38.3268Z" fill="#6F653A"/>
<path d="M6.8342 75.6667C6.73865 75.005 6.61371 74.3285 7.4295 73.9902C7.34131 74.5858 7.62059 75.3138 6.8342 75.6667Z" fill="#867042"/>
<path d="M9.25212 58.328C9.17862 57.9309 9.34031 57.6957 9.72983 57.6074C9.80333 58.0045 9.64899 58.2471 9.25212 58.328Z" fill="#867042"/>
<path d="M8.71579 60.299C8.15722 59.9166 8.5247 59.7769 8.89217 59.6372C8.83338 59.8578 8.77458 60.0784 8.71579 60.299Z" fill="#867042"/>
<path d="M10.3843 56.2253C10.4578 55.9532 10.6562 55.8503 10.9061 55.8062C10.8399 56.0782 10.6195 56.1665 10.3843 56.2253Z" fill="#867042"/>
<path d="M10.0239 57.5415C10.1048 57.4165 10.1856 57.2988 10.2665 57.1738C10.215 57.3135 10.5384 57.7033 10.0239 57.5415Z" fill="#867042"/>
<path d="M12.104 53.9971C12.1848 53.872 12.2657 53.747 12.3539 53.6294C12.273 53.7544 12.1922 53.8794 12.104 53.9971Z" fill="#867042"/>
<path d="M43.6259 46.3939C43.6773 46.3792 43.7214 46.3572 43.7729 46.3425C44.1844 46.2469 44.5225 45.5998 44.9855 46.0483C45.4265 46.4822 45.1252 46.9675 44.8753 47.4381C44.3094 48.5116 43.3833 49.2396 42.4794 49.9676C41.4504 50.7985 40.4289 51.6147 39.7527 52.7839C39.5469 53.1442 39.2676 53.4383 38.9369 53.6809C38.4959 53.9971 38.3049 54.2545 38.9002 54.703C39.3926 55.0707 38.981 55.5339 38.7091 55.8942C38.4298 56.2692 37.8492 56.534 38.2975 57.1443C38.224 57.4016 38.0182 57.4825 37.7904 57.534C37.7022 57.659 37.6067 57.784 37.5185 57.909C36.0706 58.637 34.9682 59.7252 34.123 61.0929C33.9025 61.0341 33.6894 60.9753 33.4689 60.9165C32.9103 61.0121 32.3738 61.1077 32.0504 61.6738C31.8888 61.9606 31.9035 62.4533 31.4404 62.4459C31.0362 62.4459 30.6026 62.3503 30.3454 61.9974C29.9264 61.4385 29.5296 61.4385 28.9269 61.7768C27.8833 62.365 27.8539 62.3209 26.9352 61.3577C26.2444 60.6371 25.9136 60.3062 26.9499 59.5561C28.3978 58.4973 29.3679 57.034 30.4409 55.6295C31.1391 54.7177 32.0504 53.8133 33.2705 53.453C33.8731 53.2765 34.0862 52.7177 34.3876 52.2691C34.7183 51.7691 35.0637 51.4676 35.7546 51.5779C36.8056 51.747 37.4303 50.9456 38.0109 50.2764C38.4371 49.7764 38.8781 49.4308 39.5249 49.394C40.9948 49.3058 41.8988 48.4455 42.5602 47.2322C43.06 47.1366 43.5083 46.9822 43.6332 46.4013L43.6259 46.3939Z" fill="#867042"/>
<path d="M43.626 46.3938C43.5085 46.9747 43.0528 47.1365 42.553 47.2247C42.384 46.7688 42.5089 45.9453 41.9945 45.9306C41.2081 45.9085 40.2894 45.5776 39.5912 46.335C39.209 46.7468 38.7754 47.0924 38.1801 47.1438C37.6509 47.1953 37.379 46.9085 37.548 46.4379C37.6509 46.1585 37.8273 45.9012 38.0037 45.6585C39.0253 44.232 40.0542 42.8128 41.0758 41.3863C41.2228 41.1804 41.3698 40.9745 41.4873 40.7466C41.7299 40.298 42.0165 39.8054 41.7813 39.3201C41.5094 38.7686 40.9729 39.1583 40.554 39.173C40.1865 39.1877 39.9954 39.0186 39.8852 38.695C41.0978 37.8126 41.9577 36.467 43.3541 35.9155C43.7363 36.0552 43.7804 36.3273 43.8098 36.5699C43.9127 37.3567 44.3242 37.6582 45.1253 37.7465C46.3748 37.8788 46.5511 38.2171 46.1543 39.4377C46.0514 39.7686 45.8309 40.0701 45.6398 40.3642C45.3091 40.8789 44.9563 41.3789 44.6329 41.8937C44.0597 42.7981 43.2218 43.5923 43.7069 44.8791C43.8686 45.3055 43.6628 45.8791 43.6187 46.3791L43.626 46.3938Z" fill="#6F653A"/>
<path d="M2.11572 81.6158C2.93886 81.5423 2.79922 82.2261 2.96091 82.682C2.12307 82.7703 2.27741 82.0717 2.11572 81.6158Z" fill="#867042"/>
<path d="M33.4688 60.9092C33.6892 60.968 33.9024 61.0268 34.1229 61.0856C34.2845 61.2107 34.2992 61.3357 34.0861 61.3798C33.7113 61.4607 33.5569 61.2254 33.4761 60.9092H33.4688Z" fill="#7D6D3F"/>
<path d="M33.1898 16.3416C33.0575 15.7901 32.6459 15.5033 32.1535 15.3636C31.1613 15.0842 30.7424 14.518 31.0143 13.4886C31.051 13.3562 30.9702 13.1944 30.9482 13.0474C32.3005 13.4591 32.9766 14.643 33.763 15.6504C34.1893 16.1945 33.5058 16.2019 33.1824 16.3416H33.1898Z" fill="#867042"/>
<path d="M54.7455 25.3786C54.7823 25.5698 54.6647 25.6654 54.5324 25.7021C54.2237 25.783 54.0914 25.5551 54.0032 25.3198C53.9812 25.261 54.0988 25.0845 54.1429 25.0845C54.3854 25.0918 54.65 25.0992 54.7455 25.3786Z" fill="white"/>
<path d="M49.9686 42.2762C49.8216 42.3056 49.6746 42.3497 49.5276 42.357C48.5207 42.4012 48.5281 42.4012 48.8368 41.3717C48.8735 41.2394 48.8368 41.0849 48.8368 40.8423C49.4615 41.1952 49.9024 41.5776 49.9686 42.2762Z" fill="#72673C"/>
<path d="M51.3793 30.7463C51.3426 30.5551 51.3058 30.3639 51.2617 30.1801C51.4528 30.1506 51.688 30.1139 51.7615 30.3051C51.8864 30.6286 51.5924 30.6801 51.372 30.7536L51.3793 30.7463Z" fill="#916D4D"/>
<path d="M45.6027 50.5706C45.5806 50.6588 45.588 50.7912 45.5366 50.8279C45.4851 50.8647 45.3602 50.8059 45.272 50.7838C45.294 50.6956 45.2793 50.5559 45.3381 50.5265C45.3969 50.4897 45.5145 50.5485 45.6027 50.5706Z" fill="#6F653A"/>
<path d="M45.7647 48.8942C45.6986 48.953 45.6398 49.0486 45.5663 49.0633C45.4928 49.078 45.3973 49.0192 45.3164 48.9971C45.3826 48.9383 45.4414 48.8427 45.5148 48.828C45.5883 48.8133 45.6839 48.8721 45.7647 48.8942Z" fill="#72673C"/>
<path d="M8.39952 58.3501C8.32602 58.4016 8.26722 58.4898 8.18638 58.5045C8.11289 58.5192 8.02469 58.4531 7.94385 58.4163C8.01734 58.3648 8.07614 58.2766 8.15698 58.2619C8.23048 58.2472 8.31867 58.3133 8.39952 58.3501Z" fill="#867042"/>
</svg>
