<svg width="97" height="141" viewBox="0 0 97 141" fill="none" xmlns="http://www.w3.org/2000/svg">
<path d="M55.0927 58.621C54.0271 58.5696 53.0496 58.8343 52.175 59.4299C51.9618 59.5769 51.7414 59.5843 51.5135 59.6358C49.9407 59.9961 48.5223 60.5917 47.5742 62.0256C47.3023 62.4373 46.8099 62.6947 46.413 63.0182C46.3983 63.1727 46.3174 63.2977 46.2439 63.43C45.803 64.2021 44.9137 64.5624 44.4874 65.3492C44.142 66.136 43.7598 66.8934 43.7745 67.8052C43.7819 68.3052 43.6643 68.864 43.4217 69.3052C42.6133 70.8052 42.7235 72.3788 42.922 73.9671C42.9955 74.5407 43.2601 75.0701 43.5173 75.6142C43.826 76.2613 44.5462 76.8055 44.2743 77.6731C44.7447 77.5555 44.9725 77.8643 45.2518 78.1731C46.0014 79.004 47.0303 79.4967 48.0078 79.9453C48.6252 80.232 49.2719 80.4894 49.8746 80.835C49.9922 80.8571 50.1245 80.8497 50.2274 80.9012C52.0574 81.8277 53.7625 81.3865 55.4234 80.4526C55.7101 80.2909 56.0114 80.2762 56.0629 80.6659C56.2025 81.7689 56.9815 82.4748 57.6136 83.2689C58.1575 83.9601 59.0467 83.7983 59.5318 83.0704C59.9654 82.4159 59.9948 81.6512 60.2815 80.96C60.5534 80.3056 61.0752 79.7835 61.2075 79.0482C61.2957 78.5555 61.8322 78.629 62.2217 78.6438C63.4711 78.6952 64.6911 78.5261 65.8671 78.107C67.4693 77.5261 68.1307 76.4157 67.8514 74.7613C67.7559 74.1951 66.5212 72.9965 65.9773 72.82C65.0366 72.5185 64.0738 72.5994 63.1184 72.5627C62.6994 72.8715 62.8391 73.2465 62.964 73.6436C63.111 74.1068 63.258 74.8274 62.942 75.0039C62.2364 75.401 61.913 76.3054 61.0826 76.4157C60.3403 76.5113 60.1565 76.8937 60.1418 77.5408C60.1418 77.8496 60.0095 78.1658 59.9287 78.4673C59.4363 80.3644 58.8704 80.4159 57.3343 79.6217C57.0697 79.4894 56.864 79.3203 56.7978 79.0188C56.6876 78.482 56.2319 78.2981 55.835 78.0187C55.1956 77.5702 54.4386 77.2834 53.8948 76.7025C53.5493 76.7025 53.3141 76.5407 53.1745 76.2245C52.8291 76.2025 52.4616 76.2907 52.1676 76.026C51.9986 75.8716 51.7487 75.7172 51.8443 75.4598C51.9398 75.1878 52.2338 75.276 52.4543 75.2539H52.932C53.0275 75.1951 53.1525 75.0628 53.2186 75.0922C53.7992 75.3054 53.836 75.0113 53.9242 74.526C54.0417 73.8421 53.4758 73.4377 53.417 72.8494C53.0643 72.8494 52.7188 72.8568 52.6968 72.3715C52.3073 72.1582 51.9912 71.8935 51.9765 71.4009C52.2117 70.6288 52.8511 70.7832 53.1672 71.1214C53.7919 71.7685 54.4166 71.6215 55.1074 71.4082C56.5112 71.1876 57.9076 71.8347 59.4142 71.5626C59.0467 70.7023 58.7454 69.9744 58.231 69.3714C57.1726 68.1287 56.0923 66.9007 55.0266 65.6654C54.6224 65.2021 54.2622 64.7168 54.2769 64.0109C54.9972 64.1065 54.9163 65.1433 55.6733 65.0257C55.8203 64.7609 55.6145 64.6433 55.5337 64.4742C55.2177 63.8344 54.7253 63.2829 54.5415 62.577C54.5048 62.43 54.4019 62.2682 54.5562 62.1358C54.7399 61.9814 54.9457 62.0403 55.1001 62.1726C55.2765 62.327 55.4528 62.5035 55.5704 62.7094C55.7689 63.0697 56.0702 63.3344 56.3568 63.6138C56.6214 63.8712 56.9154 64.1286 57.2608 63.7094C57.5548 63.3491 57.4666 63.0991 57.0697 62.8418C56.7684 62.6432 56.3936 62.4153 56.4083 61.9888C56.6288 61.7976 56.7537 61.9079 56.8786 62.0035C57.4152 62.4153 57.9002 62.9888 58.5029 63.2021C59.914 63.7021 60.5975 64.8492 61.3545 65.9742C61.575 66.3051 61.6191 66.6066 61.5456 66.9889C61.2442 68.4816 61.9498 70.0552 63.2947 70.945C63.3021 69.9155 63.3241 68.8934 63.3168 67.864C63.3168 67.4228 63.3462 67.0036 63.5152 66.5919C63.2507 66.4742 63.0963 66.2536 62.942 66.011C62.5084 65.3198 62.2952 64.5183 61.8689 63.8418C61.3912 63.0697 61.4059 61.9814 60.4211 61.5402C60.3109 61.4961 60.1345 61.4888 60.0977 61.4152C59.6421 60.3858 58.7528 59.849 57.7826 59.5108C56.9007 59.2019 56.0996 58.5769 55.0927 58.6578V58.621Z" fill="#D8B8A0"/>
<path d="M44.4872 65.3565C44.9062 64.5697 45.7954 64.2094 46.2438 63.4373C46.3246 63.305 46.4054 63.18 46.4128 63.0255C45.575 61.5034 44.7445 59.9887 43.5465 58.7019C43.01 58.121 42.6131 57.4371 41.9443 56.9444C40.6288 55.9812 39.2324 55.2679 37.5714 55.2532C37.2333 55.2532 36.9467 55.1209 36.6527 55.0032C36.2411 54.8341 36.1456 54.5914 36.197 54.0767C36.3073 53.0178 36.4983 51.959 36.4395 50.8854C36.3734 49.6795 36.2044 48.4736 36.2264 47.2603C36.2338 46.5985 36.3587 45.9441 36.3073 45.2676C36.1823 43.6425 36.1088 42.0248 36.3808 40.3998C36.5057 39.6645 36.2926 38.9218 36.3808 38.1571C36.5351 36.7747 36.9246 35.429 37.0055 34.0393C37.1084 32.2304 37.6816 30.4803 37.6743 28.6494C37.6669 27.0538 38.2475 25.5316 38.4092 23.9507C38.4754 23.2816 38.762 22.6271 38.6297 21.9433C38.5782 21.6639 38.6811 21.5094 38.7987 21.2962C39.1515 20.6124 39.3499 19.8917 39.2471 19.1123C38.9016 19.2152 38.7693 19.5094 38.637 19.8035C37.9315 21.4359 37.2406 23.0757 36.5204 24.7007C35.9912 25.8993 35.4253 27.0832 34.8741 28.2817C34.683 28.6935 34.4772 29.0759 33.9187 28.995C33.5586 31.4142 33.1102 33.8334 32.8677 36.2673C32.6987 37.9659 32.5296 39.6718 32.4267 41.3778C32.3606 42.4734 32.7281 43.5911 32.3091 44.6646C32.8824 45.2676 32.1842 45.9073 32.3753 46.5397C32.5811 47.2235 32.39 47.9736 32.6913 48.6574C32.9044 49.1427 32.4708 49.5618 32.537 50.0619C32.6766 51.1575 32.537 52.2605 32.5223 53.3561C32.5223 53.8046 32.412 54.2164 32.2871 54.6355C32.1842 54.9811 32.0372 55.1797 31.6771 55.2753C30.707 55.54 29.8912 56.0841 29.1415 56.7459C28.627 57.2018 28.4139 57.1871 27.9141 56.7239C27.9803 57.4371 27.4658 57.7901 27.0102 58.1651C26.0327 58.9813 25.2757 59.8931 25.4888 61.2828C25.4668 61.8123 25.6138 62.2976 25.8489 62.7755C26.459 64.0182 27.2086 65.1432 28.2522 66.0771C28.8843 66.6433 29.2959 67.4889 30.2807 67.5624C30.2807 66.9007 30.3395 66.2462 30.5453 65.6138C30.3689 65.305 30.0528 65.0771 30.0675 64.6726C29.3179 64.6653 29.2518 63.8858 28.8034 63.5255C28.2449 63.077 27.9215 61.0475 28.2228 60.4225C28.3625 60.1357 28.6344 60.0769 28.9137 60.0401C29.5604 59.1725 30.5967 58.9225 31.4639 58.4077C32.0813 58.0401 32.0519 58.0327 32.1474 58.7386C32.3238 59.9813 32.0519 61.2681 32.4782 62.4887C32.7281 62.4887 32.9265 62.6064 33.1176 62.7608C33.3381 62.9373 33.4704 62.8932 33.6761 62.6505C34.1245 62.1284 34.4111 62.1652 34.6022 62.8123C34.8741 63.7241 35.4547 64.4741 35.7707 65.3565C35.8736 64.8123 36.1162 64.2535 36.0647 63.7241C35.881 61.9372 36.3146 60.1578 36.0941 58.371C36.0353 57.8783 36.3734 57.8342 36.7041 57.893C37.1304 57.9665 37.5346 58.1724 37.9609 58.2165C38.7914 58.3121 39.5851 58.5915 40.1437 59.1504C41.2094 60.2019 42.2089 61.3269 42.9218 62.6652C43.1423 63.0843 43.4069 63.4594 43.7229 63.827C44.0757 64.2315 44.5754 64.68 44.4799 65.3565H44.4872Z" fill="#8D9398"/>
<path d="M30.2805 67.555C29.2957 67.4814 28.8841 66.6358 28.252 66.0696C27.2084 65.1358 26.4514 64.0107 25.8488 62.768C25.6136 62.2901 25.4666 61.8121 25.4886 61.2753C24.7022 61.018 24.6508 60.3194 24.5185 59.665C24.2907 58.4885 24.004 57.3634 22.7987 56.7458C22.4092 56.5472 22.174 56.1428 21.9829 55.7384C21.6743 55.0913 21.3435 54.4589 21.0275 53.8119C20.8511 53.4442 20.6747 53.0839 20.1823 53.0839C20.1676 53.4001 20.2044 53.7677 19.734 53.7824C19.3518 53.7972 18.3155 53.0839 18.1906 52.7015C17.9113 51.8339 17.5585 50.9956 17.5071 50.047C17.4483 49.0617 17.2572 48.069 16.559 47.2675C15.8682 46.4807 15.4051 45.5763 15.0303 44.591C14.7584 43.8704 14.3689 43.1497 13.9573 42.4659C13.5678 41.8188 12.9798 41.2967 12.7226 40.5614C12.3992 40.3188 12.0832 40.0835 11.7598 39.8408C11.7598 39.9585 11.7965 40.1202 11.7378 40.1938C11.1204 40.9364 11.554 41.5982 11.9068 42.2306C12.4727 43.2306 13.1048 44.1939 13.7001 45.1792C14.4571 46.4366 15.1626 47.7234 15.9564 48.9588C16.5223 49.8411 17.1323 50.6794 17.0661 51.7971C17.0441 52.1353 17.1764 52.4368 17.3601 52.6942C18.1318 53.8413 18.9035 54.9957 19.7193 56.1061C20.6159 57.3193 21.6449 58.4223 21.9829 59.9885C22.2475 61.2018 22.2328 61.4665 21.1451 61.9665C20.785 62.1283 20.638 62.3121 20.6894 62.6798C21.2112 63.9078 21.6081 65.1872 22.4019 66.2829C22.6664 66.6432 22.4753 67.0697 22.6076 67.4373C23.2691 69.2683 23.8644 71.1212 24.276 73.0257C24.5259 74.1728 24.8125 75.3199 25.1065 76.4523C25.3784 77.5038 25.643 78.5627 25.9076 79.6142C26.1795 80.7098 26.5176 81.7907 26.7233 82.9158C26.8556 83.6364 27.0026 84.4232 27.2746 85.1438C27.5318 85.1658 27.6935 85.3644 27.8993 85.482C28.5681 85.857 29.2295 86.2247 28.9502 87.188C28.8841 87.4233 29.0825 87.5409 29.2589 87.6365C29.5382 87.7836 29.8175 87.938 30.1041 88.0924C30.0159 88.3498 29.3912 88.3865 29.8616 88.8057C30.1776 89.0851 30.3319 89.4601 30.2952 89.8866C30.2438 90.4234 30.4495 90.9087 30.5451 91.416C30.5892 92.0411 31.2359 92.5558 30.9934 93.1955C30.7068 93.9529 31.0889 94.3647 31.5667 94.7911C31.5373 93.0117 31.4858 91.2322 31.9341 89.4821C31.9856 89.291 31.9782 89.0851 31.9782 88.8865C31.9782 86.6218 31.9782 84.357 31.9856 82.0922C31.9856 79.4818 31.9929 76.8788 32.0003 74.2684C31.574 72.6213 31.4344 70.9301 31.1845 69.2536C31.0742 69.1653 31.0375 69.0697 31.1257 68.9447C31.1257 68.7315 31.1257 68.5256 31.1257 68.3123C30.6406 68.2976 30.2437 68.18 30.2731 67.5697L30.2805 67.555Z" fill="#6D6239"/>
<path d="M53.7182 30.9067C54.0122 31.6273 53.7035 32.3185 53.5639 32.995C53.0641 35.3995 53.7403 37.4142 55.5115 39.0466C56.026 39.5172 56.6874 39.907 57.4665 39.4658C57.7678 39.2967 57.9736 39.4216 58.2161 39.6202C58.6424 39.9658 59.1789 40.1864 59.4876 40.679C60.0388 41.5614 61.0824 41.6497 61.8615 42.157C62.0305 42.2673 62.251 42.2453 62.4347 42.1203C63.6033 41.3335 64.544 40.4437 65.0658 39.0172C65.3819 38.1569 65.764 37.2084 66.4402 36.4804C66.5945 36.3186 66.6607 36.0686 66.815 35.7745C67.1825 36.2819 67.6676 36.5318 68.2261 36.5833C70.2913 36.7892 72.3565 36.9436 74.2527 35.7818C74.6202 35.5539 74.9141 35.3333 74.8921 34.8627C74.8921 34.7009 74.8553 34.5097 74.9288 34.3847C75.2522 33.8553 75.3772 33.4288 74.9876 32.7817C74.7084 32.3185 74.7671 31.6273 74.238 31.267C74.2894 30.8258 74.679 30.7669 74.8847 30.539C75.311 30.0831 75.5976 29.5831 75.6123 28.9434C75.627 28.2448 75.3919 27.4874 75.9945 26.8918C76.0533 26.833 76.0607 26.6271 76.0092 26.5462C75.4654 25.6712 75.3845 24.5903 74.701 23.7741C74.3629 23.3623 74.0763 23.377 73.6868 23.627C73.2091 23.9285 72.8857 24.5388 72.1875 24.4285C72.0111 24.5682 71.9743 24.7521 72.0331 24.9653C72.1948 25.5536 72.5329 26.0168 72.9371 26.48C73.7382 27.4139 74.3262 28.4581 73.5692 29.7228C73.3928 30.0243 73.4075 30.3331 73.5324 30.642C73.6868 31.0317 73.5104 31.267 73.1429 31.3552C72.7534 31.4435 72.4227 31.3258 72.2757 30.9214C72.2316 30.8111 72.2316 30.6861 72.2316 30.5684C72.2316 29.9581 71.9229 29.7008 71.3349 29.7081C70.8572 29.7155 70.6073 29.4581 70.5118 29.0022C70.4457 28.6934 70.3575 28.3845 70.2693 28.0757C70.2031 27.833 70.0782 27.583 69.7916 27.6639C69.5564 27.7301 69.5784 27.9801 69.6666 28.1639C69.843 28.5316 69.7695 28.8404 69.5858 29.186C69.3065 29.7154 68.9611 28.8037 68.6744 29.2963C69.2036 30.5831 69.2624 32.0611 70.1811 33.2376C70.4457 33.5759 70.1664 33.9362 69.9018 34.1788C69.7034 34.3553 69.3506 34.3332 69.2036 34.6053C68.939 35.0906 68.6818 34.8774 68.3437 34.6568C67.1237 33.87 67.2854 32.5244 66.9547 31.3773C66.9253 31.289 66.9987 31.0979 67.0722 31.0611C68.0056 30.5611 67.3883 30.0096 67.0869 29.5316C66.8885 29.2228 66.668 28.9581 66.6901 28.5684C66.7048 28.2742 66.6019 28.0022 66.4255 27.7889C65.5876 26.7742 64.9703 25.6418 64.522 24.4138C64.2574 24.4506 64.059 24.5315 64.1471 24.8697C64.3088 25.4874 64.4411 26.1124 64.6028 26.7301C64.7131 27.1565 64.8674 27.5683 64.9776 27.9948C65.0144 28.1419 64.9776 28.333 64.7939 28.3845C64.6984 28.4066 64.5514 28.3698 64.4705 28.311C63.5959 27.686 62.7434 27.0315 61.7365 26.6198C61.5895 26.5609 61.3764 26.4139 61.4499 26.2815C61.7292 25.7447 61.2294 25.3403 61.2735 24.8403C61.347 24.0167 60.7884 23.5388 60.1784 23.127C59.9947 23.002 59.7963 22.9579 59.6199 23.0902C59.4435 23.2226 59.4435 23.4432 59.4876 23.6491C59.6713 24.3844 59.9065 25.1124 60.0388 25.855C60.1931 26.7154 60.612 27.6566 60.3107 28.4286C60.0241 29.1713 59.8624 29.7375 60.274 30.4287C60.4504 30.7302 60.3181 30.9876 60.002 31.0978C59.6787 31.2155 59.37 31.2082 59.2156 30.8037C59.0613 30.3846 58.929 29.9728 58.9658 29.5169C58.9952 29.1419 58.9217 28.7816 58.613 28.5389C57.856 27.9507 57.6208 27.1198 57.5253 26.23C57.4812 25.8256 57.415 25.4653 56.9741 25.1932C56.6948 25.7962 57.0843 26.2595 57.0622 26.7595C57.0181 27.833 57.0108 28.9066 57.2386 29.9875C57.3856 30.6787 57.3048 31.414 57.4959 32.12C57.6208 32.5979 57.5106 33.0979 57.1504 33.4656C56.9006 33.7229 56.93 33.87 57.121 34.1641C57.5841 34.87 57.5914 35.6789 57.4591 36.4804C57.4297 36.6422 57.3121 36.7745 57.1578 36.826C56.9814 36.8775 56.8344 36.7819 56.7756 36.6201C56.4375 35.6862 55.7981 34.8186 55.8496 33.7891C55.9231 32.2008 55.1587 31.3258 53.7182 30.914V30.9067Z" fill="#DBBAA0"/>
<path d="M20.1825 53.0842C20.675 53.0842 20.8513 53.4445 21.0277 53.8121C21.3438 54.4592 21.6745 55.0916 21.9832 55.7387C22.1742 56.1431 22.4094 56.5475 22.799 56.746C24.0043 57.3637 24.2909 58.4961 24.5187 59.6653C24.6437 60.3197 24.6951 61.0182 25.4889 61.2756C25.2757 59.8859 26.0327 58.9667 27.0102 58.1579C27.4659 57.7755 27.9803 57.4299 27.9142 56.7166C27.9142 55.5328 27.4806 54.4445 27.069 53.3783C26.4002 51.665 25.7681 49.9223 24.9303 48.2752C24.4526 48.1943 24.5334 47.834 24.5408 47.5104C24.5187 47.3707 24.4967 47.2237 24.4746 47.084C24.1513 47.3781 23.8279 47.6722 23.5045 47.959C23.3869 48.0619 23.262 48.1943 23.0856 48.1061C22.38 47.7237 21.5201 47.6501 21.1527 46.6942C20.9028 46.0619 20.6162 45.3045 19.9768 44.9442C18.7641 44.2677 18.4113 43.0912 18.0585 41.9073C17.9703 41.6058 17.8895 41.2014 18.2202 40.9367C18.6024 40.9661 18.6906 41.672 19.1095 41.3632C19.5431 41.0396 19.6754 41.3926 19.8739 41.5838C20.0429 41.7456 20.1458 41.9735 20.2928 42.1647C20.4177 42.3265 20.5794 42.4956 20.7778 42.3264C20.9689 42.172 20.9101 41.9294 20.7705 41.7897C20.2487 41.2676 19.8886 40.5985 19.7636 39.9293C19.5652 38.8925 19.1095 38.0101 18.5657 37.1498C18.3305 36.7748 18.0512 36.4366 18.0291 35.9733C17.9336 35.9071 17.8381 35.7674 17.7425 35.7748C16.3976 35.8557 15.692 34.885 14.9203 34.0468C14.7807 33.8924 14.5822 33.6644 14.8762 33.3923C15.2804 33.4806 15.4862 33.8556 15.7949 34.0982C15.9639 34.2306 16.1477 34.3262 16.3461 34.2306C16.5813 34.1129 16.4637 33.907 16.427 33.7159C16.2506 32.8629 15.3833 32.4217 15.1481 31.5981C15.1261 31.532 14.913 31.4511 14.8395 31.4879C14.1707 31.7967 14.0237 31.282 13.7738 30.8702C13.4872 30.3922 13.0903 29.9731 12.8625 29.4731C12.4435 28.5539 11.4367 28.2304 10.9295 27.3848C9.89326 25.6494 8.75409 23.9803 8.00445 22.0684C7.26215 20.1713 5.7702 18.708 4.68983 16.9947C4.4032 16.5388 3.84464 16.2815 3.63885 15.7373C4.52079 15.3108 4.52079 15.3182 4.08717 14.4579C4.03573 14.3549 4.05043 14.2226 4.04308 14.1049L3.98428 14.0755C3.90344 14.0535 3.84464 14.0093 3.80789 13.9432C3.80054 13.877 3.7638 13.8402 3.69765 13.8329C3.6462 13.8108 3.60946 13.774 3.58741 13.7299C3.51391 13.5608 3.38897 13.4358 3.21993 13.3623C2.9774 13.3623 2.74222 13.3549 2.62463 13.0902C2.21305 12.649 1.84558 12.1416 1.15473 12.1343C0.993039 12.149 0.824003 12.1269 0.677013 12.1784C-0.12408 12.4799 -0.197576 12.7372 0.368334 13.3623C0.662313 13.6858 0.970992 14.0093 1.30172 14.2961C1.80148 14.73 2.07342 15.23 1.80883 15.8844C1.66184 16.2594 1.80883 16.4874 2.03667 16.73C2.39679 17.105 2.60258 17.5977 2.99945 17.9506C3.33753 18.2521 3.55066 18.6492 3.57271 19.1051C3.60211 19.8919 4.01368 20.561 4.31501 21.2375C4.60164 21.8772 4.95441 22.6273 5.65261 22.8699C6.44636 23.1493 6.75504 23.7817 7.04167 24.4067C7.73252 25.8921 8.6218 27.2671 9.4082 28.701C9.59928 29.0539 10.1064 29.5025 9.62133 29.804C9.27591 30.0172 9.04807 29.4143 8.81289 29.1054C7.63697 27.5613 6.26262 26.1568 5.55707 24.2964C5.46153 24.0464 5.24104 23.8847 4.98381 24.0023C4.38115 24.2744 3.82994 24.1126 3.23463 23.9729C2.75692 23.8626 2.47764 24.2744 2.69812 24.7229C2.81571 24.9656 3.04355 25.1568 3.21258 25.3774C3.54331 25.7818 3.98428 26.1788 4.01368 26.6789C4.07982 27.7671 4.68983 28.4289 5.50562 28.9951C5.76286 28.8628 5.8731 28.3333 6.32141 28.8848C7.42384 30.2525 8.58506 31.5687 9.87121 32.7673C10.0403 32.9291 10.2313 33.1203 10.3048 33.3335C10.8193 34.8409 11.9732 35.9365 12.789 37.2527C13.2446 37.9881 13.8767 38.6425 14.6557 39.0763C15.7067 39.6572 16.3976 40.6499 16.5004 41.6941C16.6474 43.1647 17.3089 44.3192 17.9777 45.5251C18.72 46.8487 19.3741 48.209 20.0062 49.584C20.1237 49.8488 20.1972 50.0914 20.1017 50.3855C19.8077 51.2973 19.9253 52.1944 20.1899 53.0915L20.1825 53.0842Z" fill="#77693C"/>
<path d="M53.7181 30.9066C55.1659 31.3184 55.9303 32.1934 55.8494 33.7817C55.798 34.8111 56.4374 35.6715 56.7754 36.6127C56.8342 36.7744 56.9812 36.87 57.1576 36.8185C57.312 36.7671 57.4369 36.6421 57.4589 36.4729C57.5912 35.6641 57.5839 34.8553 57.1209 34.1567C56.9298 33.8626 56.893 33.7155 57.1503 33.4581C57.5104 33.0905 57.6206 32.5905 57.4957 32.1125C57.312 31.4066 57.3928 30.6639 57.2385 29.9801C57.0033 28.8992 57.018 27.8256 57.0621 26.752C57.0841 26.252 56.6946 25.7814 56.9739 25.1858C57.4148 25.4505 57.4883 25.8182 57.5251 26.2226C57.6133 27.1123 57.8485 27.9433 58.6128 28.5315C58.9288 28.7742 59.0023 29.1271 58.9656 29.5095C58.9288 29.9654 59.0538 30.3772 59.2155 30.7963C59.3698 31.2007 59.6711 31.2081 60.0019 31.0904C60.3105 30.9801 60.4502 30.7228 60.2738 30.4213C59.8622 29.7301 60.0239 29.1712 60.3105 28.4212C60.6119 27.6565 60.193 26.7079 60.0386 25.8476C59.9063 25.1049 59.6711 24.377 59.4874 23.6416C59.436 23.4431 59.4433 23.2225 59.6197 23.0828C59.7961 22.9504 59.9945 22.9946 60.1783 23.1196C60.7883 23.5314 61.3468 24.0093 61.2733 24.8329C61.2292 25.3329 61.729 25.7447 61.4497 26.2741C61.3836 26.4064 61.5894 26.5535 61.7363 26.6123C62.7432 27.0241 63.5958 27.6712 64.4704 28.3036C64.5585 28.3624 64.6982 28.4065 64.7937 28.3771C64.9775 28.3256 65.0142 28.1344 64.9775 27.9874C64.8672 27.5609 64.7129 27.1491 64.6026 26.7226C64.441 26.105 64.3087 25.4799 64.147 24.8623C64.0588 24.524 64.2499 24.4431 64.5218 24.4064C64.8819 24.3476 65.3964 24.5681 65.4552 23.9505C65.5066 23.4505 65.1686 23.3034 64.7276 23.1784C63.9632 22.9578 63.9338 22.1563 63.6399 21.5681C63.5443 21.3842 63.7501 21.2077 63.8971 21.0607C64.1837 20.7739 64.5218 20.7371 64.8966 20.8621C65.4993 21.068 65.5213 20.7666 65.367 20.3254C65.2127 19.8915 64.8158 19.5018 65.1612 18.965C65.9696 18.9724 66.5503 19.465 67.1529 19.9209C67.3367 20.0606 67.4983 20.3401 67.7482 20.1562C67.9908 19.9798 67.8511 19.715 67.7262 19.5092C67.5204 19.1709 67.2999 18.8327 67.0721 18.5091C66.5429 17.7665 66.0064 17.0311 65.4625 16.3032C65.1098 15.8326 64.9407 15.3178 65.0216 14.7296C65.0216 14.6561 65.0069 14.5899 64.9922 14.5237C64.9187 14.4355 64.8525 14.3546 64.779 14.2663C64.6982 14.2075 64.61 14.1487 64.5291 14.0899C63.9118 13.8619 63.2503 13.8399 62.6036 13.7663C61.729 13.6928 60.825 14.0016 59.9725 13.5898C58.7966 13.884 57.5986 13.9943 56.5035 14.6634C56.0184 14.9575 55.357 15.0531 54.8352 15.4281C54.4824 15.6855 54.0708 15.862 53.9459 16.3326C53.8871 16.5532 53.7328 16.6414 53.5123 16.6782C52.9537 16.7811 52.6744 17.1929 52.4686 17.6709C52.7406 18.2959 52.9023 18.9503 52.9317 19.6268C52.9464 19.9209 53.0713 20.3621 52.6524 20.4357C52.16 20.5239 52.3511 19.9798 52.1747 19.7592C52.1306 19.7003 52.0497 19.6709 51.9836 19.6195C51.6235 19.6489 51.4103 20.0459 51.0281 20.0459H51.0355C51.0355 20.3401 50.8885 20.5533 50.6607 20.7224C50.646 20.9577 50.5284 21.296 50.646 21.4136C51.2045 22.0239 51.0869 22.7446 51.0502 23.4358C50.9988 24.4799 51.572 25.3182 51.9468 26.2005C52.6009 27.7447 53.255 29.2815 53.7401 30.8919L53.7181 30.9066Z" fill="#D2A999"/>
<path d="M61.3028 60.4297C61.6336 59.6282 61.9716 58.8193 62.2656 58.0031C62.3832 57.6796 62.5155 57.4663 62.8683 57.3634C63.4709 57.1942 63.8605 56.7678 64.1765 56.2236C64.4705 55.7163 64.8085 55.2309 65.4259 55.0103C65.8448 54.8633 66.1682 54.5471 66.1976 54.0471C66.2711 54.0471 66.3519 54.0397 66.4254 54.0324C67.0501 53.9588 67.4617 54.4 67.9027 54.7089C68.2628 54.9589 68.5274 54.9957 68.8287 54.6648C69.1006 54.3633 69.4534 54.1574 69.8429 54.0691C70.3574 53.9515 70.6587 53.5765 70.9601 53.2235C71.673 52.3779 72.3565 51.5029 73.04 50.6352C73.1282 50.5176 73.1355 50.3411 73.1796 50.1867C74.6936 49.6205 76.0165 48.7307 77.3027 47.7675C77.6334 47.5175 77.7436 47.2454 77.7657 46.863C77.7951 46.363 77.9494 45.8556 78.4271 45.6644C79.0959 45.385 79.3605 44.8335 79.6471 44.26C79.9705 43.6203 80.4703 43.1129 81.1685 43.01C81.9769 42.8923 82.2342 42.4143 82.3371 41.7305C82.4767 40.804 82.9691 40.1201 83.7335 39.5981C84.292 39.2157 84.7991 38.8628 85.3724 39.5834C85.5929 39.8628 85.8648 39.7893 86.0926 39.554C86.2323 39.4142 86.4381 39.2892 86.4969 39.1128C87.0334 37.5098 88.4739 36.5539 89.3264 35.1715C89.5983 34.7376 89.9291 34.3332 90.1422 33.8552C90.3039 33.4876 90.5391 33.267 90.9653 33.3184C90.9212 33.5905 90.8404 33.8626 90.8331 34.142C90.8184 35.3185 90.4435 36.348 89.7159 37.2818C89.0692 38.1201 88.4739 38.9951 88.2166 40.054C88.055 40.7084 87.6875 41.2158 87.2171 41.7452C86.6659 42.3629 86.0485 42.9732 85.6884 43.8115C85.2034 44.9438 84.4464 45.9806 83.4248 46.7013C82.3224 47.488 81.4551 48.5028 80.4556 49.3852C79.2062 50.4955 78.1331 51.8117 76.7588 52.7823C74.9876 54.0397 73.7161 55.8192 72.0625 57.2016C70.6955 58.3413 69.4828 59.6429 68.3657 61.0326C67.6307 61.9517 66.9693 62.9665 66.1829 63.79C65.301 64.7092 64.4852 65.7166 63.515 66.5549C63.2504 66.4372 63.0961 66.2166 62.9418 65.9739C62.5081 65.2827 62.295 64.4813 61.8687 63.8048C61.391 63.0327 61.4057 61.9444 60.4209 61.5032C60.8839 61.2826 61.1191 60.8708 61.2955 60.4223L61.3028 60.4297ZM83.9098 42.2158C83.9686 42.2158 84.0274 42.1496 84.0862 42.1129C84.0274 42.0835 83.9613 42.0246 83.9025 42.032C83.8437 42.032 83.7849 42.0982 83.7335 42.1349C83.7923 42.1643 83.8584 42.2232 83.9172 42.2158H83.9098ZM84.0568 41.3408C84.0568 41.3408 83.9907 41.3628 83.9539 41.3702C83.9613 41.3996 83.976 41.4584 83.9833 41.4584C84.0201 41.4584 84.0495 41.4364 84.0862 41.429C84.0789 41.3996 84.0642 41.3408 84.0568 41.3408Z" fill="#6D6239"/>
<path d="M61.3469 117.895C63.1769 117.659 64.7644 116.748 66.4548 116.115C67.4249 115.748 68.4391 115.498 69.4534 115.27C70.4749 115.034 71.4892 114.777 72.5034 114.512C74.6788 113.953 76.8396 113.255 79.1032 113.056C79.2576 113.042 79.4193 113.005 79.5589 112.939C80.9186 112.306 82.4105 112.093 83.7922 111.571C84.6521 111.247 85.5487 110.917 86.4013 110.512C87.3053 110.078 88.2313 109.652 89.1426 109.211C89.9731 108.806 90.7522 108.35 91.5018 107.799C92.1633 107.314 93.0232 107.049 93.7214 106.556C93.3024 106.564 92.8762 106.571 92.4572 106.578C91.3475 106.431 90.3406 106.887 89.3264 107.211C87.511 107.792 85.7104 108.394 83.7996 108.475C83.241 108.497 82.6677 108.828 82.0945 108.505C81.8519 108.505 81.6168 108.505 81.3742 108.505C81.3448 108.769 81.2052 108.909 80.9333 108.983C79.5222 109.387 78.0743 109.674 76.6779 110.159C76.0091 110.395 75.3256 110.556 74.6421 110.027C74.3555 109.799 73.8631 109.917 73.4662 109.99C73.0767 110.056 72.6945 110.181 72.305 110.277C71.3054 110.52 70.328 110.814 69.3652 110.071C68.9463 109.747 68.1305 110.093 67.8953 110.652C67.7483 111.02 67.5572 111.108 67.2118 111.167C66.0873 111.365 64.9555 111.564 63.8531 111.85C63.1916 112.02 62.5375 112.174 61.854 112.137C61.7879 112.689 61.4718 112.99 60.9353 113.093C60.3915 113.196 59.8696 113.402 59.289 113.343C58.2381 113.24 57.312 113.784 56.8049 114.512C56.0406 115.615 54.8793 116.005 53.8798 116.674C52.3879 117.667 50.5799 118.057 49.1026 119.108C48.7646 119.343 48.3603 119.417 47.9561 119.365C46.8831 119.226 46.0232 119.755 45.178 120.292C44.4651 120.74 44.4872 120.77 44.0168 120.093C43.7081 120.101 43.5464 120.262 43.5317 120.571C44.0976 121.204 44.6489 121.755 45.6557 121.373C45.9497 121.263 46.3392 121.446 46.7214 121.16C47.765 120.38 48.9042 119.748 50.2933 119.851C50.2933 119.74 50.2933 119.63 50.3006 119.512C50.3153 119.365 50.3668 119.167 50.5431 119.24C50.7195 119.314 50.5431 119.483 50.5284 119.615C50.8886 119.579 51.3516 120.071 51.5941 119.549C51.9322 118.836 52.7186 118.711 53.1596 118.174C53.1669 117.976 53.211 117.799 53.4094 117.696C53.7622 117.674 54.115 117.652 54.4604 117.637C54.3208 117.233 54.5707 117.204 54.8646 117.211C54.9014 117.093 54.9381 117.071 54.9528 117.152C54.9528 117.159 54.8867 117.189 54.8573 117.204C54.8573 117.284 54.8426 117.365 54.8352 117.446C55.313 117.446 55.7833 117.446 56.2463 117.277C56.6138 117.137 56.9445 117.211 57.0327 117.711C57.0989 118.101 57.2826 118.248 57.5105 117.792C57.6501 117.498 57.8338 117.534 58.0984 117.601C58.6717 117.755 59.4066 117.534 59.6859 118.351C59.708 118.409 59.9799 118.387 60.1416 118.402C60.2371 118.292 60.3253 118.182 60.4209 118.064C60.7001 117.865 61.0309 117.954 61.3322 117.924L61.3469 117.895Z" fill="#726A3F"/>
<path d="M48.8602 82.4674C48.4633 82.9674 48.037 83.4233 47.721 84.0115C47.111 85.1439 46.4863 86.2763 45.8616 87.394C45.3986 88.2323 44.7445 89.0852 44.7004 90.2176C44.6783 90.725 44.6195 91.3868 44.3108 91.9089C43.8846 92.6368 43.6347 93.4236 43.5098 94.2545C43.3922 95.0487 43.1496 95.7914 42.6278 96.4311C42.1575 97.0193 41.9149 97.7547 41.8488 98.4753C41.7312 99.8062 41.6209 101.137 41.3343 102.446C40.9374 102.983 41.1653 103.593 41.1506 104.167C41.1506 104.328 41.1432 104.49 41.1359 104.659C40.9227 104.799 40.9154 104.953 41.1065 105.123C41.0844 105.439 41.055 105.755 41.033 106.071C40.4597 106.424 40.7464 107.012 40.6361 107.498C40.6141 107.667 40.5994 107.836 40.5773 108.005C40.298 108.079 39.96 107.961 39.7395 108.248C39.1221 109.086 39.1295 110.042 39.2912 110.998C39.3426 111.285 39.4308 111.527 39.2103 111.777C38.6811 112.365 38.7179 113.093 38.7326 113.814C38.6958 113.836 38.637 113.858 38.637 113.865C38.6517 113.946 38.6885 113.924 38.7326 113.807C39.0633 113.836 39.4308 113.696 39.688 114.027C39.6733 114.535 39.9012 115.064 39.5263 115.527C39.4675 115.571 39.4381 115.63 39.4528 115.711C39.4969 116.204 39.5263 116.696 39.4381 117.182C39.2691 117.16 39.1662 116.77 39.0339 116.969C38.8722 117.233 38.9457 117.571 39.3426 117.689C39.6954 118.255 39.394 118.755 39.1809 119.263C39.1074 119.439 38.9163 119.601 38.7032 119.535C38.5783 119.491 38.4386 119.329 38.4019 119.197C38.2916 118.822 38.3357 118.395 38.027 118.079C37.9829 117.895 37.8433 117.844 37.6743 117.851C37.6449 117.704 37.6228 117.557 37.5934 117.41C38.027 116.969 38.1667 116.373 37.9682 115.858C37.395 114.41 37.5861 112.865 37.2627 111.395C37.2994 111.255 37.3362 111.115 37.3729 110.968C37.5567 111.115 37.7184 111.152 37.7551 110.858C37.7845 110.623 37.6963 110.409 37.5346 110.233C37.8433 109.079 37.9682 107.909 38.0858 106.718C38.2843 104.748 38.3945 102.777 38.4607 100.792C38.4607 100.6 38.5783 100.417 38.6297 100.225C39.1221 98.3429 39.5557 96.4458 39.4675 94.4825C39.4455 94.0192 39.6586 93.6295 39.7468 93.2104C40.129 91.4236 39.8938 89.5779 40.3421 87.7985C40.592 86.8205 40.6435 85.7763 40.8786 84.8204C41.18 83.5777 41.7606 82.3791 42.3559 81.21C42.9659 80.0114 43.789 78.9379 44.2521 77.6584C44.7224 77.5408 44.9503 77.8496 45.2295 78.1584C45.9792 78.9893 47.0081 79.482 47.9856 79.9305C48.6029 80.2173 49.2497 80.4747 49.8524 80.8203C49.7495 81.5115 49.2497 81.96 48.8381 82.46L48.8602 82.4674ZM39.1295 114.689C39.0633 114.498 38.9163 114.343 38.6885 114.402C38.5636 114.432 38.5489 114.579 38.593 114.696C38.6591 114.866 38.7105 115.057 38.8796 115.108C39.0927 114.991 39.1809 114.851 39.1221 114.689H39.1295Z" fill="#70663C"/>
<path d="M59.9652 13.6048C60.8178 14.0166 61.7218 13.7077 62.5964 13.7813C62.1774 13.1121 62.273 12.3106 62.0525 11.5827C61.7879 10.6782 61.4131 9.8179 61.1118 8.93552C60.8104 8.04579 59.9652 7.6046 59.5537 6.81781C58.9437 5.66336 57.878 4.92804 56.9152 4.11183C55.8642 3.2221 54.8353 2.18531 53.6594 1.5897C51.6824 0.582311 49.5657 -0.366251 47.1918 0.141119C46.9199 0.199945 46.5818 0.251412 46.4201 0.435242C45.6338 1.30292 44.5681 1.82499 43.8258 2.81032C42.694 4.30301 41.6577 5.85454 40.6435 7.41342C40.004 8.39139 39.1809 9.31053 38.9237 10.5091C38.8134 11.0312 38.3651 11.3327 38.1961 11.8547C37.5199 13.9357 36.807 16.0019 36.0574 18.0535C35.5503 19.4432 35.146 20.8109 34.9917 22.2668C35.2269 22.2374 35.587 22.2227 35.5576 21.9507C35.4327 20.583 36.4689 19.6932 36.9173 18.5682C37.1524 17.9652 37.5273 17.3696 37.8066 16.7667C38.3578 15.5902 39.4675 14.7519 39.8056 13.4577C39.8571 13.2445 40.0555 13.1415 40.2613 13.1195C40.5773 13.0827 40.9007 13.0827 41.2167 13.068C41.2167 13.0165 41.2167 12.9724 41.1726 12.9357C41.1432 12.5827 41.2902 12.3768 41.665 12.3915L41.643 12.3989C41.7165 12.3106 41.79 12.215 41.8635 12.1268C42.3559 11.4356 42.8997 10.7738 43.1129 9.92821C43.1937 9.61937 43.2011 9.29583 43.6347 9.22229C43.9213 9.17082 43.8772 8.83993 43.9875 8.6414C44.8106 7.0384 45.8616 5.60453 47.1477 4.32507C47.4564 4.01624 47.5079 3.40592 48.037 3.30298C48.7867 3.15592 49.5731 3.2221 50.2492 3.52358C51.6383 4.14124 53.0861 4.62656 54.2988 5.6413C55.4233 6.58251 56.5698 7.47959 57.5767 8.56786C58.4659 9.51642 58.9069 10.6562 59.3185 11.818C59.5316 12.4136 59.7521 13.0165 59.9726 13.6195L59.9652 13.6048Z" fill="#8D9398"/>
<path d="M74.2233 101.784C74.3115 102.328 74.2012 102.608 73.8117 102.88C72.7975 103.571 71.8126 104.292 70.7617 104.924C70.3354 105.181 69.8136 105.365 69.571 105.865C68.7993 105.975 68.2849 106.439 67.8807 107.071C66.227 108.02 64.566 108.968 62.9124 109.924C62.7066 110.042 62.4935 110.174 62.3391 110.343C61.6483 111.086 60.8546 111.395 59.8624 111.02C59.686 110.954 59.561 111.034 59.4508 111.174C59.0172 111.181 58.5762 111.137 58.1499 111.321C57.8119 111.468 57.2239 111.542 57.121 111.351C56.5992 110.373 55.9965 111.123 55.4453 111.204C54.8353 111.292 54.2694 111.718 53.608 111.483C53.1229 112.093 52.2557 112.071 51.7338 112.674C51.2855 113.189 50.7417 113.645 50.0361 113.829C49.9626 113.829 49.8891 113.829 49.8083 113.829C49.7274 113.659 49.6466 113.659 49.5584 113.829C49.3747 113.932 49.3306 114.101 49.3526 114.292C49.0954 114.476 48.8381 114.667 48.5001 114.917C48.2575 114.505 48.162 114.115 48.2796 113.63C48.3457 113.365 48.0958 113.13 47.8386 113.321C47.4858 113.579 47.0963 113.586 46.7068 113.63L46.6333 113.549C46.795 112.777 47.5299 112.593 48.0591 112.24C49.6245 111.181 51.2414 110.196 52.8289 109.159C54.5119 108.064 56.0994 106.814 57.9809 106.064C59.5169 105.446 61.0383 104.814 62.5008 104.019C63.0594 103.718 63.5518 103.314 64.1324 103.041C66.4769 101.924 68.9684 101.299 71.504 100.836L71.5701 100.88C71.6362 101.027 71.673 100.938 71.7024 100.858L71.7685 100.791C71.7685 100.791 71.8273 100.725 71.8641 100.688C71.842 100.681 71.8126 100.666 71.7906 100.659L71.7465 100.593C71.9743 100.122 72.3859 100.416 72.7166 100.365C73.3487 100.711 74.0689 100.872 74.2306 101.814L74.2233 101.784ZM49.5069 113.204C49.5657 113.24 49.6319 113.299 49.6907 113.299C49.7495 113.299 49.8156 113.24 49.8744 113.204C49.8156 113.167 49.7495 113.137 49.6907 113.101C49.6319 113.137 49.5657 113.167 49.5069 113.204ZM54.2106 110.88C54.2106 110.88 54.2327 110.946 54.24 110.983C54.2694 110.976 54.3282 110.961 54.3282 110.954C54.3282 110.917 54.3062 110.887 54.2988 110.851C54.2694 110.858 54.2106 110.873 54.2106 110.88Z" fill="#966E52"/>
<path d="M54.8501 117.417C55.3279 117.417 55.7982 117.417 56.2612 117.248C56.6287 117.108 56.9594 117.182 57.0476 117.682C57.1138 118.072 57.2975 118.219 57.5254 117.763C57.665 117.469 57.8487 117.505 58.1133 117.572C58.6866 117.726 59.4215 117.505 59.7008 118.322C59.7229 118.38 59.9948 118.358 60.1565 118.373C59.6126 118.653 59.0393 118.873 58.444 119.028C58.4587 118.91 58.4734 118.8 58.4734 118.682C58.4734 118.432 58.4293 118.211 58.1133 118.204C58.0472 118.204 57.9443 118.248 57.9222 118.3C57.8267 118.535 58.0398 118.623 58.1574 118.763C58.2309 118.851 58.2897 118.954 58.3558 119.05C57.9369 119.528 57.3049 119.358 56.7904 119.528C56.004 119.785 55.3646 120.285 54.5856 120.572C53.3435 121.028 52.1308 121.682 51.0578 122.462C50.1465 123.123 49.1763 123.645 48.2136 124.197C47.2655 124.748 46.2733 125.278 45.5604 126.145C45.3546 126.395 45.1635 126.528 44.8769 126.668C42.8411 127.675 41.3418 129.278 40.1071 131.146C39.7029 131.756 39.1076 132.293 39.181 133.131C39.181 133.175 39.0929 133.249 39.0267 133.285C38.4828 133.602 38.1815 134.153 37.8287 134.631C37.5862 134.962 37.3143 135.006 37.0129 134.947C35.6165 134.69 35.0065 133.219 35.8444 132.087C36.2339 131.557 36.4691 131.006 36.6381 130.381C37.0717 128.815 37.5495 127.27 38.255 125.778C38.7915 124.638 39.3868 123.557 40.0262 122.484C40.0777 122.41 40.1291 122.329 40.1806 122.256C40.1953 121.719 40.5334 121.3 40.6877 120.814C41.452 120.594 41.4079 119.976 41.3859 119.373C41.4153 119.263 41.4447 119.145 41.4667 119.035C41.6799 119.153 41.8048 119.329 41.8489 119.579C42.04 120.55 42.0473 120.55 42.9587 120.564C43.1498 120.564 43.3482 120.564 43.5393 120.564C44.1052 121.197 44.6564 121.748 45.6633 121.366C45.9573 121.256 46.3468 121.439 46.729 121.153C47.7726 120.373 48.9118 119.741 50.3008 119.844C50.3817 119.763 50.4552 119.689 50.536 119.608C50.8961 119.572 51.3591 120.064 51.6017 119.542C51.9398 118.829 52.7261 118.704 53.1671 118.167C53.3876 118.079 53.417 117.895 53.417 117.689C53.7698 117.667 54.1225 117.653 54.468 117.63C54.6297 117.63 54.7546 117.579 54.8428 117.439L54.8501 117.417ZM41.6799 123.079C41.6358 123.057 41.5476 123.131 41.4814 123.16C41.5108 123.226 41.5255 123.329 41.577 123.351C41.6284 123.373 41.7093 123.3 41.7754 123.27C41.746 123.204 41.7313 123.101 41.6799 123.079Z" fill="#70663C"/>
<path d="M34.4771 113.535C34.4404 113.865 34.411 114.196 34.3742 114.527C33.8451 114.542 33.3894 114.601 33.5364 115.336C33.5878 115.601 33.3747 115.873 33.4776 116.196C33.7422 116.432 34.0582 116.138 34.3448 116.218C34.4551 119.182 34.6388 122.145 34.6241 125.101C34.6241 126.086 34.7932 127.057 34.7564 128.02C34.6682 130.373 34.7564 132.719 34.6976 135.065C34.6535 136.653 34.6976 138.241 34.6682 139.83C34.6535 140.484 34.3228 140.69 33.7422 140.477C33.2351 140.285 32.8382 140.028 32.897 139.352C32.9484 138.675 32.9778 137.977 32.8529 137.315C32.5589 135.734 32.309 134.153 32.14 132.543C31.824 129.572 31.8534 126.601 31.7137 123.63C31.5888 121.02 31.8901 118.388 31.4859 115.785C31.4491 114.983 31.8019 114.138 31.2507 113.38C31.0743 113.211 31.0743 113.02 31.1846 112.814C31.3021 112.682 31.3021 112.549 31.1993 112.41C31.1405 112.005 31.0817 111.601 31.0155 111.196V111.24C30.8465 111.079 30.8391 110.865 30.8244 110.652C31.0449 110.505 31.0449 110.358 30.8244 110.211C30.5745 109.748 30.5378 109.24 30.5745 108.733C30.8024 108.314 30.6921 107.851 30.7656 107.409C30.8244 107.034 30.6701 106.718 30.2806 106.578C29.9498 106.248 30.1042 105.828 30.0968 105.446C30.0674 104.453 30.0674 103.468 30.0527 102.475C30.0821 101.917 30.1042 101.35 30.1336 100.792C30.2879 100.821 30.4717 100.806 30.5966 100.887C30.7877 101.019 31.1111 101.262 31.0817 101.372C30.7583 102.417 32.2208 102.674 32.0224 103.718C31.8681 104.556 31.9856 105.453 32.0665 106.314C32.1106 106.799 32.1841 107.395 32.9484 107.306C33.0072 107.328 33.0587 107.358 33.1175 107.38C33.1983 107.203 33.0807 107.13 32.9558 107.064C33.0366 106.821 32.6765 106.578 32.9558 106.343C33.2718 106.424 33.5952 106.505 33.9112 106.586C33.9259 107.071 33.9333 107.549 33.948 108.034C33.6834 107.983 33.4188 107.931 33.1616 107.88C32.8602 108.196 33.3967 108.601 33.0293 108.873C32.7206 109.108 32.3384 108.968 31.993 109.005C31.9709 108.968 31.9489 108.909 31.9342 108.909C31.8534 108.924 31.8754 108.968 31.9856 109.005C32.3458 110.012 32.4119 110.064 33.3527 110.079C33.7716 110.079 34.0729 110.446 33.823 110.762C33.36 111.343 33.6319 111.858 33.7642 112.41C33.9921 112.358 34.1317 112.093 34.3963 112.137C34.4698 112.432 34.5359 112.733 34.6094 113.027C34.5653 113.145 34.5286 113.255 34.4845 113.373C34.4183 113.432 34.4183 113.49 34.4771 113.549V113.535ZM33.0513 111.674C32.8308 112.057 32.8749 112.351 33.0293 112.873C33.2865 112.358 33.2498 112.071 33.0513 111.674Z" fill="#726A3F"/>
<path d="M70.512 106.174C70.7987 106.806 71.3499 106.667 71.7247 106.424C72.3788 106.005 73.1358 105.887 73.7972 105.549C75.4068 104.718 76.8252 103.652 77.935 102.203C78.1775 101.887 78.4862 101.63 78.7581 101.328C78.9639 101.1 79.0227 100.806 78.8831 100.549C78.6993 100.218 78.4127 100.372 78.1481 100.468C77.9203 100.541 77.6851 100.593 77.4426 100.659C77.1339 100.291 77.3176 99.8869 77.2882 99.5045C78.4421 99.1221 79.6254 99.1001 80.838 99.1442C81.5436 99.1663 82.2638 99.1663 82.9767 99.1442C84.3584 99.1075 85.8137 98.9089 87.1219 99.4016C88.7534 100.012 90.4365 100.38 92.1122 100.784C93.8393 101.203 95.2871 102.144 96.7717 103.034C96.9996 103.174 96.9775 103.313 96.9555 103.519C96.882 104.269 96.2205 104.49 95.7575 104.887C95.6914 104.902 95.6399 104.946 95.6105 104.997C95.537 105.049 95.4709 105.1 95.3974 105.159C95.0519 105.13 94.8682 105.269 94.8682 105.63C94.5228 105.608 94.3097 105.416 94.1259 105.13C93.6776 104.438 93.6629 104.446 92.7957 104.872C92.9353 105.284 93.5086 104.821 93.6335 105.314C93.707 105.6 93.8393 105.916 94.1259 106.1C94.0818 106.343 94.0377 106.586 93.707 106.556C93.2881 106.564 92.8618 106.571 92.4429 106.578C92.3988 106.144 92.2297 105.74 92.1783 105.299C92.0901 104.622 91.6712 104.38 90.9877 104.556C90.5467 104.666 90.1131 104.644 89.6795 104.652C89.4369 104.652 89.165 104.622 89.143 104.314C89.1209 103.997 89.4296 103.997 89.628 103.88C90.0837 103.622 90.6423 103.777 91.3111 103.527C90.6423 103.086 90.1131 103.152 89.6133 103.321C88.4742 103.696 87.3276 104.034 86.1003 103.938C85.7108 103.909 85.3947 104.041 85.2183 104.424C84.4393 104.711 83.6235 104.674 82.8077 104.659C83.3883 104.144 84.1012 103.887 84.8141 103.63C84.9685 103.571 85.1081 103.446 85.1008 103.277C85.1008 103.019 84.8803 102.975 84.6745 102.983C83.8146 102.997 82.962 102.828 82.2271 103.608C81.7273 104.144 80.8527 104.159 80.1545 104.438C79.7136 104.622 79.3608 104.828 79.4343 105.38C79.3535 105.38 79.2726 105.38 79.1918 105.38C78.8096 105.424 78.3025 105.211 78.2216 105.858C77.3764 106.225 76.4504 106.306 75.5758 106.586C74.5836 106.88 73.5841 107.049 72.5331 107.108C71.5189 107.167 70.4973 107.49 69.5345 107.85C68.8069 108.122 68.4248 107.924 68.1087 107.321C68.0573 107.218 67.9471 107.144 67.8662 107.064C68.2704 106.439 68.7849 105.968 69.5566 105.858C69.8947 105.902 70.2989 105.733 70.5047 106.181L70.512 106.174ZM94.4493 103.497C94.6183 103.74 94.8756 103.556 95.0813 103.438C95.2798 103.328 95.3606 103.152 95.2651 102.938C95.1989 102.784 95.0152 102.696 94.8756 102.769C94.5228 102.968 94.1333 102.813 93.7437 102.813C93.8319 103.299 94.2729 103.225 94.4566 103.49L94.4493 103.497ZM93.7217 103.938C93.7437 104.027 93.7952 104.034 93.8466 103.961C93.8613 103.938 93.8466 103.894 93.8319 103.872C93.8172 103.858 93.7805 103.858 93.7584 103.858C93.7437 103.887 93.7217 103.916 93.729 103.938H93.7217Z" fill="#77693C"/>
<path d="M63.118 72.5552C62.6991 72.8641 62.8387 73.2391 62.9637 73.6362C63.1107 74.0994 63.2577 74.82 62.9416 74.9965C62.2361 75.3936 61.9127 76.298 61.0822 76.4083C60.3399 76.5039 60.1562 76.8863 60.1415 77.5333C60.1415 77.8422 60.0092 78.1584 59.9283 78.4598C59.4359 80.357 58.87 80.4084 57.334 79.6143C57.0694 79.4819 56.8636 79.3128 56.7975 79.0113C56.6872 78.4746 56.2316 78.2907 55.8347 78.0113C55.1953 77.5628 54.4383 77.276 53.8944 76.6951C54.0414 76.401 54.2031 76.1362 53.7768 75.9009C53.4682 75.7318 53.2109 75.4671 52.9316 75.2539C53.0272 75.195 53.1521 75.0627 53.2183 75.0921C53.7989 75.3053 53.8356 75.0112 53.9238 74.5259C54.0414 73.842 53.4755 73.4376 53.4167 72.8494C54.5412 72.6582 55.4084 73.0479 56.1066 73.9523C56.3271 74.2391 56.6652 74.7391 57.0547 74.4303C57.4516 74.1068 56.9518 73.7538 56.7754 73.4303C56.452 72.8347 56.114 72.2685 55.4158 72.0184C55.1806 71.9302 55.1218 71.6655 55.1071 71.4155C56.5108 71.1949 57.9072 71.842 59.4139 71.5699C59.0464 70.7096 58.7451 69.9816 58.2306 69.3787C57.1723 68.136 56.0919 66.908 55.0262 65.6726C54.622 65.2094 54.2619 64.7241 54.2766 64.0182C54.9968 64.1138 54.916 65.1506 55.673 65.0329C55.82 64.7682 55.6142 64.6506 55.5334 64.4814C55.2173 63.8417 54.7249 63.2902 54.5412 62.5843C54.5044 62.4373 54.4015 62.2755 54.5559 62.1431C54.7396 61.9887 54.9454 62.0475 55.0997 62.1799C55.2761 62.3343 55.4525 62.5108 55.5701 62.7167C55.7685 63.077 56.0699 63.3417 56.3565 63.6211C56.6211 63.8785 56.9151 64.1359 57.2605 63.7167C57.5545 63.3564 57.4663 63.1064 57.0694 62.849C56.7681 62.6505 56.3932 62.4225 56.4079 61.9961C56.6284 61.8049 56.7534 61.9152 56.8783 62.0108C57.4148 62.4226 57.8999 62.9961 58.5026 63.2093C59.9137 63.7094 60.5972 64.8565 61.3541 65.9815C61.5746 66.3124 61.6187 66.6139 61.5452 66.9962C61.2439 68.4889 61.9495 70.0625 63.2944 70.9523C63.0078 71.4743 62.9931 72.0258 63.118 72.592V72.5552ZM61.3395 73.2097C61.3101 72.9744 61.119 72.82 60.9205 72.9008C59.943 73.3053 59.0464 72.8347 58.1204 72.6655C57.9293 72.6288 57.6941 72.5626 57.6353 72.8347C57.5839 73.07 57.7676 73.2244 57.9587 73.2611C58.3262 73.3273 58.6569 73.32 58.3482 73.8567C58.2453 74.0332 58.5834 74.2391 58.7377 74.4156C58.995 74.7097 59.2889 74.9597 59.458 75.3494C59.7593 76.048 59.8108 76.0112 60.4722 75.5553C61.0602 75.1509 61.5893 74.7465 61.3909 74.0847C61.3688 73.6803 61.3688 73.4376 61.3321 73.2023L61.3395 73.2097Z" fill="#DEC2AE"/>
<path d="M66.9474 16.112C66.9989 16.3179 67.1091 16.465 67.2561 16.6047C68.0351 17.318 68.5202 18.2298 68.7701 19.2224C69.0273 20.2298 69.6594 20.9431 70.2914 21.6858C70.5266 21.9578 70.9382 22.2225 70.9455 22.5093C70.9749 23.4358 71.6878 23.8476 72.1803 24.4285C72.0039 24.5682 71.9671 24.752 72.0259 24.9653C72.1876 25.5535 72.5257 26.0168 72.9299 26.48C73.731 27.4139 74.319 28.458 73.562 29.7228C73.3856 30.0243 73.4003 30.3331 73.5252 30.6419C73.6796 31.0317 73.5032 31.267 73.1357 31.3552C72.7462 31.4434 72.4154 31.3258 72.2685 30.9214C72.2244 30.8111 72.2244 30.6861 72.2244 30.5684C72.2244 29.9581 71.9157 29.7007 71.3277 29.7081C70.85 29.7154 70.6001 29.4581 70.5046 29.0022C70.4384 28.6933 70.3502 28.3845 70.262 28.0757C70.1959 27.833 70.071 27.583 69.7843 27.6639C69.5491 27.7301 69.5712 27.9801 69.6594 28.1639C69.8358 28.5316 69.7623 28.8404 69.5785 29.186C69.2993 29.7154 68.9538 28.8036 68.6672 29.2963C69.1964 30.5831 69.2552 32.0611 70.1738 33.2376C70.4384 33.5759 70.1591 33.9362 69.8946 34.1788C69.6961 34.3553 69.3434 34.3332 69.1964 34.6053C68.9318 35.0906 68.6746 34.8774 68.3365 34.6568C67.1165 33.87 67.2782 32.5244 66.9474 31.3773C66.918 31.289 66.9915 31.0978 67.065 31.0611C67.9984 30.5611 67.381 30.0096 67.0797 29.5316C66.8813 29.2228 66.6608 28.9581 66.6828 28.5683C66.6975 28.2742 66.5947 28.0021 66.4183 27.7889C65.5804 26.7742 64.9631 25.6418 64.5147 24.4138C64.8749 24.355 65.3893 24.5756 65.4481 23.9579C65.4996 23.4579 65.1615 23.3108 64.7205 23.1858C63.9562 22.9652 63.9268 22.1637 63.6328 21.5755C63.5373 21.3916 63.743 21.2151 63.89 21.0681C64.1767 20.7813 64.5147 20.7445 64.8896 20.8695C65.4922 21.0754 65.5143 20.774 65.3599 20.3328C65.2056 19.8989 64.8087 19.5092 65.1542 18.9724C65.9626 18.9798 66.5432 19.4724 67.1459 19.9283C67.3296 20.0681 67.4913 20.3475 67.7412 20.1636C67.9837 19.9872 67.8441 19.7225 67.7191 19.5166C67.5133 19.1783 67.2928 18.8401 67.065 18.5165C66.5359 17.7739 65.9993 17.0385 65.4555 16.3106C65.1027 15.84 64.9337 15.3252 65.0145 14.737C66.0214 14.6855 66.6902 15.1194 66.9548 16.112H66.9474ZM72.1141 27.9212C72.3787 27.8477 72.6947 27.7301 72.6506 27.3771C72.5845 26.855 72.1803 26.8036 71.754 26.8256C71.4894 26.8403 71.2836 26.9286 71.291 27.2227C71.3277 27.6198 71.776 28.0168 72.1141 27.9212Z" fill="#D8B8A0"/>
<path d="M75.2817 46.9737C75.9358 46.3707 75.9652 46.4075 75.5904 45.6133C75.5904 45.1354 75.5904 44.6501 75.5904 44.1721C75.9505 44.1721 76.3106 44.1574 76.6708 44.1721C77.1411 44.1868 77.391 43.9295 77.5895 43.5324C77.8246 43.0544 77.4351 43.0177 77.1926 42.8486C77.1191 42.7971 77.075 42.6353 77.0897 42.5324C77.1485 42.2162 78.1333 41.7456 78.4126 41.9588C79.0961 42.4735 79.3019 41.775 79.5077 41.4809C79.8163 41.0397 79.3607 40.8852 79.0079 40.7676C78.9344 40.7455 78.883 40.6794 78.8095 40.6279C78.7727 40.194 79.1549 40.0249 79.3827 39.7749C79.8604 39.2455 80.4998 38.8778 80.7865 38.1719C80.8894 37.9219 81.1466 37.7454 81.4406 37.6866C81.6684 37.6425 81.9477 37.6646 82.0432 37.3778C82.249 36.7822 82.6312 36.966 82.9987 37.1645C83.3514 37.3484 83.6307 37.4366 83.8953 36.9881C84.1452 36.5542 84.6229 36.3998 85.0712 36.2086C85.5416 36.0101 84.9389 35.9145 84.983 35.738C85.0859 35.6792 85.2109 35.5174 85.1521 35.4954C84.8801 35.3704 85.0345 35.6498 84.9683 35.7307C84.4759 36.0322 83.9762 36.216 83.3661 36.1866C82.9252 36.1645 82.8296 35.9954 82.8076 35.6277C82.7708 35.0909 83.131 34.7453 83.4323 34.4071C83.6601 34.1497 84.0202 33.9953 84.0129 33.5762C84.1084 33.4512 84.1893 33.2894 84.3142 33.2085C85.6298 32.3408 87.0335 31.6202 88.3197 30.6937C88.8342 30.3261 90.0174 30.4437 90.3555 30.8996C90.8773 31.5982 91.2448 32.3997 90.9435 33.3262C90.5172 33.2747 90.282 33.4953 90.1203 33.863C89.9072 34.3409 89.5765 34.7454 89.3045 35.1792C88.452 36.5616 87.0188 37.5175 86.475 39.1205C86.4162 39.2896 86.2104 39.4146 86.0708 39.5617C85.8429 39.797 85.571 39.8705 85.3505 39.5911C84.7846 38.8705 84.2701 39.2308 83.7116 39.6058C82.9472 40.1279 82.4548 40.8117 82.3152 41.7382C82.2123 42.4147 81.955 42.9 81.1466 43.0177C80.4484 43.1133 79.9486 43.6206 79.6253 44.2677C79.3386 44.8413 79.074 45.3928 78.4052 45.6722C77.9349 45.8707 77.7732 46.3781 77.7438 46.8707C77.7217 47.2531 77.6188 47.5252 77.2808 47.7752C75.9946 48.7384 74.6717 49.6282 73.1577 50.1944C73.3268 48.7752 74.2895 47.8634 75.2597 46.9737H75.2817ZM88.3711 33.9659C88.4961 33.988 88.5916 33.7674 88.5402 33.5909C88.5034 33.4732 88.4079 33.3335 88.2976 33.3777C87.6803 33.6424 86.8645 33.0909 86.328 33.9071C87.0409 34.4292 87.7097 33.8482 88.3711 33.9659ZM81.7125 38.216C81.7419 38.1793 81.7713 38.1425 81.8007 38.0984C81.7713 38.0837 81.7419 38.0543 81.7272 38.0616C81.7052 38.069 81.6905 38.1058 81.6758 38.1352C81.6905 38.1646 81.6978 38.1866 81.7125 38.216Z" fill="#77693C"/>
<path d="M75.5905 45.6132C75.5905 45.1353 75.5905 44.65 75.5905 44.172C75.5905 43.4955 76.421 43.6279 76.6121 43.1352C74.9438 42.1793 74.2896 42.2602 72.9594 43.5176C72.4082 44.0323 71.8202 44.5103 71.2249 44.9809C70.9824 45.1721 70.5782 45.4809 70.3797 45.2971C69.7844 44.7603 69.1671 45.2309 68.5791 45.1132C67.5355 46.0324 66.5653 47.0177 65.7202 48.1207C65.7202 48.4516 65.6246 48.7678 65.4335 49.0251C64.3752 50.4737 63.4492 52.0252 62.2071 53.3267C62.016 53.5253 61.6632 53.8488 61.7147 53.9591C62.0528 54.665 61.2958 55.0106 61.1929 55.5915C62.0087 55.9151 62.5819 55.4297 63.0743 55.04C63.7578 54.5032 64.3384 53.8194 64.9264 53.165C65.2424 52.812 65.485 52.3855 65.7716 52.0032C65.9553 51.7531 66.1758 51.334 66.4918 51.5326C66.8667 51.7605 66.5212 52.0841 66.3449 52.3414C66.1685 52.6061 65.9553 52.8561 65.823 53.1503C65.6393 53.5473 65.5879 53.9444 66.1905 54.0473C66.264 54.0473 66.3449 54.04 66.4184 54.0326C66.7785 52.9076 67.5134 52.0179 68.2557 51.1502C68.9025 50.3928 69.6742 49.7457 70.3577 49.0178C71.4601 47.8339 72.7316 46.8927 74.1794 46.1941C74.6351 45.9735 74.9878 45.5029 75.5758 45.6132H75.5905Z" fill="#966E52"/>
<path d="M66.1978 54.0546C65.5952 53.9516 65.6466 53.5546 65.8303 53.1575C65.9626 52.8707 66.1684 52.6134 66.3522 52.3487C66.5285 52.0913 66.874 51.7678 66.4991 51.5398C66.1831 51.3413 65.9626 51.7678 65.7789 52.0104C65.4923 52.3928 65.2571 52.8193 64.9337 53.1722C64.3457 53.8266 63.7651 54.5105 63.0816 55.0473C62.5892 55.437 62.016 55.9223 61.2002 55.5988C61.2957 55.0179 62.0527 54.6723 61.722 53.9664C61.6705 53.8561 62.0233 53.5325 62.2144 53.334C63.4638 52.0251 64.3898 50.481 65.4408 49.0324C65.6319 48.775 65.7274 48.4588 65.7274 48.1279C64.7059 48.8632 63.7431 49.65 62.9052 50.5986C62.5525 50.9957 62.1115 51.3045 61.6338 51.5986C60.8253 52.0986 60.1859 52.8781 59.4951 53.5546C58.2089 54.8046 57.1653 56.2679 56.0335 57.643C55.7395 58.0033 55.2103 58.1209 55.1001 58.6209C56.107 58.54 56.9081 59.1651 57.79 59.4739C58.7675 59.8195 59.6568 60.3489 60.1051 61.3784C60.1418 61.4519 60.3182 61.4666 60.4285 61.5034C60.8915 61.2828 61.1267 60.871 61.3031 60.4225C61.6338 59.621 61.9719 58.8121 62.2658 57.9959C62.3834 57.6724 62.5157 57.4591 62.8685 57.3562C63.4712 57.187 63.8607 56.7606 64.1767 56.2164C64.4707 55.7091 64.8088 55.2238 65.4261 55.0032C65.845 54.8561 66.1684 54.5399 66.1978 54.0399V54.0546Z" fill="#866A45"/>
<path d="M68.5864 45.1207C69.1744 45.2383 69.7918 44.7677 70.3871 45.3045C70.5929 45.4883 70.9897 45.1795 71.2323 44.9883C71.8276 44.5251 72.4155 44.0471 72.9667 43.525C74.297 42.2676 74.9511 42.1868 76.6194 43.1427C76.4284 43.6353 75.5905 43.503 75.5979 44.1795C75.958 44.1795 76.3181 44.1648 76.6782 44.1795C77.1486 44.1942 77.3985 43.9368 77.5969 43.5397C77.8321 43.0618 77.4426 43.025 77.2 42.8559C77.1266 42.8044 77.0824 42.6426 77.0971 42.5397C77.1559 42.2235 78.1408 41.7529 78.4201 41.9662C79.1036 42.4809 79.3093 41.7823 79.5151 41.4882C79.8238 41.047 79.3681 40.8926 79.0154 40.7749C78.9419 40.7529 78.8904 40.6867 78.8169 40.6352C78.7802 40.2014 79.1624 40.0323 79.3902 39.7823C79.8679 39.2528 80.5073 38.8852 80.7939 38.1793C80.8968 37.9293 81.1541 37.7528 81.448 37.694C81.6759 37.6498 81.9552 37.6719 82.0507 37.3851C82.2565 36.7895 82.6387 36.9734 83.0061 37.1719C83.3589 37.3557 83.6382 37.4439 83.9028 36.9954C84.1527 36.5616 84.6304 36.4071 85.0787 36.216C85.5491 36.0174 84.9464 35.9218 84.9905 35.7454L84.9758 35.7307C84.4834 36.0322 83.9836 36.216 83.3736 36.1866C82.9326 36.1645 82.8371 35.9954 82.8151 35.6277C82.7783 35.0909 83.1384 34.7453 83.4398 34.4071C83.6676 34.1497 84.0277 33.9953 84.0204 33.5762C82.4623 34.3188 80.8748 34.9145 79.5886 36.2454C78.6626 37.2013 77.4205 37.9366 76.3034 38.7455C74.6424 39.9514 72.7977 40.8999 71.3058 42.3779C70.3944 43.2824 69.461 44.1868 68.5791 45.1207H68.5864Z" fill="#866A45"/>
<path d="M33.9113 106.578C33.926 107.064 33.9333 107.541 33.948 108.027C34.3375 109.365 34.4404 110.74 34.3963 112.123C34.4698 112.417 34.536 112.718 34.6095 113.012C35.5502 113.042 35.4032 113.917 35.5575 114.424C35.7119 114.917 35.9177 115.38 36.0794 115.865C36.3513 116.645 36.8584 117.13 37.6007 117.409C38.0343 116.968 38.174 116.373 37.9755 115.858C37.4023 114.409 37.5934 112.865 37.27 111.395C36.9319 111.247 36.7923 110.968 36.7996 110.63C36.8217 108.953 36.3366 107.299 36.6306 105.608C36.682 105.321 36.7261 105.019 36.6673 104.681C36.4468 103.255 36.4542 101.806 36.1382 100.379C36.0132 99.828 35.9324 99.3133 35.5796 98.8721C35.315 99.0118 35.1313 99.2177 35.1239 99.5265C35.1092 99.9015 34.9843 100.254 34.7491 100.512C34.0582 101.269 33.9039 102.122 34.1244 103.1C34.1979 103.438 34.2346 103.85 33.7128 103.931C33.5585 104.828 34.0435 105.681 33.9039 106.578H33.9113Z" fill="#8D9398"/>
<path d="M41.2096 13.0605C40.8936 13.0753 40.5702 13.0753 40.2542 13.112C40.0557 13.1341 39.8573 13.237 39.7985 13.4503C39.4604 14.7518 38.358 15.5827 37.7994 16.7592C37.5202 17.3622 37.1453 17.9578 36.9102 18.5607C36.4618 19.6858 35.4256 20.5829 35.5505 21.9432C35.5726 22.2153 35.2198 22.23 34.9846 22.2594C34.4113 23.0903 34.6539 24.0756 34.5142 24.9801C34.3672 25.9139 34.1394 26.8404 34.0586 27.7816C34.2129 27.8257 34.3746 27.8919 34.3158 28.0831C34.2937 28.164 34.1468 28.2081 34.0586 28.2669C33.8822 28.4875 33.963 28.7523 33.9263 28.9949C34.4848 29.0758 34.6906 28.6934 34.8817 28.2816C35.4256 27.0904 35.9988 25.9066 36.528 24.7006C37.2482 23.0756 37.9391 21.4358 38.6446 19.8034C38.7696 19.5093 38.9019 19.2152 39.2546 19.1122C39.3649 18.9946 39.5192 18.899 39.578 18.7593C40.3203 16.9136 40.8127 15.0018 41.2243 13.0605H41.2096Z" fill="#968489"/>
<path d="M69.5713 105.858C69.9094 105.902 70.3136 105.733 70.5194 106.181C70.806 106.814 71.3572 106.674 71.732 106.431C72.3861 106.012 73.1431 105.895 73.8046 105.556C75.4141 104.726 76.8326 103.659 77.9423 102.211C78.1849 101.895 78.4936 101.637 78.7655 101.336C78.9713 101.108 79.0301 100.814 78.8904 100.556C78.7067 100.225 78.4201 100.38 78.1555 100.475C77.9277 100.549 77.6925 100.6 77.4499 100.667C77.1413 100.299 77.325 99.8945 77.2956 99.5121C77.0751 99.3356 76.884 99.468 76.6856 99.5709C76.59 99.5856 76.4872 99.6003 76.3916 99.615C75.1642 99.8577 73.9442 100.1 72.7169 100.35C73.3489 100.696 74.0692 100.858 74.2309 101.799C74.3191 102.343 74.2088 102.623 73.8193 102.895C72.8051 103.586 71.8202 104.306 70.7693 104.939C70.343 105.196 69.8212 105.38 69.5786 105.88L69.5713 105.858Z" fill="#866A45"/>
<path d="M44.9725 114.719L44.9578 114.733C45.0533 114.667 45.1489 114.601 45.2444 114.535C45.6413 114.535 46.0308 114.527 46.4277 114.52C46.4277 114.763 46.4277 115.005 46.435 115.248C46.3616 115.248 46.2807 115.241 46.2146 115.248C46.1117 115.27 46.0161 115.307 45.9132 115.336C46.0088 115.52 46.1558 115.461 46.2881 115.395C46.3469 115.366 46.3909 115.292 46.4424 115.241C46.7437 115.174 47.0524 115.072 47.3611 115.042C47.5669 115.02 47.7286 115.182 47.8021 115.38C47.8829 115.608 47.7433 115.829 47.5522 115.829C47.0818 115.829 47.0304 116.263 46.7805 116.483C46.3983 116.829 46.0749 117.233 45.4723 117.182C45.1783 117.152 44.8182 117.307 44.8402 117.594C44.899 118.336 44.436 118.807 44.0979 119.358C43.9877 119.542 44.0465 119.822 44.0244 120.057C43.7157 120.064 43.554 120.226 43.5394 120.535C43.3483 120.535 43.1498 120.535 42.9587 120.535C42.0474 120.52 42.0401 120.52 41.849 119.55C41.7975 119.3 41.6799 119.123 41.4668 119.005C42.3561 117.344 43.6937 116.049 44.9725 114.704V114.719ZM46.0161 116.094C45.972 116.072 45.8471 116.13 45.8324 116.174C45.8103 116.226 45.8691 116.344 45.9132 116.358C45.9647 116.38 46.0455 116.314 46.1117 116.285C46.0823 116.219 46.0676 116.116 46.0161 116.094Z" fill="#866A45"/>
<path d="M32.9485 107.064C33.0294 106.821 32.6692 106.578 32.9485 106.343C32.6913 105.453 32.8015 104.512 32.6031 103.6C32.5002 103.13 32.4341 102.453 32.9412 102.012C32.8677 102.012 32.7942 102.012 32.728 102.012C32.4561 101.563 32.5296 101.46 33.2057 101.291C33.147 100.96 33.2939 100.571 32.9118 100.343C32.4561 100.255 32.3606 100.027 32.6251 99.6442C32.6545 99.4604 32.6913 99.2692 32.7207 99.0854C32.2503 98.3354 31.9931 97.5265 31.9784 96.6294C31.9784 96.2471 32.1107 95.8206 31.7579 95.5044C31.6477 95.5338 31.4713 95.5338 31.4272 95.6073C31.0817 96.225 30.604 96.2177 30.0381 95.9676C29.8029 95.8647 29.5384 95.6662 29.3179 96.0118L29.3473 96.9603C29.7588 97.2618 30.1631 97.1221 30.5967 96.9898C31.1185 96.828 31.3831 97.0339 31.4566 97.6074C31.5742 98.578 31.3096 99.5781 31.824 100.475C31.3169 100.666 31.045 100.416 30.7363 100.225C30.3835 100.012 30.1263 100.107 30.0602 100.549C30.0822 100.637 30.1116 100.718 30.1337 100.806C30.288 100.835 30.4717 100.821 30.5967 100.902C30.7878 101.034 31.1111 101.277 31.0817 101.387C30.7584 102.431 32.2209 102.688 32.0225 103.733C31.8681 104.571 31.9857 105.468 32.0666 106.328C32.1107 106.814 32.1842 107.409 32.9485 107.321C32.9485 107.24 32.9485 107.159 32.9485 107.078V107.064Z" fill="#6D6239"/>
<path d="M30.5454 91.4017C30.4499 90.8943 30.2441 90.409 30.2955 89.8722C30.3323 89.4531 30.1779 89.0707 29.8619 88.7913C29.3916 88.3721 30.0163 88.3354 30.1045 88.078C29.8178 87.9236 29.5385 87.7692 29.2593 87.6221C29.0755 87.5265 28.8844 87.4089 28.9506 87.1736C29.2299 86.2103 28.5684 85.8426 27.8996 85.4676C27.6938 85.35 27.5321 85.1515 27.2749 85.1294C27.6718 87.2177 28.076 89.3134 28.4729 91.4017C29.0461 91.3428 29.4136 91.7399 29.7884 92.034C30.1412 91.8796 30.2147 91.4899 30.5454 91.4017Z" fill="#866A45"/>
<path d="M30.5453 91.4014C30.2146 91.4896 30.1411 91.8793 29.7883 92.0337C29.4135 91.7396 29.046 91.3425 28.4727 91.4014C28.4213 91.5778 28.4066 91.7543 28.583 91.8793C28.9946 92.1587 28.9431 92.4823 28.6638 92.8279C28.7153 93.9235 29.0313 94.9603 29.3326 95.9971C29.5531 95.6589 29.8177 95.85 30.0529 95.953C30.6188 96.203 31.0965 96.203 31.4419 95.5927C31.4787 95.5191 31.6551 95.5265 31.7727 95.4897C31.7065 95.2544 31.6404 95.0191 31.5742 94.7838C31.0965 94.3573 30.7143 93.9382 31.001 93.1882C31.2435 92.5485 30.5967 92.0337 30.5527 91.4087L30.5453 91.4014Z" fill="#726A3F"/>
<path d="M30.0602 100.527C30.1264 100.086 30.3836 99.9829 30.7364 100.203C31.0451 100.387 31.317 100.645 31.8241 100.453C31.317 99.5564 31.5816 98.5564 31.4566 97.5858C31.3905 97.0196 31.1186 96.8063 30.5967 96.9681C30.1631 97.1078 29.7589 97.2402 29.3473 96.9387C29.3106 97.0122 29.2297 97.0931 29.2444 97.1519C29.6046 98.2549 29.3547 99.4755 29.8985 100.542C29.95 100.542 30.0014 100.534 30.0529 100.527H30.0602Z" fill="#726A3F"/>
<path d="M39.7397 108.24C39.1224 109.078 39.1297 110.034 39.2914 110.99C39.3428 111.277 39.431 111.52 39.2106 111.77C38.6814 112.358 38.7181 113.086 38.7328 113.807C39.0636 113.836 39.431 113.696 39.6883 114.027C39.7618 113.932 39.8353 113.836 39.9088 113.74C39.9308 113.586 39.9602 113.424 39.9822 113.27C39.9822 113.226 39.9822 113.182 39.9675 113.145C39.9602 113.005 40.0263 112.902 40.1513 112.843C40.1954 112.792 40.2174 112.733 40.2101 112.667C40.2395 112.571 40.2615 112.468 40.2909 112.373C40.4306 111.961 40.3718 111.534 40.3938 111.108C40.3938 111.027 40.4306 110.961 40.5041 110.924C40.7466 110.204 40.5482 109.476 40.5629 108.748C40.2909 108.564 40.1145 108.233 39.725 108.248L39.7397 108.24Z" fill="#966E52"/>
<path d="M51.0135 20.0758C51.3957 20.0758 51.6088 19.6861 51.9689 19.6493C52.0424 19.7008 52.1159 19.7302 52.16 19.789C52.3364 20.0096 52.1453 20.5537 52.6378 20.4655C53.064 20.392 52.9317 19.9508 52.917 19.6566C52.8876 18.9801 52.7186 18.3257 52.454 17.7007C52.1453 17.8698 52.1306 18.2595 51.7852 18.4728C51.234 18.8037 50.9768 19.4066 51.0062 20.0831L51.0135 20.0758Z" fill="#968489"/>
<path d="M34.3743 114.527C33.8452 114.542 33.3895 114.601 33.5365 115.336C33.5879 115.601 33.3748 115.873 33.4777 116.197C33.7423 116.432 34.0583 116.138 34.3449 116.219C34.4184 115.652 34.4552 115.094 34.3743 114.527Z" fill="#866A45"/>
<path d="M94.8753 105.63C94.5299 105.608 94.3167 105.417 94.133 105.13C93.6847 104.439 93.67 104.446 92.8027 104.872C92.9424 105.284 93.5156 104.821 93.6406 105.314C93.7141 105.6 93.8464 105.917 94.133 106.1C94.3682 105.931 94.7283 105.946 94.8753 105.63Z" fill="#866A45"/>
<path d="M45.2441 114.535C45.641 114.535 46.0305 114.527 46.4274 114.52C46.5964 114.233 46.6993 113.932 46.7067 113.594L46.6332 113.513C45.9791 113.594 45.641 114.101 45.2441 114.527V114.535Z" fill="#966E52"/>
<path d="M30.5747 108.726C30.8026 108.307 30.6923 107.843 30.7658 107.402C30.8246 107.027 30.6703 106.711 30.2808 106.571C30.3469 107.071 30.5159 107.564 30.3469 108.086C30.2734 108.314 30.369 108.557 30.5747 108.726Z" fill="#966E52"/>
<path d="M31.4714 115.785C31.4347 114.983 31.7874 114.138 31.2362 113.38C31.2436 113.961 31.4788 114.535 31.2509 115.123C31.1627 115.358 31.3685 115.572 31.4714 115.778V115.785Z" fill="#966E52"/>
<path d="M40.6875 120.8C41.4518 120.579 41.4077 119.961 41.3857 119.358C40.7095 119.623 40.9227 120.322 40.6875 120.8Z" fill="#866A45"/>
<path d="M41.3343 102.446C40.9374 102.983 41.1652 103.593 41.1505 104.166C41.6209 103.637 41.4445 103.034 41.3343 102.446Z" fill="#968489"/>
<path d="M30.0604 100.527C30.009 100.527 29.9575 100.527 29.9061 100.542C30.0016 101.181 29.4578 101.872 30.0531 102.468C30.0825 101.909 30.1045 101.343 30.1339 100.784C30.1119 100.696 30.0825 100.615 30.0604 100.527Z" fill="#966E52"/>
<path d="M41.0331 106.071C40.4598 106.424 40.7465 107.012 40.6362 107.498C41.0919 107.115 41.158 106.623 41.0331 106.071Z" fill="#968489"/>
<path d="M28.6637 92.8206C28.943 92.4824 28.9944 92.1588 28.5829 91.8721C28.4653 92.203 28.3403 92.5265 28.6637 92.8206Z" fill="#866A45"/>
<path d="M58.4437 119.027C58.4584 118.91 58.4731 118.799 58.4731 118.682C58.4731 118.432 58.429 118.211 58.113 118.204C58.0469 118.204 57.944 118.248 57.9219 118.299C57.8264 118.535 58.0395 118.623 58.1571 118.762C58.2306 118.851 58.2894 118.954 58.3555 119.049L58.4437 119.035V119.027Z" fill="#726A3F"/>
<path d="M39.7397 108.24C40.1219 108.225 40.3057 108.564 40.5776 108.74C40.5776 108.49 40.5776 108.248 40.5776 107.998C40.2983 108.071 39.9602 107.953 39.7397 108.24Z" fill="#968489"/>
<path d="M39.4384 117.182C39.2694 117.159 39.1665 116.77 39.0342 116.968C38.8725 117.233 38.946 117.571 39.3429 117.689C39.3723 117.52 39.4017 117.351 39.4311 117.182H39.4384Z" fill="#966E52"/>
<path d="M50.6387 20.7375C50.8739 20.5758 51.0135 20.3552 51.0135 20.061C50.5505 20.0978 50.5064 20.3699 50.6387 20.7375Z" fill="#968489"/>
<path d="M61.3469 117.895C61.0382 117.924 60.7148 117.844 60.4355 118.035C60.7516 118.057 61.097 118.299 61.3469 117.895Z" fill="#70663C"/>
<path d="M30.8247 110.652C31.0452 110.505 31.0452 110.358 30.8247 110.211C30.6704 110.358 30.6043 110.505 30.8247 110.652Z" fill="#966E52"/>
<path d="M41.6577 12.3767C41.2829 12.362 41.1359 12.5679 41.1653 12.9208C41.4592 12.8547 41.6503 12.7003 41.6577 12.3767Z" fill="#968489"/>
<path d="M41.1432 104.659C40.93 104.799 40.9227 104.953 41.1138 105.122C41.2607 104.975 41.2461 104.821 41.1432 104.659Z" fill="#968489"/>
<path d="M95.4047 105.159C95.0592 105.13 94.8755 105.269 94.8755 105.63C95.1033 105.534 95.3312 105.438 95.4047 105.159Z" fill="#866A45"/>
<path d="M34.0508 28.2597C34.139 28.2009 34.286 28.1568 34.308 28.0759C34.3668 27.8847 34.2051 27.8185 34.0508 27.7744C34.0508 27.9362 34.0508 28.098 34.0508 28.2597Z" fill="#8D9398"/>
<path d="M38.0346 118.079C37.9905 117.895 37.8509 117.843 37.6818 117.851C37.6671 118.123 37.895 118.035 38.0346 118.079Z" fill="#8D9398"/>
<path d="M76.3843 99.6003C76.4872 99.5856 76.5827 99.5709 76.6783 99.5562C76.568 99.4753 76.4651 99.49 76.3843 99.6003Z" fill="#77693C"/>
<path d="M39.9822 113.27C39.9601 113.424 39.9307 113.586 39.9087 113.741C40.1071 113.608 40.3129 113.483 39.9822 113.27Z" fill="#968489"/>
<path d="M31.1774 112.814C31.295 112.682 31.295 112.549 31.1921 112.41C31.1039 112.542 31.1259 112.682 31.1774 112.814Z" fill="#966E52"/>
<path d="M40.2981 112.365C40.2687 112.461 40.2467 112.564 40.2173 112.659C40.2614 112.601 40.3128 112.542 40.3422 112.468C40.3496 112.446 40.3128 112.402 40.2981 112.365Z" fill="#968489"/>
<path d="M40.1511 112.836C40.0261 112.895 39.96 112.998 39.9673 113.137C40.0776 113.071 40.1511 112.976 40.1511 112.836Z" fill="#968489"/>
<path d="M64.7646 14.2739C64.8381 14.3622 64.9043 14.443 64.9778 14.5313C64.9778 14.3916 64.8969 14.3107 64.7646 14.2739Z" fill="#D8B8A0"/>
<path d="M34.4847 113.358C34.4185 113.417 34.4185 113.476 34.4773 113.534C34.4993 113.498 34.5287 113.461 34.5434 113.417C34.5434 113.402 34.5067 113.38 34.4847 113.358Z" fill="#866A45"/>
<path d="M71.7464 100.563C71.6656 100.644 71.5847 100.725 71.5112 100.806C71.5112 100.806 71.5774 100.85 71.57 100.85C71.6141 100.828 71.6582 100.821 71.7023 100.828L71.7685 100.762C71.7685 100.718 71.7685 100.674 71.7905 100.63L71.7464 100.563Z" fill="#966E52"/>
<path d="M64.5146 14.0972C64.5955 14.1561 64.6837 14.2149 64.7645 14.2737C64.7278 14.1487 64.6469 14.0825 64.5146 14.0972Z" fill="#D8B8A0"/>
<path d="M44.9723 114.718L44.9576 114.733L44.9429 114.711L44.9723 114.718Z" fill="#966E52"/>
<path d="M39.5338 115.527C39.475 115.571 39.4456 115.63 39.4603 115.711C39.5264 115.667 39.5485 115.608 39.5338 115.527Z" fill="#966E52"/>
<path d="M40.5111 110.917C40.4376 110.961 40.4009 111.02 40.4009 111.101C40.4964 111.071 40.5479 111.02 40.5111 110.917Z" fill="#968489"/>
<path d="M41.8562 12.1196C41.7827 12.2079 41.7092 12.3035 41.6357 12.3917C41.7754 12.3549 41.8636 12.274 41.8562 12.1196Z" fill="#968489"/>
<path d="M40.026 122.476C40.0774 122.402 40.1289 122.322 40.1803 122.248C40.0554 122.27 39.9598 122.322 40.026 122.476Z" fill="#866A45"/>
<path d="M95.7647 104.887C95.6985 104.902 95.6471 104.946 95.6177 104.998L95.7279 104.983L95.7647 104.88V104.887Z" fill="#866A45"/>
<path d="M53.4244 72.8419C54.5489 72.6507 55.4161 73.0405 56.1143 73.9449C56.3348 74.2317 56.6729 74.7317 57.0624 74.4229C57.4593 74.0993 56.9595 73.7464 56.7831 73.4228C56.4597 72.8272 56.1216 72.261 55.4234 72.011C55.1883 71.9228 55.1295 71.6581 55.1148 71.4081C54.4239 71.6287 53.8066 71.7684 53.1745 71.1213C52.8511 70.7904 52.2191 70.6286 51.9839 71.4007C52.9614 71.6875 52.9761 71.7169 52.7041 72.3713C52.7262 72.8566 53.0716 72.8566 53.4244 72.8493V72.8419Z" fill="#DBBAA0"/>
<path d="M53.9019 76.7024C54.0489 76.4083 54.2106 76.1436 53.7843 75.9083C53.4756 75.7392 53.2184 75.4745 52.9391 75.2612C52.7774 75.2612 52.6231 75.2612 52.4614 75.2612C52.432 75.7833 53.0788 75.8054 53.1817 76.2319C53.314 76.548 53.5565 76.7098 53.9019 76.7098V76.7024Z" fill="#DBBAA0"/>
<path d="M53.1893 76.2172C53.0864 75.7907 52.4396 75.7687 52.469 75.2466C52.2485 75.2686 51.9546 75.1804 51.859 75.4525C51.7635 75.7098 52.0134 75.8642 52.1824 76.0187C52.4764 76.276 52.8438 76.1951 53.1893 76.2172Z" fill="#DEC2AE"/>
<path d="M52.7041 72.3642C52.9761 71.7097 52.954 71.6803 51.9839 71.3936C52.0059 71.8862 52.322 72.1509 52.7041 72.3642Z" fill="#DEC2AE"/>
<path d="M31.567 94.784C31.6331 95.0193 31.6993 95.2546 31.7654 95.4899C32.1109 95.8135 31.9786 96.2326 31.9859 96.615C31.9933 97.5121 32.2505 98.3209 32.7282 99.0709C33.1177 98.1444 33.4999 97.2106 33.6836 96.2179C33.6836 95.9826 33.6836 95.7473 33.6836 95.512C33.6836 94.9679 33.6836 94.4237 33.6836 93.8796C33.6836 93.5561 33.8233 93.3722 34.1467 93.3281C34.1467 93.2472 34.1467 93.1737 34.1467 93.1002C33.9923 92.7987 33.8747 92.4825 33.9188 92.1295C33.9188 91.8648 33.8674 91.5781 34.1467 91.4016C34.1467 90.5192 34.1467 89.6368 34.1467 88.7544C33.7718 87.6294 33.7718 86.5044 34.1467 85.3793C34.1467 84.9749 34.1467 84.5778 34.1467 84.1734C34.1173 84.1513 34.0732 84.1293 34.0585 84.0999C34.0217 84.019 34.0585 83.9601 34.1467 83.9234C34.132 83.3278 34.2128 82.7322 34.0805 82.1439C33.8086 80.9086 33.6101 79.6659 33.691 78.3864C33.7277 77.8717 33.4117 77.1511 34.3818 77.1585C34.3818 76.8423 34.3818 76.5261 34.3892 76.2025C34.1467 75.8055 34.1467 75.3716 34.154 74.9304C34.154 74.4084 34.1981 73.8789 34.1099 73.3789C33.8453 71.8495 33.7277 70.2979 33.713 68.7611C33.6983 67.0625 33.3088 65.4522 32.9487 63.8271C32.8679 63.4668 32.6841 63.2609 32.324 63.2095C32.2652 64.3272 32.2137 65.4448 32.155 66.6581C31.5449 66.261 31.0525 65.9375 30.5528 65.614C30.347 66.2463 30.2882 66.9008 30.2882 67.5625C30.2588 68.1729 30.6483 68.2905 31.1407 68.3052C32.0153 68.6655 32.4122 69.2758 32.2872 70.2685C32.199 70.9744 32.2725 71.7024 32.2358 72.4157C32.2064 73.0333 32.3681 73.6804 32.008 74.2613C32.008 76.8717 31.9933 79.4747 31.9933 82.0851C31.9933 84.3499 31.9933 86.6147 31.9859 88.8794C31.9859 89.078 31.9859 89.2839 31.9418 89.475C31.4861 91.2251 31.5376 93.0046 31.5743 94.784H31.567Z" fill="#B17C7E"/>
<path d="M32.3163 63.2092C32.6764 63.2607 32.8602 63.4666 32.941 63.8269C33.3011 65.4519 33.6907 67.0623 33.7054 68.7608C33.7201 70.2977 33.8377 71.8492 34.1022 73.3786C34.1904 73.886 34.1463 74.4154 34.1463 74.9302C34.1463 75.3714 34.1463 75.8125 34.3815 76.2023C34.9768 76.092 35.3443 76.3493 35.528 76.9082C35.5868 76.717 35.6971 76.5258 35.6897 76.342C35.5868 74.4081 35.9837 72.4963 36.0131 70.5771C36.0425 68.8344 35.8588 67.0917 35.7706 65.349C35.4472 64.4666 34.8739 63.7165 34.602 62.8048C34.4109 62.1577 34.1243 62.1136 33.676 62.643C33.4702 62.8856 33.3379 62.9224 33.1174 62.7533C32.9263 62.6062 32.7279 62.4886 32.478 62.4812C32.184 62.665 32.2575 62.9371 32.3163 63.2018V63.2092Z" fill="#968489"/>
<path d="M30.0675 64.6652C30.0528 63.6358 30.0234 62.621 29.4134 61.7019C29.0974 61.2239 29.2664 60.5401 28.9136 60.0327C28.6343 60.0695 28.3624 60.1283 28.2228 60.4151C27.9214 61.0401 28.2375 63.0696 28.8034 63.5181C29.2517 63.8784 29.3179 64.6579 30.0675 64.6652Z" fill="#866A45"/>
<path d="M31.192 69.2317C31.2582 69.114 31.2435 69.0111 31.1332 68.9229C31.045 69.0479 31.0818 69.1435 31.192 69.2317Z" fill="#B17C7E"/>
<path d="M75.5901 45.613C75.0021 45.5027 74.6493 45.9806 74.1937 46.1939C72.7458 46.8924 71.4744 47.8336 70.3719 49.0175C69.6958 49.7455 68.9167 50.3925 68.27 51.1499C67.5277 52.0176 66.7927 52.9073 66.4326 54.0324C67.0573 53.9588 67.4689 54.4001 67.9099 54.7089C68.27 54.9589 68.5346 54.9957 68.8359 54.6648C69.1078 54.3633 69.4606 54.1574 69.8501 54.0691C70.3646 53.9515 70.6659 53.5765 70.9672 53.2235C71.6801 52.3779 72.3637 51.5029 73.0472 50.6352C73.1353 50.5176 73.1427 50.3411 73.1868 50.1867C73.3558 48.7675 74.3186 47.8557 75.2887 46.966C75.9428 46.363 75.9722 46.3998 75.5974 45.6056L75.5901 45.613Z" fill="#866A45"/>
<path d="M83.7188 42.128C83.7775 42.1574 83.8437 42.2162 83.9025 42.2089C83.9613 42.2089 84.0201 42.1427 84.0789 42.1059C84.0201 42.0765 83.9539 42.0177 83.8951 42.025C83.8363 42.025 83.7775 42.0912 83.7261 42.128H83.7188Z" fill="#726A3F"/>
<path d="M84.0937 41.4217C84.0937 41.4217 84.0717 41.3335 84.0643 41.3335C84.0276 41.3335 83.9982 41.3555 83.9614 41.3629C83.9688 41.3923 83.9835 41.4511 83.9908 41.4511C84.0276 41.4511 84.057 41.4291 84.0937 41.4217Z" fill="#726A3F"/>
<path d="M46.7143 113.601C46.6996 113.932 46.6041 114.24 46.435 114.527C46.435 114.77 46.435 115.013 46.4424 115.255C46.7437 115.189 47.0524 115.086 47.3611 115.057C47.5669 115.035 47.7286 115.196 47.802 115.395C47.8829 115.623 47.7433 115.843 47.5522 115.843C47.0818 115.843 47.0304 116.277 46.7805 116.498C46.3983 116.843 46.0749 117.248 45.4723 117.196C45.1783 117.167 44.8182 117.321 44.8402 117.608C44.899 118.351 44.436 118.821 44.0979 119.373C43.9877 119.557 44.0465 119.836 44.0244 120.071C44.4948 120.748 44.4727 120.719 45.1856 120.27C46.0308 119.741 46.8834 119.211 47.9637 119.344C48.368 119.395 48.7722 119.329 49.1103 119.086C50.5802 118.035 52.3881 117.645 53.8874 116.652C54.8869 115.983 56.0482 115.593 56.8125 114.49C57.3196 113.762 58.2457 113.218 59.2966 113.321C59.8699 113.38 60.3991 113.174 60.9429 113.071C61.4721 112.968 61.7955 112.667 61.8616 112.115C61.5529 112.189 61.2516 112.299 60.9429 112.336C59.9875 112.461 59.6568 112.189 59.451 111.145C59.0174 111.152 58.5764 111.108 58.1501 111.292C57.812 111.439 57.2241 111.512 57.1212 111.321C56.5994 110.343 55.9967 111.093 55.4455 111.174C54.8355 111.262 54.2696 111.689 53.6081 111.454C53.1231 112.064 52.2558 112.042 51.734 112.645C51.2857 113.159 50.7418 113.615 50.0363 113.799C49.904 114.093 49.6909 114.27 49.3528 114.255C49.0956 114.439 48.8383 114.63 48.5002 114.88C48.2577 114.468 48.1622 114.079 48.2798 113.593C48.3459 113.329 48.096 113.093 47.8388 113.284C47.486 113.542 47.0965 113.549 46.707 113.593L46.7143 113.601Z" fill="#77693C"/>
<path d="M59.4507 111.16C59.6638 112.204 59.9872 112.476 60.9426 112.351C61.2513 112.314 61.5526 112.204 61.8613 112.13C62.5448 112.167 63.1989 112.013 63.8604 111.844C64.9701 111.564 66.0946 111.358 67.2191 111.16C67.5645 111.101 67.7556 111.013 67.9026 110.645C68.1304 110.086 68.9536 109.741 69.3725 110.064C70.3426 110.807 71.3127 110.513 72.3123 110.27C72.7018 110.174 73.0766 110.049 73.4735 109.983C73.863 109.917 74.3554 109.799 74.6494 110.02C75.3329 110.549 76.0091 110.388 76.6852 110.152C78.0816 109.667 79.5221 109.38 80.9406 108.976C81.2125 108.895 81.3521 108.763 81.3815 108.498C81.1611 108.424 80.6245 108.586 80.8303 108.16C81.1831 107.432 80.8965 107.498 80.3894 107.667C80.088 107.762 79.7867 107.873 79.4927 107.998C78.3242 108.498 77.0233 108.704 76.0238 109.571C75.8694 109.704 75.6416 109.733 75.4873 109.542C75.3403 109.358 75.4064 109.174 75.5754 109.02C75.7592 108.851 76.1193 108.77 75.8768 108.307C75.1712 108.601 74.4142 108.476 73.6646 108.483C73.4882 108.483 73.3339 108.402 73.3265 108.226C73.3192 108.13 73.4 107.976 73.4882 107.924C73.7234 107.777 74.0027 107.696 74.2305 107.542C74.7082 107.233 75.4064 107.255 75.6195 106.571C74.6274 106.865 73.6278 107.035 72.5769 107.093C71.5626 107.152 70.5411 107.476 69.5783 107.836C68.8507 108.108 68.4685 107.91 68.1525 107.307C68.101 107.204 67.9908 107.13 67.9099 107.049C66.2563 107.998 64.5953 108.946 62.9417 109.902C62.7359 110.02 62.5228 110.152 62.3684 110.321C61.6776 111.064 60.8838 111.373 59.8917 110.998C59.7153 110.932 59.5903 111.013 59.4801 111.152L59.4507 111.16Z" fill="#866A45"/>
<path d="M75.5977 106.586C75.3846 107.262 74.679 107.247 74.2086 107.556C73.9735 107.703 73.7015 107.792 73.4664 107.939C73.3782 107.99 73.2973 108.137 73.3047 108.24C73.3194 108.417 73.4664 108.497 73.6427 108.497C74.3924 108.497 75.1494 108.615 75.8549 108.321C76.0975 108.784 75.7373 108.865 75.5536 109.034C75.3919 109.189 75.3184 109.372 75.4654 109.556C75.6198 109.748 75.8549 109.718 76.0019 109.586C77.0015 108.711 78.3023 108.512 79.4709 108.012C79.7649 107.887 80.0662 107.777 80.3675 107.681C80.8746 107.512 81.1613 107.453 80.8085 108.174C80.6027 108.593 81.1392 108.439 81.3597 108.512C81.6022 108.512 81.8374 108.512 82.0799 108.512C82.2196 108.211 82.4327 107.902 82.7341 107.85C83.7409 107.674 84.373 106.828 85.3064 106.512C86.1148 106.233 86.1957 105.453 85.5195 104.902C85.3505 104.762 85.2476 104.637 85.2182 104.431C84.4391 104.718 83.6233 104.681 82.8075 104.666C81.8521 104.953 80.8085 104.865 79.9045 105.372C79.7869 105.439 79.5958 105.387 79.4415 105.387C79.3606 105.387 79.2798 105.387 79.1989 105.387C79.1181 106.027 78.611 105.821 78.2288 105.865C77.3836 106.233 76.4576 106.314 75.583 106.593L75.5977 106.586Z" fill="#966E52"/>
<path d="M85.2256 104.417C85.255 104.622 85.3579 104.755 85.527 104.887C86.2031 105.439 86.1223 106.218 85.3138 106.498C84.3804 106.814 83.7484 107.659 82.7415 107.836C82.4402 107.887 82.2344 108.196 82.0874 108.498C82.6533 108.821 83.2266 108.49 83.7925 108.468C85.7033 108.387 87.5113 107.784 89.3193 107.203C90.3262 106.88 91.3331 106.424 92.4502 106.571C92.4061 106.137 92.237 105.733 92.1856 105.292C92.0974 104.615 91.6785 104.372 90.995 104.549C90.554 104.659 90.1204 104.637 89.6868 104.644C89.4442 104.644 89.1723 104.615 89.1503 104.306C89.1282 103.99 89.4369 103.99 89.6353 103.872C90.091 103.615 90.6496 103.769 91.3184 103.519C90.6496 103.078 90.1204 103.144 89.6206 103.314C88.4815 103.689 87.3349 104.027 86.1076 103.931C85.718 103.902 85.402 104.034 85.2256 104.417Z" fill="#866A45"/>
<path d="M54.4754 117.608C54.6371 117.608 54.762 117.557 54.8502 117.417C54.8502 117.336 54.8649 117.255 54.8722 117.174H54.8796C54.5856 117.174 54.3357 117.204 54.4754 117.608Z" fill="#968489"/>
<path d="M50.3008 119.829C50.3816 119.748 50.4551 119.674 50.536 119.593C50.5507 119.461 50.7197 119.292 50.5507 119.218C50.3743 119.145 50.3228 119.343 50.3081 119.491C50.3008 119.601 50.3081 119.711 50.3008 119.829Z" fill="#866A45"/>
<path d="M53.1743 118.145C53.3948 118.057 53.4242 117.873 53.4242 117.667C53.2258 117.77 53.189 117.946 53.1743 118.145Z" fill="#966E52"/>
<path d="M54.8721 117.174C54.8721 117.174 54.975 117.13 54.9676 117.123C54.9529 117.042 54.9162 117.064 54.8794 117.182L54.8721 117.174Z" fill="#968489"/>
<path d="M38.8869 115.101C39.1 114.983 39.1882 114.844 39.1294 114.682C39.0633 114.491 38.9163 114.336 38.6885 114.395C38.5635 114.424 38.5488 114.571 38.5929 114.689C38.6591 114.858 38.7105 115.049 38.8795 115.101H38.8869Z" fill="#966E52"/>
<path d="M37.542 110.233C37.1378 110.402 37.2701 110.689 37.3803 110.968C37.564 111.115 37.7257 111.152 37.7625 110.858C37.7919 110.623 37.7037 110.409 37.542 110.233Z" fill="#8D9398"/>
<path d="M38.7327 113.807C38.7327 113.807 38.6372 113.851 38.6372 113.858C38.6519 113.939 38.6887 113.917 38.7327 113.799V113.807Z" fill="#966E52"/>
<path d="M49.3602 114.27C49.6983 114.285 49.9114 114.108 50.0437 113.814C49.9702 113.814 49.8967 113.814 49.8159 113.814C49.735 113.814 49.6468 113.814 49.566 113.814C49.3822 113.917 49.3381 114.086 49.3602 114.277V114.27Z" fill="#968489"/>
<path d="M49.6906 113.101C49.6318 113.137 49.5656 113.167 49.5068 113.204C49.5656 113.24 49.6318 113.299 49.6906 113.299C49.7494 113.299 49.8155 113.24 49.8743 113.204C49.8155 113.167 49.7494 113.137 49.6906 113.101Z" fill="#77693C"/>
<path d="M54.2986 110.851C54.2986 110.851 54.2104 110.873 54.2104 110.88C54.2104 110.917 54.2325 110.946 54.2398 110.983C54.2692 110.976 54.328 110.961 54.328 110.954C54.328 110.917 54.306 110.887 54.2986 110.851Z" fill="#77693C"/>
<path d="M71.7026 100.828C71.6585 100.828 71.6144 100.828 71.5703 100.85C71.6365 100.997 71.6732 100.909 71.7026 100.828Z" fill="#866A45"/>
<path d="M49.5732 113.807C49.6541 113.807 49.7423 113.807 49.8231 113.807C49.7423 113.637 49.6614 113.637 49.5732 113.807Z" fill="#77693C"/>
<path d="M71.7904 100.623C71.7684 100.667 71.761 100.711 71.7684 100.755C71.7978 100.718 71.8272 100.689 71.8639 100.652C71.8419 100.645 71.8125 100.63 71.7904 100.623Z" fill="#866A45"/>
<path d="M41.7754 123.27C41.746 123.204 41.7313 123.101 41.6799 123.079C41.6358 123.057 41.5476 123.13 41.4814 123.16C41.5108 123.226 41.5255 123.329 41.577 123.351C41.6284 123.373 41.7093 123.299 41.7754 123.27Z" fill="#726A3F"/>
<path d="M34.3891 112.123C34.4332 110.733 34.3303 109.365 33.9408 108.027C33.6762 107.975 33.4116 107.924 33.1544 107.873C32.8531 108.189 33.3896 108.593 33.0221 108.865C32.7134 109.101 32.3313 108.961 31.9858 108.998C32.346 110.005 32.4121 110.056 33.3528 110.071C33.7718 110.071 34.0731 110.439 33.8232 110.755C33.3602 111.336 33.6321 111.851 33.7644 112.402C33.9922 112.351 34.1319 112.086 34.3965 112.13L34.3891 112.123Z" fill="#866A45"/>
<path d="M32.9415 102.005C32.4344 102.446 32.5079 103.13 32.6034 103.593C32.8018 104.505 32.6916 105.439 32.9488 106.336C33.2649 106.417 33.5882 106.498 33.9043 106.578C34.0439 105.681 33.5588 104.828 33.7132 103.931C33.647 103.027 33.6029 102.115 33.1987 101.277C32.5226 101.446 32.4491 101.556 32.721 101.997C32.7871 101.872 32.8533 101.755 33.0297 101.843C33.0003 101.895 32.9709 101.946 32.9415 102.005Z" fill="#866A45"/>
<path d="M33.0296 112.866C33.2868 112.351 33.25 112.064 33.0516 111.667C32.8311 112.049 32.8752 112.343 33.0296 112.866Z" fill="#DEC2AE"/>
<path d="M32.9487 107.064C32.9487 107.145 32.9487 107.226 32.9487 107.307C33.0075 107.329 33.059 107.358 33.1178 107.38C33.1986 107.204 33.081 107.13 32.9561 107.064H32.9487Z" fill="#866A45"/>
<path d="M31.9858 108.99C31.9858 108.99 31.9417 108.895 31.927 108.895C31.8461 108.909 31.8682 108.953 31.9784 108.99H31.9858Z" fill="#866A45"/>
<path d="M79.4487 105.38C79.6031 105.38 79.7941 105.431 79.9117 105.365C80.8157 104.858 81.8594 104.946 82.8148 104.659C83.3954 104.144 84.1083 103.887 84.8212 103.63C84.9755 103.571 85.1152 103.446 85.1078 103.277C85.1078 103.019 84.8873 102.975 84.6816 102.983C83.8217 102.997 82.9691 102.828 82.2342 103.608C81.7344 104.144 80.8598 104.159 80.1616 104.439C79.7207 104.622 79.3679 104.828 79.4414 105.38H79.4487Z" fill="#866A45"/>
<path d="M93.7437 102.814C93.8318 103.299 94.2728 103.225 94.4566 103.49C94.6256 103.733 94.8828 103.549 95.0886 103.431C95.287 103.321 95.3679 103.145 95.2723 102.931C95.2062 102.777 95.0225 102.689 94.8828 102.762C94.53 102.961 94.1405 102.806 93.751 102.806L93.7437 102.814Z" fill="#866A45"/>
<path d="M78.2437 105.858C78.6258 105.814 79.1256 106.019 79.2138 105.38C78.8316 105.424 78.3245 105.211 78.2437 105.858Z" fill="#866A45"/>
<path d="M93.7511 103.858C93.7511 103.858 93.7143 103.917 93.7217 103.939C93.7437 104.027 93.7952 104.034 93.8466 103.961C93.8613 103.939 93.8466 103.895 93.8319 103.873C93.8172 103.858 93.7805 103.858 93.7584 103.858H93.7511Z" fill="#866A45"/>
<path d="M61.3987 74.0921C61.3766 73.6877 61.3766 73.445 61.3399 73.2097C61.3105 72.9744 61.1194 72.82 60.9209 72.9009C59.9435 73.3053 59.0468 72.8347 58.1208 72.6656C57.9297 72.6288 57.6945 72.5626 57.6357 72.8347C57.5843 73.07 57.768 73.2244 57.9591 73.2612C58.3266 73.3274 58.6573 73.32 58.3486 73.8568C58.2457 74.0333 58.5838 74.2392 58.7381 74.4156C58.9954 74.7098 59.2894 74.9598 59.4584 75.3495C59.7597 76.048 59.8112 76.0113 60.4726 75.5554C61.0606 75.1509 61.5897 74.7465 61.3913 74.0847L61.3987 74.0921Z" fill="#DBBAA0"/>
<path d="M71.298 27.2229C71.3348 27.62 71.7831 28.0171 72.1212 27.9215C72.3858 27.848 72.7018 27.7303 72.6577 27.3774C72.5916 26.8553 72.1873 26.8038 71.7611 26.8259C71.4965 26.8406 71.2907 26.9288 71.298 27.2229Z" fill="#DBBAA0"/>
<path d="M86.3281 33.9069C87.041 34.429 87.7098 33.8481 88.3713 33.9657C88.4962 33.9878 88.5918 33.7672 88.5403 33.5907C88.5036 33.4731 88.408 33.3334 88.2978 33.3775C87.6804 33.6422 86.8646 33.0907 86.3281 33.9069Z" fill="#866A45"/>
<path d="M84.9903 35.7377C85.0932 35.6789 85.2181 35.5171 85.1593 35.4951C84.8874 35.3701 85.0417 35.6495 84.9756 35.7304L84.9903 35.7451V35.7377Z" fill="#866A45"/>
<path d="M81.6685 38.1352C81.6685 38.1352 81.6905 38.1867 81.7052 38.2161C81.7346 38.1794 81.764 38.1426 81.7934 38.0985C81.764 38.0838 81.7346 38.0544 81.7199 38.0617C81.6979 38.0691 81.6832 38.1058 81.6685 38.1352Z" fill="#866A45"/>
<path d="M32.9116 100.328C32.9116 100.056 32.9924 99.7547 32.6323 99.6297C32.6617 99.4458 32.6985 99.2546 32.7279 99.0708C33.1174 98.1443 33.4996 97.2105 33.6833 96.2178C34.0214 96.2619 34.2198 96.4384 34.0949 96.7766C33.9332 97.1958 33.8891 97.6222 33.9479 98.1443C34.5873 97.7031 35.0062 98.5634 35.6236 98.3796C35.6236 98.4826 35.6236 98.5782 35.6236 98.6811C35.6309 98.7546 35.6236 98.8208 35.5942 98.8796C35.3296 99.0193 35.1458 99.2252 35.1385 99.5341C35.1238 99.9091 34.9989 100.262 34.7637 100.519C34.0728 101.277 33.9185 102.13 34.139 103.108C34.2125 103.446 34.2492 103.858 33.7274 103.939C33.6613 103.034 33.6172 102.122 33.2129 101.284C33.1541 100.953 33.3011 100.564 32.919 100.336L32.9116 100.328ZM34.0655 98.9311C34.0655 98.9311 34.0875 98.8649 34.1022 98.8282C34.0728 98.8208 34.0214 98.7988 34.014 98.8061C33.992 98.8355 33.992 98.8723 33.9773 98.909C34.0067 98.9164 34.0581 98.9385 34.0655 98.9311Z" fill="#968489"/>
<path d="M46.1117 116.285C46.0823 116.219 46.0676 116.116 46.0162 116.094C45.9721 116.072 45.8471 116.13 45.8324 116.175C45.8104 116.226 45.8692 116.344 45.9133 116.358C45.9647 116.38 46.0456 116.314 46.1117 116.277V116.285Z" fill="#77693C"/>
<path d="M46.4422 115.255C46.3687 115.255 46.2879 115.248 46.2217 115.255C46.1188 115.277 46.0233 115.314 45.9204 115.344C46.016 115.527 46.1629 115.469 46.2952 115.402C46.354 115.373 46.3981 115.3 46.4496 115.248L46.4422 115.255Z" fill="#77693C"/>
<path d="M32.912 100.328C32.912 100.056 32.9929 99.7549 32.6327 99.6299C32.3608 100.012 32.4564 100.24 32.912 100.328Z" fill="#726A3F"/>
<path d="M32.9412 102.005C32.9706 101.953 33 101.902 33.0294 101.843C32.853 101.755 32.7868 101.873 32.7207 101.998C32.7942 101.998 32.8677 101.998 32.9338 101.998L32.9412 102.005Z" fill="#726A3F"/>
<path d="M33.6764 96.2103C34.0145 96.2545 34.2129 96.4309 34.088 96.7692C33.9263 97.1883 33.8822 97.6148 33.941 98.1369C34.5804 97.6957 34.9993 98.556 35.6167 98.3722C35.7637 97.3721 35.3153 96.453 35.1316 95.5118C34.845 94.0338 34.7494 92.6293 35.2712 91.2028C35.3227 91.0557 35.2933 90.8866 35.308 90.7248C35.5211 88.188 35.602 85.6438 35.602 83.0922C35.602 81.026 35.6387 78.9671 35.5285 76.9009C35.3447 76.342 34.9773 76.0847 34.382 76.195C34.382 76.5112 34.382 76.8273 34.3746 77.1509C34.3305 77.6656 34.1468 78.0994 33.6838 78.3789C33.6029 79.651 33.8014 80.8936 34.0733 82.1363C34.2056 82.7246 34.1174 83.3202 34.1394 83.9158C34.1394 83.9967 34.1394 84.0849 34.1394 84.1658C34.1394 84.5702 34.1394 84.9673 34.1394 85.3717C34.8229 86.4968 34.698 87.6218 34.1394 88.7468C34.1394 89.6292 34.1394 90.5116 34.1394 91.394C34.1394 91.6587 34.1909 91.9455 33.9116 92.1219C33.8748 92.4749 33.9851 92.7911 34.1394 93.0926C34.1688 93.1146 34.2203 93.122 34.235 93.1514C34.2791 93.2249 34.235 93.2838 34.1394 93.3132C34.1394 93.8573 34.1394 94.4014 34.1468 94.9382C34.1468 95.2618 33.9998 95.4456 33.6838 95.4971C33.6838 95.7324 33.6838 95.9677 33.6838 96.203L33.6764 96.2103Z" fill="#8D9398"/>
<path d="M35.6162 98.3647C35.6162 98.4677 35.6162 98.5633 35.6162 98.6662C35.8073 98.5633 35.8367 98.4677 35.6162 98.3647Z" fill="#8D9398"/>
<path d="M34.1467 88.7472C34.7052 87.6221 34.8302 86.4971 34.1467 85.3721C33.7718 86.4971 33.7645 87.6221 34.1467 88.7472Z" fill="#968489"/>
<path d="M33.6834 95.5047C33.9994 95.4532 34.1538 95.2694 34.1464 94.9459C34.1464 94.4017 34.1464 93.8576 34.1391 93.3208C33.8157 93.3649 33.6687 93.5561 33.676 93.8723C33.676 94.4164 33.676 94.9606 33.676 95.5047H33.6834Z" fill="#968489"/>
<path d="M33.6911 78.3935C34.1467 78.1141 34.3378 77.6803 34.3819 77.1655C33.4191 77.1655 33.7278 77.8788 33.6911 78.3935Z" fill="#968489"/>
<path d="M33.9188 92.122C34.198 91.9455 34.154 91.6588 34.1466 91.394C33.8673 91.5705 33.9188 91.8573 33.9188 92.122Z" fill="#968489"/>
<path d="M34.1465 93.3134C34.242 93.284 34.2861 93.2325 34.242 93.1516C34.2273 93.1222 34.1832 93.1075 34.1465 93.0928C34.1465 93.1663 34.1465 93.2399 34.1465 93.3134Z" fill="#968489"/>
<path d="M34.1465 84.1733C34.1465 84.0925 34.1465 84.0042 34.1465 83.9233C34.0509 83.9601 34.0215 84.0189 34.0583 84.0998C34.073 84.1292 34.1171 84.1513 34.1465 84.1733Z" fill="#968489"/>
<path d="M33.9775 98.9091C33.9775 98.9091 34.0584 98.9385 34.0657 98.9312C34.0878 98.9017 34.0878 98.865 34.1025 98.8282C34.0731 98.8209 34.0216 98.7988 34.0143 98.8062C33.9922 98.8356 33.9922 98.8723 33.9775 98.9091Z" fill="#8D9398"/>
</svg>
