<svg width="323" height="506" viewBox="0 0 323 506" fill="none" xmlns="http://www.w3.org/2000/svg">
<path d="M321.021 431.406L320.844 431.465L320.66 431.428C320.484 431.392 320.308 431.362 320.139 431.325C319.455 430.84 318.75 430.892 318.029 431.222C317.713 431.208 317.397 431.186 317.089 431.171C316.714 431.134 316.339 431.097 315.957 431.061C315.677 431.061 315.398 431.068 315.119 431.075C314.377 430.943 313.627 430.781 312.995 431.399C310.29 431.972 307.622 432.656 305.219 434.127C297.26 439.017 293.526 446.201 293.82 455.466C293.894 457.76 293.239 458.495 290.888 458.444C283.906 458.297 276.924 458.437 269.942 458.37C268.479 458.356 267.494 458.775 266.48 459.885C257.653 469.577 247.18 477.099 235.553 483.048C218.429 491.813 200.21 496.798 181.13 498.776C152.982 501.681 125.59 498.703 99.1984 488.114C83.8012 481.937 69.9107 473.393 58.5264 461.187C56.4979 459.01 54.4989 458.334 51.8089 458.378C45.4222 458.473 39.0282 458.422 32.6341 458.525C30.6865 458.554 29.7385 458.054 29.8854 455.856C30.0104 453.944 29.8193 451.98 29.54 450.076C28.6066 443.73 25.0127 438.987 20.2209 435.009C21.0734 435.186 21.9553 434.384 22.8152 435.267C24.976 437.473 26.9824 439.782 28.4082 442.554C30.4807 446.576 31.0026 450.951 31.3112 455.348C31.4068 456.745 31.8404 457.473 33.2295 457.216C35.8312 456.723 38.4182 456.944 41.0052 457.245C46.6055 457.907 52.0147 455.598 57.6077 456.216C59.1511 456.054 59.9595 456.87 60.6504 458.172C61.7381 460.231 63.1492 462.025 65.7509 462.253C66.1478 462.554 66.5741 462.826 66.9489 463.157C80.5234 475.231 96.3321 483.283 113.625 488.335C145.735 497.71 177.985 497.805 210.08 488.276C231.063 482.048 249.833 471.922 264.444 455.106C265.319 454.098 266.267 453.804 267.509 453.811C272.889 453.848 278.276 453.841 283.656 453.833C286.894 453.829 288.82 452.277 289.432 449.179C289.447 449.098 289.491 449.017 289.506 448.936C292.328 435.561 302.684 426.98 316.758 426.369C317.985 425.752 317.5 424.605 317.5 423.685C317.53 408.428 317.53 393.17 317.507 377.912C317.507 377.029 317.823 376.037 316.956 375.324C316.956 375.007 316.956 374.699 316.956 374.382C317.823 373.662 317.507 372.669 317.507 371.787C317.522 340.977 317.522 310.167 317.507 279.364C317.507 278.482 317.823 277.482 316.949 276.769C316.949 276.46 316.949 276.151 316.949 275.842C317.926 274.96 317.5 273.783 317.5 272.747C317.522 209.789 317.522 146.831 317.515 83.8727C317.515 82.6962 317.515 81.5197 317.515 80.3358C317.515 79.8432 317.405 79.4829 316.831 79.9388C316.501 79.8946 316.162 79.8211 315.832 79.8138C301.721 79.5932 289.741 67.9531 289.183 53.9158C289.116 52.2761 288.227 52.2614 287.044 52.254C280.826 52.2173 274.609 52.0702 268.391 52.1217C266.48 52.1364 265.157 51.6511 263.856 50.151C255.985 41.0845 246.511 34.0108 235.987 28.3562C213.027 16.0175 188.296 10.8556 162.441 10.6791C144.589 10.5615 127.068 13.0689 110.083 18.7235C90.3717 25.2825 72.7329 35.1873 58.9159 51.0922C58.1222 52.004 57.3505 52.1069 56.2995 52.1069C49.8246 52.0775 43.357 52.129 36.8821 52.0775C35.2432 52.0628 34.4421 52.4673 34.4274 54.3276C34.4054 56.0703 34.0232 57.8351 33.5969 59.541C31.1202 69.431 21.5217 79.7549 6.73457 79.8799C6.52879 79.6593 6.33035 79.4387 6.12456 79.2181C6.41119 78.3431 6.40384 76.7916 7.82229 77.4828C10.8062 78.9461 13.305 77.4975 15.9582 76.4239C12.673 76.071 9.34364 77.2548 6.10986 76.1666C6.10986 75.8504 6.10986 75.5415 6.10986 75.2254C10.5563 75.2548 14.8117 74.468 18.6187 72.0561C26.4606 67.0927 30.3338 59.9602 29.8266 50.6437C29.6944 48.2098 30.1721 47.298 32.8914 47.3862C39.7778 47.6068 46.679 47.3641 53.5728 47.4671C55.3734 47.4965 56.52 46.8641 57.6738 45.5994C66.5594 35.8344 77.1647 28.3341 88.9018 22.4516C110.789 11.4806 134.167 6.6128 158.494 6.09073C173.502 5.76719 188.362 7.31136 202.973 10.9365C227.27 16.9587 249.121 27.4297 266.451 46.0553C267.48 47.1656 268.545 47.4818 269.978 47.4744C276.96 47.4156 283.942 47.5259 290.917 47.4009C293.137 47.3641 294.063 47.8274 293.842 50.276C293.423 54.9894 294.283 59.5484 296.775 63.6147C301.669 71.6002 308.806 75.5415 318.242 75.2254C319.264 75.1886 320.638 74.3945 321.351 75.9533C320.881 76.9975 321.079 78.1078 321.079 79.1961C321.072 181.861 321.079 284.526 321.079 387.192C321.079 401.927 321.035 416.67 321.013 431.406H321.021Z" fill="#AD675C"/>
<path d="M20.2356 435.009C25.0275 438.987 28.6214 443.73 29.5548 450.076C29.8341 451.981 30.0251 453.944 29.9002 455.856C29.7532 458.054 30.6939 458.554 32.6489 458.525C39.0356 458.422 45.4297 458.473 51.8237 458.378C54.5136 458.341 56.5127 459.01 58.5411 461.187C69.9255 473.386 83.8087 481.93 99.2132 488.114C125.605 498.703 152.997 501.688 181.145 498.776C200.224 496.806 218.444 491.813 235.568 483.048C247.195 477.099 257.668 469.577 266.495 459.885C267.509 458.775 268.486 458.356 269.956 458.37C276.938 458.437 283.92 458.297 290.902 458.444C293.247 458.495 293.908 457.76 293.835 455.466C293.541 446.201 297.274 439.017 305.234 434.127C307.637 432.649 310.298 431.972 313.01 431.399C313.745 431.487 314.48 431.539 315.134 431.075C315.413 431.075 315.692 431.068 315.971 431.061C316.324 431.355 316.699 431.392 317.103 431.171C317.419 431.186 317.735 431.208 318.044 431.222C318.735 431.509 319.44 431.465 320.153 431.318C320.33 431.355 320.506 431.384 320.675 431.421C316.875 431.686 313.612 433.142 310.489 435.355C309.798 435.848 308.049 435.752 306.851 436.348C305.021 437.252 303.088 437.921 304.242 440.701C304.455 441.215 303.793 442.23 303.345 442.87C300.405 447.046 299.288 451.708 299.391 456.76C299.442 459.113 299.347 461.466 299.318 463.819C299.185 464.003 299.053 464.194 298.921 464.378L298.965 464.334C298.774 464.474 298.583 464.606 298.392 464.746C298.046 464.746 297.708 464.746 297.363 464.746C296.525 464.091 295.694 464.091 294.856 464.746C290.476 464.746 286.096 464.746 281.716 464.746C281.532 464.606 281.348 464.466 281.157 464.327C279.856 464.327 278.555 464.327 277.254 464.327C277.063 464.466 276.872 464.606 276.681 464.746C276.343 464.746 275.998 464.746 275.66 464.746C274.491 464.062 273.315 464.069 272.139 464.746C271.816 464.79 271.492 464.834 271.162 464.878C269.104 464.238 267.803 465.172 267.612 467.422C263.812 471.569 259.425 475.018 254.912 478.342C249.062 482.643 243.043 486.665 236.45 489.688C229.703 492.783 222.817 495.504 215.717 497.784C208.456 500.114 201.033 501.695 193.676 503.592C192.493 503.894 191.185 503.71 189.935 503.747C189.369 503.74 188.774 503.622 188.355 504.166C188.223 504.247 188.083 504.276 187.929 504.254C184.423 503.835 180.984 504.879 177.485 504.747C176.831 504.725 176.346 504.96 176.236 505.681C174.553 505.681 172.862 505.681 171.179 505.681C171.025 505.431 170.863 505.431 170.694 505.681C162.617 505.681 154.533 505.681 146.456 505.688C146.367 505.115 146.044 504.754 145.456 504.769C141.186 504.916 137.056 503.306 132.756 503.754C131.94 503.725 131.117 503.695 130.301 503.666C128.376 501.879 126.098 501.806 123.702 502.284C123.209 502.24 122.717 502.195 122.224 502.144C122.033 502.004 121.835 501.865 121.644 501.732C120.997 501.703 120.35 501.673 119.704 501.644C119.512 501.512 119.321 501.372 119.138 501.239L119.174 501.276C117.91 499.357 115.926 499.754 114.089 499.71C109.054 499.026 104.475 496.85 99.8305 495.033C90.0778 491.21 80.7072 486.621 72.0054 480.665C66.5447 476.93 61.3413 472.93 56.7773 468.18C54.5577 465.871 52.3602 464.246 49.0456 464.753C46.0176 463.746 42.9088 464.437 39.8441 464.356C37.8817 464.304 35.8386 463.812 33.9204 464.753C31.2231 464.753 28.5258 464.753 25.8359 464.753C25.6449 464.613 25.4611 464.474 25.27 464.334C23.9618 464.496 24.3954 463.518 24.3146 462.871C24.175 462.679 24.0353 462.488 23.8957 462.297C23.8957 461.113 23.8957 459.929 23.8957 458.745C24.3587 458.415 24.3513 458.084 23.8957 457.753C23.8957 455.723 23.8957 453.701 23.8957 451.672C23.9545 451.628 24.0721 451.561 24.0647 451.539C24.028 451.414 23.9618 451.304 23.903 451.186C22.2053 445.399 19.1773 440.62 13.4227 438.171C11.4457 437.326 9.24816 437.002 7.1462 436.443C6.24222 435.311 5.13245 435.818 4.05942 436.046C3.90508 436.061 3.75809 436.031 3.6258 435.951C4.324 433.892 2.14856 433.333 1.5459 431.95C1.59 431.789 1.64144 431.62 1.68554 431.458C2.17795 431.083 2.03096 430.531 2.08241 430.031C2.19265 430.053 2.29555 430.075 2.40579 430.097C2.55278 431.259 3.28038 431.208 4.12557 430.928C5.63221 430.972 7.13886 431.024 8.63815 431.068C9.43924 431.634 10.3285 431.502 11.2105 431.414C14.4663 432.009 17.3914 433.421 20.243 435.024L20.2356 435.009Z" fill="#CEBFAB"/>
<path d="M4.11064 430.921C3.2728 431.193 2.53785 431.252 2.39086 430.09C2.86857 422.501 2.49375 414.905 2.58194 407.31C2.59664 406.082 2.89797 404.802 2.28061 403.618C2.21447 403.434 2.14832 403.243 2.08218 403.06C2.08218 402.787 2.08218 402.515 2.08218 402.251C2.14832 402.067 2.21447 401.883 2.28061 401.699C2.86122 400.765 2.59664 399.729 2.59664 398.743C2.61134 358.485 2.61134 318.233 2.59664 277.974C2.59664 277.063 2.81713 276.114 2.31001 275.254C2.23652 275.077 2.16302 274.893 2.08218 274.717C2.03808 274.563 2.05278 274.416 2.13362 274.276C2.84652 273.607 2.81713 272.938 2.12628 272.276C2.03808 272.143 2.02338 272.004 2.08218 271.857C2.14832 271.68 2.22182 271.511 2.28796 271.335C2.69954 267.599 2.99351 263.871 2.11892 260.15C2.03073 260.018 2.01603 259.878 2.07483 259.731C2.14097 259.555 2.20712 259.386 2.28061 259.209C2.80243 258.444 2.60399 257.577 2.60399 256.753C2.60399 205.274 2.60399 153.794 2.58194 102.314C2.58194 101.505 2.87592 100.616 2.13362 99.9392C2.04543 99.8068 2.02338 99.6671 2.08953 99.5127C2.15567 99.3289 2.22917 99.145 2.29531 98.9612C2.80243 94.0419 2.81713 89.13 2.29531 84.2107C2.24387 83.2254 2.19242 82.2327 2.14832 81.2474C2.14832 81.2474 2.33206 81.2621 2.32471 81.2621C2.77303 80.2179 2.75833 79.1738 2.31736 78.137C2.33941 77.2473 2.07483 76.3355 2.5158 75.4751C2.74363 75.409 2.96412 75.3428 3.19195 75.2692C4.17678 75.6884 5.15426 75.2913 6.13174 75.2178C6.13174 75.534 6.13174 75.8428 6.13174 76.159C5.33065 76.2399 4.28702 75.8428 4.11064 77.1737C2.79508 77.3723 3.1993 78.4017 3.12581 79.2032C3.12581 190.619 3.09641 302.034 3.1699 413.45C3.1699 419.266 2.14097 425.193 4.11798 430.921H4.11064Z" fill="#96605C"/>
<path d="M321.366 75.9605C321.484 76.0119 321.579 76.0928 321.638 76.2105C321.623 111.248 321.601 146.294 321.601 181.332C321.601 263.878 321.601 346.425 321.572 428.972C321.572 429.766 322.196 430.825 321.028 431.406C321.05 416.67 321.094 401.927 321.094 387.191C321.094 284.526 321.094 181.861 321.094 79.1959C321.094 78.115 320.896 77.0046 321.366 75.9531V75.9605Z" fill="#AF938C"/>
<path d="M2.12664 99.9395C2.87629 100.616 2.57496 101.506 2.57496 102.315C2.58966 153.794 2.59701 205.274 2.59701 256.753C2.59701 257.577 2.7881 258.445 2.27363 259.209C2.21484 258.121 2.09724 257.033 2.09724 255.945C2.08254 206.627 2.08254 157.309 2.0752 107.991C2.08989 105.307 2.11194 102.623 2.12664 99.9395Z" fill="#C5908B"/>
<path d="M2.07488 107.991C2.07488 157.309 2.08223 206.627 2.09693 255.945C2.09693 257.033 2.21452 258.121 2.27332 259.209C2.20717 259.386 2.14102 259.555 2.06753 259.732C1.16354 259.114 1.61186 258.187 1.61186 257.423C1.58981 208.37 1.58981 159.324 1.61186 110.271C1.61186 109.521 1.1268 108.587 2.07488 107.991Z" fill="#FCFBFB"/>
<path d="M2.08219 274.71C2.15568 274.886 2.22918 275.07 2.31002 275.247C2.24388 276.078 2.11159 276.916 2.11159 277.747C2.10424 318.226 2.10424 358.705 2.11159 399.185C2.11159 400.023 2.22183 400.854 2.28063 401.692C2.21448 401.876 2.14833 402.06 2.08219 402.244C1.1635 401.633 1.61917 400.707 1.61917 399.942C1.59712 358.963 1.59712 317.991 1.61917 277.012C1.61917 276.254 1.15615 275.32 2.08219 274.717V274.71Z" fill="#FCFBFB"/>
<path d="M132.756 503.754C137.048 503.313 141.179 504.916 145.456 504.769C146.044 504.747 146.368 505.115 146.456 505.688C141.723 506.225 137.159 505.6 132.764 503.754H132.756Z" fill="#FBF5F0"/>
<path d="M176.229 505.688C176.339 504.967 176.816 504.732 177.478 504.754C180.976 504.894 184.416 503.842 187.922 504.261C187.606 505.159 187.385 505.894 186.025 505.813C182.77 505.622 179.499 505.71 176.236 505.688H176.229Z" fill="#FBF5F0"/>
<path d="M2.0897 403.06C2.15585 403.243 2.22199 403.435 2.28814 403.618C2.22934 404.538 2.12645 405.449 2.1191 406.369C2.0897 414.251 2.08235 422.134 2.06765 430.024C2.00886 430.524 2.1632 431.075 1.67078 431.45C1.64139 422.413 1.61934 413.383 1.59729 404.346C1.59729 403.868 1.47235 403.317 2.0897 403.067V403.06Z" fill="#FBF5F0"/>
<path d="M2.28821 98.9614C2.22206 99.1452 2.14857 99.3291 2.08242 99.5129C1.46506 99.2629 1.59736 98.7114 1.59736 98.2334C1.6194 92.5641 1.6488 86.9022 1.6782 81.2402C1.83254 81.2476 1.98688 81.2476 2.13387 81.2402C2.18531 82.2256 2.23676 83.2182 2.28086 84.2036C1.97953 89.1228 1.95748 94.0348 2.28086 98.9541L2.28821 98.9614Z" fill="#FCFBFB"/>
<path d="M33.8984 464.753C35.8167 463.812 37.8598 464.304 39.8221 464.356C42.8869 464.429 46.003 463.745 49.0237 464.753C43.9819 464.753 38.9402 464.753 33.8984 464.753Z" fill="#FCFBFB"/>
<path d="M1.53106 431.936C2.13372 433.318 4.30917 433.877 3.61097 435.936C0.869608 435.95 0.494784 435.215 1.53106 431.936Z" fill="#FBF5F0"/>
<path d="M27.3644 41.2386C26.2546 41.8636 24.9684 42.2828 25.2036 44.0475C25.3065 44.8049 24.4613 44.7902 23.8807 44.8343C23.697 40.9151 24.3437 40.2459 27.3644 41.2386Z" fill="#FBF5F0"/>
<path d="M123.694 502.291C126.09 501.805 128.369 501.886 130.294 503.673C128.008 503.614 125.767 503.357 123.694 502.291Z" fill="#FBF5F0"/>
<path d="M2.11932 260.143C2.99391 263.856 2.69993 267.592 2.28836 271.327C2.21486 268.43 2.14137 265.54 2.06787 262.643C2.08257 261.812 2.10462 260.974 2.11932 260.143Z" fill="#C5908B"/>
<path d="M16.7154 65.9897C16.1421 67.9457 14.0769 67.8869 12.7687 68.8501C12.4233 69.1075 12.2395 68.409 12.1587 68.0192C13.68 67.3427 15.194 66.6662 16.7154 65.9897Z" fill="#FBF5F0"/>
<path d="M2.06777 262.643C2.14126 265.54 2.21476 268.43 2.28826 271.327C2.22211 271.504 2.14861 271.673 2.08247 271.849C1.27402 268.783 1.28137 265.717 2.06777 262.643Z" fill="#FCFBFB"/>
<path d="M267.604 467.429C267.796 465.179 269.104 464.246 271.154 464.885C269.971 465.731 268.788 466.584 267.604 467.429Z" fill="#FBF5F0"/>
<path d="M114.074 499.71C115.918 499.754 117.895 499.35 119.16 501.276C117.403 500.953 115.624 500.695 114.074 499.71Z" fill="#FBF5F0"/>
<path d="M4.04492 436.039C5.11795 435.811 6.22772 435.311 7.13171 436.436C6.09543 436.362 4.96361 437.009 4.04492 436.039Z" fill="#FBF5F0"/>
<path d="M272.132 464.753C273.308 464.076 274.476 464.069 275.652 464.753C274.484 464.753 273.308 464.753 272.132 464.753Z" fill="#FBF5F0"/>
<path d="M294.842 464.753C295.68 464.099 296.51 464.099 297.348 464.753C296.51 464.753 295.68 464.753 294.842 464.753Z" fill="#FCFBFB"/>
<path d="M23.8662 52.4229C24.5277 53.2538 24.5203 54.092 23.8736 54.9303C23.8736 54.092 23.8736 53.2611 23.8662 52.4229Z" fill="#FBF5F0"/>
<path d="M2.12633 272.269C2.81718 272.93 2.84658 273.599 2.13368 274.269C2.11898 273.599 1.50897 272.938 2.12633 272.269Z" fill="#C5908B"/>
<path d="M188.348 504.173C188.767 503.629 189.362 503.74 189.928 503.754C189.575 504.548 188.914 504.181 188.348 504.173Z" fill="#FBF5F0"/>
<path d="M23.8735 457.752C24.3292 458.083 24.3366 458.414 23.8735 458.745C23.8735 458.414 23.8735 458.083 23.8735 457.752Z" fill="#FCFBFB"/>
<path d="M281.149 464.326C281.333 464.466 281.517 464.606 281.708 464.745C281.355 464.826 281.23 464.606 281.149 464.326Z" fill="#FCFBFB"/>
<path d="M276.674 464.753C276.865 464.613 277.056 464.473 277.247 464.333C277.159 464.613 277.034 464.841 276.674 464.753Z" fill="#FBF5F0"/>
<path d="M298.377 464.745C298.568 464.606 298.759 464.473 298.95 464.333C298.855 464.606 298.73 464.834 298.377 464.745Z" fill="#FCFBFB"/>
<path d="M25.248 464.326C25.4391 464.466 25.6229 464.606 25.814 464.745C25.4612 464.826 25.3362 464.606 25.248 464.326Z" fill="#FCFBFB"/>
<path d="M298.906 464.385C299.038 464.201 299.17 464.01 299.303 463.826C299.398 464.179 299.17 464.297 298.906 464.385Z" fill="#FCFBFB"/>
<path d="M321.425 73.6811C319.088 70.9898 316.442 69.2177 312.738 68.4382C306.13 67.0485 299.428 60.5483 299.876 52.3862C300.045 49.3641 299.781 46.3272 299.928 43.3051C300.008 41.6065 299.45 41.2462 297.84 41.2609C289.609 41.3418 281.37 41.2756 273.139 41.3197C271.735 41.3197 270.566 40.9962 269.559 39.9961C267.796 38.2314 265.87 36.6284 264.084 34.9151C256.213 27.3634 247.099 21.6426 237.53 16.6645C228.843 12.1423 219.656 8.67891 210.22 6.03912C206.883 5.10527 203.576 3.70081 199.982 3.86258C198.446 2.81843 196.52 3.20814 194.903 2.46547L193.294 2.5243C192.89 2.15664 192.53 1.68604 191.875 1.95075C191.045 1.90663 190.214 1.86987 189.384 1.82575C188.642 0.97278 187.694 1.49486 186.826 1.45809C186.672 1.39191 186.51 1.34779 186.349 1.31838C183.085 -0.277264 179.616 0.524233 176.228 0.450701C174.545 0.450701 172.855 0.4507 171.172 0.443347C171.01 0.362462 170.849 0.362462 170.687 0.443347C162.602 0.443347 154.525 0.443347 146.441 0.443347C145.353 0.421287 144.258 0.28893 143.185 0.391875C141.208 0.575704 139.025 -0.372853 137.298 1.35515C133.579 1.61251 129.875 1.98016 126.259 2.97284C125.59 2.6346 125.238 3.27432 124.745 3.47286H123.731C120.152 4.3773 116.455 4.84791 113.06 6.41413C112.721 6.41413 112.354 6.33325 112.06 6.44355C105.46 8.79657 98.8236 11.0466 92.3487 13.76C78.9139 19.3851 67.0592 27.4222 56.7037 37.5696C53.9991 40.2167 51.1549 41.2168 47.7668 41.2682C40.9685 41.3712 34.1629 41.2682 27.3572 41.2535C26.2475 41.8785 24.9613 42.2977 25.1965 44.0624C25.2994 44.8198 24.4542 44.8051 23.8736 44.8492C23.8736 47.3787 23.8589 49.9082 23.8589 52.4377C24.5203 53.2686 24.513 54.1069 23.8662 54.9451C23.2489 57.5555 22.3228 60.0336 20.4708 62.0483C19.2361 63.3866 17.9646 64.6881 16.7078 66.0043C16.1346 67.9603 14.0694 67.9015 12.7612 68.8647C12.4157 69.1221 12.232 68.4235 12.1512 68.0338C11.8278 68.0779 11.4971 68.1221 11.1737 68.1662C10.9826 68.3059 10.7915 68.4529 10.6004 68.5927C8.0428 68.4677 5.56603 69.453 2.98636 69.1C0.656572 68.7765 0.156809 70.4236 0.634526 72.0045C1.54586 75.0635 1.54586 78.1518 1.6708 81.2622C1.82514 81.2695 1.97948 81.2695 2.12647 81.2622L2.31021 81.2769C2.00153 80.2328 2.00888 79.196 2.30286 78.1518C2.3249 77.2621 2.06032 76.3503 2.50129 75.4899C2.64828 75.159 2.88347 75.1296 3.17745 75.2841C4.16228 75.7032 5.13976 75.3061 6.11724 75.2326C10.5637 75.262 14.819 74.4752 18.6261 72.0634C26.468 67.1 30.3411 59.9674 29.834 50.6509C29.7017 48.217 30.1794 47.3052 32.8988 47.3934C39.7852 47.614 46.6864 47.3714 53.5802 47.4743C55.3808 47.5037 56.5273 46.8713 57.6812 45.6066C66.5667 35.8416 77.172 28.3413 88.9092 22.4588C110.796 11.4878 134.175 6.62002 158.501 6.09795C173.509 5.77441 188.37 7.31857 202.98 10.9437C227.278 16.966 249.128 27.4369 266.458 46.0625C267.487 47.1728 268.553 47.489 269.986 47.4817C276.968 47.4228 283.95 47.5331 290.924 47.4081C293.144 47.3714 294.07 47.8346 293.85 50.2832C293.431 54.9966 294.29 59.5556 296.782 63.6219C301.677 71.6075 308.813 75.5488 318.25 75.2326C319.271 75.1958 320.646 74.4017 321.359 75.9605C321.476 76.012 321.572 76.0929 321.631 76.2106C322.512 75.2914 322.152 74.5193 321.425 73.6811Z" fill="#CEBFAB"/>
<path d="M119.123 501.239C119.314 501.372 119.505 501.511 119.689 501.644C119.344 501.732 119.211 501.504 119.123 501.239Z" fill="#FBF5F0"/>
<path d="M121.636 501.739C121.827 501.879 122.026 502.019 122.217 502.151C121.864 502.239 121.739 502.004 121.636 501.739Z" fill="#FBF5F0"/>
<path d="M23.8737 462.297C24.0134 462.488 24.153 462.679 24.2927 462.87C24.0134 462.782 23.7855 462.657 23.8737 462.297Z" fill="#FCFBFB"/>
<path d="M23.8808 451.179C23.9396 451.296 24.0058 451.407 24.0425 451.532C24.0499 451.561 23.9323 451.62 23.8735 451.664C23.7926 451.502 23.8 451.34 23.8808 451.179Z" fill="#FCFBFB"/>
<path d="M11.1812 68.1513C10.9901 68.291 10.799 68.4307 10.6079 68.5778C10.6961 68.2983 10.821 68.0704 11.1812 68.1513Z" fill="#FBF5F0"/>
<path d="M170.687 505.681C170.849 505.438 171.01 505.438 171.172 505.681L170.93 505.739L170.687 505.673V505.681Z" fill="#FBF5F0"/>
<path d="M6.75686 79.8796C21.5514 79.7472 31.1424 69.4307 33.6192 59.5407C34.0455 57.8347 34.435 56.07 34.4497 54.3273C34.4718 52.4669 35.2655 52.0625 36.9044 52.0772C43.3793 52.1287 49.8469 52.0772 56.3218 52.1066C57.3727 52.1066 58.1444 52.0037 58.9382 51.0919C72.7552 35.1869 90.394 25.2748 110.105 18.7231C127.09 13.0685 144.611 10.5611 162.463 10.6788C188.318 10.8552 213.049 16.0172 236.009 28.3558C246.541 34.0104 256.007 41.0842 263.879 50.1507C265.179 51.6507 266.502 52.136 268.413 52.1213C274.631 52.0698 280.848 52.2095 287.066 52.2537C288.249 52.261 289.139 52.2757 289.205 53.9155C289.771 67.9601 301.743 79.5928 315.854 79.8134C316.185 79.8134 316.523 79.8943 316.854 79.9384C316.133 82.6003 316.817 85.2695 316.876 87.9313C317.074 96.5492 316.464 105.16 316.81 113.785C317.052 119.991 316.574 126.234 316.67 132.425C316.787 139.793 316.538 147.169 316.839 154.536C316.986 158.14 316.479 161.794 316.677 165.346C316.956 170.427 316.648 175.493 316.692 180.552C316.758 187.854 316.912 195.17 316.618 202.479C316.582 203.038 316.486 203.604 316.868 204.097C316.868 204.898 316.868 205.693 316.861 206.494C316.222 210.56 316.677 214.641 316.618 218.715C316.699 225.48 316.824 232.252 316.861 239.017C316.927 251.29 316.934 263.569 316.971 275.842C316.971 276.151 316.971 276.46 316.971 276.768C316.934 278.283 316.868 279.791 316.868 281.305C316.868 299.299 316.846 317.292 316.868 335.292C316.883 348.322 316.934 361.352 316.979 374.389C316.979 374.705 316.979 375.014 316.979 375.331C316.942 376.338 316.883 377.338 316.883 378.345C316.846 394.361 316.817 410.368 316.78 426.384C302.706 426.994 292.35 435.575 289.528 448.951C289.514 449.031 289.469 449.112 289.455 449.193C288.842 452.282 286.917 453.833 283.678 453.848C278.298 453.855 272.911 453.87 267.531 453.826C266.282 453.818 265.334 454.113 264.466 455.12C249.856 471.937 231.085 482.062 210.102 488.29C178.007 497.82 145.765 497.732 113.648 488.349C96.3544 483.297 80.5457 475.246 66.9712 463.172C66.5964 462.841 66.1774 462.569 65.7732 462.267C63.6639 459.988 61.4738 457.782 59.4821 455.399C58.4458 454.157 57.336 453.782 55.7853 453.796C49.5602 453.87 43.3426 453.76 37.1176 453.862C35.2729 453.892 34.5673 453.304 34.5085 451.473C34.4497 449.811 34.3174 448.105 33.4649 446.59C33.3252 446.024 33.2517 445.428 33.046 444.892C28.3643 432.965 19.4347 427.045 6.82301 426.34C6.81566 425.244 6.80096 424.148 6.80096 423.053C6.80096 379.787 6.81566 336.52 6.81566 293.254C6.81566 241.238 6.81566 189.214 6.80096 137.198C6.80096 118.087 6.76421 98.9831 6.74951 79.8722L6.75686 79.8796ZM307.351 418.714C308.483 417.891 307.931 416.692 307.931 415.685C307.961 380.985 307.953 346.285 307.953 311.578C307.953 245.716 307.968 179.846 307.953 113.984C307.953 105.395 307.836 96.814 307.777 88.2254C307.512 87.2916 306.638 87.3283 305.954 87.093C293.982 82.9017 285.912 74.7912 281.804 62.7981C281.326 61.4084 280.746 60.9819 279.335 61.0039C274.036 61.0848 268.737 61.0334 263.438 61.0554C262.232 61.0554 261.24 60.9672 260.373 59.8348C249.297 45.3417 234.503 35.9958 217.761 29.547C188.877 18.429 159.134 16.6201 128.993 22.7894C103.204 28.069 80.1121 38.6135 63.1935 59.8863C62.3924 60.8936 61.4885 61.0481 60.3419 61.0407C55.1312 61.004 49.913 61.0922 44.7022 60.9672C42.9604 60.9304 42.3431 61.526 41.7624 63.1658C37.632 74.7985 29.8342 82.8797 18.0751 86.9019C16.4949 87.4386 15.8261 88.049 15.8335 89.8505C15.8996 111.072 15.8555 132.293 15.8629 153.514C15.8629 211.538 15.8776 269.555 15.8776 327.579C15.8776 357.051 15.8776 386.529 15.8482 416.001C15.8482 417.516 15.9217 418.589 17.759 419.229C29.6358 423.325 37.7276 431.34 41.8286 443.252C42.3137 444.664 42.9898 445.024 44.3421 445.017C49.6411 444.965 54.9401 445.039 60.239 444.995C61.584 444.98 62.5394 445.267 63.4581 446.421C75.3128 461.4 90.879 471.098 108.606 477.407C140.635 488.805 173.134 489.592 205.781 480.43C227.256 474.4 246.262 464.083 260.395 446.178C261.189 445.171 262.071 444.972 263.224 444.98C268.604 445.024 273.991 444.98 279.371 445.039C280.731 445.053 281.341 444.678 281.841 443.252C286.228 430.825 294.783 422.656 307.343 418.7L307.351 418.714Z" fill="#CEBFAB"/>
<path d="M6.82301 426.34C19.4274 427.046 28.3643 432.965 33.046 444.892C33.2591 445.429 33.3326 446.024 33.4649 446.591C32.9063 448.194 33.4869 449.811 33.4428 451.422C33.3767 453.679 34.7804 455.216 37 455.164C42.49 455.047 47.9948 455.635 53.4922 454.811C54.8666 454.606 56.9759 453.686 57.6373 456.223C52.0444 455.606 46.6352 457.914 41.0349 457.253C38.4552 456.944 35.8608 456.731 33.2591 457.223C31.8627 457.488 31.4364 456.753 31.3409 455.356C31.0322 450.951 30.503 446.576 28.4378 442.561C27.0047 439.789 25.0056 437.48 22.8449 435.274C21.9776 434.392 21.0957 435.193 20.2505 435.017C17.3989 433.414 14.4665 432.002 11.218 431.406C10.4316 430.752 9.53497 430.921 8.64568 431.061C7.13903 431.016 5.63239 430.965 4.1331 430.921C2.15609 425.193 3.18501 419.273 3.17766 413.45C3.11152 302.034 3.13357 190.619 3.13357 79.2034C4.93419 78.2475 5.05913 77.9901 4.1184 77.1739C4.29479 75.843 5.33841 76.2401 6.13951 76.1592C9.37328 77.2475 12.7099 76.0636 15.9878 76.4165C13.3347 77.4901 10.8432 78.946 7.85194 77.4754C6.43349 76.7768 6.44083 78.3357 6.1542 79.2107C6.1542 140.86 6.14685 202.509 6.13951 264.165C6.13951 317.138 6.1395 370.117 6.17625 423.09C6.17625 424.163 5.56624 425.472 6.83036 426.332L6.82301 426.34Z" fill="#B1645B"/>
<path d="M6.82299 426.34C5.55153 425.479 6.16889 424.17 6.16889 423.097C6.13214 370.124 6.13214 317.145 6.13214 264.172C6.13214 202.523 6.13949 140.874 6.14684 79.2178C6.35263 79.4384 6.55106 79.659 6.75685 79.8796C6.7789 98.9905 6.80829 118.094 6.80829 137.205C6.81564 189.221 6.82299 241.245 6.82299 293.262C6.82299 336.528 6.80829 379.794 6.80829 423.06C6.80829 424.156 6.82299 425.251 6.83034 426.347L6.82299 426.34Z" fill="#9D5F53"/>
<path d="M316.868 206.502C316.868 205.7 316.868 204.906 316.875 204.105C317.081 203.524 317.199 202.95 316.626 202.487C316.92 195.178 316.758 187.861 316.699 180.56C316.655 175.501 316.964 170.434 316.684 165.353C316.486 161.794 316.993 158.147 316.846 154.544C316.545 147.176 316.795 139.801 316.677 132.433C316.581 126.234 317.059 119.992 316.817 113.793C316.479 105.168 317.081 96.557 316.883 87.9391C316.824 85.2772 316.141 82.6154 316.861 79.9462C317.434 79.4903 317.537 79.8506 317.544 80.3432C317.552 81.5198 317.544 82.6963 317.544 83.8801C317.544 146.838 317.544 209.796 317.53 272.754C317.53 273.791 317.956 274.967 316.978 275.85C316.942 263.577 316.934 251.297 316.868 239.025C316.831 232.26 316.714 225.488 316.626 218.723C317.485 214.664 317.03 210.583 316.868 206.502Z" fill="#A15D56"/>
<path d="M57.6372 456.223C56.9831 453.686 54.8665 454.605 53.4921 454.811C47.9947 455.635 42.4973 455.047 36.9999 455.164C34.7803 455.216 33.3766 453.679 33.4427 451.421C33.4942 449.811 32.9062 448.193 33.4648 446.59C34.3173 448.105 34.4496 449.811 34.5084 451.473C34.5745 453.304 35.2727 453.892 37.1175 453.863C43.3351 453.752 49.5601 453.863 55.7852 453.796C57.3359 453.782 58.4457 454.157 59.4819 455.399C61.4736 457.775 63.6638 459.988 65.7731 462.267C63.1714 462.047 61.7603 460.245 60.6726 458.186C59.9817 456.885 59.1733 456.069 57.6299 456.23L57.6372 456.223Z" fill="#A96F66"/>
<path d="M316.986 374.389C316.949 361.36 316.89 348.33 316.876 335.293C316.853 317.299 316.876 299.306 316.876 281.305C316.876 279.791 316.942 278.283 316.978 276.769C317.853 277.482 317.537 278.475 317.537 279.357C317.552 310.167 317.552 340.977 317.537 371.779C317.537 372.661 317.853 373.661 316.986 374.375V374.389Z" fill="#A15D56"/>
<path d="M316.787 426.376C316.817 410.361 316.846 394.353 316.89 378.338C316.89 377.331 316.956 376.331 316.986 375.323C317.853 376.037 317.537 377.029 317.537 377.912C317.551 393.169 317.559 408.427 317.529 423.685C317.529 424.604 318.014 425.751 316.787 426.369V426.376Z" fill="#A15D56"/>
<path d="M315.119 431.075C314.465 431.538 313.737 431.487 312.995 431.399C313.627 430.781 314.377 430.943 315.119 431.075Z" fill="#AF938C"/>
<path d="M320.139 431.325C319.426 431.472 318.72 431.516 318.029 431.23C318.75 430.891 319.455 430.84 320.139 431.325Z" fill="#AF938C"/>
<path d="M317.081 431.171C316.677 431.391 316.302 431.355 315.949 431.061C316.324 431.097 316.699 431.134 317.081 431.171Z" fill="#AF938C"/>
<path d="M2.31021 78.1372C2.75118 79.1814 2.76588 80.2182 2.31756 81.2623C2.00888 80.2182 2.01623 79.1814 2.31021 78.1372Z" fill="#C5908B"/>
<path d="M3.18494 75.2692C2.95711 75.3353 2.73662 75.4089 2.50879 75.4751C2.65578 75.1442 2.89096 75.1147 3.18494 75.2692Z" fill="#C5908B"/>
<path d="M2.06787 430.017C2.08257 422.134 2.08992 414.251 2.11932 406.361C2.11932 405.442 2.22956 404.53 2.28836 403.611C2.90571 404.795 2.60439 406.075 2.58969 407.303C2.50149 414.898 2.87631 422.494 2.3986 430.083C2.28836 430.061 2.17811 430.039 2.07522 430.017H2.06787Z" fill="#C5908B"/>
<path d="M8.63086 431.053C9.52015 430.913 10.4168 430.744 11.2032 431.399C10.3139 431.494 9.4246 431.619 8.63086 431.053Z" fill="#D5978B"/>
<path d="M2.281 401.692C2.2222 400.854 2.11196 400.023 2.11196 399.184C2.10461 358.705 2.10461 318.226 2.11196 277.747C2.11196 276.916 2.2369 276.077 2.31039 275.247C2.82486 276.107 2.59702 277.055 2.60437 277.967C2.61907 318.226 2.61907 358.477 2.60437 398.736C2.60437 399.721 2.86896 400.765 2.28835 401.692H2.281Z" fill="#C5908B"/>
<path d="M2.28805 98.9614C1.96467 94.0421 1.98672 89.1302 2.28805 84.2109C2.81721 89.1302 2.79516 94.0421 2.28805 98.9614Z" fill="#C5908B"/>
<path d="M4.10345 77.1812C5.05153 77.9974 4.91924 78.2547 3.11861 79.2106C3.19211 78.4091 2.78789 77.3797 4.10345 77.1812Z" fill="#AD675C"/>
<path d="M236.391 501.702C235.59 501.842 235.157 501.548 235.281 500.644C235.333 500.261 235.237 499.614 235.789 499.768C236.45 499.952 237.376 500.107 237.552 500.871C237.692 501.489 237.038 501.739 236.391 501.702Z" fill="#020201"/>
<path d="M316.868 206.501C317.037 210.582 317.485 214.663 316.625 218.722C316.677 214.649 316.221 210.56 316.868 206.501Z" fill="#C5908B"/>
<path d="M316.625 202.479C317.191 202.943 317.081 203.516 316.875 204.097C316.493 203.605 316.589 203.038 316.625 202.479Z" fill="#C5908B"/>
<path d="M304.925 416.78C295.4 420.185 287.853 426.038 282.811 434.906C281.819 436.656 280.885 438.494 280.305 440.406C279.753 442.215 278.827 442.656 277.056 442.612C272.183 442.495 267.303 442.642 262.423 442.539C260.939 442.509 259.888 442.892 258.969 444.061C243.55 463.664 222.471 473.701 198.953 479.547C183.321 483.437 167.424 484.599 151.402 483.525C126.134 481.827 102.425 475.253 81.4937 460.363C75.1438 455.848 69.6464 450.421 64.8472 444.311C63.7962 442.973 62.6864 442.517 61.0107 442.553C56.138 442.656 51.2506 442.502 46.3779 442.612C44.7831 442.649 43.9967 442.171 43.4455 440.664C39.1975 429.126 31.1645 421.384 19.6552 417.273C17.9134 416.655 18.222 415.472 18.2147 414.266C18.2 389.508 18.2 364.749 18.2 339.991C18.2 257.716 18.2 175.434 18.1191 93.1595C18.1191 90.483 18.8394 89.3212 21.3603 88.3285C32.1126 84.1004 39.5061 76.409 43.5043 65.5483C44.0849 63.9747 44.7904 63.3129 46.5543 63.3571C51.5152 63.4894 56.4761 63.3938 61.437 63.4233C62.5615 63.4233 63.4948 63.3571 64.3106 62.3203C79.9136 42.3931 101.22 31.9001 125.179 26.3338C157.311 18.8703 188.973 20.6718 219.715 33.1134C235.311 39.4225 248.93 48.636 259.248 62.2173C260.027 63.2394 260.939 63.4159 262.093 63.4085C267.303 63.3791 272.521 63.4232 277.732 63.3865C278.849 63.3791 279.577 63.5703 279.989 64.7909C283.487 75.1222 290.344 82.5195 299.935 87.5049C300.17 88.3947 300.876 88.2697 301.53 88.2329C301.684 88.2108 301.809 88.255 301.912 88.3652C302.155 88.4829 302.397 88.6079 302.64 88.7255C302.75 88.6667 302.831 88.6814 302.904 88.7844C303.154 89.1962 303.536 89.2844 303.977 89.2329V89.2035C304.514 90.1521 304.969 91.0271 304.969 92.2551C304.918 200.42 304.918 308.593 304.918 416.758L304.925 416.78Z" fill="#CEBFAB"/>
<path d="M306.417 226.87C306.424 216.928 306.424 206.994 306.461 197.053C306.461 196.163 306.138 195.178 306.954 194.428C306.954 219.024 306.954 243.621 306.954 268.224V270.246C306.954 317.755 306.946 365.264 306.932 412.773C306.77 412.773 306.616 412.773 306.454 412.773C306.454 411.847 306.439 410.92 306.439 409.994C306.432 349.396 306.424 288.799 306.417 228.201C306.417 227.76 306.417 227.311 306.417 226.87Z" fill="#F4F4F5"/>
<path d="M306.425 228.201C306.432 288.798 306.439 349.396 306.447 409.993C306.447 410.92 306.454 411.846 306.461 412.773C306.212 414.111 306.998 415.597 305.896 416.81C305.91 382.198 305.932 347.58 305.94 312.968C305.947 285.6 305.94 258.224 305.947 230.855C305.947 229.958 305.682 228.98 306.417 228.208L306.425 228.201Z" fill="#F4F4F5"/>
<path d="M301.53 88.2475C300.868 88.2843 300.17 88.4093 299.935 87.5195C300.464 87.7622 301.001 88.0048 301.53 88.2475Z" fill="#F1DFD3"/>
<path d="M303.984 89.2552C303.543 89.3067 303.161 89.2184 302.911 88.8066C303.33 88.8066 303.734 88.8508 303.984 89.2552Z" fill="#F1DFD3"/>
<path d="M306.954 268.224C307.101 268.224 307.248 268.224 307.387 268.224C307.387 268.901 307.395 269.577 307.402 270.254H307.181H306.961C306.961 269.577 306.961 268.901 306.961 268.231L306.954 268.224Z" fill="#A15D56"/>
<path d="M307.924 415.685C307.953 380.985 307.946 346.286 307.946 311.579C307.946 245.716 307.96 179.846 307.946 113.984C307.946 105.395 307.828 96.8142 307.769 88.2256C307.659 88.2551 307.549 88.2845 307.446 88.3286C307.556 88.2845 307.659 88.2551 307.769 88.2256C307.505 87.2918 306.63 87.3285 305.947 87.0932C293.974 82.9019 285.904 74.7914 281.796 62.7983C281.318 61.4086 280.738 60.9821 279.327 61.0042C274.028 61.085 268.729 61.0336 263.43 61.0556C262.224 61.0556 261.232 60.9674 260.365 59.835C249.289 45.3419 234.495 35.996 217.753 29.5472C188.869 18.4292 159.126 16.6203 128.986 22.7897C103.196 28.0692 80.1043 38.6137 63.1858 59.8865C62.3847 60.8865 61.4807 61.0483 60.3342 61.0409C55.1234 61.0042 49.9053 61.0924 44.6945 60.9674C42.9527 60.9306 42.3353 61.5262 41.7547 63.166C37.6243 74.7987 29.8265 82.8799 18.0747 86.9021C16.4945 87.4389 15.8257 88.0492 15.8331 89.8507C15.8992 111.072 15.8551 132.293 15.8625 153.515C15.8625 211.539 15.8772 269.555 15.8772 327.579C15.8772 357.051 15.8698 386.53 15.8478 416.001C15.8478 417.516 15.9213 418.589 17.7586 419.229C29.6354 423.325 37.7272 431.34 41.8282 443.252C42.3133 444.664 42.9894 445.024 44.3417 445.017C49.6407 444.965 54.9397 445.039 60.2386 444.995C61.5836 444.98 62.539 445.267 63.4577 446.421C75.3124 461.4 90.8786 471.099 108.606 477.408C140.635 488.805 173.134 489.592 205.78 480.43C227.256 474.4 246.261 464.084 260.394 446.179C261.188 445.171 262.07 444.973 263.224 444.98C268.604 445.024 273.991 444.98 279.371 445.039C280.73 445.054 281.34 444.679 281.84 443.252C286.228 430.825 294.783 422.656 307.343 418.7C308.475 417.876 307.924 416.678 307.924 415.67V415.685ZM306.77 154.412C306.726 154.39 306.674 154.368 306.63 154.353C306.674 154.375 306.726 154.397 306.77 154.412ZM304.925 416.781C295.4 420.185 287.852 426.038 282.81 434.906C281.818 436.656 280.885 438.495 280.304 440.406C279.753 442.215 278.827 442.656 277.056 442.612C272.183 442.495 267.303 442.642 262.423 442.539C260.938 442.509 259.887 442.892 258.969 444.061C243.549 463.664 222.471 473.702 198.953 479.547C183.32 483.437 167.423 484.599 151.402 483.525C126.134 481.827 102.425 475.253 81.4933 460.363C75.1434 455.848 69.646 450.421 64.8468 444.311C63.7958 442.973 62.686 442.517 61.0103 442.553C56.1376 442.656 51.2502 442.502 46.3775 442.612C44.7827 442.649 43.9963 442.171 43.4451 440.664C39.1971 429.127 31.1641 421.384 19.6548 417.273C17.913 416.656 18.2217 415.472 18.2143 414.266C18.1996 389.508 18.1996 364.749 18.1996 339.991C18.1996 257.717 18.1996 175.434 18.1188 93.1596C18.1188 90.4831 18.839 89.3213 21.3599 88.3286C32.1122 84.1005 39.5058 76.4091 43.5039 65.5484C44.0845 63.9748 44.79 63.313 46.5539 63.3572C51.5148 63.4895 56.4757 63.3939 61.4366 63.4234C62.5611 63.4234 63.4945 63.3572 64.3103 62.3204C79.9132 42.3932 101.219 31.9002 125.179 26.3339C157.311 18.8704 188.972 20.6719 219.715 33.1135C235.311 39.4226 248.929 48.6361 259.248 62.2174C260.027 63.2395 260.938 63.416 262.092 63.4086C267.303 63.3792 272.521 63.4233 277.732 63.3792C278.849 63.3719 279.577 63.5631 279.996 64.7837C283.494 75.1149 290.351 82.5122 299.942 87.4977C300.479 87.7403 301.008 87.983 301.544 88.233C301.699 88.2109 301.823 88.2551 301.926 88.3653C302.169 88.483 302.411 88.608 302.654 88.7257C302.764 88.6668 302.845 88.6815 302.919 88.7845C303.337 88.7845 303.742 88.8286 303.992 89.233V89.2036C304.528 90.1522 304.991 91.0272 304.984 92.2552C304.932 200.421 304.932 308.593 304.932 416.759L304.925 416.781ZM305.542 90.3287C306.071 90.7257 305.895 91.3287 305.969 91.8581C305.888 91.3287 306.071 90.7257 305.542 90.3287ZM306.895 415.891C306.895 416.663 306.975 417.42 307.321 418.163C306.975 417.42 306.887 416.656 306.895 415.891ZM307.402 270.246H307.181H306.961C306.953 317.755 306.946 365.264 306.939 412.773C306.777 412.773 306.623 412.773 306.461 412.773C306.211 414.111 306.997 415.597 305.895 416.81C305.91 382.199 305.932 347.58 305.939 312.968C305.947 285.6 305.939 258.224 305.947 230.855C305.947 229.958 305.682 228.988 306.417 228.208C306.417 227.767 306.417 227.318 306.417 226.877C306.057 226.539 305.947 226.135 305.932 225.723C305.954 226.142 306.057 226.539 306.417 226.877C306.424 216.936 306.424 207.002 306.461 197.06C306.461 196.17 306.138 195.185 306.953 194.435C306.953 219.031 306.953 243.628 306.953 268.232C307.1 268.232 307.247 268.232 307.387 268.232C307.387 268.908 307.394 269.585 307.402 270.261C307.416 289.357 307.424 308.446 307.438 327.542C307.431 308.446 307.416 289.357 307.402 270.261V270.246Z" fill="#F4F4F5"/>
</svg>
