<svg width="349" height="247" viewBox="0 0 349 247" fill="none" xmlns="http://www.w3.org/2000/svg">
<path d="M2.53651 228.118C1.69742 226.755 1.6827 225.224 1.80782 223.693C2.1464 219.297 2.99286 214.909 1.82254 210.506C1.69742 210.035 1.61645 209.335 1.84463 209.004C5.3482 203.968 2.05808 198.961 1.85935 193.947C1.6827 189.5 3.00022 185.134 2.51443 180.665C7.10734 181.533 8.01268 182.792 7.72562 187.939C7.43856 193.144 9.44061 196.391 13.1429 196.73C14.4163 198.077 13.6213 199.786 13.8274 201.317C12.5982 201.486 12.4289 202.407 12.4289 203.511C12.4437 209.195 12.4437 214.879 12.4289 220.571C12.4289 221.683 12.613 222.595 13.8348 222.757C13.9452 223.81 13.5183 225.003 14.534 225.82C16.7422 226.034 18.9724 226.52 21.1658 226.409C39.9865 225.496 58.8145 225.953 77.6351 225.953C78.2166 228.213 79.9463 227.308 81.1902 227.308C98.0751 227.367 114.967 227.344 131.86 227.359C133.022 227.359 134.576 226.807 135.282 227.779C138.447 232.16 142.569 229.811 146.102 229.34C148.303 229.045 151.276 228.684 152.756 225.923C157.952 225.909 163.156 225.894 168.353 225.887C167.072 229.664 168.021 232.786 169.398 236.57C170.811 240.435 171.208 239.199 172.865 237.417C174.322 235.856 175.514 234.214 175.029 231.814C174.771 230.525 175.323 229.649 176.162 228.876C177.84 230.319 178.083 232.521 178.804 234.494C179.408 236.15 180.277 237.255 181.763 235.142C185.068 230.444 189.941 229.487 194.939 228.876C201.011 228.14 207.554 230.621 213.016 225.769C213.708 225.769 214.392 225.769 215.084 225.769C215.518 228.081 217.241 227.234 218.507 227.33C226.846 227.941 235.134 226.174 243.473 226.593C243.392 228.743 243.783 231.077 243.142 233.014C241.435 238.168 241.258 238.094 246.491 238.065C247.787 238.057 249.038 237.969 250.319 237.535C251.901 236.997 253.461 237.174 254.536 238.86C252.909 240.671 250.201 238.101 249.156 240.936C248.442 240.936 247.728 240.936 247.014 240.936C245.829 238.897 244.651 238.882 243.488 240.958C242.303 240.966 241.118 240.98 239.933 240.988C239.859 240.487 239.8 239.891 239.197 239.927C238.615 239.964 238.586 240.568 238.527 241.069C236.172 241.091 233.816 241.113 231.454 241.142C229.29 240.944 227.155 241.061 225.094 241.886C224.226 240.553 222.938 241.179 221.848 241.164C216.041 241.105 210.234 241.135 204.434 241.157C194.791 241.186 185.157 241.223 175.514 241.26C165.386 241.201 155.258 241.113 145.13 241.083C119.568 241.017 94.0048 240.98 68.4419 240.929C68.464 240.296 68.2947 239.545 68.545 239.044C69.6932 236.747 70.9519 234.523 67.0287 234.037C66.8668 234.015 66.6239 233.684 66.6239 233.492C66.6681 228.191 63.4663 227.337 59.5505 227.396C55.5832 227.455 51.7853 228.427 48.0461 229.767C47.3837 230.002 47.1703 230.591 47.3543 231.276C47.5236 231.931 48.1345 232.66 48.5835 232.322C50.9535 230.533 51.6454 233.595 54.148 233.89C52.4035 234.994 51.1964 235.613 51.3583 237.292C51.4614 238.396 50.718 239.014 49.7538 238.573C47.4426 237.512 46.5961 239.132 45.7791 240.907C43.6299 240.995 41.488 241.083 39.3387 241.172C39.1326 241.135 38.9192 241.135 38.7131 241.172C38.2126 241.186 37.7047 241.194 37.2042 241.209C28.4821 241.15 19.76 241.091 11.0378 241.032C11.2145 239.066 13.1208 238.794 14.0924 238.403C17.7505 236.946 16.514 234.906 15.0051 232.837C13.4594 230.709 12.2965 228.626 12.3185 225.717C12.3333 223.965 10.4784 222.581 9.13883 223.015C7.6741 223.494 4.79616 222.89 5.17155 226.292C5.44388 228.773 3.64058 227.852 2.55859 228.11L2.53651 228.118ZM5.28931 187.394C5.17155 186.945 5.17891 186.282 4.51647 186.452C4.00124 186.584 3.92763 187.159 3.99388 187.659C4.05276 188.13 4.0822 188.778 4.752 188.609C5.27459 188.476 5.30404 187.91 5.29667 187.394H5.28931Z" fill="#F3ECDC"/>
<path d="M232.131 0.851109C235.443 0.910011 238.748 2.69917 242.06 0.865837C244.445 3.81094 248.007 2.69916 250.525 2.47091C257.87 1.8009 265.201 1.92608 272.532 1.66102C273.291 4.24535 275.256 3.11884 276.654 2.99368C278.597 2.81697 280.143 3.10412 281.696 4.84909C280.968 5.15097 280.622 5.44548 280.364 5.37921C275.808 4.17172 273.968 10.3712 269.64 9.97357C268.985 9.91467 269.014 11.4461 268.963 12.3223C266.372 12.2781 263.744 12.499 261.183 12.1456C250.569 10.6878 239.911 12.094 229.282 11.4903C219.758 10.9455 210.315 13.5077 200.798 12.9776C196.462 12.7346 192.098 11.8216 187.792 12.4769C179.673 13.7212 171.547 12.7641 163.436 13.0218C161.839 13.0733 160.352 12.1382 158.593 12.5653C154.714 13.5003 150.828 13.2721 147.103 11.5639C146.956 9.85577 147.633 7.81629 145.499 6.91803C145.55 5.09943 145.609 3.27346 145.66 1.45486C146.168 0.806938 146.647 0.829022 147.081 1.54321C148.067 2.92005 149.481 2.40466 150.702 2.35312C160.433 1.96289 170.149 2.81697 179.887 2.46356C190.39 2.08069 200.915 2.38993 211.433 2.36048C212.685 2.36048 214.054 2.8317 215.143 1.6831C217.108 1.74937 219.044 1.67574 221.031 2.02179C224.771 2.66971 228.524 2.18377 232.138 0.84375L232.131 0.851109Z" fill="#F1EAD8"/>
<path d="M147.11 11.5715C150.835 13.2796 154.721 13.5079 158.6 12.5728C160.359 12.1457 161.846 13.0808 163.443 13.0293C171.554 12.7716 179.68 13.7287 187.799 12.4844C192.097 11.8218 196.462 12.7421 200.805 12.9851C210.322 13.5079 219.758 10.953 229.29 11.4978C239.918 12.1016 250.576 10.6953 261.19 12.1531C263.751 12.5065 266.372 12.2856 268.97 12.3298C275.594 12.4403 282.219 11.218 288.843 12.3298C290.058 12.536 291.471 11.8291 292.413 13.2502C290.183 13.3753 287.953 13.6036 285.73 13.6183C217.484 14.1263 149.23 14.627 80.9842 15.1056C59.845 15.2528 38.7131 15.3265 17.5739 15.4001C15.9841 15.4001 14.4163 15.1571 14.5488 17.6899C14.3133 17.6826 14.0777 17.6826 13.8422 17.6899C13.2018 16.5045 13.982 15.7388 14.6592 15.1645C17.3752 12.8526 17.0808 10.0179 16.0577 6.99918L16.7128 3.14109C18.4645 4.14243 20.1943 5.03333 22.0196 3.19263C22.2699 2.9423 22.925 3.14846 23.3887 3.14846C26.1489 3.14846 28.9164 3.17054 31.6765 3.12636C32.7733 3.11164 34.1497 3.56813 34.3852 1.65381C37.2484 1.65381 40.1043 1.65381 42.9675 1.65381C43.9538 2.87603 45.2934 2.18393 46.4637 2.40481C46.5152 3.33988 46.7728 4.28232 47.715 4.39276C48.9294 4.52529 49.2018 3.47242 49.3048 2.41218C49.7759 2.41218 50.247 2.41218 50.718 2.41218C50.902 2.80241 51.0272 3.47978 51.2774 3.53869C52.0355 3.71539 52.0355 2.96438 52.1386 2.40481C52.8452 2.40481 53.5518 2.40481 54.2658 2.40481C54.3835 4.59155 57.1511 4.45167 57.4675 6.63104C55.5465 7.04336 53.8536 7.89744 52.2048 8.86196C51.3289 9.37735 50.5635 9.95165 50.8358 11.2107C51.0934 12.3666 51.9914 12.3814 52.8084 12.3225C54.4866 12.1973 56.0617 12.7937 57.681 13.0146C59.0206 13.1986 60.9049 13.8318 61.6924 12.4771C63.194 9.87066 65.1224 10.71 66.9552 11.2401C72.2988 12.7789 77.6131 14.2883 83.1113 12.0942C83.7149 11.8512 84.2154 11.8439 84.7306 12.3151C86.2837 13.7435 88.1974 13.3753 89.7799 12.8599C91.7599 12.2194 93.4896 12.4255 95.2634 13.1986C97.0447 13.9717 98.2886 13.876 99.9594 12.2783C101.225 11.0634 103.007 7.66919 105.443 10.5628C107.857 13.4269 110.787 13.1544 113.812 13.125C117.823 13.0808 121.835 13.1103 125.846 13.1103C131.749 13.1103 137.652 13.1103 143.555 13.1103C144.814 12.7937 146.897 14.7227 147.125 11.5862L147.11 11.5715Z" fill="#F3ECDC"/>
<path d="M125.824 13.088C121.813 13.088 117.801 13.0659 113.79 13.1028C110.765 13.1322 107.835 13.412 105.421 10.5405C102.992 7.64696 101.211 11.0486 99.9376 12.256C98.2668 13.8538 97.0228 13.9495 95.2416 13.1764C93.4677 12.4107 91.7307 12.1971 89.7581 12.8377C88.1756 13.3531 86.2619 13.7212 84.7088 12.2929C84.1936 11.8216 83.6931 11.829 83.0895 12.072C77.5913 14.2587 72.277 12.7494 66.9333 11.2179C65.0932 10.6878 63.1721 9.85579 61.6706 12.4548C60.8904 13.8096 58.9988 13.1764 57.6592 12.9923C56.0399 12.7714 54.4647 12.1824 52.7866 12.3002C51.9695 12.3591 51.0642 12.3444 50.814 11.1885C50.5343 9.92942 51.2997 9.35512 52.183 8.83973C53.8317 7.87521 55.5246 7.02849 57.4457 6.60881C57.1219 4.42943 54.3543 4.56196 54.2439 2.38258C58.3216 2.52247 62.3772 2.30159 66.477 2.93479C68.6336 3.26611 71.5631 4.71658 73.3884 1.60949C74.3379 1.60949 75.2874 1.62421 76.2369 1.63158C77.893 3.12622 79.8436 2.25741 81.6469 2.34577C88.0284 2.66236 94.432 3.12623 100.799 2.88326C102.771 2.80963 103.912 2.64764 104.28 5.04054C105.561 3.89195 105.156 2.66973 105.296 1.5874C105.524 1.5874 105.76 1.60949 105.988 1.63158C109.065 2.79489 112.414 3.39128 115.468 2.97161C121.769 2.09544 128.04 2.66237 134.311 2.40467C134.429 3.25139 134.289 4.31163 134.708 4.91537C137.461 8.8839 137.314 8.86918 132.817 10.1871C130.454 10.8792 127.495 10.3417 125.817 13.088H125.824Z" fill="#F1EAD8"/>
<path d="M2.50704 146.995C1.27785 122.256 2.16846 97.5242 2.50704 72.7853C3.98649 72.9325 5.48066 73.0135 6.93803 73.2859C7.21037 73.3375 7.42382 74.1032 7.57839 74.5744C7.84337 75.3991 8.06418 76.2384 8.25555 77.0851C8.60885 78.646 9.64667 78.9332 10.92 78.8595C12.4363 78.7786 12.3406 77.6005 12.4657 76.4446C12.6129 75.1045 11.715 73.2491 13.8495 72.7632C14.1218 74.545 13.2533 76.4814 14.5046 78.1233C14.5046 82.4673 14.4972 86.804 14.4898 91.148C13.6728 91.9064 13.6728 92.6647 14.4898 93.4231V115.629C14.0409 115.629 13.5992 115.629 13.1576 115.629C12.9221 115.629 12.6792 115.629 12.4436 115.629C12.4436 109.253 12.4436 102.877 12.4436 96.5007C12.4436 94.9693 12.4436 93.4452 12.4436 91.9137V91.1406C13.1208 88.1808 10.92 86.2223 10.2429 83.7337C10.0883 83.1668 9.735 82.9532 9.17561 83.1079C6.83499 83.7632 5.40706 89.1085 7.26189 90.9566C8.77078 92.4659 9.16089 94.1815 8.81495 96.0958C7.63727 102.708 7.38702 109.378 7.45326 116.093C7.47534 118.714 7.26925 121.416 5.85605 123.677C4.32507 126.128 4.10426 133.182 5.64259 135.788C7.38702 138.748 5.57635 145.279 2.52176 147.002L2.50704 146.995Z" fill="#F8F1E5"/>
<path d="M13.8349 72.7705C11.7004 73.2491 12.5984 75.1119 12.4512 76.4519C12.326 77.6079 12.4217 78.7859 10.9055 78.8669C9.63212 78.9332 8.5943 78.646 8.241 77.0925C8.04963 76.2458 7.82881 75.4064 7.56384 74.5818C7.41663 74.1106 7.20318 73.3448 6.92348 73.2933C5.46611 73.0282 3.97194 72.9399 2.49249 72.7926C1.24121 71.4011 1.96254 69.6929 1.86685 68.1173C4.36204 68.5959 5.76789 67.7639 5.34098 64.7378C4.92144 61.7264 5.75317 59.039 7.2915 56.5798C8.38085 54.8349 8.43237 53.215 7.47551 51.2934C5.89302 48.1274 6.71739 44.9982 9.57324 42.1562C9.96334 41.9279 10.6994 41.7144 10.6994 41.4788C10.7362 38.7178 11.855 36.2439 12.3555 33.6154C12.7677 31.4507 12.4585 29.4407 9.58796 29.9266L9.5806 29.9193C9.50699 25.8624 9.03593 21.6141 13.8202 19.9722C13.2755 26.2747 15.0052 32.7097 12.8486 38.9166C15.0494 40.5216 11.4134 43.8938 14.4974 45.2264C14.4974 46.5076 14.4974 47.7813 14.49 49.0625C13.4669 50.0859 13.857 51.4333 13.8497 52.6481C13.8129 59.3556 13.8276 66.0631 13.8276 72.7632L13.8349 72.7705Z" fill="#F3ECDC"/>
<path d="M2.50736 146.995C5.55458 145.279 7.37261 138.748 5.62819 135.781C4.08986 133.175 4.31803 126.121 5.84164 123.669C7.25485 121.402 7.4683 118.707 7.43886 116.086C7.37261 109.371 7.62287 102.708 8.80054 96.0885C9.13912 94.1742 8.75638 92.4513 7.24749 90.9493C5.40001 89.1013 6.82058 83.7559 9.1612 83.1006C9.7206 82.946 10.0739 83.1595 10.2285 83.7264C10.9056 86.2151 13.1064 88.1735 12.4292 91.1334C11.9434 91.3911 11.9434 91.6488 12.4292 91.9065C12.4292 93.4379 12.4292 94.962 12.4292 96.4935C10.913 96.6849 11.016 97.9145 11.016 99.0704C11.016 100.727 11.2368 102.435 10.9572 104.033C8.7711 116.564 9.20537 129.236 8.75638 141.878C8.4178 151.471 6.42312 160.962 6.68809 170.651C6.73226 172.227 6.10662 173.95 3.92793 173.007C5.18656 170.497 4.61245 168.479 2.5 166.881C2.5 160.248 2.5 153.621 2.50736 146.987V146.995Z" fill="#F6F0E2"/>
<path d="M184.075 242.085C183.243 243.999 181.616 243.278 180.321 243.278C161.898 243.351 143.467 242.939 125.059 243.491C102.551 244.161 80.0349 243.683 57.5414 244.331C49.099 244.574 40.5829 245.06 32.1552 245.236C24.7801 245.391 17.3607 245.892 9.96348 245.597C8.93301 245.553 7.91727 245.067 6.89417 244.787C6.85001 244.264 6.81321 243.734 6.76904 243.212C7.23275 243.028 7.69646 242.836 8.16753 242.652C8.40306 242.659 8.6386 242.681 8.87413 242.711C10.832 244.714 14.4681 244.78 16.7351 242.851C23.5803 242.814 30.4329 242.777 37.2781 242.74C40.3474 243.764 43.4093 243.963 46.4566 242.615C47.2957 242.623 48.1421 242.63 48.9812 242.645C49.1873 242.335 49.3934 242.335 49.5995 242.645C53.5152 242.394 57.4016 241.658 61.3394 241.93C61.4498 242.652 61.7148 242.873 62.5023 242.858C84.9664 242.505 107.438 242.144 129.902 241.923C145.123 241.768 160.337 241.82 175.559 241.783C178.4 241.886 181.241 241.989 184.075 242.1V242.085Z" fill="#B0ADAA"/>
<path d="M292.399 13.2503C291.456 11.8293 290.043 12.5288 288.829 12.33C282.204 11.2182 275.58 12.4404 268.956 12.33C269 11.4538 268.978 9.92238 269.633 9.98128C273.961 10.3789 275.801 4.17942 280.357 5.38691C280.622 5.45318 280.96 5.15867 281.689 4.85679C280.136 3.11182 278.598 2.82467 276.647 3.00137C275.249 3.12654 273.284 4.25304 272.525 1.66871C274.535 1.65399 276.566 1.3963 278.539 1.68344C282.035 2.19147 285.421 1.91168 288.785 0.873535C289.042 0.873535 289.307 0.873542 289.565 0.880905C293.731 2.5228 298.051 1.15332 302.276 1.62454C300.296 3.5904 300.076 5.23965 302.563 7.15397C303.925 8.20685 304.749 10.0696 305.824 11.5716C305.824 12.0723 305.824 12.5656 305.824 13.0663C304.882 13.0663 303.94 13.0736 302.998 13.081C301.077 9.85611 299.207 12.757 297.315 13.1399C296.852 13.1399 296.381 13.1399 295.917 13.1473C294.931 12.006 293.974 11.9839 293.046 13.2282C292.833 13.2356 292.619 13.243 292.406 13.2577L292.399 13.2503Z" fill="#F6F0E2"/>
<path d="M13.1358 196.73C9.43354 196.391 7.43886 193.144 7.71856 187.939C7.99825 182.785 7.10028 181.526 2.50736 180.665C2.50736 179.391 2.50736 178.117 2.5 176.836C6.1655 176.527 7.97617 174.23 8.18226 169.709C8.32211 166.535 7.21069 162.965 8.63125 160.284C10.567 156.633 10.2358 152.981 10.2947 149.226C10.3389 146.17 10.4714 143.092 10.2579 140.052C10.0518 137.246 11.2074 137.106 13.1358 137.828C13.1358 138.594 13.1358 139.359 13.1432 140.118C12.7752 142.231 13.813 144.167 13.8351 146.229C12.1054 146.516 12.444 147.981 12.444 149.189C12.4292 159.46 12.4292 169.731 12.444 180.002C12.444 181.209 12.1054 182.675 13.8277 182.977C13.8424 187.578 11.8183 192.062 13.1358 196.738V196.73Z" fill="#F1EAD8"/>
<path d="M9.58788 42.1637C6.72467 44.9984 5.90766 48.1349 7.49015 51.3009C8.44701 53.2152 8.39549 54.8424 7.30614 56.5874C5.77517 59.0465 4.93608 61.7339 5.35562 64.7453C5.77517 67.7714 4.36932 68.6034 1.88149 68.1248C1.88149 67.6389 1.88149 67.1529 1.88149 66.667C3.2579 63.9722 2.17591 61.0566 2.50713 58.2734C1.88885 57.3384 4.71526 55.5492 1.85205 55.1663C1.85941 54.6657 1.86677 54.1576 1.87413 53.657C3.75105 52.9502 5.23786 52.1623 3.24317 49.7768C2.35992 48.7239 2.52921 47.2219 2.46297 45.8745C2.47033 38.0995 2.51449 30.3318 2.46297 22.5567C2.45561 20.9295 2.10231 19.3023 1.91093 17.6752C4.18531 17.4027 2.54393 14.8847 3.39774 14.1558C6.44497 18.7722 4.80359 24.3532 6.02542 29.4629C7.06325 27.1952 6.61426 24.8391 6.78355 22.5419C6.87924 21.2756 6.22416 19.5748 8.20412 19.2361C8.20412 21.8498 8.18203 24.4636 8.20412 27.07C8.21148 28.2628 7.89498 29.6912 9.60996 29.9342C9.60996 29.9342 9.61732 29.9415 9.60996 29.9415C9.60996 34.0205 9.6026 38.0921 9.59524 42.1711L9.58788 42.1637Z" fill="#F1DEB9"/>
<path d="M13.1358 137.821C11.2148 137.107 10.0592 137.239 10.2579 140.044C10.4787 143.085 10.3462 146.163 10.2947 149.218C10.2358 152.973 10.567 156.625 8.63125 160.277C7.21069 162.957 8.32211 166.528 8.18226 169.702C7.98353 174.222 6.17286 176.52 2.5 176.829C2.5 175.805 2.5 174.789 2.5 173.766C2.97107 173.516 3.4495 173.258 3.92056 173.007C6.09926 173.95 6.72489 172.227 6.68073 170.651C6.4084 160.962 8.41044 151.471 8.74902 141.878C9.19801 129.236 8.76374 116.557 10.9498 104.033C11.2295 102.428 11.0013 100.727 11.0087 99.0706C11.0087 97.9073 10.913 96.6851 12.4219 96.4937C12.4219 102.87 12.4219 109.246 12.4219 115.622C11.6417 117.801 10.5155 120.025 13.1285 121.748C13.5775 121.748 14.0265 121.748 14.4754 121.748C14.4754 125.827 14.4754 129.906 14.4754 133.992C12.2747 134.552 13.4523 136.496 13.1285 137.821H13.1358ZM11.0013 133.042C10.8099 132.637 10.7216 132.152 10.5155 132.085C9.98557 131.901 9.69116 132.343 9.73532 132.858C9.7574 133.123 10.0371 133.514 10.2579 133.573C10.4419 133.624 10.7143 133.263 11.0013 133.05V133.042Z" fill="#F3ECDC"/>
<path d="M8.18967 19.2214C6.20971 19.5675 6.86479 21.2609 6.7691 22.5273C6.59981 24.8171 7.05616 27.1806 6.01097 29.4483C4.78178 24.3385 6.43052 18.7576 3.38329 14.1411C2.52948 14.8774 4.17086 17.3881 1.89648 17.6605C2.06577 14.8332 2.23507 12.0133 2.40436 9.18597C2.89015 9.27432 3.55995 10.018 3.79548 9.06816C4.03101 8.111 3.27289 7.83121 2.52212 7.74286C2.33811 5.82854 3.34649 4.89347 4.7597 3.92159C8.54297 1.31517 12.6943 2.76564 16.6689 2.33124C16.6763 2.5963 16.6836 2.86872 16.691 3.13378C16.4702 4.42226 16.2567 5.70337 16.0359 6.99186C13.4229 11.0708 10.8026 15.1424 8.18967 19.2214Z" fill="#EBD8B0"/>
<path d="M2.53662 228.118C3.6186 227.868 5.42191 228.781 5.14958 226.299C4.78155 222.898 7.65213 223.501 9.11686 223.023C10.4565 222.588 12.3113 223.973 12.2966 225.725C12.2745 228.633 13.4374 230.717 14.9831 232.845C16.492 234.914 17.7286 236.953 14.0704 238.411C13.0989 238.794 11.1925 239.074 11.0159 241.04C10.0664 241.062 9.11686 241.091 8.16736 241.113C6.84984 241.231 5.82674 239.486 4.37673 240.414C1.77849 239.987 1.52824 238.058 1.83002 235.768C3.66277 235.849 4.68587 235.039 4.63435 232.918C4.59018 231.306 4.94348 229.451 2.52926 229.62C2.52926 229.119 2.52926 228.619 2.52926 228.118H2.53662Z" fill="#EDE6D1"/>
<path d="M345.526 192.15C347.521 192.541 346.851 194.271 346.873 195.515C346.954 200.735 346.785 205.963 346.976 211.183C347.337 220.939 347.955 230.687 348.316 240.443C348.478 244.875 346.991 246.554 342.877 246.414C331.6 246.024 320.324 245.427 309.055 244.927C308.157 244.89 307.421 244.676 307.149 243.631C308.43 243.484 309.71 243.336 310.991 243.189C313.037 243.204 315.083 243.226 317.137 243.241C322.562 244.897 328.016 244.5 333.477 243.557C334.412 243.697 335.339 243.837 336.274 243.977C339.461 245.626 344.592 245.354 345.953 243.461C347.499 241.319 347.374 232.712 345.762 230.238C345.681 217.545 345.607 204.851 345.526 192.158V192.15Z" fill="#DAD3C4"/>
<path d="M302.283 1.62436C298.058 1.15314 293.738 2.52262 289.572 0.880727C306.42 0.858638 323.261 0.836541 340.109 0.814453C344.54 0.814453 348.242 5.3941 347.388 10.2093C347.027 12.2415 346.946 14.2368 346.954 16.2542C347.035 28.3217 345.725 40.3451 346.181 52.4201C346.225 53.5318 346.402 54.7835 345.07 55.3136C344.966 55.0044 344.871 54.6878 344.768 54.3786C344.665 39.8886 345.077 25.4061 345.526 10.9309C345.592 8.67789 345.747 6.34389 343.914 4.63573C343.251 3.89209 342.589 3.15582 341.934 2.41218C340.138 1.77898 338.313 1.58018 336.414 1.58755C325.034 1.63908 313.655 1.617 302.283 1.62436Z" fill="#DAD3C4"/>
<path d="M292.369 243.565C289.115 244.728 285.892 245.288 282.403 244.404C280.158 243.837 277.707 244.191 275.344 244.183C263.773 244.161 252.203 244.176 240.632 244.102C239.359 244.095 237.681 244.905 236.996 242.792C237.754 242.527 238.718 242.806 239.226 241.834C254.779 241.938 270.324 242.041 285.877 242.151C286.686 243.859 287.702 243.793 288.843 242.534C290.013 242.534 291.184 242.534 292.361 242.534C292.361 242.88 292.361 243.226 292.369 243.572V243.565Z" fill="#DAD3C4"/>
<path d="M215.136 1.69057C214.046 2.83916 212.677 2.36058 211.426 2.36795C200.908 2.40476 190.383 2.08816 179.879 2.47102C170.141 2.82444 160.426 1.97036 150.695 2.36059C149.481 2.41213 148.067 2.92752 147.074 1.55068C169.744 0.365274 192.429 1.0132 215.106 0.84386C215.106 1.12365 215.121 1.41079 215.128 1.69057H215.136Z" fill="#E7DFCA"/>
<path d="M344.775 54.3784C344.878 54.6877 344.974 55.0043 345.077 55.3135C345.026 69.774 344.974 84.2418 344.915 98.7022C344.915 100.285 344.908 101.868 344.901 103.451C344.901 106.205 344.901 108.959 344.901 111.712C344.901 113.045 344.908 114.37 344.915 115.703C344.923 127.888 344.93 140.066 344.937 152.252C344.937 153.341 344.945 154.431 344.952 155.513C344.952 156.205 344.967 156.905 344.967 157.597C344.967 158.944 344.967 160.292 344.967 161.632C344.967 162.074 344.967 162.515 344.967 162.957C344.974 164.304 344.981 165.652 344.996 166.999C345.018 168.428 345.04 169.856 345.062 171.284C344.974 175.459 344.886 179.626 344.805 183.801C343.612 182.711 344.076 181.202 344.054 179.877C343.973 175.562 344.017 171.248 344.01 166.933C344.025 161.256 344.054 155.587 344.054 149.91C344.032 122.145 344.003 94.3803 343.98 66.6227C344.032 62.5437 344.091 58.4648 344.142 54.3931L344.459 54.4079L344.775 54.3858V54.3784Z" fill="#B0ADAA"/>
<path d="M345.526 192.15C345.607 204.844 345.681 217.537 345.754 230.231C345.681 231.814 345.607 233.397 345.526 234.98C345.114 235.002 344.709 235.031 344.297 235.053C344.172 225.85 344.047 216.639 343.914 207.435C343.944 203.865 343.966 200.301 343.995 196.73C344.54 194.212 343.377 191.488 344.797 189.08C344.856 189.676 344.878 190.302 345.474 190.619C345.489 191.134 345.504 191.65 345.519 192.165L345.526 192.15Z" fill="#9B948A"/>
<path d="M288.792 0.873535C285.428 1.91168 282.042 2.19147 278.546 1.68344C276.574 1.3963 274.542 1.65399 272.533 1.66871C265.202 1.93377 257.871 1.80125 250.525 2.47862C248.015 2.70687 244.445 3.81864 242.061 0.873535C257.635 0.873535 273.217 0.873535 288.792 0.873535Z" fill="#DAD3C4"/>
<path d="M184.075 242.085C181.233 241.982 178.392 241.879 175.551 241.768C175.492 241.599 175.47 241.422 175.492 241.245C185.134 241.209 194.769 241.172 204.411 241.142C210.219 241.128 216.026 241.098 221.826 241.15C222.916 241.157 224.204 240.539 225.072 241.871C221.767 241.901 218.47 241.93 215.165 241.96C213.671 242.004 212.177 242.048 210.69 242.092C209.851 242.085 209.012 242.07 208.173 242.063C207.37 241.739 206.561 241.739 205.758 242.041C205.148 242.041 204.529 242.048 203.918 242.055C200.768 241.628 197.61 241.606 194.453 241.989C193.812 241.989 193.172 241.982 192.532 241.974C190.559 241.636 188.594 241.555 186.629 242.033C185.775 242.048 184.921 242.063 184.067 242.077L184.075 242.085Z" fill="#857F78"/>
<path d="M134.318 2.40504C128.047 2.66274 121.776 2.09581 115.475 2.97198C112.421 3.39902 109.072 2.80263 105.995 1.63195C118.515 1.63195 131.035 1.61723 143.555 1.60986C143.555 1.8602 143.555 2.11053 143.555 2.36087C143.305 2.37559 143.055 2.39032 142.812 2.40504C139.978 2.40504 137.152 2.40505 134.318 2.39768V2.40504Z" fill="#DAD3C4"/>
<path d="M105.303 1.59477C105.163 2.6771 105.561 3.90667 104.287 5.0479C103.919 2.66236 102.779 2.81699 100.806 2.89061C94.4318 3.13359 88.0356 2.66973 81.6541 2.35314C79.8508 2.26478 77.8929 3.12623 76.2441 1.63895C85.9305 1.62422 95.6242 1.60949 105.311 1.5874L105.303 1.59477Z" fill="#DAD3C4"/>
<path d="M73.3881 1.61678C71.5627 4.72387 68.6333 3.27339 66.4767 2.94207C62.3769 2.30887 58.3213 2.52975 54.2436 2.38986C53.537 2.38986 52.8304 2.38986 52.1164 2.38986C51.6454 2.38986 51.1743 2.38986 50.6959 2.38986C50.2248 2.38986 49.7537 2.38986 49.2827 2.38986C48.3332 2.38986 47.391 2.38986 46.4415 2.38986C45.2712 2.16161 43.9316 2.85372 42.9453 1.63887C53.088 1.62414 63.2381 1.61678 73.3808 1.60205L73.3881 1.61678Z" fill="#DAD3C4"/>
<path d="M16.6907 3.14112C16.6833 2.87606 16.676 2.60365 16.6686 2.33859C16.6833 2.11034 16.6686 1.88209 16.6392 1.64648C22.5496 1.64648 28.46 1.64648 34.3631 1.64648C34.1276 3.5608 32.7438 3.10431 31.6545 3.11904C28.8943 3.15585 26.1268 3.13376 23.3666 3.14112C22.9029 3.14112 22.2478 2.93497 21.9976 3.1853C20.1795 5.02599 18.4498 4.1351 16.6907 3.13377V3.14112Z" fill="#DAD3C4"/>
<path d="M215.173 241.967C218.478 241.937 221.775 241.908 225.08 241.879C227.141 241.054 229.275 240.936 231.439 241.135C231.439 241.702 231.432 242.269 231.425 242.836C225.985 243.712 220.546 243.94 215.114 242.725C215.114 242.468 215.136 242.217 215.165 241.967H215.173Z" fill="#DAD3C4"/>
<path d="M345.482 190.605C344.886 190.281 344.864 189.662 344.805 189.066C344.805 187.313 344.805 185.561 344.805 183.809C344.893 179.634 344.974 175.467 345.062 171.292C345.261 171.432 345.6 171.55 345.622 171.712C346.417 178.014 346.829 184.324 345.474 190.612L345.482 190.605Z" fill="#DAD3C4"/>
<path d="M16.6394 1.6464C16.6688 1.87465 16.6762 2.1029 16.6688 2.33851C12.6942 2.77291 8.54289 1.32245 4.75962 3.92886C3.34641 4.90075 2.33803 5.83582 2.52204 7.75014V7.76486C2.27915 7.75013 2.05098 7.72069 1.8228 7.66915C1.64615 2.6772 2.10986 1.98509 6.79846 1.68322C10.0665 1.4697 13.364 1.6464 16.6467 1.65376L16.6394 1.6464Z" fill="#B0ADAA"/>
<path d="M215.136 1.69046C215.136 1.41068 215.121 1.12353 215.114 0.84375C220.789 0.84375 226.456 0.843746 232.131 0.851109C228.517 2.18377 224.763 2.67708 221.024 2.02916C219.037 1.68311 217.101 1.75673 215.136 1.69046Z" fill="#DAD3C4"/>
<path d="M2.53692 229.62C4.95115 229.45 4.59785 231.306 4.64201 232.918C4.69353 235.031 3.67043 235.849 1.83768 235.768C1.61686 233.654 1.91864 231.615 2.53692 229.62Z" fill="#F3ECDC"/>
<path d="M292.369 243.565C292.369 243.219 292.369 242.873 292.362 242.527C295.681 241.474 298.994 241.444 302.298 242.586C301.813 243.594 300.819 243.322 300.053 243.609C297.492 243.594 294.931 243.58 292.369 243.565Z" fill="#B0ADAA"/>
<path d="M194.453 242.004C197.611 241.621 200.768 241.643 203.919 242.07C201.497 243.867 196.698 243.837 194.453 242.004Z" fill="#B0ADAA"/>
<path d="M2.49254 58.2659C2.15396 61.0564 3.2433 63.9646 1.8669 66.6594C0.556741 63.0885 0.784915 59.4954 1.71969 55.8877C1.8301 56.7344 1.64609 57.6989 2.49254 58.2659Z" fill="#F3ECDC"/>
<path d="M3.92789 173.015C3.45682 173.265 2.97839 173.523 2.50732 173.773C3.17712 171.476 1.16772 169.186 2.50732 166.889C4.61977 168.487 5.19388 170.504 3.93525 173.015H3.92789Z" fill="#F8F1E5"/>
<path d="M231.424 242.836C231.424 242.269 231.432 241.702 231.439 241.135C233.794 241.113 236.15 241.091 238.512 241.062C238.777 241.12 239.035 241.172 239.3 241.231C239.293 241.43 239.271 241.636 239.234 241.835C238.733 242.807 237.769 242.519 237.004 242.792C235.141 242.807 233.287 242.821 231.424 242.836Z" fill="#B0ADAA"/>
<path d="M2.44842 45.8599C2.51467 47.2146 2.35274 48.7093 3.22863 49.7622C5.22331 52.1551 3.7365 52.9429 1.85959 53.6423C2.02888 51.0433 1.0941 48.3485 2.44842 45.8525V45.8599Z" fill="#DAD3C4"/>
<path d="M143.563 2.36802C143.555 2.11769 143.555 1.86736 143.563 1.61703C144.262 1.56549 144.961 1.51394 145.668 1.4624C145.616 3.281 145.557 5.10697 145.506 6.92557C145.167 7.68394 144.829 8.44967 144.225 9.81914V5.4383L144.277 3.9142C144.299 3.25892 144.144 2.69934 143.57 2.36802H143.563Z" fill="#B0ADAA"/>
<path d="M310.984 243.182C309.703 243.329 308.422 243.476 307.141 243.624C306.221 243.609 305.301 243.594 304.389 243.572C304.389 243.233 304.403 242.895 304.411 242.556C306.692 241.658 308.96 241.039 310.991 243.182H310.984Z" fill="#B0ADAA"/>
<path d="M186.636 242.048C188.601 241.577 190.567 241.65 192.539 241.989C190.589 244.036 188.624 243.97 186.636 242.048Z" fill="#B0ADAA"/>
<path d="M304.403 242.549C304.403 242.888 304.389 243.226 304.381 243.565C302.946 245.207 301.503 245.899 300.046 243.602C300.811 243.315 301.805 243.587 302.291 242.578C302.997 242.564 303.697 242.556 304.403 242.542V242.549Z" fill="#DAD3C4"/>
<path d="M4.38428 240.413C5.83429 239.486 6.85739 241.231 8.17491 241.113C8.17491 241.628 8.17491 242.136 8.16755 242.652C7.70384 242.836 7.24013 243.027 6.76906 243.219C6.0183 242.851 5.7018 241.658 4.61981 241.901C4.53885 241.407 4.46524 240.914 4.38428 240.421V240.413Z" fill="#A3A09B"/>
<path d="M215.172 241.967C215.143 242.217 215.121 242.475 215.121 242.725C213.664 242.409 211.89 244.625 210.697 242.099C212.191 242.055 213.678 242.011 215.172 241.967Z" fill="#B0ADAA"/>
<path d="M2.49257 58.2663C1.64612 57.6993 1.83013 56.7348 1.71973 55.8881C1.74917 55.6451 1.79333 55.4022 1.83749 55.1592C4.70807 55.542 1.88166 57.3312 2.49257 58.2663Z" fill="#DAD3C4"/>
<path d="M4.61963 241.893C5.69425 241.65 6.01811 242.843 6.76888 243.211C6.81304 243.734 6.84984 244.264 6.89401 244.787C4.84044 245.008 5.47344 242.769 4.61963 241.893Z" fill="#EDE6D1"/>
<path d="M344.9 103.459C344.9 101.876 344.908 100.293 344.915 98.71C345.762 100.293 345.784 101.876 344.9 103.459Z" fill="#DAD3C4"/>
<path d="M205.766 242.056C206.576 241.746 207.378 241.754 208.18 242.078C207.363 243.72 206.561 243.749 205.766 242.056Z" fill="#B0ADAA"/>
<path d="M344.915 115.71C344.915 114.378 344.908 113.052 344.9 111.72C345.747 113.045 345.732 114.378 344.915 115.71Z" fill="#DAD3C4"/>
<path d="M344.981 161.639C344.981 160.292 344.981 158.945 344.981 157.604C345.754 158.952 345.776 160.292 344.981 161.639Z" fill="#DAD3C4"/>
<path d="M345.004 167.007C344.996 165.659 344.989 164.312 344.974 162.964C345.754 164.304 345.776 165.652 345.004 167.007Z" fill="#DAD3C4"/>
<path d="M2.52215 7.74268C3.27292 7.83103 4.03104 8.11082 3.79551 9.06798C3.55997 10.0178 2.89017 9.27414 2.40438 9.18578C2.37494 9.04589 2.3823 8.906 2.42647 8.77347C2.45591 8.43478 2.48535 8.09609 2.51479 7.7574V7.74268H2.52215Z" fill="#F1DEB9"/>
<path d="M344.952 155.521C344.952 154.431 344.938 153.349 344.938 152.259C345.703 153.342 345.74 154.431 344.952 155.521Z" fill="#DAD3C4"/>
<path d="M2.51463 7.75734C2.48519 8.09603 2.45575 8.43472 2.42631 8.77341C2.22758 8.40527 2.02885 8.03712 1.82275 7.66162C2.05093 7.7058 2.2791 7.74262 2.51463 7.74998V7.75734Z" fill="#EBD8B0"/>
<path d="M249.141 240.921C250.186 238.087 252.902 240.656 254.522 238.845C253.447 237.159 251.887 236.982 250.304 237.52C249.031 237.954 247.772 238.042 246.477 238.05C241.244 238.087 241.42 238.153 243.128 232.999C243.768 231.063 243.378 228.729 243.459 226.579C243.459 226.373 243.459 226.159 243.444 225.953C246.992 225.938 250.547 225.923 254.095 225.916C254.338 227.985 255.287 229.111 257.356 228.868C260.763 228.478 264.311 229.789 267.579 227.543C268.477 226.925 269.979 226.984 270.943 227.779C272.952 229.443 275.256 229.126 277.324 228.648C278.929 228.279 280.269 228.522 281.719 228.868C282.514 230.135 278.833 231.777 281.755 232.543C283.824 233.08 286.216 233.043 289.005 232.167C287.416 230.864 286.231 231.166 285.156 231.188C283.603 231.217 283.051 230.415 283.147 228.868C286.047 229.045 288.755 228.434 291.567 227.462C296.395 225.791 301.526 226.711 306.531 226.579C306.501 227.816 306.84 229.413 305.684 230.039C301.702 232.196 303.395 236.518 302.291 239.751C301.371 240.457 300.289 240.435 299.244 240.443C286.945 240.583 274.645 240.693 262.346 240.811C264.083 238.087 267.277 240.796 270.119 238.072C266.328 238.072 263.45 238.02 260.572 238.087C258.769 238.131 259.122 239.699 259.026 240.914C255.722 240.914 252.424 240.914 249.119 240.914L249.141 240.921ZM268.735 234.265C270.148 234.832 272.165 235.51 272.018 233.279C271.841 230.584 268.683 232.543 267.211 230.923C266.424 230.054 266.24 231.762 266.151 232.55C265.864 235.134 267.307 234.773 268.727 234.265H268.735Z" fill="#F6F0E2"/>
<path d="M49.5922 242.629C49.3861 242.32 49.18 242.32 48.9739 242.629C48.6648 240.185 46.9866 241.208 45.7427 241.149L45.7648 240.899C46.5818 239.125 47.4282 237.505 49.7394 238.565C50.7036 239.007 51.4544 238.388 51.344 237.284C51.182 235.598 52.3892 234.987 54.1336 233.882C51.631 233.588 50.9392 230.532 48.5691 232.314C48.1201 232.653 47.5092 231.924 47.3399 231.269C47.1632 230.577 47.3693 229.995 48.0318 229.759C51.7635 228.412 55.5689 227.44 59.5362 227.388C63.4519 227.33 66.6537 228.184 66.6095 233.485C66.6095 233.669 66.8598 234.008 67.0144 234.03C70.9375 234.516 69.6789 236.739 68.5306 239.036C68.2804 239.537 68.4497 240.288 68.4276 240.921C66.0501 241.017 63.6727 241.105 61.2879 241.201C58.2628 241.135 55.2377 241.017 52.2125 241.039C51.1526 241.046 49.71 240.678 49.5922 242.637V242.629Z" fill="#F1EAD8"/>
<path d="M249.141 240.921C252.446 240.921 255.743 240.921 259.048 240.921C260.152 240.884 261.256 240.848 262.36 240.818C274.66 240.7 286.959 240.583 299.258 240.45C300.304 240.435 301.386 240.465 302.306 239.751C302.755 239.751 303.204 239.751 303.66 239.751L304.484 239.795C312.47 240.958 320.486 240.266 328.487 240.111C329.672 240.133 330.857 240.156 332.042 240.17C334.169 240.17 336.296 240.17 338.431 240.17C338.909 239.986 339.388 239.802 339.859 239.618C343.826 240.921 344.312 238.263 344.312 235.053C344.724 235.031 345.129 235.009 345.541 234.979C345.541 236.231 345.445 237.498 345.57 238.742C345.901 241.93 344.488 243.152 341.684 243.366C339.888 243.506 337.96 242.637 336.274 243.969C335.339 243.83 334.412 243.69 333.477 243.55C328.052 241.981 322.598 242.298 317.137 243.233C315.091 243.218 313.044 243.204 310.991 243.182C308.959 241.032 306.692 241.65 304.411 242.548C303.704 242.556 303.005 242.571 302.298 242.585C298.993 241.451 295.681 241.473 292.362 242.526C291.191 242.526 290.021 242.526 288.843 242.526C287.953 241.532 286.915 241.856 285.877 242.143C270.324 242.04 254.779 241.937 239.227 241.827C239.263 241.628 239.278 241.429 239.293 241.223C239.499 241.142 239.712 241.061 239.918 240.973C241.103 240.965 242.288 240.951 243.474 240.943C244.651 240.936 245.822 240.929 246.999 240.921C247.713 240.921 248.427 240.921 249.141 240.921Z" fill="#857F78"/>
<path d="M173.969 226.483C174.425 225.349 175.382 225.776 176.118 225.776C183.42 225.74 190.721 225.747 198.03 225.747C198.317 225.747 198.612 225.74 198.899 225.732C200.488 225.732 202.078 225.725 203.668 225.718C205.648 226.1 207.628 226.167 209.601 225.673C210.734 225.703 211.868 225.732 213.009 225.754C207.547 230.606 200.996 228.125 194.931 228.861C189.941 229.465 185.061 230.422 181.756 235.127C180.269 237.24 179.401 236.128 178.797 234.479C178.083 232.506 177.833 230.305 176.155 228.861C176.273 227.161 174.455 227.536 173.969 226.483Z" fill="#F9F5ED"/>
<path d="M77.6353 225.945C102.676 225.938 127.708 225.923 152.749 225.916C151.262 228.67 148.296 229.038 146.095 229.332C142.569 229.804 138.44 232.152 135.275 227.771C134.576 226.8 133.015 227.352 131.852 227.352C114.96 227.337 98.0753 227.359 81.183 227.3C79.9465 227.3 78.2094 228.206 77.6279 225.945H77.6353Z" fill="#F9F5ED"/>
<path d="M61.2876 241.194C63.665 241.098 66.0424 241.01 68.4272 240.914C93.9901 240.966 119.553 241.002 145.116 241.069C155.244 241.098 165.372 241.186 175.5 241.245C175.478 241.429 175.5 241.599 175.559 241.768C160.337 241.805 145.123 241.753 129.902 241.908C107.43 242.129 84.9662 242.49 62.5021 242.843C61.7145 242.858 61.4495 242.637 61.3391 241.915C61.3391 241.672 61.3318 241.429 61.295 241.194H61.2876Z" fill="#A3A09B"/>
<path d="M173.969 226.483C174.454 227.536 176.273 227.161 176.155 228.861C175.316 229.634 174.764 230.511 175.021 231.799C175.5 234.199 174.307 235.841 172.857 237.402C171.201 239.184 170.804 240.428 169.391 236.555C168.014 232.771 167.065 229.649 168.345 225.872C169.059 225.872 169.766 225.872 170.48 225.879C170.818 226.505 171.393 226.527 171.967 226.542C172.636 226.52 173.306 226.505 173.976 226.483H173.969Z" fill="#E7DFCA"/>
<path d="M14.4679 140.11C14.49 168.678 14.5121 197.245 14.5342 225.813C13.5184 225.003 13.9453 223.803 13.8349 222.75C13.8349 215.608 13.8349 208.459 13.8276 201.317C13.6215 199.786 14.4164 198.077 13.1431 196.73C11.8255 192.055 13.8423 187.571 13.8349 182.969C13.8349 170.717 13.8349 158.466 13.8349 146.221C13.8129 144.16 12.775 142.223 13.1431 140.11C13.5847 140.11 14.0263 140.11 14.4679 140.11Z" fill="#F9F5ED"/>
<path d="M8.16016 242.652C8.16016 242.137 8.16016 241.629 8.16752 241.113C9.11701 241.091 10.0665 241.062 11.016 241.04C19.7381 241.098 28.4603 241.157 37.1824 241.216C37.2118 241.724 37.2413 242.232 37.2707 242.74C30.4255 242.777 23.5729 242.814 16.7277 242.851C14.1074 242.807 11.4871 242.755 8.86676 242.711C8.63123 242.681 8.39569 242.667 8.16016 242.652Z" fill="#857F78"/>
<path d="M243.451 225.961C243.459 226.167 243.466 226.38 243.466 226.586C235.127 226.167 226.839 227.941 218.5 227.323C217.234 227.227 215.511 228.074 215.077 225.762L215.025 225.666C216.299 225.762 217.579 225.938 218.853 225.946C227.052 225.975 235.252 225.961 243.451 225.961Z" fill="#F9F5ED"/>
<path d="M13.8274 201.317C13.8274 208.459 13.8274 215.609 13.8348 222.75C12.6056 222.588 12.4216 221.675 12.4289 220.564C12.4436 214.88 12.4436 209.196 12.4289 203.504C12.4289 202.4 12.5982 201.479 13.8274 201.31V201.317Z" fill="#F6F0E2"/>
<path d="M37.2705 242.733C37.241 242.225 37.2116 241.717 37.1821 241.209C37.6826 241.194 38.1905 241.187 38.691 241.172C38.9045 241.761 39.1106 241.746 39.3167 241.172C41.4659 241.083 43.6078 240.995 45.757 240.907L45.735 241.157C45.9705 241.643 46.206 242.129 46.4489 242.608C43.4091 243.962 40.3398 243.763 37.2705 242.733Z" fill="#A3A09B"/>
<path d="M246.999 240.929C245.822 240.936 244.651 240.944 243.474 240.951C244.637 238.875 245.814 238.889 246.999 240.929Z" fill="#F6F0E2"/>
<path d="M5.28203 187.402C5.28939 187.91 5.25995 188.477 4.74472 188.609C4.08228 188.778 4.05283 188.131 3.98659 187.659C3.92035 187.159 3.98659 186.584 4.50918 186.452C5.17162 186.283 5.16426 186.945 5.28203 187.402Z" fill="#F1EAD8"/>
<path d="M239.911 240.988C239.705 241.076 239.499 241.157 239.286 241.238C239.028 241.179 238.763 241.128 238.498 241.069C238.557 240.568 238.586 239.964 239.168 239.927C239.771 239.891 239.83 240.494 239.904 240.988H239.911Z" fill="#F6F0E2"/>
<path d="M39.3244 241.172C39.1183 241.753 38.9122 241.768 38.6987 241.172C38.9048 241.128 39.1183 241.128 39.3244 241.172Z" fill="#857F78"/>
<path d="M144.218 5.43848V9.81932C144.829 8.44984 145.167 7.68411 145.498 6.92575C147.633 7.83137 146.956 9.87085 147.103 11.5716C146.875 14.7082 144.792 12.7791 143.533 13.0957C143.327 10.4967 141.325 7.71357 144.218 5.43848Z" fill="#E7DFCA"/>
<path d="M144.218 5.43821C141.333 7.7133 143.327 10.4964 143.533 13.0955C137.63 13.0955 131.727 13.0955 125.824 13.0955C127.502 10.3418 130.461 10.8866 132.824 10.1945C137.321 8.87661 137.461 8.89133 134.716 4.9228C134.296 4.31906 134.436 3.25883 134.318 2.41211C137.152 2.41211 139.978 2.41211 142.812 2.41947C142.856 3.41344 143.349 3.90674 144.269 3.92147L144.218 5.44556V5.43821Z" fill="#EDE6D1"/>
<path d="M8.18945 19.2212C10.8024 15.1423 13.4227 11.0707 16.0357 6.9917C17.0588 10.0104 17.3606 12.8451 14.6372 15.157C13.96 15.7313 13.1798 16.5044 13.8202 17.6824C13.8202 18.4408 13.8275 19.2065 13.8349 19.9649C9.05062 21.6068 9.52169 25.8551 9.59529 29.912C7.88031 29.6764 8.19681 28.2406 8.18945 27.0479C8.16737 24.4341 8.18945 21.8203 8.18945 19.2139V19.2212Z" fill="#EDE6D1"/>
<path d="M13.8349 19.9724C13.8349 19.214 13.8275 18.4483 13.8202 17.6899C14.0557 17.6899 14.2912 17.6899 14.5268 17.6899C14.5268 26.8713 14.5121 36.0527 14.5047 45.2267C11.4207 43.894 15.0567 40.5145 12.856 38.9168C15.0199 32.71 13.2902 26.2749 13.8275 19.9724H13.8349Z" fill="#F9F5ED"/>
<path d="M46.4492 2.40482C47.3987 2.40482 48.3408 2.40482 49.2903 2.40482C49.1873 3.47242 48.915 4.5253 47.7005 4.3854C46.7584 4.28233 46.5081 3.33253 46.4492 2.39746V2.40482Z" fill="#F1EAD8"/>
<path d="M50.6963 2.40479C51.1674 2.40479 51.6384 2.40479 52.1169 2.40479C52.0138 2.95699 52.0138 3.71536 51.2557 3.53866C51.0054 3.47975 50.8803 2.80238 50.6963 2.41216V2.40479Z" fill="#F1EAD8"/>
<path d="M14.5049 49.0625C14.5049 58.7519 14.5049 68.4413 14.4975 78.1233C13.2389 76.4814 14.1148 74.545 13.8425 72.7632C13.8425 66.0557 13.8277 59.3483 13.8645 52.6482C13.8645 51.4333 13.4818 50.0859 14.5049 49.0625Z" fill="#F9F5ED"/>
<path d="M13.9529 117.205C13.9529 117.934 13.9529 118.67 13.9529 119.399C13.0328 119.922 13.158 120.864 13.1285 121.755C10.5156 120.032 11.6417 117.809 12.4219 115.629C12.6575 115.629 12.9004 115.629 13.1359 115.629C13.1506 116.307 13.3052 116.896 13.9382 117.205H13.9529Z" fill="#F6F0E2"/>
<path d="M13.9527 117.205C13.3197 116.896 13.1651 116.307 13.1504 115.629C13.592 115.629 14.0336 115.629 14.4753 115.629C14.593 116.263 14.7771 116.925 13.96 117.205H13.9527Z" fill="#FEFEFE"/>
<path d="M14.4756 91.1558C14.4756 91.9141 14.4756 92.6725 14.4756 93.4309C13.6585 92.6725 13.6585 91.9141 14.4756 91.1558Z" fill="#FEFEFE"/>
<path d="M12.4293 91.9137C11.9435 91.656 11.9435 91.3983 12.4293 91.1406C12.4293 91.3983 12.4293 91.656 12.4293 91.9137Z" fill="#F3ECDC"/>
<path d="M9.58789 42.1638C9.58789 38.0848 9.59525 34.0132 9.60261 29.9343C12.4732 29.4557 12.7897 31.4584 12.3701 33.623C11.8696 36.2515 10.7508 38.7254 10.714 41.4864C10.714 41.7147 9.97799 41.9356 9.58789 42.1638Z" fill="#EDE6D1"/>
<path d="M8.8667 242.703C11.487 242.747 14.1073 242.791 16.7277 242.843C14.4606 244.772 10.8246 244.713 8.8667 242.703Z" fill="#A3A09B"/>
<path d="M61.2875 241.194C61.3243 241.437 61.3391 241.672 61.3317 241.915C57.3939 241.636 53.5002 242.379 49.5918 242.629C49.7096 240.671 51.1522 241.039 52.2121 241.032C55.2373 241.01 58.2624 241.127 61.2875 241.194Z" fill="#857F78"/>
<path d="M46.4493 242.608C46.2138 242.122 45.9782 241.636 45.7354 241.157C46.9866 241.216 48.6574 240.185 48.9666 242.637C48.1275 242.63 47.2884 242.622 46.442 242.615L46.4493 242.608Z" fill="#857F78"/>
<path d="M317.166 13.0146C315.275 13.0146 313.39 13.0293 311.499 13.0367C310.152 10.0916 307.686 12.1973 305.831 11.5715C304.764 10.0769 303.94 8.20672 302.571 7.15384C300.083 5.23953 300.303 3.59027 302.283 1.62441C313.663 1.62441 325.042 1.63914 336.414 1.5876C338.313 1.58024 340.138 1.77904 341.934 2.41224C340.131 6.0568 338.291 9.694 337.709 13.8613C336.782 13.8613 335.854 13.8613 334.927 13.8613C334.669 13.5815 334.419 13.2944 334.162 13.0146C334.029 11.947 333.411 11.5641 332.469 11.5641C327.935 11.5789 323.401 11.5789 318.867 11.5641C317.932 11.5641 317.299 11.9323 317.159 13.0072L317.166 13.0146Z" fill="#F1EAD8"/>
<path d="M305.831 11.5717C307.693 12.1975 310.159 10.0918 311.499 13.0369C309.607 13.0443 307.715 13.059 305.824 13.0663C305.824 12.5657 305.824 12.0724 305.824 11.5717H305.831Z" fill="#F9F5ED"/>
<path d="M302.998 13.0734C301.106 13.0955 299.207 13.1102 297.315 13.1323C299.207 12.7494 301.077 9.84849 302.998 13.0734Z" fill="#F9F5ED"/>
<path d="M295.916 13.1397C294.967 13.4342 294.01 13.5594 293.046 13.2207C293.973 11.9764 294.93 11.9911 295.916 13.1397Z" fill="#F9F5ED"/>
<path d="M13.8349 146.222C13.8349 158.473 13.8349 170.725 13.8349 182.969C12.1051 182.667 12.4511 181.202 12.4511 179.995C12.4364 169.724 12.4364 159.453 12.4511 149.182C12.4511 147.974 12.1125 146.509 13.8422 146.222H13.8349Z" fill="#F6F0E2"/>
<path d="M14.4681 140.111C14.0265 140.111 13.5848 140.111 13.1432 140.111C13.1432 139.345 13.1432 138.579 13.1359 137.821C13.4597 136.496 12.282 134.552 14.4828 133.992C14.4828 136.032 14.4755 138.071 14.4681 140.111Z" fill="#F8F1E5"/>
<path d="M11.0011 133.042C10.714 133.263 10.4417 133.617 10.2577 133.565C10.0369 133.506 9.74981 133.116 9.73509 132.851C9.69828 132.335 9.98534 131.894 10.5153 132.078C10.7214 132.151 10.8097 132.637 11.0011 133.035V133.042Z" fill="#F1EAD8"/>
<path d="M13.1357 121.748C13.1578 120.864 13.0401 119.914 13.9601 119.392C15.0421 119.944 14.5048 120.908 14.4827 121.74C14.0337 121.74 13.5847 121.74 13.1357 121.74V121.748Z" fill="#F9F5ED"/>
<path d="M336.267 243.963C337.952 242.63 339.873 243.499 341.677 243.359C344.481 243.138 345.894 241.923 345.563 238.735C345.438 237.498 345.533 236.232 345.533 234.973C345.607 233.39 345.681 231.807 345.762 230.224C347.374 232.69 347.499 241.297 345.953 243.44C344.591 245.339 339.461 245.612 336.274 243.955L336.267 243.963Z" fill="#B0ADAA"/>
<path d="M317.129 243.234C322.591 242.299 328.052 241.982 333.47 243.55C328.001 244.493 322.547 244.89 317.129 243.234Z" fill="#B0ADAA"/>
<path d="M337.709 13.8685C338.291 9.69385 340.131 6.064 341.934 2.41943C342.597 3.16307 343.259 3.89935 343.921 4.64299C343.921 16.4013 343.921 28.1597 343.921 39.9106C342.722 39.4247 341.411 39.1154 340.337 38.4013C338.239 37.0171 337.282 37.7092 337.032 40.1389C336.958 40.9046 336.988 41.6777 336.303 42.1784C335.045 40.2567 335.472 38.4013 336.517 36.5974C336.87 35.9863 337.974 35.4046 337.518 34.8009C334.883 31.3109 338.004 27.3056 336.428 23.6095C335.03 20.333 337.937 17.2407 337.717 13.8685H337.709Z" fill="#E7DFCA"/>
<path d="M343.914 39.9034C343.914 28.145 343.914 16.3867 343.921 4.63574C345.754 6.3439 345.6 8.6779 345.526 10.9309C345.077 25.4135 344.665 39.8886 344.768 54.3786L344.451 54.4007L344.135 54.3859C344.061 49.556 343.98 44.7334 343.907 39.9034H343.914Z" fill="#9B948A"/>
<path d="M285.877 242.151C286.915 241.864 287.953 241.54 288.843 242.534C287.702 243.793 286.694 243.852 285.877 242.151Z" fill="#B0ADAA"/>
<path d="M343.98 66.623C344.01 94.388 344.039 122.153 344.054 149.911C344.054 155.587 344.024 161.257 344.01 166.933C341.949 168.45 341.014 168.288 339.468 165.542C338.173 163.23 337.908 160.123 335.604 158.466C335.604 155.411 335.604 152.362 335.597 149.307C337.555 148.939 336.922 147.253 337.002 145.979C337.29 141.576 336.98 137.18 337.415 132.733C338.195 124.737 339.733 116.778 339.13 108.664C339.063 107.751 339.615 106.294 338.335 106.124C337.135 105.962 337.128 107.376 336.929 108.34C336.811 108.915 336.539 109.217 335.56 108.731C336.988 104.998 336.627 101.118 335.619 97.2595C335.84 95.2936 334.897 93.0848 336.215 91.3914C338.438 88.5273 338.261 84.9195 339.093 81.6357C339.395 80.443 339.24 79.125 337.54 78.86C335.876 78.5949 335.243 77.6377 336.48 76.0032C337.694 74.3981 337.834 72.9256 336.23 71.4383C335.339 70.6137 335.641 69.3252 335.626 68.206C338.291 66.947 341.176 67.0427 343.98 66.6304V66.623Z" fill="#E7DFCA"/>
<path d="M335.612 158.458C337.916 160.122 338.181 163.222 339.476 165.534C341.014 168.28 341.957 168.442 344.017 166.926C344.017 171.24 343.981 175.562 344.062 179.877C344.084 181.202 343.627 182.711 344.812 183.801C344.812 185.553 344.812 187.306 344.812 189.066C343.392 191.473 344.555 194.205 344.01 196.715C341.353 195.788 343.561 192.96 342.17 191.274C342.03 192.467 341.92 193.446 341.714 195.184C340.794 192.489 339.734 192.497 338.703 194.013C337.872 195.243 337.261 196.649 335.604 196.73C335.604 183.97 335.612 171.211 335.619 158.458H335.612Z" fill="#F3ECDC"/>
<path d="M343.98 66.623C341.176 67.0353 338.291 66.9396 335.626 68.1986C335.42 68.1986 335.214 68.1986 335.008 68.206C335.001 67.6979 334.993 67.1826 334.979 66.6745C336.804 66.7997 337.268 65.5701 336.981 64.0092C336.259 60.1585 337.989 56.5213 337.319 52.4423C336.789 49.188 336.944 45.5802 336.296 42.1713C336.981 41.6706 336.944 40.8975 337.025 40.1318C337.268 37.7021 338.232 37.01 340.33 38.3941C341.404 39.1083 342.714 39.4102 343.914 39.9035C343.988 44.7335 344.069 49.5561 344.142 54.3861C344.091 58.465 344.032 62.544 343.98 66.6156V66.623Z" fill="#F3ECDC"/>
<path d="M335.597 196.73C337.253 196.642 337.864 195.243 338.696 194.013C339.726 192.497 340.786 192.489 341.706 195.184C341.905 193.446 342.023 192.467 342.162 191.274C343.546 192.96 341.345 195.788 344.003 196.715C343.973 200.286 343.951 203.85 343.922 207.421C339.918 208.584 339.086 211.161 341.007 214.975C342.067 217.088 343.708 219.503 340.624 221.874C339.27 222.92 338.534 225.217 338.011 227.109C337.577 228.677 339.262 229.215 340.138 230.172C341.022 231.144 340.83 232.83 339.984 233.677C337.945 235.723 338.703 237.601 339.851 239.596C339.373 239.78 338.894 239.964 338.423 240.148C338.291 239.802 338.232 239.221 338.019 239.14C335.42 238.212 333.926 236.791 333.867 233.375C333.83 231.188 329.326 229.715 328.273 231.313C327.353 232.712 325.756 233.743 325.682 235.738C324.74 235.738 323.791 235.738 322.849 235.738C323.055 233.308 324.306 231.696 326.19 230.459C327.861 229.362 329.51 228.154 329.944 225.843C331.321 225.438 333.065 226.66 334.11 224.768C334.132 223.074 334.154 221.373 334.169 219.68C335.442 219.569 335.538 218.686 335.531 217.537C335.523 210.594 335.567 203.659 335.597 196.715V196.73Z" fill="#EDE6D1"/>
<path d="M339.851 239.611C338.703 237.615 337.938 235.738 339.984 233.691C340.83 232.844 341.029 231.151 340.138 230.186C339.262 229.229 337.577 228.692 338.011 227.124C338.534 225.239 339.27 222.934 340.624 221.889C343.708 219.51 342.067 217.103 341.007 214.99C339.086 211.176 339.918 208.599 343.922 207.436C344.047 216.639 344.172 225.85 344.304 235.053C344.304 238.263 343.819 240.921 339.851 239.618V239.611Z" fill="#E7DFCA"/>
<path d="M144.269 3.91435C143.349 3.90699 142.864 3.40632 142.812 2.41235C143.062 2.39762 143.313 2.38289 143.555 2.36816C144.137 2.69949 144.291 3.25906 144.269 3.91435Z" fill="#E7DFCA"/>
<path d="M334.103 224.782C333.058 226.675 331.313 225.452 329.937 225.857C322.113 225.202 314.355 226.976 306.538 226.571C301.533 226.704 296.402 225.784 291.574 227.455C288.762 228.427 286.054 229.038 283.154 228.861C282.683 228.861 282.204 228.861 281.733 228.861C280.283 228.523 278.936 228.272 277.339 228.64C275.271 229.119 272.967 229.436 270.957 227.772C269.993 226.976 268.492 226.918 267.594 227.536C264.326 229.782 260.771 228.471 257.37 228.861C255.302 229.097 254.352 227.978 254.109 225.901C255.39 225.857 256.678 225.85 257.959 225.776C262.589 225.489 267.262 226.351 271.855 225.173C273.725 225.165 275.595 225.15 277.457 225.143C279.128 225.924 280.806 225.894 282.469 225.121C298.272 225.092 314.075 225.062 329.878 225.011C331.284 225.011 332.697 224.856 334.103 224.768V224.782Z" fill="#F9F5ED"/>
<path d="M335.597 196.73C335.568 203.673 335.516 210.609 335.531 217.552C335.531 218.7 335.443 219.584 334.169 219.694C334.147 212.582 334.088 205.477 334.103 198.365C334.154 170.025 334.228 141.679 334.294 113.339C336.392 113.958 335.546 115.828 335.56 117.168C335.627 127.881 335.604 138.586 335.604 149.299C335.604 152.355 335.604 155.41 335.612 158.458C335.612 171.218 335.604 183.978 335.597 196.73Z" fill="#F9F5ED"/>
<path d="M335.597 149.299C335.597 138.586 335.619 127.881 335.553 117.168C335.545 115.828 336.392 113.958 334.287 113.34C334.301 107.979 334.316 102.619 334.338 97.2593C334.765 97.2593 335.192 97.2593 335.619 97.2593C336.627 101.117 336.981 105.005 335.56 108.73C336.539 109.216 336.811 108.915 336.929 108.34C337.128 107.376 337.135 105.962 338.335 106.124C339.616 106.293 339.064 107.751 339.13 108.664C339.733 116.778 338.195 124.737 337.415 132.733C336.981 137.173 337.29 141.568 337.003 145.979C336.922 147.252 337.562 148.939 335.597 149.307V149.299Z" fill="#F3ECDC"/>
<path d="M336.303 42.1785C336.951 45.5874 336.789 49.1878 337.326 52.4495C337.989 56.5211 336.267 60.1583 336.988 64.0164C337.282 65.5773 336.811 66.8069 334.986 66.6817C334.831 66.6081 334.669 66.5934 334.5 66.6376C334.507 63.8176 334.522 60.9977 334.529 58.1704C335.361 50.226 334.927 42.2668 334.809 34.315C334.853 27.4971 334.89 20.6866 334.934 13.8687C335.862 13.8687 336.789 13.8687 337.717 13.8687C337.937 17.2408 335.03 20.3332 336.428 23.6096C338.011 27.3057 334.883 31.311 337.518 34.801C337.974 35.4047 336.877 35.9864 336.517 36.5975C335.472 38.4014 335.045 40.2568 336.303 42.1785Z" fill="#F6F0E2"/>
<path d="M335.619 97.2519C335.192 97.2519 334.765 97.2519 334.338 97.2519C334.353 93.1656 334.368 89.0792 334.39 84.9929C334.993 84.4996 334.986 83.9989 334.405 83.4909C334.405 82.2098 334.405 80.9287 334.405 79.6402C334.486 79.5666 334.64 79.4782 334.625 79.434C334.581 79.25 334.486 79.0732 334.405 78.8965C334.419 75.5686 334.434 72.248 334.441 68.92C334.625 68.677 334.809 68.4341 334.993 68.1911C335.2 68.1837 335.406 68.1763 335.612 68.1837C335.626 69.3102 335.325 70.5913 336.215 71.416C337.827 72.9032 337.687 74.3684 336.466 75.9809C335.229 77.6154 335.855 78.5726 337.525 78.8376C339.218 79.1027 339.38 80.4206 339.079 81.6134C338.247 84.8972 338.423 88.5049 336.201 91.3691C334.89 93.0625 335.825 95.2713 335.604 97.2372L335.619 97.2519Z" fill="#F6F0E2"/>
<path d="M271.848 225.187C267.255 226.365 262.581 225.504 257.952 225.791C256.671 225.872 255.383 225.879 254.102 225.916C250.554 225.931 246.999 225.946 243.451 225.96C235.252 225.96 227.052 225.968 218.853 225.946C217.579 225.946 216.299 225.762 215.025 225.666C223.24 224.856 231.483 225.239 239.712 225.158C250.422 225.047 261.139 225.173 271.855 225.187H271.848Z" fill="#B0ADAA"/>
<path d="M317.167 13.0144C317.306 11.9394 317.932 11.5713 318.874 11.5713C323.408 11.5787 327.942 11.5787 332.476 11.5713C333.418 11.5713 334.037 11.9542 334.169 13.0218C328.502 13.0218 322.834 13.0218 317.167 13.0218V13.0144Z" fill="#F9F5ED"/>
<path d="M334.809 34.3076C334.927 42.2594 335.361 50.2185 334.53 58.163C334.243 50.2038 334.36 42.252 334.809 34.3076Z" fill="#E7DFCA"/>
<path d="M209.601 225.673C207.628 226.167 205.648 226.108 203.668 225.718C205.641 225.224 207.621 225.313 209.601 225.673Z" fill="#B0ADAA"/>
<path d="M282.469 225.136C280.798 225.909 279.127 225.938 277.457 225.158C279.127 225.158 280.798 225.143 282.469 225.136Z" fill="#B0ADAA"/>
<path d="M335.008 68.206C334.824 68.4489 334.64 68.6919 334.456 68.9349C334.471 68.1691 334.485 67.396 334.5 66.6303C334.662 66.5861 334.824 66.6009 334.986 66.6745C334.993 67.1825 335.001 67.6979 335.015 68.206H335.008Z" fill="#E7DFCA"/>
<path d="M334.404 83.498C334.986 84.0061 334.993 84.5068 334.39 85.0001C334.39 84.4994 334.404 83.9987 334.404 83.498Z" fill="#E7DFCA"/>
<path d="M171.967 226.549C171.393 226.542 170.819 226.513 170.48 225.887C171.106 225.762 171.731 225.636 171.967 226.549Z" fill="#F9F5ED"/>
<path d="M198.906 225.732C198.619 225.732 198.325 225.739 198.038 225.747C198.325 225.747 198.619 225.739 198.906 225.732Z" fill="#B0ADAA"/>
<path d="M334.419 78.9111C334.5 79.0878 334.596 79.2645 334.64 79.4486C334.647 79.4928 334.493 79.5885 334.419 79.6548C334.419 79.4044 334.419 79.1615 334.419 78.9111Z" fill="#E7DFCA"/>
<path d="M306.538 226.571C314.355 226.976 322.113 225.202 329.937 225.857C329.503 228.169 327.854 229.377 326.183 230.474C324.299 231.711 323.04 233.323 322.841 235.753C322.216 236.666 320.699 237.387 321.943 238.794C323.018 240.016 324.085 239.596 325.248 238.543C327.081 236.887 328.671 236.519 328.479 240.097C320.479 240.251 312.463 240.944 304.477 239.78C304.234 239.169 303.962 239.015 303.653 239.736C303.204 239.736 302.755 239.736 302.298 239.736C303.395 236.504 301.709 232.182 305.691 230.025C306.847 229.399 306.508 227.801 306.538 226.564V226.571Z" fill="#F1EAD8"/>
<path d="M262.353 240.811C261.249 240.848 260.145 240.885 259.041 240.914C259.137 239.7 258.783 238.131 260.587 238.087C263.465 238.021 266.343 238.072 270.133 238.072C267.292 240.797 264.09 238.087 262.361 240.811H262.353Z" fill="#F1EAD8"/>
<path d="M268.735 234.266C267.314 234.781 265.864 235.134 266.159 232.55C266.247 231.762 266.431 230.054 267.218 230.923C268.691 232.55 271.848 230.592 272.025 233.279C272.172 235.502 270.155 234.832 268.742 234.266H268.735Z" fill="#F1EAD8"/>
<path d="M281.733 228.869C282.204 228.869 282.683 228.869 283.154 228.869C283.058 230.415 283.61 231.217 285.163 231.188C286.238 231.166 287.43 230.864 289.013 232.167C286.223 233.043 283.831 233.08 281.762 232.543C278.84 231.784 282.521 230.135 281.726 228.869H281.733Z" fill="#F1EAD8"/>
<path d="M325.675 235.753C325.756 233.757 327.346 232.734 328.266 231.328C329.318 229.73 333.823 231.203 333.86 233.389C333.919 236.806 335.413 238.234 338.011 239.154C338.224 239.228 338.283 239.817 338.416 240.163C336.289 240.163 334.161 240.163 332.027 240.163C330.496 237.704 329.156 234.928 325.667 235.753H325.675Z" fill="#F1EAD8"/>
<path d="M325.675 235.753C329.164 234.928 330.504 237.704 332.035 240.163C330.85 240.141 329.665 240.119 328.48 240.104C328.664 236.526 327.074 236.894 325.248 238.551C324.085 239.603 323.011 240.023 321.943 238.801C320.7 237.387 322.223 236.673 322.841 235.76C323.784 235.76 324.733 235.76 325.675 235.76V235.753Z" fill="#E7DFCA"/>
<path d="M303.652 239.736C303.961 239.022 304.226 239.169 304.477 239.78C304.204 239.766 303.932 239.751 303.652 239.736Z" fill="#F6F0E2"/>
</svg>
