<svg width="192" height="109" viewBox="0 0 192 109" fill="none" xmlns="http://www.w3.org/2000/svg">
<path d="M5.8661 46.9963C5.81458 46.6281 5.72626 46.3483 5.61585 46.1569C5.50544 45.9655 5.37296 45.8624 5.22575 45.8403C5.07854 45.8182 4.90188 45.9728 4.70315 46.2894C4.39401 46.7091 4.04071 47.3791 3.65797 48.2848C3.27523 49.1977 2.92929 50.1328 2.63487 51.09C2.34045 52.0471 2.15643 52.9307 2.09019 53.7332C2.02395 54.5357 2.1638 54.9922 2.50974 55.11C3.1869 54.8818 4.02599 54.2707 5.04909 53.2693C6.06483 52.268 7.02905 51.2004 7.94911 50.0665C9.04582 48.7854 10.1867 47.3276 11.357 45.6931L11.6956 47.1435C10.6357 48.7118 9.59785 50.1328 8.58211 51.4066C7.66205 52.5036 6.69783 53.5344 5.70417 54.5136C4.70315 55.4929 3.80518 56.0819 3.00289 56.2881C2.40669 56.5016 1.95035 56.5016 1.63385 56.3028C1.30999 56.104 1.08181 55.8021 0.941963 55.4045C0.802115 55.007 0.735867 54.5505 0.743228 54.0277C0.743228 53.505 0.780034 53.0116 0.838917 52.5478C0.912522 51.9146 1.05237 51.2593 1.26582 50.5819C1.47928 49.9046 1.70745 49.2493 1.94298 48.6087C2.18588 47.9682 2.43614 47.3791 2.70848 46.8417C2.98081 46.3042 3.26051 45.8477 3.53284 45.4722C4.22473 44.5371 4.81356 44.0806 5.29199 44.088C5.77042 44.1027 6.1458 44.3162 6.41814 44.7359C6.73464 45.185 6.98489 45.8771 7.16154 46.8122L5.88083 47.0036L5.8661 46.9963Z" fill="#F2F2F3"/>
<path d="M15.4348 44.5889C15.2876 44.4417 15.1183 44.3975 14.9123 44.449C14.7135 44.5006 14.5148 44.5816 14.3234 44.692C14.1321 44.8024 13.948 44.9571 13.764 45.1485C13.5874 45.3399 13.4254 45.5314 13.2856 45.7154C13.0353 46.0026 12.7409 46.4443 12.3876 47.0334C12.0417 47.6224 11.7178 48.2261 11.4381 48.8299C11.1511 49.4336 10.945 49.9711 10.8051 50.4497C10.6653 50.9283 10.7242 51.186 10.9818 51.2375C11.497 51.37 12.1006 51.0755 12.7851 50.3466C13.4696 49.6251 14.132 48.7121 14.7871 47.615C15.4422 46.518 16.031 45.3399 16.5757 44.0735C17.113 42.8071 17.5031 41.7027 17.7387 40.7529L19.1077 41.1726C19.0636 41.1726 18.9531 41.4598 18.7618 42.0046C18.5704 42.5494 18.379 43.2268 18.1877 44.022C17.9963 44.8245 17.8123 45.7081 17.643 46.6947C17.4737 47.6739 17.3927 48.6016 17.4001 49.4778C17.4001 50.0226 17.5105 50.2803 17.7387 50.273C17.9668 50.2583 18.2392 50.0815 18.563 49.7429C18.8869 49.4042 19.2476 48.955 19.645 48.3955C20.0425 47.8359 20.4179 47.2837 20.7712 46.7315C21.1245 46.1793 21.4336 45.7007 21.6839 45.2884C21.9341 44.8761 22.0961 44.6478 22.177 44.5889L22.626 45.9584C22.1255 46.783 21.6765 47.4825 21.279 48.0568C20.8889 48.6384 20.4547 49.2201 19.9762 49.8091C19.5052 50.3981 19.0341 50.8841 18.5704 51.267C18.1067 51.6498 17.6651 51.8486 17.2529 51.8633C16.8407 51.8854 16.5316 51.6204 16.3255 51.0682C16.193 50.7516 16.1194 50.2951 16.0899 49.6987C16.0605 49.1023 16.1046 48.4397 16.2003 47.7181C15.6704 48.6311 15.0889 49.5441 14.4559 50.4718C13.8229 51.3995 13.0574 52.0695 12.1668 52.4965C11.2688 52.8794 10.599 52.9972 10.1574 52.8573C9.72314 52.7174 9.45817 52.4008 9.36248 51.9149C9.27415 51.4289 9.31832 50.8399 9.50969 50.1478C9.70106 49.4557 9.95867 48.7415 10.2899 48.0052C10.6211 47.269 10.9965 46.5842 11.4234 45.9363C11.8503 45.2884 12.2404 44.773 12.6011 44.3901C13.212 43.7569 13.7567 43.3593 14.2351 43.1826C14.7062 43.0059 15.111 42.9397 15.4496 42.9691C15.8323 43.0354 16.1488 43.1974 16.3917 43.4551L15.4348 44.5963V44.5889Z" fill="#F2F2F3"/>
<path d="M17.0909 35.1056L23.892 32.9777C24.3851 30.4081 24.7973 28.2803 25.1359 26.5868C25.4671 24.8934 25.629 24.0246 25.629 23.9878L26.976 24.2234C26.9024 24.2749 26.7257 25.0701 26.4534 26.6089C26.181 28.1478 25.8277 30.1357 25.3935 32.5654L37.2732 28.9429L37.6486 30.1946L25.1138 34.038C24.6574 36.8505 24.1937 39.7809 23.7227 42.8217C23.2589 45.8626 22.8983 48.6457 22.6407 51.1564C22.3831 53.6671 22.3094 55.6992 22.4125 57.2454C22.5155 58.7916 22.8836 59.4763 23.5239 59.2996C24.1643 59.1229 25.1285 57.8639 26.4313 55.5299C27.7341 53.1959 29.4712 49.4114 31.6572 44.1839L32.1136 45.9877C31.6278 47.2247 31.1862 48.307 30.7813 49.2421C30.3765 50.1771 29.9128 51.2006 29.3976 52.3197C28.875 53.4388 28.3156 54.5212 27.7194 55.5593C27.1232 56.6048 26.5343 57.5473 25.9529 58.3793C25.3714 59.2113 24.812 59.815 24.2821 60.1831C23.259 60.8752 22.4935 60.9489 21.9709 60.3967C21.4556 59.8518 21.1244 58.8873 20.9846 57.5178C20.8447 56.141 20.8447 54.4696 20.9919 52.489C21.1391 50.5158 21.3526 48.4543 21.6396 46.3117C21.9267 44.1691 22.2506 42.0487 22.6039 39.9576C22.9645 37.8666 23.2737 36.0333 23.5386 34.4503L17.4516 36.3499L17.0762 35.0908L17.0909 35.1056Z" fill="#F2F2F3"/>
<path d="M34.8075 42.7258C34.756 42.3576 34.6677 42.0778 34.5572 41.8864C34.4468 41.695 34.3144 41.5919 34.1671 41.5698C34.0199 41.5477 33.8433 41.7023 33.6446 42.0189C33.3354 42.4386 32.9821 43.1086 32.5994 44.0142C32.2166 44.9272 31.8707 45.8623 31.5763 46.8195C31.2818 47.7766 31.0978 48.6601 31.0316 49.4627C30.9654 50.2652 31.1052 50.7217 31.4511 50.8395C32.1283 50.6113 32.9674 50.0002 33.9905 48.9988C35.0062 47.9975 35.9704 46.9299 36.8905 45.796C37.9872 44.5076 39.1281 43.0571 40.2984 41.4226L40.637 42.873C39.5771 44.4413 38.5392 45.8623 37.5235 47.1361C36.6034 48.2331 35.6392 49.2639 34.6456 50.2431C33.6446 51.2224 32.7466 51.8114 31.9443 52.0176C31.3554 52.2311 30.8917 52.2311 30.5752 52.0323C30.2514 51.8335 30.0232 51.5316 29.8834 51.134C29.7435 50.7364 29.6773 50.28 29.6846 49.7572C29.6846 49.2344 29.7214 48.7411 29.7803 48.2773C29.8539 47.6441 29.9938 46.9888 30.2072 46.3114C30.4207 45.6341 30.6489 44.9788 30.8844 44.3382C31.1273 43.6976 31.3775 43.1086 31.6572 42.5711C31.9296 42.0337 32.2093 41.5772 32.4816 41.2017C33.1735 40.2666 33.7623 39.8101 34.2408 39.8175C34.7192 39.8322 35.0946 40.0457 35.3669 40.4654C35.6834 40.9145 35.9336 41.6066 36.1103 42.5417L34.8296 42.7331L34.8075 42.7258Z" fill="#F2F2F3"/>
<path d="M41.3729 42.3873C41.5716 42.0707 41.8734 41.6363 42.2782 41.0988C42.6757 40.5613 43.1026 40.0385 43.5442 39.5379C43.9859 39.0372 44.4275 38.6102 44.8544 38.2568C45.2813 37.9033 45.642 37.7635 45.9511 37.8444C46.2971 37.9181 46.5031 38.1979 46.5768 38.6912C46.643 39.1403 46.6062 39.7882 46.459 40.6423C46.3118 41.4964 46.1425 42.3725 45.9437 43.2782C45.7818 44.1764 45.642 45.001 45.5242 45.7447C45.4064 46.4883 45.3402 47.0921 45.3255 47.5559C45.6935 47.2541 46.2529 46.6577 46.9963 45.7815C47.7397 44.9053 48.4757 43.985 49.2118 43.0205C49.9405 42.0633 50.8826 40.8116 52.0308 39.2655L52.2148 40.9221C51.1844 42.4094 50.2202 43.7567 49.3148 44.9716C48.5126 46.0097 47.7323 46.9522 46.9889 47.8136C46.2455 48.6751 45.642 49.1316 45.2003 49.1978C44.5453 49.2935 44.1625 48.918 44.0374 48.0566C43.9638 47.5707 43.9932 46.8712 44.1331 45.9508C44.2656 45.0379 44.4275 44.0881 44.6189 43.1015C44.7293 42.4609 44.8397 41.8277 44.9354 41.2166C45.0311 40.5981 45.0899 40.0606 45.1047 39.5968C44.4349 40.6938 43.6914 41.7393 42.8818 42.7333C42.0721 43.7273 41.4023 44.8243 40.8724 46.0245L39.4077 58.9682L38.127 58.7179L42.8892 14.394L44.2288 14.5707L41.4023 42.3873H41.3729Z" fill="#F2F2F3"/>
<path d="M66.3543 37.0787C66.207 36.9314 66.0377 36.8872 65.8317 36.9388C65.6329 36.9903 65.4342 37.0713 65.2428 37.1818C65.0515 37.2922 64.8674 37.4468 64.6834 37.6382C64.5068 37.8297 64.3448 38.0211 64.205 38.2052C63.9547 38.4923 63.6603 38.9341 63.307 39.5231C62.9537 40.1121 62.6372 40.7159 62.3575 41.3196C62.0705 41.9234 61.8644 42.4609 61.7245 42.9394C61.5847 43.418 61.6436 43.6757 61.9012 43.7272C62.4164 43.8598 63.02 43.5653 63.7045 42.8364C64.389 42.1148 65.0515 41.2018 65.7065 40.1048C66.3616 39.0077 66.9504 37.8297 67.4951 36.5633C68.0324 35.2969 68.4225 34.1925 68.6581 33.2427L70.0345 33.6624C69.9903 33.6624 69.8799 33.9495 69.6885 34.4943C69.4972 35.0392 69.3058 35.7166 69.1144 36.5117C68.9231 37.3143 68.739 38.1978 68.5697 39.1844C68.4004 40.1637 68.3195 41.0914 68.3269 41.9675C68.3269 42.5124 68.4373 42.7701 68.6654 42.7627C68.8936 42.748 69.1659 42.5713 69.4898 42.2326C69.8137 41.8939 70.1743 41.4448 70.5718 40.8852C70.9692 40.3257 71.3446 39.7734 71.6979 39.2212C72.0512 38.669 72.3604 38.1905 72.6106 37.7781C72.8609 37.3658 73.0228 37.1376 73.1038 37.0787L73.5528 38.4481C73.0523 39.2728 72.6033 39.9722 72.2058 40.5465C71.8083 41.1282 71.3814 41.7099 70.903 42.2989C70.4319 42.8879 69.9609 43.3738 69.4972 43.7567C69.0335 44.1396 68.5918 44.3384 68.1796 44.3531C67.7674 44.3752 67.4583 44.1101 67.2522 43.5579C67.1197 43.2413 67.0461 42.7848 67.0167 42.1884C66.9873 41.592 67.0314 40.9294 67.1271 40.2078C66.5971 41.1208 66.0157 42.0338 65.3827 42.9615C64.7497 43.8892 63.9842 44.5592 63.0936 44.9863C62.1956 45.3691 61.5258 45.487 61.0842 45.3471C60.6499 45.2072 60.3849 44.8906 60.2892 44.4046C60.2009 43.9187 60.2451 43.3297 60.4365 42.6376C60.6278 41.9455 60.8854 41.2313 61.2167 40.495C61.5479 39.7587 61.9233 39.074 62.3428 38.4261C62.7697 37.7781 63.1598 37.2627 63.5205 36.8799C64.1314 36.2467 64.6761 35.8491 65.1545 35.6724C65.6256 35.4957 66.0304 35.4294 66.369 35.4589C66.7517 35.5251 67.0682 35.6871 67.3111 35.9448L66.3543 37.086V37.0787Z" fill="#F2F2F3"/>
<path d="M83.3569 35.5768C83.8133 34.7227 84.5125 34.1264 85.4694 33.8024C86.4189 33.4784 87.2727 33.4858 88.0308 33.8319C88.0897 33.6993 88.1265 33.5668 88.1265 33.4416C88.1265 33.3165 88.1559 33.1471 88.2075 32.9336L89.6354 33.287C89.444 34.5239 89.2747 35.7683 89.1201 37.0126C88.9729 38.2642 88.8846 39.4938 88.8552 40.7013C90.2021 39.4202 91.262 38.4115 92.0275 37.6752C92.793 36.9389 93.426 36.3499 93.9192 35.9008C94.4123 35.4517 94.8245 35.0835 95.1557 34.7816C95.4869 34.4798 95.9138 34.1264 96.4364 33.7214L96.6352 35.0614C94.957 36.6812 93.4775 38.117 92.1821 39.3686C90.8867 40.6203 89.6722 41.8941 88.5313 43.1826C88.3252 44.9202 88.1633 46.4958 88.0382 47.9021C87.913 49.3084 87.7585 50.6042 87.5818 51.7749C87.3978 52.9456 87.177 54.0279 86.9046 55.0292C86.6323 56.0232 86.279 56.973 85.8227 57.8713C85.2706 58.9094 84.6156 59.6089 83.8574 59.9697C83.0993 60.3304 82.3927 60.4261 81.745 60.2494C81.0973 60.0727 80.5452 59.6678 80.0962 59.0272C79.6472 58.3867 79.4559 57.562 79.5148 56.5533C79.6693 54.7789 80.4495 52.6805 81.8627 50.2435C83.2759 47.8064 85.0793 45.1852 87.28 42.3579L87.8321 37.2187C87.8689 37.1745 87.8836 37.1304 87.8762 37.0862C87.6481 37.4911 87.3389 38.036 86.9635 38.7207C86.5882 39.3981 86.1612 39.965 85.6828 40.4068C85.2044 40.8486 84.6965 41.0621 84.1518 41.04C83.6072 41.0179 83.0625 40.5467 82.5105 39.6263C82.2823 38.9122 82.297 38.1832 82.562 37.4322C82.827 36.6886 83.0919 36.0628 83.3496 35.5695L83.3569 35.5768ZM86.9635 44.8392C86.5366 45.3178 86.0214 45.973 85.4105 46.8124C84.8069 47.6518 84.2254 48.5647 83.6661 49.5661C83.1067 50.5674 82.5988 51.5835 82.1498 52.629C81.7008 53.6745 81.399 54.6464 81.2371 55.5446C81.0752 56.4429 81.1046 57.2086 81.3254 57.8418C81.5463 58.475 82.0394 58.8579 82.8049 58.9978C83.4453 59.1082 83.9825 58.7401 84.4168 57.886C84.8511 57.0319 85.2412 55.9128 85.5798 54.5359C85.9184 53.1517 86.1907 51.6056 86.3968 49.89C86.6029 48.1745 86.7869 46.4958 86.9635 44.8465V44.8392ZM87.464 35.0982C86.9194 34.8037 86.5661 34.6712 86.4041 34.6933C85.9404 34.6786 85.5724 34.8185 85.278 35.1056C84.9909 35.4001 84.748 35.7462 84.5567 36.1511C84.3653 36.5561 84.2181 36.9831 84.1224 37.4322C84.0194 37.8814 83.9531 38.2569 83.9163 38.5587C83.8574 39.0226 83.8869 39.3613 84.0046 39.5748C84.115 39.7883 84.2402 39.9061 84.3653 39.9282C84.5788 39.9798 84.8364 39.7957 85.1234 39.376C85.4178 38.9563 85.7049 38.4704 85.9993 37.9035C86.2937 37.3439 86.5587 36.7917 86.8163 36.2542C87.0666 35.7167 87.28 35.3339 87.4567 35.0982H87.464Z" fill="#F2F2F3"/>
<path d="M101.324 1.72275C99.2186 16.8017 97.8201 28.0446 97.1208 35.4516C96.4216 42.8585 96.4437 46.6945 97.1944 46.9522C97.6729 47.0921 98.6665 45.9214 100.175 43.4549C101.684 40.9884 103.569 37.1303 105.836 31.888L106.27 34.0085C102.752 41.4743 100.161 46.1644 98.4825 48.0713C96.8117 49.9783 95.8254 49.4334 95.5236 46.4147C95.2292 43.4033 95.5015 38.0874 96.3553 30.4743C97.2092 22.8612 98.4016 13.2381 99.9325 1.6123L101.324 1.72275Z" fill="#F2F2F3"/>
<path d="M107.418 29.9663C107.374 29.9663 107.293 30.2019 107.176 30.6584C107.058 31.1149 106.903 31.6892 106.712 32.3813C106.52 33.0734 106.344 33.8318 106.174 34.649C106.005 35.4663 105.873 36.2541 105.777 37.0198C105.681 37.7856 105.637 38.4482 105.63 39.0078C105.63 39.5673 105.748 39.9355 105.983 40.1122C106.123 40.2153 106.373 40.0754 106.734 39.6925C107.095 39.3097 107.492 38.7869 107.941 38.139C108.383 37.491 108.839 36.7769 109.31 36.0038C109.781 35.2307 110.201 34.487 110.576 33.7876C110.951 33.0881 111.4 32.2856 111.938 31.3726L112.652 32.3887C111.614 34.3766 110.642 36.0995 109.73 37.5647C109.325 38.2052 108.913 38.809 108.5 39.3686C108.081 39.9281 107.676 40.4067 107.279 40.7969C106.881 41.1872 106.498 41.4522 106.145 41.5847C105.792 41.7246 105.475 41.6805 105.196 41.4743C104.864 41.1945 104.644 40.7012 104.54 40.0091C104.437 39.317 104.43 38.5366 104.511 37.6751C104.592 36.8137 104.717 35.8933 104.886 34.9362C105.056 33.979 105.24 33.0955 105.431 32.3003C105.622 31.5051 105.858 30.5848 106.116 29.5466L107.426 29.981L107.418 29.9663ZM106.925 24.4884C107.234 24.3191 107.514 24.2454 107.764 24.2749C108.015 24.297 108.199 24.4074 108.309 24.5989C108.419 24.7903 108.434 25.0406 108.353 25.3425C108.272 25.6444 108.096 25.8579 107.823 25.983C107.521 26.1966 107.242 26.2776 106.984 26.2334C106.727 26.1892 106.506 26.0788 106.307 25.8947C106.013 25.313 106.219 24.8492 106.911 24.4958L106.925 24.4884Z" fill="#F2F2F3"/>
<path d="M113.888 26.4543L112.394 34.5386C112.814 33.7287 113.248 32.8967 113.682 32.0426C114.116 31.1885 114.543 30.4154 114.963 29.7307C115.382 29.0459 115.765 28.4864 116.118 28.0593C116.472 27.6323 116.774 27.4188 117.024 27.4261C117.421 27.3304 117.701 27.4409 117.856 27.7722C118.01 28.1035 118.062 28.56 118.025 29.149C117.988 29.738 117.907 30.3933 117.782 31.1149C117.657 31.8438 117.561 32.4991 117.48 33.0955C117.922 32.4475 118.393 31.7628 118.893 31.0486C119.386 30.3271 119.865 29.6865 120.329 29.1196C120.785 28.5526 121.219 28.1109 121.631 27.8016C122.044 27.4924 122.367 27.4261 122.603 27.5955C122.934 27.8826 123.133 28.3612 123.192 29.0386C123.251 29.716 123.236 30.4154 123.155 31.137C123.074 31.8585 122.927 32.7715 122.721 33.8833C123.575 32.8819 124.244 32.0868 124.738 31.4978C125.231 30.9087 125.923 30.0841 126.806 29.0386L127.063 30.3712C126.158 31.5419 125.407 32.4696 124.818 33.1323C124.23 33.8023 123.648 34.384 123.081 34.8846C122.507 35.3853 122.088 35.5546 121.815 35.3853C121.543 35.2159 121.403 34.8552 121.403 34.2882C121.403 33.7287 121.455 33.0881 121.558 32.3592C121.653 31.5935 121.734 30.9529 121.801 30.4228C121.867 29.8927 121.852 29.5761 121.757 29.4656C121.661 29.3994 121.359 29.7086 120.836 30.4154C120.314 31.1149 119.769 31.9174 119.195 32.8083C118.621 33.7066 117.863 34.9288 116.928 36.4823L115.669 35.9817C115.905 34.7815 116.104 33.6919 116.251 32.7126C116.383 31.9027 116.501 31.1591 116.612 30.4743C116.722 29.7969 116.729 29.4583 116.648 29.473C116.523 29.4877 116.317 29.7601 116.015 30.2829C115.721 30.8057 115.375 31.4609 114.992 32.2414C114.61 33.0292 114.212 33.8759 113.807 34.7889C113.402 35.7019 113.02 36.556 112.659 37.3585C112.298 38.1611 111.908 39.0888 111.481 40.1564L110.112 39.7367L112.541 26.145L113.896 26.4469L113.888 26.4543Z" fill="#F2F2F3"/>
<path d="M127.652 24.6137L127.372 29.0829C127.563 28.678 127.843 28.1331 128.219 27.4263C128.594 26.7268 129.043 26.0863 129.558 25.512C130.073 24.9377 130.625 24.5548 131.2 24.3634C131.774 24.172 132.333 24.3708 132.878 24.9598C133.224 25.3279 133.452 25.7402 133.562 26.2041C133.673 26.6679 133.702 27.1539 133.651 27.6546C133.599 28.1626 133.518 28.6633 133.408 29.1566C133.297 29.6499 133.202 30.0916 133.135 30.4745C133.739 30.0548 134.306 29.6572 134.828 29.2891C135.358 28.921 135.829 28.5823 136.241 28.273C136.69 27.9196 137.11 27.5662 137.522 27.2128L138.42 28.2068C137.662 28.7369 136.933 29.2817 136.227 29.8413C135.586 30.3125 134.909 30.8058 134.203 31.3286C133.489 31.8513 132.811 32.3446 132.178 32.8159C131.258 34.7449 130.449 36.0996 129.75 36.8875C129.058 37.6753 128.513 38.1023 128.13 38.1539C127.74 38.2128 127.505 37.9771 127.402 37.447C127.306 36.9243 127.357 36.3205 127.571 35.6432C127.784 34.9658 128.182 34.2737 128.763 33.5669C129.345 32.86 130.11 32.352 131.067 32.0428C131.185 31.7335 131.354 31.3065 131.56 30.7543C131.766 30.2021 131.943 29.6278 132.083 29.024C132.223 28.4203 132.311 27.846 132.362 27.3011C132.407 26.7563 132.326 26.3293 132.112 26.0274C131.766 25.6592 131.398 25.6003 130.993 25.8507C130.596 26.101 130.206 26.506 129.831 27.0803C129.455 27.6546 129.094 28.3467 128.734 29.1492C128.373 29.9517 128.049 30.7396 127.77 31.5053C127.49 32.2784 127.247 32.9631 127.048 33.5742C126.85 34.1853 126.724 34.5976 126.673 34.8185L123.986 59.8004L122.603 59.7562L126.445 24.4297L127.659 24.6285L127.652 24.6137ZM128.807 36.2395C128.991 36.0849 129.168 35.8714 129.337 35.599C129.507 35.3266 129.705 35.0026 129.941 34.6345C129.566 34.8995 129.293 35.1646 129.124 35.4444C128.955 35.7168 128.852 35.9818 128.807 36.2395Z" fill="#F2F2F3"/>
<path d="M141.755 23.3472C142.012 23.6859 142.093 24.0761 141.99 24.5326C141.887 24.9817 141.696 25.4529 141.416 25.9315C141.136 26.4101 140.805 26.8519 140.43 27.2642C140.055 27.6765 139.723 28.0225 139.429 28.317H139.488C139.863 28.5895 140.202 28.8398 140.504 29.0607C140.805 29.2889 141.085 29.5466 141.335 29.8411C141.843 29.3478 142.388 28.8619 142.962 28.3833C143.536 27.9047 144.051 27.4703 144.522 27.0948C144.986 26.712 145.516 26.2702 146.105 25.7695L146.311 27.1758C145.869 27.5734 145.413 27.9931 144.934 28.4348C144.537 28.8251 144.059 29.2742 143.507 29.7675C142.955 30.2608 142.388 30.7836 141.799 31.3284C141.799 31.6229 141.755 32.0352 141.666 32.5654C141.578 33.0955 141.46 33.6992 141.306 34.3692C141.151 35.0392 140.952 35.7313 140.71 36.4529C140.459 37.1744 140.202 37.8665 139.922 38.5366C139.738 38.9783 139.517 39.4569 139.26 39.9723C139.002 40.4877 138.708 40.9589 138.376 41.3786C138.045 41.8056 137.655 42.1369 137.213 42.3946C136.772 42.645 136.271 42.7112 135.712 42.5861C135.116 42.4683 134.755 42.137 134.63 41.5921C134.505 41.0473 134.497 40.5392 134.593 40.068C134.74 39.0888 135.013 38.1758 135.403 37.3291C135.8 36.4823 136.264 35.6724 136.794 34.9067C137.324 34.141 137.898 33.4268 138.501 32.7494C139.112 32.0794 139.723 31.4462 140.342 30.8572C140.128 30.5185 139.812 30.1945 139.392 29.9074C138.973 29.6129 138.546 29.3184 138.104 29.0091C137.662 28.6999 137.25 28.3539 136.86 27.9784C136.47 27.6029 136.198 27.1316 136.028 26.5721C135.852 25.9315 135.977 25.313 136.411 24.7093C136.845 24.1055 137.397 23.627 138.075 23.2809C138.752 22.9349 139.436 22.7361 140.143 22.6993C140.842 22.6624 141.372 22.8833 141.74 23.3693L141.755 23.3472ZM140.172 32.9409C139.208 34.0379 138.31 35.1939 137.471 36.394C136.632 37.6015 136.124 38.9047 135.955 40.2963C135.822 41.1062 135.844 41.5406 136.021 41.5995C136.198 41.6584 136.448 41.4743 136.786 41.0473C137.118 40.6202 137.493 40.0386 137.898 39.2949C138.31 38.5513 138.693 37.7635 139.046 36.9388C139.399 36.1142 139.694 35.3338 139.915 34.5975C140.135 33.8612 140.224 33.3016 140.172 32.9409ZM138.295 27.4188C138.516 27.22 138.781 26.9697 139.09 26.6751C139.399 26.3806 139.694 26.064 139.981 25.7327C140.268 25.4014 140.481 25.0995 140.629 24.8271C140.776 24.5547 140.798 24.3485 140.695 24.1939C140.592 24.0466 140.342 23.9951 139.959 24.054C139.569 24.1129 139.179 24.2528 138.774 24.481C138.369 24.7093 138.023 24.9744 137.736 25.2909C137.449 25.6002 137.353 25.9241 137.442 26.2407C137.5 26.6457 137.788 27.0433 138.303 27.4261L138.295 27.4188Z" fill="#F2F2F3"/>
<path d="M147.378 27.6395C147.753 27.6248 148.225 27.4555 148.799 27.1168C149.373 26.7854 149.859 26.4173 150.263 26.0271C150.661 25.6369 150.882 25.2982 150.926 25.0257C150.97 24.746 150.646 24.665 149.954 24.7607C149.439 24.9227 148.902 25.2614 148.357 25.7767C147.805 26.2921 147.356 26.8738 146.988 27.507C146.62 28.1476 146.414 28.7881 146.37 29.436C146.318 30.0913 146.532 30.592 146.995 30.938C147.65 31.424 148.372 31.4534 149.159 31.0264C149.947 30.5994 150.712 29.9882 151.448 29.1931C152.184 28.3979 152.862 27.5585 153.48 26.675C154.098 25.7915 154.562 25.1435 154.878 24.7239L155.298 26.2848C154.827 27.0211 154.26 27.8457 153.605 28.7513C152.95 29.6569 152.236 30.4521 151.456 31.1295C150.683 31.8068 149.851 32.2633 148.975 32.4916C148.092 32.7272 147.194 32.5578 146.281 31.9836C145.494 31.4313 145.074 30.7172 145.03 29.8263C144.986 28.9427 145.177 28.0592 145.612 27.183C146.046 26.3069 146.627 25.519 147.349 24.8049C148.077 24.098 148.843 23.6415 149.645 23.4354C150.359 23.2071 151.022 23.266 151.632 23.6121C152.243 23.9581 152.42 24.5251 152.162 25.3129C152.023 25.7915 151.662 26.2921 151.073 26.8149C150.484 27.3377 149.895 27.7647 149.299 28.1034C148.703 28.4421 148.188 28.6114 147.754 28.6114C147.319 28.6114 147.194 28.2874 147.393 27.6322L147.378 27.6395Z" fill="#F2F2F3"/>
<path d="M30.9651 56.0524L27.8222 87.2189C28.4699 85.6654 29.1691 84.318 29.942 83.1621C30.7075 82.0061 31.4141 81.0931 32.0618 80.4158C32.3488 80.0844 32.6359 79.8194 32.945 79.6279C33.2468 79.4365 33.5192 79.2819 33.7473 79.1641C34.3067 79.0021 34.7115 79.0095 34.9692 79.2009C35.2268 79.3923 35.3814 79.6721 35.4329 80.0403C35.4844 80.4084 35.4844 80.8133 35.4329 81.2625C35.374 81.7116 35.3004 82.065 35.2121 82.3227C35.0428 82.8455 34.7557 83.5376 34.3583 84.3843C33.9608 85.231 33.4971 86.1145 32.9671 87.0202C33.6369 86.5048 34.3067 86.0115 34.9618 85.5402C35.6169 85.069 36.2057 84.6494 36.7136 84.2812C37.2215 83.9131 37.7956 83.5155 38.4433 83.0884L39.172 84.2297C38.3035 84.8555 37.4202 85.4887 36.5149 86.1219C35.7641 86.6888 34.925 87.2852 33.9976 87.8963C33.0702 88.5148 32.2311 89.1038 31.4803 89.6707C31.311 89.9432 31.0681 90.3555 30.759 90.9003C30.4425 91.4452 30.0966 91.9311 29.7285 92.3655C29.3531 92.7926 28.9704 93.0944 28.5803 93.2564C28.1902 93.4184 27.8369 93.2711 27.5204 92.822C27.4689 93.0355 27.4247 93.2859 27.3805 93.5583C27.3364 93.8381 27.2775 94.2577 27.1965 94.832C27.1156 95.4063 27.0199 96.1573 26.9021 97.0924C26.7917 98.0275 26.6445 99.2718 26.4531 100.84L25.062 100.73C25.8275 93.2122 26.5856 85.739 27.3437 78.3026C28.1019 70.8663 28.86 63.4151 29.6328 55.9346L30.9577 56.0524H30.9651ZM27.7633 91.909C28.0798 91.239 28.8158 90.4218 29.9641 89.4646C30.2953 88.9124 30.7148 88.2277 31.2227 87.4104C31.7232 86.5858 32.2164 85.739 32.6874 84.8555C33.1585 83.972 33.5486 83.1473 33.8504 82.3742C34.1522 81.6012 34.2699 80.968 34.1963 80.482C33.4088 80.806 32.6727 81.4465 31.9808 82.4037C31.2889 83.3609 30.6559 84.4211 30.0818 85.5844C29.5077 86.7551 29.0219 87.9184 28.6318 89.0744C28.2417 90.2377 27.9547 91.1801 27.7707 91.9164L27.7633 91.909Z" fill="#F2F2F3"/>
<path d="M39.5475 84.2445C39.9229 84.2298 40.394 84.0531 40.9681 83.7217C41.5422 83.3904 42.028 83.0223 42.4328 82.6321C42.8303 82.2418 43.0511 81.9031 43.0953 81.6307C43.1394 81.3509 42.8155 81.2699 42.1237 81.3657C41.6084 81.5276 41.0711 81.8663 40.5265 82.3817C39.9818 82.8971 39.5254 83.4788 39.1574 84.112C38.7967 84.7525 38.5907 85.3931 38.5391 86.041C38.4876 86.6963 38.7011 87.197 39.1648 87.543C39.8199 88.029 40.5412 88.0584 41.3287 87.6314C42.1163 87.2043 42.8818 86.5932 43.6178 85.7981C44.3539 85.0029 45.031 84.1635 45.6493 83.28C46.2676 82.3965 46.7313 81.7485 47.0478 81.3288L47.4674 82.8898C46.9889 83.626 46.4295 84.4507 45.7744 85.3563C45.1194 86.2619 44.4054 87.0571 43.6326 87.7344C42.8597 88.4118 42.028 88.8683 41.1521 89.0966C40.2688 89.3322 39.3709 89.1628 38.4582 88.5885C37.6706 88.0363 37.2511 87.3221 37.2069 86.4312C37.1627 85.5477 37.3541 84.6642 37.781 83.788C38.2153 82.9118 38.7967 82.124 39.5181 81.4098C40.2468 80.703 41.0122 80.2465 41.8145 80.0404C42.5285 79.8121 43.1909 79.871 43.8018 80.2171C44.4128 80.5631 44.5894 81.1301 44.3318 81.9179C44.192 82.3965 43.8313 82.8971 43.2425 83.4199C42.6536 83.9426 42.0648 84.3697 41.4686 84.7084C40.8724 85.047 40.3572 85.2164 39.9229 85.2164C39.4886 85.2164 39.3635 84.8924 39.5622 84.2371L39.5475 84.2445Z" fill="#F2F2F3"/>
<path d="M52.6636 52.6068C52.1631 56.0084 51.6479 59.5352 51.1032 63.1945C50.6542 66.3384 50.1537 69.8357 49.6237 73.679C49.0864 77.5224 48.5638 81.3584 48.0413 85.1797L55.0631 79.4662L54.7687 81.2553L48.6007 86.4093C49.3293 88.8022 49.8004 91.0183 50.0138 93.0652C50.2347 95.112 50.2862 96.9748 50.1831 98.6535C50.0727 100.332 49.8372 101.805 49.4618 103.064C49.0864 104.323 48.6669 105.361 48.2032 106.186C47.8425 106.819 47.4524 107.43 47.0402 108.012C46.628 108.593 46.0245 108.858 45.2222 108.807C44.8026 108.785 44.5671 108.041 44.5156 106.568C44.4641 105.096 44.5229 103.167 44.6922 100.767C44.8615 98.3737 45.1265 95.6053 45.5019 92.4762C45.8699 89.3396 46.2821 86.1074 46.7237 82.7794C47.1727 79.4514 47.6364 76.1308 48.1296 72.8397C48.6227 69.5412 49.0791 66.5077 49.506 63.7393C49.9329 60.9709 50.2936 58.578 50.6027 56.5606C50.9045 54.5432 51.1106 53.1664 51.2136 52.4448L52.671 52.6068H52.6636ZM47.6364 87.9186C47.6659 88.1248 47.6291 88.6254 47.5187 89.4353C47.4083 90.2453 47.261 91.2171 47.077 92.3731C46.893 93.5217 46.7017 94.766 46.5029 96.106C46.3042 97.446 46.1349 98.7419 45.9803 99.9862C45.8331 101.238 45.7153 102.394 45.6197 103.469C45.5313 104.544 45.5166 105.368 45.5755 105.943C45.6417 106.517 45.7816 106.797 46.0098 106.782C46.2379 106.767 46.5986 106.311 47.0844 105.405C47.4745 104.684 47.8204 103.771 48.1149 102.666C48.4093 101.562 48.6154 100.273 48.7331 98.8008C48.8509 97.3282 48.8362 95.6863 48.6963 93.8751C48.5565 92.0639 48.2032 90.0759 47.6291 87.9186H47.6364Z" fill="#F2F2F3"/>
<path d="M59.8403 77.1983L59.4281 78.1923C59.671 78.1554 59.9287 78.1849 60.1863 78.2659C60.5837 78.4131 60.9665 78.6782 61.3345 79.0611C61.7025 79.4439 61.9528 79.9372 62.0853 80.541C62.7698 80.4011 63.3734 80.1876 63.8959 79.9004C64.4185 79.6133 64.9338 79.2451 65.449 78.796L65.8833 80.0403C64.7424 81.0416 63.4543 81.6454 62.0338 81.8589C61.5995 84.296 61.0695 86.0925 60.4218 87.2485C59.7815 88.4044 59.1264 89.1039 58.4566 89.3468C57.7868 89.5898 57.1317 89.472 56.4987 88.9787C55.8657 88.4928 55.3357 87.808 54.9162 86.9318C54.4966 86.0557 54.2243 85.0691 54.1065 83.9647C53.9888 82.8602 54.0918 81.8147 54.423 80.8281C54.7543 79.8415 55.3505 79.0095 56.2043 78.3174C57.0581 77.6327 58.2726 77.2572 59.8403 77.1909V77.1983ZM58.6332 78.3101C57.4261 78.8623 56.5944 79.6501 56.1454 80.6735C55.6964 81.6969 55.4829 82.7277 55.505 83.7659C55.5345 84.804 55.7479 85.717 56.1601 86.5122C56.5649 87.3074 57.0507 87.7565 57.6028 87.8596C58.1548 87.9626 58.7289 87.5798 59.303 86.7036C59.8845 85.8274 60.3556 84.2371 60.7236 81.9399C60.2599 81.881 59.7888 81.7264 59.3104 81.4613C58.832 81.1963 58.4713 80.9018 58.2137 80.5631C57.9561 80.2244 57.8309 79.8636 57.8309 79.466C57.8309 79.0684 58.1033 78.6856 58.6259 78.3174L58.6332 78.3101ZM60.6647 80.6367C60.5837 80.3569 60.4513 80.1287 60.282 79.9446C60.1053 79.7605 59.936 79.6427 59.7594 79.5838C59.4502 79.466 59.2589 79.4513 59.1926 79.5396C59.1264 79.6354 59.1485 79.7458 59.2736 79.871C59.3987 79.9961 59.5754 80.1507 59.8109 80.3201C60.0464 80.4968 60.3335 80.5999 60.6647 80.6293V80.6367Z" fill="#F2F2F3"/>
<path d="M66.9504 74.6511C66.7885 75.5494 66.656 76.3372 66.5529 77.022C66.4352 77.6257 66.3542 78.1632 66.3248 78.6491C66.2953 79.1351 66.3616 79.3854 66.5308 79.4001C66.7443 79.4517 67.105 79.2234 67.6128 78.708C68.1207 78.2 68.6359 77.611 69.1659 76.9483C69.8062 76.19 70.4834 75.3212 71.2121 74.3345L72.4781 74.8941C71.8009 77.0735 71.2342 79.0099 70.7778 80.696C70.557 81.4396 70.3583 82.1391 70.1816 82.8091C70.0123 83.4791 69.8798 84.0828 69.7915 84.613C69.7032 85.1504 69.6517 85.5701 69.637 85.8867C69.6222 86.2033 69.6738 86.3506 69.7989 86.3285C69.8872 86.3579 70.1227 86.1444 70.5129 85.6953C70.903 85.2462 71.3667 84.6645 71.9113 83.9577C72.4486 83.2509 73.0228 82.4851 73.6263 81.6458C74.2299 80.8064 74.7893 80.026 75.3119 79.3044C75.8271 78.5829 76.2614 77.9791 76.6073 77.4932C76.9532 77.0072 77.1446 76.7569 77.1814 76.7495L77.7187 78.2957C77.6746 78.2957 77.4685 78.5902 77.1005 79.1645C76.7251 79.7388 76.2466 80.4456 75.6652 81.2776C75.0837 82.1096 74.4433 83.0005 73.7514 83.9282C73.0596 84.8633 72.3824 85.7026 71.72 86.4463C71.0575 87.1899 70.4687 87.7421 69.9387 88.1103C69.4088 88.4784 69.0408 88.4931 68.82 88.1471C68.5403 87.9409 68.4078 87.4623 68.4225 86.7113C68.4372 85.9603 68.5255 85.0842 68.6875 84.0828C68.8494 83.0815 69.0702 82.0213 69.3425 80.8948C69.6149 79.7756 69.8651 78.7375 70.1007 77.7877C69.7842 78.1705 69.4235 78.5534 69.026 78.9436C68.6286 79.3339 68.2311 79.6873 67.841 79.9891C67.4509 80.2984 67.0902 80.5487 66.7664 80.7401C66.4425 80.9316 66.1481 81.0052 65.8979 80.961C65.3826 80.8727 65.0735 80.4677 64.9704 79.7535C64.8674 79.0393 64.86 78.281 64.9484 77.4784C65.0588 76.5434 65.2796 75.4979 65.6034 74.3198L66.9577 74.6217L66.9504 74.6511Z" fill="#F2F2F3"/>
<path d="M78.4401 78.5165C78.8155 78.5018 79.2866 78.3324 79.8607 77.9937C80.4348 77.6624 80.9206 77.2943 81.3254 76.904C81.7229 76.5138 81.9437 76.1751 81.9879 75.9027C82.032 75.6229 81.7082 75.5419 81.0163 75.6376C80.5011 75.7996 79.9638 76.1383 79.4191 76.6537C78.8744 77.1691 78.4181 77.7507 78.05 78.3839C77.6894 79.0245 77.4759 79.6651 77.4318 80.313C77.3802 80.9683 77.5937 81.4689 78.0574 81.815C78.7125 82.3009 79.4338 82.3304 80.2214 81.9033C81.0089 81.4763 81.7744 80.8652 82.5105 80.07C83.2465 79.2748 83.9237 78.4355 84.5419 77.552C85.1602 76.6684 85.6239 76.0205 85.9404 75.6008L86.36 77.1617C85.8889 77.898 85.3222 78.7226 84.6671 79.6283C84.012 80.5339 83.298 81.329 82.5178 82.0064C81.745 82.6838 80.9133 83.1403 80.0374 83.3685C79.1541 83.6041 78.2561 83.4348 77.3434 82.8605C76.5559 82.3083 76.1363 81.5941 76.0921 80.7032C76.048 79.8197 76.2394 78.9362 76.6663 78.06C77.1005 77.1838 77.682 76.396 78.4033 75.6818C79.132 74.975 79.8975 74.5185 80.6998 74.3123C81.4138 74.0841 82.0762 74.143 82.6871 74.489C83.298 74.8351 83.4747 75.402 83.2171 76.1898C83.0772 76.6684 82.7166 77.1691 82.1277 77.6918C81.5389 78.2146 80.95 78.6416 80.3539 78.9803C79.7577 79.319 79.2424 79.4884 78.8082 79.4884C78.3739 79.4884 78.2488 79.1644 78.4475 78.5091L78.4401 78.5165Z" fill="#F2F2F3"/>
<path d="M91.527 64.8512L98.328 62.7233C98.8212 60.1537 99.2334 58.0259 99.5719 56.3325C99.9032 54.639 100.065 53.7702 100.065 53.7334L101.412 53.969C101.338 54.0205 101.162 54.8157 100.889 56.3545C100.617 57.8934 100.264 59.8813 99.8295 62.311L111.709 58.6885L112.077 59.9402L99.5425 63.7836C99.0862 66.5961 98.6224 69.5265 98.1514 72.5673C97.6877 75.6082 97.327 78.3913 97.0694 80.902C96.8118 83.4127 96.7382 85.4448 96.8412 86.991C96.9443 88.5372 97.3123 89.2219 97.9526 89.0452C98.593 88.8685 99.5572 87.6095 100.86 85.2755C102.163 82.9415 103.9 79.157 106.086 73.9294L106.542 75.7333C106.057 76.9703 105.615 78.0526 105.21 78.9877C104.805 79.9227 104.342 80.9462 103.826 82.0653C103.304 83.1844 102.744 84.2668 102.148 85.3049C101.552 86.3504 100.963 87.2929 100.382 88.1249C99.8001 88.9569 99.2407 89.5606 98.7108 89.9287C97.6877 90.6208 96.9222 90.6945 96.3996 90.1423C95.877 89.59 95.5531 88.6329 95.4133 87.2634C95.2734 85.8866 95.2734 84.2152 95.4206 82.2347C95.5679 80.2614 95.7813 78.1999 96.0684 76.0573C96.3554 73.9147 96.6793 71.7943 97.0326 69.7032C97.3859 67.6122 97.7024 65.7789 97.9674 64.1959L91.8803 66.0955L91.5049 64.8364L91.527 64.8512Z" fill="#F2F2F3"/>
<path d="M107.315 73.3843C107.521 73.0677 107.815 72.6333 108.22 72.0959C108.618 71.5584 109.045 71.0356 109.486 70.5349C109.928 70.0343 110.369 69.6072 110.796 69.2538C111.223 68.9004 111.584 68.7605 111.893 68.8415C112.239 68.9151 112.445 69.1949 112.519 69.6882C112.585 70.1374 112.548 70.7853 112.401 71.6394C112.254 72.4934 112.084 73.3696 111.886 74.2752C111.724 75.1735 111.584 75.9908 111.466 76.7418C111.348 77.4854 111.282 78.0891 111.267 78.553C111.635 78.2511 112.195 77.6547 112.938 76.7786C113.682 75.9024 114.418 74.9821 115.154 74.0175C115.882 73.0604 116.825 71.8087 117.973 70.2625L118.157 71.9191C117.126 73.3991 116.162 74.7538 115.257 75.9687C114.454 77.0068 113.674 77.9492 112.931 78.8107C112.187 79.6721 111.584 80.1286 111.142 80.1949C110.487 80.2906 110.104 79.9151 109.979 79.0537C109.906 78.5677 109.942 77.8683 110.075 76.9479C110.207 76.0349 110.369 75.0851 110.561 74.0985C110.671 73.458 110.782 72.8248 110.877 72.2137C110.973 71.5952 111.032 71.0577 111.047 70.5939C110.377 71.6909 109.633 72.7364 108.824 73.7304C108.014 74.7244 107.344 75.8214 106.814 77.0215L105.35 89.9653L104.069 89.7149L108.831 45.3911L110.171 45.5678L107.344 73.3843H107.315Z" fill="#F2F2F3"/>
<path d="M118.923 72.5453C119.298 72.5306 119.769 72.3612 120.343 72.0225C120.917 71.6838 121.403 71.3231 121.808 70.9328C122.205 70.5426 122.426 70.2039 122.47 69.9315C122.514 69.6517 122.191 69.5707 121.499 69.6664C120.983 69.8284 120.446 70.1671 119.901 70.6825C119.357 71.1979 118.9 71.7796 118.532 72.4128C118.172 73.046 117.958 73.6939 117.914 74.3418C117.863 74.9971 118.076 75.4978 118.54 75.8438C119.195 76.3297 119.916 76.3592 120.704 75.9322C121.491 75.5051 122.257 74.894 122.993 74.0988C123.729 73.3037 124.406 72.4643 125.024 71.5808C125.643 70.6972 126.106 70.0493 126.423 69.6296L126.842 71.1905C126.371 71.9268 125.805 72.7514 125.15 73.6571C124.494 74.5627 123.78 75.3579 123 76.0352C122.227 76.7126 121.396 77.1691 120.52 77.3973C119.637 77.633 118.739 77.4636 117.826 76.8893C117.038 76.3371 116.619 75.6229 116.575 74.732C116.53 73.8485 116.722 72.965 117.156 72.0888C117.59 71.2126 118.172 70.4174 118.893 69.7106C119.622 69.0038 120.387 68.5473 121.19 68.3411C121.904 68.1129 122.566 68.1718 123.177 68.5179C123.788 68.8639 123.964 69.4308 123.707 70.2187C123.567 70.6972 123.206 71.1979 122.618 71.7207C122.029 72.2434 121.44 72.6704 120.844 73.0091C120.247 73.3478 119.732 73.5172 119.298 73.5172C118.864 73.5172 118.739 73.1932 118.937 72.5379L118.923 72.5453Z" fill="#F2F2F3"/>
<path d="M134.504 52.2242C133.996 52.1727 133.687 51.8855 133.569 51.3628C133.459 50.921 133.569 50.2215 133.886 49.257C134.202 48.2999 134.931 46.9157 136.087 45.1265L137.117 45.7892C136.646 46.5254 136.256 47.1439 135.954 47.6446C135.652 48.1452 135.41 48.6165 135.226 49.0582C135.042 49.5 134.894 49.9638 134.777 50.4351C134.659 50.9136 134.571 51.5027 134.512 52.2242H134.504ZM138.56 51.3775C138.052 51.326 137.743 51.0388 137.625 50.516C137.522 50.0743 137.625 49.3748 137.942 48.4103C138.258 47.4458 138.987 46.0689 140.142 44.2798L141.173 44.9424C140.694 45.6787 140.312 46.2972 140.01 46.7979C139.708 47.2985 139.465 47.7697 139.281 48.2115C139.097 48.6533 138.943 49.1171 138.832 49.5883C138.722 50.0596 138.626 50.6559 138.567 51.3775H138.56Z" fill="#F2F2F3"/>
<path d="M147.834 47.8212L143.028 84.6645L141.696 84.4878L146.502 47.6445L147.834 47.8212Z" fill="#F2F2F3"/>
<path d="M172.69 33.6109L165.86 78.7373L164.586 78.5532L166.368 66.493C165.992 67.0452 165.44 67.6195 164.719 68.2012C163.998 68.7902 163.239 69.2246 162.445 69.5044C161.65 69.7842 160.891 69.8504 160.163 69.6811C159.434 69.5191 158.875 68.9669 158.485 68.0244C158.212 67.3176 158.279 66.4562 158.669 65.4401C159.059 64.4241 159.611 63.4154 160.317 62.4214C161.024 61.4274 161.804 60.5292 162.665 59.734C163.527 58.9388 164.314 58.4087 165.021 58.1363C166.191 57.9227 167.015 58.2614 167.479 59.145L171.424 33.4121L172.698 33.5962L172.69 33.6109ZM166.824 62.8116C166.824 62.4803 166.795 62.1122 166.758 61.6998C166.721 61.2875 166.662 60.9047 166.588 60.5365C166.515 60.1757 166.397 59.8812 166.243 59.653C166.088 59.4247 165.867 59.3585 165.587 59.4395C165.035 59.6456 164.366 60.1095 163.578 60.831C162.79 61.5526 162.062 62.3551 161.407 63.2387C160.744 64.1295 160.251 65.0131 159.927 65.8893C159.596 66.7728 159.64 67.4502 160.038 67.9287C160.582 68.5104 161.201 68.6871 161.892 68.4368C162.584 68.1864 163.254 67.7447 163.909 67.1115C164.564 66.4783 165.131 65.742 165.617 64.9247C166.095 64.1075 166.419 63.3933 166.581 62.7895L166.831 62.8116H166.824Z" fill="#F2F2F3"/>
<path d="M176.731 59.3511L176.319 60.3451C176.562 60.3083 176.82 60.3377 177.077 60.4187C177.475 60.5733 177.858 60.831 178.226 61.2139C178.594 61.5968 178.844 62.0901 178.976 62.6938C179.661 62.5539 180.264 62.3404 180.787 62.0532C181.31 61.7661 181.825 61.398 182.34 60.9488L182.774 62.1931C181.633 63.1945 180.345 63.7982 178.925 64.0117C178.491 66.4488 177.961 68.2453 177.313 69.4013C176.673 70.5572 176.017 71.2567 175.348 71.4997C174.678 71.7426 174.023 71.6248 173.39 71.1315C172.757 70.6456 172.227 69.9609 171.807 69.0847C171.388 68.2085 171.115 67.2219 170.998 66.1175C170.88 65.0131 170.983 63.9676 171.314 62.981C171.645 61.9943 172.242 61.1624 173.095 60.4703C173.949 59.7855 175.164 59.41 176.731 59.3438V59.3511ZM175.524 60.4703C174.317 61.0225 173.485 61.8103 173.037 62.8337C172.58 63.8571 172.374 64.8879 172.396 65.9261C172.426 66.9642 172.639 67.8772 173.051 68.6724C173.456 69.4675 173.942 69.9167 174.494 70.0198C175.046 70.1228 175.62 69.74 176.194 68.8638C176.768 67.9876 177.247 66.3973 177.615 64.1001C177.151 64.0412 176.68 63.8866 176.201 63.6215C175.723 63.3565 175.362 63.0619 175.105 62.7233C174.847 62.3846 174.722 62.0238 174.722 61.6262C174.722 61.2286 174.994 60.8457 175.517 60.4776L175.524 60.4703ZM177.548 62.7895C177.467 62.5097 177.335 62.2815 177.166 62.0974C176.989 61.9134 176.82 61.7955 176.643 61.7366C176.334 61.6188 176.143 61.6041 176.076 61.6925C176.01 61.7882 176.032 61.8986 176.157 62.0238C176.282 62.1563 176.459 62.3036 176.695 62.4729C176.93 62.6496 177.21 62.7527 177.548 62.7822V62.7895Z" fill="#F2F2F3"/>
<path d="M185.77 36.7989C186.285 36.8872 186.595 37.1744 186.705 37.6603C186.808 38.1021 186.705 38.8015 186.388 39.7661C186.072 40.7306 185.336 42.1074 184.188 43.8966L183.157 43.2413C183.591 42.5124 183.967 41.8939 184.291 41.3859C184.615 40.8852 184.865 40.4066 185.049 39.9649C185.233 39.5231 185.387 39.0666 185.498 38.588C185.616 38.1094 185.704 37.5204 185.763 36.7989H185.77ZM189.826 35.9521C190.341 36.0405 190.65 36.3276 190.761 36.8136C190.864 37.2554 190.761 37.9548 190.444 38.9193C190.128 39.8839 189.392 41.2607 188.243 43.0499L187.213 42.3946C187.647 41.6657 188.022 41.0472 188.346 40.5465C188.67 40.0385 188.92 39.5673 189.104 39.1255C189.288 38.6837 189.443 38.2272 189.553 37.7487C189.671 37.2774 189.76 36.6811 189.818 35.9595L189.826 35.9521Z" fill="#F2F2F3"/>
<path d="M6.60194 46.2599C6.55042 45.8918 6.4621 45.612 6.35169 45.4206C6.24128 45.2292 6.1088 45.1261 5.96159 45.104C5.81438 45.0819 5.63772 45.2365 5.43899 45.5531C5.12985 45.9728 4.77655 46.6428 4.39381 47.5484C4.01107 48.4614 3.66513 49.3965 3.37071 50.3536C3.07629 51.3108 2.89227 52.1943 2.82603 52.9969C2.75979 53.7994 2.89964 54.2559 3.24558 54.3737C3.92274 54.1455 4.76183 53.5344 5.78493 52.533C6.80067 51.5317 7.76489 50.4641 8.68495 49.3302C9.78166 48.0491 10.9225 46.5913 12.0928 44.9567L12.4314 46.4072C11.3715 47.9755 10.3337 49.3965 9.31795 50.6702C8.39789 51.7673 7.43367 52.7981 6.44001 53.7773C5.43899 54.7566 4.54102 55.3456 3.73873 55.5517C3.14253 55.7653 2.68619 55.7653 2.36969 55.5665C2.04583 55.3677 1.81765 55.0658 1.6778 54.6682C1.53795 54.2706 1.47171 53.8141 1.47907 53.2914C1.47907 52.7686 1.51587 52.2753 1.57476 51.8115C1.64836 51.1783 1.78821 50.523 2.00166 49.8456C2.21512 49.1682 2.44329 48.5129 2.67882 47.8724C2.92172 47.2318 3.17198 46.6428 3.44432 46.1053C3.71665 45.5678 3.99635 45.1113 4.26868 44.7358C4.96056 43.8008 5.5494 43.3443 6.02783 43.3517C6.50626 43.3664 6.88164 43.5799 7.15398 43.9996C7.47048 44.4487 7.72073 45.1408 7.89738 46.0759L6.61667 46.2673L6.60194 46.2599Z" fill="#A8242C"/>
<path d="M16.1707 43.8526C16.0235 43.7053 15.8542 43.6612 15.6481 43.7127C15.4494 43.7642 15.2506 43.8452 15.0593 43.9557C14.8679 44.0661 14.6839 44.2207 14.4999 44.4122C14.3232 44.6036 14.1613 44.795 14.0214 44.9791C13.7712 45.2662 13.4768 45.708 13.1235 46.297C12.7775 46.8861 12.4537 47.4898 12.174 48.0935C11.8869 48.6973 11.6808 49.2348 11.541 49.7134C11.4011 50.1919 11.46 50.4496 11.7176 50.5012C12.2328 50.6337 12.8364 50.3392 13.5209 49.6103C14.2054 48.8887 14.8679 47.9757 15.523 46.8787C16.178 45.7816 16.7669 44.6036 17.3116 43.3372C17.8489 42.0708 18.239 40.9664 18.4745 40.0166L19.8436 40.4363C19.7994 40.4363 19.689 40.7234 19.4976 41.2683C19.3062 41.8131 19.1149 42.4905 18.9235 43.2857C18.7321 44.0882 18.5481 44.9717 18.3788 45.9584C18.2095 46.9376 18.1286 47.8653 18.1359 48.7415C18.1359 49.2863 18.2463 49.544 18.4745 49.5367C18.7027 49.5219 18.975 49.3452 19.2989 49.0065C19.6227 48.6678 19.9834 48.2187 20.3809 47.6591C20.7783 47.0996 21.1537 46.5474 21.507 45.9952C21.8603 45.443 22.1695 44.9644 22.4197 44.5521C22.67 44.1397 22.8319 43.9115 22.9129 43.8526L23.3618 45.2221C22.8613 46.0467 22.4123 46.7462 22.0149 47.3205C21.6248 47.9021 21.1905 48.4838 20.7121 49.0728C20.241 49.6618 19.7699 50.1478 19.3062 50.5306C18.8425 50.9135 18.4009 51.1123 17.9887 51.127C17.5765 51.1491 17.2674 50.884 17.0613 50.3318C16.9288 50.0152 16.8552 49.5587 16.8258 48.9624C16.7963 48.366 16.8405 47.7033 16.9362 46.9818C16.4062 47.8948 15.8247 48.8077 15.1917 49.7354C14.5587 50.6632 13.7933 51.3332 12.9026 51.7602C12.0047 52.1431 11.3349 52.2609 10.8932 52.121C10.459 51.9811 10.194 51.6645 10.0983 51.1785C10.01 50.6926 10.0542 50.1036 10.2455 49.4115C10.4369 48.7194 10.6945 48.0052 11.0257 47.2689C11.357 46.5326 11.7323 45.8479 12.1592 45.2C12.5862 44.5521 12.9762 44.0367 13.3369 43.6538C13.9478 43.0206 14.4925 42.623 14.9709 42.4463C15.442 42.2696 15.8468 42.2033 16.1854 42.2328C16.5682 42.2991 16.8847 42.461 17.1275 42.7187L16.1707 43.86V43.8526Z" fill="#A8242C"/>
<path d="M17.8267 34.3692L24.6278 32.2414C25.1209 29.6718 25.5331 27.544 25.8717 25.8505C26.2029 24.1571 26.3649 23.2883 26.3649 23.2515L27.7118 23.4871C27.6382 23.5386 27.4616 24.3338 27.1892 25.8726C26.9169 27.4114 26.5636 29.3994 26.1293 31.8291L38.0091 28.2066L38.3845 29.4583L25.8496 33.3016C25.3933 36.1142 24.9296 39.0446 24.4585 42.0854C23.9948 45.1262 23.6341 47.9094 23.3765 50.4201C23.1189 52.9308 23.0453 54.9629 23.1483 56.5091C23.2514 58.0552 23.6194 58.74 24.2598 58.5633C24.9001 58.3866 25.8643 57.1275 27.1671 54.7935C28.4699 52.4595 30.207 48.6751 32.3931 43.4475L32.8494 45.2514C32.3636 46.4883 31.922 47.5707 31.5172 48.5057C31.1123 49.4408 30.6486 50.4642 30.1334 51.5834C29.6108 52.7025 29.0514 53.7848 28.4552 54.823C27.859 55.8685 27.2702 56.8109 26.6887 57.6429C26.1072 58.4749 25.5478 59.0787 25.0179 59.4468C23.9948 60.1389 23.2293 60.2125 22.7067 59.6603C22.1915 59.1155 21.8603 58.151 21.7204 56.7815C21.5806 55.4047 21.5806 53.7333 21.7278 51.7527C21.875 49.7795 22.0884 47.7179 22.3755 45.5754C22.6625 43.4328 22.9864 41.3123 23.3397 39.2213C23.7004 37.1303 24.0095 35.2969 24.2745 33.714L18.1874 35.6135L17.812 34.3545L17.8267 34.3692Z" fill="#A8242C"/>
<path d="M35.5507 41.9894C35.4992 41.6213 35.4108 41.3415 35.3004 41.1501C35.19 40.9586 35.0575 40.8556 34.9103 40.8335C34.7631 40.8114 34.5865 40.966 34.3877 41.2826C34.0786 41.7023 33.7253 42.3723 33.3425 43.2779C32.9598 44.1909 32.6139 45.126 32.3194 46.0831C32.025 47.0403 31.841 47.9238 31.7748 48.7264C31.7085 49.5289 31.8484 49.9854 32.1943 50.1032C32.8715 49.875 33.7106 49.2638 34.7337 48.2625C35.7494 47.2612 36.7136 46.1936 37.6337 45.0597C38.7304 43.7712 39.8712 42.3208 41.0416 40.6862L41.3801 42.1367C40.3202 43.705 39.2824 45.126 38.2667 46.3997C37.3466 47.4968 36.3824 48.5276 35.3887 49.5068C34.3877 50.4861 33.4897 51.0751 32.6875 51.2812C32.0986 51.4948 31.6349 51.4948 31.3184 51.296C30.9946 51.0972 30.7664 50.7953 30.6265 50.3977C30.4867 50.0001 30.4204 49.5436 30.4278 49.0209C30.4278 48.4981 30.4646 48.0048 30.5235 47.541C30.5971 46.9078 30.7369 46.2525 30.9504 45.5751C31.1638 44.8977 31.392 44.2424 31.6276 43.6019C31.8704 42.9613 32.1207 42.3723 32.4004 41.8348C32.6727 41.2973 32.9524 40.8408 33.2248 40.4653C33.9167 39.5303 34.5055 39.0738 34.9839 39.0811C35.4623 39.0959 35.8377 39.3094 36.1101 39.7291C36.4266 40.1782 36.6768 40.8703 36.8535 41.8054L35.5728 41.9968L35.5507 41.9894Z" fill="#A8242C"/>
<path d="M42.1088 41.6509C42.3075 41.3343 42.6093 40.8999 43.0141 40.3625C43.4115 39.825 43.8385 39.3022 44.2801 38.8015C44.7217 38.3009 45.1633 37.8738 45.5902 37.5204C46.0171 37.167 46.3778 37.0271 46.6869 37.1081C47.0329 37.1817 47.239 37.4615 47.3126 37.9548C47.3788 38.404 47.342 39.0519 47.1948 39.906C47.0476 40.76 46.8783 41.6362 46.6796 42.5418C46.5177 43.4401 46.3778 44.2647 46.26 45.0084C46.1423 45.752 46.076 46.3557 46.0613 46.8196C46.4293 46.5177 46.9887 45.9213 47.7321 45.0452C48.4755 44.169 49.2116 43.2487 49.9476 42.2841C50.6763 41.327 51.6184 40.0753 52.7667 38.5291L52.9507 40.1857C51.9202 41.673 50.956 43.0204 50.0507 44.2353C49.2484 45.2734 48.4682 46.2159 47.7248 47.0773C46.9814 47.9387 46.3778 48.3952 45.9362 48.4615C45.2811 48.5572 44.8984 48.1817 44.7732 47.3203C44.6996 46.8343 44.7291 46.1349 44.8689 45.2145C45.0014 44.3015 45.1633 43.3517 45.3547 42.3651C45.4651 41.7246 45.5755 41.0914 45.6712 40.4803C45.7669 39.8618 45.8258 39.3243 45.8405 38.8605C45.1707 39.9575 44.4273 41.003 43.6176 41.997C42.808 42.991 42.1382 44.088 41.6082 45.2881L40.1435 58.2319L38.8628 57.9815L43.625 13.6577L44.9646 13.8344L42.1382 41.6509H42.1088Z" fill="#A8242C"/>
<path d="M67.0901 36.3423C66.9429 36.1951 66.7736 36.1509 66.5675 36.2025C66.3688 36.254 66.17 36.335 65.9787 36.4454C65.7873 36.5559 65.6033 36.7105 65.4193 36.9019C65.2426 37.0933 65.0807 37.2848 64.9408 37.4688C64.6906 37.756 64.3962 38.1978 64.0429 38.7868C63.6896 39.3758 63.3731 39.9796 63.0934 40.5833C62.8063 41.187 62.6002 41.7245 62.4604 42.2031C62.3205 42.6817 62.3794 42.9394 62.637 42.9909C63.1522 43.1235 63.7558 42.8289 64.4403 42.1C65.1249 41.3785 65.7873 40.4655 66.4424 39.3684C67.0975 38.2714 67.6863 37.0934 68.231 35.827C68.7683 34.5606 69.1584 33.4561 69.3939 32.5063L70.7703 32.926C70.7262 32.926 70.6158 33.2132 70.4244 33.758C70.233 34.3029 70.0416 34.9802 69.8503 35.7754C69.6589 36.578 69.4749 37.4615 69.3056 38.4481C69.1363 39.4273 69.0553 40.3551 69.0627 41.2312C69.0627 41.7761 69.1731 42.0338 69.4013 42.0264C69.6294 42.0117 69.9018 41.835 70.2256 41.4963C70.5495 41.1576 70.9102 40.7085 71.3076 40.1489C71.7051 39.5893 72.0805 39.0371 72.4338 38.4849C72.7871 37.9327 73.0962 37.4541 73.3465 37.0418C73.5967 36.6295 73.7586 36.4012 73.8396 36.3423L74.2886 37.7118C73.7881 38.5364 73.3391 39.2359 72.9416 39.8102C72.5442 40.3919 72.1173 40.9735 71.6388 41.5625C71.1678 42.1516 70.6967 42.6375 70.233 43.0204C69.7693 43.4032 69.3277 43.602 68.9155 43.6168C68.5033 43.6388 68.1942 43.3738 67.9881 42.8216C67.8556 42.505 67.782 42.0485 67.7525 41.4521C67.7231 40.8557 67.7672 40.1931 67.8629 39.4715C67.333 40.3845 66.7515 41.2975 66.1185 42.2252C65.4855 43.1529 64.72 43.8229 63.8294 44.25C62.9314 44.6328 62.2616 44.7506 61.82 44.6107C61.3857 44.4708 61.1208 44.1542 61.0251 43.6683C60.9367 43.1824 60.9809 42.5933 61.1723 41.9012C61.3637 41.2091 61.6213 40.4949 61.9525 39.7587C62.2837 39.0224 62.6591 38.3377 63.0786 37.6897C63.5056 37.0418 63.8957 36.5264 64.2563 36.1436C64.8672 35.5104 65.4119 35.1128 65.8903 34.9361C66.3614 34.7594 66.7662 34.6931 67.1048 34.7225C67.4876 34.7888 67.8041 34.9508 68.0469 35.2085L67.0901 36.3497V36.3423Z" fill="#A8242C"/>
<path d="M84.0928 34.8405C84.5491 33.9864 85.2484 33.39 86.2052 33.0661C87.1547 32.7421 88.0085 32.7495 88.7666 33.0955C88.8255 32.963 88.8623 32.8305 88.8623 32.7053C88.8623 32.5801 88.8918 32.4108 88.9433 32.1973L90.3712 32.5507C90.1799 33.7876 90.0106 35.0319 89.856 36.2762C89.7088 37.5279 89.6204 38.7575 89.591 39.965C90.938 38.6839 91.9979 37.6752 92.7634 36.9389C93.5289 36.2026 94.1618 35.6136 94.655 35.1645C95.1481 34.7153 95.5603 34.3472 95.8916 34.0453C96.2228 33.7434 96.6497 33.39 97.1723 32.9851L97.371 34.3251C95.6928 35.9449 94.2134 37.3806 92.9179 38.6323C91.6225 39.884 90.408 41.1577 89.2672 42.4462C89.0611 44.1838 88.8991 45.7595 88.774 47.1658C88.6489 48.5721 88.4943 49.8679 88.3177 51.0386C88.1336 52.2093 87.9128 53.2916 87.6405 54.2929C87.3681 55.2869 87.0148 56.2367 86.5585 57.1349C86.0065 58.1731 85.3514 58.8726 84.5933 59.2333C83.8351 59.5941 83.1285 59.6898 82.4808 59.5131C81.8331 59.3364 81.2811 58.9315 80.8321 58.2909C80.3831 57.6503 80.1917 56.8257 80.2506 55.817C80.4052 54.0426 81.1854 51.9442 82.5986 49.5071C84.0118 47.07 85.8151 44.4489 88.0159 41.6216L88.5679 36.4824C88.6047 36.4382 88.6194 36.394 88.6121 36.3499C88.3839 36.7548 88.0748 37.2997 87.6994 37.9844C87.324 38.6618 86.8971 39.2287 86.4186 39.6705C85.9402 40.1122 85.4324 40.3258 84.8877 40.3037C84.343 40.2816 83.7983 39.8104 83.2463 38.89C83.0181 38.1758 83.0329 37.4469 83.2978 36.6959C83.5628 35.9523 83.8278 35.3264 84.0854 34.8331L84.0928 34.8405ZM87.6994 44.1029C87.2725 44.5814 86.7572 45.2367 86.1463 46.0761C85.5428 46.9154 84.9613 47.8284 84.4019 48.8297C83.8425 49.8311 83.3346 50.8471 82.8856 51.8927C82.4367 52.9382 82.1349 53.9101 81.973 54.8083C81.811 55.7066 81.8405 56.4723 82.0613 57.1055C82.2821 57.7387 82.7752 58.1216 83.5407 58.2614C84.1811 58.3719 84.7184 58.0037 85.1527 57.1497C85.5869 56.2956 85.977 55.1764 86.3156 53.7996C86.6542 52.4154 86.9265 50.8692 87.1326 49.1537C87.3387 47.4382 87.5227 45.7595 87.6994 44.1102V44.1029ZM88.1999 34.3546C87.6552 34.06 87.3019 33.9275 87.14 33.9496C86.6763 33.9349 86.3083 34.0748 86.0138 34.3619C85.7268 34.6564 85.4839 35.0025 85.2925 35.4074C85.1011 35.8124 84.9539 36.2394 84.8582 36.6885C84.7552 37.1377 84.6889 37.5132 84.6521 37.8151C84.5933 38.2789 84.6227 38.6176 84.7405 38.8311C84.8509 39.0446 84.976 39.1624 85.1011 39.1845C85.3146 39.2361 85.5722 39.052 85.8593 38.6323C86.1537 38.2126 86.4407 37.7267 86.7352 37.1598C87.0296 36.6002 87.2945 36.048 87.5522 35.5105C87.8024 34.973 88.0159 34.5902 88.1925 34.3546H88.1999Z" fill="#A8242C"/>
<path d="M102.059 0.986418C99.9544 16.0654 98.5559 27.3083 97.8567 34.7152C97.1574 42.1222 97.1795 45.9582 97.9303 46.2159C98.4087 46.3558 99.4024 45.1851 100.911 42.7186C102.42 40.252 104.304 36.3939 106.571 31.1517L107.006 33.2721C103.487 40.738 100.897 45.4281 99.2184 47.335C97.5475 49.242 96.5613 48.6971 96.2595 45.6784C95.9651 42.667 96.2374 37.3511 97.0912 29.738C97.945 22.1249 99.1374 12.5018 100.668 0.875977L102.059 0.986418Z" fill="#A8242C"/>
<path d="M108.154 29.23C108.11 29.23 108.029 29.4656 107.911 29.9221C107.794 30.3786 107.639 30.9529 107.448 31.645C107.256 32.3371 107.08 33.0954 106.91 33.9127C106.741 34.73 106.609 35.5178 106.513 36.2835C106.417 37.0492 106.373 37.7119 106.366 38.2714C106.366 38.831 106.483 39.1992 106.719 39.3759C106.859 39.4789 107.109 39.339 107.47 38.9562C107.83 38.5733 108.228 38.0506 108.677 37.4026C109.118 36.7547 109.575 36.0405 110.046 35.2674C110.517 34.4944 110.936 33.7507 111.312 33.0512C111.687 32.3518 112.136 31.5492 112.674 30.6363L113.388 31.6523C112.35 33.6403 111.378 35.3632 110.465 36.8283C110.061 37.4689 109.648 38.0727 109.236 38.6322C108.817 39.1918 108.412 39.6704 108.014 40.0606C107.617 40.4508 107.234 40.7159 106.881 40.8484C106.528 40.9883 106.211 40.9441 105.931 40.738C105.6 40.4582 105.379 39.9649 105.276 39.2728C105.173 38.5807 105.166 37.8002 105.247 36.9388C105.328 36.0773 105.453 35.157 105.622 34.1998C105.792 33.2427 105.976 32.3591 106.167 31.564C106.358 30.7688 106.594 29.8484 106.851 28.8103L108.162 29.2447L108.154 29.23ZM107.661 23.7521C107.97 23.5827 108.25 23.5091 108.5 23.5386C108.75 23.5606 108.934 23.6711 109.045 23.8625C109.155 24.054 109.17 24.3043 109.089 24.6062C109.008 24.908 108.831 25.1216 108.559 25.2467C108.257 25.4602 107.978 25.5412 107.72 25.4971C107.462 25.4529 107.242 25.3424 107.043 25.1584C106.748 24.5767 106.954 24.1129 107.646 23.7594L107.661 23.7521Z" fill="#A8242C"/>
<path d="M114.624 25.7179L113.13 33.8022C113.549 32.9923 113.984 32.1603 114.418 31.3063C114.852 30.4522 115.279 29.6791 115.699 28.9944C116.118 28.3096 116.501 27.75 116.854 27.323C117.208 26.896 117.509 26.6824 117.76 26.6898C118.157 26.5941 118.437 26.7045 118.591 27.0359C118.746 27.3672 118.797 27.8237 118.761 28.4127C118.724 29.0017 118.643 29.657 118.518 30.3786C118.393 31.1075 118.297 31.7628 118.216 32.3591C118.658 31.7112 119.129 31.0265 119.629 30.3123C120.122 29.5907 120.601 28.9502 121.064 28.3832C121.521 27.8163 121.955 27.3745 122.367 27.0653C122.779 26.7561 123.103 26.6898 123.339 26.8592C123.67 27.1463 123.869 27.6249 123.928 28.3023C123.987 28.9796 123.972 29.6791 123.891 30.4006C123.81 31.1222 123.663 32.0352 123.457 33.147C124.31 32.1456 124.98 31.3504 125.473 30.7614C125.966 30.1724 126.658 29.3478 127.542 28.3023L127.799 29.6349C126.894 30.8056 126.143 31.7333 125.554 32.396C124.965 33.066 124.384 33.6476 123.817 34.1483C123.243 34.649 122.824 34.8183 122.551 34.649C122.279 34.4796 122.139 34.1188 122.139 33.5519C122.139 32.9923 122.191 32.3518 122.294 31.6229C122.389 30.8571 122.47 30.2166 122.537 29.6865C122.603 29.1563 122.588 28.8397 122.492 28.7293C122.397 28.663 122.095 28.9723 121.572 29.6791C121.05 30.3786 120.505 31.1811 119.931 32.072C119.357 32.9703 118.599 34.1925 117.664 35.746L116.405 35.2453C116.641 34.0452 116.84 32.9555 116.987 31.9763C117.119 31.1664 117.237 30.4227 117.347 29.738C117.458 29.0606 117.465 28.7219 117.384 28.7367C117.259 28.7514 117.053 29.0238 116.751 29.5466C116.457 30.0693 116.111 30.7246 115.728 31.5051C115.345 32.2929 114.948 33.1396 114.543 34.0526C114.138 34.9656 113.756 35.8196 113.395 36.6222C113.034 37.4247 112.644 38.3524 112.217 39.42L110.848 39.0004L113.277 25.4087L114.631 25.7106L114.624 25.7179Z" fill="#A8242C"/>
<path d="M128.388 23.8774L128.108 28.3466C128.299 27.9416 128.579 27.3968 128.954 26.69C129.33 25.9905 129.779 25.35 130.294 24.7757C130.809 24.2014 131.361 23.8185 131.935 23.6271C132.51 23.4356 133.069 23.6344 133.614 24.2235C133.96 24.5916 134.188 25.0039 134.298 25.4678C134.409 25.9316 134.438 26.4176 134.386 26.9182C134.335 27.4263 134.254 27.9269 134.144 28.4202C134.033 28.9135 133.937 29.3553 133.871 29.7382C134.475 29.3185 135.041 28.9209 135.564 28.5528C136.094 28.1846 136.565 27.8459 136.977 27.5367C137.426 27.1833 137.846 26.8299 138.258 26.4765L139.156 27.4704C138.398 28.0006 137.669 28.5454 136.963 29.105C136.322 29.5762 135.645 30.0695 134.938 30.5922C134.224 31.115 133.547 31.6083 132.914 32.0795C131.994 34.0086 131.185 35.3633 130.485 36.1511C129.794 36.939 129.249 37.366 128.866 37.4175C128.476 37.4764 128.24 37.2408 128.137 36.7107C128.042 36.1879 128.093 35.5842 128.307 34.9068C128.52 34.2295 128.918 33.5374 129.499 32.8305C130.081 32.1237 130.846 31.6157 131.803 31.3064C131.921 30.9972 132.09 30.5702 132.296 30.018C132.502 29.4657 132.679 28.8914 132.819 28.2877C132.958 27.684 133.047 27.1097 133.098 26.5648C133.142 26.02 133.062 25.5929 132.848 25.2911C132.502 24.9229 132.134 24.864 131.729 25.1144C131.332 25.3647 130.942 25.7696 130.566 26.3439C130.191 26.9182 129.83 27.6103 129.47 28.4129C129.109 29.2154 128.785 30.0032 128.505 30.769C128.226 31.542 127.983 32.2268 127.784 32.8379C127.585 33.449 127.46 33.8613 127.409 34.0822L124.722 59.064L123.338 59.0199L127.181 23.6933L128.395 23.8921L128.388 23.8774ZM129.543 35.5032C129.727 35.3486 129.904 35.1351 130.073 34.8627C130.242 34.5902 130.441 34.2663 130.677 33.8981C130.301 34.1632 130.029 34.4282 129.86 34.708C129.69 34.9805 129.587 35.2455 129.543 35.5032Z" fill="#A8242C"/>
<path d="M142.491 22.6108C142.748 22.9495 142.829 23.3398 142.726 23.7963C142.623 24.2454 142.432 24.7166 142.152 25.1952C141.872 25.6738 141.541 26.1155 141.166 26.5278C140.79 26.9402 140.459 27.2862 140.165 27.5807H140.224C140.599 27.8531 140.938 28.1035 141.239 28.3244C141.541 28.5526 141.821 28.8103 142.071 29.1048C142.579 28.6115 143.124 28.1256 143.698 27.647C144.272 27.1684 144.787 26.734 145.258 26.3585C145.722 25.9756 146.252 25.5339 146.841 25.0332L147.047 26.4395C146.605 26.8371 146.149 27.2568 145.67 27.6985C145.273 28.0887 144.794 28.5379 144.242 29.0312C143.69 29.5245 143.124 30.0472 142.535 30.5921C142.535 30.8866 142.491 31.2989 142.402 31.829C142.314 32.3591 142.196 32.9629 142.042 33.6329C141.887 34.3029 141.688 34.995 141.445 35.7166C141.195 36.4381 140.938 37.1302 140.658 37.8002C140.474 38.242 140.253 38.7206 139.995 39.236C139.738 39.7514 139.443 40.2226 139.112 40.6423C138.781 41.0693 138.391 41.4006 137.949 41.6583C137.508 41.9087 137.007 41.9749 136.448 41.8498C135.851 41.7319 135.491 41.4006 135.366 40.8558C135.241 40.3109 135.233 39.8029 135.329 39.3317C135.476 38.3524 135.748 37.4395 136.139 36.5927C136.536 35.746 137 34.9361 137.53 34.1704C138.06 33.4047 138.634 32.6905 139.237 32.0131C139.848 31.3431 140.459 30.7099 141.077 30.1209C140.864 29.7822 140.547 29.4582 140.128 29.1711C139.708 28.8766 139.281 28.582 138.84 28.2728C138.398 27.9636 137.986 27.6175 137.596 27.242C137.206 26.8665 136.933 26.3953 136.764 25.8357C136.588 25.1952 136.713 24.5767 137.147 23.973C137.581 23.3692 138.133 22.8906 138.81 22.5446C139.488 22.1985 140.172 21.9997 140.879 21.9629C141.578 21.9261 142.108 22.147 142.476 22.6329L142.491 22.6108ZM140.908 32.2045C139.944 33.3016 139.046 34.4575 138.207 35.6577C137.368 36.8652 136.86 38.1684 136.691 39.5599C136.558 40.3698 136.58 40.8042 136.757 40.8631C136.933 40.922 137.184 40.738 137.522 40.3109C137.854 39.8839 138.229 39.3022 138.634 38.5586C139.046 37.815 139.429 37.0271 139.782 36.2025C140.135 35.3779 140.43 34.5974 140.651 33.8612C140.871 33.1249 140.96 32.5653 140.908 32.2045ZM139.031 26.6751C139.252 26.4763 139.517 26.226 139.826 25.9315C140.135 25.6369 140.43 25.3203 140.717 24.989C141.004 24.6577 141.217 24.3558 141.364 24.0834C141.512 23.811 141.534 23.6048 141.431 23.4502C141.328 23.3029 141.077 23.2514 140.695 23.3103C140.305 23.3692 139.914 23.5091 139.51 23.7374C139.105 23.9656 138.759 24.2307 138.472 24.5473C138.185 24.8565 138.089 25.1805 138.177 25.4971C138.236 25.902 138.523 26.2996 139.039 26.6825L139.031 26.6751Z" fill="#A8242C"/>
<path d="M148.114 26.9032C148.489 26.8885 148.96 26.7191 149.535 26.3804C150.109 26.0491 150.594 25.681 150.999 25.2908C151.397 24.9005 151.618 24.5618 151.662 24.2894C151.706 24.0096 151.382 23.9286 150.69 24.0244C150.175 24.1863 149.638 24.525 149.093 25.0404C148.541 25.5558 148.092 26.1375 147.724 26.7707C147.356 27.4112 147.15 28.0518 147.106 28.6997C147.054 29.355 147.268 29.8557 147.731 30.2017C148.386 30.6877 149.108 30.7171 149.895 30.2901C150.683 29.863 151.448 29.2519 152.184 28.4567C152.92 27.6616 153.597 26.8222 154.216 25.9387C154.834 25.0551 155.298 24.4072 155.614 23.9875L156.034 25.5484C155.563 26.2847 154.996 27.1094 154.341 28.015C153.686 28.9206 152.972 29.7158 152.192 30.3931C151.419 31.0705 150.587 31.527 149.711 31.7553C148.828 31.9909 147.93 31.8215 147.017 31.2472C146.23 30.695 145.81 29.9808 145.766 29.0899C145.722 28.2064 145.913 27.3229 146.347 26.4467C146.782 25.5705 147.363 24.7827 148.085 24.0685C148.813 23.3617 149.579 22.9052 150.381 22.6991C151.095 22.4708 151.757 22.5297 152.368 22.8758C152.979 23.2218 153.156 23.7887 152.898 24.5766C152.758 25.0551 152.398 25.5558 151.809 26.0786C151.22 26.6013 150.631 27.0284 150.035 27.3671C149.439 27.7057 148.924 27.8751 148.489 27.8751C148.055 27.8751 147.93 27.5511 148.129 26.8958L148.114 26.9032Z" fill="#A8242C"/>
<path d="M31.7014 55.316L28.5585 86.4826C29.2062 84.9291 29.9055 83.5817 30.6783 82.4257C31.4438 81.2698 32.1504 80.3568 32.7981 79.6794C33.0852 79.3481 33.3722 79.083 33.6814 78.8916C33.9831 78.7002 34.2555 78.5456 34.4837 78.4278C35.0431 78.2658 35.4479 78.2731 35.7055 78.4646C35.9631 78.656 36.1177 78.9358 36.1692 79.3039C36.2207 79.6721 36.2207 80.077 36.1692 80.5261C36.1103 80.9753 36.0367 81.3287 35.9484 81.5864C35.7791 82.1091 35.4921 82.8012 35.0946 83.648C34.6971 84.4947 34.2334 85.3782 33.7035 86.2838C34.3733 85.7684 35.0431 85.2751 35.6981 84.8039C36.3532 84.3327 36.9421 83.913 37.4499 83.5449C37.9578 83.1767 38.5319 82.7792 39.1796 82.3521L39.9083 83.4933C39.0398 84.1192 38.1565 84.7524 37.2512 85.3856C36.5004 85.9525 35.6613 86.5489 34.7339 87.16C33.8065 87.7785 32.9674 88.3675 32.2166 88.9344C32.0474 89.2068 31.8045 89.6192 31.4953 90.164C31.1788 90.7088 30.8329 91.1948 30.4649 91.6292C30.0895 92.0562 29.7067 92.3581 29.3166 92.5201C28.9265 92.6821 28.5732 92.5348 28.2567 92.0857C28.2052 92.2992 28.161 92.5495 28.1169 92.822C28.0727 93.1017 28.0138 93.5214 27.9329 94.0957C27.8519 94.67 27.7562 95.421 27.6385 96.3561C27.528 97.2912 27.3808 98.5355 27.1895 100.104L25.7983 99.9933C26.5638 92.4759 27.3219 85.0027 28.0801 77.5663C28.8382 70.1299 29.5963 62.6788 30.3692 55.1982L31.6941 55.316H31.7014ZM28.4996 91.1727C28.8161 90.5027 29.5522 89.6854 30.7004 88.7283C31.0316 88.1761 31.4512 87.4913 31.959 86.6741C32.4595 85.8494 32.9527 85.0027 33.4238 84.1192C33.8948 83.2356 34.2849 82.411 34.5867 81.6379C34.8885 80.8648 35.0063 80.2316 34.9327 79.7457C34.1451 80.0697 33.409 80.7102 32.7172 81.6674C32.0253 82.6245 31.3923 83.6848 30.8182 84.8481C30.244 86.0188 29.7583 87.1821 29.3681 88.338C28.978 89.5014 28.691 90.4438 28.507 91.1801L28.4996 91.1727Z" fill="#A8242C"/>
<path d="M40.2838 83.5082C40.6592 83.4935 41.1303 83.3167 41.7044 82.9854C42.2785 82.6541 42.7643 82.286 43.1691 81.8957C43.5666 81.5055 43.7874 81.1668 43.8316 80.8944C43.8757 80.6146 43.5519 80.5336 42.86 80.6293C42.3448 80.7913 41.8075 81.13 41.2628 81.6454C40.7181 82.1608 40.2618 82.7424 39.8937 83.3756C39.5331 84.0162 39.327 84.6568 39.2755 85.3047C39.2239 85.96 39.4374 86.4606 39.9011 86.8067C40.5562 87.2926 41.2775 87.3221 42.0651 86.895C42.8526 86.468 43.6181 85.8569 44.3542 85.0617C45.0902 84.2665 45.7674 83.4272 46.3857 82.5437C47.0039 81.6601 47.4676 81.0122 47.7841 80.5925L48.2037 82.1534C47.7253 82.8897 47.1658 83.7143 46.5108 84.62C45.8557 85.5256 45.1417 86.3207 44.3689 86.9981C43.596 87.6755 42.7643 88.132 41.8884 88.3602C41.0052 88.5958 40.1072 88.4265 39.1945 87.8522C38.4069 87.3 37.9874 86.5858 37.9432 85.6949C37.8991 84.8114 38.0904 83.9278 38.5173 83.0517C38.9516 82.1755 39.5331 81.3877 40.2544 80.6735C40.9831 79.9667 41.7486 79.5102 42.5509 79.304C43.2648 79.0758 43.9273 79.1347 44.5382 79.4807C45.1491 79.8268 45.3257 80.3937 45.0681 81.1815C44.9283 81.6601 44.5676 82.1608 43.9788 82.6835C43.3899 83.2063 42.8011 83.6333 42.2049 83.972C41.6087 84.3107 41.0935 84.4801 40.6592 84.4801C40.225 84.4801 40.0998 84.1561 40.2986 83.5008L40.2838 83.5082Z" fill="#A8242C"/>
<path d="M53.3999 51.8705C52.8994 55.2721 52.3842 58.7988 51.8395 62.4581C51.3905 65.602 50.89 69.0993 50.3601 72.9427C49.8228 76.7861 49.3002 80.6221 48.7776 84.4433L55.7995 78.7298L55.505 80.519L49.337 85.6729C50.0657 88.0658 50.5367 90.282 50.7502 92.3289C50.971 94.3757 51.0225 96.2385 50.9195 97.9172C50.8091 99.5959 50.5735 101.068 50.1981 102.327C49.8228 103.587 49.4032 104.625 48.9395 105.449C48.5788 106.083 48.1887 106.694 47.7765 107.275C47.3644 107.857 46.7608 108.122 45.9585 108.07C45.539 108.048 45.3034 107.305 45.2519 105.832C45.2004 104.36 45.2593 102.431 45.4286 100.03C45.5979 97.6374 45.8628 94.869 46.2382 91.7398C46.6062 88.6033 47.0184 85.371 47.4601 82.0431C47.909 78.7151 48.3728 75.3945 48.8659 72.1033C49.3591 68.8048 49.8154 65.7714 50.2423 63.003C50.6692 60.2346 51.0299 57.8417 51.339 55.8243C51.6408 53.8069 51.8469 52.43 51.9499 51.7085L53.4073 51.8705H53.3999ZM48.3727 87.1823C48.4022 87.3884 48.3654 87.8891 48.255 88.699C48.1446 89.5089 47.9974 90.4808 47.8134 91.6368C47.6294 92.7853 47.438 94.0297 47.2393 95.3697C47.0405 96.7097 46.8712 98.0055 46.7166 99.2498C46.5694 100.502 46.4517 101.657 46.356 102.732C46.2677 103.807 46.2529 104.632 46.3118 105.206C46.3781 105.781 46.5179 106.06 46.7461 106.046C46.9743 106.031 47.3349 105.574 47.8207 104.669C48.2108 103.947 48.5568 103.034 48.8512 101.93C49.1456 100.825 49.3517 99.537 49.4695 98.0645C49.5872 96.5919 49.5725 94.95 49.4326 93.1388C49.2928 91.3275 48.9395 89.3396 48.3654 87.1823H48.3727Z" fill="#A8242C"/>
<path d="M60.5767 76.4619L60.1645 77.4559C60.4074 77.4191 60.665 77.4486 60.9226 77.5295C61.3201 77.6768 61.7028 77.9419 62.0708 78.3247C62.4389 78.7076 62.6891 79.2009 62.8216 79.8046C63.5061 79.6648 64.1097 79.4512 64.6323 79.1641C65.1549 78.8769 65.6701 78.5088 66.1853 78.0597L66.6196 79.304C65.4787 80.3053 64.1906 80.9091 62.7701 81.1226C62.3358 83.5597 61.8059 85.3562 61.1581 86.5121C60.5178 87.6681 59.8627 88.3675 59.1929 88.6105C58.5231 88.8535 57.868 88.7357 57.235 88.2424C56.602 87.7564 56.0721 87.0717 55.6525 86.1955C55.233 85.3194 54.9606 84.3327 54.8429 83.2283C54.7251 82.1239 54.8281 81.0784 55.1594 80.0918C55.4906 79.1052 56.0868 78.2732 56.9406 77.5811C57.7944 76.8964 59.0089 76.5209 60.5767 76.4546V76.4619ZM59.3695 77.5737C58.1624 78.1259 57.3307 78.9137 56.8817 79.9372C56.4327 80.9606 56.2193 81.9914 56.2413 83.0295C56.2708 84.0677 56.4843 84.9807 56.8964 85.7759C57.3013 86.571 57.787 87.0202 58.3391 87.1232C58.8911 87.2263 59.4652 86.8434 60.0393 85.9673C60.6208 85.0911 61.0919 83.5008 61.4599 81.2036C60.9962 81.1447 60.5251 80.9901 60.0467 80.725C59.5683 80.4599 59.2076 80.1654 58.95 79.8267C58.6924 79.488 58.5673 79.1273 58.5673 78.7297C58.5673 78.3321 58.8396 77.9492 59.3622 77.5811L59.3695 77.5737ZM61.401 79.9004C61.3201 79.6206 61.1876 79.3923 61.0183 79.2083C60.8416 79.0242 60.6723 78.9064 60.4957 78.8475C60.1865 78.7297 59.9952 78.715 59.9289 78.8033C59.8627 78.899 59.8848 79.0095 60.0099 79.1346C60.135 79.2598 60.3117 79.4144 60.5472 79.5838C60.7827 79.7605 61.0698 79.8635 61.401 79.893V79.9004Z" fill="#A8242C"/>
<path d="M67.694 73.9148C67.5321 74.8131 67.3996 75.6009 67.2966 76.2856C67.1788 76.8894 67.0978 77.4269 67.0684 77.9128C67.039 78.3987 67.1052 78.6491 67.2745 78.6638C67.488 78.7153 67.8486 78.4871 68.3565 77.9717C68.8644 77.4637 69.3796 76.8746 69.9095 76.212C70.5499 75.4536 71.227 74.5848 71.9557 73.5982L73.2217 74.1578C72.5446 76.3372 71.9778 78.2736 71.5215 79.9596C71.3007 80.7033 71.1019 81.4027 70.9253 82.0728C70.756 82.7428 70.6235 83.3465 70.5352 83.8766C70.4468 84.4141 70.3953 84.8338 70.3806 85.1504C70.3659 85.467 70.4174 85.6142 70.5425 85.5922C70.6309 85.6216 70.8664 85.4081 71.2565 84.959C71.6466 84.5098 72.1103 83.9282 72.655 83.2213C73.1923 82.5145 73.7664 81.7488 74.37 80.9094C74.9735 80.0701 75.5329 79.2896 76.0555 78.5681C76.5707 77.8465 77.005 77.2428 77.351 76.7568C77.6969 76.2709 77.8883 76.0206 77.9251 76.0132L78.4624 77.5594C78.4182 77.5594 78.2121 77.8539 77.8441 78.4282C77.4687 79.0025 76.9903 79.7093 76.4088 80.5413C75.8273 81.3733 75.187 82.2642 74.4951 83.1919C73.8032 84.127 73.126 84.9663 72.4636 85.71C71.8012 86.4536 71.2123 87.0058 70.6824 87.3739C70.1524 87.7421 69.7844 87.7568 69.5636 87.4108C69.2839 87.2046 69.1514 86.726 69.1661 85.975C69.1808 85.224 69.2692 84.3479 69.4311 83.3465C69.593 82.3452 69.8138 81.2849 70.0862 80.1584C70.3585 79.0393 70.6088 78.0011 70.8443 77.0514C70.5278 77.4342 70.1671 77.8171 69.7697 78.2073C69.3722 78.5975 68.9748 78.9509 68.5847 79.2528C68.1946 79.5621 67.8339 79.8124 67.51 80.0038C67.1862 80.1952 66.8917 80.2689 66.6415 80.2247C66.1263 80.1363 65.8171 79.7314 65.7141 79.0172C65.611 78.303 65.6037 77.5447 65.692 76.7421C65.8024 75.807 66.0232 74.7615 66.3471 73.5835L67.7014 73.8854L67.694 73.9148Z" fill="#A8242C"/>
<path d="M79.1765 77.7802C79.5518 77.7654 80.0229 77.5961 80.597 77.2574C81.1712 76.9261 81.6569 76.5579 82.0618 76.1677C82.4592 75.7775 82.68 75.4388 82.7242 75.1664C82.7684 74.8866 82.4445 74.8056 81.7526 74.9013C81.2374 75.0633 80.7001 75.402 80.1554 75.9174C79.6107 76.4328 79.1544 77.0144 78.7864 77.6476C78.4257 78.2882 78.2122 78.9287 78.1681 79.5767C78.1166 80.232 78.33 80.7326 78.7937 81.0787C79.4488 81.5646 80.1701 81.5941 80.9577 81.167C81.7453 80.74 82.5107 80.1289 83.2468 79.3337C83.9828 78.5385 84.66 77.6992 85.2783 76.8156C85.8966 75.9321 86.3603 75.2842 86.6768 74.8645L87.0963 76.4254C86.6252 77.1617 86.0585 77.9863 85.4034 78.8919C84.7483 79.7975 84.0344 80.5927 83.2542 81.2701C82.4813 81.9475 81.6496 82.404 80.7737 82.6322C79.8904 82.8678 78.9925 82.6985 78.0798 82.1242C77.2922 81.572 76.8726 80.8578 76.8285 79.9669C76.7843 79.0834 76.9757 78.1998 77.4026 77.3237C77.8369 76.4475 78.4183 75.6597 79.1397 74.9455C79.8684 74.2387 80.6338 73.7822 81.4361 73.576C82.1501 73.3478 82.8125 73.4067 83.4235 73.7527C84.0344 74.0988 84.211 74.6657 83.9534 75.4535C83.8136 75.9321 83.4529 76.4328 82.8641 76.9555C82.2752 77.4783 81.6864 77.9053 81.0902 78.244C80.494 78.5827 79.9787 78.752 79.5445 78.752C79.1102 78.752 78.9851 78.4281 79.1838 77.7728L79.1765 77.7802Z" fill="#A8242C"/>
<path d="M92.2633 64.1148L99.0644 61.987C99.5575 59.4174 99.9697 57.2896 100.308 55.5961C100.639 53.9027 100.801 53.0339 100.801 52.9971L102.148 53.2327C102.075 53.2842 101.898 54.0794 101.626 55.6182C101.353 57.157 101 59.145 100.566 61.5747L112.446 57.9522L112.814 59.2039L100.279 63.0472C99.8225 65.8598 99.3588 68.7902 98.8877 71.831C98.424 74.8718 98.0633 77.655 97.8057 80.1657C97.5481 82.6764 97.4745 84.7085 97.5775 86.2547C97.6806 87.8008 98.0486 88.4856 98.689 88.3089C99.3293 88.1322 100.294 86.8731 101.596 84.5391C102.899 82.2051 104.636 78.4207 106.822 73.1931L107.279 74.997C106.793 76.234 106.351 77.3163 105.946 78.2513C105.542 79.1864 105.078 80.2098 104.563 81.329C104.04 82.4481 103.481 83.5304 102.884 84.5686C102.288 85.6141 101.699 86.5565 101.118 87.3885C100.536 88.2205 99.977 88.8243 99.4471 89.1924C98.424 89.8845 97.6585 89.9581 97.1359 89.4059C96.6133 88.8537 96.2895 87.8966 96.1496 86.5271C96.0098 85.1502 96.0098 83.4789 96.157 81.4983C96.3042 79.5251 96.5176 77.4635 96.8047 75.321C97.0918 73.1784 97.4156 71.0579 97.7689 68.9669C98.1222 66.8759 98.4387 65.0425 98.7037 63.4596L92.6166 65.3591L92.2412 64.1001L92.2633 64.1148Z" fill="#A8242C"/>
<path d="M108.051 72.648C108.257 72.3314 108.552 71.897 108.956 71.3595C109.354 70.822 109.781 70.2993 110.222 69.7986C110.664 69.298 111.106 68.8709 111.533 68.5175C111.96 68.1641 112.32 68.0242 112.629 68.1052C112.975 68.1788 113.181 68.4586 113.255 68.9519C113.321 69.401 113.284 70.049 113.137 70.903C112.99 71.7571 112.821 72.6333 112.622 73.5389C112.46 74.4372 112.32 75.2544 112.202 76.0054C112.085 76.7491 112.018 77.3528 112.004 77.8167C112.372 77.5148 112.931 76.9184 113.675 76.0422C114.418 75.1661 115.154 74.2457 115.89 73.2812C116.619 72.324 117.561 71.0724 118.709 69.5262L118.893 71.1828C117.863 72.6627 116.898 74.0175 115.993 75.2323C115.191 76.2705 114.411 77.2129 113.667 78.0744C112.924 78.9358 112.32 79.3923 111.879 79.4586C111.223 79.5543 110.841 79.1788 110.716 78.3173C110.642 77.8314 110.679 77.1319 110.811 76.2116C110.944 75.2986 111.106 74.3488 111.297 73.3622C111.408 72.7216 111.518 72.0884 111.614 71.4773C111.709 70.8589 111.768 70.3214 111.783 69.8575C111.113 70.9546 110.37 72.0001 109.56 72.9941C108.75 73.988 108.081 75.0851 107.551 76.2852L106.086 89.229L104.805 88.9786L109.567 44.6548L110.907 44.8315L108.081 72.648H108.051Z" fill="#A8242C"/>
<path d="M119.659 71.809C120.034 71.7942 120.505 71.6249 121.079 71.2862C121.654 70.9475 122.139 70.5867 122.544 70.1965C122.942 69.8063 123.162 69.4676 123.207 69.1952C123.251 68.9154 122.927 68.8344 122.235 68.9301C121.72 69.0921 121.183 69.4308 120.638 69.9462C120.093 70.4616 119.637 71.0432 119.269 71.6764C118.908 72.3096 118.695 72.9576 118.65 73.6055C118.599 74.2608 118.812 74.7614 119.276 75.1075C119.931 75.5934 120.653 75.6229 121.44 75.1958C122.228 74.7688 122.993 74.1577 123.729 73.3625C124.465 72.5673 125.142 71.728 125.761 70.8444C126.379 69.9609 126.843 69.313 127.159 68.8933L127.579 70.4542C127.108 71.1905 126.541 72.0151 125.886 72.9207C125.231 73.8264 124.517 74.6215 123.737 75.2989C122.964 75.9763 122.132 76.4328 121.256 76.661C120.373 76.8966 119.475 76.7273 118.562 76.153C117.775 75.6008 117.355 74.8866 117.311 73.9957C117.267 73.1122 117.458 72.2286 117.892 71.3525C118.327 70.4763 118.908 69.6811 119.629 68.9743C120.358 68.2675 121.124 67.811 121.926 67.6048C122.64 67.3766 123.302 67.4355 123.913 67.7815C124.524 68.1276 124.701 68.6945 124.443 69.4823C124.303 69.9609 123.943 70.4616 123.354 70.9843C122.765 71.5071 122.176 71.9341 121.58 72.2728C120.984 72.6115 120.469 72.7808 120.034 72.7808C119.6 72.7808 119.475 72.4569 119.674 71.8016L119.659 71.809Z" fill="#A8242C"/>
<path d="M135.241 51.4874C134.733 51.4359 134.424 51.1487 134.306 50.626C134.195 50.1842 134.306 49.4848 134.622 48.5202C134.939 47.5631 135.667 46.1789 136.823 44.3897L137.854 45.0524C137.382 45.7886 136.992 46.4071 136.691 46.9078C136.389 47.4085 136.146 47.8797 135.962 48.3214C135.778 48.7632 135.631 49.2271 135.513 49.6983C135.395 50.1769 135.307 50.7659 135.248 51.4874H135.241ZM139.296 50.6333C138.788 50.5818 138.479 50.2947 138.361 49.7719C138.258 49.3301 138.361 48.6307 138.678 47.6662C138.994 46.7016 139.723 45.3248 140.879 43.5356L141.909 44.1983C141.431 44.9346 141.048 45.553 140.746 46.0537C140.444 46.5544 140.202 47.0256 140.018 47.4674C139.833 47.9091 139.679 48.373 139.569 48.8442C139.458 49.3154 139.362 49.9118 139.304 50.6333H139.296Z" fill="#A8242C"/>
<path d="M148.571 47.0849L143.764 83.9282L142.432 83.7515L147.238 46.9082L148.571 47.0849Z" fill="#A8242C"/>
<path d="M173.427 32.8746L166.596 78.0009L165.323 77.8169L167.104 65.7567C166.729 66.3089 166.177 66.8832 165.455 67.4648C164.734 68.0539 163.976 68.4883 163.181 68.768C162.386 69.0478 161.628 69.1141 160.899 68.9447C160.17 68.7828 159.611 68.2306 159.221 67.2881C158.949 66.5813 159.015 65.7199 159.405 64.7038C159.795 63.6877 160.347 62.679 161.054 61.6851C161.76 60.6911 162.541 59.7928 163.402 58.9977C164.263 58.2025 165.05 57.6724 165.757 57.3999C166.927 57.1864 167.752 57.5251 168.215 58.4086L172.161 32.6758L173.434 32.8599L173.427 32.8746ZM167.56 62.0753C167.56 61.744 167.531 61.3758 167.494 60.9635C167.457 60.5512 167.398 60.1683 167.325 59.8002C167.251 59.4394 167.133 59.1449 166.979 58.9167C166.824 58.6884 166.603 58.6222 166.324 58.7031C165.772 58.9093 165.102 59.3732 164.314 60.0947C163.527 60.8163 162.798 61.6188 162.143 62.5023C161.481 63.3932 160.987 64.2768 160.664 65.1529C160.332 66.0365 160.377 66.7138 160.774 67.1924C161.319 67.7741 161.937 67.9508 162.629 67.7004C163.321 67.4501 163.99 67.0083 164.646 66.3751C165.301 65.7419 165.867 65.0057 166.353 64.1884C166.832 63.3711 167.155 62.6569 167.317 62.0532L167.568 62.0753H167.56Z" fill="#A8242C"/>
<path d="M177.468 58.6148L177.056 59.6088C177.298 59.5719 177.556 59.6014 177.814 59.6824C178.211 59.837 178.594 60.0947 178.962 60.4776C179.33 60.8604 179.58 61.3537 179.713 61.9575C180.397 61.8176 181.001 61.6041 181.523 61.3169C182.046 61.0298 182.561 60.6616 183.076 60.2125L183.511 61.4568C182.37 62.4581 181.082 63.0619 179.661 63.2754C179.227 65.7125 178.697 67.509 178.049 68.665C177.409 69.8209 176.754 70.5204 176.084 70.7633C175.414 71.0063 174.759 70.8885 174.126 70.3952C173.493 69.9093 172.963 69.2245 172.544 68.3484C172.124 67.4722 171.852 66.4856 171.734 65.3812C171.616 64.2767 171.719 63.2312 172.05 62.2446C172.382 61.258 172.978 60.426 173.832 59.7339C174.686 59.0492 175.9 58.6737 177.468 58.6074V58.6148ZM176.261 59.7339C175.054 60.2861 174.222 61.0739 173.773 62.0974C173.316 63.1208 173.11 64.1516 173.132 65.1897C173.162 66.2279 173.375 67.1409 173.788 67.936C174.192 68.7312 174.678 69.1803 175.23 69.2834C175.782 69.3865 176.356 69.0036 176.93 68.1275C177.505 67.2513 177.983 65.6609 178.351 63.3638C177.887 63.3049 177.416 63.1502 176.938 62.8852C176.459 62.6201 176.099 62.3256 175.841 61.9869C175.584 61.6482 175.458 61.2875 175.458 60.8899C175.458 60.4923 175.731 60.1094 176.253 59.7413L176.261 59.7339ZM178.285 62.0532C178.204 61.7734 178.071 61.5452 177.902 61.3611C177.725 61.177 177.556 61.0592 177.379 61.0003C177.07 60.8825 176.879 60.8678 176.813 60.9561C176.746 61.0519 176.769 61.1623 176.894 61.2875C177.019 61.42 177.195 61.5673 177.431 61.7366C177.667 61.9133 177.946 62.0164 178.285 62.0458V62.0532Z" fill="#A8242C"/>
<path d="M186.507 36.0625C187.022 36.1509 187.331 36.438 187.441 36.924C187.544 37.3657 187.441 38.0652 187.125 39.0297C186.808 39.9943 186.072 41.3711 184.924 43.1602L183.894 42.505C184.328 41.776 184.703 41.1576 185.027 40.6495C185.351 40.1489 185.601 39.6703 185.785 39.2285C185.969 38.7868 186.124 38.3303 186.234 37.8517C186.352 37.3731 186.44 36.7841 186.499 36.0625H186.507ZM190.562 35.2158C191.077 35.3042 191.386 35.5913 191.497 36.0773C191.6 36.519 191.497 37.2185 191.18 38.183C190.864 39.1475 190.128 40.5244 188.98 42.3135L187.949 41.6582C188.383 40.9293 188.759 40.3109 189.083 39.8102C189.407 39.3022 189.657 38.8309 189.841 38.3892C190.025 37.9474 190.179 37.4909 190.29 37.0123C190.408 36.5411 190.496 35.9447 190.555 35.2232L190.562 35.2158Z" fill="#A8242C"/>
</svg>
