<svg width="167" height="152" viewBox="0 0 167 152" fill="none" xmlns="http://www.w3.org/2000/svg">
<path d="M56.9377 42.4137C57.3492 42.5313 57.7608 42.6416 58.1797 42.7593C58.4737 42.8843 58.9294 43.2152 59.0175 42.7593C59.1204 42.2666 58.7897 41.7813 58.165 41.6857H58.1577C57.9886 41.4578 57.8196 41.2298 57.6506 41.0019C56.1586 37.1047 56.1218 33.0237 56.3497 28.9573C56.5408 25.5896 58.3194 24.6778 61.4355 26.0528C63.317 26.8837 64.4709 28.3176 65.3014 30.0971C65.7423 31.0383 66.1466 32.0016 66.5875 33.0016C67.3813 33.2075 67.6605 32.5898 68.0207 32.0016C69.2848 29.9353 71.1369 28.7735 73.5181 28.3103C76.1051 27.8102 77.406 28.5456 78.3393 31.0162C79.3903 33.7884 78.8171 36.4649 78.0821 39.1562C77.9278 39.7077 77.8175 40.296 77.5235 40.7739C76.7886 41.9798 77.112 42.7225 78.3687 43.2152C78.8979 43.4211 79.3903 43.7152 79.8901 43.9873C85.0494 46.7521 84.6452 53.5391 80.2869 56.6568C79.1625 57.4657 77.8837 57.0833 76.6637 57.2156C75.9581 56.6715 75.1423 56.6642 74.3045 56.7451C73.3417 56.2377 72.107 57.1274 71.2397 56.1421C70.6003 55.4729 69.9683 54.9729 69.3289 56.1421C69.0055 60.1422 68.5204 64.1129 66.7198 67.7675C66.3156 68.591 65.9849 69.569 64.9339 69.8778C64.5591 69.8999 64.1769 69.8925 63.8094 69.9587C61.2224 70.4146 60.2302 69.9219 59.069 67.7013C58.7677 67.1277 58.8559 66.3777 58.2679 65.9365C57.555 62.1055 57.9151 58.3407 59.3556 54.3479H54.2404C53.2629 53.4729 52.1384 53.017 50.8008 53.1935C50.0879 52.3331 49.2574 51.539 48.6695 50.5978C46.2809 46.752 47.9566 42.8917 52.3295 42.0387C52.7631 42.1931 53.1968 42.1931 53.6157 41.9799C54.5564 42.0828 55.4898 42.1784 56.4305 42.2813C56.5555 42.4651 56.7025 42.5755 56.9229 42.4063L56.9377 42.4137ZM63.9564 46.7006C64.0152 48.1859 65.0662 49.2007 66.514 49.1712C67.587 49.1492 68.4543 48.2521 68.4616 47.1565C68.469 45.8035 67.2931 44.5755 65.9775 44.5682C64.5591 44.5608 63.905 45.252 63.9638 46.7006H63.9564Z" fill="#B56A4E"/>
<path d="M12.7013 46.8402C14.2153 45.8402 15.6925 45.024 17.7136 45.3255C20.6314 45.7667 21.8808 47.8182 22.8215 50.1271C23.6741 52.2301 24.0562 54.5022 24.1665 56.7964C24.2106 57.7229 24.0121 58.6788 24.4458 59.8333C26.5404 58.0832 28.7966 56.7597 31.0897 55.4876C31.56 55.4876 31.979 55.3773 32.2877 54.9949C35.4259 54.4802 37.3808 56.2523 39.0712 58.5171C39.1006 59.9951 39.1227 61.4731 39.1521 62.9511C37.2926 66.3924 34.4925 68.6277 30.3768 69.4733C32.0672 71.9734 34.2867 74.1499 33.5812 77.2603C33.1108 79.3192 32.0084 81.1207 29.9726 82.1208C29.0024 82.0987 28.025 82.084 27.0548 82.062C25.6805 82.0326 25.2028 80.6869 24.1885 80.1281C24.1885 79.4516 24.0415 78.8192 23.7035 78.2162C22.8436 76.6794 22.3365 76.5839 21.3222 78.0177C20.4917 79.2016 19.404 80.1207 18.4412 81.1722C17.9488 81.3414 17.427 81.4517 17.1036 81.9223C16.9493 81.9223 16.8096 81.9664 16.692 82.062C15.5382 82.0546 14.377 82.0473 13.2231 82.0325C10.7537 81.4737 10.2098 80.8413 10.1951 78.4663C10.1804 75.8779 10.9374 73.6646 13.201 72.1646C13.4215 72.0175 13.7155 71.9146 13.8404 71.7087C14.1785 71.1646 13.6788 71.0837 13.3554 71.0763C12.3485 71.0469 11.3416 71.0763 10.3348 71.091C7.17447 70.2895 4.27878 69.0248 2.08863 66.4806C-0.263203 63.7526 0.78778 60.473 4.30083 59.7377C7.51256 59.0612 10.5479 60.0245 13.5612 60.9363C14.3108 61.1642 14.9796 61.4289 15.8983 61.2304C15.744 60.2083 15.1781 59.4877 14.6268 58.7597C12.0031 55.267 11.5548 51.3256 12.2603 47.149C12.2824 47.024 12.5469 46.9358 12.7013 46.8329V46.8402ZM24.1003 67.7233C24.1371 66.6056 22.8509 65.4144 21.6162 65.4217C20.6681 65.4291 19.1247 66.9144 19.0953 67.8556C19.0659 68.7748 20.5505 70.3484 21.506 70.3925C22.5276 70.4366 24.0636 68.8557 24.1077 67.7233H24.1003Z" fill="#B56A4E"/>
<path d="M59.2751 86.6577C60.5906 83.5546 62.6191 81.2604 66.088 80.5619C68.4986 80.0765 70.5051 81.2236 72.585 82.0913L72.5556 82.0546C74.9515 87.665 70.8799 90.6136 67.5285 93.9299C70.167 94.8344 72.6144 95.8491 75.0177 96.9962C76.3185 97.6213 77.5753 98.3271 78.5307 99.4081C80.0741 101.158 79.567 102.739 77.3474 103.496C75.951 103.974 74.5546 103.96 73.1288 103.754C70.6668 103.342 68.19 102.996 65.8602 102.041C65.2502 101.791 64.6328 101.607 63.964 101.629V101.643C63.8758 101.298 63.6333 101.143 63.2879 101.121C62.4868 101.768 63.1335 102.276 63.4496 102.813C63.9199 105.585 64.9709 108.247 64.0008 111.195C62.8469 114.695 59.3044 115.784 56.7395 113.07C54.5787 110.783 53.1235 108.085 53.0574 104.813C53.0353 103.769 52.9471 102.717 52.881 101.673C52.6311 100.599 52.6164 100.599 51.2494 101.643C48.339 103.394 45.2522 104.232 41.8053 103.849C40.0047 103.651 36.9106 100.893 36.4182 99.3419C35.7861 97.3566 36.6166 95.7609 38.6818 94.7535C40.8205 93.7094 43.1797 93.4226 45.4654 92.9005C47.6408 92.9373 49.8236 92.9814 51.9991 92.9961C52.3739 92.9961 52.8002 92.8417 52.4841 92.3269C52.3592 92.1211 52.0432 92.0255 51.8227 91.8784C49.1401 88.8415 46.4208 85.9224 45.3404 81.7457C44.8333 79.7751 45.6271 78.5545 46.5384 77.4147C47.5379 76.172 49.0519 76.9441 50.2205 77.5177C52.9986 78.8707 54.4464 81.5839 56.3426 83.8267C57.0776 84.6943 57.6508 85.7017 58.2902 86.6503C58.349 87.1136 58.5475 87.5768 59.0325 87.5327C59.3559 87.5033 59.3633 87.0106 59.2824 86.665L59.2751 86.6577ZM60.4877 94.555C60.4363 93.0108 59.863 92.4005 58.4519 92.4225C57.0555 92.4372 55.8428 94.0329 55.9825 95.6653C56.0707 96.6506 57.1143 97.5698 58.1506 97.5624C59.5543 97.5551 60.5392 96.283 60.4804 94.555H60.4877Z" fill="#B56A4E"/>
<path d="M63.9493 101.621C64.6181 101.599 65.2354 101.783 65.8454 102.033C68.1752 102.997 70.652 103.342 73.1141 103.754C73.4007 104.776 74.3414 104.864 75.1352 105.122C78.369 106.158 81.7277 106.68 85.0717 106.195C88.6362 105.68 92.1493 104.798 96.4928 105.055C94.5819 102.849 94.0528 100.533 92.208 99.0699C90.3927 97.6287 89.1653 95.6654 87.6073 94.0036C85.5127 91.7682 83.2784 89.6284 80.7722 87.9298C78.7879 86.5769 76.8256 85.2533 75.1499 83.54C74.4076 82.7826 73.7608 81.9444 72.5482 82.0547L72.5776 82.0914C72.5555 80.5767 70.9754 80.584 70.2698 79.7384C69.9979 79.3634 69.601 79.2163 69.1674 79.1207L69.1527 79.106C67.9694 78.1133 66.7862 78.5619 65.6029 79.106C64.0742 78.959 62.4647 79.5178 61.0242 78.5986C59.8115 77.6133 58.3637 78.1575 57.0261 78.003C50.8672 77.3486 48.0083 74.6206 47.2954 68.5248C46.9279 65.4291 46.5825 65.532 42.8636 64.1643C41.6583 63.7232 40.3795 63.3923 39.1521 62.9584C39.1301 61.4804 39.1007 60.0025 39.0713 58.5245C41.1879 59.0833 43.3046 59.6348 45.4286 60.1937C46.0312 60.6643 46.6266 61.0613 47.1557 60.0981C47.6334 57.3994 48.4492 54.8846 50.8231 53.2008C52.1607 53.0243 53.2778 53.4728 54.2627 54.3552C52.9912 56.1494 51.4993 57.8112 50.8892 60.0025C50.3895 61.8113 50.5879 62.4364 52.3004 63.2011C54.3068 64.0982 56.1368 65.3997 58.2975 65.9512C58.8855 66.3924 58.7973 67.135 59.0986 67.7159C60.2598 69.9366 61.252 70.4219 63.839 69.9734C64.2065 69.9072 64.5887 69.9146 64.9635 69.8925C65.7205 70.9661 66.7494 71.7161 67.896 72.3117C68.0503 72.569 68.234 72.7676 68.5721 72.6867C70.4977 73.775 72.0631 75.3559 73.827 76.6059C76.4801 78.4883 78.8099 80.7679 81.5146 82.562C85.4906 85.2018 89.0772 88.2828 91.9729 92.0917C93.4721 94.0624 95.7652 95.2757 96.9264 97.5331C98.1464 99.9008 100.19 101.724 101.307 104.166C101.843 105.342 102.835 106.011 104.063 106.482C109.553 108.563 110.942 113.467 112.184 118.46C110.589 121.269 112.963 122.894 114.058 124.946C114.639 126.027 115.726 126.836 115.822 128.174C115.454 130.725 116.476 133.174 116.403 135.704C115.352 135.593 114.844 134.718 114.146 134.108C114.227 133.343 114.124 132.703 113.646 131.983C110.883 127.836 108.245 123.6 104.754 119.997C104.313 119.541 104.423 118.931 104.224 118.409C104.217 118.078 103.997 117.916 103.717 117.821C103.313 116.696 102.321 115.776 102.475 114.445L102.578 114.342C103.453 114.401 104.136 114.982 104.93 115.24C105.9 115.548 106.922 115.938 107.701 114.842C107.782 113.872 107.532 113.07 106.569 112.637C106.517 112.188 106.473 111.739 106.01 111.489C105.9 110.769 105.768 109.989 105.165 109.578C104.349 109.019 104.349 109.717 104.364 110.276C103.387 110.401 103.144 109.497 102.6 109.011C102.211 108.658 101.74 108.533 101.292 108.82C100.91 109.07 101.057 109.475 101.152 109.857C101.461 111.159 101.74 112.46 102.027 113.769L101.976 113.806C101.116 113.07 100.204 112.394 99.7486 111.284C98.6094 108.519 96.4707 107.556 93.6044 107.945C93.1341 108.011 92.6637 108.033 92.1933 108.078C91.5245 107.997 90.8704 107.989 90.3413 108.511C89.9958 108.556 89.6504 108.6 89.305 108.644C88.6362 108.57 87.9894 108.578 87.4823 109.107C87.3133 109.092 87.1516 109.122 86.9973 109.181C84.1163 109.188 81.2353 109.203 78.3543 109.21C78.0015 109.173 77.6561 109.136 77.3033 109.1C76.7815 108.578 76.1347 108.585 75.4733 108.658C74.2239 108.658 73.0773 108.35 71.9749 107.71C69.3879 106.217 66.5069 105.18 64.4343 102.879C64.28 102.474 64.1183 102.07 63.964 101.666L63.9493 101.621ZM51.1832 67.8483C51.3817 71.0102 52.3812 72.8779 54.6889 73.9809C56.9452 75.0544 59.3412 75.6648 61.7591 76.1868C62.6117 76.3707 63.5965 76.5839 64.6622 75.6647C60.348 72.7602 56.1882 70.1057 51.1906 67.8483H51.1832ZM108.825 115.982C108.982 117.512 109.646 118.821 110.817 119.909C110.008 118.313 109.413 117.144 108.825 115.982Z" fill="#929499"/>
<path d="M150.864 84.4371C149.894 84.2091 149.137 83.6797 148.556 82.8635C148.035 82.1282 147.234 81.7384 146.418 81.4958C142.787 80.4075 140.737 77.3707 141.692 73.7897C142.28 71.5617 141.721 69.6498 141.016 67.6939C140.171 65.3555 139.414 63.0246 138.862 60.5833C138.392 58.4877 138.517 56.6788 139.627 54.892C140.906 54.4876 141.266 53.2522 142.28 52.2154C141.508 52.1272 141.053 52.0757 140.597 52.0242C142.765 51.2889 144.073 49.1491 146.307 48.5388L146.388 48.6124C147.52 49.7595 148.939 49.1124 150.195 49.1124C153.944 49.1124 156.589 50.5389 157.927 54.1934C158.868 56.767 160.367 59.0759 161.705 61.4584C162.212 62.3555 162.682 62.5025 163.461 61.804C164.49 60.8775 165.144 61.429 165.681 62.429C166.489 63.9217 166.901 65.4365 166.203 67.0836C165.357 69.091 164.431 71.0175 165.762 73.2749C166.313 74.2088 165.144 76.2088 164.13 76.8853C162.146 78.2016 159.941 78.0619 157.751 77.8339C155.847 77.6354 155.854 77.5545 155.391 79.6281C154.487 80.1134 153.973 80.6722 155.075 81.5032C153.922 82.8414 152.841 84.29 150.857 84.4444L150.864 84.4371Z" fill="#DBBCA5"/>
<path d="M26.893 144.814C25.5774 145.513 24.2325 146.175 22.9463 146.925C20.7782 148.189 20.4328 147.998 20.0947 145.27C20.9987 144.719 20.7047 143.947 20.4842 143.189C20.8076 141.233 22.3731 140.049 23.4387 138.571C23.8356 138.02 24.1663 137.498 24.3354 136.858C24.8131 136.917 25.2835 137.027 25.5921 137.41C26.7534 138.873 27.8264 138.52 29.1934 137.557C30.2738 136.799 31.0308 135.667 32.2434 135.108C33.3164 135.409 34.3748 134.549 35.4184 134.887C35.6242 135.814 34.4556 136.659 34.8304 136.777C36.2195 137.226 36.7045 139.101 38.0936 139.064C41.4817 138.976 44.958 139.895 48.2359 138.145C49.1031 137.682 50.1541 137.74 51.2492 137.792C54.1596 137.939 56.798 139.108 59.6056 139.542C60.6565 139.704 61.6928 139.858 62.6997 139.432C63.2215 139.211 63.8388 138.976 63.8168 138.285C63.8021 137.527 63.1333 137.549 62.5894 137.373C60.0024 136.534 59.8628 137.145 59.9069 133.946C60.2744 133.858 60.6565 133.792 61.0166 133.681C62.6409 133.159 64.199 132.586 65.5366 134.387C65.9481 134.939 66.8521 135.123 67.6532 135.101C72.9889 134.976 78.2879 135.329 83.5648 136.137C83.8294 136.182 84.1969 136.174 84.388 136.027C86.4385 134.461 88.8124 135.321 91.0393 135.108C90.9584 135.593 90.8188 136.071 90.2602 136.174C88.9594 136.417 87.6512 136.711 86.3356 136.807C84.6893 136.932 83.3444 137.535 82.5212 138.954C81.9774 139.902 81.2424 140.263 80.2208 140.365C77.6118 140.638 75.2967 142.182 72.5994 142.138C72.0629 142.13 71.5191 142.491 70.9825 142.689C70.5783 142.844 70.3725 143.167 70.4387 143.571C70.4975 143.976 70.7915 144.241 71.2177 144.27C72.548 144.351 73.8489 144.358 75.1791 143.983C76.6417 143.571 78.5084 143.196 79.5667 144.152C80.3678 144.88 81.3306 145.344 82.095 145.829C82.0582 146.8 80.7132 146.483 81.0146 147.535C82.0656 147.829 83.1533 148.138 84.241 148.439C84.1675 148.608 84.1455 148.778 84.1675 148.961C83.7486 149.064 83.337 149.175 82.9181 149.278C82.4771 149.042 82.095 149.064 81.8083 149.52H81.7936C81.1836 149.586 80.4928 149.417 80.0959 150.108L80.0738 150.123C79.2801 150.204 78.3614 149.741 77.7735 150.667L77.7661 150.675C76.7445 150.741 75.6642 150.432 74.7528 151.175C74.5838 151.16 74.4368 151.219 74.3192 151.344C71.6367 151.675 68.8953 151.094 66.2421 151.829C65.735 151.844 65.3014 151.689 64.9707 151.292C62.7952 150.381 60.5316 150.013 58.1724 150.226C56.6511 149.895 55.0121 149.851 53.9685 148.417C53.4026 147.66 52.5574 147.961 51.8225 147.844C49.4853 147.939 47.4715 146.807 45.3475 146.108C44.4215 145.138 43.1942 145.52 42.077 145.388L42.0991 145.402C41.6434 144.645 40.9305 144.961 40.2911 144.983C40.1515 144.895 40.0045 144.851 39.8354 144.851C39.3504 144.16 38.6228 144.469 37.9834 144.41C37.4469 144.167 36.9691 143.527 36.315 144.182C35.5213 144.204 34.6981 143.645 33.9411 144.329L33.6545 144.292L33.3752 144.351C31.1337 143.469 28.995 144.042 26.871 144.836L26.893 144.814Z" fill="#746B3E"/>
<path d="M84.2483 148.432C83.1605 148.123 82.0655 147.822 81.0218 147.527C80.7205 146.483 82.0581 146.799 82.1022 145.821C81.3305 145.336 80.3751 144.873 79.574 144.145C78.5157 143.189 76.6489 143.557 75.1863 143.976C73.8561 144.351 72.5552 144.343 71.225 144.263C70.7987 144.241 70.5047 143.968 70.4459 143.564C70.3871 143.16 70.5929 142.836 70.9898 142.682C71.5263 142.483 72.0702 142.123 72.6067 142.13C75.3039 142.174 77.619 140.63 80.2281 140.358C81.2497 140.255 81.9773 139.895 82.5285 138.946C83.3516 137.527 84.6966 136.924 86.3428 136.799C87.6584 136.704 88.9666 136.402 90.2675 136.167C90.8261 136.064 90.9657 135.586 91.0465 135.101C92.3915 134.086 93.0897 132.792 92.7736 131.064C93.1191 130.453 93.2881 129.725 93.9349 129.321C97.1025 129.306 99.7704 131.02 102.578 132.071C104.893 132.946 107.098 133.483 109.523 133.373C110.479 133.328 111.441 133.365 112.404 133.358C112.992 133.6 113.58 133.843 114.168 134.086C114.866 134.696 115.373 135.571 116.424 135.681C116.748 137.446 118.041 138.674 118.894 140.137C119.798 141.682 121.018 143.079 121.025 145.013C118.725 144.961 116.424 144.66 114.117 144.917L114.087 144.91C113.749 144.777 113.404 144.527 113.066 144.535C109.604 144.63 106.142 144.763 102.681 144.91C102.027 144.939 101.358 144.991 100.821 145.454H100.542L100.285 145.542C99.2412 145.527 98.1388 145.101 97.2054 145.946C95.64 145.571 94.2803 146.52 92.7884 146.645C90.069 147.027 87.2028 146.763 84.748 148.373L84.7333 148.402C84.579 148.417 84.4247 148.425 84.2703 148.432H84.2483Z" fill="#675F35"/>
<path d="M112.382 133.358C111.42 133.358 110.464 133.328 109.501 133.372C107.076 133.483 104.871 132.946 102.556 132.071C99.7486 131.019 97.0808 129.299 93.9131 129.321C90.4148 128.365 87.1443 126.372 83.3005 127.019C82.2201 127.203 81.0074 126.608 80.074 127.6C78.3102 126.872 76.1568 127.277 74.1651 125.644C75.7746 125.262 76.9432 124.975 78.1191 124.718C78.5674 124.622 79.3318 124.681 79.2215 124.1C78.7879 121.813 80.4562 122.556 81.5146 122.394C81.9482 122.328 82.5067 122.46 82.639 121.578C80.9413 121.137 79.2583 120.725 77.465 120.644C75.3851 120.548 72.9745 120.754 71.3135 119.784C68.9616 118.409 67.9254 119.909 66.4408 120.615C66.6759 121.887 67.8813 122.085 68.234 122.901C67.4109 125.563 65.4853 126.049 63.0673 125.894C60.9139 125.762 58.7532 125.865 56.5925 125.865C58.9002 126.858 61.377 125.902 63.7141 126.88C63.4054 127.483 63.0747 127.563 62.8322 127.475C61.3108 126.909 59.9438 126.858 58.496 127.872C57.6508 128.468 56.4308 128.424 55.5047 127.755C54.9388 127.343 54.417 126.99 53.7041 127.027C50.6173 127.188 47.6849 126.115 44.6569 125.857C44.2012 125.821 43.6206 125.931 43.481 125.306C43.356 124.732 43.797 124.357 44.2453 124.277C45.4874 124.049 46.1929 123.122 47.0087 122.321C47.6334 121.71 48.2287 121.056 49.243 121.394C49.6472 121.526 49.8971 121.328 50.2131 121.041C51.4772 119.901 52.8075 118.835 54.1157 117.74L54.0936 117.754C54.6669 117.776 55.2622 117.923 55.784 117.519C57.4376 116.651 59.2897 116.747 61.0609 116.482L61.3402 116.512L61.6048 116.423C63.9052 116.747 66.2203 116.82 68.5354 116.666C69.8215 117.431 71.1885 116.784 72.5114 116.909C72.8936 117.195 73.3052 117.254 73.7388 117.026L74.0107 117.041L74.2606 116.931C77.6487 118.107 81.25 118.379 84.6748 119.475C87.622 120.416 90.4148 121.71 93.3252 122.703C96.728 123.865 99.6898 126.034 103.181 126.953C104.349 127.262 105.106 128.166 106.047 128.769C108.23 130.174 110.266 131.806 112.368 133.35L112.382 133.358ZM53.1309 126.181C52.9912 126.093 52.8589 125.938 52.7193 125.938C52.5723 125.938 52.4179 126.063 52.271 126.137C52.4106 126.225 52.5429 126.38 52.6899 126.387C52.8369 126.387 52.9912 126.262 53.1382 126.181H53.1309ZM83.6385 124.284C83.5577 124.306 83.4622 124.313 83.396 124.365C83.374 124.379 83.4328 124.497 83.4475 124.571C83.5283 124.549 83.6239 124.541 83.69 124.49C83.712 124.475 83.6532 124.357 83.6385 124.284Z" fill="#816E43"/>
<path d="M135.033 111.467C136.341 107.416 138.649 103.813 140.185 99.8492C141.582 96.2241 144.198 93.2534 146.513 90.1504C147.954 89.5033 149.607 90.4225 151.062 89.268C153.025 87.7091 153.605 88.0768 153.877 90.7092C153.907 90.9887 153.907 91.2754 154.458 91.4078C155.009 90.9519 155.781 90.6063 156.67 90.6872C156.883 93.2093 156.236 95.7829 157.126 98.2609C156.795 98.8345 156.383 99.3786 156.148 99.9963C154.561 104.063 153.025 108.151 151.43 112.217C150.651 114.203 150.423 116.21 150.967 118.284C150.724 118.99 150.327 119.593 149.791 120.107C149.152 119.6 148.718 118.776 147.667 118.938C147.204 119.012 146.822 118.798 146.476 118.372C145.271 116.894 144.198 116.592 142.456 117.409C141.684 117.769 141.214 117.467 140.626 117.203C141.001 114.416 142.39 112.004 143.478 109.489C144.044 108.188 144.801 106.974 145.462 105.717C145.653 105.357 145.683 104.945 145.278 104.732C145.058 104.614 144.698 104.614 144.455 104.71C143.816 104.967 143.338 105.467 143.029 106.07C142.508 107.085 141.964 108.085 141.64 109.21C141.383 110.114 141.045 111.107 139.656 110.511C139.186 110.313 138.737 110.717 138.48 111.136C137.995 111.938 137.547 111.857 136.907 111.261C136.283 110.68 135.68 111.548 135.026 111.482L135.033 111.467Z" fill="#927150"/>
<path d="M54.1229 117.747C52.8147 118.843 51.4844 119.909 50.2203 121.048C49.9043 121.335 49.6544 121.534 49.2502 121.401C48.236 121.063 47.6407 121.718 47.016 122.328C46.2002 123.122 45.4946 124.049 44.2526 124.284C43.8042 124.365 43.3633 124.747 43.4882 125.313C43.6278 125.938 44.2085 125.828 44.6641 125.865C47.6995 126.122 50.6245 127.188 53.7113 127.034C54.4242 126.997 54.9461 127.343 55.512 127.762C56.4306 128.431 57.6507 128.475 58.5032 127.88C59.9511 126.865 61.3254 126.916 62.8394 127.483C63.0819 127.571 63.4126 127.49 63.7213 126.887C61.3842 125.916 58.9001 126.865 56.5997 125.872C58.7604 125.872 60.9212 125.769 63.0746 125.902C65.4926 126.056 67.4181 125.563 68.2413 122.909C67.8885 122.093 66.6832 121.894 66.448 120.622C67.9252 119.916 68.9689 118.423 71.3207 119.791C72.9817 120.762 75.385 120.548 77.4722 120.651C79.2728 120.732 80.9485 121.144 82.6462 121.585C82.514 122.468 81.9627 122.335 81.5218 122.401C80.4634 122.563 78.7951 121.828 79.2287 124.107C79.339 124.688 78.5746 124.622 78.1263 124.725C76.9504 124.982 75.7818 125.269 74.1723 125.652C76.164 127.284 78.3174 126.88 80.0813 127.608C81.9995 128.188 83.9177 128.769 85.8359 129.35C86.0197 129.924 86.2328 130.541 85.2627 130.483C83.1828 130.358 81.0808 130.262 79.023 130.166C75.8406 130.019 72.5407 128.784 69.3878 130.409C66.9478 129.733 64.5224 130.733 62.0824 130.49C60.9432 130.38 59.7894 130.416 58.7531 131.049C57.7977 131.247 56.7099 130.63 55.9015 131.799C54.6594 133.578 54.5786 133.52 53.0866 132.005C52.5134 131.417 52.2267 130.534 51.1464 130.483C46.9057 130.262 42.6063 128.453 38.4979 131.056C38.3509 131.152 38.101 131.071 37.9393 131.159C35.9035 132.277 33.4856 132.836 32.2435 135.1C31.0235 135.659 30.2738 136.792 29.1935 137.549C27.8191 138.512 26.7534 138.865 25.5922 137.402C25.2835 137.02 24.8132 136.909 24.3354 136.851C26.724 132.38 30.4429 129.211 34.5292 126.387C35.0363 126.468 35.4626 126.372 35.6757 125.843C37.8512 124.747 39.446 122.777 41.7243 121.857C45.7665 120.225 49.4486 117.49 54.1229 117.747Z" fill="#927150"/>
<path d="M140.597 52.0317C141.053 52.0832 141.508 52.1346 142.28 52.2229C141.258 53.267 140.906 54.5024 139.627 54.8994L139.458 54.9362C137.914 54.1421 136.364 54.2523 134.813 54.9141C132.814 54.995 130.815 54.995 128.816 55.3112C126.846 55.6274 124.81 55.6641 122.833 55.1053C121.723 54.7891 121.091 55.1274 120.665 56.2745C118.96 60.8261 117.167 65.3336 116.116 70.1132C114.705 76.5178 114.896 83.0106 114.705 89.4888C114.675 90.4447 114.697 91.4006 114.69 92.3566C114.536 97.0699 114.852 101.805 114.528 106.585C113.316 106.364 113.213 105.629 113.007 105.041C112.096 102.423 111.346 99.7685 111.221 96.9743C111.184 96.1508 111.111 95.4228 110.082 95.3052C110.008 95.1581 109.994 95.0037 110.023 94.8419C110.964 89.0476 111.449 83.2239 111.147 77.3487C111.059 76.2016 111.287 75.0913 111.471 73.9589C112.426 68.1131 114.44 62.5909 116.454 57.0539C117.402 54.4509 117.056 54.0612 114.308 54.5318C114.036 54.5759 113.779 54.7377 113.514 54.8406C113.529 53.7597 113.543 52.6861 113.558 51.6052C113.734 51.5169 113.911 51.4287 114.087 51.3405C114.661 51.3405 115.241 51.3405 115.814 51.3405C116.388 51.3405 116.961 51.3405 117.534 51.3478C117.733 51.392 117.924 51.4287 118.122 51.4728C119.136 51.2596 119.313 50.311 119.732 49.6051C121.694 46.333 123.833 43.2005 126.545 40.4945C130.55 36.4944 134.526 32.4649 138.517 28.45C138.987 28.4427 139.458 28.4353 139.921 28.428C135.504 34.7297 130.116 40.2813 125.854 46.7006C125.067 47.8845 124.127 48.9728 123.348 50.1566C122.627 51.2523 122.965 52.0096 124.288 52.0611C127.809 52.1935 131.344 52.2964 134.857 51.8626C135.614 52.1567 136.378 52.039 137.143 51.9287C137.525 51.9361 137.9 51.9435 138.282 51.9582C138.48 51.9729 138.686 51.9876 138.884 52.0023L140.59 52.0538L140.597 52.0317Z" fill="#929499"/>
<path d="M139.928 28.4132C139.458 28.4205 138.988 28.4279 138.525 28.4352C135.291 28.4794 133.961 26.2292 133.248 23.663C132.27 20.1629 132.476 16.4863 132.358 12.8832C132.3 11.0596 133.586 9.55958 134.637 8.08159C135.32 7.11832 136.055 6.26537 136.18 4.88297C136.364 2.93438 140.105 0.456353 141.847 1.02255C142.868 1.35344 143.684 2.32407 144.595 3.00792C145.595 3.00056 146.073 3.72854 146.616 4.39768C147.293 5.22859 148.255 3.95648 149.064 4.7065C148.696 6.04478 147.52 6.27273 146.44 6.4492C145.264 6.64774 144.309 7.25804 143.294 7.77277C142.787 8.03013 142.236 8.47132 142.67 9.11105C143.574 10.4273 142.104 10.089 141.758 10.5229C141.553 10.2949 141.428 9.77284 141.009 10.3096C141.259 10.3832 141.509 10.4567 141.758 10.5229C140.884 12.7729 139.208 14.5009 137.848 16.4275C137.349 17.1407 136.805 17.8246 136.673 18.6923C136.511 19.7144 137.371 20.4203 138.253 19.9644C139.179 19.4864 140.391 19.0599 140.854 18.2584C142.427 15.523 145.389 15.5157 147.653 14.1406C147.792 14.4421 147.888 14.5451 147.866 14.5965C147.395 15.6995 146.734 16.6775 147.432 18.0452C148.358 19.8614 149.586 19.0305 150.82 18.7437C151.673 18.5452 152.092 18.9055 152.033 19.8026C151.996 20.2879 151.298 20.8541 152.18 21.2364C154.399 19.6996 154.488 19.5599 154.355 17.979C154.223 16.4642 154.983 15.5181 156.634 15.1407C157.222 18.8614 156.097 22.0012 153.349 24.5527C152.871 24.9939 152.305 25.4057 151.702 25.641C147.91 27.1263 144.059 28.3691 139.928 28.3838V28.4132Z" fill="#DCB996"/>
<path d="M156.634 15.17C154.987 15.5425 154.228 16.4886 154.355 18.0083C154.495 19.5892 154.4 19.729 152.18 21.2658C151.298 20.8761 151.996 20.3099 152.033 19.8319C152.092 18.9348 151.673 18.5745 150.82 18.7731C149.578 19.0598 148.358 19.8907 147.432 18.0745C146.734 16.7068 147.395 15.7288 147.866 14.6259C147.888 14.5744 147.8 14.4714 147.653 14.17C145.389 15.545 142.427 15.5523 140.854 18.2877C140.391 19.0966 139.179 19.5157 138.253 19.9937C137.371 20.4496 136.511 19.751 136.673 18.7216C136.812 17.8539 137.349 17.17 137.848 16.4568C139.208 14.5303 140.884 12.8023 141.758 10.5522C142.104 10.111 143.574 10.4493 142.67 9.13304C142.229 8.49332 142.78 8.05212 143.294 7.79476C144.309 7.28004 145.264 6.66973 146.44 6.4712C147.52 6.29472 148.696 6.06673 149.064 4.72845C148.255 3.97842 147.293 5.25054 146.616 4.41963C146.073 3.74314 145.595 3.02251 144.595 3.02987C146.925 0.860676 150.056 0.691564 152.195 2.94899C153.598 4.42698 155.01 4.9417 156.994 4.8314C159.456 4.69905 160.97 5.91234 161.8 8.16242C162.866 11.0522 161.242 13.4567 157.788 13.9347C156.92 14.0523 156.23 14.0303 156.634 15.1847V15.17Z" fill="#DBBCA5"/>
<path d="M140.634 117.188C141.222 117.453 141.692 117.754 142.464 117.394C144.206 116.578 145.279 116.887 146.484 118.357C146.83 118.784 147.219 118.997 147.675 118.924C148.718 118.754 149.159 119.585 149.799 120.093C149.056 122.218 147.381 123.755 146.264 125.644C146.021 126.049 145.734 126.402 145.727 126.887C145.154 127.137 145.183 127.652 145.176 128.152L145.191 128.13C144.889 128.233 144.72 128.446 144.713 128.769L144.676 128.828C144.419 128.902 144.265 129.056 144.265 129.343C144.015 129.931 143.765 130.512 143.515 131.1C143.316 131.858 143.118 132.608 142.92 133.365C142.28 133.608 142.743 134.108 142.662 134.483C141.971 136.895 140.171 139.027 140.957 141.821C141.156 142.52 139.127 145.248 138.407 145.366C137.371 145.542 136.158 145.616 135.724 144.417C135.386 143.468 134.541 142.645 134.813 141.498C134.732 141.307 134.651 141.115 134.571 140.924C134.24 140.571 134.196 140.145 134.262 139.689C134.277 139.483 134.203 139.321 134.034 139.211C133.887 139.049 133.74 138.887 133.593 138.726C133.652 138.417 133.556 138.174 133.292 138.005C133.233 137.784 133.174 137.571 133.123 137.351C133.145 136.77 133.248 136.174 132.741 135.711C132.711 135.1 132.682 134.49 132.652 133.887C133.233 133.446 133.086 132.814 133.093 132.225C133.306 131.777 133.593 131.24 134.071 131.277C135.056 131.35 134.46 132.049 134.468 132.542C134.482 133.953 135.68 134.196 136.65 134.358C137.797 134.549 137.687 133.512 137.709 132.77C137.819 129.74 138.37 126.74 138.326 123.688C138.297 121.299 138.73 118.953 140.619 117.188H140.634Z" fill="#746B3E"/>
<path d="M140.634 117.188C138.738 118.953 138.311 121.306 138.341 123.688C138.385 126.74 137.834 129.74 137.723 132.769C137.694 133.512 137.812 134.549 136.665 134.358C135.695 134.196 134.497 133.953 134.482 132.541C134.482 132.049 135.07 131.35 134.085 131.277C133.608 131.24 133.314 131.777 133.108 132.225C132.784 132.034 132.468 131.85 132.145 131.659C131.711 125.982 131.983 120.394 134.004 114.989C134.431 113.842 134.703 112.644 135.048 111.467C135.695 111.533 136.298 110.666 136.93 111.247C137.569 111.842 138.017 111.923 138.502 111.122C138.76 110.695 139.208 110.291 139.678 110.497C141.067 111.092 141.405 110.092 141.663 109.195C141.986 108.07 142.53 107.07 143.052 106.055C143.36 105.452 143.831 104.952 144.477 104.695C144.713 104.599 145.073 104.607 145.301 104.717C145.705 104.93 145.675 105.342 145.484 105.702C144.83 106.96 144.066 108.173 143.5 109.475C142.412 111.989 141.016 114.401 140.648 117.188H140.634Z" fill="#816E43"/>
<path d="M110.082 95.2978C111.104 95.4154 111.184 96.1433 111.221 96.9669C111.346 99.7538 112.096 102.416 113.007 105.033C113.213 105.622 113.316 106.357 114.528 106.578C114.852 101.798 114.528 97.0625 114.69 92.3491C115.609 94.6874 115.91 97.1802 116.072 99.6214C116.542 106.747 118.629 113.453 120.864 120.144C120.364 120.24 119.857 120.431 120.099 121.049C120.459 121.975 120.452 122.909 120.393 123.865C120.379 124.152 120.254 124.218 119.989 124.027C119.651 123.828 120.136 123.027 119.239 123.034C119.453 124.924 118.967 126.821 119.724 128.681C120.018 129.409 119.967 130.225 118.931 130.49C118.497 129.689 118.056 128.88 117.623 128.078C115.763 123.343 114.043 118.563 113.051 113.563C112.823 112.431 112.449 111.379 112.11 110.298C110.582 105.408 109.979 100.394 110.082 95.2904V95.2978Z" fill="#A98D90"/>
<path d="M118.931 130.498C119.96 130.233 120.018 129.417 119.724 128.689C118.967 126.828 119.452 124.931 119.239 123.041C120.136 123.034 119.651 123.836 119.989 124.034C120.254 124.225 120.371 124.159 120.393 123.872C120.452 122.916 120.459 121.983 120.099 121.056C119.857 120.438 120.356 120.247 120.864 120.152C120.93 120.468 120.996 120.784 121.062 121.1C121.084 121.438 121.246 121.681 121.532 121.858C123.803 127.821 126.324 133.674 129.433 139.263C130.638 141.432 131.248 143.895 132.762 145.91C133.115 146.388 133.115 146.991 133.093 147.572C133.078 147.851 133.078 148.175 132.939 148.395C132.806 148.601 132.336 148.866 132.299 148.829C130.918 147.388 129.301 150.101 127.993 148.594C127.39 147.895 127.265 146.785 126.163 146.52C125.964 144.88 125.648 143.322 123.884 142.594L123.899 142.616C123.921 142.226 123.943 141.843 123.958 141.454C125.869 140.035 126.699 138.218 126.368 136.071C125.001 137.042 124.803 138.946 123.304 139.748C123.12 139.682 122.929 139.667 122.738 139.704L122.76 139.726C122.458 138.586 122.363 137.321 121.011 136.821L121.033 136.851C120.937 136.064 121.135 135.086 119.857 135.093L119.879 135.123C120.437 133.409 119.107 132.078 118.945 130.505L118.931 130.498Z" fill="#8A8E93"/>
<path d="M113.558 51.5903C113.544 52.6713 113.529 53.7448 113.514 54.8257C108.796 57.0905 106.356 61.098 104.651 65.8628C103.218 69.8703 102.306 73.8117 104.291 77.7897C105.393 80.003 106.128 82.3928 107.576 84.4517C108.12 85.2238 108.215 86.3194 109.325 86.7385C109.847 83.4664 109.964 80.2971 111.148 77.3412C111.449 83.2163 110.964 89.0401 110.023 94.8344C109.553 90.8049 106.775 87.9077 104.886 84.6061C102.681 80.7457 100.623 76.8044 100.491 72.3704C100.403 69.4512 100.66 66.3334 102.247 63.598C102.857 62.5465 103.218 61.3406 103.695 60.2082C105.569 55.7228 108.928 52.936 113.551 51.5977L113.558 51.5903Z" fill="#A98D90"/>
<path d="M123.296 139.74C124.796 138.939 124.994 137.027 126.361 136.064C126.692 138.211 125.861 140.027 123.95 141.446C123.127 141.792 123.223 142.182 123.892 142.608L123.877 142.586C123.7 144.248 124.237 145.601 125.611 146.601C125.214 147.16 125.023 147.777 124.884 148.447C124.759 149.027 124.325 149.447 123.656 149.461C122.87 149.476 122.333 149.064 122.231 148.322C122.084 147.219 121.452 146.395 120.878 145.527C120.93 145.358 120.974 145.189 121.003 145.02C120.996 143.086 119.768 141.689 118.872 140.145C118.012 138.674 116.726 137.454 116.402 135.689C116.483 133.159 115.462 130.711 115.822 128.159C116.226 128.542 116.63 128.924 117.034 129.299C118.078 131.189 118.21 133.52 119.871 135.115L119.849 135.086C120.165 135.726 120.371 136.432 121.025 136.843L121.003 136.814C121.26 137.976 121.202 139.336 122.752 139.718L122.73 139.696C122.627 140.049 122.672 140.557 122.973 140.564C123.348 140.579 123.289 140.071 123.296 139.74Z" fill="#A98D90"/>
<path d="M156.677 90.68C155.788 90.6064 155.017 90.9447 154.465 91.4006C153.914 91.2682 153.914 90.9815 153.885 90.702C153.613 88.077 153.032 87.7019 151.07 89.2608C149.615 90.4152 147.954 89.4961 146.521 90.1432C146.851 88.9373 147.571 88.0181 148.453 87.121C149.291 86.2681 150.482 85.6945 150.879 84.4297C152.856 84.268 153.936 82.8194 155.097 81.4885C156.229 80.4443 157.795 80.8929 159.066 80.3267C159.852 80.6796 160.117 81.3929 159.456 81.8709C157.074 83.5989 157.258 86.1063 157.199 88.5696C157.177 89.2976 157.427 90.1064 156.692 90.6726L156.677 90.68Z" fill="#816E43"/>
<path d="M150.967 118.276C150.423 116.203 150.644 114.195 151.43 112.21C153.025 108.144 154.561 104.055 156.149 99.989C156.391 99.3787 156.795 98.8346 157.126 98.2537C156.987 104.938 155.95 111.379 152.136 117.1C151.805 117.6 151.452 117.975 150.96 118.276H150.967Z" fill="#816E43"/>
<path d="M125.611 146.593C124.237 145.601 123.7 144.248 123.877 142.579C125.641 143.307 125.957 144.873 126.155 146.505C125.979 146.586 125.802 146.608 125.611 146.586V146.593Z" fill="#746B3E"/>
<path d="M51.8007 91.8784C52.0285 92.0255 52.3372 92.1211 52.4621 92.327C52.7782 92.8417 52.3592 92.9961 51.9771 92.9961C49.8016 92.9814 47.6188 92.9373 45.4434 92.9005C46.4943 91.9887 47.7585 92.5549 48.9197 92.3858C49.8825 92.2461 50.9775 92.849 51.7933 91.8784H51.8007Z" fill="#DFC1AC"/>
<path d="M132.13 131.667C132.454 131.858 132.77 132.042 133.093 132.233C133.086 132.821 133.225 133.461 132.652 133.895C132.483 133.152 132.307 132.409 132.138 131.667H132.13Z" fill="#927150"/>
<path d="M162.623 79.7826C162.498 80.3782 162.733 81.062 162.138 81.7091C161.962 80.687 161.477 79.7973 162.55 79.1355C162.572 79.3487 162.601 79.562 162.623 79.7826Z" fill="#DFC1AC"/>
<path d="M132.733 135.718C133.24 136.174 133.137 136.777 133.115 137.358C132.66 136.887 132.527 136.343 132.733 135.718Z" fill="#927150"/>
<path d="M55.7915 117.526C55.277 117.931 54.6817 117.784 54.1011 117.762C54.5494 116.894 55.1962 117.394 55.7915 117.526Z" fill="#927150"/>
<path d="M146.308 48.5389C146.403 48.3036 146.499 48.0683 146.594 47.8403C146.66 47.8992 146.771 47.9433 146.785 48.0095C146.837 48.3257 146.646 48.4948 146.388 48.6125L146.308 48.5389Z" fill="#DBBCA5"/>
<path d="M69.1675 79.1208C69.5938 79.2164 69.998 79.3635 70.2699 79.7385C69.7775 79.7606 69.3218 79.7091 69.1675 79.1208Z" fill="#E1E3E4"/>
<path d="M162.623 79.7826C162.601 79.5693 162.572 79.3561 162.55 79.1355C162.631 79.2752 162.734 79.4149 162.778 79.562C162.792 79.6135 162.675 79.7017 162.623 79.7752V79.7826Z" fill="#E1E3E4"/>
<path d="M68.5648 72.6719C68.2268 72.7528 68.043 72.5542 67.8887 72.2969C68.1165 72.4219 68.3443 72.5469 68.5648 72.6719Z" fill="#E1E3E4"/>
<path d="M118.129 51.4653C117.931 51.4212 117.74 51.3844 117.542 51.3403C117.806 51.0609 117.99 51.1418 118.129 51.4653Z" fill="#E1E3E4"/>
<path d="M102.475 114.416C102.174 114.298 102.012 114.085 101.976 113.769L102.027 113.732C102.211 113.923 102.395 114.122 102.578 114.313L102.475 114.416Z" fill="#929499"/>
<path d="M103.717 117.799C103.997 117.902 104.217 118.056 104.224 118.387C104.055 118.188 103.886 117.997 103.717 117.799Z" fill="#E1E3E4"/>
<path d="M121.532 121.85C121.246 121.681 121.084 121.431 121.062 121.093C121.341 121.269 121.54 121.497 121.532 121.85Z" fill="#A98D90"/>
<path d="M133.291 138.005C133.556 138.174 133.652 138.417 133.593 138.726C133.313 138.556 133.211 138.321 133.291 138.005Z" fill="#927150"/>
<path d="M134.026 139.211C134.195 139.329 134.269 139.483 134.254 139.689C134.115 139.564 134.034 139.402 134.026 139.211Z" fill="#927150"/>
<path d="M63.9566 46.7006C63.8978 45.2593 64.5519 44.5608 65.9703 44.5682C67.2859 44.5755 68.4618 45.7961 68.4544 47.1565C68.4544 48.2521 67.5798 49.1492 66.5068 49.1712C65.0663 49.2006 64.0154 48.1859 63.9492 46.7006H63.9566Z" fill="#A98D90"/>
<path d="M24.1002 67.7232C24.0634 68.8556 22.52 70.4365 21.4985 70.3924C20.5504 70.3483 19.0584 68.7747 19.0878 67.8556C19.1246 66.9144 20.6606 65.429 21.6087 65.4217C22.8434 65.4143 24.1296 66.5982 24.0928 67.7232H24.1002Z" fill="#A98D90"/>
<path d="M63.9638 101.636C63.6404 101.585 63.4052 101.423 63.2803 101.114C63.6257 101.136 63.8682 101.291 63.9638 101.636Z" fill="#929499"/>
<path d="M102.578 114.313C102.394 114.122 102.21 113.923 102.027 113.732C101.74 112.431 101.461 111.122 101.152 109.82C101.064 109.438 100.917 109.033 101.292 108.783C101.74 108.489 102.21 108.622 102.6 108.975C103.144 109.46 103.386 110.364 104.364 110.239C104.746 110.409 104.944 110.725 105.018 111.122C104.775 112.519 104.93 113.659 106.73 113.703C107.054 114.07 107.385 114.438 107.708 114.806C106.929 115.901 105.907 115.519 104.937 115.203C104.143 114.945 103.46 114.365 102.585 114.306L102.578 114.313Z" fill="#A98D90"/>
<path d="M108.825 115.982C109.421 117.151 110.008 118.313 110.817 119.909C109.646 118.816 108.982 117.507 108.825 115.982Z" fill="#DFC1AC"/>
<path d="M107.701 114.806C107.377 114.438 107.047 114.07 106.723 113.703C106.679 113.328 106.642 112.953 106.598 112.57L106.569 112.592C107.532 113.026 107.782 113.828 107.701 114.798V114.806Z" fill="#DAB9A0"/>
<path d="M106.01 111.46C106.473 111.703 106.525 112.151 106.569 112.607L106.598 112.585C106.172 112.32 106.069 111.901 106.04 111.445L106.01 111.467V111.46Z" fill="#E1E3E4"/>
<path d="M32.2363 135.101C33.4784 132.836 35.8964 132.277 37.9322 131.159C38.0865 131.071 38.3438 131.152 38.4907 131.056C42.6065 128.453 46.9059 130.262 51.1392 130.483C52.2196 130.542 52.4989 131.424 53.0795 132.005C54.5714 133.52 54.6523 133.586 55.8943 131.799C56.7101 130.63 57.7905 131.248 58.7459 131.049C58.3049 132.343 58.1359 133.527 59.8998 133.939C59.8557 137.137 59.9953 136.52 62.5823 137.365C63.1262 137.542 63.795 137.52 63.8097 138.277C63.8244 138.976 63.2071 139.211 62.6926 139.424C61.6857 139.851 60.6568 139.696 59.5985 139.535C56.7836 139.101 54.1525 137.932 51.2421 137.785C50.147 137.726 49.096 137.674 48.2288 138.137C44.9583 139.888 41.4746 138.968 38.0865 139.057C36.6975 139.093 36.2124 137.218 34.8234 136.77C34.4485 136.645 35.6171 135.806 35.4113 134.88C34.3677 134.542 33.3094 135.402 32.2363 135.101Z" fill="#837640"/>
<path d="M59.9071 133.939C58.1433 133.527 58.3123 132.343 58.7533 131.049C59.7895 130.416 60.9434 130.38 62.0826 130.49C64.5226 130.725 66.9479 129.733 69.388 130.409C72.5409 128.784 75.8408 130.019 79.0231 130.166C81.0883 130.262 83.1829 130.358 85.2628 130.483C86.233 130.541 86.0198 129.924 85.8361 129.35C87.4015 128.696 88.8567 128.85 90.2825 129.806C91.0469 130.321 91.9288 130.652 92.7593 131.071C93.0827 132.799 92.3771 134.093 91.0322 135.108C88.8053 135.321 86.4314 134.461 84.3809 136.027C84.1898 136.174 83.8223 136.181 83.5578 136.137C78.2808 135.328 72.9819 134.975 67.6461 135.1C66.845 135.123 65.9411 134.946 65.5295 134.387C64.1919 132.593 62.6338 133.159 61.0096 133.681C60.6494 133.799 60.2746 133.858 59.8998 133.946L59.9071 133.939Z" fill="#816E43"/>
<path d="M92.7594 131.064C91.9289 130.652 91.047 130.314 90.2826 129.799C88.8568 128.843 87.4016 128.689 85.8362 129.343C83.918 128.762 81.9998 128.181 80.0815 127.6C81.0149 126.608 82.2276 127.196 83.308 127.019C87.1591 126.372 90.4296 128.365 93.9206 129.321C93.2739 129.725 93.1048 130.453 92.7594 131.064Z" fill="#6F663A"/>
<path d="M53.1309 126.181C52.9839 126.255 52.8296 126.387 52.6826 126.379C52.543 126.379 52.4033 126.218 52.2637 126.13C52.4107 126.056 52.565 125.924 52.712 125.931C52.8516 125.931 52.9913 126.085 53.1236 126.174L53.1309 126.181Z" fill="#927150"/>
<path d="M83.6385 124.284C83.6606 124.357 83.712 124.475 83.69 124.49C83.6238 124.541 83.5283 124.549 83.4475 124.571C83.4254 124.497 83.374 124.38 83.396 124.365C83.4621 124.313 83.5577 124.306 83.6385 124.284Z" fill="#927150"/>
<path d="M141.758 10.5377C141.509 10.4642 141.259 10.3906 141.009 10.3245C141.435 9.78768 141.553 10.3097 141.758 10.5377Z" fill="#DBBCA5"/>
<path d="M123.892 142.608C123.23 142.189 123.135 141.792 123.951 141.446C123.929 141.836 123.907 142.218 123.892 142.608Z" fill="#746B3E"/>
<path d="M106.032 111.438C106.062 111.894 106.164 112.313 106.591 112.578C106.635 112.953 106.672 113.328 106.716 113.71C104.915 113.666 104.768 112.526 105.011 111.129C105.356 111.232 105.694 111.335 106.032 111.438Z" fill="#929499"/>
</svg>
