<svg width="110" height="168" viewBox="0 0 110 168" fill="none" xmlns="http://www.w3.org/2000/svg">
<path d="M50.3514 70.5358C51.6155 70.4696 52.7768 70.7932 53.8204 71.4991C54.0776 71.6756 54.3349 71.6829 54.6068 71.7491C56.4809 72.1756 58.1639 72.8888 59.2884 74.5874C59.6118 75.0727 60.1997 75.3816 60.6701 75.7713C60.6848 75.9551 60.7803 76.1022 60.8759 76.2639C61.4051 77.1831 62.4634 77.6095 62.9631 78.5434C63.3747 79.4773 63.8304 80.3744 63.8084 81.4553C63.801 82.0509 63.9406 82.7127 64.2273 83.2347C65.19 85.0142 65.0577 86.8893 64.8226 88.7717C64.7344 89.4556 64.4257 90.0879 64.117 90.7276C63.7495 91.4997 62.897 92.1395 63.213 93.1689C62.6545 93.0292 62.3825 93.3895 62.0445 93.7645C61.1552 94.7572 59.9278 95.3381 58.774 95.8749C58.039 96.2131 57.2746 96.5219 56.5544 96.9337C56.4148 96.9558 56.2531 96.9484 56.1355 97.0072C53.9674 98.1102 51.9389 97.5808 49.9619 96.4705C49.6165 96.2793 49.2637 96.2572 49.2049 96.7205C49.0359 98.0294 48.1172 98.8676 47.3675 99.8162C46.7208 100.632 45.6625 100.449 45.0892 99.5809C44.5748 98.8088 44.5453 97.897 44.1999 97.0734C43.8765 96.294 43.2518 95.6763 43.0975 94.8013C42.9946 94.2204 42.3552 94.3013 41.8922 94.316C40.4076 94.3748 38.9597 94.1836 37.5633 93.6763C35.6598 92.9851 34.8734 91.6689 35.2115 89.6982C35.3218 89.0291 36.7917 87.6026 37.4384 87.3967C38.5555 87.0364 39.702 87.1319 40.8412 87.0952C41.341 87.4628 41.1719 87.9114 41.025 88.382C40.8486 88.9335 40.6722 89.7864 41.047 89.9997C41.8848 90.4703 42.2744 91.5438 43.2592 91.6762C44.1411 91.7938 44.3543 92.2424 44.3763 93.0145C44.3837 93.3821 44.5307 93.7498 44.6262 94.1174C45.2142 96.3749 45.883 96.4337 47.7056 95.4852C48.0143 95.3234 48.2642 95.1322 48.345 94.7719C48.4773 94.1395 49.0138 93.9116 49.4842 93.5807C50.2485 93.0512 51.1378 92.7056 51.7919 92.0144C52.2035 92.0144 52.4828 91.8233 52.6445 91.4409C53.0561 91.4189 53.4897 91.5144 53.8424 91.2056C54.0482 91.0291 54.3348 90.8453 54.232 90.5364C54.1217 90.2203 53.7689 90.3159 53.5044 90.2938H52.9385C52.8209 90.2276 52.6739 90.0732 52.6004 90.0953C51.9095 90.3453 51.8654 89.9997 51.7625 89.4261C51.6229 88.6173 52.2991 88.132 52.3652 87.4334C52.7841 87.4334 53.1957 87.4408 53.2177 86.8599C53.6808 86.6025 54.0556 86.2937 54.0776 85.7128C53.7983 84.7936 53.0413 84.9848 52.6592 85.3745C51.9169 86.1466 51.1746 85.9701 50.3514 85.7128C48.6831 85.448 47.0221 86.2128 45.2362 85.8966C45.6698 84.8745 46.0299 84.0068 46.6399 83.2862C47.8967 81.8082 49.1755 80.345 50.447 78.8817C50.9247 78.3302 51.3583 77.7566 51.3363 76.911C50.4837 77.0213 50.5719 78.2567 49.6753 78.117C49.4989 77.8008 49.7488 77.661 49.8443 77.4625C50.2192 76.6978 50.8071 76.0507 51.0276 75.2051C51.0717 75.0286 51.1966 74.8374 51.0055 74.683C50.7851 74.4992 50.5425 74.5653 50.3588 74.7271C50.1456 74.9109 49.9399 75.1242 49.8002 75.3668C49.5577 75.7933 49.2123 76.1095 48.8668 76.4404C48.5508 76.7419 48.198 77.0507 47.7938 76.5507C47.4484 76.1242 47.5513 75.8301 48.0217 75.5213C48.3744 75.286 48.8227 75.0139 48.8007 74.5065C48.5435 74.2786 48.3891 74.4109 48.2421 74.5286C47.6027 75.0139 47.0295 75.6978 46.3092 75.9551C44.6262 76.5507 43.8177 77.911 42.9211 79.2493C42.6565 79.639 42.6051 79.9994 42.7006 80.4553C43.0608 82.2347 42.2229 84.1024 40.6207 85.1613C40.6134 83.9406 40.5913 82.72 40.5987 81.4994C40.5987 80.9773 40.5619 80.47 40.3562 79.992C40.6722 79.8523 40.8559 79.5949 41.0323 79.3008C41.5468 78.4846 41.804 77.5287 42.3038 76.7272C42.8697 75.8154 42.855 74.5139 44.0235 73.9918C44.1558 73.9403 44.369 73.9256 44.4057 73.8374C44.9422 72.6094 46.0005 71.977 47.1618 71.5726C48.2127 71.2049 49.1608 70.4623 50.3588 70.5579L50.3514 70.5358Z" fill="#D8B8A0"/>
<path d="M62.9557 78.5361C62.4559 77.6022 61.3976 77.1757 60.8684 76.2566C60.7729 76.0948 60.6773 75.9551 60.6626 75.7639C61.6548 73.9551 62.647 72.1609 64.0654 70.6241C64.7048 69.9329 65.1752 69.1166 65.9689 68.5357C67.5344 67.3887 69.188 66.543 71.165 66.5283C71.5692 66.5283 71.9073 66.3739 72.2527 66.2268C72.7452 66.021 72.8627 65.7342 72.7966 65.1312C72.6643 63.8738 72.4438 62.6165 72.51 61.337C72.5835 59.9031 72.7892 58.4766 72.7672 57.028C72.7525 56.2412 72.6055 55.4618 72.6717 54.6603C72.826 52.7338 72.9068 50.7999 72.5835 48.8733C72.4365 47.9983 72.6864 47.1159 72.5835 46.2041C72.3997 44.557 71.9367 42.9614 71.8412 41.3142C71.7162 39.1598 71.0401 37.0862 71.0474 34.9097C71.0548 33.0125 70.3713 31.2036 70.1728 29.3286C70.092 28.5344 69.7539 27.755 69.9083 26.9461C69.9744 26.6152 69.8421 26.4314 69.7098 26.1741C69.2909 25.3652 69.0484 24.5049 69.1733 23.5784C69.5849 23.696 69.7466 24.049 69.8936 24.4019C70.7314 26.3432 71.5545 28.2918 72.4071 30.2257C73.0391 31.6522 73.7079 33.064 74.362 34.4758C74.5899 34.9685 74.8324 35.417 75.4939 35.3214C75.9201 38.1965 76.4566 41.0643 76.7433 43.9614C76.9417 45.9762 77.1475 48.0057 77.2724 50.0352C77.3533 51.3367 76.9197 52.6676 77.4121 53.9397C76.7359 54.653 77.5591 55.4177 77.3312 56.1677C77.0814 56.9839 77.3165 57.8736 76.9564 58.6825C76.7065 59.256 77.2136 59.7634 77.1401 60.3443C76.9785 61.6458 77.1401 62.9547 77.1548 64.2635C77.1548 64.8003 77.2871 65.2856 77.4341 65.7857C77.5517 66.1974 77.7281 66.4327 78.1544 66.5504C79.3082 66.8666 80.2784 67.5136 81.1677 68.3004C81.7777 68.8446 82.0349 68.8299 82.6229 68.2784C82.542 69.124 83.1594 69.5431 83.6959 69.9917C84.8571 70.9623 85.7537 72.0432 85.5039 73.6977C85.5333 74.3301 85.3569 74.9036 85.0776 75.4698C84.3573 76.9478 83.4607 78.2787 82.2186 79.3964C81.469 80.0729 80.9766 81.0729 79.808 81.1612C79.808 80.3744 79.7345 79.6023 79.492 78.8449C79.6978 78.4773 80.0799 78.2052 80.0653 77.7199C80.9545 77.7052 81.0354 76.786 81.5719 76.3595C82.2407 75.8301 82.6155 73.4183 82.2627 72.6756C82.101 72.3373 81.7777 72.2638 81.4396 72.2197C80.6753 71.1903 79.4332 70.8961 78.4043 70.2785C77.6767 69.8446 77.7061 69.8372 77.5885 70.6755C77.3827 72.1535 77.6987 73.683 77.1916 75.1315C76.8976 75.1315 76.6624 75.2712 76.4346 75.4551C76.17 75.661 76.0157 75.6169 75.7658 75.3301C75.2293 74.7051 74.8912 74.7565 74.6634 75.5286C74.34 76.6096 73.6491 77.5066 73.2743 78.5508C73.1494 77.9037 72.8628 77.2419 72.9216 76.6169C73.142 74.4918 72.6276 72.3741 72.8848 70.2564C72.9583 69.6682 72.5541 69.624 72.1646 69.6902C71.6574 69.7784 71.1797 70.0211 70.6726 70.0799C69.6804 70.1902 68.747 70.5285 68.0782 71.1902C66.8141 72.4403 65.6235 73.7786 64.7783 75.3668C64.5137 75.8595 64.1977 76.308 63.8229 76.7419C63.404 77.2272 62.8087 77.7566 62.9263 78.5581L62.9557 78.5361Z" fill="#8D9398"/>
<path d="M79.8376 81.1537C81.0135 81.0655 81.4986 80.0655 82.2483 79.389C83.4903 78.2787 84.3869 76.9404 85.1072 75.4624C85.3865 74.8962 85.5629 74.3226 85.5335 73.6903C86.4742 73.3814 86.533 72.5505 86.68 71.7711C86.9519 70.374 87.29 69.0357 88.7231 68.3004C89.1788 68.0651 89.4581 67.5871 89.6933 67.1018C90.0607 66.3297 90.4576 65.5797 90.8324 64.815C91.0456 64.3811 91.2514 63.9473 91.8393 63.9547C91.8614 64.337 91.8099 64.7635 92.3685 64.7856C92.8241 64.8003 94.0589 63.9547 94.2059 63.4988C94.5366 62.462 94.9555 61.4693 95.0216 60.3442C95.0951 59.1751 95.3156 57.9912 96.1461 57.0353C96.9619 56.0941 97.5205 55.0279 97.9688 53.8514C98.2995 52.9911 98.7552 52.1381 99.2476 51.3219C99.7106 50.5498 100.416 49.9321 100.71 49.0571C101.092 48.7703 101.474 48.4835 101.857 48.2041C101.857 48.3438 101.813 48.535 101.886 48.6232C102.621 49.5056 102.099 50.2924 101.68 51.0425C101.011 52.2337 100.254 53.3734 99.5489 54.5425C98.6523 56.0352 97.8071 57.5647 96.8737 59.0354C96.2049 60.0795 95.4773 61.0795 95.5582 62.4031C95.5802 62.8002 95.4259 63.1605 95.2127 63.4693C94.294 64.8297 93.3827 66.2047 92.4052 67.5283C91.3395 68.9695 90.1122 70.2857 89.7153 72.1461C89.4066 73.5946 89.4213 73.9035 90.7075 74.4917C91.1338 74.6903 91.3102 74.8962 91.2514 75.3374C90.634 76.7933 90.1636 78.3154 89.2155 79.6169C88.9069 80.0434 89.1274 80.5508 88.973 80.992C88.1866 83.1685 87.4811 85.3744 86.9887 87.6319C86.6947 88.9996 86.3566 90.3599 86.0038 91.7056C85.6804 92.9556 85.3644 94.213 85.0484 95.463C84.7177 96.7645 84.3208 98.044 84.0783 99.3823C83.9239 100.243 83.7475 101.176 83.4168 102.029C83.1081 102.051 82.917 102.287 82.6745 102.427C81.8808 102.875 81.0944 103.309 81.4251 104.456C81.5059 104.735 81.2708 104.875 81.0576 104.993C80.7269 105.169 80.3888 105.353 80.0581 105.537C80.161 105.846 80.9033 105.89 80.3447 106.39C79.9699 106.721 79.7862 107.169 79.8303 107.669C79.8891 108.309 79.6465 108.883 79.5289 109.486C79.4775 110.228 78.7058 110.846 78.9924 111.603C79.3378 112.5 78.8748 112.993 78.3089 113.5C78.3457 111.383 78.4045 109.265 77.8679 107.191C77.8091 106.963 77.8165 106.721 77.8165 106.478C77.8165 103.787 77.8165 101.096 77.8092 98.4043C77.8092 95.3013 77.7945 92.2056 77.7871 89.1025C78.2942 87.1466 78.4633 85.1318 78.7499 83.1391C78.8822 83.0361 78.9189 82.9185 78.816 82.7788C78.816 82.5288 78.816 82.2788 78.816 82.0287C79.3966 82.014 79.867 81.867 79.8303 81.1464L79.8376 81.1537Z" fill="#6D6239"/>
<path d="M51.9832 37.6008C51.6378 38.4538 51.9979 39.2773 52.1669 40.0862C52.7549 42.9392 51.9611 45.3364 49.8518 47.2776C49.2418 47.8364 48.4481 48.2997 47.5294 47.7776C47.1766 47.5791 46.9267 47.7261 46.6401 47.9541C46.133 48.3659 45.4936 48.6232 45.1335 49.2114C44.4794 50.2556 43.2373 50.3659 42.3113 50.9689C42.1055 51.1012 41.8483 51.0718 41.6351 50.9247C40.2461 49.9909 39.1216 48.9321 38.5116 47.2335C38.1368 46.2114 37.6884 45.079 36.8727 44.2186C36.6889 44.0201 36.6081 43.726 36.4317 43.3804C35.9981 43.9833 35.4174 44.2775 34.756 44.3436C32.3013 44.5863 29.8465 44.7775 27.5976 43.3951C27.164 43.1304 26.8112 42.8657 26.8406 42.2995C26.848 42.1083 26.8847 41.8803 26.7965 41.7333C26.4143 41.1009 26.26 40.6009 26.7304 39.8288C27.0684 39.2773 26.9876 38.4538 27.6197 38.0346C27.5535 37.5126 27.0978 37.439 26.8553 37.1743C26.3482 36.6302 26.0101 36.0419 25.9954 35.2772C25.9734 34.4463 26.2527 33.5492 25.5398 32.8359C25.4663 32.7624 25.4589 32.5271 25.5177 32.4242C26.1645 31.3874 26.2527 30.1005 27.0684 29.1226C27.4727 28.6373 27.8108 28.652 28.2738 28.9461C28.8397 29.3064 29.2218 30.027 30.0523 29.8947C30.2655 30.0638 30.3022 30.277 30.2361 30.527C30.045 31.2256 29.6408 31.7697 29.1631 32.3286C28.2076 33.4389 27.5094 34.6742 28.4134 36.1816C28.6265 36.5346 28.6045 36.9022 28.4575 37.2772C28.2738 37.7405 28.4796 38.0199 28.9205 38.1229C29.3835 38.2332 29.773 38.0935 29.9568 37.6081C30.0082 37.4758 30.0082 37.3287 30.0082 37.189C30.0082 36.4684 30.3757 36.1522 31.0739 36.1669C31.6398 36.1743 31.9411 35.8728 32.0514 35.3287C32.1249 34.961 32.2351 34.5933 32.338 34.233C32.4189 33.9462 32.5659 33.6521 32.9113 33.7477C33.1906 33.8213 33.1685 34.1227 33.0583 34.3433C32.8451 34.7772 32.9333 35.1448 33.1538 35.5566C33.4845 36.1816 33.8961 35.1081 34.2415 35.6816C33.6168 37.2111 33.5434 38.9685 32.4556 40.3729C32.1396 40.7774 32.4777 41.2038 32.7937 41.4906C33.0289 41.7038 33.4478 41.6744 33.6242 41.998C33.9402 42.5789 34.2489 42.3142 34.6458 42.0568C36.0936 41.123 35.9025 39.52 36.2921 38.1596C36.3215 38.0493 36.2406 37.8287 36.1524 37.7846C35.05 37.189 35.7776 36.5346 36.1377 35.9684C36.3729 35.6007 36.6375 35.2846 36.6081 34.8213C36.586 34.4757 36.711 34.1448 36.9241 33.8948C37.9236 32.6962 38.6512 31.3432 39.1804 29.8873C39.4964 29.9314 39.7243 30.027 39.6214 30.4314C39.4303 31.1667 39.2686 31.9021 39.0775 32.6374C38.9452 33.1448 38.7615 33.63 38.6365 34.1374C38.5924 34.3139 38.6365 34.5418 38.8497 34.6007C38.9673 34.6301 39.1363 34.586 39.2319 34.5124C40.2681 33.7624 41.2823 32.9903 42.4803 32.505C42.6567 32.4315 42.9066 32.2624 42.8257 32.1006C42.4877 31.4682 43.083 30.9756 43.0315 30.3873C42.9433 29.4093 43.6048 28.8432 44.3324 28.3505C44.5455 28.2034 44.7881 28.1446 44.9938 28.3064C45.1996 28.4681 45.207 28.7329 45.1482 28.9682C44.935 29.8432 44.6557 30.7109 44.4941 31.5932C44.3103 32.6153 43.8179 33.733 44.1707 34.6448C44.5161 35.5272 44.6999 36.1963 44.2148 37.0199C44.0017 37.3802 44.1634 37.6817 44.5382 37.814C44.9204 37.9537 45.2878 37.9464 45.4716 37.4611C45.6553 36.9684 45.8096 36.4684 45.7655 35.9316C45.7288 35.4831 45.817 35.0566 46.1845 34.7698C47.0884 34.0713 47.3677 33.0859 47.4706 32.0271C47.5221 31.5491 47.6029 31.1153 48.1247 30.7991C48.4554 31.5123 47.9924 32.0712 48.0218 32.6668C48.0733 33.9462 48.088 35.2184 47.8087 36.5052C47.6323 37.3214 47.7278 38.1964 47.5074 39.042C47.3604 39.6082 47.4853 40.2038 47.9189 40.645C48.2203 40.9538 48.1835 41.1303 47.9483 41.4759C47.3971 42.3142 47.3898 43.2701 47.5441 44.2334C47.5735 44.4319 47.7205 44.5863 47.9042 44.6451C48.11 44.7113 48.2864 44.5937 48.3525 44.4025C48.7494 43.2921 49.5138 42.2627 49.455 41.0421C49.3668 39.1597 50.2708 38.1155 51.9905 37.6229L51.9832 37.6008Z" fill="#DBBAA0"/>
<path d="M91.8395 63.9547C91.2589 63.9547 91.0458 64.3811 90.8327 64.815C90.4578 65.5797 90.061 66.3371 89.6935 67.1018C89.4656 67.5871 89.1864 68.0651 88.7234 68.3004C87.2902 69.0357 86.9521 70.374 86.6802 71.7711C86.5259 72.5505 86.4671 73.3814 85.5337 73.6903C85.7909 72.0358 84.8869 70.9475 83.7257 69.9842C83.1892 69.5357 82.5718 69.1166 82.6527 68.271C82.6527 66.8665 83.1671 65.565 83.6596 64.3002C84.4533 62.2634 85.2029 60.1898 86.2025 58.2339C86.7684 58.1383 86.6728 57.7118 86.6655 57.3221C86.6875 57.1529 86.7169 56.9838 86.739 56.8147C87.1212 57.1603 87.5033 57.5059 87.8929 57.8588C88.0325 57.9838 88.1868 58.1456 88.3853 58.0353C89.2231 57.5794 90.2447 57.4912 90.6857 56.3588C90.9796 55.6014 91.3251 54.7043 92.0894 54.2778C93.5299 53.469 93.9562 52.0793 94.3678 50.6748C94.478 50.3145 94.5662 49.8365 94.1767 49.5203C93.721 49.5571 93.6181 50.3954 93.1257 50.0277C92.6112 49.6454 92.4569 50.0571 92.2144 50.2924C92.0159 50.491 91.891 50.7557 91.7219 50.9836C91.575 51.1748 91.3839 51.3733 91.1413 51.1748C90.9208 50.991 90.987 50.7042 91.1487 50.5351C91.766 49.9101 92.1923 49.1233 92.3467 48.3291C92.5818 47.0938 93.1184 46.0423 93.7725 45.0202C94.0517 44.579 94.3825 44.1672 94.4119 43.6157C94.5221 43.5348 94.6397 43.3731 94.7499 43.3804C96.3521 43.476 97.19 42.3289 98.1013 41.3289C98.2703 41.1451 98.4982 40.8803 98.1527 40.5495C97.675 40.6597 97.4252 41.101 97.065 41.3877C96.8666 41.5421 96.6461 41.6598 96.4109 41.5421C96.1243 41.4024 96.2713 41.1598 96.3154 40.9318C96.5285 39.9171 97.5574 39.395 97.8367 38.417C97.8588 38.3361 98.116 38.2405 98.2042 38.2847C98.9979 38.6523 99.1743 38.042 99.4683 37.5493C99.8137 36.9831 100.284 36.4831 100.556 35.8875C101.056 34.7992 102.254 34.4095 102.849 33.4095C104.084 31.3432 105.436 29.3653 106.325 27.0931C107.207 24.8431 108.979 23.1004 110.265 21.0709C110.61 20.5267 111.272 20.2253 111.514 19.5782C110.463 19.0782 110.47 19.0781 110.978 18.0634C111.036 17.9458 111.014 17.784 111.036 17.6443L111.103 17.6149C111.198 17.5928 111.264 17.5413 111.316 17.4531C111.323 17.3722 111.367 17.3281 111.448 17.3207C111.507 17.2987 111.551 17.2546 111.573 17.1957C111.661 16.9972 111.808 16.8501 112.014 16.7545C112.3 16.7545 112.58 16.7472 112.727 16.431C113.212 15.9016 113.653 15.306 114.476 15.2913C114.667 15.306 114.873 15.2766 115.042 15.3427C115.997 15.6957 116.078 16.0045 115.409 16.7545C115.057 17.1443 114.689 17.5193 114.3 17.8649C113.704 18.3796 113.381 18.9752 113.697 19.7473C113.873 20.1885 113.704 20.4605 113.425 20.7547C112.999 21.2032 112.749 21.7841 112.278 22.2032C111.882 22.5562 111.624 23.0342 111.602 23.5783C111.566 24.5195 111.08 25.3063 110.72 26.1151C110.375 26.8799 109.963 27.7623 109.126 28.0564C108.177 28.3873 107.817 29.1447 107.472 29.8873C106.656 31.6595 105.598 33.2845 104.664 34.9904C104.437 35.4096 103.834 35.9463 104.415 36.3067C104.826 36.564 105.098 35.8434 105.377 35.4757C106.774 33.6374 108.405 31.9683 109.25 29.755C109.361 29.4609 109.625 29.2623 109.927 29.402C110.64 29.7256 111.301 29.5344 112.006 29.3726C112.572 29.2402 112.903 29.7256 112.646 30.2624C112.506 30.5491 112.242 30.7771 112.029 31.0344C111.639 31.5124 111.11 31.9903 111.073 32.5859C110.992 33.8801 110.272 34.6669 109.295 35.336C108.993 35.1816 108.861 34.5492 108.332 35.211C107.024 36.8361 105.642 38.4023 104.106 39.8215C103.9 40.0127 103.672 40.2333 103.591 40.4906C102.974 42.2774 101.607 43.5863 100.637 45.1526C100.093 46.0276 99.3434 46.807 98.4173 47.3218C97.1606 48.013 96.3521 49.1968 96.2272 50.4321C96.0508 52.1748 95.2717 53.5499 94.4706 54.9838C93.5961 56.5573 92.8097 58.175 92.06 59.8148C91.913 60.1236 91.8322 60.4178 91.9424 60.7707C92.2952 61.8516 92.1482 62.9178 91.8322 63.984L91.8395 63.9547Z" fill="#77693C"/>
<path d="M51.983 37.6009C50.2632 38.0935 49.3593 39.1304 49.4475 41.0201C49.5063 42.2408 48.7493 43.2702 48.345 44.3805C48.2789 44.5717 48.1025 44.6893 47.8967 44.6232C47.713 44.5643 47.566 44.4099 47.5366 44.2114C47.3823 43.2481 47.3896 42.2922 47.9408 41.4539C48.1686 41.101 48.2054 40.9245 47.9114 40.623C47.4852 40.1818 47.3529 39.5862 47.4999 39.02C47.7203 38.1744 47.6248 37.2994 47.8012 36.4832C48.0804 35.2037 48.0657 33.9243 48.0143 32.6448C47.9923 32.0492 48.4479 31.4904 48.1172 30.7771C47.5954 31.0933 47.5072 31.5272 47.4631 32.0051C47.3528 33.064 47.0736 34.0493 46.1769 34.7478C45.8021 35.0346 45.7139 35.4611 45.758 35.9097C45.8021 36.4464 45.6478 36.9465 45.464 37.4391C45.2803 37.9244 44.9202 37.9318 44.5307 37.7921C44.1632 37.6597 43.9941 37.3582 44.2073 36.9979C44.6923 36.1817 44.5013 35.5126 44.1632 34.6228C43.8104 33.7111 44.3028 32.586 44.4866 31.5713C44.6482 30.6889 44.9275 29.8212 45.1407 28.9462C45.1994 28.7109 45.1921 28.4462 44.9863 28.2844C44.7805 28.1226 44.538 28.1815 44.3249 28.3285C43.5973 28.8212 42.9358 29.3874 43.024 30.3653C43.0754 30.961 42.4801 31.4463 42.8182 32.0786C42.8991 32.233 42.6492 32.4095 42.4728 32.483C41.2748 32.9684 40.2606 33.7405 39.2243 34.4905C39.1214 34.564 38.9524 34.6081 38.8422 34.5787C38.6217 34.5199 38.5776 34.292 38.629 34.1155C38.7613 33.6081 38.9377 33.1155 39.07 32.6154C39.2611 31.8801 39.4228 31.1448 39.6138 30.4095C39.7167 30.005 39.4889 29.9095 39.1729 29.8653C38.7466 29.7992 38.1366 30.0565 38.0631 29.3212C38.0043 28.7256 38.4085 28.5491 38.923 28.4021C39.8343 28.1373 39.8637 27.1814 40.2165 26.4902C40.3268 26.2696 40.0842 26.0637 39.9152 25.8946C39.5698 25.549 39.1655 25.5123 38.7319 25.6593C38.019 25.902 37.9896 25.549 38.1734 25.0196C38.3497 24.5049 38.8275 24.0416 38.4232 23.4019C37.4605 23.4092 36.7696 23.9975 36.0567 24.5343C35.8436 24.696 35.6451 25.0343 35.3438 24.8137C35.0572 24.6078 35.2262 24.2843 35.3732 24.0416C35.6157 23.6372 35.8803 23.2401 36.1522 22.8578C36.7843 21.9754 37.4163 21.1003 38.0631 20.2327C38.482 19.6738 38.6805 19.0635 38.5849 18.3649C38.5849 18.2841 38.5996 18.1958 38.6217 18.1149C38.7099 18.012 38.7907 17.9091 38.8789 17.8061L38.8715 17.8135C38.9744 17.7399 39.07 17.6738 39.1729 17.6002C39.9078 17.3282 40.6942 17.3061 41.4586 17.2179C42.5022 17.137 43.5679 17.4973 44.5821 17.012C45.9785 17.3649 47.4043 17.4973 48.7052 18.2914C49.2784 18.6444 50.0722 18.7547 50.6895 19.2032C51.1084 19.5047 51.6009 19.7179 51.7479 20.2768C51.814 20.5415 52.0051 20.6444 52.2623 20.6886C52.9311 20.8136 53.2545 21.3062 53.5044 21.8724C53.181 22.6151 52.9826 23.3945 52.9532 24.196C52.9385 24.5416 52.7841 25.0637 53.2912 25.1593C53.8792 25.2696 53.644 24.6152 53.8645 24.3578C53.9233 24.2916 54.0115 24.2549 54.0923 24.196C54.526 24.2328 54.7685 24.7034 55.2241 24.7034L55.2168 24.696C55.2168 25.0416 55.3858 25.299 55.6651 25.4975C55.6798 25.777 55.8195 26.174 55.6872 26.3211C55.0257 27.0417 55.1653 27.902 55.2021 28.7256C55.2609 29.9683 54.5774 30.9683 54.1364 32.0125C53.3574 33.8508 52.5857 35.6743 52.0051 37.5862L51.983 37.6009Z" fill="#D2A999"/>
<path d="M44.0163 73.9697C42.8404 74.4991 42.8624 75.7933 42.2965 76.7051C41.7968 77.5139 41.5395 78.4625 41.0251 79.2787C40.8413 79.5654 40.6576 79.8228 40.3489 79.9699C39.195 78.9698 38.2249 77.7713 37.1739 76.683C36.2405 75.7051 35.4541 74.4991 34.5796 73.4108C33.2567 71.7564 31.8162 70.2122 30.1919 68.8592C28.2223 67.2195 26.723 65.1017 24.6137 63.609C22.9821 62.4546 21.7106 60.8957 20.226 59.5721C19.0428 58.5206 18.0065 57.3147 16.6983 56.3808C15.493 55.5205 14.5816 54.2852 14.0084 52.9469C13.5821 51.9469 12.8471 51.2337 12.193 50.491C11.6345 49.8586 11.1935 49.2703 11.0098 48.4835C10.7084 47.2188 9.99554 46.1746 9.22385 45.182C8.35661 44.0716 7.91564 42.8436 7.89359 41.4465C7.89359 41.123 7.7907 40.7921 7.73926 40.4686C8.24637 40.4098 8.52564 40.6745 8.71673 41.1083C8.96661 41.6745 9.36348 42.1525 9.67951 42.6745C10.6937 44.3143 12.3988 45.454 13.0382 47.3585C13.1044 47.5644 13.3469 47.7114 13.5159 47.8806C13.7879 48.16 14.1113 48.2409 14.3758 47.9174C15.052 47.0644 15.6546 47.4835 16.3234 47.9394C17.2348 48.5644 17.8154 49.3659 17.9844 50.4689C18.1094 51.2778 18.418 51.8513 19.3735 51.991C20.204 52.1087 20.7993 52.7116 21.1815 53.4764C21.5195 54.1602 21.8356 54.8146 22.6293 55.1455C23.1952 55.3808 23.379 55.9838 23.4084 56.572C23.4304 57.0279 23.5627 57.3515 23.9596 57.653C25.4883 58.7927 27.0537 59.8589 28.8617 60.5281C28.9131 60.7045 28.9205 60.9251 29.0234 61.0575C29.8318 62.0943 30.6403 63.1311 31.4928 64.1385C31.8529 64.5576 32.213 65.0062 32.823 65.1459C33.2861 65.2488 33.705 65.4914 34.0283 65.8518C34.3885 66.2488 34.6898 66.1974 35.1234 65.9032C35.6526 65.5429 36.1303 65.0062 36.88 65.1018C36.9681 65.1018 37.0637 65.1164 37.1519 65.1164C37.1886 65.712 37.5708 66.0871 38.0706 66.2635C38.8055 66.5209 39.2024 67.1018 39.5552 67.7048C39.93 68.3519 40.393 68.8592 41.1059 69.0578C41.5322 69.1754 41.6865 69.4401 41.8262 69.8225C42.1789 70.7931 42.5832 71.749 42.9727 72.7049C43.1932 73.2344 43.4651 73.727 44.0163 73.9917V73.9697ZM16.3308 50.9322C16.2647 50.888 16.1985 50.8145 16.125 50.8072C16.0515 50.8072 15.978 50.8734 15.9045 50.9101C15.9707 50.9542 16.0368 51.0278 16.1103 51.0351C16.1838 51.0351 16.2573 50.9689 16.3308 50.9322ZM15.8898 50.0939C15.9339 50.1086 15.9707 50.1306 16.0148 50.1306C16.0295 50.1306 16.0368 50.0645 16.0515 50.0277C16.0074 50.013 15.9707 49.991 15.9266 49.991C15.9119 49.991 15.9045 50.0571 15.8898 50.0939Z" fill="#6D6239"/>
<path d="M91.2513 75.3447C91.3101 74.9035 91.1337 74.6976 90.7074 74.4991C89.4213 73.9035 89.4066 73.5947 89.7153 72.1534C90.1121 70.2931 91.3395 68.9842 92.4052 67.5356C93.3826 66.2121 94.294 64.837 95.2127 63.4767C95.4258 63.1605 95.5801 62.8075 95.5581 62.4105C95.4773 61.0795 96.2049 60.0869 96.8737 59.0427C97.8144 57.5721 98.6522 56.0426 99.5489 54.5499C100.254 53.3807 101.004 52.2336 101.68 51.0498C102.099 50.2998 102.621 49.513 101.886 48.6306C101.813 48.5424 101.864 48.3512 101.857 48.2115C101.952 47.8291 102.048 47.4541 102.151 47.0717C102.746 46.7629 102.9 46.1084 103.297 45.6378C103.393 45.6378 103.488 45.6378 103.576 45.6378C104.267 45.7947 104.649 45.606 104.723 45.0717C105.083 44.8879 105.406 44.5863 105.223 44.204C104.877 43.4981 105.142 42.8583 105.267 42.1892C105.465 41.8068 105.664 41.4318 105.862 41.0495C106.237 41.0421 106.428 40.851 106.435 40.4759C106.987 40.4686 107.251 40.0715 107.552 39.6965C108.089 39.0274 108.332 38.167 108.824 37.5126C110.786 34.8728 112.396 31.9168 115.306 30.1006C115.416 30.0344 115.549 29.8947 115.556 29.7917C115.615 28.6079 116.673 28.0932 117.261 27.2696C117.724 26.6225 118.371 26.1004 118.966 25.5563C119.385 25.1813 119.525 25.5122 119.613 25.8798C119.437 27.0269 119.179 28.1299 118.709 29.2256C118.048 30.7697 117.393 32.3433 116.997 33.9978C116.622 35.5714 115.879 36.9685 114.828 38.2038C114.336 38.7847 114.086 39.4832 113.785 40.1744C113.388 41.0715 112.543 41.748 112.028 42.5569C111.33 43.6598 110.595 44.7261 109.787 45.7408C109.066 46.6452 108.545 47.7115 107.626 48.4615C107.523 48.5497 107.317 48.6232 107.317 48.7115C107.273 50.1968 105.612 50.7483 105.37 52.1086C103.834 53.7043 103.157 55.7999 102.209 57.7191C101.048 60.0648 99.446 62.109 98.1892 64.3811C97.807 65.0649 97.3661 65.7856 97.1162 66.4621C96.6311 67.7489 95.7271 68.6239 94.9113 69.6166C94.169 70.5137 93.7575 71.6093 93.096 72.5652C92.464 73.477 91.8834 74.4329 91.2513 75.3521V75.3447ZM97.9981 61.1972C98.4611 61.0869 99.0344 60.9913 99.1152 60.528C99.1593 60.2927 98.4317 60.7119 98.1745 60.2854C98.1157 60.1825 97.9687 60.1383 97.8144 60.0354C97.7703 60.4692 97.8291 60.8222 97.9981 61.2046V61.1972ZM100.879 54.7705C100.828 54.7044 100.791 54.6014 100.732 54.594C100.666 54.5793 100.534 54.6381 100.519 54.6823C100.482 54.8293 100.563 54.947 100.725 54.9323C100.784 54.9323 100.828 54.8294 100.886 54.7705H100.879ZM91.9936 69.6901C91.9495 69.6239 91.9127 69.521 91.8539 69.5137C91.7878 69.499 91.6629 69.5578 91.6482 69.6093C91.6041 69.749 91.6702 69.8666 91.8319 69.8519C91.8907 69.8519 91.9348 69.749 91.9936 69.6901ZM91.1705 70.4181C91.1705 70.4181 91.0823 70.4181 91.0676 70.4402C91.0455 70.4696 91.0235 70.5357 91.0455 70.5652C91.1117 70.6681 91.1851 70.6534 91.2145 70.5284C91.2219 70.499 91.1852 70.4548 91.1705 70.4107V70.4181Z" fill="#5B532F"/>
<path d="M42.9213 140.979C40.7459 140.7 38.8571 139.612 36.8506 138.862C35.6968 138.428 34.4915 138.126 33.2861 137.854C32.0735 137.575 30.8682 137.266 29.6629 136.95C27.0758 136.281 24.5109 135.457 21.821 135.222C21.6372 135.207 21.4461 135.163 21.2844 135.082C19.6676 134.332 17.8963 134.075 16.25 133.457C15.2211 133.075 14.1628 132.685 13.1486 132.2C12.0755 131.685 10.9731 131.178 9.89275 130.655C8.90057 130.178 7.98188 129.633 7.08524 128.972C6.29884 128.391 5.27727 128.082 4.44678 127.494C4.94654 127.501 5.44632 127.516 5.95343 127.523C7.27634 127.347 8.47431 127.891 9.67227 128.273C11.8257 128.964 13.9717 129.678 16.2427 129.773C16.9115 129.803 17.5877 130.2 18.2638 129.81C18.5504 129.81 18.8371 129.81 19.1163 129.817C19.1531 130.133 19.3148 130.295 19.6382 130.391C21.3212 130.876 23.041 131.214 24.6946 131.788C25.4884 132.067 26.2968 132.258 27.1126 131.626C27.458 131.361 28.0386 131.501 28.509 131.582C28.972 131.663 29.4277 131.81 29.8833 131.92C31.074 132.207 32.2278 132.56 33.3817 131.67C33.8741 131.288 34.8516 131.7 35.1235 132.361C35.2999 132.795 35.5277 132.898 35.9393 132.972C37.2769 133.207 38.6145 133.45 39.9301 133.781C40.7165 133.979 41.4955 134.163 42.3113 134.119C42.3848 134.773 42.767 135.134 43.399 135.251C44.0458 135.369 44.6705 135.619 45.354 135.545C46.6034 135.42 47.7058 136.067 48.3085 136.935C49.2198 138.244 50.5942 138.707 51.7848 139.501C53.556 140.678 55.7094 141.148 57.4586 142.391C57.8555 142.678 58.3405 142.759 58.8183 142.693C60.0971 142.531 61.1186 143.156 62.1182 143.788C62.9634 144.325 62.9413 144.354 63.4999 143.553C63.8674 143.568 64.0584 143.752 64.0805 144.119C63.4117 144.877 62.7576 145.524 61.5596 145.075C61.2068 144.943 60.7512 145.163 60.2955 144.825C59.0534 143.899 57.7011 143.149 56.0548 143.266C56.0548 143.134 56.0548 143.002 56.0475 142.869C56.0328 142.693 55.9667 142.457 55.7609 142.546C55.5551 142.626 55.7609 142.84 55.7756 142.987C55.3493 142.943 54.7981 143.531 54.5041 142.906C54.1072 142.06 53.1739 141.913 52.6447 141.266C52.6373 141.031 52.5859 140.818 52.3507 140.7C51.9318 140.678 51.5129 140.648 51.1013 140.626C51.2703 140.148 50.969 140.112 50.6236 140.126C50.5795 139.987 50.5354 139.957 50.5133 140.053C50.5133 140.068 50.5868 140.097 50.6309 140.112C50.6383 140.207 50.6456 140.303 50.653 140.398C50.0871 140.398 49.5285 140.398 48.9773 140.193C48.5363 140.023 48.1468 140.112 48.0366 140.707C47.9557 141.163 47.7352 141.347 47.4707 140.803C47.3016 140.457 47.0811 140.494 46.7798 140.582C46.0963 140.766 45.2217 140.501 44.891 141.472C44.8689 141.546 44.5382 141.516 44.3545 141.531C44.2442 141.399 44.134 141.266 44.0237 141.134C43.6857 140.898 43.3035 141.001 42.936 140.965L42.9213 140.979Z" fill="#726A3F"/>
<path d="M56.5542 96.9264C57.2671 96.5219 58.0388 96.2131 58.7738 95.8675C59.9276 95.3307 61.155 94.7498 62.0443 93.7571C62.375 93.3895 62.6469 93.0292 63.2128 93.1615C63.7641 94.6763 64.7415 95.9557 65.4691 97.3749C66.1747 98.7646 66.8655 100.191 67.2257 101.669C67.505 102.809 67.5711 104.052 67.8651 105.206C68.4016 107.324 68.1223 109.515 68.578 111.633C68.6809 112.133 68.9307 112.596 68.9087 113.147C68.8058 115.486 69.3276 117.736 69.9082 119.971C69.967 120.199 70.0993 120.42 70.1067 120.648C70.1875 123.001 70.3198 125.339 70.555 127.685C70.6946 129.097 70.8416 130.494 71.2091 131.861C71.018 132.075 70.9151 132.325 70.9518 132.604C70.9959 132.95 71.187 132.913 71.4002 132.736C71.4443 132.905 71.4884 133.075 71.5325 133.236C71.1503 134.986 71.3855 136.825 70.6946 138.538C70.4521 139.148 70.6211 139.854 71.1356 140.384C71.1062 140.56 71.0695 140.737 71.0401 140.906C70.8343 140.898 70.6726 140.957 70.6211 141.178C70.261 141.553 70.3124 142.06 70.1802 142.501C70.1361 142.663 69.9744 142.854 69.82 142.906C69.5702 142.987 69.3423 142.796 69.2468 142.582C68.9895 141.987 68.6368 141.384 69.0557 140.715C69.5261 140.582 69.6216 140.17 69.4232 139.862C69.2688 139.619 69.1512 140.09 68.9454 140.112C68.8426 139.531 68.872 138.942 68.9234 138.362C68.9381 138.273 68.9087 138.2 68.8352 138.148C68.3942 137.589 68.6588 136.964 68.6441 136.361C68.9528 135.972 69.3938 136.134 69.7833 136.104C69.8274 136.244 69.8715 136.266 69.8935 136.17C69.8935 136.156 69.82 136.126 69.7833 136.104C69.798 135.251 69.8421 134.383 69.2174 133.678C68.9528 133.383 69.063 133.089 69.1218 132.758C69.3129 131.619 69.3276 130.486 68.5927 129.494C68.3354 129.148 67.9312 129.295 67.6005 129.207C67.5784 129.008 67.5564 128.802 67.527 128.604C67.3874 128.038 67.7328 127.332 67.0493 126.913C67.0199 126.538 66.9905 126.163 66.9611 125.788C67.1889 125.589 67.1816 125.405 66.9243 125.236C66.9243 125.045 66.917 124.846 66.9096 124.655C66.8876 123.964 67.1669 123.243 66.6892 122.604C66.3511 121.045 66.2114 119.471 66.0792 117.883C66.0057 117.023 65.719 116.155 65.1531 115.456C64.5358 114.692 64.2491 113.809 64.1095 112.868C63.9551 111.875 63.6685 110.942 63.1541 110.081C62.7866 109.464 62.7131 108.677 62.691 108.074C62.6396 106.736 61.8679 105.713 61.3167 104.721C60.5744 103.39 59.8321 102.044 59.1045 100.699C58.7297 100 58.2299 99.4559 57.7522 98.8602C57.2671 98.2573 56.6718 97.7279 56.5469 96.9117L56.5542 96.9264ZM69.6143 137.663C69.8127 137.597 69.8788 137.369 69.9597 137.17C70.0111 137.038 70.0038 136.861 69.8494 136.825C69.5848 136.759 69.4085 136.935 69.3276 137.17C69.2615 137.362 69.3644 137.523 69.6143 137.663Z" fill="#70663C"/>
<path d="M44.5674 17.034C43.5531 17.5267 42.4875 17.159 41.4438 17.2399C41.9363 16.4384 41.8334 15.4899 42.0832 14.6295C42.3993 13.556 42.8403 12.5339 43.2004 11.4824C43.5605 10.4235 44.56 9.90144 45.0524 8.96758C45.78 7.59254 47.0442 6.7175 48.1907 5.74688C49.4401 4.68802 50.6601 3.46005 52.0639 2.74679C54.4157 1.54822 56.9292 0.415837 59.7514 1.02615C60.0748 1.09233 60.4717 1.15851 60.6701 1.37175C61.6108 2.40855 62.875 3.02622 63.7569 4.19537C65.0945 5.96749 66.3292 7.81314 67.5419 9.66614C68.2989 10.8279 69.2837 11.9162 69.585 13.3427C69.7173 13.9678 70.2465 14.3281 70.4523 14.9457C71.2534 17.4164 72.1059 19.8797 72.9952 22.3136C73.5979 23.9607 74.0756 25.5931 74.2666 27.3211C73.9874 27.2844 73.5611 27.2697 73.5905 26.9461C73.7375 25.3211 72.5028 24.2622 71.9736 22.9239C71.6943 22.2107 71.2534 21.5048 70.9153 20.7842C70.2612 19.387 68.9456 18.3944 68.5414 16.8502C68.4752 16.6002 68.2401 16.4752 68.0049 16.4458C67.6301 16.4017 67.2479 16.4016 66.8731 16.3869C66.8657 16.3281 66.8804 16.2693 66.9245 16.2252C66.9539 15.806 66.7922 15.5634 66.3365 15.5781L66.3659 15.5854C66.2778 15.4751 66.1896 15.3722 66.1014 15.2619C65.5134 14.4457 64.8667 13.6589 64.6094 12.6515C64.5139 12.2839 64.4992 11.9015 63.9921 11.8133C63.654 11.7544 63.6981 11.3647 63.5732 11.1221C62.5883 9.21025 61.3462 7.51166 59.8176 5.98955C59.4501 5.62189 59.3913 4.90128 58.7592 4.77628C57.8699 4.60716 56.9366 4.67332 56.1281 5.04098C54.4818 5.7763 52.7547 6.34986 51.3216 7.55578C49.9839 8.67347 48.6243 9.74702 47.4263 11.0338C46.3754 12.1662 45.8462 13.5192 45.3538 14.8942C45.0965 15.6075 44.8393 16.3208 44.5821 17.034H44.5674Z" fill="#8D9398"/>
<path d="M119.613 25.8651C119.532 25.4975 119.385 25.1592 118.966 25.5416C118.371 26.0857 117.717 26.6078 117.261 27.2549C116.673 28.0784 115.615 28.5932 115.556 29.777C115.556 29.8873 115.416 30.0197 115.306 30.0859C112.396 31.9021 110.786 34.8581 108.824 37.4979C108.331 38.1596 108.089 39.0126 107.552 39.6818C107.251 40.0641 106.987 40.4539 106.435 40.4612C106.369 39.6229 106.964 39.1009 107.391 38.5126C108.133 37.5052 108.846 36.4831 109.294 35.3066C110.272 34.6375 110.992 33.8507 111.073 32.5565C111.11 31.9609 111.639 31.483 112.028 31.005C112.234 30.7477 112.506 30.5197 112.646 30.2329C112.903 29.6961 112.572 29.2108 112.006 29.3432C111.301 29.505 110.639 29.6961 109.926 29.3726C109.625 29.2329 109.36 29.4314 109.25 29.7256C108.405 31.9389 106.773 33.608 105.377 35.4463C105.098 35.814 104.826 36.5346 104.414 36.2772C103.834 35.9169 104.436 35.3802 104.664 34.961C105.597 33.2625 106.656 31.63 107.472 29.8579C107.817 29.1152 108.177 28.3579 109.125 28.027C109.956 27.7328 110.375 26.8505 110.72 26.0857C111.08 25.2769 111.565 24.4901 111.602 23.5489C111.624 23.0047 111.881 22.5268 112.278 22.1738C112.749 21.7547 113.006 21.1738 113.425 20.7253C113.704 20.4311 113.873 20.159 113.697 19.7179C113.381 18.9458 113.704 18.3502 114.299 17.8354C114.696 17.4898 115.056 17.1148 115.409 16.7251C116.078 15.9825 115.997 15.6663 115.042 15.3133C114.872 15.2471 114.667 15.2765 114.476 15.2618C115.358 14.0633 116.342 12.9456 117.614 12.1588C118.121 11.8426 118.371 11.3352 118.812 11.0044C119.223 10.6955 119.642 10.394 120.069 10.0852C120.671 10.5485 121.002 11.372 122.075 11.0779C122.428 10.9823 122.869 11.7764 122.942 12.3353C123.141 13.8133 122.883 15.2839 122.538 16.7031C122.259 17.8502 121.832 18.9458 121.744 20.1591C121.671 21.2179 121.347 22.24 120.833 23.2106C120.377 24.0636 120.098 25.0122 119.598 25.8578L119.613 25.8651Z" fill="#70663C"/>
<path d="M29.4129 120.104C29.8024 120.163 30.2948 119.81 30.5668 120.376L30.5153 120.449C30.5153 120.449 30.4565 120.471 30.4271 120.486C30.4639 120.53 30.5006 120.567 30.5374 120.611L30.6182 120.692C30.655 120.788 30.6917 120.891 30.7725 120.714L30.846 120.663C33.8593 121.214 36.8138 121.957 39.6066 123.28C40.2975 123.604 40.8781 124.082 41.5469 124.442C43.2814 125.383 45.0893 126.141 46.9194 126.869C49.1536 127.766 51.0498 129.244 53.0415 130.553C54.9229 131.781 56.8485 132.95 58.7079 134.214C59.3326 134.641 60.2072 134.854 60.3983 135.773L60.3101 135.869C59.8471 135.817 59.3841 135.817 58.9652 135.501C58.6638 135.281 58.3625 135.553 58.4433 135.869C58.583 136.45 58.4728 136.913 58.1788 137.398C57.7746 137.104 57.4659 136.884 57.1645 136.656C57.1866 136.428 57.1278 136.229 56.9147 136.104C56.8118 135.906 56.7162 135.913 56.6207 136.104C56.5325 136.119 56.4443 136.119 56.3561 136.104C55.5183 135.884 54.8715 135.347 54.335 134.729C53.7176 134.016 52.6814 134.038 52.1081 133.317C51.3144 133.597 50.6529 133.097 49.9253 132.986C49.2785 132.891 48.5509 132.001 47.9409 133.163C47.8233 133.391 47.1252 133.303 46.7209 133.126C46.2212 132.913 45.6994 132.964 45.1775 132.95C45.0526 132.788 44.8983 132.692 44.6925 132.766C43.5166 133.207 42.5685 132.839 41.7527 131.964C41.5616 131.759 41.3117 131.604 41.0692 131.464C39.0995 130.332 37.1299 129.207 35.1602 128.075C34.6825 127.332 34.0725 126.773 33.1538 126.641C32.8598 126.045 32.2424 125.824 31.7353 125.523C30.4859 124.773 29.31 123.913 28.1047 123.096C27.6417 122.78 27.5094 122.449 27.6196 121.802C27.8107 120.677 28.6632 120.486 29.4202 120.082L29.4129 120.104ZM56.7677 135.281C56.6942 135.325 56.6207 135.362 56.5472 135.406C56.6207 135.45 56.6942 135.523 56.7677 135.523C56.8412 135.523 56.9146 135.45 56.9881 135.406C56.9146 135.362 56.8412 135.325 56.7677 135.281ZM51.2996 132.604C51.285 132.648 51.2629 132.685 51.2629 132.729C51.2629 132.744 51.329 132.751 51.3658 132.766C51.3805 132.722 51.4026 132.685 51.4026 132.641C51.4026 132.626 51.3364 132.619 51.2996 132.604Z" fill="#966E52"/>
<path d="M51.0867 140.641C51.5056 140.663 51.9245 140.693 52.3361 140.715C52.3361 140.957 52.3655 141.178 52.6301 141.281C53.1592 141.921 54.0926 142.075 54.4895 142.921C54.7835 143.546 55.3273 142.95 55.7609 143.001C55.8565 143.097 55.9447 143.185 56.0402 143.281C57.6865 143.163 59.0388 143.913 60.2809 144.84C60.7365 145.178 61.1922 144.957 61.545 145.09C62.743 145.538 63.397 144.891 64.0659 144.134C64.2937 144.134 64.5289 144.141 64.7567 144.134C65.8371 144.119 65.8444 144.119 66.0723 142.965C66.1311 142.663 66.2707 142.457 66.5279 142.318C66.5647 142.45 66.5941 142.582 66.6308 142.722C66.6088 143.443 66.5573 144.171 67.4613 144.435C67.645 145.016 68.0493 145.516 68.0566 146.149C68.1154 146.237 68.1816 146.332 68.2404 146.421C69.0047 147.693 69.7103 148.987 70.3423 150.34C71.1802 152.112 71.7461 153.95 72.2679 155.811C72.4737 156.553 72.7456 157.215 73.216 157.84C74.2155 159.186 73.4879 160.929 71.8343 161.237C71.4741 161.304 71.1508 161.252 70.8641 160.862C70.4452 160.296 70.0851 159.642 69.4383 159.267C69.3648 159.223 69.2546 159.142 69.2546 159.083C69.3428 158.083 68.6372 157.45 68.1595 156.722C66.6896 154.509 64.911 152.597 62.4857 151.406C62.1476 151.237 61.9198 151.09 61.6773 150.788C60.8321 149.759 59.6488 149.127 58.5244 148.472C57.3778 147.81 56.224 147.193 55.1436 146.406C53.8721 145.479 52.4316 144.707 50.9544 144.163C50.0283 143.825 49.264 143.222 48.3306 142.921C47.7133 142.722 46.9636 142.921 46.4712 142.347C46.552 142.229 46.6182 142.112 46.7064 142.001C46.846 141.84 47.1106 141.737 46.9857 141.457C46.9636 141.398 46.8313 141.347 46.7578 141.347C46.383 141.347 46.3315 141.626 46.3315 141.913C46.3315 142.053 46.3536 142.185 46.3683 142.325C45.6628 142.141 44.9866 141.876 44.3398 141.545C44.5236 141.531 44.8543 141.56 44.8764 141.487C45.2071 140.516 46.0817 140.781 46.7652 140.597C47.0739 140.516 47.287 140.472 47.456 140.818C47.7206 141.362 47.9411 141.178 48.0219 140.722C48.1248 140.126 48.5217 140.038 48.9627 140.207C49.5139 140.42 50.0724 140.413 50.6384 140.413C50.7412 140.575 50.8956 140.641 51.0867 140.641ZM66.1825 147.369C66.2634 147.406 66.3589 147.487 66.4177 147.457C66.4765 147.435 66.4912 147.31 66.5279 147.23C66.4471 147.193 66.3515 147.112 66.2927 147.134C66.2339 147.156 66.2193 147.281 66.1825 147.362V147.369Z" fill="#70663C"/>
<path d="M74.8472 135.582C74.7957 135.442 74.7516 135.31 74.7002 135.17C74.7884 134.817 74.8692 134.464 74.9574 134.111C75.2734 134.06 75.4351 134.376 75.707 134.435C75.8614 133.773 76.1774 133.163 75.6336 132.472C75.3322 132.089 75.6923 131.663 76.1921 131.656C77.3092 131.641 77.3901 131.582 77.8164 130.383C77.956 130.332 77.978 130.288 77.8825 130.266C77.8678 130.266 77.8384 130.339 77.8164 130.376C77.4048 130.339 76.9565 130.501 76.589 130.222C76.1554 129.898 76.7948 129.42 76.4346 129.045C76.126 129.104 75.8099 129.17 75.4939 129.229C75.5086 128.655 75.5233 128.082 75.5307 127.508C75.9128 127.413 76.2877 127.317 76.6698 127.222C77.0079 127.508 76.5743 127.795 76.6698 128.082C76.5155 128.163 76.3832 128.251 76.4714 128.457C76.5375 128.427 76.6037 128.398 76.6698 128.369C77.5812 128.472 77.662 127.758 77.7135 127.185C77.809 126.163 77.956 125.089 77.7649 124.096C77.5297 122.854 79.2715 122.545 78.8894 121.31C78.8526 121.185 79.2348 120.89 79.4626 120.736C79.6023 120.64 79.8228 120.662 80.0065 120.626C80.0359 121.295 80.0726 121.957 80.102 122.626C80.0873 123.802 80.0873 124.979 80.0506 126.155C80.0359 126.604 80.2196 127.104 79.8301 127.501C79.3671 127.677 79.1834 128.052 79.2568 128.494C79.345 129.016 79.2201 129.575 79.4847 130.067C79.5214 130.678 79.4773 131.273 79.1833 131.825C78.9261 132.001 78.9261 132.178 79.1833 132.354C79.176 132.604 79.1613 132.861 78.9629 133.053L78.9702 133.001C78.8967 133.479 78.8306 133.964 78.7571 134.442C78.6321 134.604 78.6321 134.766 78.7718 134.928C78.9041 135.17 78.9041 135.398 78.6983 135.604C78.0515 136.501 78.4631 137.501 78.4264 138.457C77.9486 141.553 78.3088 144.678 78.1544 147.781C77.9854 151.311 78.0148 154.847 77.6473 158.377C77.4489 160.289 77.1475 162.164 76.7948 164.046C76.6478 164.833 76.6772 165.664 76.7433 166.473C76.8095 167.274 76.3317 167.583 75.7364 167.811C75.0456 168.068 74.6487 167.818 74.634 167.046C74.5973 165.157 74.6487 163.267 74.5973 161.384C74.5238 158.598 74.634 155.803 74.5238 153.009C74.4797 151.869 74.6855 150.715 74.6781 149.538C74.6561 146.016 74.8839 142.501 75.0088 138.979C75.3543 138.876 75.7291 139.229 76.0451 138.95C76.1701 138.567 75.9128 138.244 75.979 137.928C76.1554 137.053 75.6115 136.979 74.9868 136.964C74.9501 136.575 74.906 136.178 74.8692 135.788C74.9354 135.714 74.9353 135.648 74.8618 135.582H74.8472ZM76.5743 135.001C76.7654 134.384 76.8095 134.038 76.5522 133.582C76.3171 134.053 76.2656 134.398 76.5743 135.001Z" fill="#726A3F"/>
<path d="M33.1464 126.67C34.0651 126.802 34.6751 127.354 35.1528 128.104C35.0572 128.207 34.9249 128.295 34.8662 128.413C34.484 129.133 34.0357 129.369 33.1684 129.045C32.0219 128.611 30.8092 128.229 29.6039 128.163C28.3545 128.089 27.1639 127.891 25.988 127.538C24.9517 127.207 23.8493 127.104 22.8424 126.677C22.7468 125.905 22.1442 126.155 21.6959 126.111C21.6003 126.111 21.5048 126.111 21.4093 126.111C21.4974 125.449 21.0859 125.207 20.5567 124.993C19.7336 124.655 18.6899 124.64 18.0946 124.001C17.22 123.074 16.2132 123.273 15.1916 123.251C14.949 123.251 14.6918 123.295 14.6845 123.604C14.6845 123.802 14.8461 123.957 15.0299 124.023C15.8751 124.332 16.7276 124.633 17.4111 125.251C16.4483 125.265 15.4782 125.31 14.5522 124.971C14.3464 124.515 13.9716 124.361 13.5086 124.398C12.0534 124.515 10.6937 124.118 9.33403 123.67C8.73873 123.471 8.10667 123.39 7.31293 123.913C8.11402 124.207 8.76813 124.023 9.31934 124.332C9.56188 124.464 9.922 124.471 9.8926 124.846C9.8632 125.214 9.54718 125.251 9.2532 125.251C8.73139 125.251 8.22428 125.273 7.69511 125.14C6.87932 124.935 6.37954 125.229 6.27665 126.03C6.2105 126.552 6.00472 127.038 5.96062 127.552C5.46086 127.545 4.9611 127.53 4.45399 127.523C4.05712 127.552 4.00568 127.266 3.95423 126.979C4.29231 126.758 4.45398 126.391 4.54218 126.045C4.68917 125.457 5.38001 126.008 5.5417 125.523C4.51277 125.023 4.49073 125.008 3.96156 125.832C3.73373 126.177 3.4912 126.405 3.07228 126.427C3.07228 126.001 2.85179 125.832 2.44757 125.868C2.36673 125.802 2.27854 125.743 2.19769 125.677C2.15359 125.611 2.09481 125.567 2.02131 125.545C1.4701 125.074 0.683711 124.81 0.602867 123.92C0.580818 123.67 0.551411 123.501 0.823342 123.339C2.58722 122.28 4.307 121.162 6.3575 120.662C8.34921 120.177 10.3483 119.751 12.2885 119.023C13.8393 118.442 15.5664 118.67 17.2127 118.714C18.0579 118.736 18.9178 118.736 19.7556 118.714C21.1888 118.662 22.5999 118.684 23.9742 119.14C23.9301 119.589 24.1506 120.074 23.7905 120.508C23.4965 120.434 23.2172 120.376 22.9526 120.287C22.6366 120.177 22.2912 119.993 22.078 120.39C21.909 120.699 21.9825 121.052 22.225 121.317C22.5411 121.67 22.9159 121.979 23.2025 122.354C24.5254 124.074 26.2085 125.339 28.1267 126.324C28.9204 126.736 29.8171 126.868 30.5961 127.369C31.0444 127.663 31.6985 127.824 32.044 127.074C32.2865 126.545 32.7716 126.744 33.1684 126.692L33.1464 126.67ZM4.42458 123.06C3.96157 123.06 3.49856 123.243 3.07964 123.008C2.9106 122.912 2.69746 123.023 2.61662 123.207C2.50638 123.449 2.60191 123.663 2.83709 123.795C3.07963 123.935 3.38097 124.155 3.58675 123.861C3.80724 123.545 4.32905 123.633 4.43194 123.052L4.42458 123.06ZM4.40989 124.295C4.40989 124.295 4.3364 124.295 4.3217 124.317C4.29965 124.346 4.28496 124.398 4.29966 124.42C4.35845 124.508 4.41723 124.501 4.44663 124.39C4.45398 124.361 4.42459 124.324 4.40989 124.295Z" fill="#77693C"/>
<path d="M40.5986 85.1392C42.1935 84.0804 43.0387 82.2126 42.6785 80.4332C42.5904 79.9846 42.6418 79.6169 42.899 79.2272C43.7957 77.889 44.6114 76.5286 46.2871 75.933C47.0074 75.6757 47.5806 74.9992 48.22 74.5065C48.3744 74.3888 48.5214 74.2639 48.7786 74.4845C48.8007 74.9918 48.3523 75.2712 47.9996 75.4992C47.5292 75.808 47.4263 76.1021 47.7717 76.5286C48.176 77.0286 48.5287 76.7198 48.8448 76.4183C49.1902 76.0948 49.5356 75.7713 49.7781 75.3448C49.9104 75.1021 50.1236 74.8889 50.3367 74.705C50.5204 74.5433 50.763 74.4771 50.9835 74.6609C51.1672 74.8153 51.0496 74.9991 51.0055 75.183C50.785 76.0286 50.2044 76.6757 49.8222 77.4404C49.7267 77.6389 49.4768 77.786 49.6532 78.0949C50.5498 78.2346 50.4543 76.9992 51.3142 76.8889C51.3362 77.7345 50.9026 78.3081 50.4249 78.8596C49.1534 80.3229 47.8673 81.7862 46.6179 83.2642C46.0079 83.9848 45.6477 84.8524 45.2141 85.8745C47 86.1981 48.661 85.4333 50.3293 85.6907C50.3146 85.9848 50.2485 86.3084 49.9619 86.4113C49.1387 86.7128 48.7345 87.3893 48.345 88.0952C48.1392 88.4775 47.5366 88.904 48.0069 89.2864C48.4626 89.6614 48.8668 89.0585 49.1314 88.7202C49.9545 87.6467 50.9908 87.1907 52.3284 87.4113C52.2623 88.1099 51.5861 88.5952 51.7258 89.4041C51.8287 89.9776 51.8727 90.3305 52.5636 90.0732C52.6444 90.0438 52.7914 90.1982 52.9017 90.2717C52.5709 90.5364 52.2623 90.8379 51.9021 91.0438C51.395 91.3232 51.5935 91.6468 51.7625 91.9924C51.1084 92.6836 50.2191 93.0292 49.4548 93.5586C48.9844 93.8895 48.4479 94.1101 48.3156 94.7498C48.2421 95.1101 47.9922 95.3087 47.6762 95.4631C45.8535 96.4043 45.1847 96.3528 44.5968 94.0954C44.5012 93.7277 44.3542 93.3601 44.3469 92.9924C44.3322 92.2203 44.1117 91.7718 43.2298 91.6541C42.2449 91.5218 41.8554 90.4482 41.0176 89.9776C40.6427 89.7643 40.8191 88.9114 40.9955 88.3599C41.1425 87.8893 41.3042 87.4408 40.8118 87.0731C40.9588 86.3966 40.9441 85.7422 40.5986 85.1245V85.1392ZM42.8623 88.9187C42.6271 89.7129 43.2592 90.1908 43.9574 90.6688C44.7437 91.2129 44.8025 91.2497 45.1627 90.4262C45.3611 89.9629 45.7139 89.6688 46.0226 89.3158C46.2063 89.1026 46.6032 88.8673 46.4856 88.654C46.1181 88.0069 46.5076 88.0217 46.9486 87.9408C47.1764 87.8967 47.3969 87.7202 47.3381 87.4334C47.2646 87.1099 46.9927 87.1907 46.7649 87.2349C45.6698 87.4334 44.6041 87.9922 43.4429 87.5143C43.2077 87.4187 42.9799 87.6025 42.9431 87.8746C42.9064 88.154 42.9064 88.4408 42.877 88.9261L42.8623 88.9187Z" fill="#DEC2AE"/>
<path d="M38.5701 18.3796C38.6657 19.0781 38.4672 19.6884 38.0483 20.2473C37.4016 21.1149 36.7695 21.99 36.1374 22.8723C35.8655 23.2547 35.6009 23.6518 35.3584 24.0562C35.2114 24.2989 35.0497 24.6151 35.329 24.8283C35.6303 25.0489 35.8214 24.7106 36.0419 24.5489C36.7548 24.0121 37.4383 23.4239 38.4084 23.4165C38.82 24.0562 38.3423 24.5195 38.1586 25.0342C37.9748 25.5636 38.0042 25.9166 38.7171 25.6739C39.1581 25.5268 39.5623 25.5636 39.9004 25.9092C40.0694 26.0783 40.3119 26.2842 40.2017 26.5048C39.8563 27.196 39.8269 28.1519 38.9082 28.4167C38.3864 28.5637 37.9895 28.7402 38.0483 29.3358C38.1218 30.0711 38.7318 29.8138 39.1581 29.8799C38.6289 31.3432 37.894 32.6889 36.9018 33.8874C36.6887 34.1448 36.5711 34.4683 36.5858 34.8139C36.6152 35.2772 36.3432 35.5934 36.1154 35.961C35.7553 36.5272 35.0277 37.1816 36.1301 37.7772C36.2257 37.8287 36.2991 38.0493 36.2698 38.1523C35.8802 39.5126 36.064 41.1156 34.6235 42.0494C34.2266 42.3068 33.9179 42.5716 33.6019 41.9907C33.4255 41.6671 33.0066 41.6965 32.7714 41.4833C32.4554 41.1965 32.1173 40.77 32.4333 40.3656C33.521 38.9611 33.5945 37.2037 34.2192 35.6742C33.8812 35.0933 33.4696 36.1743 33.1315 35.5493C32.911 35.1375 32.8228 34.7698 33.036 34.336C33.1462 34.1154 33.1683 33.8139 32.889 33.7404C32.5436 33.6448 32.3966 33.9389 32.3157 34.2257C32.2128 34.586 32.1026 34.9536 32.0291 35.3213C31.9188 35.8581 31.6249 36.1669 31.0516 36.1595C30.3534 36.1448 29.9786 36.461 29.9859 37.1816C29.9859 37.3213 29.9859 37.4758 29.9345 37.6008C29.7507 38.0861 29.3686 38.2258 28.8982 38.1155C28.4573 38.0126 28.2515 37.7331 28.4352 37.2699C28.5822 36.8949 28.6042 36.5272 28.3911 36.1743C27.4945 34.6669 28.1927 33.4315 29.1407 32.3212C29.6185 31.7697 30.0227 31.2256 30.2138 30.5197C30.2799 30.2696 30.2432 30.0564 30.03 29.8873C30.618 29.1961 31.4632 28.7034 31.4999 27.6004C31.5073 27.2695 31.9997 26.946 32.279 26.6225C33.036 25.7401 33.7856 24.8871 34.0943 23.6959C34.3956 22.5194 34.9689 21.4311 35.8949 20.5855C36.0787 20.4237 36.1962 20.2399 36.2624 19.9973C36.5711 18.8207 37.3722 18.306 38.5628 18.3575L38.5701 18.3796ZM31.0957 33.2183C31.0957 32.8653 30.8605 32.7624 30.5445 32.7477C30.0374 32.7256 29.5523 32.7918 29.4788 33.4095C29.4274 33.8212 29.8095 33.9609 30.1182 34.0565C30.5151 34.1668 31.0516 33.6962 31.0957 33.2256V33.2183Z" fill="#D8B8A0"/>
<path d="M28.8541 60.5208C27.0535 59.8517 25.4807 58.7928 23.952 57.6457C23.5551 57.3516 23.4302 57.0207 23.4008 56.5648C23.3714 55.9692 23.1803 55.3663 22.6218 55.1383C21.828 54.8074 21.512 54.1456 21.1739 53.4691C20.7917 52.7044 20.1964 52.1014 19.3659 51.9838C18.4032 51.8441 18.0945 51.2705 17.9769 50.4617C17.8078 49.3587 17.2272 48.5498 16.3159 47.9322C15.6544 47.4763 15.0444 47.0572 14.3683 47.9101C14.1037 48.241 13.7877 48.1528 13.5084 47.8734C13.3394 47.7042 13.0968 47.5572 13.0307 47.3513C12.3913 45.4468 10.6862 44.3071 9.67198 42.6673C9.3486 42.1452 8.95908 41.6673 8.70919 41.1011C8.51811 40.6672 8.23147 40.4025 7.7317 40.4613C7.37158 39.3584 7.81255 38.4098 8.42991 37.5789C8.83413 37.0348 10.2379 36.895 10.8479 37.3289C12.3766 38.4245 14.0449 39.2848 15.6103 40.3143C15.7573 40.4099 15.8529 40.6084 15.9705 40.7554C15.9705 41.2555 16.3894 41.432 16.6613 41.7408C17.0214 42.1452 17.4477 42.557 17.4036 43.1967C17.3742 43.6305 17.264 43.8365 16.7422 43.8585C16.0219 43.8953 15.4193 43.6747 14.8387 43.3217C14.7578 43.2262 14.9489 42.8953 14.6182 43.0497C14.5447 43.0791 14.699 43.2702 14.8166 43.3438C14.8607 43.557 14.1478 43.6747 14.7064 43.91C15.2429 44.1379 15.8014 44.3218 16.1028 44.8365C16.4115 45.3659 16.7422 45.263 17.1684 45.0424C17.6094 44.8071 18.0577 44.5865 18.3076 45.2998C18.4252 45.638 18.7486 45.6159 19.0205 45.66C19.3733 45.7262 19.682 45.9394 19.7996 46.2336C20.145 47.0718 20.9093 47.513 21.4752 48.1381C21.7472 48.4395 22.2028 48.6381 22.1587 49.1528C22.0779 49.2116 22.0044 49.2925 21.9236 49.3146C21.5046 49.4616 20.9681 49.6381 21.3282 50.1676C21.5708 50.5205 21.8133 51.344 22.6291 50.7337C22.9672 50.4837 24.1357 51.0352 24.2019 51.4176C24.2239 51.5352 24.1725 51.7264 24.0843 51.7926C23.7977 51.9985 23.3347 52.0426 23.6139 52.6088C23.8491 53.0794 24.1431 53.3809 24.7017 53.3662C25.1279 53.3515 25.5615 53.3662 25.9878 53.3662C25.9878 53.9397 25.9878 54.5059 25.9952 55.0795C25.5469 56.0207 25.5836 55.9839 26.3626 56.6972C27.5092 57.756 28.6557 58.8369 28.8615 60.5208H28.8541ZM13.2291 41.1599C12.5971 40.1893 11.6269 40.8437 10.892 40.5349C10.7597 40.4834 10.6494 40.6452 10.6054 40.7849C10.5392 40.9908 10.6494 41.2555 10.8038 41.2334C11.5902 41.0937 12.3766 41.7776 13.2291 41.1599ZM18.7633 46.1821C18.7633 46.1821 18.7265 46.1086 18.6971 46.0939C18.6751 46.0865 18.6383 46.1233 18.6089 46.138C18.6457 46.1821 18.6824 46.2262 18.7192 46.2777C18.7339 46.2483 18.7486 46.2115 18.7633 46.1821Z" fill="#77693C"/>
<path d="M111.051 17.6148C111.036 17.7545 111.051 17.9163 110.992 18.034C110.478 19.0487 110.478 19.0487 111.529 19.5487C111.286 20.1958 110.617 20.5046 110.279 21.0414C108.993 23.0709 107.222 24.8136 106.34 27.0637C105.443 29.3358 104.098 31.3138 102.864 33.3801C102.261 34.3801 101.07 34.7698 100.57 35.8581C100.299 36.4537 99.8282 36.9537 99.4827 37.5199C99.1888 38.0052 99.0124 38.6229 98.2186 38.2552C98.1304 38.2111 97.8732 38.314 97.8512 38.3876C97.5719 39.3656 96.543 39.8876 96.3298 40.9024C96.2784 41.1303 96.1387 41.373 96.4254 41.5127C96.6605 41.6303 96.881 41.5127 97.0795 41.3582C97.4396 41.0715 97.6895 40.6303 98.1672 40.52C98.5126 40.8436 98.2774 41.1156 98.1158 41.2995C97.1971 42.2995 96.3592 43.4466 94.7644 43.351C94.6541 43.351 94.5365 43.5054 94.4263 43.5863C93.8604 43.6083 93.3606 43.476 92.9932 43.0054C93.0152 41.8804 93.4709 40.8729 94.0515 39.9758C95.1907 38.2405 96.0138 36.3213 97.1824 34.6007C97.6821 33.858 98.395 33.2257 98.689 32.3874C99.0418 31.3874 99.6591 30.5785 100.196 29.7035C101.592 27.3946 103.209 25.2474 104.951 23.2033C105.612 22.4238 106.399 21.7326 107.2 21.0855C108.559 19.9973 109.463 18.409 111.066 17.5928L111.051 17.6148Z" fill="#966E52"/>
<path d="M25.9954 55.0719C25.9954 54.4984 25.9954 53.9322 25.9881 53.3586C25.9881 52.5498 24.9959 52.7116 24.7681 52.1233C26.7524 50.9909 27.5241 51.0865 29.1116 52.5792C29.7657 53.1969 30.4639 53.763 31.1695 54.3145C31.4635 54.5425 31.9338 54.9102 32.1764 54.6969C32.8819 54.0645 33.6168 54.616 34.3224 54.4837C35.5571 55.5793 36.711 56.7485 37.7179 58.0573C37.7179 58.4544 37.8281 58.8221 38.0559 59.1309C39.3127 60.8516 40.4151 62.6972 41.8924 64.2487C42.1202 64.484 42.5391 64.8664 42.4803 64.9987C42.0835 65.837 42.9801 66.2488 43.0977 66.94C42.1275 67.3297 41.4441 66.7488 40.8561 66.2855C40.0403 65.6458 39.3568 64.8296 38.6586 64.0575C38.2838 63.6384 37.9971 63.131 37.6591 62.6825C37.4386 62.3883 37.1814 61.8884 36.7992 62.1163C36.3582 62.3884 36.7698 62.7707 36.9756 63.0796C37.1887 63.3958 37.4386 63.6972 37.5929 64.0355C37.8134 64.5134 37.8722 64.984 37.1593 65.1017C37.0711 65.1017 36.9756 65.087 36.8874 65.087C36.4611 63.756 35.5865 62.6899 34.6972 61.6604C33.9255 60.7633 33.0068 59.9912 32.1984 59.1235C30.8902 57.7191 29.3762 56.6014 27.6564 55.7705C27.1199 55.5131 26.701 54.9469 25.9954 55.0793V55.0719Z" fill="#966E52"/>
<path d="M37.152 65.1017C37.8649 64.9767 37.8061 64.5061 37.5856 64.0355C37.4312 63.6973 37.1813 63.3958 36.9682 63.0796C36.7624 62.7708 36.3509 62.3884 36.7918 62.1163C37.174 61.881 37.4312 62.381 37.6517 62.6825C37.9898 63.1384 38.2764 63.6384 38.6513 64.0576C39.3495 64.837 40.0403 65.6459 40.8487 66.2856C41.4367 66.7488 42.1202 67.3224 43.0903 66.94C42.9728 66.2488 42.0761 65.837 42.473 64.9988C42.5318 64.8664 42.1129 64.484 41.885 64.2487C40.4004 62.6972 39.298 60.859 38.0486 59.131C37.8208 58.8221 37.7032 58.4544 37.7105 58.0574C38.9232 58.925 40.0697 59.8662 41.0692 60.9913C41.4882 61.4619 42.01 61.8295 42.5832 62.1825C43.546 62.7781 44.303 63.6973 45.1261 64.5061C46.6548 65.9915 47.8969 67.7268 49.2345 69.3666C49.5873 69.7931 50.212 69.9401 50.3443 70.5357C49.1463 70.4401 48.1982 71.1754 47.1473 71.5504C45.986 71.9622 44.9277 72.5946 44.3912 73.8152C44.3544 73.9035 44.1413 73.9182 44.009 73.9697C43.4578 73.705 43.1859 73.2196 42.9654 72.6829C42.5759 71.727 42.1717 70.771 41.8189 69.8004C41.6792 69.418 41.5249 69.1607 41.0986 69.0357C40.3857 68.8371 39.9227 68.3224 39.5479 67.6827C39.2025 67.0798 38.7982 66.5062 38.0633 66.2415C37.5635 66.065 37.1813 65.69 37.1446 65.0944L37.152 65.1017Z" fill="#866A45"/>
<path d="M34.3149 54.4838C33.6167 54.6235 32.8817 54.0647 32.1688 54.697C31.9263 54.9176 31.4485 54.5426 31.1619 54.3146C30.4564 53.7632 29.7582 53.197 29.1041 52.5793C27.5239 51.0866 26.7449 50.991 24.7605 52.1234C24.9884 52.7117 25.9805 52.5499 25.9805 53.3587C25.5543 53.3587 25.1207 53.3367 24.6944 53.3587C24.1358 53.3808 23.8418 53.072 23.6067 52.6014C23.3274 52.0352 23.783 51.991 24.077 51.7851C24.1652 51.7263 24.2166 51.5278 24.1946 51.4102C24.1285 51.0352 22.9525 50.4763 22.6218 50.7263C21.8134 51.3366 21.5708 50.5131 21.321 50.1601C20.9608 49.638 21.4974 49.4542 21.9163 49.3071C21.9971 49.2777 22.0706 49.2042 22.1514 49.1454C22.1955 48.6307 21.7399 48.4321 21.4679 48.1306C20.902 47.5056 20.1377 47.0644 19.7923 46.2261C19.6747 45.932 19.366 45.7188 19.0132 45.6526C18.7413 45.6011 18.4179 45.6306 18.3003 45.2923C18.0578 44.5791 17.6021 44.807 17.1612 45.0349C16.7422 45.2555 16.4115 45.3585 16.0955 44.8291C15.7941 44.3143 15.2356 44.1305 14.6991 43.9026C14.1405 43.6673 14.8534 43.5496 14.8093 43.3363L14.824 43.3217C15.412 43.6746 16.0073 43.8952 16.7275 43.8584C17.2493 43.829 17.3596 43.6305 17.389 43.1966C17.4257 42.5569 17.0068 42.1451 16.6467 41.7407C16.3748 41.4319 15.9485 41.2554 15.9558 40.7554C17.8079 41.6378 19.6967 42.3511 21.2254 43.9246C22.3278 45.0644 23.8051 45.932 25.128 46.8953C27.105 48.3292 29.2878 49.4542 31.0664 51.2116C32.1541 52.2925 33.2565 53.3588 34.3075 54.4764L34.3149 54.4838Z" fill="#866A45"/>
<path d="M75.5308 127.523C75.5161 128.096 75.5014 128.67 75.4941 129.244C75.0311 130.832 74.9061 132.464 74.9576 134.111C74.8694 134.464 74.7885 134.817 74.7003 135.17C73.5832 135.207 73.7596 136.244 73.5759 136.847C73.3921 137.435 73.1496 137.986 72.9512 138.56C72.6278 139.487 72.0251 140.067 71.1358 140.398C70.6214 139.869 70.4524 139.163 70.6949 138.553C71.3784 136.832 71.1505 135.001 71.5327 133.251C71.9369 133.082 72.0986 132.744 72.0913 132.339C72.0692 130.347 72.6425 128.376 72.2971 126.368C72.2383 126.03 72.1868 125.663 72.2456 125.265C72.5102 123.574 72.4955 121.854 72.8777 120.155C73.0247 119.501 73.1276 118.89 73.5391 118.361C73.8552 118.53 74.0683 118.765 74.0756 119.133C74.0903 119.581 74.2447 120.001 74.5166 120.309C75.3397 121.214 75.5235 122.221 75.2589 123.39C75.1707 123.787 75.1266 124.28 75.744 124.383C75.9277 125.449 75.3545 126.464 75.5161 127.53L75.5308 127.523Z" fill="#8D9398"/>
<path d="M92.9712 43.0349C93.3386 43.5055 93.8384 43.6379 94.4043 43.6158C94.3749 44.1673 94.0515 44.5717 93.7649 45.0203C93.1182 46.0424 92.5816 47.0939 92.3391 48.3292C92.1848 49.1234 91.7658 49.9175 91.1411 50.5352C90.9721 50.7043 90.906 50.9911 91.1338 51.1749C91.3763 51.3734 91.5674 51.1749 91.7144 50.9837C91.8834 50.7558 92.0084 50.491 92.2068 50.2925C92.442 50.0572 92.5963 49.6454 93.1181 50.0278C93.6179 50.3955 93.7135 49.5572 94.1691 49.5204C94.5587 49.8366 94.4705 50.3146 94.3602 50.6749C93.9413 52.0793 93.515 53.4764 92.0819 54.2779C91.3175 54.7044 90.9721 55.6089 90.6781 56.3589C90.2372 57.4913 89.2156 57.5868 88.3777 58.0354C88.172 58.1457 88.025 57.9913 87.8853 57.8589C87.5031 57.5133 87.121 57.1677 86.7314 56.8148C86.8858 55.6383 87.5399 54.6456 87.9294 53.5573C88.7967 51.094 89.9211 48.7189 90.8619 46.2776C91.3396 45.035 92.001 43.9467 92.9638 43.0349H92.9712Z" fill="#866A45"/>
<path d="M66.8584 16.387C67.2406 16.4017 67.6154 16.4017 67.9902 16.4458C68.2327 16.4752 68.4679 16.6002 68.5267 16.8502C68.9309 18.3944 70.2392 19.3871 70.9006 20.7842C71.2387 21.4974 71.6797 22.2107 71.9589 22.924C72.4881 24.2622 73.7228 25.3211 73.5758 26.9461C73.5464 27.2697 73.9727 27.2844 74.252 27.3212C74.9281 28.3065 74.6415 29.483 74.8179 30.5565C74.9943 31.6669 75.2589 32.7625 75.3544 33.8876C75.1707 33.939 74.9796 34.0199 75.0531 34.2405C75.0825 34.3361 75.2515 34.3875 75.3617 34.4611C75.5749 34.7184 75.4793 35.0347 75.5161 35.3288C74.8546 35.4244 74.6047 34.9685 74.3843 34.4832C73.7375 33.064 73.0614 31.6595 72.4293 30.233C71.5768 28.2991 70.7536 26.3505 69.9158 24.4093C69.7614 24.0563 69.6071 23.7107 69.1955 23.5857C69.0632 23.446 68.8795 23.3284 68.8134 23.1666C67.9314 20.9754 67.3508 18.6959 66.8584 16.3943V16.387Z" fill="#968489"/>
<path d="M33.1465 126.67C32.7496 126.721 32.2646 126.523 32.022 127.052C31.6766 127.802 31.0225 127.641 30.5742 127.346C29.8025 126.846 28.8985 126.714 28.1047 126.302C26.1939 125.317 24.5108 124.052 23.1806 122.332C22.8939 121.957 22.5191 121.648 22.2031 121.295C21.9606 121.023 21.8871 120.677 22.0561 120.368C22.2692 119.971 22.6147 120.162 22.9307 120.265C23.1953 120.354 23.4819 120.412 23.7685 120.486C24.136 120.052 23.9155 119.567 23.9523 119.118C24.2169 118.905 24.4447 119.067 24.6725 119.184C24.7901 119.199 24.9077 119.221 25.0253 119.236C26.4805 119.523 27.9357 119.817 29.3909 120.104C28.6412 120.508 27.7813 120.707 27.5903 121.824C27.48 122.471 27.6123 122.81 28.0753 123.118C29.2806 123.935 30.4566 124.795 31.706 125.545C32.2131 125.846 32.8305 126.067 33.1244 126.663L33.1465 126.67Z" fill="#866A45"/>
<path d="M66.5426 142.318C66.2854 142.457 66.1457 142.663 66.0869 142.965C65.8591 144.119 65.8518 144.119 64.7714 144.134C64.5435 144.134 64.3084 144.134 64.0805 144.134C64.0658 143.766 63.8674 143.575 63.4999 143.568C63.4779 143.288 63.544 142.95 63.4191 142.737C63.0148 142.082 62.4783 141.524 62.5371 140.634C62.5592 140.296 62.1403 140.119 61.7875 140.149C61.0746 140.215 60.6924 139.729 60.2367 139.318C59.9428 139.053 59.8766 138.538 59.3181 138.538C59.0902 138.538 58.9285 138.273 59.0241 138.001C59.1049 137.766 59.3034 137.575 59.5459 137.604C59.9134 137.641 60.2735 137.759 60.6336 137.84C60.6924 137.906 60.7439 137.987 60.8174 138.023C60.9717 138.097 61.1481 138.171 61.2583 137.95C61.1407 137.913 61.0231 137.869 60.8982 137.84C60.81 137.825 60.7218 137.84 60.6336 137.84C60.6336 137.553 60.641 137.259 60.6483 136.972C61.1187 136.972 61.5891 136.979 62.0594 136.987C62.1697 137.068 62.2872 137.148 62.3975 137.222L62.3828 137.207C63.8968 138.81 65.4916 140.347 66.5426 142.325V142.318ZM61.0305 139.06C61.1113 139.097 61.2069 139.178 61.2657 139.148C61.3245 139.126 61.3833 138.987 61.3612 138.928C61.3392 138.869 61.1995 138.81 61.1407 138.832C61.0819 138.854 61.0672 138.979 61.0305 139.06Z" fill="#866A45"/>
<path d="M76.67 128.104C76.5744 127.817 77.0081 127.53 76.67 127.244C76.9787 126.185 76.8464 125.067 77.0815 123.986C77.1991 123.427 77.28 122.626 76.6847 122.096C76.7729 122.096 76.8537 122.096 76.9419 122.096C77.2653 121.567 77.1771 121.442 76.376 121.236C76.4495 120.846 76.2731 120.376 76.7214 120.104C77.2653 120.001 77.3755 119.729 77.0595 119.273C77.0227 119.052 76.986 118.832 76.9419 118.604C77.5078 117.714 77.8091 116.751 77.8238 115.692C77.8238 115.236 77.6695 114.736 78.0811 114.354C78.2134 114.39 78.4191 114.39 78.4706 114.471C78.8748 115.199 79.4481 115.199 80.1242 114.905C80.4035 114.78 80.7195 114.552 80.9841 114.956L80.9547 116.089C80.4623 116.449 79.9846 116.28 79.4701 116.118C78.8528 115.927 78.5367 116.17 78.4485 116.846C78.3089 117.993 78.6176 119.185 78.0149 120.251C78.6176 120.479 78.941 120.177 79.3084 119.957C79.7347 119.699 80.036 119.817 80.1169 120.339C80.0875 120.442 80.0581 120.545 80.0287 120.64C79.8449 120.67 79.6245 120.655 79.4848 120.751C79.257 120.905 78.8675 121.199 78.9116 121.324C79.2937 122.56 77.5519 122.869 77.7871 124.111C77.9782 125.104 77.8312 126.17 77.7356 127.2C77.6842 127.773 77.596 128.486 76.692 128.383C76.692 128.288 76.692 128.192 76.692 128.097L76.67 128.104Z" fill="#6D6239"/>
<path d="M79.5288 109.486C79.6391 108.883 79.8889 108.302 79.8301 107.669C79.786 107.169 79.9698 106.721 80.3446 106.39C80.9032 105.89 80.1609 105.846 80.058 105.537C80.396 105.353 80.7268 105.177 81.0575 104.993C81.2706 104.875 81.5058 104.736 81.425 104.456C81.0942 103.309 81.8806 102.875 82.6744 102.427C82.9169 102.287 83.108 102.052 83.4167 102.03C82.939 104.515 82.4613 107 81.9909 109.486C81.3147 109.412 80.8738 109.883 80.4254 110.236C80.0065 110.052 79.9183 109.589 79.5288 109.486Z" fill="#866A45"/>
<path d="M79.5289 109.486C79.9258 109.589 80.0067 110.052 80.4256 110.236C80.8739 109.883 81.3149 109.412 81.991 109.486C82.0498 109.699 82.0645 109.905 81.8661 110.059C81.3737 110.397 81.4398 110.78 81.7705 111.184C81.7117 112.486 81.3369 113.714 80.9768 114.949C80.7122 114.545 80.4035 114.773 80.1169 114.898C79.4481 115.192 78.8748 115.199 78.4633 114.464C78.4192 114.376 78.206 114.383 78.0737 114.346C78.1546 114.067 78.2354 113.787 78.3089 113.508C78.8748 113 79.3305 112.508 78.9924 111.611C78.6984 110.846 79.4701 110.236 79.5289 109.493V109.486Z" fill="#726A3F"/>
<path d="M80.1019 120.339C80.0211 119.817 79.7198 119.699 79.2935 119.956C78.926 120.177 78.6027 120.486 78 120.251C78.6027 119.184 78.294 117.993 78.4336 116.846C78.5145 116.17 78.8378 115.92 79.4552 116.118C79.9696 116.28 80.4547 116.442 80.9398 116.089C80.9839 116.17 81.0794 116.273 81.0574 116.339C80.6311 117.648 80.9251 119.096 80.2783 120.361C80.2195 120.361 80.1607 120.346 80.0946 120.346L80.1019 120.339Z" fill="#726A3F"/>
<path d="M68.6003 129.508C69.3352 130.508 69.3205 131.633 69.1295 132.773C69.0707 133.111 68.9604 133.405 69.225 133.692C69.8497 134.398 69.813 135.258 69.7909 136.119C69.4014 136.148 68.9604 135.986 68.6517 136.376C68.5636 136.258 68.4753 136.148 68.3872 136.031C68.3578 135.847 68.3284 135.656 68.299 135.472C68.299 135.42 68.3063 135.369 68.3137 135.317C68.321 135.148 68.2475 135.031 68.0932 134.957C68.0417 134.898 68.0123 134.825 68.0197 134.744C67.9903 134.626 67.9535 134.508 67.9241 134.398C67.7624 133.905 67.8286 133.398 67.7992 132.898C67.7992 132.803 67.7551 132.729 67.6669 132.677C67.3803 131.824 67.6155 130.957 67.5934 130.096C67.9168 129.883 68.1299 129.486 68.5856 129.501L68.6003 129.508Z" fill="#966E52"/>
<path d="M55.2022 24.7182C54.7466 24.7182 54.4967 24.2476 54.0704 24.2108C53.9822 24.2696 53.894 24.3064 53.8426 24.3726C53.6294 24.6299 53.8573 25.277 53.2693 25.1741C52.7696 25.0858 52.9166 24.5564 52.9313 24.2108C52.968 23.4093 53.1664 22.6299 53.4825 21.8872C53.8499 22.0931 53.8647 22.5563 54.2762 22.799C54.9303 23.1961 55.2316 23.9093 55.2022 24.7108V24.7182Z" fill="#968489"/>
<path d="M74.9721 136.972C75.5968 136.987 76.1407 137.06 75.9643 137.935C75.8982 138.251 76.1628 138.575 76.0305 138.957C75.7144 139.237 75.3396 138.884 74.9942 138.987C74.906 138.318 74.8619 137.648 74.9648 136.972H74.9721Z" fill="#866A45"/>
<path d="M3.07227 126.398C3.48384 126.376 3.73371 126.148 3.96155 125.802C4.49071 124.979 4.51275 124.993 5.54168 125.493C5.37999 125.979 4.68915 125.435 4.54216 126.015C4.45397 126.361 4.29229 126.729 3.95421 126.949C3.67493 126.743 3.24865 126.765 3.07227 126.398Z" fill="#866A45"/>
<path d="M62.0519 136.979C61.5815 136.979 61.1112 136.972 60.6408 136.964C60.435 136.626 60.3174 136.259 60.3027 135.869L60.3909 135.773C61.1626 135.869 61.5668 136.472 62.0446 136.979H62.0519Z" fill="#966E52"/>
<path d="M79.4921 130.082C79.2201 129.589 79.3524 129.03 79.2642 128.508C79.1907 128.067 79.3745 127.692 79.8375 127.516C79.7566 128.111 79.5582 128.699 79.7566 129.317C79.8448 129.589 79.7272 129.876 79.4921 130.082Z" fill="#966E52"/>
<path d="M78.4266 138.472C78.4707 137.516 78.0518 136.516 78.6985 135.619C78.6912 136.31 78.4119 136.987 78.6838 137.692C78.7941 137.972 78.5442 138.222 78.4192 138.472H78.4266Z" fill="#966E52"/>
<path d="M67.4759 144.435C66.5645 144.17 66.6233 143.435 66.6454 142.722C67.4465 143.038 67.1892 143.869 67.4759 144.435Z" fill="#866A45"/>
<path d="M66.704 122.618C67.1817 123.258 66.9025 123.979 66.9245 124.67C66.366 124.038 66.5717 123.324 66.704 122.618Z" fill="#968489"/>
<path d="M80.1024 120.339C80.1611 120.339 80.2273 120.346 80.2861 120.354C80.1685 121.111 80.8226 121.935 80.1097 122.648C80.0803 121.979 80.0436 121.309 80.0142 120.648C80.0436 120.545 80.073 120.442 80.1024 120.346V120.339Z" fill="#966E52"/>
<path d="M67.0566 126.92C67.7401 127.339 67.3947 128.045 67.5344 128.611C66.9905 128.155 66.917 127.567 67.0566 126.92Z" fill="#968489"/>
<path d="M81.763 111.184C81.4322 110.78 81.3661 110.397 81.8585 110.059C81.9981 110.449 82.1451 110.839 81.763 111.184Z" fill="#866A45"/>
<path d="M46.3756 142.325C46.3609 142.185 46.3389 142.053 46.3389 141.913C46.3389 141.619 46.3977 141.354 46.7651 141.347C46.846 141.347 46.9709 141.398 46.993 141.457C47.1106 141.737 46.8533 141.84 46.7137 142.001C46.6255 142.104 46.5594 142.229 46.4785 142.347L46.3756 142.325Z" fill="#726A3F"/>
<path d="M68.6001 129.508C68.1444 129.494 67.9313 129.891 67.6079 130.104C67.6079 129.81 67.6079 129.516 67.6079 129.222C67.9386 129.31 68.3429 129.163 68.6001 129.508Z" fill="#968489"/>
<path d="M86.6652 57.3147C86.6725 57.7044 86.7681 58.1309 86.2021 58.2265C86.3418 57.9177 86.2315 57.4765 86.6652 57.3147Z" fill="#866A45"/>
<path d="M68.9531 140.134C69.1589 140.112 69.2838 139.641 69.4308 139.884C69.6219 140.193 69.5337 140.604 69.0634 140.737C69.0266 140.538 68.9899 140.332 68.9531 140.134Z" fill="#966E52"/>
<path d="M55.6431 25.5122C55.3639 25.321 55.2022 25.0563 55.1948 24.7107C55.746 24.7548 55.7901 25.0783 55.6431 25.5122Z" fill="#968489"/>
<path d="M42.9214 140.979C43.2889 141.016 43.671 140.913 44.0091 141.148C43.6343 141.178 43.2227 141.457 42.9214 140.979Z" fill="#70663C"/>
<path d="M79.1908 132.369C78.9336 132.192 78.9262 132.016 79.1908 131.839C79.3745 132.016 79.448 132.192 79.1908 132.369Z" fill="#966E52"/>
<path d="M66.3218 15.578C66.7701 15.5633 66.9391 15.806 66.9097 16.2251C66.5643 16.1516 66.3365 15.9604 66.3218 15.578Z" fill="#968489"/>
<path d="M66.9318 125.251C67.1817 125.42 67.1964 125.604 66.9685 125.802C66.7921 125.626 66.8142 125.442 66.9318 125.251Z" fill="#968489"/>
<path d="M2.44775 125.846C2.85932 125.81 3.07981 125.979 3.07246 126.405C2.80053 126.288 2.5286 126.177 2.44775 125.846Z" fill="#866A45"/>
<path d="M75.3619 34.4537C75.2517 34.3802 75.0826 34.3287 75.0532 34.2331C74.9797 34.0051 75.1708 33.9316 75.3546 33.8801C75.3546 34.0713 75.3546 34.2625 75.3546 34.4537H75.3619Z" fill="#8D9398"/>
<path d="M70.6289 141.193C70.6877 140.972 70.842 140.913 71.0478 140.921C71.0625 141.244 70.7906 141.141 70.6289 141.193Z" fill="#8D9398"/>
<path d="M25.0471 119.236C24.9295 119.221 24.8119 119.199 24.6943 119.185C24.8266 119.089 24.9442 119.104 25.0471 119.236Z" fill="#77693C"/>
<path d="M68.3062 135.479C68.3356 135.663 68.365 135.854 68.3944 136.038C68.1592 135.883 67.9093 135.729 68.3062 135.479Z" fill="#968489"/>
<path d="M78.7795 134.942C78.6399 134.788 78.6398 134.626 78.7648 134.457C78.8677 134.619 78.8456 134.781 78.7795 134.942Z" fill="#966E52"/>
<path d="M67.9387 134.406C67.9681 134.523 68.0048 134.641 68.0342 134.751C67.9828 134.678 67.924 134.604 67.8872 134.523C67.8725 134.494 67.9166 134.442 67.9387 134.398V134.406Z" fill="#968489"/>
<path d="M68.1079 134.964C68.2549 135.038 68.3358 135.156 68.3284 135.325C68.1961 135.244 68.1079 135.133 68.1079 134.964Z" fill="#968489"/>
<path d="M38.8642 17.8281C38.776 17.9311 38.6951 18.034 38.6069 18.1369C38.6069 17.9678 38.7025 17.8722 38.8642 17.8281Z" fill="#D8B8A0"/>
<path d="M74.8474 135.582C74.9209 135.648 74.9282 135.722 74.8547 135.788C74.8254 135.744 74.7959 135.7 74.7812 135.648C74.7812 135.634 74.8253 135.604 74.8474 135.575V135.582Z" fill="#866A45"/>
<path d="M30.5666 120.376C30.6621 120.471 30.7576 120.567 30.8532 120.663L30.7797 120.714C30.7283 120.692 30.6768 120.685 30.6253 120.692L30.5445 120.611C30.5445 120.56 30.5445 120.501 30.5225 120.449L30.5739 120.376H30.5666Z" fill="#966E52"/>
<path d="M39.1583 17.6223C39.0554 17.6959 38.9598 17.762 38.8569 17.8356C38.901 17.6885 38.9966 17.615 39.1583 17.6223Z" fill="#D8B8A0"/>
<path d="M62.3828 137.2L62.3975 137.222L62.4196 137.192L62.3828 137.2Z" fill="#966E52"/>
<path d="M68.8504 138.17C68.9238 138.222 68.9532 138.295 68.9385 138.384C68.8651 138.332 68.8357 138.259 68.8504 138.17Z" fill="#966E52"/>
<path d="M67.6818 132.685C67.77 132.736 67.8067 132.81 67.8141 132.905C67.7038 132.876 67.6377 132.81 67.6818 132.685Z" fill="#968489"/>
<path d="M66.0795 15.262C66.1677 15.3723 66.2558 15.4752 66.344 15.5855C66.175 15.5487 66.0721 15.4458 66.0795 15.262Z" fill="#968489"/>
<path d="M68.2624 146.421C68.2036 146.333 68.1374 146.237 68.0786 146.149C68.233 146.178 68.3358 146.237 68.2624 146.421Z" fill="#866A45"/>
<path d="M2.0137 125.523C2.0872 125.545 2.15334 125.589 2.19008 125.655L2.0578 125.641L2.00635 125.523H2.0137Z" fill="#866A45"/>
<path d="M52.3361 87.4334C50.9985 87.2055 49.9622 87.6687 49.139 88.7423C48.8745 89.0879 48.4702 89.6835 48.0146 89.3085C47.5369 88.9261 48.1395 88.4996 48.3526 88.1173C48.7348 87.4114 49.139 86.7349 49.9695 86.4334C50.2488 86.3304 50.315 86.0069 50.337 85.7128C51.1602 85.9701 51.8951 86.1393 52.6448 85.3745C53.0269 84.9775 53.7839 84.7936 54.0632 85.7128C52.902 86.0584 52.8799 86.0878 53.2033 86.8598C53.1739 87.4407 52.7623 87.4334 52.3508 87.4334H52.3361Z" fill="#DBBAA0"/>
<path d="M51.7628 92.0217C51.5938 91.6761 51.3953 91.3599 51.9025 91.0731C52.2699 90.8673 52.5713 90.5584 52.902 90.301C53.0931 90.301 53.2842 90.301 53.4679 90.301C53.4973 90.9187 52.7329 90.9408 52.608 91.4481C52.4463 91.8231 52.167 92.0143 51.7555 92.0217H51.7628Z" fill="#DBBAA0"/>
<path d="M52.6152 91.4481C52.7328 90.9408 53.5045 90.9187 53.4751 90.301C53.7397 90.3231 54.0851 90.2275 54.2027 90.5437C54.313 90.8525 54.019 91.0364 53.8132 91.2129C53.4604 91.5217 53.0268 91.4187 52.6152 91.4481Z" fill="#DEC2AE"/>
<path d="M53.1881 86.8673C52.8648 86.0879 52.8868 86.0585 54.048 85.7202C54.026 86.3011 53.6438 86.6173 53.1881 86.8673Z" fill="#DEC2AE"/>
<path d="M78.3161 113.508C78.2353 113.787 78.1618 114.067 78.0809 114.346C77.6694 114.728 77.8237 115.228 77.8237 115.684C77.809 116.75 77.5077 117.706 76.9418 118.603C76.4788 117.501 76.0231 116.397 75.81 115.206C75.81 114.927 75.81 114.647 75.81 114.361C75.81 113.714 75.81 113.067 75.8173 112.427C75.8173 112.044 75.6483 111.816 75.2661 111.765C75.2661 111.669 75.2661 111.581 75.2661 111.5C75.4498 111.14 75.5895 110.765 75.538 110.346C75.538 110.03 75.5968 109.691 75.2661 109.478C75.2661 108.434 75.2661 107.382 75.2661 106.338C75.7144 105 75.7071 103.669 75.2661 102.331C75.2661 101.853 75.2661 101.375 75.2661 100.897C75.3028 100.868 75.3543 100.846 75.3763 100.809C75.4204 100.721 75.3763 100.647 75.2734 100.595C75.2955 99.8896 75.1999 99.1837 75.3469 98.4851C75.6703 97.0145 75.9128 95.5365 75.81 94.0217C75.7659 93.4041 76.1407 92.5585 74.9942 92.5658C74.9942 92.1908 74.9942 91.8085 74.9868 91.4335C75.2734 90.9629 75.2734 90.4408 75.2661 89.9187C75.2661 89.301 75.2146 88.6687 75.3175 88.073C75.6336 86.2568 75.7732 84.4111 75.7879 82.5802C75.8026 80.5581 76.2656 78.6536 76.6992 76.7124C76.7948 76.2859 77.0153 76.0359 77.4415 75.9771C77.5077 77.3006 77.5738 78.6316 77.6473 80.0801C78.3749 79.6022 78.9629 79.2198 79.5508 78.8375C79.7934 79.5875 79.8669 80.3669 79.8669 81.1537C79.9036 81.8743 79.4332 82.0214 78.8526 82.0361C77.809 82.4699 77.3386 83.1905 77.4856 84.3671C77.5885 85.2053 77.5003 86.0656 77.5444 86.9186C77.5812 87.6539 77.3901 88.426 77.8164 89.1172C77.8164 92.2202 77.8311 95.3159 77.8384 98.419C77.8384 101.11 77.8384 103.801 77.8458 106.493C77.8458 106.728 77.8458 106.978 77.8972 107.206C78.4337 109.28 78.3749 111.397 78.3382 113.515L78.3161 113.508Z" fill="#B17C7E"/>
<path d="M77.4197 75.9844C76.9861 76.0433 76.773 76.2933 76.6774 76.7197C76.2511 78.6536 75.7808 80.5654 75.7661 82.5876C75.7514 84.4112 75.6044 86.2568 75.2957 88.0804C75.1928 88.6834 75.2443 89.3084 75.2443 89.9261C75.2443 90.4555 75.2443 90.9702 74.965 91.4408C74.2594 91.3158 73.8185 91.6173 73.6053 92.2791C73.5392 92.0511 73.4069 91.8232 73.4142 91.6026C73.5392 89.301 73.0688 87.0363 73.0247 84.7494C72.988 82.6832 73.2011 80.6022 73.3114 78.536C73.6935 77.4918 74.377 76.5947 74.7078 75.5138C74.9356 74.7417 75.2737 74.6976 75.8102 75.3153C76.0527 75.602 76.2144 75.6535 76.479 75.4403C76.7068 75.2638 76.942 75.1241 77.236 75.1168C77.5814 75.3374 77.5005 75.6609 77.4344 75.9771L77.4197 75.9844Z" fill="#968489"/>
<path d="M80.0947 77.7126C80.1094 76.4846 80.1462 75.286 80.8738 74.1904C81.2486 73.6242 81.0428 72.808 81.4691 72.2124C81.8072 72.2565 82.1305 72.3227 82.2922 72.6683C82.6524 73.411 82.2702 75.8302 81.6014 76.3522C81.0649 76.7787 80.984 77.7052 80.0947 77.7126Z" fill="#866A45"/>
<path d="M109.302 35.3141C108.853 36.4979 108.14 37.5126 107.398 38.52C106.972 39.1083 106.377 39.6304 106.443 40.4686C106.068 40.4686 105.877 40.6672 105.869 41.0422C105.671 41.4245 105.473 41.7995 105.274 42.1819C105.039 42.2113 104.76 42.2407 104.657 42.4613C104.179 43.5055 103.496 44.4687 103.297 45.6305C102.9 46.1012 102.746 46.7556 102.151 47.0644C101.063 47.2924 100.784 48.0939 100.717 49.0572C100.416 49.9322 99.718 50.5499 99.2549 51.322C98.7625 52.1382 98.3069 52.9911 97.9761 53.8514C97.5278 55.028 96.9766 56.0941 96.1535 57.0353C95.323 57.9839 95.1025 59.1751 95.029 60.3443C94.9629 61.4767 94.5439 62.4694 94.2132 63.4988C94.0662 63.9547 92.8315 64.8003 92.3758 64.7856C91.8099 64.7636 91.8614 64.3371 91.8467 63.9547C92.1627 62.8959 92.3023 61.8223 91.9569 60.7414C91.8467 60.3884 91.9275 60.1016 92.0745 59.7854C92.8242 58.153 93.6032 56.528 94.4851 54.9544C95.2862 53.5279 96.0653 52.1529 96.2417 50.4028C96.3666 49.1675 97.175 47.9836 98.4318 47.2924C99.3578 46.7777 100.115 45.9982 100.651 45.1232C101.621 43.5569 102.988 42.2555 103.606 40.4613C103.694 40.2113 103.922 39.9833 104.12 39.7921C105.649 38.3656 107.038 36.7994 108.346 35.1817C108.875 34.5273 109.008 35.1523 109.309 35.3067L109.302 35.3141Z" fill="#866A45"/>
<path d="M100.717 49.0572C100.783 48.0939 101.063 47.285 102.15 47.0645C102.055 47.4468 101.959 47.8218 101.856 48.2042C101.474 48.491 101.092 48.7778 100.71 49.0572H100.717Z" fill="#77693C"/>
<path d="M78.7571 83.1464C78.6763 83.0067 78.6983 82.8817 78.8233 82.7861C78.9261 82.9332 78.8821 83.0508 78.7571 83.1464Z" fill="#B17C7E"/>
<path d="M25.9952 55.072C26.7007 54.9397 27.1197 55.5059 27.6562 55.7632C29.3833 56.5941 30.8899 57.7118 32.1982 59.1163C33.0066 59.9839 33.9253 60.756 34.697 61.6531C35.5789 62.6826 36.4535 63.7414 36.8871 65.0797C36.1448 64.9914 35.6598 65.5209 35.1306 65.8812C34.697 66.1827 34.3883 66.2268 34.0355 65.8297C33.7121 65.4694 33.2932 65.2267 32.8302 65.1238C32.2202 64.9841 31.8601 64.5429 31.4999 64.1164C30.6474 63.1164 29.839 62.0722 29.0305 61.0354C28.9203 60.8957 28.9203 60.6825 28.8688 60.506C28.6631 58.8221 27.5165 57.7412 26.37 56.6824C25.5983 55.9691 25.5616 56.0059 26.0025 55.0647L25.9952 55.072Z" fill="#866A45"/>
<path d="M16.3306 50.9321C16.2571 50.9689 16.1836 51.0351 16.1101 51.0351C16.0366 51.0351 15.9704 50.9542 15.9043 50.9101C15.9778 50.8733 16.0513 50.8071 16.1248 50.8071C16.1983 50.8071 16.2644 50.888 16.3306 50.9321Z" fill="#726A3F"/>
<path d="M15.8896 50.0939C15.8896 50.0939 15.9117 49.991 15.9264 49.991C15.9705 49.991 16.0072 50.013 16.0513 50.0277C16.0366 50.0645 16.0293 50.1306 16.0146 50.1306C15.9705 50.1306 15.9337 50.1086 15.8896 50.0939Z" fill="#726A3F"/>
<path d="M103.297 45.6232C103.496 44.4614 104.179 43.4981 104.657 42.454C104.76 42.2334 105.039 42.204 105.274 42.1746C105.149 42.8437 104.885 43.4761 105.23 44.1893C105.414 44.5717 105.083 44.8732 104.731 45.057C104.238 45.0202 103.797 45.1011 103.584 45.6232C103.488 45.6232 103.393 45.6232 103.305 45.6232H103.297Z" fill="#77693C"/>
<path d="M97.998 61.1973C97.8216 60.8149 97.7701 60.4619 97.8142 60.0281C97.9686 60.131 98.1156 60.1752 98.1744 60.2781C98.4316 60.7046 99.1592 60.2854 99.1151 60.5207C99.0342 60.9913 98.461 61.0796 97.998 61.1899V61.1973Z" fill="#6D6239"/>
<path d="M103.577 45.6232C103.797 45.1011 104.231 45.0202 104.723 45.057C104.645 45.5913 104.263 45.7801 103.577 45.6232Z" fill="#6D6239"/>
<path d="M100.879 54.7706C100.828 54.8294 100.776 54.9324 100.717 54.9324C100.556 54.9397 100.475 54.8294 100.512 54.6823C100.526 54.6309 100.659 54.5794 100.725 54.5941C100.784 54.6088 100.82 54.7118 100.872 54.7706H100.879Z" fill="#726A3F"/>
<path d="M105.87 41.0423C105.87 40.6673 106.068 40.4761 106.443 40.4688C106.443 40.8438 106.244 41.0349 105.87 41.0423Z" fill="#70663C"/>
<path d="M91.9935 69.6902C91.942 69.7491 91.8906 69.8446 91.8318 69.852C91.6701 69.8667 91.5966 69.7491 91.6481 69.6094C91.6628 69.5579 91.795 69.4991 91.8538 69.5138C91.9053 69.5211 91.942 69.6314 91.9935 69.6902Z" fill="#866A45"/>
<path d="M91.1704 70.4182C91.1851 70.455 91.2218 70.4991 91.2145 70.5358C91.1777 70.6608 91.1116 70.6756 91.0455 70.5726C91.0308 70.5432 91.0455 70.4844 91.0675 70.4476C91.0822 70.4255 91.1336 70.4329 91.1704 70.4256V70.4182Z" fill="#866A45"/>
<path d="M60.3099 135.869C60.3246 136.266 60.4422 136.626 60.648 136.965C60.648 137.251 60.6406 137.545 60.6333 137.832C60.2732 137.751 59.913 137.634 59.5456 137.597C59.2957 137.575 59.1046 137.759 59.0238 137.994C58.9282 138.266 59.0899 138.531 59.3177 138.531C59.8763 138.531 59.9424 139.045 60.2364 139.31C60.6921 139.715 61.0743 140.2 61.7872 140.141C62.1399 140.112 62.5662 140.288 62.5368 140.626C62.4707 141.509 63.0145 142.068 63.4187 142.729C63.551 142.943 63.4775 143.281 63.4996 143.56C62.941 144.369 62.9631 144.332 62.1179 143.796C61.1183 143.163 60.0968 142.531 58.818 142.7C58.3329 142.759 57.8552 142.678 57.4583 142.399C55.7091 141.149 53.5557 140.685 51.7845 139.509C50.5939 138.715 49.2122 138.251 48.3082 136.943C47.7055 136.075 46.6031 135.435 45.3537 135.553C44.6702 135.619 44.0455 135.376 43.3987 135.259C42.7667 135.141 42.3845 134.781 42.311 134.126C42.6712 134.214 43.0313 134.339 43.3987 134.391C44.5306 134.538 44.9201 134.214 45.1773 132.979C45.6991 132.986 46.2136 132.935 46.7207 133.156C47.1249 133.332 47.8231 133.42 47.9407 133.192C48.5581 132.031 49.2783 132.92 49.9251 133.016C50.6527 133.126 51.3215 133.626 52.1079 133.347C52.6811 134.075 53.7174 134.045 54.3348 134.759C54.8639 135.369 55.518 135.913 56.3485 136.134C56.5029 136.487 56.7601 136.692 57.157 136.67C57.4583 136.891 57.767 137.112 58.1712 137.413C58.4652 136.928 58.5681 136.465 58.4358 135.884C58.3623 135.567 58.6563 135.295 58.9576 135.516C59.3839 135.825 59.8395 135.832 60.3026 135.884L60.3099 135.869Z" fill="#77693C"/>
<path d="M45.1775 132.972C44.9276 134.207 44.5381 134.53 43.3989 134.383C43.0314 134.339 42.6713 134.207 42.3112 134.119C41.4954 134.163 40.7237 133.979 39.93 133.78C38.6144 133.45 37.2768 133.207 35.9392 132.972C35.5276 132.898 35.2998 132.795 35.1234 132.361C34.8515 131.699 33.874 131.288 33.3816 131.67C32.235 132.552 31.0738 132.207 29.8832 131.92C29.4202 131.81 28.9719 131.663 28.5088 131.582C28.0385 131.501 27.4579 131.361 27.1125 131.626C26.304 132.258 25.4956 132.067 24.6945 131.788C23.0409 131.214 21.3211 130.869 19.638 130.391C19.3073 130.295 19.153 130.133 19.1162 129.817C19.3808 129.736 20.0202 129.92 19.7703 129.42C19.3514 128.56 19.6895 128.633 20.2921 128.832C20.6523 128.949 21.0124 129.074 21.3578 129.229C22.7469 129.824 24.2902 130.067 25.4809 131.104C25.6573 131.258 25.9365 131.295 26.1203 131.067C26.2967 130.847 26.2158 130.633 26.0174 130.449C25.8043 130.244 25.3706 130.148 25.6646 129.604C26.5024 129.949 27.4064 129.81 28.2957 129.81C28.5089 129.81 28.6852 129.714 28.6999 129.501C28.7073 129.383 28.6117 129.207 28.5088 129.141C28.2296 128.964 27.8989 128.869 27.6269 128.692C27.061 128.324 26.2305 128.346 25.9733 127.538C27.1566 127.891 28.3398 128.089 29.5892 128.163C30.7945 128.229 32.0146 128.619 33.1537 129.045C34.021 129.369 34.4693 129.133 34.8515 128.413C34.9176 128.295 35.0426 128.207 35.1381 128.104C37.1078 129.229 39.0774 130.361 41.0471 131.494C41.2896 131.633 41.5395 131.788 41.7306 131.994C42.5537 132.876 43.4945 133.244 44.6704 132.795C44.8762 132.714 45.0305 132.817 45.1554 132.979L45.1775 132.972Z" fill="#866A45"/>
<path d="M25.9879 127.538C26.2452 128.346 27.0757 128.324 27.6416 128.692C27.9209 128.868 28.2442 128.971 28.5235 129.141C28.6264 129.207 28.722 129.383 28.7146 129.501C28.6999 129.714 28.5162 129.81 28.3104 129.81C27.4211 129.81 26.5171 129.949 25.6793 129.604C25.3853 130.155 25.8189 130.251 26.032 130.449C26.2305 130.633 26.3113 130.846 26.1349 131.067C25.9512 131.295 25.6719 131.266 25.4955 131.104C24.3049 130.067 22.7542 129.824 21.3725 129.229C21.027 129.082 20.6669 128.949 20.3068 128.832C19.7042 128.633 19.3661 128.56 19.785 129.42C20.0275 129.92 19.3955 129.736 19.1309 129.817C18.8443 129.817 18.5576 129.817 18.2783 129.81C18.1093 129.457 17.8594 129.089 17.5067 129.023C16.3087 128.81 15.559 127.81 14.4493 127.427C13.4865 127.096 13.3909 126.17 14.1994 125.508C14.3978 125.346 14.5228 125.192 14.5595 124.942C15.4855 125.287 16.4557 125.236 17.4184 125.221C18.5503 125.56 19.7923 125.464 20.8727 126.06C21.0124 126.14 21.2402 126.074 21.4239 126.082C21.5195 126.082 21.615 126.082 21.7105 126.082C21.8061 126.846 22.4088 126.604 22.8571 126.648C23.864 127.082 24.9664 127.185 26.0027 127.508L25.9879 127.538Z" fill="#966E52"/>
<path d="M14.5373 124.957C14.5079 125.199 14.3756 125.354 14.1772 125.523C13.3688 126.185 13.4643 127.111 14.4271 127.442C15.5295 127.825 16.2865 128.825 17.4845 129.038C17.8373 129.104 18.0945 129.472 18.2562 129.825C17.58 130.214 16.8965 129.817 16.2351 129.788C13.9641 129.692 11.818 128.979 9.66464 128.288C8.46667 127.905 7.26871 127.361 5.9458 127.538C5.99725 127.016 6.19568 126.538 6.26182 126.016C6.36472 125.214 6.86448 124.92 7.68027 125.126C8.20208 125.258 8.71656 125.236 9.23838 125.236C9.53236 125.236 9.84838 125.207 9.87778 124.832C9.90718 124.457 9.5397 124.457 9.30452 124.317C8.76066 124.008 8.0992 124.192 7.2981 123.898C8.09185 123.369 8.7239 123.457 9.31921 123.655C10.6789 124.104 12.0385 124.501 13.4937 124.383C13.9567 124.347 14.3316 124.508 14.5373 124.957Z" fill="#866A45"/>
<path d="M51.0866 140.641C50.8955 140.641 50.7412 140.582 50.6383 140.413C50.6309 140.317 50.6236 140.222 50.6162 140.126H50.6089C50.9543 140.126 51.2556 140.163 51.0866 140.641Z" fill="#968489"/>
<path d="M56.0472 143.273C55.9516 143.178 55.8634 143.09 55.7679 142.994C55.7459 142.84 55.5474 142.634 55.7532 142.553C55.959 142.465 56.0251 142.7 56.0398 142.876C56.0545 143.009 56.0398 143.141 56.0472 143.273Z" fill="#866A45"/>
<path d="M52.6372 141.281C52.3727 141.178 52.3433 140.957 52.3433 140.715C52.5784 140.832 52.6225 141.046 52.6372 141.281Z" fill="#966E52"/>
<path d="M50.6161 140.126C50.572 140.104 50.4985 140.075 50.4985 140.067C50.5206 139.972 50.5647 140.001 50.6088 140.141L50.6161 140.134V140.126Z" fill="#968489"/>
<path d="M69.6143 137.663C69.3644 137.516 69.2615 137.361 69.3277 137.17C69.4085 136.942 69.5776 136.766 69.8495 136.825C70.0038 136.861 70.0112 137.038 69.9598 137.17C69.8789 137.369 69.8201 137.597 69.6143 137.663Z" fill="#966E52"/>
<path d="M71.2091 131.869C71.6868 132.067 71.5251 132.413 71.4002 132.744C71.1871 132.92 70.9886 132.957 70.9519 132.611C70.9151 132.332 71.0254 132.082 71.2091 131.869Z" fill="#8D9398"/>
<path d="M69.791 136.119C69.8278 136.141 69.9086 136.17 69.9013 136.185C69.8792 136.281 69.8351 136.259 69.791 136.119Z" fill="#966E52"/>
<path d="M57.1644 136.663C56.7602 136.685 56.5103 136.472 56.356 136.126C56.4442 136.134 56.5323 136.126 56.6205 136.126C56.7161 136.126 56.819 136.126 56.9145 136.126C57.1277 136.251 57.1791 136.45 57.1644 136.678V136.663Z" fill="#968489"/>
<path d="M56.7674 135.281C56.8408 135.325 56.9143 135.361 56.9878 135.406C56.9143 135.45 56.8408 135.523 56.7674 135.523C56.6939 135.523 56.6204 135.45 56.5469 135.406C56.6204 135.361 56.6939 135.325 56.7674 135.281Z" fill="#77693C"/>
<path d="M51.2994 132.604C51.2994 132.604 51.4023 132.626 51.4023 132.641C51.4023 132.678 51.3803 132.722 51.3656 132.766C51.3288 132.751 51.2627 132.744 51.2627 132.729C51.2627 132.692 51.2847 132.648 51.2994 132.604Z" fill="#77693C"/>
<path d="M30.6182 120.692C30.6696 120.692 30.7284 120.692 30.7725 120.714C30.6917 120.89 30.6549 120.78 30.6182 120.692Z" fill="#866A45"/>
<path d="M56.9146 136.112C56.8191 136.112 56.7161 136.112 56.6206 136.112C56.7161 135.913 56.8117 135.906 56.9146 136.112Z" fill="#77693C"/>
<path d="M30.5081 120.449C30.5302 120.501 30.5375 120.552 30.5302 120.611C30.4934 120.567 30.4567 120.53 30.4199 120.486C30.4493 120.471 30.4787 120.464 30.5081 120.449Z" fill="#866A45"/>
<path d="M66.1821 147.369C66.2189 147.288 66.2336 147.163 66.2924 147.141C66.3512 147.119 66.4467 147.2 66.5276 147.237C66.4908 147.318 66.4761 147.443 66.4173 147.465C66.3585 147.487 66.263 147.406 66.1821 147.369Z" fill="#726A3F"/>
<path d="M74.9575 134.119C74.906 132.472 75.0236 130.839 75.494 129.251C75.81 129.185 76.126 129.126 76.4347 129.067C76.7948 129.442 76.1554 129.92 76.589 130.244C76.9565 130.523 77.4048 130.361 77.8164 130.398C77.3901 131.597 77.3093 131.655 76.1922 131.67C75.6924 131.67 75.3323 132.104 75.6336 132.486C76.1775 133.178 75.8614 133.788 75.7071 134.45C75.4352 134.391 75.2735 134.075 74.9575 134.126V134.119Z" fill="#866A45"/>
<path d="M76.6771 122.089C77.2798 122.618 77.1989 123.42 77.074 123.979C76.8388 125.06 76.9711 126.177 76.6624 127.236C76.2802 127.332 75.9054 127.427 75.5232 127.523C75.3615 126.457 75.9348 125.442 75.7511 124.376C75.8319 123.302 75.8834 122.221 76.3611 121.221C77.1622 121.42 77.2504 121.552 76.927 122.082C76.8535 121.927 76.7653 121.787 76.5595 121.898C76.5963 121.964 76.633 122.023 76.6698 122.089H76.6771Z" fill="#866A45"/>
<path d="M76.5743 135.001C76.2656 134.391 76.3097 134.053 76.5522 133.582C76.8168 134.038 76.7653 134.384 76.5743 135.001Z" fill="#DEC2AE"/>
<path d="M76.6701 128.104C76.6701 128.199 76.6701 128.295 76.6701 128.391C76.604 128.42 76.5378 128.449 76.4717 128.479C76.3835 128.273 76.5158 128.185 76.6701 128.104Z" fill="#866A45"/>
<path d="M77.8091 130.391C77.8311 130.354 77.8605 130.273 77.8752 130.28C77.9708 130.303 77.9487 130.347 77.8091 130.398V130.391Z" fill="#866A45"/>
<path d="M21.4094 126.096C21.2256 126.096 20.9978 126.155 20.8582 126.074C19.7778 125.471 18.5431 125.574 17.4039 125.236C16.713 124.618 15.8679 124.317 15.0227 124.008C14.8389 123.942 14.6772 123.788 14.6772 123.589C14.6772 123.28 14.9418 123.229 15.1844 123.236C16.2059 123.258 17.2128 123.052 18.0874 123.986C18.6827 124.618 19.7263 124.64 20.5495 124.979C21.0786 125.192 21.4976 125.442 21.402 126.096H21.4094Z" fill="#866A45"/>
<path d="M4.42445 123.06C4.32156 123.64 3.79975 123.545 3.57927 123.868C3.38083 124.155 3.07216 123.934 2.82963 123.802C2.59444 123.67 2.49889 123.457 2.60913 123.214C2.68997 123.03 2.90311 122.92 3.07215 123.015C3.49842 123.251 3.95408 123.067 4.4171 123.067L4.42445 123.06Z" fill="#866A45"/>
<path d="M22.8423 126.67C22.394 126.619 21.7913 126.861 21.6958 126.104C22.1515 126.155 22.7468 125.898 22.8423 126.67Z" fill="#866A45"/>
<path d="M4.4101 124.295C4.4101 124.295 4.45419 124.368 4.44684 124.391C4.41744 124.493 4.35866 124.508 4.29986 124.42C4.28516 124.398 4.29986 124.339 4.32191 124.317C4.33661 124.295 4.3807 124.302 4.4101 124.295Z" fill="#866A45"/>
<path d="M42.8626 88.9187C42.892 88.4407 42.892 88.154 42.9288 87.8672C42.9655 87.5951 43.186 87.4039 43.4285 87.5069C44.5971 87.9848 45.6554 87.4333 46.7505 87.2275C46.9783 87.1833 47.2502 87.1025 47.3237 87.426C47.3899 87.7054 47.1694 87.8893 46.9342 87.9334C46.4932 88.0143 46.1037 87.9995 46.4712 88.6466C46.5888 88.8599 46.1919 89.1025 46.0082 89.3084C45.6995 89.6614 45.3467 89.9555 45.1483 90.4188C44.7882 91.2423 44.7294 91.2056 43.943 90.6614C43.2448 90.1835 42.6127 89.7055 42.8479 88.9114L42.8626 88.9187Z" fill="#DBBAA0"/>
<path d="M31.0957 33.2183C31.059 33.6962 30.5224 34.1668 30.1182 34.0492C29.8095 33.9609 29.4274 33.8212 29.4788 33.4021C29.5523 32.7844 30.0374 32.7183 30.5445 32.7403C30.8605 32.755 31.0957 32.858 31.0957 33.2109V33.2183Z" fill="#DBBAA0"/>
<path d="M13.2291 41.1598C12.3765 41.7774 11.5901 41.0936 10.8037 41.2333C10.6567 41.2627 10.5392 40.9906 10.6053 40.7847C10.6494 40.645 10.7597 40.4759 10.8919 40.5347C11.6269 40.8435 12.597 40.1891 13.2291 41.1598Z" fill="#866A45"/>
<path d="M14.8168 43.3364C14.6918 43.2702 14.5448 43.0791 14.6183 43.0423C14.9417 42.8952 14.758 43.2261 14.8388 43.3144L14.8241 43.329L14.8168 43.3364Z" fill="#866A45"/>
<path d="M18.7632 46.182C18.7632 46.182 18.7338 46.2482 18.7191 46.2776C18.6824 46.2334 18.6456 46.1893 18.6089 46.1379C18.6383 46.1231 18.675 46.0864 18.6971 46.0937C18.7265 46.1011 18.7412 46.1526 18.7632 46.182Z" fill="#866A45"/>
<path d="M76.3687 121.229C75.891 122.229 75.8395 123.31 75.7587 124.383C75.1413 124.28 75.1781 123.795 75.2736 123.39C75.5382 122.229 75.3545 121.214 74.5314 120.309C74.2521 120.001 74.0977 119.581 74.0904 119.133C74.083 118.765 73.8625 118.523 73.5539 118.361C73.5171 118.287 73.5024 118.206 73.5171 118.126C73.5171 118.008 73.5171 117.89 73.5171 117.773L73.5098 117.78C74.2447 118.001 74.7371 116.978 75.5015 117.501C75.5676 116.883 75.5235 116.383 75.3324 115.875C75.1781 115.471 75.4206 115.258 75.8175 115.206C76.038 116.39 76.4937 117.501 76.9493 118.604C76.9861 118.824 77.0228 119.045 77.0669 119.265C76.6406 119.412 76.7362 119.773 76.7288 120.096C76.2732 120.368 76.4569 120.839 76.3834 121.229H76.3687ZM75.45 118.412C75.4353 118.368 75.4353 118.324 75.4059 118.295C75.3986 118.28 75.3398 118.309 75.303 118.324C75.3177 118.368 75.3177 118.412 75.3471 118.449C75.3545 118.464 75.4133 118.434 75.45 118.42V118.412Z" fill="#968489"/>
<path d="M61.0303 139.06C61.067 138.979 61.0817 138.854 61.1405 138.832C61.1993 138.81 61.339 138.869 61.361 138.928C61.3831 138.987 61.3243 139.126 61.2655 139.148C61.2067 139.17 61.1111 139.089 61.0303 139.06Z" fill="#77693C"/>
<path d="M60.6333 137.839C60.7215 137.839 60.8097 137.832 60.8979 137.839C61.0228 137.862 61.1404 137.913 61.258 137.95C61.1404 138.17 60.9714 138.097 60.817 138.023C60.7435 137.987 60.6921 137.898 60.6333 137.839Z" fill="#77693C"/>
<path d="M76.714 120.096C76.714 119.78 76.6185 119.412 77.0521 119.265C77.3755 119.721 77.2579 119.993 76.714 120.096Z" fill="#726A3F"/>
<path d="M76.6771 122.089C76.6404 122.023 76.6036 121.964 76.5669 121.898C76.7727 121.787 76.8535 121.927 76.9344 122.082C76.8462 122.082 76.7653 122.082 76.6771 122.082V122.089Z" fill="#726A3F"/>
<path d="M75.8027 115.206C75.4058 115.258 75.1633 115.471 75.3176 115.876C75.5087 116.376 75.5602 116.876 75.4867 117.501C74.7223 116.979 74.2226 118.001 73.495 117.78C73.3186 116.589 73.8551 115.501 74.0682 114.383C74.4063 112.625 74.5165 110.956 73.8992 109.265C73.833 109.096 73.8698 108.89 73.8551 108.699C73.6052 105.684 73.5023 102.662 73.5097 99.6323C73.5097 97.1837 73.4729 94.7278 73.5979 92.2792C73.811 91.61 74.252 91.3086 74.9575 91.4409C74.9575 91.8159 74.9575 92.1983 74.9649 92.5733C75.0163 93.1836 75.2368 93.6983 75.7807 94.0292C75.8762 95.544 75.641 97.022 75.3176 98.4926C75.1633 99.1912 75.2589 99.9044 75.2368 100.603C75.2368 100.699 75.2368 100.802 75.2368 100.897C75.2368 101.375 75.2368 101.853 75.2368 102.331C74.4284 103.669 74.5754 105 75.2368 106.338C75.2368 107.383 75.2368 108.434 75.2368 109.478C75.2368 109.794 75.178 110.133 75.5087 110.346C75.5528 110.765 75.4205 111.14 75.2368 111.5C75.2001 111.522 75.1413 111.537 75.1266 111.574C75.0751 111.662 75.1266 111.736 75.2368 111.765C75.2368 112.412 75.2368 113.052 75.2294 113.699C75.2294 114.081 75.4058 114.302 75.7807 114.361C75.7807 114.64 75.7807 114.92 75.7807 115.206H75.8027Z" fill="#8D9398"/>
<path d="M73.5024 117.773C73.5024 117.89 73.5024 118.008 73.5024 118.126C73.2745 118.008 73.2451 117.89 73.5024 117.773Z" fill="#8D9398"/>
<path d="M75.244 106.339C74.5825 105 74.4355 103.669 75.244 102.331C75.6923 103.669 75.6923 105 75.244 106.339Z" fill="#968489"/>
<path d="M75.7956 114.368C75.4134 114.309 75.237 114.089 75.2444 113.706C75.2444 113.059 75.2443 112.42 75.2517 111.772C75.6339 111.824 75.8103 112.052 75.8029 112.434C75.8029 113.081 75.8029 113.728 75.7956 114.368Z" fill="#968489"/>
<path d="M75.788 94.0292C75.2441 93.6983 75.0163 93.1836 74.9722 92.5732C76.1187 92.5732 75.7439 93.4188 75.788 94.0292Z" fill="#968489"/>
<path d="M75.5162 110.346C75.1781 110.133 75.2369 109.802 75.2443 109.478C75.575 109.692 75.5162 110.03 75.5162 110.346Z" fill="#968489"/>
<path d="M75.2443 111.765C75.1267 111.736 75.0826 111.67 75.134 111.574C75.1561 111.537 75.2075 111.523 75.2443 111.5C75.2443 111.589 75.2443 111.677 75.2443 111.765Z" fill="#968489"/>
<path d="M75.2442 100.897C75.2442 100.802 75.2442 100.699 75.2442 100.603C75.3544 100.647 75.3985 100.721 75.3471 100.816C75.325 100.853 75.2736 100.875 75.2368 100.905L75.2442 100.897Z" fill="#968489"/>
<path d="M75.4497 118.412C75.4497 118.412 75.3542 118.449 75.3468 118.442C75.3248 118.412 75.3174 118.361 75.3027 118.317C75.3395 118.309 75.3983 118.28 75.4056 118.287C75.4277 118.317 75.435 118.368 75.4497 118.405V118.412Z" fill="#8D9398"/>
</svg>
