<svg width="166" height="152" viewBox="0 0 166 152" fill="none" xmlns="http://www.w3.org/2000/svg">
<path d="M110.165 42.3311C111.105 42.2282 112.039 42.1326 112.98 42.0296C113.399 42.2429 113.832 42.2502 114.266 42.0884C118.639 42.9414 120.314 46.8019 117.926 50.6476C117.338 51.5888 116.515 52.3829 115.794 53.2432C114.457 53.0667 113.34 53.5153 112.355 54.3977H107.24C108.68 58.3978 109.033 62.1553 108.327 65.9863C107.739 66.4275 107.828 67.1702 107.526 67.7511C106.365 69.9717 105.373 70.457 102.786 70.0085C102.418 69.9423 102.036 69.9497 101.661 69.9276C100.61 69.6114 100.28 68.6408 99.8755 67.8172C98.0675 64.1553 97.5898 60.192 97.2664 56.1919C96.627 55.0227 95.995 55.5301 95.3555 56.1919C94.4883 57.1772 93.2536 56.2874 92.2908 56.7948C91.4603 56.7139 90.6445 56.7139 89.9316 57.2654C88.719 57.1331 87.4402 57.5154 86.3083 56.7066C81.9574 53.5888 81.5459 46.8092 86.7052 44.0371C87.205 43.765 87.6974 43.4708 88.2265 43.2649C89.4833 42.7723 89.8067 42.0296 89.0717 40.8237C88.7851 40.3457 88.6675 39.7575 88.5132 39.206C87.7709 36.5147 87.205 33.8382 88.2559 31.066C89.1893 28.5954 90.4902 27.8601 93.0772 28.3601C95.4584 28.8233 97.3105 29.9851 98.5746 32.0513C98.9347 32.6396 99.214 33.2573 100.008 33.0514C100.449 32.0514 100.853 31.0954 101.294 30.1469C102.132 28.3674 103.278 26.9335 105.16 26.1026C108.269 24.7276 110.055 25.6394 110.246 29.0072C110.473 33.0808 110.437 37.1544 108.945 41.0516C108.776 41.2796 108.607 41.5076 108.438 41.7355H108.43C107.806 41.8237 107.475 42.3164 107.578 42.809C107.673 43.2576 108.129 42.9341 108.416 42.809C108.827 42.6914 109.239 42.5811 109.658 42.4635C109.878 42.6326 110.025 42.5223 110.15 42.3384L110.165 42.3311ZM100.64 44.6179C99.3243 44.6253 98.1483 45.8459 98.1557 47.2063C98.1557 48.3019 99.0303 49.199 100.103 49.221C101.544 49.2505 102.595 48.2357 102.661 46.7503C102.72 45.3091 102.066 44.6106 100.647 44.6179H100.64Z" fill="#B56A4E"/>
<path d="M154.357 47.2062C155.063 51.3755 154.614 55.3168 151.991 58.8169C151.439 59.5448 150.873 60.2728 150.719 61.2875C151.638 61.4861 152.314 61.214 153.056 60.9934C156.07 60.0816 159.105 59.1184 162.317 59.7949C165.83 60.5302 166.873 63.8097 164.529 66.5377C162.339 69.0819 159.443 70.3467 156.283 71.1482C155.276 71.1408 154.269 71.104 153.262 71.1335C152.946 71.1408 152.439 71.2217 152.777 71.7658C152.902 71.9717 153.203 72.0746 153.416 72.2217C155.68 73.7218 156.437 75.9351 156.422 78.5234C156.408 80.8985 155.864 81.5309 153.394 82.0897C152.24 82.0971 151.079 82.1044 149.925 82.1191C149.8 82.0235 149.668 81.9794 149.514 81.9794C149.19 81.5088 148.669 81.3985 148.176 81.2294C147.213 80.1779 146.126 79.2587 145.295 78.0749C144.288 76.641 143.774 76.7366 142.914 78.2734C142.576 78.8764 142.429 79.5087 142.429 80.1852C141.415 80.7514 140.937 82.0897 139.563 82.1191C138.592 82.1412 137.615 82.1559 136.645 82.178C134.609 81.1779 133.499 79.3764 133.036 77.3175C132.331 74.2071 134.55 72.0379 136.241 69.5305C132.125 68.6849 129.325 66.4495 127.465 63.0082C127.495 61.5302 127.517 60.0522 127.546 58.5742C129.244 56.3094 131.192 54.5373 134.33 55.052C134.638 55.4344 135.065 55.5447 135.528 55.5447C137.821 56.8168 140.077 58.1404 142.172 59.8905C142.598 58.736 142.399 57.7874 142.451 56.8536C142.561 54.5594 142.943 52.2873 143.796 50.1842C144.729 47.8827 145.979 45.8238 148.904 45.3826C150.925 45.0811 152.395 45.8973 153.916 46.8973C154.07 47.0003 154.335 47.0885 154.357 47.2135V47.2062ZM145.111 70.4423C146.06 70.3981 147.551 68.8245 147.522 67.9054C147.485 66.9642 145.949 65.4788 145.001 65.4715C143.766 65.4641 142.48 66.648 142.517 67.773C142.554 68.9054 144.097 70.4864 145.119 70.4423H145.111Z" fill="#B56A4E"/>
<path d="M107.592 87.5752C108.07 87.6193 108.276 87.156 108.335 86.6928C108.982 85.7516 109.547 84.7368 110.282 83.8692C112.179 81.6265 113.634 78.9205 116.404 77.5601C117.58 76.9866 119.094 76.2218 120.087 77.4572C120.998 78.5969 121.799 79.8176 121.285 81.7882C120.204 85.9648 117.492 88.8841 114.802 91.9209C114.574 92.068 114.266 92.1636 114.141 92.3695C113.825 92.8842 114.244 93.0386 114.626 93.0386C116.801 93.0239 118.984 92.9797 121.16 92.943C123.445 93.4651 125.804 93.7518 127.943 94.796C130.001 95.8034 130.839 97.399 130.207 99.3844C129.714 100.936 126.62 103.693 124.82 103.892C121.373 104.274 118.286 103.436 115.376 101.686C114.009 100.642 113.994 100.642 113.744 101.715C113.685 102.759 113.59 103.811 113.568 104.855C113.501 108.127 112.046 110.826 109.885 113.113C107.321 115.826 103.771 114.738 102.624 111.238C101.654 108.289 102.705 105.627 103.175 102.855C103.491 102.318 104.138 101.811 103.337 101.164C102.992 101.186 102.749 101.34 102.654 101.686V101.671C101.992 101.649 101.375 101.833 100.765 102.083C98.435 103.046 95.9582 103.392 93.4962 103.796C92.0704 104.002 90.674 104.017 89.2776 103.539C87.058 102.774 86.5509 101.193 88.0943 99.4506C89.0497 98.3697 90.2991 97.6637 91.6073 97.0387C94.0106 95.8916 96.458 94.8842 99.0965 93.9724C95.7524 90.6488 91.6808 87.7002 94.0694 82.097L94.04 82.1338C96.1199 81.2588 98.1263 80.1117 100.537 80.6044C104.006 81.3103 106.034 83.6044 107.35 86.7001C107.269 87.0457 107.276 87.5384 107.6 87.5678L107.592 87.5752ZM108.46 97.6123C109.496 97.6123 110.54 96.7005 110.628 95.7151C110.767 94.0827 109.555 92.4871 108.158 92.4724C106.747 92.4577 106.174 93.0606 106.123 94.6048C106.071 96.3328 107.056 97.6049 108.452 97.6123H108.46Z" fill="#B56A4E"/>
<path d="M102.183 102.885C100.111 105.186 97.2297 106.223 94.6427 107.716C93.5329 108.355 92.3937 108.657 91.1443 108.664C90.4828 108.591 89.8361 108.591 89.3143 109.105C88.9615 109.142 88.6161 109.179 88.2633 109.216C85.3823 109.208 82.5013 109.194 79.6203 109.186C79.466 109.127 79.3043 109.098 79.1352 109.113C78.6208 108.583 77.974 108.576 77.3126 108.65C76.9671 108.605 76.6217 108.561 76.2763 108.517C75.7471 108.002 75.093 108.002 74.4242 108.083C73.9539 108.039 73.4761 108.017 73.0131 107.951C70.1468 107.561 68.0008 108.524 66.869 111.289C66.4133 112.4 65.5019 113.076 64.6421 113.811L64.5906 113.775C64.8772 112.473 65.1565 111.164 65.4652 109.863C65.5534 109.48 65.7004 109.076 65.3256 108.826C64.8772 108.532 64.4069 108.664 64.0174 109.017C63.4735 109.502 63.231 110.407 62.2535 110.282C62.2682 109.716 62.2682 109.024 61.4524 109.583C60.8497 109.995 60.7174 110.782 60.6072 111.495C60.1442 111.738 60.0927 112.186 60.0486 112.642C59.0858 113.076 58.836 113.878 58.9168 114.848C59.6959 115.944 60.7174 115.561 61.6876 115.245C62.4813 114.988 63.1648 114.407 64.0394 114.348L64.1423 114.451C64.2966 115.789 63.3118 116.701 62.9002 117.826C62.621 117.929 62.4005 118.084 62.3931 118.415C62.1947 118.937 62.3123 119.547 61.864 120.003C58.373 123.606 55.7345 127.841 52.9711 131.989C52.4934 132.709 52.3905 133.349 52.4713 134.114C51.7731 134.724 51.266 135.599 50.215 135.709C50.1342 133.18 51.1558 130.731 50.7956 128.18C50.8912 126.841 51.9789 126.032 52.5595 124.952C53.6546 122.907 56.0211 121.282 54.4336 118.466C55.6683 113.473 57.0574 108.569 62.5548 106.488C63.7822 106.024 64.7744 105.348 65.3109 104.171C66.4353 101.73 68.4785 99.9065 69.6912 97.5388C70.8524 95.2814 73.1528 94.0681 74.6447 92.0975C77.5404 88.2885 81.127 85.2002 85.103 82.5677C87.8076 80.7736 90.1374 78.5014 92.7906 76.6117C94.5545 75.3616 96.1199 73.7733 98.0455 72.6924C98.3835 72.7733 98.5673 72.5748 98.7216 72.3174C99.8755 71.7218 100.904 70.9718 101.654 69.8982C102.029 69.9203 102.411 69.9129 102.779 69.9791C105.366 70.435 106.358 69.9423 107.519 67.7217C107.82 67.1481 107.732 66.3981 108.32 65.9569C110.488 65.4054 112.311 64.1039 114.317 63.2068C116.03 62.4421 116.228 61.8171 115.728 60.0082C115.118 57.8243 113.626 56.1551 112.355 54.3609C113.332 53.4859 114.457 53.03 115.794 53.2065C118.168 54.8904 118.984 57.4125 119.462 60.1038C119.984 61.0597 120.586 60.67 121.189 60.1994C123.306 59.6405 125.43 59.089 127.546 58.5302C127.517 60.0082 127.495 61.4862 127.465 62.9642C126.238 63.398 124.959 63.7289 123.754 64.1701C120.028 65.5378 119.682 65.4348 119.322 68.5305C118.602 74.6263 115.743 77.3543 109.591 78.0088C108.254 78.1632 106.806 77.6117 105.593 78.6044C104.153 79.5235 102.543 78.9647 101.015 79.1117C99.8314 78.5676 98.6481 78.1191 97.4649 79.1117L97.4501 79.1265C97.0239 79.222 96.6197 79.3691 96.3477 79.7441C95.6348 80.5898 94.062 80.5824 94.04 82.0971L94.0694 82.0604C92.8567 81.9574 92.21 82.7883 91.4677 83.5457C89.792 85.259 87.8297 86.5826 85.8453 87.9356C83.3391 89.6415 81.1049 91.7813 79.0103 94.0093C77.4522 95.6711 76.2248 97.6344 74.4095 99.0756C72.5648 100.539 72.0356 102.855 70.1248 105.061C74.4683 104.804 77.9814 105.686 81.5459 106.201C84.8899 106.686 88.2413 106.164 91.4824 105.127C92.2688 104.877 93.2169 104.789 93.5035 103.76C95.9656 103.348 98.4423 103.002 100.772 102.039C101.382 101.789 101.999 101.605 102.668 101.627C102.514 102.032 102.352 102.436 102.198 102.84L102.183 102.885ZM101.955 75.7072C103.021 76.6264 104.006 76.4131 104.858 76.2293C107.276 75.7146 109.672 75.1043 111.929 74.0233C114.236 72.9204 115.236 71.06 115.434 67.8908C110.437 70.1482 106.27 72.8027 101.963 75.7072H101.955ZM55.7933 119.959C56.9643 118.866 57.6282 117.557 57.785 116.032C57.1897 117.201 56.6017 118.363 55.7933 119.959Z" fill="#929499"/>
<path d="M15.746 84.4869C16.7162 84.2589 17.4732 83.7295 18.0538 82.9133C18.5756 82.178 19.3767 81.7883 20.1925 81.5456C23.8231 80.4573 25.8736 77.4205 24.9182 73.8395C24.3302 71.6115 24.8888 69.6996 25.5943 67.7437C26.4395 65.4054 27.1965 63.0744 27.7477 60.6331C28.2181 58.5375 28.0932 56.7286 26.9834 54.9418C25.7046 54.5374 25.3445 53.302 24.3302 52.2652C25.1019 52.177 25.5576 52.1255 26.0133 52.0741C23.8452 51.3388 22.537 49.1989 20.3027 48.5886L20.2219 48.6622C19.09 49.8093 17.6716 49.1622 16.4148 49.1622C12.6666 49.1622 10.0208 50.5887 8.68318 54.2432C7.74244 56.8168 6.24315 59.1257 4.90554 61.5082C4.39843 62.4053 3.92806 62.5523 3.14902 61.8538C2.12009 60.9273 1.46598 61.4788 0.929472 62.4788C0.121029 63.9715 -0.290542 65.4863 0.407659 67.1334C1.25285 69.1408 2.17888 71.0673 0.848628 73.3247C0.297417 74.2586 1.46599 76.2587 2.48021 76.9352C4.46457 78.2514 6.66942 78.1117 8.85957 77.8837C10.7631 77.6852 10.7557 77.6043 11.2187 79.6779C12.1227 80.1632 12.6372 80.722 11.5348 81.553C12.6886 82.8912 13.769 84.3398 15.7534 84.4942L15.746 84.4869Z" fill="#DBBCA5"/>
<path d="M139.724 144.857C141.04 145.555 142.385 146.217 143.671 146.967C145.839 148.232 146.185 148.041 146.523 145.313C145.619 144.761 145.913 143.989 146.133 143.232C145.81 141.276 144.244 140.092 143.179 138.614C142.782 138.062 142.451 137.54 142.282 136.901C141.804 136.959 141.334 137.07 141.025 137.452C139.864 138.915 138.791 138.562 137.424 137.599C136.344 136.842 135.587 135.709 134.374 135.15C133.301 135.452 132.243 134.592 131.199 134.93C130.993 135.856 132.162 136.702 131.787 136.82C130.398 137.268 129.913 139.143 128.524 139.106C125.136 139.018 121.659 139.937 118.382 138.187C117.514 137.724 116.463 137.783 115.368 137.834C112.458 137.981 109.819 139.151 107.012 139.584C105.961 139.746 104.925 139.901 103.918 139.474C103.396 139.254 102.779 139.018 102.801 138.327C102.815 137.57 103.484 137.592 104.028 137.415C106.615 136.577 106.755 137.187 106.711 133.989C106.343 133.9 105.961 133.834 105.601 133.724C103.977 133.202 102.418 132.628 101.081 134.43C100.669 134.981 99.7653 135.165 98.9642 135.143C93.6284 135.018 88.3295 135.371 83.0525 136.18C82.788 136.224 82.4205 136.217 82.2294 136.07C80.1789 134.503 77.805 135.364 75.5781 135.15C75.659 135.636 75.7986 136.114 76.3572 136.217C77.658 136.459 78.9662 136.753 80.2818 136.849C81.9281 136.974 83.273 137.577 84.0962 138.996C84.64 139.945 85.375 140.305 86.3966 140.408C89.0056 140.68 91.3207 142.224 94.018 142.18C94.5545 142.173 95.0983 142.533 95.6349 142.732C96.0391 142.886 96.2449 143.21 96.1787 143.614C96.1199 144.018 95.826 144.283 95.3997 144.313C94.0694 144.393 92.7686 144.401 91.4383 144.026C89.9758 143.614 88.109 143.239 87.0507 144.195C86.2496 144.923 85.2868 145.386 84.5224 145.871C84.5592 146.842 85.9041 146.526 85.6028 147.577C84.5518 147.871 83.4641 148.18 82.3764 148.482C82.4499 148.651 82.4719 148.82 82.4499 149.004C82.8688 149.107 83.2804 149.217 83.6993 149.32C84.1403 149.085 84.5224 149.107 84.8091 149.563H84.8238C85.4338 149.629 86.1246 149.46 86.5215 150.151L86.5436 150.166C87.3373 150.247 88.256 149.783 88.8439 150.71L88.8513 150.717C89.8729 150.783 90.9532 150.474 91.8646 151.217C92.0336 151.202 92.1806 151.261 92.2982 151.386C94.9808 151.717 97.7221 151.136 100.375 151.872C100.882 151.886 101.316 151.732 101.647 151.335C103.822 150.423 106.086 150.055 108.445 150.269C109.966 149.938 111.605 149.894 112.649 148.46C113.215 147.702 114.06 148.004 114.795 147.886C117.132 147.982 119.146 146.849 121.27 146.151C122.196 145.18 123.423 145.563 124.54 145.43L124.518 145.445C124.974 144.688 125.687 145.004 126.326 145.026C126.466 144.938 126.613 144.893 126.782 144.893C127.267 144.202 127.995 144.511 128.634 144.452C129.171 144.21 129.648 143.57 130.302 144.224C131.096 144.246 131.919 143.687 132.676 144.371L132.963 144.335L133.242 144.393C135.484 143.511 137.622 144.085 139.746 144.879L139.724 144.857Z" fill="#746B3E"/>
<path d="M82.3691 148.482C83.4568 148.173 84.5519 147.871 85.5955 147.577C85.8969 146.533 84.5592 146.849 84.5151 145.871C85.2868 145.386 86.2423 144.923 87.0434 144.195C88.1017 143.239 89.9685 143.606 91.431 144.026C92.7613 144.401 94.0621 144.393 95.3924 144.312C95.8186 144.29 96.1126 144.018 96.1714 143.614C96.2302 143.209 96.0244 142.886 95.6276 142.731C95.0911 142.533 94.5472 142.173 94.0107 142.18C91.3134 142.224 88.9983 140.68 86.3893 140.408C85.3677 140.305 84.6401 139.945 84.0889 138.996C83.2657 137.577 81.9208 136.974 80.2745 136.849C78.9589 136.753 77.6507 136.452 76.3499 136.217C75.7913 136.114 75.6517 135.636 75.5708 135.15C74.2259 134.136 73.5277 132.841 73.8437 131.113C73.4983 130.503 73.3292 129.775 72.6825 129.371C69.5149 129.356 66.847 131.069 64.0395 132.121C61.7244 132.996 59.5196 133.533 57.0942 133.422C56.1388 133.378 55.176 133.415 54.2132 133.408C53.6253 133.65 53.0373 133.893 52.4494 134.136C51.7512 134.746 51.244 135.621 50.1931 135.731C49.8697 137.496 48.5762 138.724 47.7236 140.187C46.8196 141.731 45.5996 143.128 45.5923 145.062C47.8927 145.011 50.1931 144.709 52.5008 144.967L52.5302 144.959C52.8683 144.827 53.2137 144.577 53.5518 144.584C57.0134 144.68 60.475 144.812 63.9366 144.959C64.5907 144.989 65.2595 145.04 65.796 145.504H66.0753L66.3325 145.592C67.3762 145.577 68.4786 145.151 69.412 145.996C70.9774 145.621 72.3371 146.57 73.829 146.695C76.5483 147.077 79.4146 146.812 81.8693 148.423L81.884 148.452C82.0384 148.467 82.1927 148.474 82.347 148.482H82.3691Z" fill="#675F35"/>
<path d="M60.5486 128.826C61.4894 128.216 62.2464 127.312 63.4149 127.01C66.9059 126.091 69.8678 123.922 73.2706 122.76C76.181 121.767 78.9811 120.473 81.9209 119.532C85.3458 118.436 88.947 118.164 92.3351 116.988L92.585 117.098L92.857 117.083C93.2906 117.311 93.6948 117.253 94.0843 116.966C95.4072 116.841 96.7816 117.488 98.0604 116.723C100.375 116.878 102.691 116.804 104.991 116.48L105.256 116.569L105.535 116.539C107.306 116.804 109.158 116.708 110.812 117.576C111.326 117.981 111.922 117.833 112.502 117.811L112.48 117.797C113.788 118.892 115.119 119.959 116.383 121.098C116.699 121.385 116.949 121.584 117.353 121.451C118.367 121.113 118.962 121.767 119.587 122.378C120.403 123.172 121.108 124.098 122.35 124.334C122.799 124.415 123.24 124.797 123.115 125.363C122.975 125.988 122.395 125.878 121.939 125.915C118.904 126.172 115.978 127.238 112.892 127.084C112.179 127.047 111.657 127.393 111.091 127.812C110.172 128.481 108.952 128.525 108.1 127.929C106.652 126.915 105.278 126.966 103.764 127.532C103.521 127.621 103.19 127.54 102.882 126.937C105.219 125.966 107.703 126.915 110.003 125.922C107.843 125.922 105.682 125.819 103.528 125.951C101.11 126.106 99.1849 125.613 98.3617 122.959C98.7145 122.142 99.9198 121.944 100.155 120.672C98.6777 119.966 97.6341 118.473 95.2823 119.841C93.6213 120.811 91.218 120.598 89.1308 120.701C87.3302 120.782 85.6545 121.194 83.9567 121.635C84.089 122.517 84.6402 122.385 85.0812 122.451C86.1395 122.613 87.8079 121.878 87.3742 124.157C87.264 124.738 88.0284 124.672 88.4767 124.775C89.6526 125.032 90.8211 125.319 92.4307 125.701C90.439 127.334 88.2856 126.929 86.5217 127.657C85.5883 126.665 84.3757 127.253 83.2953 127.076C79.4442 126.429 76.1736 128.422 72.6826 129.378C69.515 129.363 66.8471 131.077 64.0396 132.128C61.7245 133.003 59.5197 133.54 57.0944 133.43C56.1389 133.385 55.1762 133.422 54.2134 133.415C56.308 131.871 58.3511 130.238 60.5339 128.834L60.5486 128.826ZM113.928 126.429C114.068 126.429 114.207 126.268 114.347 126.179C114.2 126.106 114.046 125.973 113.899 125.981C113.759 125.981 113.619 126.135 113.487 126.223C113.634 126.297 113.788 126.429 113.935 126.429H113.928ZM82.9205 124.54C82.9866 124.591 83.0821 124.598 83.163 124.62C83.185 124.547 83.2365 124.429 83.2144 124.415C83.1483 124.363 83.0527 124.356 82.9719 124.334C82.9499 124.407 82.8984 124.525 82.9205 124.54Z" fill="#816E43"/>
<path d="M31.5769 111.51C30.2687 107.458 27.961 103.855 26.4249 99.8917C25.0285 96.2666 22.4121 93.2959 20.097 90.1929C18.6565 89.5458 17.0029 90.4649 15.5477 89.3105C13.5854 87.7516 13.0048 88.1193 12.7328 90.7517C12.7034 91.0311 12.7034 91.3179 12.1522 91.4503C11.601 90.9944 10.8293 90.6488 9.94004 90.7297C9.72691 93.2518 10.3737 95.8254 9.48438 98.3035C9.8151 98.877 10.2267 99.4211 10.4619 100.039C12.0493 104.105 13.5854 108.193 15.1802 112.26C15.9593 114.245 16.1871 116.253 15.6432 118.326C15.8858 119.032 16.2826 119.635 16.8192 120.15C17.4586 119.642 17.8922 118.819 18.9432 118.981C19.4062 119.054 19.7883 118.841 20.1338 118.414C21.3391 116.936 22.4121 116.635 24.1539 117.451C24.9256 117.811 25.396 117.51 25.984 117.245C25.6091 114.458 24.2201 112.047 23.1324 109.532C22.5665 108.23 21.8095 107.017 21.148 105.76C20.9569 105.399 20.9275 104.987 21.3317 104.774C21.5522 104.657 21.9123 104.657 22.1549 104.752C22.7943 105.01 23.272 105.51 23.5807 106.113C24.1025 107.127 24.6464 108.127 24.9697 109.252C25.227 110.157 25.565 111.149 26.9541 110.554C27.4245 110.355 27.8728 110.76 28.13 111.179C28.6151 111.98 29.0634 111.899 29.7028 111.304C30.3275 110.723 30.9302 111.591 31.5843 111.524L31.5769 111.51Z" fill="#927150"/>
<path d="M112.487 117.797C113.796 118.892 115.126 119.959 116.39 121.098C116.706 121.385 116.956 121.584 117.36 121.451C118.374 121.113 118.97 121.767 119.594 122.378C120.41 123.172 121.116 124.098 122.358 124.334C122.806 124.415 123.247 124.797 123.122 125.363C122.983 125.988 122.402 125.878 121.946 125.915C118.911 126.172 115.986 127.238 112.899 127.084C112.186 127.047 111.664 127.393 111.098 127.812C110.18 128.481 108.96 128.525 108.107 127.929C106.659 126.915 105.285 126.966 103.771 127.532C103.528 127.621 103.198 127.54 102.889 126.937C105.226 125.966 107.71 126.915 110.011 125.922C107.85 125.922 105.689 125.819 103.536 125.951C101.118 126.106 99.1923 125.613 98.3691 122.959C98.7219 122.142 99.9272 121.944 100.162 120.672C98.6851 119.966 97.6415 118.473 95.2897 119.841C93.6287 120.812 91.2254 120.598 89.1382 120.701C87.3375 120.782 85.6619 121.194 83.9641 121.635C84.0964 122.517 84.6476 122.385 85.0886 122.451C86.1469 122.613 87.8153 121.878 87.3816 124.157C87.2714 124.738 88.0357 124.672 88.4841 124.775C89.66 125.032 90.8286 125.319 92.4381 125.701C90.4464 127.334 88.293 126.929 86.5291 127.657C84.6109 128.238 82.6927 128.819 80.7745 129.4C80.5907 129.974 80.3776 130.591 81.3477 130.532C83.4276 130.407 85.5296 130.312 87.5874 130.216C90.7698 130.069 94.0697 128.834 97.2226 130.459C99.6626 129.782 102.088 130.782 104.528 130.54C105.667 130.429 106.821 130.466 107.857 131.099C108.813 131.297 109.9 130.679 110.709 131.849C111.951 133.628 112.032 133.569 113.524 132.055C114.097 131.466 114.384 130.584 115.464 130.532C119.705 130.312 124.004 128.503 128.112 131.106C128.259 131.202 128.509 131.121 128.671 131.209C130.707 132.327 133.125 132.885 134.367 135.15C135.587 135.709 136.337 136.841 137.417 137.599C138.791 138.562 139.857 138.915 141.018 137.452C141.327 137.069 141.797 136.959 142.275 136.9C139.886 132.43 136.168 129.26 132.081 126.437C131.574 126.518 131.148 126.422 130.935 125.893C128.759 124.797 127.164 122.826 124.886 121.907C120.844 120.275 117.162 117.539 112.487 117.797Z" fill="#927150"/>
<path d="M26.0131 52.074C25.5574 52.1254 25.1018 52.1769 24.3301 52.2651C25.3517 53.3093 25.7044 54.5446 26.9832 54.9417L27.1523 54.9784C28.6957 54.1843 30.2464 54.2946 31.7972 54.9564C33.7962 55.0373 35.7953 55.0373 37.7943 55.3535C39.764 55.6696 41.7998 55.7064 43.7768 55.1476C44.8866 54.8314 45.5186 55.1696 45.9449 56.3167C47.65 60.8683 49.4433 65.3758 50.4942 70.1554C51.9053 76.56 51.7142 83.0529 51.9053 89.5311C51.9347 90.487 51.9127 91.4429 51.92 92.3988C52.0744 97.1122 51.7583 101.848 52.0817 106.627C53.2944 106.407 53.3973 105.671 53.6031 105.083C54.5144 102.465 55.264 99.8108 55.389 97.0166C55.4257 96.1931 55.4992 95.4651 56.5282 95.3474C56.6017 95.2004 56.6163 95.0459 56.587 94.8842C55.6462 89.0899 55.1612 83.2662 55.4625 77.391C55.5507 76.2439 55.3228 75.1335 55.1391 74.0012C54.1837 68.1554 52.1699 62.6331 50.1562 57.0962C49.2081 54.4931 49.5535 54.1034 52.3022 54.574C52.5741 54.6181 52.8314 54.7799 53.0959 54.8829C53.0812 53.802 53.0666 52.7284 53.0519 51.6475C52.8755 51.5592 52.6991 51.471 52.5227 51.3828C51.9494 51.3828 51.3688 51.3828 50.7956 51.3828C50.2223 51.3828 49.649 51.3828 49.0758 51.3901C48.8773 51.4342 48.6863 51.471 48.4878 51.5151C47.4736 51.3019 47.2972 50.3533 46.8783 49.6474C44.916 46.3752 42.7773 43.2428 40.0653 40.5368C36.0599 36.5367 32.0838 32.5071 28.093 28.4923C27.6226 28.4849 27.1523 28.4776 26.6893 28.4702C31.1063 34.7719 36.4935 40.3236 40.7562 46.7429C41.5426 47.9268 42.4833 49.015 43.2623 50.1989C43.9826 51.2945 43.6445 52.0519 42.3216 52.1034C38.8012 52.2357 35.2661 52.3386 31.7531 51.9048C30.9961 52.1989 30.2317 52.0813 29.4674 51.971C29.0852 51.9784 28.7104 51.9857 28.3282 52.0004C28.1298 52.0151 27.924 52.0298 27.7255 52.0445L26.0205 52.096L26.0131 52.074Z" fill="#929499"/>
<path d="M26.6819 28.4556C27.1523 28.463 27.6227 28.4703 28.0857 28.4777C31.3195 28.5218 32.6497 26.2717 33.3626 23.7055C34.3401 20.2054 34.1343 16.5287 34.2519 12.9257C34.3107 11.1021 33.0245 9.60206 31.9736 8.12407C31.2901 7.1608 30.5551 6.30785 30.4302 4.92545C30.2464 2.97686 26.5056 0.498834 24.7637 1.06503C23.7421 1.39592 22.9264 2.36651 22.015 3.05035C21.0155 3.043 20.5378 3.77098 19.9939 4.44012C19.3178 5.27103 18.355 3.99891 17.5465 4.74894C17.914 6.08722 19.0899 6.31516 20.1703 6.49164C21.3462 6.69017 22.3016 7.30052 23.3159 7.81525C23.823 8.07261 24.3742 8.5138 23.9406 9.15353C23.0366 10.4698 24.5065 10.1315 24.8519 10.5653C25.0577 10.3374 25.1826 9.81528 25.6016 10.3521C25.3517 10.4256 25.1018 10.4992 24.8519 10.5653C25.7265 12.8154 27.4022 14.5434 28.7618 16.4699C29.2616 17.1832 29.8055 17.867 29.9378 18.7347C30.0994 19.7568 29.2396 20.4627 28.3576 20.0068C27.4316 19.5288 26.2189 19.1024 25.7559 18.3009C24.1831 15.5655 21.2213 15.5581 18.9576 14.1831C18.818 14.4846 18.7224 14.5875 18.7445 14.639C19.2149 15.742 19.8763 16.7199 19.1781 18.0876C18.2521 19.9039 17.0247 19.073 15.79 18.7862C14.9375 18.5877 14.5185 18.948 14.5773 19.845C14.6141 20.3304 15.3123 20.8966 14.4303 21.2789C12.2108 19.7421 12.1226 19.6024 12.2549 18.0215C12.3872 16.5067 11.6277 15.5606 9.97656 15.1831C9.3886 18.9038 10.5131 22.0437 13.2618 24.5952C13.7395 25.0364 14.3054 25.4482 14.9081 25.6835C18.7004 27.1688 22.5515 28.4115 26.6819 28.4262V28.4556Z" fill="#DCB996"/>
<path d="M9.97668 15.2198C11.623 15.5924 12.3824 16.5385 12.255 18.0581C12.1154 19.6391 12.2109 19.7788 14.4305 21.3156C15.3124 20.9259 14.6142 20.3597 14.5775 19.8817C14.5187 18.9846 14.9376 18.6243 15.7901 18.8228C17.0322 19.1096 18.2522 19.9405 19.1782 18.1243C19.8764 16.7566 19.215 15.7786 18.7446 14.6756C18.7226 14.6242 18.8108 14.5212 18.9578 14.2197C21.2214 15.5948 24.1832 15.6022 25.756 18.3376C26.219 19.1464 27.4317 19.5655 28.3577 20.0435C29.2397 20.4994 30.0996 19.8008 29.9379 18.7714C29.7982 17.9037 29.2617 17.2199 28.762 16.5066C27.4023 14.5801 25.7266 12.8521 24.852 10.602C24.5066 10.1608 23.0367 10.499 23.9407 9.18283C24.3817 8.5431 23.8305 8.1019 23.316 7.84454C22.3018 7.32982 21.3463 6.71951 20.1704 6.52098C19.09 6.3445 17.9141 6.11656 17.5466 4.77828C18.3551 4.02825 19.3179 5.30032 19.994 4.46941C20.5379 3.79292 21.0156 3.07234 22.0151 3.07969C19.6853 0.910504 16.5545 0.741347 14.4158 2.99877C13.012 4.47676 11.6009 4.99153 9.61656 4.88123C7.15448 4.74888 5.64049 5.96213 4.81 8.2122C3.74432 11.102 5.36856 13.5065 8.82281 13.9844C9.69005 14.1021 10.3809 14.08 9.97668 15.2345V15.2198Z" fill="#DBBCA5"/>
<path d="M25.9837 117.238C25.3957 117.503 24.9253 117.804 24.1536 117.444C22.4118 116.628 21.3388 116.936 20.1335 118.407C19.788 118.834 19.3985 119.047 18.9428 118.973C17.8992 118.804 17.4583 119.635 16.8188 120.142C17.5611 122.268 19.2368 123.804 20.3539 125.694C20.5965 126.099 20.8831 126.452 20.8905 126.937C21.4637 127.187 21.4343 127.702 21.4417 128.202L21.427 128.18C21.7283 128.282 21.8973 128.496 21.9047 128.819L21.9414 128.878C22.1987 128.952 22.353 129.106 22.353 129.393C22.6029 129.981 22.8528 130.562 23.1027 131.15C23.3011 131.908 23.4995 132.658 23.698 133.415C24.3374 133.658 23.8744 134.158 23.9552 134.533C24.646 136.944 26.4467 139.077 25.6603 141.871C25.4618 142.57 27.4903 145.298 28.2105 145.415C29.2468 145.592 30.4595 145.665 30.8931 144.467C31.2312 143.518 32.0764 142.695 31.8044 141.548C31.8853 141.356 31.9661 141.165 32.047 140.974C32.3777 140.621 32.4218 140.195 32.3557 139.739C32.341 139.533 32.4145 139.371 32.5835 139.261C32.7305 139.099 32.8775 138.937 33.0245 138.775C32.9657 138.467 33.0612 138.224 33.3258 138.055C33.3846 137.834 33.4434 137.621 33.4948 137.4C33.4728 136.819 33.3699 136.224 33.877 135.761C33.9064 135.15 33.9358 134.54 33.9652 133.937C33.3846 133.496 33.5316 132.863 33.5242 132.275C33.3111 131.827 33.0245 131.29 32.5467 131.327C31.5619 131.4 32.1572 132.099 32.1499 132.591C32.1352 134.003 30.9372 134.246 29.9671 134.408C28.8206 134.599 28.9308 133.562 28.9087 132.819C28.7985 129.79 28.2473 126.79 28.2914 123.738C28.3208 121.348 27.8872 119.003 25.9984 117.238H25.9837Z" fill="#746B3E"/>
<path d="M25.9839 117.238C27.8801 119.003 28.3063 121.356 28.2769 123.738C28.2328 126.79 28.7841 129.79 28.8943 132.819C28.9237 133.562 28.8061 134.599 29.9526 134.408C30.9228 134.246 32.1207 134.003 32.1354 132.591C32.1354 132.099 31.5475 131.4 32.5323 131.327C33.01 131.29 33.304 131.827 33.5098 132.275C33.8332 132.084 34.1492 131.9 34.4726 131.709C34.9062 126.032 34.6342 120.444 32.6131 115.039C32.1869 113.892 31.9149 112.694 31.5695 111.517C30.9228 111.583 30.3201 110.716 29.688 111.296C29.0486 111.892 28.6003 111.973 28.1153 111.171C27.858 110.745 27.4097 110.341 26.9393 110.546C25.5503 111.142 25.2122 110.142 24.955 109.245C24.6316 108.12 24.0877 107.12 23.5659 106.105C23.2572 105.502 22.7869 105.002 22.1401 104.745C21.9049 104.649 21.5448 104.657 21.317 104.767C20.9128 104.98 20.9422 105.392 21.1332 105.752C21.7874 107.01 22.5517 108.223 23.1176 109.524C24.2053 112.039 25.6017 114.451 25.9692 117.238H25.9839Z" fill="#816E43"/>
<path d="M56.5356 95.3402C55.514 95.4579 55.4332 96.1859 55.3964 97.0094C55.2715 99.7963 54.5218 102.458 53.6105 105.076C53.4047 105.664 53.3018 106.399 52.0892 106.62C51.7658 101.84 52.0892 97.105 51.9275 92.3916C51.0088 94.7299 50.7075 97.2227 50.5458 99.6639C50.0754 106.789 47.9881 113.495 45.7539 120.187C46.2537 120.282 46.7608 120.473 46.5183 121.091C46.1581 122.018 46.1655 122.951 46.2243 123.907C46.239 124.194 46.3639 124.26 46.6285 124.069C46.9666 123.871 46.4815 123.069 47.3781 123.076C47.165 124.966 47.6501 126.863 46.8931 128.724C46.5991 129.452 46.6505 130.268 47.6868 130.533C48.1204 129.731 48.5614 128.922 48.995 128.121C50.8544 123.385 52.5742 118.606 53.5664 113.606C53.7942 112.473 54.1691 111.422 54.5071 110.341C56.0358 105.451 56.6385 100.436 56.5356 95.3329V95.3402Z" fill="#A98D90"/>
<path d="M47.6797 130.54C46.6507 130.275 46.5919 129.459 46.8859 128.731C47.6429 126.871 47.1579 124.973 47.371 123.084C46.4743 123.076 46.9594 123.878 46.6213 124.076C46.3568 124.268 46.2392 124.201 46.2171 123.915C46.1583 122.959 46.151 122.025 46.5111 121.098C46.7536 120.481 46.2539 120.289 45.7468 120.194C45.6806 120.51 45.6145 120.826 45.5483 121.142C45.5263 121.481 45.3646 121.723 45.078 121.9C42.807 127.863 40.2861 133.716 37.1773 139.305C35.9719 141.474 35.3619 143.937 33.8479 145.952C33.4952 146.43 33.4952 147.033 33.5172 147.614C33.5319 147.893 33.5319 148.217 33.6716 148.437C33.8038 148.643 34.2742 148.908 34.311 148.871C35.6927 147.43 37.3095 150.143 38.6178 148.636C39.2204 147.937 39.3454 146.827 40.4478 146.562C40.6462 144.923 40.9622 143.364 42.7261 142.636L42.7114 142.658C42.6894 142.268 42.6673 141.886 42.6526 141.496C40.7418 140.077 39.9113 138.261 40.242 136.114C41.609 137.084 41.8074 138.989 43.3067 139.79C43.4905 139.724 43.6816 139.709 43.8726 139.746L43.8506 139.768C44.1519 138.628 44.2475 137.364 45.5998 136.864L45.5777 136.893C45.6733 136.106 45.4748 135.128 46.7536 135.136L46.7316 135.165C46.173 133.452 47.5033 132.121 47.665 130.547L47.6797 130.54Z" fill="#8A8E93"/>
<path d="M53.0522 51.6401C53.0669 52.7211 53.0816 53.7946 53.0963 54.8756C57.8147 57.1403 60.2547 61.1478 61.9598 65.9127C63.393 69.9202 64.3043 73.8615 62.3199 77.8395C61.2175 80.0528 60.4826 82.4426 59.0347 84.5015C58.4909 85.2736 58.3953 86.3692 57.2855 86.7883C56.7637 83.5162 56.6461 80.347 55.4629 77.391C55.1615 83.2662 55.6466 89.0899 56.5873 94.8842C57.0577 90.8547 59.8358 87.9575 61.7246 84.656C63.9295 80.7955 65.9873 76.8542 66.1196 72.4202C66.2078 69.501 65.9506 66.3833 64.3631 63.6479C63.7531 62.5964 63.393 61.3905 62.9153 60.2581C61.0411 55.7726 57.6824 52.9858 53.0596 51.6475L53.0522 51.6401Z" fill="#A98D90"/>
<path d="M43.3138 139.783C41.8145 138.981 41.6161 137.07 40.2491 136.106C39.9184 138.253 40.7489 140.07 42.6597 141.489C43.4829 141.834 43.3873 142.224 42.7185 142.651L42.7332 142.629C42.9096 144.29 42.3731 145.643 40.9987 146.643C41.3956 147.202 41.5867 147.82 41.7264 148.489C41.8513 149.07 42.2849 149.489 42.9537 149.504C43.7401 149.519 44.2766 149.107 44.3795 148.364C44.5265 147.261 45.1586 146.438 45.7318 145.57C45.6804 145.401 45.6363 145.232 45.6069 145.063C45.6142 143.129 46.8416 141.732 47.7382 140.187C48.5981 138.717 49.8843 137.496 50.2076 135.731C50.1268 133.202 51.1484 130.753 50.7883 128.202C50.384 128.584 49.9798 128.966 49.5756 129.341C48.532 131.231 48.3997 133.562 46.7387 135.158L46.7607 135.128C46.4447 135.768 46.2389 136.474 45.5848 136.886L45.6069 136.856C45.3496 138.018 45.4084 139.379 43.8577 139.761L43.8797 139.739C43.9826 140.092 43.9385 140.599 43.6372 140.606C43.2624 140.621 43.3212 140.114 43.3138 139.783Z" fill="#A98D90"/>
<path d="M9.94006 90.7224C10.8293 90.6489 11.601 90.9871 12.1522 91.443C12.7035 91.3107 12.7035 91.0239 12.7329 90.7445C13.0048 88.1194 13.5854 87.7444 15.5477 89.3033C17.0029 90.4577 18.6639 89.5385 20.097 90.1856C19.7663 88.9797 19.0461 88.0606 18.1641 87.1635C17.3263 86.3105 16.1357 85.737 15.7388 84.4722C13.7618 84.3105 12.6814 82.8619 11.5202 81.531C10.3884 80.4868 8.82293 80.9353 7.55147 80.3691C6.76508 80.7221 6.5005 81.4353 7.16195 81.9133C9.54318 83.6413 9.35945 86.1488 9.41824 88.6121C9.44029 89.34 9.19041 90.1489 9.92536 90.7151L9.94006 90.7224Z" fill="#816E43"/>
<path d="M15.6432 118.319C16.1871 116.245 15.9666 114.238 15.1802 112.252C13.5854 108.186 12.0493 104.098 10.4619 100.031C10.2193 99.4212 9.8151 98.877 9.48438 98.2961C9.62402 104.98 10.6603 111.422 14.4747 117.142C14.8054 117.642 15.1582 118.017 15.6506 118.319H15.6432Z" fill="#816E43"/>
<path d="M41.0063 146.643C42.3806 145.651 42.9171 144.298 42.7407 142.628C40.9769 143.356 40.6608 144.923 40.4624 146.555C40.6388 146.636 40.8152 146.658 41.0063 146.636V146.643Z" fill="#746B3E"/>
<path d="M114.81 91.9209C114.582 92.068 114.273 92.1635 114.148 92.3694C113.832 92.8842 114.251 93.0386 114.633 93.0386C116.809 93.0238 118.992 92.9797 121.167 92.943C120.116 92.0312 118.852 92.5974 117.691 92.4283C116.728 92.2886 115.633 92.8915 114.817 91.9209H114.81Z" fill="#DFC1AC"/>
<path d="M34.48 131.709C34.1567 131.9 33.8406 132.084 33.5173 132.275C33.5246 132.863 33.385 133.503 33.9582 133.937C34.1273 133.194 34.3037 132.452 34.4727 131.709H34.48Z" fill="#927150"/>
<path d="M3.98682 79.8324C4.11176 80.428 3.87657 81.1118 4.47188 81.7589C4.64827 80.7368 5.13334 79.8471 4.06031 79.1853C4.03826 79.3985 4.00886 79.6118 3.98682 79.8324Z" fill="#DFC1AC"/>
<path d="M33.8773 135.761C33.3702 136.217 33.473 136.82 33.4951 137.4C33.9508 136.93 34.0831 136.386 33.8773 135.761Z" fill="#927150"/>
<path d="M110.826 117.576C111.341 117.981 111.936 117.834 112.517 117.812C112.068 116.944 111.421 117.444 110.826 117.576Z" fill="#927150"/>
<path d="M20.3025 48.5887C20.207 48.3534 20.1114 48.1181 20.0159 47.8901C19.9498 47.949 19.8395 47.9931 19.8248 48.0592C19.7734 48.3754 19.9645 48.5446 20.2217 48.6622L20.3025 48.5887Z" fill="#DBBCA5"/>
<path d="M97.4428 79.1704C97.0165 79.266 96.6123 79.4131 96.3403 79.7881C96.8327 79.8102 97.2884 79.7587 97.4428 79.1704Z" fill="#E1E3E4"/>
<path d="M3.98665 79.8324C4.0087 79.6191 4.0381 79.4059 4.06015 79.1853C3.97931 79.325 3.87641 79.4647 3.83232 79.6118C3.81762 79.6632 3.93521 79.7515 3.98665 79.825V79.8324Z" fill="#E1E3E4"/>
<path d="M98.0454 72.7217C98.3835 72.8025 98.5672 72.604 98.7216 72.3467C98.4937 72.4717 98.2659 72.5967 98.0454 72.7217Z" fill="#E1E3E4"/>
<path d="M48.4878 51.5078C48.6862 51.4637 48.8773 51.4269 49.0758 51.3828C48.8112 51.1034 48.6274 51.1842 48.4878 51.5078Z" fill="#E1E3E4"/>
<path d="M64.1424 114.466C64.4438 114.348 64.6055 114.135 64.6422 113.819L64.5908 113.782C64.407 113.973 64.2233 114.172 64.0396 114.363L64.1424 114.466Z" fill="#929499"/>
<path d="M62.9002 117.841C62.6209 117.944 62.4004 118.098 62.3931 118.429C62.5621 118.231 62.7311 118.04 62.9002 117.841Z" fill="#E1E3E4"/>
<path d="M45.0852 121.893C45.3718 121.723 45.5335 121.474 45.5555 121.135C45.2762 121.312 45.0778 121.54 45.0852 121.893Z" fill="#A98D90"/>
<path d="M33.3258 138.055C33.0613 138.224 32.9657 138.467 33.0245 138.776C33.3038 138.606 33.4067 138.371 33.3258 138.055Z" fill="#927150"/>
<path d="M32.5837 139.253C32.4146 139.371 32.3411 139.525 32.3558 139.731C32.4955 139.606 32.5763 139.445 32.5837 139.253Z" fill="#927150"/>
<path d="M102.661 46.7504C102.72 45.3091 102.066 44.6106 100.647 44.618C99.3317 44.6253 98.1558 45.846 98.1631 47.2063C98.1631 48.3019 99.0377 49.199 100.111 49.2211C101.551 49.2505 102.602 48.2357 102.668 46.7504H102.661Z" fill="#A98D90"/>
<path d="M142.51 67.773C142.547 68.9054 144.09 70.4863 145.111 70.4422C146.06 70.3981 147.552 68.8245 147.522 67.9054C147.485 66.9642 145.949 65.4788 145.001 65.4715C143.767 65.4641 142.48 66.648 142.517 67.773H142.51Z" fill="#A98D90"/>
<path d="M102.654 101.686C102.977 101.634 103.212 101.473 103.337 101.164C102.992 101.186 102.749 101.34 102.654 101.686Z" fill="#929499"/>
<path d="M64.0323 114.363C64.216 114.172 64.3998 113.973 64.5835 113.782C64.8701 112.48 65.1494 111.172 65.4581 109.87C65.5463 109.488 65.6933 109.083 65.3184 108.833C64.8701 108.539 64.3998 108.671 64.0102 109.024C63.4664 109.51 63.2238 110.414 62.2464 110.289C61.8642 110.458 61.6658 110.774 61.5923 111.172C61.8348 112.569 61.6804 113.708 59.8798 113.753C59.5564 114.12 59.2257 114.488 58.9023 114.856C59.6814 115.951 60.703 115.569 61.6731 115.253C62.4668 114.995 63.1503 114.414 64.0249 114.355L64.0323 114.363Z" fill="#A98D90"/>
<path d="M57.7852 116.032C57.1899 117.201 56.6019 118.363 55.7935 119.959C56.9645 118.865 57.6284 117.557 57.7852 116.032Z" fill="#DFC1AC"/>
<path d="M58.9097 114.856C59.2331 114.488 59.5638 114.12 59.8872 113.753C59.9313 113.378 59.968 113.002 60.0121 112.62L60.0415 112.642C59.0787 113.076 58.8289 113.878 58.9097 114.848V114.856Z" fill="#DAB9A0"/>
<path d="M60.6075 111.503C60.1445 111.745 60.093 112.194 60.0489 112.65L60.0195 112.628C60.4458 112.363 60.5487 111.944 60.5781 111.488L60.6075 111.51V111.503Z" fill="#E1E3E4"/>
<path d="M134.374 135.143C133.132 132.878 130.714 132.319 128.678 131.202C128.524 131.114 128.267 131.194 128.12 131.099C124.004 128.496 119.704 130.305 115.471 130.525C114.391 130.584 114.111 131.466 113.531 132.047C112.039 133.562 111.958 133.628 110.716 131.842C109.9 130.672 108.82 131.29 107.864 131.091C108.305 132.386 108.474 133.569 106.71 133.981C106.755 137.18 106.615 136.562 104.028 137.408C103.484 137.584 102.815 137.562 102.801 138.32C102.786 139.018 103.403 139.254 103.918 139.467C104.925 139.893 105.953 139.739 107.012 139.577C109.827 139.143 112.458 137.974 115.368 137.827C116.463 137.768 117.514 137.717 118.381 138.18C121.652 139.93 125.136 139.011 128.524 139.099C129.913 139.136 130.398 137.261 131.787 136.812C132.162 136.687 130.993 135.849 131.199 134.923C132.243 134.584 133.301 135.445 134.374 135.143Z" fill="#837640"/>
<path d="M106.711 133.988C108.475 133.577 108.306 132.393 107.865 131.099C106.828 130.466 105.674 130.429 104.535 130.54C102.095 130.775 99.6699 129.782 97.2299 130.459C94.077 128.834 90.7771 130.069 87.5948 130.216C85.5296 130.312 83.4349 130.407 81.355 130.532C80.3849 130.591 80.598 129.974 80.7818 129.4C79.2163 128.746 77.7611 128.9 76.3353 129.856C75.571 130.371 74.6891 130.702 73.8586 131.121C73.5352 132.849 74.2407 134.143 75.5857 135.158C77.8126 135.371 80.1865 134.511 82.237 136.077C82.4281 136.224 82.7955 136.231 83.0601 136.187C88.3371 135.378 93.636 135.025 98.9718 135.15C99.7729 135.172 100.677 134.996 101.088 134.437C102.426 132.643 103.984 133.209 105.608 133.731C105.968 133.849 106.343 133.908 106.718 133.996L106.711 133.988Z" fill="#816E43"/>
<path d="M73.8585 131.113C74.689 130.702 75.5709 130.363 76.3353 129.849C77.7611 128.893 79.2163 128.738 80.7817 129.393C82.6999 128.812 84.6181 128.231 86.5363 127.65C85.603 126.657 84.3903 127.246 83.3099 127.069C79.4588 126.422 76.1883 128.415 72.6973 129.371C73.344 129.775 73.5131 130.503 73.8585 131.113Z" fill="#6F663A"/>
<path d="M113.479 126.223C113.626 126.297 113.781 126.429 113.928 126.422C114.067 126.422 114.207 126.26 114.347 126.172C114.2 126.098 114.045 125.966 113.898 125.973C113.759 125.973 113.619 126.128 113.487 126.216L113.479 126.223Z" fill="#927150"/>
<path d="M82.9719 124.334C82.9498 124.407 82.8984 124.525 82.9204 124.54C82.9866 124.591 83.0821 124.598 83.163 124.621C83.185 124.547 83.2364 124.429 83.2144 124.415C83.1483 124.363 83.0527 124.356 82.9719 124.334Z" fill="#927150"/>
<path d="M24.8521 10.5875C25.1019 10.514 25.3518 10.4404 25.6017 10.3743C25.1754 9.83748 25.0578 10.3595 24.8521 10.5875Z" fill="#DBBCA5"/>
<path d="M42.7185 142.651C43.3799 142.231 43.4755 141.834 42.6597 141.489C42.6817 141.878 42.7038 142.261 42.7185 142.651Z" fill="#746B3E"/>
<path d="M60.578 111.488C60.5486 111.944 60.4457 112.363 60.0195 112.628C59.9754 113.003 59.9386 113.378 59.8945 113.76C61.6952 113.716 61.8421 112.576 61.5996 111.179C61.2542 111.282 60.9161 111.385 60.578 111.488Z" fill="#929499"/>
</svg>
