<svg width="375" height="667" viewBox="0 0 375 667" fill="none" xmlns="http://www.w3.org/2000/svg">
<path d="M375.522 0H-0.110352V667H375.522V0Z" fill="#6D2627"/>
<path d="M374.272 0C374.272 0.132357 374.272 0.257361 374.272 0.389719C373.596 0.389719 372.993 0.470604 373.001 1.29416C373.001 2.00007 372.993 2.70597 372.993 3.41188C372.993 223.404 372.993 443.397 372.993 663.39C372.993 664.544 372.986 665.698 372.979 666.853C372.009 667.029 371.038 667.037 370.076 666.853C370.076 665.823 370.068 664.801 370.068 663.772C370.068 443.537 370.068 223.301 370.068 3.05892C370.068 2.47802 370.068 1.90447 370.054 1.32357C370.046 0.919148 369.929 0.588255 369.436 0.441191C368.018 0.0147064 367.187 0.529429 367.143 1.90447C367.129 2.28684 367.143 2.67656 367.143 3.05892C367.143 223.103 367.143 443.147 367.143 663.191C367.143 664.412 367.136 665.632 367.129 666.846C366.158 667.029 365.196 667.022 364.225 666.846C364.225 665.948 364.218 665.051 364.218 664.154C364.218 444.441 364.218 224.721 364.218 5.00752C364.218 4.23543 364.218 3.4707 364.218 2.69862C364.218 2.1839 364.218 1.67653 364.218 1.1618C363.38 0.0735319 362.55 0.0735319 361.719 1.1618C361.719 1.67653 361.719 2.19125 361.719 2.69862C361.719 222.926 361.719 443.154 361.719 663.382C361.719 664.537 361.712 665.691 361.705 666.846C360.734 667.029 359.772 667.029 358.802 666.831C358.802 665.801 358.794 664.779 358.794 663.75C358.794 443.97 358.794 224.199 358.794 4.41926C358.794 3.33099 358.794 2.23537 358.787 1.1471C357.949 0.0735318 357.126 0.0735318 356.273 1.1471C355.707 1.9633 355.869 2.88245 355.869 3.77218C355.869 26.295 355.869 48.8104 355.869 71.3332C355.869 268.81 355.869 466.287 355.869 663.765C355.869 664.787 355.752 665.816 356.031 666.831C354.936 667.007 353.848 667 352.753 666.831C353.032 665.816 352.915 664.787 352.915 663.765C352.915 443.669 352.915 223.574 352.915 3.4707C352.915 2.69862 352.907 1.93389 352.9 1.1618C351.981 0.036766 350.526 0.036766 349.607 1.1618C349.607 27.5965 349.593 54.0385 349.593 80.4732C349.593 274.906 349.593 469.332 349.593 663.765C349.593 664.787 349.468 665.816 349.754 666.831C348.16 667.007 346.572 666.993 344.977 666.831C344.977 665.676 344.977 664.522 344.977 663.367C344.977 443.265 344.977 223.162 344.977 3.05892C344.977 2.61038 344.955 2.16184 344.977 1.71329C345.021 0.889735 344.779 0.375012 343.713 0.375012C342.655 0.375012 342.398 0.875029 342.442 1.70594C342.464 2.15448 342.442 2.60303 342.442 3.05157C342.442 223.088 342.442 443.125 342.442 663.169C342.442 664.39 342.442 665.61 342.442 666.823C341.479 667.022 340.509 667.022 339.539 666.846C339.539 665.691 339.524 664.537 339.524 663.382C339.524 444.051 339.524 224.713 339.524 5.38253C339.524 4.48544 339.509 3.58835 339.502 2.69127C339.502 2.17654 339.502 1.66917 339.494 1.15445C338.613 0.0882382 337.525 0.0882382 336.606 1.15445C336.606 1.73535 336.599 2.3089 336.599 2.8898C336.599 223.184 336.599 443.471 336.599 663.765C336.599 664.794 336.599 665.816 336.591 666.846C335.482 667.044 334.379 667.022 333.269 666.868C333.269 665.713 333.255 664.559 333.255 663.404C333.255 443.654 333.255 223.912 333.255 4.1619C333.255 3.64718 333.218 3.13246 333.262 2.62509C333.306 2.08095 333.093 1.62505 332.843 1.1618C331.998 0.0882382 331.168 0.0882382 330.344 1.1618C330.344 1.80153 330.33 2.44861 330.33 3.08834C330.33 223.382 330.33 443.676 330.33 663.97C330.33 664.934 330.33 665.897 330.322 666.86C329.213 667.044 328.11 667.051 327 666.86C327 665.772 326.993 664.676 326.993 663.588C326.993 443.419 326.993 223.25 326.993 3.08834C326.993 2.63979 326.971 2.19125 326.993 1.7427C327.037 0.919148 326.802 0.404425 325.729 0.404425C324.671 0.404425 324.413 0.904442 324.457 1.73535C324.479 2.1839 324.457 2.63244 324.457 3.08098C324.457 223.184 324.457 443.287 324.457 663.39C324.457 664.544 324.457 665.698 324.457 666.853C323.495 667.051 322.525 667.044 321.554 666.868C321.554 665.779 321.54 664.684 321.54 663.595C321.54 444.265 321.54 224.927 321.54 5.59577C321.54 4.63251 321.525 3.66924 321.518 2.70597C321.518 2.19125 321.518 1.68388 321.518 1.16916C320.628 0.102945 319.541 0.102945 318.629 1.16916C318.629 1.75006 318.622 2.32361 318.622 2.90451C318.622 223.324 318.622 443.743 318.622 664.162C318.622 665.059 318.622 665.956 318.615 666.86C317.586 667.051 316.564 667.037 315.543 666.831C315.807 665.882 315.69 664.912 315.69 663.956C315.69 443.735 315.69 223.515 315.69 3.29423C315.69 2.58832 315.667 1.88242 315.66 1.17651C314.778 0.110298 313.683 0.110298 312.786 1.17651C312.786 1.81624 312.772 2.46332 312.772 3.10304C312.772 223.522 312.772 443.948 312.772 664.367C312.772 665.198 312.764 666.037 312.757 666.868C311.787 667.044 310.824 667.051 309.854 666.868C309.854 665.904 309.839 664.941 309.839 663.978C309.839 443.684 309.839 223.382 309.839 3.08834C309.839 2.57361 309.817 2.05889 309.839 1.55152C309.876 0.735318 309.472 0.404425 308.59 0.404425C307.715 0.404425 307.296 0.713259 307.318 1.53682C307.341 2.4339 307.318 3.33099 307.318 4.23543C307.318 225.11 307.318 445.985 307.318 666.86C306.297 667 305.268 667.073 304.254 666.831C304.511 665.882 304.393 664.912 304.393 663.956C304.393 443.801 304.393 223.647 304.393 3.49276C304.393 2.72068 304.379 1.95595 304.371 1.18386C303.489 0.117651 302.387 0.117651 301.498 1.18386C301.498 1.56623 301.498 1.95595 301.49 2.33831C301.49 3.16922 301.476 4.00748 301.476 4.83839C301.476 224.235 301.476 443.632 301.476 663.029C301.476 664.316 301.468 665.595 301.461 666.882C300.351 667.066 299.249 667.073 298.139 666.882C298.139 665.919 298.132 664.956 298.132 663.992C298.132 444.728 298.132 225.463 298.132 6.19138C298.132 5.03693 298.132 3.88248 298.124 2.72803C298.124 2.21331 298.124 1.70594 298.117 1.19122C297.213 0.125004 296.118 0.125004 295.243 1.19122C295.236 1.77212 295.214 2.34567 295.214 2.92657C295.214 223.471 295.214 444.007 295.214 664.551C295.214 665.316 295.302 666.081 295.353 666.853C293.854 667.081 292.355 667.044 290.863 666.868C291.142 665.853 291.017 664.823 291.017 663.801C291.017 444.096 291.017 224.382 291.017 4.67662C291.017 3.52218 291.01 2.36773 291.003 1.21328C290.121 0.132357 289.026 0.125004 288.1 1.20592C288.1 1.72064 288.1 2.23537 288.1 2.74274C288.1 223.162 288.1 443.581 288.1 664.007C288.1 664.97 288.1 665.934 288.092 666.897C287.122 667.081 286.159 667.081 285.189 666.897C285.189 666 285.174 665.103 285.174 664.198C285.174 443.831 285.174 223.471 285.174 3.10304C285.174 2.52214 285.16 1.94859 285.167 1.36769C285.167 0.727965 284.814 0.448544 284.138 0.433838C282.514 0.404425 282.161 0.477957 282.249 1.93389C282.271 2.31625 282.249 2.70597 282.249 3.08834C282.249 223.456 282.249 443.816 282.249 664.184C282.249 665.081 282.249 665.978 282.242 666.882C281.132 667.081 280.03 667.059 278.92 666.904C278.92 665.684 278.905 664.463 278.905 663.25C278.905 443.566 278.905 223.882 278.905 4.19867C278.905 3.68394 278.869 3.16922 278.913 2.66185C278.964 2.11772 278.736 1.66182 278.494 1.19857C277.649 0.125004 276.811 0.125004 275.995 1.19857C275.995 1.8383 275.98 2.48538 275.98 3.1251C275.98 223.544 275.98 443.97 275.98 664.39C275.98 665.22 275.98 666.059 275.966 666.89C274.856 667.073 273.753 667.081 272.644 666.875C272.644 665.978 272.636 665.081 272.636 664.184C272.636 444.213 272.636 224.243 272.636 4.2722C272.636 3.24275 272.636 2.22066 272.629 1.19122C271.71 0.125004 270.622 0.125004 269.741 1.19122C269.733 1.77212 269.711 2.34567 269.711 2.92657C269.711 223.471 269.711 444.015 269.711 664.559C269.711 665.323 269.799 666.088 269.851 666.86C268.969 667.044 268.087 667.059 267.205 666.89C267.205 660.536 267.198 654.183 267.198 647.83C267.198 432.919 267.198 218.007 267.198 3.09569C267.198 2.51479 267.198 1.94124 267.183 1.36034C267.176 0.955914 267.065 0.625021 266.573 0.477957C265.162 0.0441191 264.317 0.566195 264.273 1.93389C264.258 2.31625 264.273 2.70597 264.273 3.08834C264.273 223.324 264.273 443.559 264.273 663.801C264.273 664.831 264.273 665.853 264.265 666.882C263.244 667.073 262.222 667.059 261.2 666.853C261.465 665.838 261.34 664.809 261.34 663.787C261.34 443.757 261.34 223.728 261.34 3.706C261.34 2.87509 261.325 2.03683 261.311 1.20592C260.429 0.13971 259.334 0.13971 258.437 1.20592C258.437 2.03683 258.415 2.87509 258.415 3.706C258.415 223.875 258.415 444.037 258.415 664.206C258.415 665.103 258.415 666 258.4 666.904C257.43 667.081 256.467 667.081 255.497 666.904C255.497 666.007 255.483 665.11 255.483 664.206C255.483 443.846 255.483 223.485 255.483 3.11775C255.483 2.66921 255.461 2.22066 255.483 1.77212C255.527 0.948561 255.299 0.433838 254.226 0.433838C253.16 0.433838 252.925 0.941208 252.962 1.77212C252.991 2.34567 252.962 2.92657 252.962 3.50747C252.962 202.882 252.962 402.263 252.962 601.638C252.962 623.388 252.962 645.146 252.954 666.897C251.984 667.081 251.021 667.081 250.051 666.897C250.051 665.809 250.044 664.713 250.044 663.625C250.044 444.676 250.044 225.735 250.044 6.78699C250.044 5.44136 250.044 4.08837 250.037 2.74274C250.037 2.22801 250.037 1.72064 250.029 1.20592C249.133 0.13971 248.03 0.13971 247.156 1.20592C247.148 1.78682 247.126 2.36037 247.126 2.94127C247.126 223.485 247.126 444.022 247.126 664.566C247.126 665.331 247.214 666.095 247.266 666.868C246.185 667.081 245.112 667.066 244.032 666.875C244.297 665.926 244.179 664.956 244.179 664C244.179 443.904 244.179 223.816 244.179 3.72071C244.179 2.8898 244.164 2.05154 244.157 1.22063C243.275 0.147064 242.187 0.13971 241.254 1.21328C241.254 1.59564 241.254 1.98536 241.254 2.36773C241.254 222.787 241.254 443.206 241.254 663.625C241.254 664.713 241.254 665.809 241.247 666.897C239.586 667.103 237.917 667.11 236.256 666.897C236.256 665.868 236.256 664.845 236.256 663.816C236.256 444.044 236.256 224.265 236.256 4.4928C236.256 3.40452 236.256 2.3089 236.249 1.22063C235.323 0.154417 234.235 0.154417 233.361 1.22063C233.353 1.80153 233.331 2.37508 233.331 2.95598C233.331 223.507 233.331 444.051 233.331 664.603C233.331 665.368 233.258 666.147 233.486 666.897C232.537 667.073 231.589 667.073 230.634 666.897C230.913 665.882 230.796 664.853 230.796 663.831C230.796 443.735 230.796 223.64 230.796 3.53688C230.796 2.7648 230.788 2.00007 230.781 1.22798C229.862 0.102945 228.407 0.102945 227.488 1.22798C227.488 27.6627 227.474 54.1047 227.474 80.5394C227.474 274.972 227.474 469.398 227.474 663.831C227.474 664.853 227.349 665.882 227.635 666.897C226.467 667.066 225.291 667.073 224.122 666.882C224.122 665.787 224.108 664.698 224.108 663.61C224.108 444.029 224.108 224.449 224.108 4.87516C224.108 4.04425 224.108 3.20599 224.108 2.37508C224.108 1.99271 224.1 1.60299 224.093 1.22063C223.277 0.147064 222.439 0.147064 221.601 1.22063C221.601 1.80153 221.587 2.37508 221.587 2.95598C221.587 218.11 221.587 433.272 221.587 648.426C221.587 654.588 221.587 660.742 221.587 666.904C220.484 667.118 219.375 667.096 218.265 666.919C218.265 666.088 218.257 665.25 218.257 664.419C218.257 444.316 218.257 224.213 218.257 4.11778C218.257 3.15452 218.257 2.19125 218.25 1.22798C217.339 0.154417 216.251 0.154417 215.34 1.22798C215.34 1.80888 215.332 2.38243 215.332 2.96333C215.332 223.324 215.332 443.676 215.332 664.037C215.332 665 215.332 665.963 215.318 666.926C214.421 667.118 213.532 667.059 212.642 666.912C212.936 665.897 212.804 664.867 212.804 663.845C212.804 443.875 212.804 223.904 212.804 3.93395C212.804 3.03686 212.789 2.13978 212.782 1.24269C211.871 0.125004 210.416 0.125004 209.504 1.24269C209.497 2.01477 209.482 2.7795 209.482 3.55159C209.482 223.588 209.482 443.632 209.482 663.669C209.482 664.757 209.475 665.853 209.467 666.941C208.497 667.096 207.527 667.118 206.564 666.919C206.564 665.698 206.564 664.478 206.564 663.265C206.564 443.162 206.564 223.059 206.564 2.95598C206.564 2.57361 206.542 2.1839 206.564 1.80153C206.608 0.97062 206.366 0.463251 205.3 0.463251C204.235 0.463251 203.992 0.97062 204.036 1.80153C204.058 2.25007 204.036 2.69862 204.036 3.14716C204.036 223.574 204.036 443.993 204.036 664.419C204.036 665.25 204.036 666.088 204.029 666.919C203.059 667.11 202.096 667.11 201.126 666.934C201.118 666.573 201.104 666.206 201.096 665.846C201.096 665.206 201.111 664.559 201.111 663.919C201.111 443.669 201.111 223.419 201.111 3.16922C201.111 2.5295 201.096 1.88242 201.089 1.24269C200.2 0.176476 199.097 0.176476 198.223 1.24269C198.215 1.81624 198.193 2.39714 198.193 2.97069C198.193 223.515 198.193 444.051 198.193 664.595C198.193 665.36 198.282 666.125 198.333 666.897C197.458 667.096 196.576 667.103 195.687 666.941C195.687 665.978 195.672 665.015 195.672 664.051C195.672 443.882 195.672 223.721 195.672 3.55159C195.672 2.7795 195.658 2.01477 195.65 1.24269C194.754 0.176476 193.651 0.176476 192.777 1.24269C192.769 1.82359 192.747 2.39714 192.747 2.97804C192.747 223.522 192.747 444.066 192.747 664.617C192.747 665.382 192.667 666.162 192.902 666.912C191.74 667.088 190.572 667.147 189.411 666.926C189.411 665.897 189.403 664.875 189.403 663.845C189.403 444.073 189.403 224.294 189.403 4.52221C189.403 3.43394 189.403 2.33831 189.396 1.25004C188.558 0.176476 187.735 0.176476 186.882 1.25004C186.361 2.00742 186.478 2.85304 186.478 3.68395C186.478 224 186.478 444.316 186.478 664.632C186.478 665.397 186.574 666.162 186.625 666.926C185.185 667.11 183.737 667.14 182.289 666.948C182.289 665.985 182.274 665.022 182.274 664.059C182.274 443.89 182.274 223.721 182.274 3.55894C182.274 2.78686 182.26 2.02213 182.252 1.25004C181.37 0.18383 180.268 0.18383 179.379 1.25004C179.379 1.76476 179.379 2.27213 179.371 2.78686C179.371 7.7282 179.357 12.6695 179.357 17.6109C179.357 233.022 179.357 448.427 179.357 663.838C179.357 664.86 179.217 665.89 179.533 666.904C178.504 667.118 177.475 667.118 176.439 666.948C176.439 666.176 176.424 665.412 176.424 664.64C176.424 490.803 176.424 316.966 176.424 143.13C176.424 95.834 176.424 48.5457 176.417 1.25004C175.505 0.176476 174.418 0.176476 173.506 1.25004C173.506 1.88977 173.499 2.53685 173.499 3.17658C173.499 223.596 173.499 444.022 173.499 664.441C173.499 665.272 173.499 666.11 173.492 666.941C172.382 667.125 171.272 667.118 170.17 666.941C170.17 666.11 170.155 665.272 170.155 664.441C170.155 444.081 170.155 223.721 170.155 3.3604C170.155 2.6545 170.14 1.94859 170.126 1.24269C169.244 0.176476 168.149 0.176476 167.245 1.24269C167.245 1.88242 167.23 2.5295 167.23 3.16922C167.23 223.588 167.23 444.015 167.23 664.434C167.23 665.265 167.23 666.103 167.215 666.934C166.245 667.118 165.275 667.103 164.305 666.948C164.305 665.728 164.283 664.507 164.283 663.294C164.283 443.676 164.283 224.059 164.283 4.44868C164.283 3.93395 164.261 3.41923 164.283 2.91186C164.312 2.31625 164.18 1.76476 163.871 1.25004C163.026 0.176476 162.203 0.176476 161.35 1.25004C160.799 2.0736 160.946 2.98539 160.946 3.87513C160.946 224 160.946 444.125 160.946 664.257C160.946 665.154 160.858 666.059 161.108 666.941C160.219 667.081 159.329 667.14 158.433 666.948C158.433 666.118 158.418 665.279 158.418 664.448C158.418 444.279 158.418 224.118 158.418 3.94866C158.418 3.05157 158.403 2.15448 158.396 1.25739C157.499 0.198536 156.404 0.198536 155.515 1.25739C155.515 1.51476 155.508 1.77212 155.5 2.02948C155.5 2.86039 155.493 3.69865 155.493 4.52956C155.493 224.052 155.493 443.581 155.493 663.103C155.493 664.39 155.493 665.669 155.485 666.956C154.515 667.132 153.553 667.14 152.582 666.956C152.582 645.779 152.575 624.602 152.575 603.424C152.575 403.403 152.575 203.382 152.575 3.3604C152.575 2.72068 152.575 2.0736 152.56 1.43387C152.553 1.02945 152.443 0.698552 151.943 0.551489C150.525 0.117651 149.665 0.639727 149.65 2.01477C149.628 4.9634 149.65 7.91938 149.65 10.868C149.65 229.566 149.65 448.257 149.65 666.956C148.761 667.096 147.871 667.132 146.982 666.926C147.247 665.978 147.129 665.007 147.129 664.051C147.129 443.831 147.129 223.603 147.129 3.38246C147.129 2.67656 147.114 1.97065 147.1 1.26475C146.218 0.191183 145.123 0.191183 144.226 1.26475C144.226 1.97065 144.204 2.67656 144.204 3.38246C144.204 223.551 144.204 443.713 144.204 663.882C144.204 664.912 144.197 665.934 144.189 666.963C143.219 667.14 142.256 667.14 141.286 666.948C141.286 665.919 141.286 664.897 141.286 663.867C141.286 443.632 141.286 223.404 141.286 3.16922C141.286 2.72068 141.264 2.27213 141.286 1.82359C141.33 1.00003 141.088 0.48531 140.022 0.48531C138.964 0.48531 138.714 0.985327 138.758 1.81624C138.78 2.26478 138.758 2.71332 138.758 3.16187C138.758 223.522 138.758 443.882 138.758 664.242C138.758 665.14 138.758 666.037 138.758 666.941C137.516 667.14 136.267 667.14 135.025 666.941C135.025 666.235 135.017 665.529 135.017 664.823C135.017 443.632 135.017 222.449 135.017 1.25739C134.157 0.18383 133.334 0.18383 132.504 1.26475C132.504 1.84565 132.504 2.4192 132.504 3.0001C132.504 223.228 132.504 443.456 132.504 663.684C132.504 664.772 132.504 665.868 132.496 666.956C130.968 667.154 129.446 667.132 127.918 666.971C127.918 665.816 127.903 664.662 127.903 663.507C127.903 443.596 127.903 223.684 127.903 3.77954C127.903 2.94863 127.888 2.11036 127.881 1.27945C126.962 0.16177 125.514 0.16177 124.596 1.27945C124.588 1.79418 124.574 2.3089 124.574 2.81627C124.574 223.426 124.574 444.037 124.574 664.647C124.574 665.412 124.5 666.191 124.728 666.941C123.846 667.132 122.957 667.088 122.067 666.963C122.053 666.47 122.038 665.978 122.023 665.485C122.031 664.779 122.053 664.073 122.053 663.367C122.053 443.434 122.053 223.507 122.053 3.57365C122.053 2.80156 122.031 2.03683 122.023 1.26475C121.149 0.198536 120.054 0.198536 119.135 1.26475C119.135 1.77947 119.128 2.29419 119.128 2.80156C119.128 223.221 119.128 443.64 119.128 664.059C119.128 665.022 119.128 665.985 119.12 666.948C117.878 667.14 116.629 667.154 115.387 666.941C115.387 666.11 115.387 665.272 115.387 664.441C115.387 444.015 115.387 223.596 115.387 3.16922C115.387 2.6545 115.365 2.13978 115.387 1.63241C115.416 0.80885 114.99 0.500017 114.115 0.500017C113.233 0.500017 112.829 0.83091 112.858 1.63976C112.881 2.21331 112.858 2.79421 112.858 3.37511C112.858 223.669 112.858 443.963 112.858 664.265C112.858 665.162 112.858 666.059 112.851 666.963C111.741 667.154 110.639 667.154 109.529 666.963C109.529 653.742 109.522 640.521 109.522 627.307C109.522 419.264 109.522 211.22 109.522 3.17658C109.522 2.59567 109.522 2.02213 109.507 1.44122C109.5 1.0368 109.382 0.705906 108.89 0.558842C107.471 0.132357 106.641 0.64708 106.597 2.02213C106.582 2.40449 106.597 2.79421 106.597 3.17658C106.597 223.221 106.597 443.265 106.597 663.309C106.597 664.529 106.589 665.75 106.582 666.963C105.752 667.147 104.921 667.14 104.091 666.963C104.076 666.596 104.069 666.235 104.054 665.868C104.061 665.162 104.076 664.456 104.076 663.75C104.076 443.691 104.076 223.632 104.076 3.57365C104.076 2.80156 104.054 2.03683 104.039 1.26475C103.165 0.198536 102.077 0.198536 101.158 1.26475C101.158 1.77947 101.151 2.29419 101.151 2.80156C101.151 223.154 101.151 443.515 101.151 663.867C101.151 664.897 101.151 665.919 101.143 666.948C100.173 667.14 99.2105 667.14 98.2404 666.948C98.2404 627.227 98.233 587.505 98.233 547.783C98.233 366.306 98.233 184.83 98.233 3.35305C98.233 2.71332 98.2257 2.06624 98.2183 1.42652C98.2183 0.911795 97.9905 0.610314 97.3878 0.50737C95.8665 0.250008 95.3447 0.602961 95.3006 2.00742C95.2859 2.38978 95.3006 2.7795 95.3006 3.16187C95.3006 223.338 95.3006 443.507 95.3006 663.684C95.3006 664.772 95.2932 665.868 95.2859 666.956C94.3157 667.132 93.3456 667.132 92.3828 666.956C92.3828 665.735 92.3755 664.515 92.3755 663.301C92.3755 443.257 92.3755 223.221 92.3755 3.17658C92.3755 2.66185 92.3534 2.14713 92.3755 1.63976C92.4122 0.823557 91.9933 0.500017 91.1114 0.500017C90.2294 0.500017 89.8179 0.823557 89.8546 1.63976C89.8767 2.15448 89.8546 2.66921 89.8546 3.17658C89.8546 223.537 89.8546 443.897 89.8546 664.265C89.8546 665.162 89.8546 666.059 89.8399 666.963C88.8698 667.147 87.907 667.14 86.9369 666.963C86.9369 666.191 86.9295 665.426 86.9295 664.654C86.9295 444.228 86.9295 223.809 86.9295 3.38246C86.9295 2.67656 86.9148 1.97065 86.9075 1.26475C86.0108 0.198536 84.9158 0.205889 84.0338 1.26475C84.0265 2.09566 84.0044 2.93392 84.0044 3.76483C84.0044 223.699 84.0044 443.625 84.0044 663.559C84.0044 664.331 84.0191 665.095 84.0191 665.868C84.0118 666.228 83.9971 666.596 83.9897 666.956C82.88 667.14 81.7775 667.14 80.6678 666.956C80.6678 666.059 80.6531 665.162 80.6531 664.257C80.6531 444.287 80.6531 224.309 80.6531 4.33838C80.6531 3.30893 80.6384 2.28684 80.6384 1.25739C79.8226 0.18383 78.9921 0.18383 78.1395 1.25739C77.5075 2.13242 77.7353 3.11775 77.7353 4.06631C77.728 223.941 77.728 443.816 77.728 663.691C77.728 664.779 77.7206 665.875 77.7133 666.963C76.3242 667.132 74.9352 667.132 73.5461 666.963C73.5461 665.934 73.5314 664.912 73.5314 663.882C73.5314 443.779 73.5314 223.676 73.5314 3.57365C73.5314 2.80156 73.5167 2.03683 73.5094 1.26475C72.5907 0.147064 71.1428 0.147064 70.2242 1.26475C70.2168 1.97065 70.2021 2.67656 70.2021 3.38246C70.2021 223.551 70.2021 443.72 70.2021 663.882C70.2021 664.912 70.1948 665.934 70.1874 666.963C69.2173 667.118 68.2471 667.14 67.2844 666.934C67.2844 666.037 67.2844 665.14 67.2844 664.242C67.2844 443.882 67.2844 223.522 67.2844 3.16187C67.2844 2.64715 67.2623 2.13242 67.2844 1.62505C67.3211 0.80885 66.9022 0.48531 66.0202 0.48531C65.1457 0.48531 64.7194 0.801497 64.7561 1.62505C64.7782 2.0736 64.7561 2.52214 64.7561 2.97069C64.7561 224.294 64.7561 445.618 64.7561 666.934C63.5802 667.096 62.4117 667.11 61.2357 666.934C61.5224 665.919 61.3974 664.89 61.3974 663.867C61.3974 444 61.3974 224.125 61.3974 4.25749C61.3974 3.74277 61.368 3.22805 61.3974 2.72068C61.4342 2.1839 61.2357 1.71329 60.9859 1.25004C60.1407 0.176476 59.3102 0.176476 58.487 1.25004C58.487 1.88977 58.4723 2.53685 58.4723 3.17658C58.4723 223.338 58.4723 443.507 58.4723 663.669C58.4723 664.757 58.4723 665.853 58.465 666.941C57.3552 667.132 56.2528 667.132 55.143 666.941C55.143 665.978 55.1357 665.015 55.1357 664.051C55.1357 444.206 55.1357 224.368 55.1357 4.52221C55.1357 3.43394 55.1283 2.33831 55.121 1.25004C54.2096 0.18383 53.1219 0.18383 52.2326 1.25004C52.2326 1.63241 52.2326 2.02213 52.2326 2.40449C52.2326 3.2354 52.2106 4.07366 52.2106 4.90457C52.2106 224.493 52.2106 444.088 52.2106 663.676C52.2106 664.765 52.2106 665.86 52.2032 666.948C51.3727 667.118 50.5422 667.125 49.7191 666.948C49.7191 654.882 49.7117 642.823 49.7117 630.756C49.7117 421.558 49.7117 212.353 49.7117 3.15452C49.7117 2.57361 49.7117 2.00007 49.697 1.41916C49.6897 1.01474 49.5795 0.683846 49.0797 0.536782C47.6539 0.110298 46.8307 0.625021 46.7793 1.99271C46.7646 2.37508 46.7793 2.7648 46.7793 3.14716C46.7793 223.449 46.7793 443.75 46.7793 664.051C46.7793 665.015 46.7793 665.978 46.7646 666.941C45.7945 667.125 44.8317 667.118 43.8616 666.941C43.8616 665.912 43.8542 664.89 43.8542 663.86C43.8542 444.206 43.8542 224.552 43.8542 4.89722C43.8542 4.06631 43.8469 3.22805 43.8395 2.39714C43.8395 2.01477 43.8395 1.62505 43.8322 1.24269C42.9429 0.176476 41.8404 0.176476 40.9512 1.24269C40.9512 1.88242 40.9512 2.52214 40.9438 3.16187C40.9438 4.05896 40.9291 4.95605 40.9291 5.85313C40.9291 224.993 40.9291 444.132 40.9291 663.272C40.9291 664.492 40.9218 665.713 40.9144 666.926C39.9443 667.103 38.9815 667.103 38.0114 666.919C38.0114 666.279 38.004 665.64 38.004 664.992C38.004 443.735 38.004 222.478 38.004 1.22063C37.1441 0.147064 36.3283 0.147064 35.4905 1.22798C35.4905 222.037 35.4905 442.845 35.4905 663.654C35.4905 664.742 35.4905 665.838 35.4831 666.926C34.513 667.103 33.5429 667.103 32.5801 666.926C32.5801 666.029 32.5728 665.132 32.5728 664.235C32.5728 444.456 32.5728 224.669 32.5728 4.88987C32.5728 4.05896 32.5654 3.22069 32.558 2.38978C32.558 2.00742 32.558 1.62505 32.558 1.23533C31.6467 0.16177 30.5516 0.16177 29.6624 1.23533C29.6624 1.87506 29.6624 2.51479 29.6624 3.15452C29.655 3.98543 29.633 4.82369 29.633 5.6546C29.633 224.927 29.633 444.198 29.633 663.47C29.633 664.625 29.6256 665.779 29.6183 666.934C28.5085 667.096 27.3987 667.118 26.2963 666.919C26.2963 665.831 26.2889 664.735 26.2889 663.647C26.2889 444.25 26.2889 224.86 26.2889 5.46342C26.2889 4.56633 26.2889 3.66924 26.2816 2.7648C26.2816 2.25007 26.2816 1.7427 26.2816 1.22798C25.4584 0.147064 24.628 0.147064 23.7754 1.22798C23.7754 221.963 23.7754 442.706 23.7754 663.441C23.7754 664.595 23.7754 665.75 23.7681 666.904C22.1071 667.118 20.4388 667.125 18.7778 666.904C18.7778 665.875 18.7704 664.853 18.7704 663.823C18.7704 444.11 18.7704 224.397 18.7704 4.68398C18.7704 3.52953 18.7704 2.37508 18.7631 1.22063C17.837 0.154417 16.7493 0.154417 15.8747 1.22063C15.8674 1.80153 15.8453 2.37508 15.8453 2.95598C15.8453 223.5 15.8453 444.044 15.8453 664.588C15.8453 665.353 15.7645 666.132 15.9923 666.882C14.9707 667.088 13.9492 667.096 12.9202 666.912C12.9202 666.015 12.9055 665.117 12.9055 664.22C12.9055 444.184 12.9055 224.147 12.9055 4.11043C12.9055 3.14716 12.8908 2.1839 12.8835 1.22063C11.9868 0.154417 10.8918 0.154417 10.0098 1.22063C10.0025 1.80153 9.98044 2.37508 9.98044 2.95598C9.98044 223.5 9.98044 444.044 9.98044 664.588C9.98044 665.353 9.89959 666.132 10.1348 666.882L9.98779 666.948L9.8261 666.904C9.58357 666.706 9.36308 666.735 9.1573 666.956C8.45175 667.081 7.73885 667.081 7.0333 666.956C6.90101 666.831 6.77606 666.706 6.64377 666.573C6.64377 665.934 6.62908 665.287 6.62908 664.647C6.62908 444.596 6.62908 224.544 6.62908 4.48544C6.62908 3.77954 6.62173 3.07363 6.61438 2.36773C6.61438 1.98536 6.61438 1.60299 6.61438 1.21328C5.70304 0.132357 4.60062 0.132357 3.71868 1.22063L3.73338 3.13246C3.71868 3.96337 3.69663 4.80163 3.69663 5.63254C3.69663 224.713 3.69663 443.801 3.69663 662.882C3.69663 664.228 3.69663 665.581 3.69663 666.926C2.71915 667.081 1.74902 667.11 0.778887 666.89C0.778887 665.095 0.778887 663.294 0.778887 661.5C0.778887 442.684 0.778887 223.868 0.778887 5.05164C0.778887 3.76483 0.778887 2.48538 0.778887 1.19857C0.44081 -0.080885 -0.646913 0.558842 -1.37451 0.382366C-1.37451 0.257361 -1.37451 0.125004 -1.37451 0C123.839 0 249.059 0 374.272 0Z" fill="#5C302A"/>
<path d="M116.43 468.949C124.118 480.214 131.622 491.215 139.221 502.355C131.563 513.054 123.941 523.701 116.232 534.466C123.89 545.709 131.526 556.915 139.17 568.151C131.438 579.012 123.802 589.733 116.019 600.674C108.39 589.659 100.923 578.879 93.4264 568.055C93.6763 567.636 93.8821 567.254 94.132 566.894C100.298 558.018 106.464 549.143 112.631 540.26C113.564 538.915 114.446 537.532 115.409 536.216C116.033 535.363 115.982 534.65 115.387 533.804C112.917 530.326 110.477 526.811 108.037 523.311C103.436 516.715 98.843 510.112 94.2496 503.509C93.9703 503.105 93.7204 502.671 93.3823 502.119C101.011 491.141 108.625 480.17 116.423 468.949H116.43Z" stroke="#60423E" stroke-width="2" stroke-miterlimit="10"/>
<path d="M304.078 468.927C311.773 480.244 319.232 491.2 326.773 502.289C319.24 513.186 311.515 523.686 303.901 534.481C311.501 545.665 319.1 556.827 326.788 568.136C319.093 578.982 311.493 589.674 303.791 600.527C303.35 600.057 302.99 599.755 302.725 599.373C300.293 595.858 297.882 592.314 295.449 588.799C291.01 582.387 286.549 575.997 282.103 569.592C281.75 569.085 281.441 568.548 281.066 567.945C282.264 566.217 283.396 564.563 284.543 562.916C289.93 555.165 295.317 547.423 300.704 539.68C301.454 538.599 302.189 537.496 302.916 536.393C303.776 535.091 303.798 534.959 302.931 533.701C300.535 530.238 298.117 526.789 295.714 523.333C291.15 516.782 286.586 510.223 282.029 503.664C281.713 503.208 281.441 502.715 281.059 502.105C288.673 491.134 296.258 480.207 304.085 468.927H304.078Z" stroke="#60423E" stroke-width="2" stroke-miterlimit="10"/>
<path d="M69.1659 600.564C61.5813 589.615 54.1509 578.887 46.6251 568.026C47.2204 567.107 47.801 566.144 48.433 565.232C54.3273 556.776 60.229 548.327 66.1233 539.871C66.9831 538.635 67.7769 537.334 68.6809 536.135C69.2762 535.341 69.2541 534.746 68.6809 533.937C66.1673 530.407 63.7053 526.841 61.2212 523.289C56.5836 516.635 51.9535 509.987 47.3233 503.325C47.0807 502.972 46.8823 502.583 46.603 502.105C54.2171 491.141 61.8091 480.214 69.4967 469.133C69.8935 469.552 70.2169 469.81 70.4447 470.14C74.8838 476.633 79.3229 483.126 83.7326 489.641C86.3049 493.443 88.8258 497.281 91.3614 501.105C92.2139 502.384 92.2066 502.392 91.3761 503.568C86.2682 510.804 81.1603 518.039 76.0377 525.275C74.1489 527.944 72.2674 530.613 70.2978 533.223C69.5996 534.15 69.6216 534.782 70.2831 535.731C75.6041 543.444 80.881 551.195 86.1506 558.952C88.0174 561.71 89.8106 564.526 91.6627 567.291C92.1331 567.997 92.0302 568.511 91.5598 569.173C86.0845 576.842 80.6311 584.534 75.1852 592.225C73.4801 594.637 71.8044 597.078 70.1067 599.498C69.8935 599.799 69.6216 600.042 69.1586 600.556L69.1659 600.564Z" stroke="#60423E" stroke-width="2" stroke-miterlimit="10"/>
<path d="M185.861 502.34C183.774 505.296 181.833 508.076 179.856 510.826C177.005 514.811 174.131 518.774 171.272 522.753C168.781 526.216 166.282 529.687 163.798 533.157C162.872 534.451 162.886 534.466 163.798 535.804C169.214 543.753 174.638 551.695 180.055 559.636C181.966 562.438 183.855 565.239 185.824 568.144C178.159 578.909 170.523 589.622 162.725 600.571C162.24 599.983 161.828 599.564 161.49 599.079C158.242 594.373 155 589.659 151.781 584.931C149.621 581.762 147.526 578.548 145.358 575.379C144.013 573.409 142.587 571.497 141.213 569.548C140.169 568.063 140.154 568.041 141.139 566.592C142.866 564.041 144.63 561.519 146.372 558.974C149.929 553.79 153.472 548.599 157.036 543.422C158.638 541.091 160.27 538.782 161.872 536.452C162.835 535.054 162.85 535.025 161.894 533.65C158.499 528.745 155.067 523.87 151.671 518.958C148.063 513.738 144.513 508.473 140.889 503.267C140.316 502.443 140.324 501.892 140.904 501.083C142.771 498.48 144.557 495.818 146.365 493.171C149.951 487.935 153.531 482.685 157.132 477.457C159.05 474.67 160.998 471.905 163.07 468.935C170.714 480.133 178.247 491.178 185.854 502.333L185.861 502.34Z" stroke="#60423E" stroke-width="2" stroke-miterlimit="10"/>
<path d="M116.791 135.512C124.456 146.718 131.938 157.652 139.53 168.748C131.909 179.44 124.272 190.161 116.57 200.962C124.243 212.235 131.85 223.397 139.559 234.721C131.872 245.442 124.206 256.126 116.386 267.031C108.75 256.082 101.283 245.383 93.7427 234.574C94.9112 232.861 96.0284 231.199 97.1675 229.552C103.187 220.875 109.213 212.205 115.24 203.536C115.416 203.279 115.585 203.007 115.784 202.764C116.453 201.948 116.35 201.19 115.762 200.345C113.674 197.359 111.646 194.323 109.566 191.33C104.51 184.058 99.4385 176.793 94.3674 169.52C94.191 169.263 94.044 168.983 93.7794 168.542C101.371 157.638 108.986 146.703 116.791 135.497V135.512Z" stroke="#60423E" stroke-width="2" stroke-miterlimit="10"/>
<path d="M304.261 201.043C311.89 212.257 319.46 223.375 326.956 234.405C325.861 236.67 305.768 264.957 303.93 266.825C296.331 256.214 289.04 245.405 281.412 234.669C282.154 233.486 282.815 232.353 283.558 231.28C288.68 223.89 293.818 216.514 298.947 209.139C300.344 207.132 301.77 205.139 303.159 203.117C304.166 201.646 304.166 201.529 303.181 200.087C299.484 194.69 295.787 189.293 292.061 183.918C288.842 179.263 285.586 174.638 282.352 169.998C282.036 169.542 281.772 169.05 281.456 168.52C289.07 157.586 296.632 146.725 304.195 135.865C305.481 136.828 324.744 164.748 326.964 168.851C319.614 179.631 311.684 190.117 304.254 201.043H304.261Z" stroke="#60423E" stroke-width="2" stroke-miterlimit="10"/>
<path d="M163.431 135.512C171.074 146.681 178.556 157.623 186.163 168.733C185.09 170.27 183.994 171.859 182.877 173.425C176.608 182.227 170.339 191.043 164.033 199.815C163.401 200.69 163.387 201.301 163.997 202.183C169.428 210.051 174.837 217.934 180.232 225.824C182.216 228.728 184.149 231.669 186.207 234.743C178.534 245.427 170.868 256.111 163.107 266.913C162.652 266.398 162.336 266.112 162.1 265.766C157.625 259.31 153.149 252.846 148.688 246.376C146.262 242.861 143.866 239.317 141.397 235.831C140.743 234.912 140.677 234.272 141.375 233.316C143.05 231.044 144.601 228.669 146.203 226.331C150.032 220.72 153.854 215.103 157.691 209.507C159.183 207.33 160.733 205.191 162.247 203.021C163.24 201.61 163.24 201.587 162.284 200.19C157.735 193.543 153.193 186.903 148.636 180.263C146.218 176.741 143.807 173.212 141.331 169.733C140.721 168.873 140.64 168.27 141.309 167.388C142.933 165.233 144.476 163.005 146.005 160.785C150.032 154.931 154.031 149.056 158.058 143.203C159.763 140.725 161.505 138.269 163.431 135.512Z" stroke="#60423E" stroke-width="2" stroke-miterlimit="10"/>
<path d="M69.5333 266.943C61.9118 256.03 54.4815 245.376 46.9336 234.559C48.2565 232.64 49.5647 230.743 50.8803 228.846C55.4663 222.235 60.0598 215.625 64.6532 209.022C66.0496 207.007 67.468 205.007 68.8644 202.992C69.8199 201.61 69.8199 201.565 68.8424 200.161C61.8604 190.087 54.871 180.021 47.8817 169.947C47.595 169.535 47.3305 169.108 46.985 168.586C54.6212 157.623 62.2499 146.667 69.9889 135.556C70.7459 136.622 71.3706 137.468 71.9659 138.343C77.3164 146.189 82.6594 154.042 87.9952 161.895C89.2666 163.763 90.4646 165.689 91.8022 167.513C92.4269 168.366 92.5004 168.947 91.8536 169.851C86.3636 177.506 80.9176 185.19 75.4716 192.881C73.8327 195.19 72.282 197.573 70.621 199.852C69.9889 200.72 69.9816 201.33 70.5989 202.213C73.3991 206.235 76.1404 210.308 78.8891 214.375C83.1224 220.625 87.3484 226.875 91.567 233.133C92.618 234.692 92.618 234.714 91.7434 235.949C88.3112 240.831 84.879 245.721 81.4247 250.589C77.897 255.56 74.3398 260.509 70.79 265.465C70.4666 265.913 70.0845 266.31 69.5406 266.95L69.5333 266.943Z" stroke="#60423E" stroke-width="2" stroke-miterlimit="10"/>
<path d="M279.839 568.078C272.173 578.96 264.625 589.681 256.96 600.571C256.46 599.99 256.07 599.615 255.769 599.182C251.433 592.858 247.119 586.505 242.768 580.196C240.269 576.571 237.697 573.004 235.169 569.409C234.243 568.085 234.22 568.048 235.102 566.761C239.387 560.548 243.694 554.357 247.993 548.15C250.713 544.224 253.447 540.297 256.159 536.371C256.438 535.966 256.658 535.503 256.997 534.9C255.843 533.282 254.659 531.672 253.52 530.032C249.978 524.907 246.472 519.767 242.93 514.649C240.35 510.929 237.726 507.252 235.132 503.539C234.243 502.267 234.22 502.222 235.132 500.892C238.042 496.634 240.975 492.391 243.914 488.156C247.964 482.317 252.028 476.494 256.085 470.663C256.438 470.155 256.805 469.663 257.305 468.986C264.853 480.17 272.305 491.2 279.861 502.406C279.185 503.325 278.486 504.274 277.803 505.23C274.282 510.127 270.747 515.01 267.256 519.936C265.588 522.289 264.03 524.738 262.376 527.106C261.009 529.062 259.547 530.944 258.18 532.907C257.07 534.496 257.099 534.532 258.224 536.187C260.238 539.15 262.273 542.106 264.28 545.077C268.748 551.695 273.209 558.32 277.678 564.938C278.376 565.975 279.096 567.011 279.846 568.1L279.839 568.078Z" stroke="#60423E" stroke-width="2" stroke-miterlimit="10"/>
<path d="M45.5373 568.085C37.8938 578.931 30.3386 589.659 22.5996 600.63C14.8753 589.769 7.67278 578.74 -0.117676 568.07C2.16801 564.761 4.36551 561.555 6.58505 558.364C10.1716 553.202 13.7655 548.047 17.3447 542.885C18.8513 540.716 20.358 538.547 21.8352 536.363C22.7319 535.047 22.7392 535.003 21.8352 533.687C18.4398 528.782 15.0296 523.885 11.6121 518.988C7.98145 513.781 4.34346 508.59 0.705466 503.391C0.455584 503.031 0.242449 502.649 -0.0662294 502.134C7.54783 491.17 15.1766 480.185 22.967 468.964C30.5444 480.17 38.0188 491.222 45.5594 502.384C43.3325 505.509 41.1056 508.627 38.8934 511.745C35.5788 516.399 32.2788 521.069 28.9642 525.723C27.3326 528.025 25.6717 530.304 24.0621 532.628C22.7907 534.473 22.8201 534.488 24.0107 536.26C30.1989 545.437 36.3872 554.621 42.5755 563.798C43.553 565.246 44.5598 566.68 45.5226 568.077L45.5373 568.085Z" stroke="#60423E" stroke-width="2" stroke-miterlimit="10"/>
<path d="M187.559 502.215C195.239 491.097 202.801 480.141 210.496 469.001C218.103 480.148 225.629 491.193 233.162 502.244C232.883 502.73 232.699 503.142 232.449 503.487C228.422 509.098 224.365 514.686 220.345 520.297C217.273 524.583 214.223 528.885 211.187 533.201C210.283 534.488 210.305 534.532 211.209 535.856C216.383 543.444 221.579 551.018 226.753 558.607C228.877 561.724 230.972 564.857 233.192 568.151C225.533 578.916 217.868 589.681 210.099 600.593C202.552 589.644 195.143 578.901 187.595 567.96C188.712 566.342 189.874 564.651 191.042 562.96C195.768 556.136 200.501 549.32 205.212 542.481C206.601 540.466 207.939 538.4 209.291 536.356C210.166 535.032 210.188 535.01 209.276 533.687C203.463 525.245 197.635 516.811 191.814 508.377C190.425 506.362 189.029 504.347 187.551 502.208L187.559 502.215Z" stroke="#60423E" stroke-width="2" stroke-miterlimit="10"/>
<path d="M45.89 168.814C43.6998 171.903 41.517 174.969 39.3342 178.043C36.0196 182.697 32.6903 187.344 29.3977 192.014C27.6265 194.528 25.892 197.073 24.1576 199.624C23.2095 201.014 23.2095 201.051 24.1576 202.463C29.4933 210.389 34.8437 218.316 40.1941 226.235C42.0903 229.044 43.9938 231.846 45.9194 234.692C38.2759 245.457 30.6913 256.133 22.9522 267.031C15.3529 256.148 7.88581 245.449 0.337891 234.64C0.977296 233.633 1.57995 232.611 2.25611 231.647C8.7457 222.309 15.25 212.985 21.7543 203.654C21.9307 203.396 22.1144 203.139 22.2834 202.874C23.0698 201.661 23.0919 201.507 22.2834 200.323C20.2697 197.352 18.2559 194.389 16.2128 191.447C11.1196 184.124 6.00434 176.815 0.896451 169.498C0.720064 169.241 0.573074 168.954 0.34524 168.572C7.95196 157.645 15.5881 146.689 23.3418 135.556C30.8897 146.696 38.32 157.66 45.89 168.822V168.814Z" stroke="#60423E" stroke-width="2" stroke-miterlimit="10"/>
<path d="M187.934 234.522C189.675 232 191.388 229.522 193.108 227.051C197.598 220.603 202.103 214.169 206.579 207.705C207.763 205.999 208.821 204.212 209.975 202.484C210.445 201.786 210.35 201.205 209.909 200.558C206.947 196.183 204.029 191.778 201.03 187.433C196.716 181.168 192.358 174.947 187.963 168.63C195.555 157.667 203.125 146.74 210.849 135.578C218.434 146.659 225.93 157.615 233.545 168.741C225.923 179.44 218.294 190.153 210.585 200.97C218.309 212.294 225.916 223.456 233.596 234.714C225.886 245.457 218.228 256.141 210.445 266.979C202.86 256.052 195.43 245.339 187.919 234.522H187.934Z" stroke="#60423E" stroke-width="2" stroke-miterlimit="10"/>
<path d="M116.791 0.816162C124.471 12.0739 131.968 23.0669 139.604 34.2584C131.894 45.0456 124.206 55.818 116.387 66.7595C108.758 55.7739 101.276 45.0014 93.6914 34.0893C101.364 23.0301 108.978 12.0665 116.791 0.816162Z" stroke="#60423E" stroke-width="2" stroke-miterlimit="10"/>
<path d="M304.041 66.7668C296.39 55.7517 288.908 44.9867 281.338 34.0819C288.997 23.0448 296.581 12.1253 304.328 0.955811C304.805 1.54407 305.202 1.97055 305.526 2.45586C310.244 9.35315 314.962 16.2504 319.666 23.1624C322.106 26.7434 324.517 30.3538 327.067 34.126C319.769 45.2587 311.692 55.6856 304.041 66.7668Z" stroke="#60423E" stroke-width="2" stroke-miterlimit="10"/>
<path d="M116.724 68.7449C124.662 79.8114 131.989 90.9147 139.596 101.952C131.857 112.783 124.199 123.497 116.394 134.431C108.779 123.482 101.276 112.68 93.6689 101.746C101.334 90.775 108.941 79.885 116.724 68.7375V68.7449Z" stroke="#60423E" stroke-width="2" stroke-miterlimit="10"/>
<path d="M163.482 0.889677C171.096 12.0445 178.629 23.0816 186.251 34.2584C178.548 45.0235 170.89 55.7371 163.063 66.6786C162.38 65.7374 161.828 65.0094 161.306 64.2594C157.205 58.3842 153.097 52.5237 149.026 46.6265C146.49 42.9572 144.006 39.2439 141.514 35.5379C140.507 34.0378 140.53 34.0305 141.544 32.5525C145.417 26.8979 149.261 21.2212 153.156 15.574C156.368 10.9121 159.623 6.29427 162.865 1.65441C163.004 1.45587 163.166 1.2794 163.482 0.882324V0.889677Z" stroke="#60423E" stroke-width="2" stroke-miterlimit="10"/>
<path d="M69.5407 66.6565C61.8752 55.6267 54.4228 44.9058 46.9043 34.0819C54.5992 23.0007 62.2206 12.0224 70.1654 0.580811C70.3932 1.11759 70.4741 1.44849 70.6431 1.69849C76.1993 9.86788 81.7702 18.0152 87.3191 26.1919C88.8331 28.4273 90.2736 30.7215 91.7582 32.9789C92.5666 34.2143 92.596 34.229 91.7361 35.4717C88.2598 40.4792 84.7982 45.4941 81.2852 50.4648C77.8383 55.34 74.3326 60.171 70.8489 65.0168C70.4961 65.5094 70.0919 65.9653 69.5407 66.6565Z" stroke="#60423E" stroke-width="2" stroke-miterlimit="10"/>
<path d="M116.423 334.496C124.133 345.703 131.644 356.615 139.258 367.681C131.556 378.461 123.898 389.167 116.034 400.168C108.39 389.197 100.842 378.498 93.3311 367.461C100.945 356.585 108.567 345.703 116.416 334.496H116.423Z" stroke="#60423E" stroke-width="2" stroke-miterlimit="10"/>
<path d="M69.6142 134.438C61.934 123.394 54.4522 112.621 46.897 101.761C54.6066 90.8044 62.0222 79.7453 70.136 68.6787C70.4006 69.1787 70.5256 69.4729 70.7019 69.7376C75.2586 76.3701 79.8374 82.9954 84.3793 89.6353C86.7606 93.1133 89.0904 96.6208 91.4348 100.121C91.648 100.437 91.8023 100.79 92.0301 101.084C92.4711 101.672 92.4491 102.187 92.0081 102.805C88.8772 107.202 85.7831 111.629 82.6669 116.041C79.8374 120.041 76.9931 124.033 74.1562 128.034C72.7084 130.078 71.2532 132.122 69.6069 134.446L69.6142 134.438Z" stroke="#60423E" stroke-width="2" stroke-miterlimit="10"/>
<path d="M304.078 69.0684C305.908 70.4655 324.906 98.0399 327.008 102.202C319.445 112.812 311.809 123.526 304.048 134.416C302.747 132.578 301.542 130.916 300.373 129.232C294.354 120.555 288.342 111.879 282.338 103.194C281.346 101.761 281.353 101.746 282.294 100.393C287.953 92.2382 293.605 84.0762 299.271 75.9289C300.594 74.0244 301.976 72.164 303.328 70.2743C303.615 69.8699 303.857 69.436 304.078 69.0684Z" stroke="#60423E" stroke-width="2" stroke-miterlimit="10"/>
<path d="M163.497 68.7375C171.148 79.8923 178.644 90.8265 186.258 101.93C178.548 112.717 170.861 123.46 163.026 134.416C161.895 132.806 160.895 131.379 159.903 129.953C156.169 124.585 152.428 119.232 148.717 113.849C146.255 110.276 143.844 106.665 141.419 103.07C140.53 101.753 140.522 101.739 141.434 100.415C143.183 97.8782 144.961 95.3634 146.703 92.8192C150.481 87.3264 154.222 81.8115 158.021 76.3334C159.734 73.8554 161.534 71.4509 163.497 68.7375Z" stroke="#60423E" stroke-width="2" stroke-miterlimit="10"/>
<path d="M326.663 367.953C319.063 378.608 311.464 389.27 303.666 400.204C295.993 389.167 288.519 378.417 280.934 367.505C288.636 356.519 296.25 345.651 303.864 334.776C305.268 335.989 324.913 364.578 326.655 367.946L326.663 367.953Z" stroke="#60423E" stroke-width="2" stroke-miterlimit="10"/>
<path d="M69.6141 334.518C70.5254 335.805 71.3192 336.908 72.0909 338.033C77.1841 345.445 82.2699 352.857 87.3484 360.284C88.8036 362.409 90.1633 364.608 91.6258 366.725C92.1035 367.424 92.0815 367.939 91.6038 368.608C87.1941 374.799 82.8064 380.998 78.4188 387.204C75.8024 390.895 73.208 394.601 70.5842 398.292C70.2021 398.829 69.7611 399.322 69.1584 400.079C61.537 389.123 54.092 378.417 46.5073 367.512C54.1875 356.541 61.8383 345.614 69.6141 334.518Z" stroke="#60423E" stroke-width="2" stroke-miterlimit="10"/>
<path d="M116.791 267.619C124.493 278.921 132.019 289.951 139.515 300.944C131.784 311.841 124.169 322.57 116.386 333.54C108.75 322.474 101.283 311.65 93.7646 300.76C101.415 289.745 109 278.825 116.791 267.612V267.619Z" stroke="#60423E" stroke-width="2" stroke-miterlimit="10"/>
<path d="M304.21 267.935C305.687 269.141 325.839 298.789 326.898 301.252C319.379 311.87 311.809 322.577 304.041 333.548C296.441 322.54 288.996 311.76 281.404 300.767C288.989 289.84 296.596 278.884 304.21 267.928V267.935Z" stroke="#60423E" stroke-width="2" stroke-miterlimit="10"/>
<path d="M162.659 400.204C161.953 399.167 161.468 398.454 160.976 397.741C158.697 394.432 156.412 391.116 154.126 387.807C149.849 381.601 145.564 375.402 141.286 369.189C140.517 368.071 140.5 366.975 141.235 365.902C144.961 360.453 148.665 354.982 152.428 349.563C155.684 344.864 159.006 340.224 162.306 335.562C162.512 335.268 162.747 334.989 163.092 334.533C170.721 345.622 178.262 356.578 185.898 367.681C178.188 378.468 170.537 389.174 162.651 400.212L162.659 400.204Z" stroke="#60423E" stroke-width="2" stroke-miterlimit="10"/>
<path d="M46.978 300.775C54.6215 289.767 62.2209 278.833 69.9158 267.751C70.3126 268.229 70.6434 268.568 70.9079 268.957C76.545 277.222 82.1821 285.48 87.8044 293.76C89.1788 295.789 90.4282 297.922 91.8466 299.914C92.4419 300.745 92.4346 301.297 91.8613 302.098C88.1866 307.267 84.5486 312.466 80.8959 317.658C77.6768 322.224 74.4577 326.798 71.2313 331.357C70.7683 332.018 70.2538 332.636 69.585 333.518C62.0151 322.547 54.57 311.768 46.9854 300.775H46.978Z" stroke="#60423E" stroke-width="2" stroke-miterlimit="10"/>
<path d="M163.099 333.459C162.644 332.901 162.313 332.548 162.034 332.151C156.838 324.511 151.656 316.863 146.453 309.231C144.895 306.944 143.249 304.731 141.668 302.466C140.412 300.664 140.448 301.003 141.558 299.377C147.129 291.237 152.693 283.09 158.286 274.965C159.917 272.59 161.608 270.259 163.46 267.641C171.081 278.811 178.6 289.833 186.177 300.944C178.482 311.79 170.838 322.562 163.099 333.467V333.459Z" stroke="#60423E" stroke-width="2" stroke-miterlimit="10"/>
<path d="M257.247 66.7596C255.115 63.6933 253.219 60.9652 251.33 58.2372C246.244 50.9061 241.151 43.575 236.065 36.2438C235.889 35.9865 235.698 35.7365 235.529 35.4718C234.632 34.0599 234.61 34.0379 235.58 32.6187C238.469 28.4274 241.379 24.2508 244.282 20.0668C248.537 13.9196 252.793 7.77231 257.048 1.62505C257.195 1.41916 257.291 1.1765 257.555 0.683838C265.213 12.0298 272.658 23.0522 280.214 34.2511C272.644 44.9647 265.044 55.7151 257.247 66.7596Z" stroke="#60423E" stroke-width="2" stroke-miterlimit="10"/>
<path d="M0.257324 34.0818C7.97428 22.9712 15.5957 12.0002 23.342 0.845459C30.9267 12.0664 38.3864 23.1035 45.927 34.2583C38.3129 45.016 30.7062 55.7664 22.9452 66.73C15.3238 55.759 7.81259 44.9499 0.257324 34.0818Z" stroke="#60423E" stroke-width="2" stroke-miterlimit="10"/>
<path d="M116.423 402.175C124.089 413.418 131.614 424.455 139.192 435.559C131.453 446.331 123.78 457.008 116.011 467.817C108.397 456.912 100.93 446.206 93.3677 435.367C101.004 424.374 108.618 413.403 116.423 402.175Z" stroke="#60423E" stroke-width="2" stroke-miterlimit="10"/>
<path d="M257.747 68.9802C265.478 79.7526 272.534 90.9736 280.265 101.864C272.607 112.702 264.993 123.475 257.254 134.438C255.718 132.262 254.344 130.328 252.991 128.387C247.296 120.188 241.607 111.982 235.911 103.783C235.735 103.525 235.595 103.224 235.389 102.996C234.596 102.128 234.765 101.364 235.411 100.459C237.852 97.0326 240.225 93.5546 242.629 90.0986C245.818 85.5102 249.001 80.9144 252.205 76.3408C253.785 74.0833 255.402 71.848 257.012 69.6052C257.151 69.4141 257.379 69.2891 257.747 68.9802Z" stroke="#60423E" stroke-width="2" stroke-miterlimit="10"/>
<path d="M257.364 334.584C264.905 345.673 272.357 356.622 279.876 367.674C272.262 378.454 264.67 389.204 256.901 400.197C256.328 399.388 255.931 398.851 255.549 398.307C253.3 395.042 251.066 391.77 248.802 388.52C244.356 382.13 239.88 375.748 235.441 369.358C234.169 367.527 234.177 367.497 235.397 365.74C239.152 360.313 242.908 354.887 246.685 349.482C250.029 344.695 253.403 339.923 256.769 335.151C256.872 335.004 257.034 334.901 257.364 334.592V334.584Z" stroke="#60423E" stroke-width="2" stroke-miterlimit="10"/>
<path d="M210.864 0.889648C218.522 12.1106 226.019 23.1036 233.633 34.2584C225.923 45.0529 218.243 55.8032 210.467 66.6933C202.904 55.7518 195.459 44.9793 187.934 34.0966C195.555 23.0669 203.14 12.0885 210.871 0.897002L210.864 0.889648Z" stroke="#60423E" stroke-width="2" stroke-miterlimit="10"/>
<path d="M326.758 634.403C319.034 645.308 311.486 655.97 303.754 666.89C303.144 666.125 302.622 665.551 302.181 664.912C295.758 655.588 289.349 646.264 282.933 636.94C282.338 636.072 281.691 635.234 280.993 634.278C288.651 623.337 296.243 612.498 303.776 601.74C304.019 601.755 304.077 601.748 304.136 601.763C304.195 601.777 304.254 601.792 304.305 601.829C304.408 601.895 304.526 601.961 304.599 602.057C304.967 602.564 305.334 603.079 305.687 603.601C312.676 613.822 319.666 624.043 326.758 634.418V634.403Z" stroke="#60423E" stroke-width="2" stroke-miterlimit="10"/>
<path d="M257.254 333.57C255.446 330.989 253.859 328.739 252.293 326.474C247.046 318.871 241.813 311.253 236.573 303.642C236.536 303.591 236.499 303.539 236.462 303.488C234.081 300.252 234.324 301.208 236.462 298.046C241.151 291.127 246.002 284.333 250.779 277.472C252.793 274.582 254.77 271.678 256.776 268.781C256.989 268.472 257.254 268.207 257.489 267.928C258.592 268.795 278.759 298.385 280.059 301.032C272.519 311.782 264.971 322.555 257.247 333.562L257.254 333.57Z" stroke="#60423E" stroke-width="2" stroke-miterlimit="10"/>
<path d="M210.475 134.357C202.927 123.453 195.467 112.673 187.912 101.761C195.504 90.8264 203.081 79.9217 210.798 68.8184C218.691 79.8187 226.041 90.9 233.625 101.952C225.894 112.776 218.214 123.526 210.475 134.357Z" stroke="#60423E" stroke-width="2" stroke-miterlimit="10"/>
<path d="M281.007 435.367C288.651 424.367 296.235 413.447 303.82 402.535C305.231 403.631 324.538 431.808 326.626 435.764C319.07 446.323 311.456 456.971 303.673 467.846C296.088 456.978 288.629 446.294 281.007 435.375V435.367Z" stroke="#60423E" stroke-width="2" stroke-miterlimit="10"/>
<path d="M116.43 601.329C124.103 612.491 131.6 623.403 139.162 634.396C131.475 645.227 123.824 656 116.026 666.993C108.383 655.926 100.93 645.139 93.3896 634.219C101.018 623.329 108.64 612.454 116.43 601.329Z" stroke="#60423E" stroke-width="2" stroke-miterlimit="10"/>
<path d="M69.2395 467.832C61.5887 456.875 54.129 446.184 46.5811 435.375C54.2172 424.382 61.8312 413.418 69.5996 402.227C70.6653 403.734 71.606 405.035 72.5174 406.366C77.3754 413.477 82.2334 420.587 87.0694 427.713C88.5466 429.897 89.9136 432.169 91.4202 434.331C92.0744 435.272 92.067 435.919 91.3835 436.853C87.7308 441.875 84.1369 446.949 80.5357 452.008C77.1476 456.765 73.7668 461.53 70.386 466.287C70.0626 466.736 69.7246 467.17 69.2322 467.832H69.2395Z" stroke="#60423E" stroke-width="2" stroke-miterlimit="10"/>
<path d="M162.644 467.846C160.983 465.471 159.476 463.324 157.977 461.169C154.89 456.736 151.796 452.309 148.717 447.868C146.211 444.25 143.726 440.625 141.235 437C140.125 435.382 140.133 435.375 141.294 433.713C142.984 431.294 144.682 428.874 146.358 426.44C150.135 420.948 153.891 415.447 157.661 409.955C159.153 407.778 160.652 405.602 162.159 403.432C162.402 403.079 162.703 402.771 163.129 402.271C170.743 413.433 178.284 424.477 185.839 435.558C178.115 446.316 170.471 456.956 162.644 467.861V467.846Z" stroke="#60423E" stroke-width="2" stroke-miterlimit="10"/>
<path d="M22.5849 400.175C14.9488 389.197 7.45969 378.432 -0.132324 367.512C7.55523 356.541 15.2134 345.607 22.9745 334.518C30.5665 345.658 38.0335 356.607 45.5815 367.674C37.96 378.446 30.3533 389.189 22.5849 400.175Z" stroke="#60423E" stroke-width="2" stroke-miterlimit="10"/>
<path d="M257.166 201.367C257.614 201.764 258.158 202.087 258.489 202.573C263.207 209.551 267.889 216.559 272.607 223.544C274.93 226.985 277.296 230.39 279.641 233.809C279.817 234.066 279.964 234.339 280.251 234.802C272.416 245.287 265.133 256.258 257.225 267.016C255.387 264.391 253.741 262.038 252.095 259.678C248.934 255.148 245.782 250.604 242.621 246.074C240.211 242.626 237.815 239.17 235.367 235.743C234.757 234.89 234.743 234.272 235.367 233.375C239.454 227.574 243.474 221.713 247.523 215.882C250.529 211.544 253.565 207.22 256.556 202.874C256.865 202.426 256.997 201.852 257.21 201.337L257.166 201.359V201.367Z" stroke="#60423E" stroke-width="2" stroke-miterlimit="10"/>
<path d="M23.4082 68.7891C31.0002 79.9585 38.4305 90.9001 45.927 101.923C38.2982 112.702 30.6989 123.445 22.9452 134.402C15.3826 123.526 7.87874 112.739 0.257324 101.783C7.91549 90.8486 15.3679 79.7821 23.4082 68.7891Z" stroke="#60423E" stroke-width="2" stroke-miterlimit="10"/>
<path d="M210.496 334.548C218.14 345.651 225.651 356.563 233.302 367.666C225.585 378.461 217.912 389.204 210.107 400.123C202.507 389.123 195.055 378.358 187.551 367.497C195.224 356.475 202.787 345.614 210.496 334.54V334.548Z" stroke="#60423E" stroke-width="2" stroke-miterlimit="10"/>
<path d="M69.651 601.307C70.5844 602.667 71.4002 603.851 72.216 605.042C75.9715 610.55 79.7198 616.064 83.468 621.579C86.1138 625.477 88.7376 629.396 91.4201 633.271C92.0081 634.124 92.1037 634.705 91.4569 635.617C87.9438 640.506 84.5116 645.463 81.0427 650.382C77.6031 655.257 74.1562 660.125 70.7093 664.993C70.283 665.596 69.8127 666.162 69.2027 666.949C61.6253 655.978 54.1803 645.19 46.6104 634.227C54.2391 623.329 61.8899 612.403 69.6583 601.307H69.651Z" stroke="#60423E" stroke-width="2" stroke-miterlimit="10"/>
<path d="M23.3418 267.641C30.9338 278.869 38.3862 289.899 45.8459 300.929C38.2318 311.775 30.6692 322.54 22.9523 333.533C15.3603 322.533 7.88583 311.701 0.330566 300.76C7.98138 289.745 15.6028 278.774 23.3418 267.634V267.641Z" stroke="#60423E" stroke-width="2" stroke-miterlimit="10"/>
<path d="M210.901 267.729C218.478 278.825 225.982 289.826 233.559 300.929C225.857 311.782 218.214 322.555 210.423 333.54C209.549 332.283 208.792 331.224 208.057 330.15C204.816 325.364 201.604 320.547 198.326 315.79C195.158 311.187 191.91 306.642 188.706 302.069C187.941 300.973 187.934 300.774 188.794 299.539C192.513 294.164 196.231 288.796 199.965 283.428C202.192 280.23 204.455 277.06 206.668 273.854C207.844 272.149 208.931 270.376 210.07 268.648C210.269 268.347 210.548 268.104 210.886 267.722L210.901 267.729Z" stroke="#60423E" stroke-width="2" stroke-miterlimit="10"/>
<path d="M163.063 601.314C170.706 612.432 178.239 623.388 185.802 634.389C178.129 645.205 170.508 655.933 162.769 666.838C162.357 666.382 162.012 666.066 161.755 665.691C156.683 658.272 151.634 650.83 146.556 643.411C144.851 640.918 143.102 638.462 141.338 636.021C140.14 634.359 140.118 634.381 141.242 632.756C146.776 624.741 152.31 616.726 157.859 608.726C159.535 606.307 161.24 603.91 163.063 601.321V601.314Z" stroke="#60423E" stroke-width="2" stroke-miterlimit="10"/>
<path d="M257.349 402.241C264.912 413.455 272.328 424.44 279.809 435.536C272.21 446.243 264.596 456.971 256.872 467.854C255.196 465.464 253.645 463.273 252.109 461.067C247.339 454.199 242.577 447.331 237.8 440.463C236.94 439.228 236.007 438.044 235.154 436.801C234.191 435.404 234.199 435.367 235.169 433.97C237.962 429.941 240.784 425.933 243.584 421.904C247.847 415.764 252.102 409.616 256.365 403.477C256.615 403.124 256.901 402.8 257.357 402.241H257.349Z" stroke="#60423E" stroke-width="2" stroke-miterlimit="10"/>
<path d="M257.21 201.345C253.587 196.065 249.978 190.771 246.34 185.499C242.768 180.329 239.167 175.19 235.588 170.035C234.581 168.586 234.559 168.55 235.595 167.057C240.056 160.674 244.539 154.307 249.001 147.924C251.588 144.218 254.153 140.497 256.74 136.784C256.982 136.431 257.261 136.1 257.695 135.549C265.221 146.674 272.666 157.682 280.14 168.741C272.504 179.594 264.846 190.477 257.18 201.36L257.217 201.338L257.21 201.345Z" stroke="#60423E" stroke-width="2" stroke-miterlimit="10"/>
<path d="M210.107 467.765C202.545 456.883 195.099 446.162 187.603 435.367C195.21 424.36 202.802 413.374 210.504 402.241C218.155 413.447 225.688 424.492 233.229 435.544C225.497 446.324 217.854 456.971 210.107 467.765Z" stroke="#60423E" stroke-width="2" stroke-miterlimit="10"/>
<path d="M-0.0664062 435.367C7.6138 424.308 15.2279 413.352 22.9742 402.204C30.5883 413.462 38.0333 424.485 45.5077 435.551C37.8937 446.257 30.309 456.934 22.5773 467.817C15.0221 456.993 7.53296 446.265 -0.0664062 435.375V435.367Z" stroke="#60423E" stroke-width="2" stroke-miterlimit="10"/>
<path d="M256.901 667C255.005 664.309 253.3 661.911 251.624 659.492C246.215 651.698 240.821 643.889 235.404 636.102C234.206 634.381 234.147 634.322 235.331 632.631C240.02 625.947 244.723 619.27 249.412 612.586C251.683 609.344 253.925 606.079 256.188 602.829C256.504 602.38 256.842 601.954 257.298 601.351C264.846 612.447 272.298 623.395 279.773 634.381C272.188 645.19 264.633 655.963 256.901 666.992V667Z" stroke="#60423E" stroke-width="2" stroke-miterlimit="10"/>
<path d="M22.982 601.343C30.5519 612.461 38.0117 623.403 45.4934 634.388C37.9088 645.183 30.3388 655.948 22.5851 666.978C15.0004 656.007 7.52602 645.19 -0.0439453 634.227C7.58482 623.329 15.243 612.402 22.982 601.351V601.343Z" stroke="#60423E" stroke-width="2" stroke-miterlimit="10"/>
<path d="M210.107 666.926C202.566 655.941 195.18 645.183 187.647 634.212C195.21 623.366 202.802 612.476 210.511 601.409C218.089 612.424 225.622 623.373 233.199 634.381C225.526 645.19 217.905 655.933 210.107 666.919V666.926Z" stroke="#60423E" stroke-width="2" stroke-miterlimit="10"/>
<path d="M350.21 468.927C357.905 480.244 365.365 491.2 372.905 502.289C365.372 513.186 357.648 523.686 350.034 534.481C357.633 545.665 365.232 556.827 372.92 568.136C365.225 578.982 357.626 589.674 349.923 600.527C349.482 600.057 349.122 599.755 348.858 599.373C346.425 595.858 344.014 592.314 341.582 588.799C337.143 582.387 332.681 575.997 328.235 569.592C327.882 569.085 327.574 568.548 327.199 567.945C328.397 566.217 329.529 564.563 330.675 562.916C336.062 555.165 341.449 547.423 346.837 539.68C347.586 538.599 348.321 537.496 349.049 536.393C349.909 535.091 349.931 534.959 349.063 533.701C346.668 530.238 344.25 526.789 341.846 523.333C337.282 516.782 332.718 510.223 328.162 503.664C327.846 503.208 327.574 502.715 327.191 502.105C334.805 491.134 342.39 480.207 350.217 468.927H350.21Z" stroke="#60423E" stroke-width="2" stroke-miterlimit="10"/>
<path d="M350.394 201.043C358.023 212.257 365.593 223.375 373.089 234.405C371.994 236.67 351.901 264.957 350.063 266.825C342.464 256.214 335.173 245.405 327.544 234.669C328.287 233.486 328.948 232.353 329.69 231.28C334.813 223.89 339.95 216.514 345.08 209.139C346.477 207.132 347.902 205.139 349.292 203.117C350.298 201.646 350.298 201.529 349.314 200.087C345.617 194.69 341.92 189.293 338.194 183.918C334.975 179.263 331.719 174.638 328.485 169.998C328.169 169.542 327.905 169.05 327.589 168.52C335.203 157.586 342.765 146.725 350.328 135.865C351.614 136.828 370.877 164.748 373.097 168.851C365.747 179.631 357.817 190.117 350.387 201.043H350.394Z" stroke="#60423E" stroke-width="2" stroke-miterlimit="10"/>
<path d="M350.173 66.7668C342.522 55.7517 335.041 44.9867 327.471 34.0819C335.129 23.0448 342.714 12.1253 350.46 0.955811C350.938 1.54407 351.334 1.97055 351.658 2.45586C356.376 9.35315 361.095 16.2504 365.798 23.1624C368.238 26.7434 370.649 30.3538 373.199 34.126C365.901 45.2587 357.824 55.6856 350.173 66.7668Z" stroke="#60423E" stroke-width="2" stroke-miterlimit="10"/>
<path d="M350.21 69.0684C352.04 70.4655 371.039 98.0399 373.141 102.202C365.578 112.812 357.942 123.526 350.181 134.416C348.88 132.578 347.675 130.916 346.506 129.232C340.487 120.555 334.475 111.879 328.471 103.194C327.478 101.761 327.486 101.746 328.426 100.393C334.086 92.2382 339.737 84.0762 345.404 75.9289C346.727 74.0244 348.108 72.164 349.461 70.2743C349.747 69.8699 349.99 69.436 350.21 69.0684Z" stroke="#60423E" stroke-width="2" stroke-miterlimit="10"/>
<path d="M372.795 367.953C365.196 378.608 357.596 389.27 349.798 400.204C342.126 389.167 334.651 378.417 327.066 367.505C334.769 356.519 342.383 345.651 349.997 334.776C351.401 335.989 371.046 364.578 372.788 367.946L372.795 367.953Z" stroke="#60423E" stroke-width="2" stroke-miterlimit="10"/>
<path d="M350.343 267.935C351.82 269.141 371.972 298.789 373.03 301.252C365.512 311.87 357.942 322.577 350.174 333.548C342.574 322.54 335.129 311.76 327.537 300.767C335.122 289.84 342.728 278.884 350.343 267.928V267.935Z" stroke="#60423E" stroke-width="2" stroke-miterlimit="10"/>
<path d="M372.891 634.403C365.166 645.308 357.618 655.97 349.887 666.89C349.277 666.125 348.755 665.551 348.314 664.912C341.891 655.588 335.482 646.264 329.066 636.94C328.47 636.072 327.824 635.234 327.125 634.278C334.784 623.337 342.376 612.498 349.909 601.74C350.151 601.755 350.21 601.748 350.269 601.763C350.328 601.777 350.387 601.792 350.438 601.829C350.541 601.895 350.659 601.961 350.732 602.057C351.099 602.564 351.467 603.079 351.82 603.601C358.809 613.822 365.798 624.043 372.891 634.418V634.403Z" stroke="#60423E" stroke-width="2" stroke-miterlimit="10"/>
<path d="M327.14 435.367C334.784 424.367 342.368 413.447 349.953 402.535C351.364 403.631 370.671 431.808 372.758 435.764C365.203 446.323 357.589 456.971 349.806 467.846C342.221 456.978 334.762 446.294 327.14 435.375V435.367Z" stroke="#60423E" stroke-width="2" stroke-miterlimit="10"/>
</svg>
