<svg width="226" height="46" viewBox="0 0 226 46" fill="none" xmlns="http://www.w3.org/2000/svg">
<path d="M7.59408 45.158C7.59408 45.158 56.6298 21.3337 112.449 23.1279C168.268 24.922 217.245 45.158 217.245 45.158L224.47 23.0323C224.47 23.0323 163.793 2.98748 112.449 1.40655C61.1057 -0.174388 1.10449 23.2823 1.10449 23.2823L7.59408 45.158Z" fill="#BA8770" stroke="#BE997C" stroke-miterlimit="10"/>
<path d="M63.1559 13.8336L64.3907 20.9735L63.0457 21.2088L61.811 14.0689L59.6061 14.4513L59.4077 13.3115L65.1477 12.3188L65.3461 13.4586L63.1559 13.841V13.8336Z" fill="#D7CEC9"/>
<path d="M67.5658 20.4366L66.3311 12.1202L67.6834 11.9216L68.139 14.9879L72.2253 14.3776L71.7697 11.3113L73.122 11.1128L74.3567 19.4292L73.0044 19.6278L72.4091 15.5909L68.3228 16.1938L68.9181 20.2381L67.5658 20.4366Z" fill="#D7CEC9"/>
<path d="M76.2232 19.194L75.2163 10.8408L79.8759 10.282L80.0155 11.4364L76.7156 11.8335L76.9655 13.9292L80.2654 13.5321L80.4124 14.7233L77.1125 15.1204L77.4359 17.819L80.7358 17.4219L80.8828 18.6352L76.2232 19.2014V19.194Z" fill="#D7CEC9"/>
<path d="M84.2857 9.77458L85.6306 9.67899L87.5194 13.8041C87.6444 14.0762 87.7473 14.3115 87.8281 14.5174C87.9163 14.7233 87.9898 14.9145 88.056 15.0983C88.1588 14.6424 88.2691 14.2012 88.3793 13.7674C88.394 13.7159 88.4087 13.6791 88.4087 13.6571L89.7757 9.05397L91.8777 13.4953C91.9806 13.7085 92.0761 13.9291 92.1643 14.1424C92.2525 14.3556 92.3407 14.5762 92.4215 14.7968C92.4509 14.6203 92.4877 14.4291 92.5391 14.2159C92.5906 14.0027 92.6567 13.7527 92.7376 13.4659L94.009 9.08338L95.3687 8.98779L92.7376 17.9366L90.4813 13.2894C90.3857 13.0835 90.2902 12.885 90.2093 12.6864C90.1285 12.4953 90.055 12.3114 89.9889 12.1423C89.9374 12.3703 89.8933 12.5909 89.8419 12.7894C89.7904 12.9879 89.739 13.1865 89.6802 13.3703L88.1368 18.2675L84.2783 9.78193L84.2857 9.77458Z" fill="#D7CEC9"/>
<path d="M96.7943 17.3999L96.5371 8.99521L101.226 8.84814L101.263 10.0099L97.9409 10.1129L98.007 12.2233L101.329 12.1203L101.366 13.3189L98.0438 13.4218L98.132 16.1352L101.454 16.0322L101.491 17.2528L96.8017 17.3999H96.7943Z" fill="#D7CEC9"/>
<path d="M102.983 17.216L103.049 8.80396L104.894 8.81866C106.092 8.82601 106.937 8.89219 107.422 9.0172C107.907 9.1422 108.333 9.34809 108.701 9.63486C109.186 10.0099 109.546 10.4878 109.796 11.0761C110.038 11.657 110.163 12.3261 110.156 13.0688C110.149 13.8115 110.016 14.4733 109.766 15.0542C109.517 15.6351 109.142 16.0983 108.649 16.4733C108.282 16.7527 107.863 16.9513 107.393 17.0689C106.922 17.1866 106.195 17.2381 105.202 17.2307H104.835L102.99 17.216H102.983ZM104.357 15.988H105.504C106.136 16.0027 106.606 15.966 106.922 15.8851C107.238 15.8042 107.518 15.6645 107.753 15.4659C108.069 15.1939 108.311 14.863 108.473 14.4585C108.635 14.0541 108.716 13.5835 108.723 13.0467C108.73 12.51 108.649 12.0394 108.495 11.6349C108.341 11.2305 108.106 10.8923 107.789 10.6128C107.554 10.4143 107.268 10.2672 106.937 10.179C106.606 10.0908 106.092 10.0466 105.386 10.0393H104.894L104.401 10.0319L104.357 15.9807V15.988Z" fill="#D7CEC9"/>
<path d="M111.604 17.3336L112.022 8.93628L113.86 9.02451C115.058 9.08334 115.896 9.18629 116.373 9.33335C116.858 9.48042 117.27 9.70101 117.623 10.0025C118.093 10.3996 118.431 10.8922 118.659 11.4878C118.88 12.0834 118.975 12.7526 118.938 13.4953C118.902 14.2379 118.74 14.8997 118.468 15.4585C118.189 16.0247 117.799 16.4806 117.292 16.8262C116.91 17.091 116.484 17.2748 116.006 17.3704C115.528 17.466 114.801 17.4954 113.808 17.4439L113.441 17.4292L111.604 17.341V17.3336ZM113.029 16.1718L114.176 16.2306C114.808 16.26 115.278 16.2453 115.602 16.1718C115.918 16.1056 116.204 15.9733 116.447 15.7894C116.778 15.5321 117.035 15.2085 117.211 14.8115C117.388 14.4144 117.49 13.9511 117.52 13.4144C117.549 12.8776 117.49 12.407 117.351 11.9952C117.211 11.5834 116.991 11.2305 116.689 10.9437C116.462 10.7305 116.182 10.576 115.859 10.4804C115.535 10.3849 115.021 10.3113 114.315 10.2746L113.823 10.2525L113.331 10.2304L113.037 16.1718H113.029Z" fill="#D7CEC9"/>
<path d="M120.261 17.8189L120.864 9.42896L122.224 9.52454L121.621 17.9145L120.261 17.8189Z" fill="#D7CEC9"/>
<path d="M123.539 18.047L124.362 9.34082L129.198 14.9587C129.33 15.1204 129.463 15.2822 129.595 15.466C129.727 15.6425 129.867 15.841 130.014 16.0616L130.558 10.26L131.815 10.3776L130.991 19.0764L126.06 13.3557C125.928 13.2012 125.803 13.0395 125.685 12.8704C125.568 12.7012 125.45 12.5248 125.347 12.3409L124.796 18.1646L123.546 18.047H123.539Z" fill="#D7CEC9"/>
<path d="M138.04 15.2527L141.347 15.6645C141.347 15.7233 141.332 15.8042 141.325 15.9071C141.303 16.1792 141.288 16.363 141.274 16.4586C141.127 17.6351 140.678 18.5028 139.929 19.069C139.179 19.6352 138.187 19.8411 136.967 19.694C136.283 19.6058 135.688 19.4293 135.173 19.1646C134.666 18.8999 134.233 18.5322 133.88 18.0763C133.535 17.6204 133.292 17.113 133.145 16.5468C132.998 15.9733 132.969 15.385 133.042 14.76C133.123 14.1276 133.299 13.5615 133.579 13.0541C133.858 12.5467 134.233 12.1202 134.71 11.7673C135.166 11.4217 135.681 11.1717 136.254 11.032C136.827 10.8922 137.422 10.8555 138.047 10.9364C138.701 11.0173 139.274 11.2084 139.767 11.5173C140.259 11.8261 140.671 12.2452 141.016 12.7894L139.936 13.4144C139.693 13.0541 139.407 12.7673 139.076 12.5688C138.745 12.3702 138.356 12.2379 137.922 12.1791C137.018 12.0688 136.247 12.2673 135.6 12.7747C134.953 13.282 134.578 14.0026 134.461 14.9291C134.343 15.8703 134.534 16.6718 135.034 17.3336C135.534 17.9881 136.239 18.3778 137.15 18.4881C137.922 18.5837 138.554 18.4807 139.047 18.1719C139.539 17.8631 139.818 17.3998 139.899 16.7748L139.914 16.6571L137.907 16.4071L138.047 15.26L138.04 15.2527Z" fill="#D7CEC9"/>
<path d="M154.87 17.8852C154.774 18.4735 154.576 19.0176 154.267 19.5029C153.959 19.9883 153.562 20.4074 153.077 20.753C152.584 21.0986 152.048 21.3339 151.482 21.4663C150.916 21.5986 150.328 21.6207 149.74 21.5251C149.145 21.4295 148.593 21.2236 148.086 20.9148C147.579 20.6059 147.153 20.2162 146.8 19.7382C146.44 19.2603 146.198 18.7382 146.065 18.1794C145.933 17.6205 145.911 17.047 146.006 16.4514C146.102 15.8558 146.3 15.319 146.609 14.8263C146.91 14.3337 147.307 13.9145 147.8 13.5689C148.292 13.2233 148.821 12.988 149.395 12.863C149.968 12.7307 150.548 12.716 151.151 12.8115C151.746 12.9071 152.298 13.1057 152.797 13.4072C153.297 13.7086 153.723 14.0984 154.084 14.5763C154.436 15.0616 154.686 15.5911 154.819 16.1499C154.951 16.7087 154.973 17.2896 154.877 17.8705L154.87 17.8852ZM153.466 17.6573C153.532 17.2382 153.525 16.8264 153.429 16.422C153.334 16.0175 153.172 15.6499 152.93 15.3043C152.694 14.966 152.408 14.694 152.062 14.4734C151.717 14.2528 151.342 14.1131 150.938 14.0469C150.526 13.9807 150.13 13.9954 149.733 14.091C149.336 14.1866 148.976 14.3557 148.638 14.6057C148.3 14.8484 148.028 15.1499 147.814 15.5028C147.601 15.8558 147.462 16.2455 147.396 16.672C147.329 17.0911 147.337 17.5029 147.432 17.9C147.52 18.297 147.69 18.6647 147.925 19.0103C148.167 19.3485 148.454 19.6279 148.799 19.8412C149.137 20.0544 149.52 20.1941 149.931 20.2603C150.335 20.3265 150.732 20.3118 151.122 20.2162C151.511 20.1206 151.879 19.9515 152.217 19.7015C152.555 19.4515 152.827 19.15 153.04 18.8044C153.253 18.4514 153.393 18.0691 153.459 17.6499L153.466 17.6573Z" fill="#D7CEC9"/>
<path d="M155.693 22.297L157.2 14.0247L161.815 14.8629L161.61 16.0027L158.339 15.4071L157.964 17.4733L161.235 18.0689L161.022 19.2528L157.751 18.6572L157.046 22.547L155.701 22.3043L155.693 22.297Z" fill="#D7CEC9"/>
</svg>
