<svg width="251" height="58" viewBox="0 0 251 58" fill="none" xmlns="http://www.w3.org/2000/svg">
<path d="M221.948 0.354736H28.8407C13.1789 0.354736 0.479004 13.061 0.479004 28.7306C0.479004 44.4003 13.1789 57.1066 28.8407 57.1066H221.956C237.617 57.1066 250.317 44.4003 250.317 28.7306C250.317 13.061 237.617 0.354736 221.956 0.354736H221.948Z" fill="#35342E"/>
<path d="M219.523 2.83276H30.6559C15.3322 2.83276 2.91895 14.4287 2.91895 28.738C2.91895 43.0473 15.3396 54.6433 30.6559 54.6433H219.523C234.847 54.6433 247.26 43.0473 247.26 28.738C247.26 14.4287 234.839 2.83276 219.523 2.83276Z" fill="#8D4F5D"/>
<path d="M26.3516 18.2539C27.5703 18.2539 28.2891 19.3789 28.5078 21.6289C28.5078 23.0352 27.3047 24.3164 24.8984 25.4727C24.7422 27.7227 24.582 28.8477 24.418 28.8477L24.6641 30.0547V35.832C24.6641 36.1523 24.5039 36.3125 24.1836 36.3125H23.457C23.2617 32.5625 23.1016 30.3164 22.9766 29.5742L23.2227 29.0938C23.2227 28.9297 23.1406 28.8477 22.9766 28.8477L23.2227 27.6406V24.0312C23.2227 20.1797 24.2656 18.2539 26.3516 18.2539ZM24.8984 22.1094V23.3164H25.3789C26.3477 22.9102 26.832 22.2656 26.832 21.3828V20.668C26.832 20.4336 26.5898 20.1914 26.1055 19.9414H25.8594C25.5078 19.9414 25.1875 20.6641 24.8984 22.1094ZM35.3633 21.3828H37.0508C38.5352 21.3828 39.418 26.7578 39.6992 37.5078L38.9727 38C38.168 38 37.7656 35.4297 37.7656 30.2891C36.8047 30.6094 34.7188 30.7695 31.5078 30.7695C31.5078 30.6133 31.4297 30.5352 31.2734 30.5352C30.6719 32.7383 30.2695 34.8242 30.0664 36.793H29.3516L29.1055 35.5859C29.1055 30.7891 30.7109 26.375 33.9219 22.3438C34.2422 22.3438 34.7227 22.0234 35.3633 21.3828ZM31.7539 28.8477H32.2344C34.1328 28.8477 35.8984 28.6055 37.5312 28.1211C37.2812 24.4336 36.8008 22.5898 36.0898 22.5898C34.2539 23.5352 32.8086 25.6211 31.7539 28.8477ZM48.9336 21.1484C49.1602 21.1484 49.4023 21.3867 49.6602 21.8633V36.5469C49.6602 36.8672 49.4961 37.0273 49.168 37.0273H48.9336C48.543 37.0273 47.3398 33.8203 45.3242 27.4062V26.9258H45.0781C44.9219 29.5742 44.8438 31.5781 44.8438 32.9375V36.3125C44.8438 36.6328 44.6836 36.793 44.3633 36.793C43.8789 36.793 43.6367 35.9102 43.6367 34.1445V22.5898C43.6836 22.2695 43.8438 22.1094 44.1172 22.1094H44.5977C45.4258 23.0938 46.5508 26.2227 47.9727 31.4961H48.207L48.4531 29.8086V26.9258C48.4531 25.8008 48.3711 24.0352 48.207 21.6289L48.9336 21.1484ZM56.1523 19.6953H57.5938C57.9141 19.75 58.0742 19.9141 58.0742 20.1875V20.4219L57.5938 21.1484V22.3438C57.5938 29.1953 57.1133 33.1289 56.1523 34.1445C54.7305 35.5898 53.6055 36.3125 52.7773 36.3125H51.8164C51.4961 36.3125 51.3359 36.1523 51.3359 35.832V35.1055C51.3359 34.7852 52.1367 34.543 53.7383 34.3789C55.3477 33.1211 56.1523 30.7148 56.1523 27.1602V21.1484C55.3164 21.1484 54.8359 20.9062 54.7109 20.4219C54.8672 19.9375 55.3477 19.6953 56.1523 19.6953ZM63.7461 19.6953C64.0664 19.75 64.2266 19.9141 64.2266 20.1875V20.668C64.2266 20.9883 63.9883 21.1484 63.5117 21.1484C63.5117 21.3047 63.5898 21.3828 63.7461 21.3828L63.5117 22.3438C63.5117 25.1484 63.3477 28.9219 63.0195 33.6641H64.2266C64.5469 33.7109 64.707 33.8711 64.707 34.1445V34.625C64.5508 35.1094 64.0703 35.3516 63.2656 35.3516H61.8242C60.957 35.3516 60.3945 35.0273 60.1367 34.3789C60.1367 34.1211 60.6172 33.8008 61.5781 33.418C61.7422 33.1367 61.8242 32.8164 61.8242 32.457C61.8242 30.0898 61.9844 26.3203 62.3047 21.1484H61.8242V20.4219C61.9258 19.9375 62.5664 19.6953 63.7461 19.6953ZM79.6836 21.1484C79.9102 21.1484 80.1523 21.3867 80.4102 21.8633V36.5469C80.4102 36.8672 80.2461 37.0273 79.918 37.0273H79.6836C79.293 37.0273 78.0898 33.8203 76.0742 27.4062V26.9258H75.8281C75.6719 29.5742 75.5938 31.5781 75.5938 32.9375V36.3125C75.5938 36.6328 75.4336 36.793 75.1133 36.793C74.6289 36.793 74.3867 35.9102 74.3867 34.1445V22.5898C74.4336 22.2695 74.5938 22.1094 74.8672 22.1094H75.3477C76.1758 23.0938 77.3008 26.2227 78.7227 31.4961H78.957L79.2031 29.8086V26.9258C79.2031 25.8008 79.1211 24.0352 78.957 21.6289L79.6836 21.1484ZM89.7383 19.2148H90.9453C91.2656 21.2227 91.4258 22.9102 91.4258 24.2773V25.9648C91.4258 33.8242 90.3828 37.7539 88.2969 37.7539C88.0156 37.918 87.6953 38 87.3359 38C85.5703 38 84.6875 36.1523 84.6875 32.457V20.1875C84.7344 19.8594 84.8945 19.6953 85.168 19.6953H85.4141L85.8945 19.9414C85.7305 22.1055 85.6484 23.7109 85.6484 24.7578V28.1211C85.7578 33.7383 86.2383 36.5469 87.0898 36.5469H88.0625C89.1406 36.5469 89.7812 33.5781 89.9844 27.6406V24.5117C89.9844 23.3945 89.9023 21.6289 89.7383 19.2148ZM97.5547 19.2148C98.8906 19.2148 99.7734 20.0195 100.203 21.6289C100.203 22.4414 99.3984 23.8047 97.7891 25.7188C98.3281 25.7188 99.7734 28.6055 102.125 34.3789L102.371 35.832V36.3125H101.164C101.164 35.6641 99.8789 32.6953 97.3086 27.4062H97.0742C96.9102 30.6172 96.8281 33.0234 96.8281 34.625V36.0664C96.8281 36.3867 96.668 36.5469 96.3477 36.5469H95.8672C95.5469 36.5469 95.3867 36.3867 95.3867 36.0664V29.0938C95.3867 22.6719 95.7891 19.4609 96.5938 19.4609C96.875 19.2969 97.1953 19.2148 97.5547 19.2148ZM97.0742 20.668L96.8281 23.0703V23.7969H97.0742C98.0352 23.1406 98.5156 22.3359 98.5156 21.3828C98.3516 20.9062 97.8711 20.668 97.0742 20.668ZM113.914 19.2148C115.25 19.2148 116.133 20.0195 116.562 21.6289C116.562 22.4414 115.758 23.8047 114.148 25.7188C114.688 25.7188 116.133 28.6055 118.484 34.3789L118.73 35.832V36.3125H117.523C117.523 35.6641 116.238 32.6953 113.668 27.4062H113.434C113.27 30.6172 113.188 33.0234 113.188 34.625V36.0664C113.188 36.3867 113.027 36.5469 112.707 36.5469H112.227C111.906 36.5469 111.746 36.3867 111.746 36.0664V29.0938C111.746 22.6719 112.148 19.4609 112.953 19.4609C113.234 19.2969 113.555 19.2148 113.914 19.2148ZM113.434 20.668L113.188 23.0703V23.7969H113.434C114.395 23.1406 114.875 22.3359 114.875 21.3828C114.711 20.9062 114.23 20.668 113.434 20.668ZM127.098 21.3828H128.785C130.27 21.3828 131.152 26.7578 131.434 37.5078L130.707 38C129.902 38 129.5 35.4297 129.5 30.2891C128.539 30.6094 126.453 30.7695 123.242 30.7695C123.242 30.6133 123.164 30.5352 123.008 30.5352C122.406 32.7383 122.004 34.8242 121.801 36.793H121.086L120.84 35.5859C120.84 30.7891 122.445 26.375 125.656 22.3438C125.977 22.3438 126.457 22.0234 127.098 21.3828ZM123.488 28.8477H123.969C125.867 28.8477 127.633 28.6055 129.266 28.1211C129.016 24.4336 128.535 22.5898 127.824 22.5898C125.988 23.5352 124.543 25.6211 123.488 28.8477ZM136.531 18.9805H136.766L137.012 20.1875V22.8359L136.766 25.2383H137.727C138.891 25.2383 139.613 24.9961 139.895 24.5117C139.895 23.5273 140.055 21.8438 140.375 19.4609H141.348C141.184 25.5156 141.102 30.0898 141.102 33.1836V33.8984C141.102 34.2188 140.941 34.3789 140.621 34.3789H140.141C139.82 34.3789 139.66 34.2188 139.66 33.8984C139.816 30.9453 139.895 28.4609 139.895 26.4453L138.219 26.6797H136.766C136.609 31.3359 136.289 33.6641 135.805 33.6641H135.324C135.004 33.6641 134.844 33.4219 134.844 32.9375C135.328 25.6328 135.73 21.0586 136.051 19.2148L136.531 18.9805ZM146.035 21.3828H146.762C146.918 21.3828 147.48 21.9453 148.449 23.0703C148.496 22.6641 149.055 22.1016 150.125 21.3828H150.852C150.852 21.5547 150.934 21.7969 151.098 22.1094C151.254 30.2891 151.414 35.1836 151.578 36.793C151.414 37.1055 151.332 37.3438 151.332 37.5078H150.371C150.371 37.3438 150.289 37.1055 150.125 36.793C149.969 31.082 149.891 26.5898 149.891 23.3164L148.449 24.7578H148.203C148.109 24.7578 147.707 24.4375 146.996 23.7969C146.676 27.6641 146.516 30.1484 146.516 31.25V37.0273C146.516 37.3477 146.355 37.5078 146.035 37.5078H145.801C145.316 37.5078 145.074 36.3047 145.074 33.8984C145.074 33.5547 145.156 32.6719 145.32 31.25C145.156 30.3672 145.074 29.7266 145.074 29.3281L146.035 21.3828ZM160.988 21.3828H162.676C164.16 21.3828 165.043 26.7578 165.324 37.5078L164.598 38C163.793 38 163.391 35.4297 163.391 30.2891C162.43 30.6094 160.344 30.7695 157.133 30.7695C157.133 30.6133 157.055 30.5352 156.898 30.5352C156.297 32.7383 155.895 34.8242 155.691 36.793H154.977L154.73 35.5859C154.73 30.7891 156.336 26.375 159.547 22.3438C159.867 22.3438 160.348 22.0234 160.988 21.3828ZM157.379 28.8477H157.859C159.758 28.8477 161.523 28.6055 163.156 28.1211C162.906 24.4336 162.426 22.5898 161.715 22.5898C159.879 23.5352 158.434 25.6211 157.379 28.8477ZM174.559 21.1484C174.785 21.1484 175.027 21.3867 175.285 21.8633V36.5469C175.285 36.8672 175.121 37.0273 174.793 37.0273H174.559C174.168 37.0273 172.965 33.8203 170.949 27.4062V26.9258H170.703C170.547 29.5742 170.469 31.5781 170.469 32.9375V36.3125C170.469 36.6328 170.309 36.793 169.988 36.793C169.504 36.793 169.262 35.9102 169.262 34.1445V22.5898C169.309 22.2695 169.469 22.1094 169.742 22.1094H170.223C171.051 23.0938 172.176 26.2227 173.598 31.4961H173.832L174.078 29.8086V26.9258C174.078 25.8008 173.996 24.0352 173.832 21.6289L174.559 21.1484ZM188.07 19.2148C189.406 19.2148 190.289 20.0195 190.719 21.6289C190.719 22.4414 189.914 23.8047 188.305 25.7188C188.844 25.7188 190.289 28.6055 192.641 34.3789L192.887 35.832V36.3125H191.68C191.68 35.6641 190.395 32.6953 187.824 27.4062H187.59C187.426 30.6172 187.344 33.0234 187.344 34.625V36.0664C187.344 36.3867 187.184 36.5469 186.863 36.5469H186.383C186.062 36.5469 185.902 36.3867 185.902 36.0664V29.0938C185.902 22.6719 186.305 19.4609 187.109 19.4609C187.391 19.2969 187.711 19.2148 188.07 19.2148ZM187.59 20.668L187.344 23.0703V23.7969H187.59C188.551 23.1406 189.031 22.3359 189.031 21.3828C188.867 20.9062 188.387 20.668 187.59 20.668ZM201.254 21.3828H202.941C204.426 21.3828 205.309 26.7578 205.59 37.5078L204.863 38C204.059 38 203.656 35.4297 203.656 30.2891C202.695 30.6094 200.609 30.7695 197.398 30.7695C197.398 30.6133 197.32 30.5352 197.164 30.5352C196.562 32.7383 196.16 34.8242 195.957 36.793H195.242L194.996 35.5859C194.996 30.7891 196.602 26.375 199.812 22.3438C200.133 22.3438 200.613 22.0234 201.254 21.3828ZM197.645 28.8477H198.125C200.023 28.8477 201.789 28.6055 203.422 28.1211C203.172 24.4336 202.691 22.5898 201.98 22.5898C200.145 23.5352 198.699 25.6211 197.645 28.8477ZM210.688 18.9805H210.922L211.168 20.1875V22.8359L210.922 25.2383H211.883C213.047 25.2383 213.77 24.9961 214.051 24.5117C214.051 23.5273 214.211 21.8438 214.531 19.4609H215.504C215.34 25.5156 215.258 30.0898 215.258 33.1836V33.8984C215.258 34.2188 215.098 34.3789 214.777 34.3789H214.297C213.977 34.3789 213.816 34.2188 213.816 33.8984C213.973 30.9453 214.051 28.4609 214.051 26.4453L212.375 26.6797H210.922C210.766 31.3359 210.445 33.6641 209.961 33.6641H209.48C209.16 33.6641 209 33.4219 209 32.9375C209.484 25.6328 209.887 21.0586 210.207 19.2148L210.688 18.9805ZM221.832 19.6953C222.152 19.75 222.312 19.9141 222.312 20.1875V20.668C222.312 20.9883 222.074 21.1484 221.598 21.1484C221.598 21.3047 221.676 21.3828 221.832 21.3828L221.598 22.3438C221.598 25.1484 221.434 28.9219 221.105 33.6641H222.312C222.633 33.7109 222.793 33.8711 222.793 34.1445V34.625C222.637 35.1094 222.156 35.3516 221.352 35.3516H219.91C219.043 35.3516 218.48 35.0273 218.223 34.3789C218.223 34.1211 218.703 33.8008 219.664 33.418C219.828 33.1367 219.91 32.8164 219.91 32.457C219.91 30.0898 220.07 26.3203 220.391 21.1484H219.91V20.4219C220.012 19.9375 220.652 19.6953 221.832 19.6953ZM226.684 21.3828H227.41C227.566 21.3828 228.129 21.9453 229.098 23.0703C229.145 22.6641 229.703 22.1016 230.773 21.3828H231.5C231.5 21.5547 231.582 21.7969 231.746 22.1094C231.902 30.2891 232.062 35.1836 232.227 36.793C232.062 37.1055 231.98 37.3438 231.98 37.5078H231.02C231.02 37.3438 230.938 37.1055 230.773 36.793C230.617 31.082 230.539 26.5898 230.539 23.3164L229.098 24.7578H228.852C228.758 24.7578 228.355 24.4375 227.645 23.7969C227.324 27.6641 227.164 30.1484 227.164 31.25V37.0273C227.164 37.3477 227.004 37.5078 226.684 37.5078H226.449C225.965 37.5078 225.723 36.3047 225.723 33.8984C225.723 33.5547 225.805 32.6719 225.969 31.25C225.805 30.3672 225.723 29.7266 225.723 29.3281L226.684 21.3828Z" fill="#F1EDEC"/>
</svg>
