<svg width="251" height="58" viewBox="0 0 251 58" fill="none" xmlns="http://www.w3.org/2000/svg">
<path d="M221.948 0.619141H28.8407C13.1789 0.619141 0.479004 13.3254 0.479004 28.9951C0.479004 44.6647 13.1789 57.371 28.8407 57.371H221.956C237.617 57.371 250.317 44.6647 250.317 28.9951C250.317 13.3254 237.617 0.619141 221.956 0.619141H221.948Z" fill="#35342E"/>
<path d="M219.523 3.09717H30.6559C15.3322 3.09717 2.91895 14.6931 2.91895 29.0024C2.91895 43.3117 15.3396 54.9077 30.6559 54.9077H219.523C234.847 54.9077 247.26 43.3117 247.26 29.0024C247.26 14.6931 234.839 3.09717 219.523 3.09717Z" fill="#8D4F5D"/>
<path d="M63.5508 18.0195C63.7852 18.0195 64.0273 18.2578 64.2773 18.7344L61.875 20.1875C60.4297 21.9766 59.707 24.3008 59.707 27.1602V28.1211C60.0273 31.8789 60.668 33.9648 61.6289 34.3789H63.0703C64.3594 33.4961 65.0039 31.6523 65.0039 28.8477V28.3672L64.043 27.4062V27.1602C64.043 26.9336 64.2812 26.6953 64.7578 26.4453H65.9648C66.7695 26.4453 67.25 26.7656 67.4062 27.4062C67.125 27.9219 66.7227 29.8477 66.1992 33.1836C65.3867 35.2695 64.0234 36.3125 62.1094 36.3125C59.9609 36.3125 58.5977 33.6641 58.0195 28.3672V28.1211C58.6055 21.3867 60.4492 18.0195 63.5508 18.0195ZM72.8789 19.6953C73.1992 19.75 73.3594 19.9141 73.3594 20.1875V20.668C73.3594 20.9883 73.1211 21.1484 72.6445 21.1484C72.6445 21.3047 72.7227 21.3828 72.8789 21.3828L72.6445 22.3438C72.6445 25.1484 72.4805 28.9219 72.1523 33.6641H73.3594C73.6797 33.7109 73.8398 33.8711 73.8398 34.1445V34.625C73.6836 35.1094 73.2031 35.3516 72.3984 35.3516H70.957C70.0898 35.3516 69.5273 35.0273 69.2695 34.3789C69.2695 34.1211 69.75 33.8008 70.7109 33.418C70.875 33.1367 70.957 32.8164 70.957 32.457C70.957 30.0898 71.1172 26.3203 71.4375 21.1484H70.957V20.4219C71.0586 19.9375 71.6992 19.6953 72.8789 19.6953ZM82.3711 21.1484C82.5977 21.1484 82.8398 21.3867 83.0977 21.8633V36.5469C83.0977 36.8672 82.9336 37.0273 82.6055 37.0273H82.3711C81.9805 37.0273 80.7773 33.8203 78.7617 27.4062V26.9258H78.5156C78.3594 29.5742 78.2812 31.5781 78.2812 32.9375V36.3125C78.2812 36.6328 78.1211 36.793 77.8008 36.793C77.3164 36.793 77.0742 35.9102 77.0742 34.1445V22.5898C77.1211 22.2695 77.2812 22.1094 77.5547 22.1094H78.0352C78.8633 23.0938 79.9883 26.2227 81.4102 31.4961H81.6445L81.8906 29.8086V26.9258C81.8906 25.8008 81.8086 24.0352 81.6445 21.6289L82.3711 21.1484ZM92.707 21.3828H94.3945C95.8789 21.3828 96.7617 26.7578 97.043 37.5078L96.3164 38C95.5117 38 95.1094 35.4297 95.1094 30.2891C94.1484 30.6094 92.0625 30.7695 88.8516 30.7695C88.8516 30.6133 88.7734 30.5352 88.6172 30.5352C88.0156 32.7383 87.6133 34.8242 87.4102 36.793H86.6953L86.4492 35.5859C86.4492 30.7891 88.0547 26.375 91.2656 22.3438C91.5859 22.3438 92.0664 22.0234 92.707 21.3828ZM89.0977 28.8477H89.5781C91.4766 28.8477 93.2422 28.6055 94.875 28.1211C94.625 24.4336 94.1445 22.5898 93.4336 22.5898C91.5977 23.5352 90.1523 25.6211 89.0977 28.8477ZM112.254 18.0195C112.488 18.0195 112.73 18.2578 112.98 18.7344L110.578 20.1875C109.133 21.9766 108.41 24.3008 108.41 27.1602V28.1211C108.73 31.8789 109.371 33.9648 110.332 34.3789H111.773C113.062 33.4961 113.707 31.6523 113.707 28.8477V28.3672L112.746 27.4062V27.1602C112.746 26.9336 112.984 26.6953 113.461 26.4453H114.668C115.473 26.4453 115.953 26.7656 116.109 27.4062C115.828 27.9219 115.426 29.8477 114.902 33.1836C114.09 35.2695 112.727 36.3125 110.812 36.3125C108.664 36.3125 107.301 33.6641 106.723 28.3672V28.1211C107.309 21.3867 109.152 18.0195 112.254 18.0195ZM120.445 18.9805H120.68L120.926 20.1875V22.8359L120.68 25.2383H121.641C122.805 25.2383 123.527 24.9961 123.809 24.5117C123.809 23.5273 123.969 21.8438 124.289 19.4609H125.262C125.098 25.5156 125.016 30.0898 125.016 33.1836V33.8984C125.016 34.2188 124.855 34.3789 124.535 34.3789H124.055C123.734 34.3789 123.574 34.2188 123.574 33.8984C123.73 30.9453 123.809 28.4609 123.809 26.4453L122.133 26.6797H120.68C120.523 31.3359 120.203 33.6641 119.719 33.6641H119.238C118.918 33.6641 118.758 33.4219 118.758 32.9375C119.242 25.6328 119.645 21.0586 119.965 19.2148L120.445 18.9805ZM134.684 21.3828H136.371C137.855 21.3828 138.738 26.7578 139.02 37.5078L138.293 38C137.488 38 137.086 35.4297 137.086 30.2891C136.125 30.6094 134.039 30.7695 130.828 30.7695C130.828 30.6133 130.75 30.5352 130.594 30.5352C129.992 32.7383 129.59 34.8242 129.387 36.793H128.672L128.426 35.5859C128.426 30.7891 130.031 26.375 133.242 22.3438C133.562 22.3438 134.043 22.0234 134.684 21.3828ZM131.074 28.8477H131.555C133.453 28.8477 135.219 28.6055 136.852 28.1211C136.602 24.4336 136.121 22.5898 135.41 22.5898C133.574 23.5352 132.129 25.6211 131.074 28.8477ZM145.254 19.6953C145.574 19.75 145.734 19.9141 145.734 20.1875V20.668C145.734 20.9883 145.496 21.1484 145.02 21.1484C145.02 21.3047 145.098 21.3828 145.254 21.3828L145.02 22.3438C145.02 25.1484 144.855 28.9219 144.527 33.6641H145.734C146.055 33.7109 146.215 33.8711 146.215 34.1445V34.625C146.059 35.1094 145.578 35.3516 144.773 35.3516H143.332C142.465 35.3516 141.902 35.0273 141.645 34.3789C141.645 34.1211 142.125 33.8008 143.086 33.418C143.25 33.1367 143.332 32.8164 143.332 32.457C143.332 30.0898 143.492 26.3203 143.812 21.1484H143.332V20.4219C143.434 19.9375 144.074 19.6953 145.254 19.6953ZM151.359 17.7734H151.605C151.832 17.7734 152.07 18.0156 152.32 18.5V18.9805H151.113C149.996 19.8008 149.438 20.6016 149.438 21.3828C149.438 22.5156 150.719 24.3633 153.281 26.9258C153.93 28.4102 154.254 29.4531 154.254 30.0547V31.25C154.254 33.9609 153.047 35.9688 150.633 37.2734H149.672C149.352 37.2734 149.191 37.1133 149.191 36.793V36.3125C151.598 34.8906 152.801 33.2852 152.801 31.4961V30.5352C152.801 29.0117 151.359 26.6836 148.477 23.5508L148.23 22.3438V20.9023C148.777 18.8164 149.82 17.7734 151.359 17.7734ZM163.418 21.3828H165.105C166.59 21.3828 167.473 26.7578 167.754 37.5078L167.027 38C166.223 38 165.82 35.4297 165.82 30.2891C164.859 30.6094 162.773 30.7695 159.562 30.7695C159.562 30.6133 159.484 30.5352 159.328 30.5352C158.727 32.7383 158.324 34.8242 158.121 36.793H157.406L157.16 35.5859C157.16 30.7891 158.766 26.375 161.977 22.3438C162.297 22.3438 162.777 22.0234 163.418 21.3828ZM159.809 28.8477H160.289C162.188 28.8477 163.953 28.6055 165.586 28.1211C165.336 24.4336 164.855 22.5898 164.145 22.5898C162.309 23.5352 160.863 25.6211 159.809 28.8477ZM176.988 21.1484C177.215 21.1484 177.457 21.3867 177.715 21.8633V36.5469C177.715 36.8672 177.551 37.0273 177.223 37.0273H176.988C176.598 37.0273 175.395 33.8203 173.379 27.4062V26.9258H173.133C172.977 29.5742 172.898 31.5781 172.898 32.9375V36.3125C172.898 36.6328 172.738 36.793 172.418 36.793C171.934 36.793 171.691 35.9102 171.691 34.1445V22.5898C171.738 22.2695 171.898 22.1094 172.172 22.1094H172.652C173.48 23.0938 174.605 26.2227 176.027 31.4961H176.262L176.508 29.8086V26.9258C176.508 25.8008 176.426 24.0352 176.262 21.6289L176.988 21.1484ZM184.23 19.6953C184.551 19.75 184.711 19.9141 184.711 20.1875V20.668C184.711 20.9883 184.473 21.1484 183.996 21.1484C183.996 21.3047 184.074 21.3828 184.23 21.3828L183.996 22.3438C183.996 25.1484 183.832 28.9219 183.504 33.6641H184.711C185.031 33.7109 185.191 33.8711 185.191 34.1445V34.625C185.035 35.1094 184.555 35.3516 183.75 35.3516H182.309C181.441 35.3516 180.879 35.0273 180.621 34.3789C180.621 34.1211 181.102 33.8008 182.062 33.418C182.227 33.1367 182.309 32.8164 182.309 32.457C182.309 30.0898 182.469 26.3203 182.789 21.1484H182.309V20.4219C182.41 19.9375 183.051 19.6953 184.23 19.6953Z" fill="#F1EDEC"/>
</svg>
