<svg width="222" height="185" viewBox="0 0 222 185" fill="none" xmlns="http://www.w3.org/2000/svg">
<path d="M110.278 18.7365C111.071 18.4204 111.564 17.7438 112.159 17.1777C114.298 15.1629 116.789 14.229 119.729 14.832C121.809 15.2585 123.286 17.0821 123.33 19.2145C123.367 20.9131 123.367 22.5675 122.522 24.1705C121.919 25.3029 121.103 26.178 120.192 26.9795C119.362 27.7074 118.333 27.6118 117.363 27.2368C116.121 26.7589 115.797 25.2514 116.841 24.4426C117.576 23.8691 118.098 23.369 117.612 22.4205C117.23 21.6704 115.871 21.1484 114.996 21.4278C111.637 22.5087 109.668 25.1706 110.322 28.9942C110.403 29.4648 110.557 29.8987 110.924 30.2296C111.483 30.7296 111.895 30.6193 112.152 29.8619C112.358 29.2516 112.497 28.6192 113.019 28.1633C113.629 27.6339 114.151 27.6633 114.68 28.2736C114.959 28.5972 115.114 28.9648 115.15 29.3913C115.275 30.7737 114.651 31.8473 113.548 32.509C112.505 33.1341 111.307 33.1488 110.248 32.3914C109.91 32.1487 109.602 31.8914 109.197 31.7737L109.219 31.7884C109.139 31.2002 109.036 30.634 108.374 30.134C107.999 31.4576 107.86 32.7296 107.823 34.0238C107.801 34.7223 107.808 35.4283 107.757 36.1268C107.72 36.6562 107.426 36.9945 106.86 37.0092C106.324 37.0239 105.941 36.7445 105.846 36.2298C105.75 35.715 105.721 35.1856 105.721 34.6635C105.706 32.9135 105.721 31.1634 105.545 29.3692C104.971 30.0825 104.744 30.9061 104.626 31.7811H104.641C103.84 32.362 103.09 32.9649 101.973 32.8988C100.393 32.8105 98.8933 31.5899 98.6802 30.0384C98.6508 29.8104 98.6508 29.5678 98.6802 29.3398C98.761 28.6413 99.1579 28.1192 99.7826 27.8618C100.466 27.5824 100.834 28.2148 101.282 28.5457C101.576 28.7663 101.686 29.1045 101.76 29.4575C101.855 29.8913 101.796 30.4943 102.48 30.4575C103.053 30.4281 103.105 29.8472 103.34 29.4575C104.641 27.3103 102.575 23.0455 100.598 22.1925C100.062 21.9572 99.5327 21.6999 98.9962 21.4646C98.151 21.0969 97.394 21.2954 96.6811 21.8102C95.7771 22.4646 95.6595 23.1852 96.3357 24.0455C96.4753 24.2294 96.7179 24.3323 96.8502 24.5161C97.7468 25.7 97.1368 27.2 95.6669 27.4353C94.8144 27.5677 94.028 27.3545 93.3518 26.8177C90.9118 24.8838 89.802 20.4204 90.9412 17.4939C91.5953 15.8173 92.8226 15.0526 94.513 14.7879C98.0334 14.2437 100.628 15.81 102.833 18.3321C103.656 19.2733 104.222 20.3542 104.633 21.5307C105.052 22.1484 105.545 22.7367 105.258 23.5896C105.589 22.8322 104.89 22.2513 104.971 21.5454C104.993 20.8763 104.758 20.266 104.442 19.7071C103.524 18.0747 102.796 16.3394 102.201 14.582C101.502 12.5157 101.414 10.376 102.436 8.29501C103.038 7.07438 103.891 6.04494 104.677 4.96402C105.434 3.91987 105.986 2.75072 106.346 1.50068C106.427 1.2139 106.603 0.941834 106.948 0.993306C107.081 1.01537 107.279 1.19183 107.301 1.32419C107.676 3.65515 109.447 5.17725 110.638 7.0229C112.505 9.92006 112.343 12.876 111.108 15.8908C110.733 16.81 110.204 17.6703 110.241 18.7071C109.366 19.7145 109.05 20.9572 108.764 22.2072C109.072 20.9646 109.337 19.6998 110.27 18.7292L110.278 18.7365Z" fill="#E2BDA7"/>
<path d="M109.205 31.759C108.933 33.4061 109.726 34.6709 110.689 35.8842C110.976 36.2445 111.38 36.6636 110.858 37.0754C110.314 37.5019 109.756 37.3107 109.322 36.818C108.337 35.715 108.293 33.1341 109.227 31.7737L109.205 31.759Z" fill="#C0C0C0"/>
<path d="M104.633 31.7664C105.721 33.2223 105.273 34.7518 104.825 36.2665C104.758 36.4798 104.619 36.693 104.472 36.8621C104.126 37.2519 103.693 37.4063 103.252 37.0386C102.855 36.7151 102.958 36.2959 103.2 35.943C103.663 35.2739 104.163 34.6415 104.384 33.8253C104.567 33.1414 104.67 32.4649 104.655 31.759L104.641 31.7664H104.633Z" fill="#C4C4C4"/>
<path d="M104.993 21.5455C105.809 22.6117 105.75 23.8103 105.611 25.3471C104.832 23.972 105.059 22.6705 104.655 21.5308C104.766 21.5308 104.883 21.5381 104.993 21.5455Z" fill="#E8E8E8"/>
<path d="M110.278 18.7365C110.197 19.0748 110.212 19.4792 110.028 19.7439C109.087 21.0896 109.028 22.6999 108.683 24.2073C108.043 24.2073 108.11 23.7441 108.176 23.472C108.499 22.1705 108.867 20.8837 109.249 19.5968C109.388 19.1115 109.771 18.8395 110.256 18.7145L110.278 18.7365Z" fill="#EBEBEB"/>
<path d="M4.45962 120.593C4.85649 119.152 5.15047 117.652 6.47338 116.681C6.71591 116.681 6.96579 116.681 7.20833 116.674C7.31857 116.563 7.43617 116.446 7.54641 116.335V116.35C8.59003 116.402 9.50137 116.225 9.66306 114.931H9.65571C9.86149 114.872 9.97173 114.725 10.0232 114.526C10.0232 114.446 10.0232 114.365 10.0085 114.291C10.6185 114.291 10.7875 113.526 11.3755 113.482L12.1178 113.526C12.7351 114.129 12.5808 114.924 11.9708 115.137C10.7287 115.571 10.6552 116.652 10.2878 117.556C9.84679 118.644 9.33233 119.593 8.27401 120.255C7.15688 120.953 7.91388 122.534 7.00989 123.394C6.65712 123.74 6.59097 124.181 6.47338 124.644C5.88542 126.895 5.59879 129.211 4.93734 131.453C4.59191 132.615 4.23914 133.865 4.43757 135.064C4.71686 136.696 4.66541 138.321 4.73155 139.954C4.84915 142.91 7.23038 145.785 9.99378 146.366C10.1114 146.579 10.2216 146.792 10.3392 147.005C10.2216 147.528 10.6332 147.358 10.861 147.388C13.6171 147.741 16.013 146.564 18.4677 145.623C18.9822 146.211 18.4677 146.814 18.4824 147.41C18.4457 147.844 18.4089 148.278 18.3428 149.086C19.9523 147.932 21.3267 146.954 22.701 145.969H22.6937C23.703 145.969 24.1758 145.613 24.1121 144.902H24.1048C24.6266 144.917 25.1999 145.042 25.6041 144.601C26.6257 143.491 27.8971 142.674 28.8673 141.454C30.5944 139.263 31.9026 136.799 33.5342 134.549C34.3353 133.454 35.254 132.299 35.6655 131.005C36.0183 129.902 36.5475 128.968 37.2383 128.115C37.9806 127.203 38.767 126.38 38.6053 125.049C38.5392 124.519 38.914 124.049 39.23 123.63C40.4868 121.946 40.8175 119.916 41.3467 117.968C41.5157 117.35 41.5892 116.674 41.9126 116.137C42.9856 114.343 43.6177 112.445 43.5001 110.335C43.4633 109.659 43.6397 108.982 43.9778 108.489C45.0214 106.975 44.97 105.306 44.9185 103.614L44.9038 103.629C45.6314 103.078 44.9553 102.085 45.5138 101.526C46.7265 100.305 46.1826 98.6362 46.6677 97.2391C46.7192 97.0847 46.6677 96.8862 46.631 96.717C46.5942 96.5479 46.4987 96.3567 46.3002 96.3861C46.1459 96.4082 45.9769 96.4891 45.8519 96.5994C45.4109 96.967 45.8078 97.7832 44.9773 98.1215C44.9259 96.8273 44.8083 95.6361 45.0876 94.4375C45.3815 93.1875 45.5579 91.9154 46.1826 90.761C46.3737 90.408 46.4399 89.9227 46.0283 89.6506C45.6902 89.43 45.3374 89.6212 45.0802 89.8859C44.6539 90.3198 44.066 90.4448 43.5662 90.7242C42.6328 91.2536 41.5892 91.4154 40.6117 91.7904C37.3559 93.0331 34.6733 95.2317 31.6895 96.9156C29.7124 98.0332 28.0882 99.7098 25.8981 100.475C25.1925 100.452 25.0602 99.8568 24.803 99.3862C25.1264 98.9745 25.7143 98.8494 25.9495 98.3421C26.2141 98.3421 26.4493 98.2759 26.5963 98.0259L26.6183 98.0038C27.0372 97.9744 27.2724 97.7685 27.2798 97.3347C28.1176 97.0332 28.882 96.6362 29.4038 95.8714H29.3891C31.1309 95.6582 32.5273 94.6434 34.0045 93.8272C35.0188 93.2684 35.8934 92.4154 36.9443 91.9595C38.7964 91.1507 40.6705 90.4153 42.4491 89.4227C43.478 88.8491 44.4041 87.9373 45.749 87.9594C46.1679 87.9594 46.7412 87.3711 46.5281 86.9741C46.1532 86.2976 46.9102 85.724 46.5281 85.1211C45.8519 84.9593 45.433 85.4961 44.8965 85.6505C44.7568 85.3196 44.5216 85.0181 44.5584 84.6284C46.8808 83.8343 47.0278 83.6357 47.0499 81.2753C47.0499 80.4591 46.9396 79.6282 47.5349 78.9223C47.8216 78.5841 47.7554 78.1429 47.7481 77.7311C47.726 75.9663 47.8804 74.2604 48.336 72.5251C48.6888 71.1941 48.8725 69.7823 49.1151 68.4073C49.2253 67.7602 49.4384 67.1646 49.6589 66.4954C48.9681 65.8925 48.336 65.9219 47.7848 66.6793C46.8147 68.0102 45.4109 68.9147 44.4041 70.2088C43.4413 71.4441 41.8317 71.7089 40.5603 72.503C39.0169 73.4663 37.2089 73.8045 35.4083 73.8707C34.0192 73.9222 32.6155 73.6648 31.3073 73.128C30.0652 72.6207 28.8599 72.0692 28.4998 70.5544C28.4263 70.2529 28.0662 70.0103 27.8016 69.775C27.1989 69.2308 26.8755 68.5985 26.949 67.7602C27.0005 67.1719 26.8094 66.6057 26.7212 66.0322C26.4272 64.2086 26.7139 62.4512 27.5443 60.7747C28.1176 59.6276 28.5071 58.3849 29.1098 57.2598C30.2049 55.2083 31.6233 53.3406 32.9389 51.4361C34.2691 49.5022 36.3417 47.9654 38.5759 47.4507C40.5456 46.9948 42.868 46.5683 44.8377 48.0022C45.0655 48.164 45.3668 48.2669 45.6461 48.3037C48.1964 48.6052 49.5119 50.539 50.9083 52.3259C51.7976 53.473 51.805 53.5318 52.7237 52.3773C53.7526 51.0832 53.8775 51.0538 55.5459 51.5464C56.1632 51.7303 56.7806 51.892 57.4053 52.0611C58.6547 52.392 58.6327 52.392 58.64 53.6862C58.64 54.2892 58.5445 54.8701 58.2725 55.3921C57.2142 57.4584 57.0599 59.7599 56.4793 61.9512C55.9868 63.8115 55.9133 65.7381 55.2445 67.5837C54.7815 68.8705 55.0608 70.3559 54.7742 71.7456C54.5904 72.6427 54.6345 73.6207 54.3626 74.5104C53.7085 76.6061 53.8261 78.79 53.4292 80.9077C53.3116 81.5401 53.5836 81.7901 54.1715 81.7827C54.8771 81.7754 55.6488 81.9151 56.2661 81.6724C58.0888 80.9665 59.9629 81.1283 61.8297 81.1136C62.5867 81.1062 63.2555 80.9445 63.9978 80.643C65.8719 79.8856 67.6578 80.3194 67.7754 82.9151C67.8636 84.7902 67.4153 86.5623 66.9155 88.3859C66.1732 91.1066 64.9826 93.7611 65.1076 96.695C65.6955 96.7759 65.7396 96.2538 65.8719 95.9376C66.4819 94.5331 67.3124 93.3052 68.672 92.5551C69.3776 92.1654 69.7745 91.533 70.2669 90.9668C70.9798 90.3124 71.4208 89.2462 72.6628 89.3565C72.7878 89.3638 72.9348 89.158 73.067 89.0329C74.4267 87.7388 76.0436 86.8197 77.6311 85.849C77.8589 85.7093 78.2117 85.6652 78.1749 85.1505C77.5502 85.1431 76.9843 85.5108 76.4037 85.5328C75.757 85.5623 75.1469 86.349 74.4634 85.6799C76.9843 83.4298 79.8653 83.1651 82.9668 84.1504C83.3563 84.2755 83.7238 84.5622 84.1133 84.5696C84.9365 84.599 85.4068 84.9078 85.6053 85.7314C85.7302 86.2608 86.105 86.5917 86.7003 86.7388C88.3466 87.1432 89.2579 88.2682 89.2579 89.9153C89.2579 91.4963 89.4784 93.0993 89.1404 94.6581C88.7288 96.5626 87.8321 98.2906 86.7297 99.8716C85.5391 101.592 84.2529 103.247 82.6581 104.644C81.4969 105.666 80.0784 106.254 78.7849 107.048C78.4763 107.239 77.8957 107.306 77.6017 107.144C76.5286 106.534 75.0881 106.607 74.3679 105.276C74.0151 104.622 73.1258 104.394 72.751 103.578C72.3762 102.761 72.435 101.989 72.4276 101.18C72.4276 100.872 72.5673 100.607 72.9274 100.577C73.1846 100.563 73.3757 100.71 73.5227 100.894C73.5962 100.982 73.6623 101.092 73.6844 101.202C73.7799 101.857 73.8534 102.504 74.706 102.622C75.4924 102.732 76.0215 102.342 76.5654 101.842C78.6012 99.9745 80.3136 97.8127 81.9893 95.6361C82.0922 95.4964 82.2171 95.3493 82.2539 95.1876C82.614 93.5846 83.4666 92.1654 83.9296 90.6139C84.2823 89.4374 83.665 88.2829 83.0991 87.2829C82.7316 86.6285 81.8791 86.5623 81.1882 86.9079C79.5713 87.7094 77.8075 88.2829 76.558 89.7095C75.9774 90.3786 75.316 90.9742 74.5296 91.3713C73.0817 92.0992 71.9867 93.2096 71.0753 94.5111C70.0685 95.9523 68.9954 97.3347 67.7975 98.6215C66.1806 100.364 65.4897 102.666 64.1301 104.563C63.4539 105.504 62.6014 106.379 62.7998 107.695C62.8145 107.798 62.7778 107.96 62.7043 108.026C61.1609 109.269 61.4989 111.218 60.8742 112.806C60.154 114.644 60.0438 116.666 59.1324 118.446C58.9046 118.887 58.956 119.365 58.9707 119.828C58.9928 120.777 58.956 121.718 58.6106 122.6C57.8316 124.608 57.6037 126.784 56.6556 128.733C56.516 129.012 56.4719 129.284 56.5748 129.578C56.6703 129.858 56.7365 130.115 56.663 130.431C56.4646 131.306 55.7296 132.027 55.6782 132.829C55.6267 133.637 55.8619 134.424 55.2666 135.137C55.1343 135.299 55.0902 135.579 55.0975 135.807C55.1563 138.218 54.5904 140.513 54.0245 142.836C53.3925 145.425 53.2896 148.153 52.5546 150.704C51.9299 152.851 51.9667 154.969 51.8785 157.116C51.8123 158.682 50.8496 159.94 50.2616 161.322C50.0558 161.815 49.3135 162.028 48.7182 161.587C47.726 160.859 46.7265 160.153 45.7858 159.366C44.9185 158.638 45.0361 157.557 45.455 156.771C46.4546 154.851 46.5942 152.763 47.0352 150.719C47.6305 147.983 48.0053 145.211 48.7035 142.491C49.5193 139.307 50.2616 136.115 50.6364 132.821C50.7981 131.417 51.0112 129.821 51.9446 128.556C52.1578 128.262 52.4444 127.909 52.2901 127.6C51.489 125.99 53.1058 125.115 53.3778 123.843C53.3925 123.784 53.5836 123.755 53.6938 123.718C53.6203 126.247 53.0617 128.711 52.5105 131.306C53.1573 131.101 53.3925 130.711 53.4219 130.453C53.5983 128.99 54.4361 127.747 54.7154 126.328C54.7301 126.269 54.7154 126.211 54.7227 126.152C54.8844 123.534 55.3548 120.975 56.1485 118.482C56.1338 118.262 56.1118 117.982 55.8766 117.946C55.4871 117.879 55.4871 118.218 55.4356 118.482C55.2372 119.931 54.4582 121.225 54.3259 122.696C54.2965 123.063 53.9731 123.284 53.6644 123.475C53.6644 121.483 53.7453 119.556 54.4288 117.6C54.9947 115.99 55.5459 114.269 55.4797 112.49C55.4503 111.776 55.9574 111.306 56.1044 110.695C56.8614 107.578 57.6111 104.453 58.2872 101.313C58.5004 100.342 58.9266 99.4598 59.0589 98.445C59.6763 93.8199 61.0506 89.3565 62.0281 84.8049C62.0502 84.7093 61.984 84.5916 61.9252 84.349C59.4264 84.7755 57.0378 85.5843 54.6125 86.3417C52.9368 86.8638 51.4155 87.2241 51.8123 89.4741C51.0921 90.0477 51.4963 90.8492 51.3493 91.5331C50.8937 93.739 50.8128 96.0553 49.6001 98.0553C49.4017 98.3862 49.4238 98.7245 49.5781 99.0627C49.8721 99.7392 49.7324 100.452 49.7692 101.151C49.8133 101.872 49.5854 102.328 48.8431 102.636C47.8877 103.033 47.9171 103.129 48.7697 103.739C49.071 103.953 49.4973 104.247 49.24 104.541C48.4977 105.379 48.5933 106.467 48.5051 107.379C48.336 109.1 47.2042 110.49 47.1601 112.24C47.1381 113.093 46.4031 113.637 45.3815 113.622C45.8152 114.085 46.7485 114.262 45.8593 114.99C45.727 115.093 45.6829 115.306 45.5506 115.401C44.5143 116.152 44.1468 116.953 45.0508 118.122C45.3889 118.556 45.0435 119.122 44.6245 119.527C44.2938 119.843 43.772 120.005 43.7353 120.556C43.6177 122.152 42.552 123.438 42.3389 124.997C42.2654 125.527 42.0228 126.042 41.6407 126.394C40.5162 127.431 40.2443 128.924 39.4873 130.13C38.7817 131.248 38.7376 132.931 37.0913 133.38C36.8488 133.446 36.6945 133.696 36.7826 133.939C37.253 135.299 36.2682 135.983 35.4744 136.704C35.0261 137.108 34.4823 137.321 34.8056 138.093C34.9673 138.476 34.6072 138.733 34.3647 138.976C33.8282 139.52 33.3284 140.116 32.7404 140.586C31.9026 141.263 31.3073 142.086 30.7855 143.02C29.8153 144.763 28.0294 145.697 26.6036 146.983C25.6335 147.858 24.5752 148.756 23.142 148.881C22.9877 148.895 22.8186 149.02 22.701 149.138C19.6731 152.16 15.9616 151.881 12.2207 151.248C9.82474 150.836 7.85509 149.351 5.67964 148.373C5.4812 148.285 5.27541 148.108 5.16517 147.917C3.87901 145.719 2.25478 143.77 1.30669 141.292C0.292465 138.645 0.402708 136.255 0.968618 133.63C1.35814 131.821 1.55658 129.946 1.87995 128.108C2.19598 126.321 2.48996 124.549 3.74672 123.122L3.84961 123.108C4.0995 123.093 4.26119 122.946 4.37878 122.733C5.09903 122.211 5.38566 121.63 4.64336 120.902C4.56251 120.828 4.49637 120.733 4.43022 120.652L4.45962 120.593ZM49.85 74.3634C50.3718 73.7678 50.3277 73.0839 50.3057 71.9956C49.6442 72.9589 49.8941 73.6795 49.8133 74.3339C49.4091 74.6722 49.365 75.0472 49.7471 75.6575C49.7912 75.1134 49.8206 74.7384 49.8574 74.3634H49.85ZM58.6327 107.144C57.6772 107.975 57.4567 108.945 57.9712 110.24C58.9634 109.35 58.5518 108.195 58.6547 107.166C59.1986 106.504 59.1398 105.717 59.3382 104.666C58.324 105.534 58.7282 106.394 58.6327 107.144ZM46.3223 93.4007C46.4105 94.0478 45.9915 94.489 45.7196 94.9964C45.5653 95.2905 45.7784 95.5626 46.0797 95.6876C46.4472 95.8347 46.6677 95.6288 46.6604 95.2905C46.631 94.5037 47.0719 93.8272 47.1234 93.0625C47.5937 92.4448 47.2998 91.7169 47.4027 91.0477C47.5129 90.3712 48.4904 89.8786 47.7701 88.9521C47.2483 89.305 46.631 89.5918 46.6898 90.3345C46.7706 91.3933 46.3737 92.3787 46.3223 93.4081V93.4007ZM44.9259 51.3773C43.2722 51.4141 41.9126 51.767 40.7514 52.5906C39.5167 53.4656 38.3407 54.4289 37.2016 55.4363C36.474 56.076 35.6214 56.6863 35.6949 57.8702C35.7243 58.3114 35.3348 58.5614 35.0261 58.8481C34.5998 59.2379 34.1074 59.6423 33.8723 60.1423C32.9021 62.1938 31.7923 64.1939 31.3661 66.466C31.0794 67.9882 31.6454 68.7014 33.1006 68.3043C35.0629 67.7676 37.1134 67.444 38.9066 66.3998C39.5681 66.0175 40.4427 66.1204 40.9425 65.5175C41.6039 64.716 42.4344 64.113 43.2428 63.5027C44.9847 62.1865 46.7044 60.8703 48.1964 59.2673C48.5933 58.8408 48.7256 58.4952 48.2699 58.0981C47.3071 57.2746 47.2557 56.1789 47.3512 55.0465C47.4247 54.1715 46.947 53.473 46.7118 52.7009C46.4031 51.6935 45.727 51.2964 44.9332 51.3773H44.9259ZM51.5478 137.336C51.511 138.454 50.6364 139.24 50.5041 140.299C50.291 141.969 49.9456 143.616 49.6442 145.27C49.5854 145.594 49.3282 146.042 49.8133 146.13C50.2983 146.219 50.4821 145.77 50.5262 145.329C50.5556 145.042 50.5556 144.748 50.5482 144.454C50.5188 143.344 50.6585 142.329 51.1729 141.27C51.7462 140.079 51.9152 138.704 51.5551 137.336H51.5478ZM56.1485 117.137C56.8026 116.063 57.5964 115.034 57.5523 113.754C57.5229 112.997 58.008 112.225 57.5302 111.475C56.4278 111.813 56.8247 112.887 56.5381 113.607C56.0971 114.703 55.4503 115.813 56.1485 117.137ZM50.5262 62.6203C50.4821 62.3188 50.3277 61.9291 50.0264 62.1571C49.387 62.6424 48.6962 63.01 48.0053 63.4071C47.7407 63.5542 47.6819 63.9071 47.8216 64.1792C47.9759 64.4733 48.2919 64.5027 48.5639 64.3483C49.1151 64.0395 49.6442 63.7012 50.1808 63.3703C50.4527 63.2012 50.5115 62.9218 50.5188 62.6203H50.5262ZM52.5252 132.042C51.4596 132.556 51.5845 133.387 51.6727 134.196C51.6947 134.365 51.8197 134.549 52.0255 134.505C52.1798 134.476 52.3856 134.38 52.4444 134.255C52.7604 133.556 52.7531 132.843 52.5252 132.042ZM48.8358 77.8488C49.1004 78.5914 47.8069 79.3415 48.9387 80.1724C49.2768 79.6724 49.1518 79.2017 49.1518 78.7605C49.1518 78.4517 49.2988 78.0988 48.8284 77.8414L48.8358 77.8488ZM51.805 136.571C52.1431 136.373 52.2533 136.174 52.2533 135.939C52.2533 135.645 52.1798 135.299 51.8197 135.329C51.5772 135.351 51.6139 135.682 51.6065 135.895C51.6065 136.123 51.5771 136.351 51.805 136.571ZM51.4596 65.1057C51.1582 65.2895 51.2464 65.569 51.2905 65.819C51.3199 65.9734 51.4449 66.0028 51.5037 65.8778C51.6286 65.6204 51.658 65.3557 51.4596 65.1057ZM51.0774 68.0984C51.1215 68.0102 51.2023 67.922 51.2023 67.8337C51.2023 67.7455 51.1362 67.5764 51.0994 67.5764C50.901 67.5764 50.8937 67.7455 50.9157 67.8778C50.9304 67.9587 51.0186 68.0249 51.0774 68.0984Z" fill="#F7D4B5"/>
<path d="M174.6 152.314C174.585 152.609 174.695 153.006 174.541 153.175C173.409 154.469 173.637 156.27 172.836 157.682C172.689 157.932 172.652 158.271 172.454 158.462C170.44 160.403 169.698 163.131 168.184 165.374C166.883 167.308 165.244 168.984 163.612 170.653C162.65 171.639 161.599 172.558 160.967 173.823C160.893 173.977 160.761 174.117 160.621 174.22C158.438 175.778 156.777 177.955 154.337 179.227C153.059 179.896 151.78 180.624 150.516 181.33C149.222 182.058 147.708 182.404 146.304 182.94C145.724 183.161 145.092 183.33 144.496 183.565C142.747 184.249 141.005 184.345 139.256 183.514C138.573 183.19 137.823 183.051 137.066 182.926C135.302 182.624 134.229 181.212 132.921 180.168C131.201 178.793 130.488 176.742 129.731 174.889C129.158 173.484 128.622 171.837 128.805 170.124C128.96 168.668 128.835 167.19 128.835 165.719C128.835 164.778 128.783 163.837 129.298 162.977C129.584 162.499 129.562 161.94 129.496 161.425C129.261 159.499 130.216 157.8 130.481 155.984C130.841 153.476 132.024 151.292 132.789 148.947C133.722 146.094 135.023 143.483 136.691 140.983C138.507 138.27 140.256 135.52 142.167 132.865C143.174 131.468 144.607 130.549 145.827 129.402C147.914 127.439 150.045 125.505 152.309 123.755C154.176 122.313 156.028 120.85 158.049 119.578C160.871 117.806 163.789 116.21 166.714 114.629C168.831 113.49 171.079 112.593 173.27 111.585C173.49 111.482 173.777 111.357 173.931 111.519C175.129 112.762 175.945 111.122 176.988 111.078C177.488 111.056 177.944 110.269 177.826 109.512C177.503 107.357 178.569 105.401 178.686 103.305C178.694 103.136 178.818 102.967 178.818 102.798C178.664 97.9965 179.34 93.2096 179.215 88.3344C178.554 88.8271 177.488 90.7242 177.4 91.533C177.356 91.9375 177.444 92.3713 177.047 92.6581C176.584 92.1801 176.65 91.1801 175.636 91.2536C175.952 90.3565 176.503 89.6065 177.187 88.9594C178.774 87.4667 179.767 85.7828 178.943 83.5033C178.848 83.2386 178.87 82.9151 178.907 82.6357C179.002 81.9371 179.384 81.7312 179.987 82.0989C181.222 82.8563 182.442 83.6063 183.779 84.2019C185.154 84.8122 185.999 85.9593 185.889 87.7094C185.801 89.1506 185.727 90.6212 186.124 92.0772C186.352 92.9154 185.962 93.8199 185.793 94.6508C185.433 96.467 185.44 98.2759 185.536 100.077C185.661 102.379 184.897 104.556 184.852 106.828C184.838 107.46 184.536 108.21 185.043 108.681C185.676 109.269 186.484 108.776 186.991 108.453C187.917 107.85 188.873 107.894 189.857 107.887C190.438 107.879 191.026 107.938 191.592 107.688C191.923 107.541 192.275 107.497 192.621 107.614C192.944 107.725 193.356 107.798 193.444 108.181C193.547 108.637 193.121 108.739 192.827 108.901C191.981 109.357 191.019 109.416 190.115 109.534C188.843 109.703 187.792 110.159 186.866 110.997C186.741 111.115 186.572 111.313 186.462 111.291C184.551 110.923 184.757 113.093 183.632 113.659C183.346 113.806 183.61 114.188 183.654 114.468C183.801 115.409 183.831 116.343 183.309 117.196C183.052 117.622 183.015 118.085 183.066 118.556C183.25 120.358 182.897 122.078 182.148 123.681C181.2 125.703 181.236 127.88 180.972 130.005C180.869 130.821 180.634 131.601 180.531 132.417C180.465 132.954 180.061 133.196 179.561 133.284C179.421 133.152 179.274 133.02 179.135 132.887C179.01 130.534 179.296 128.196 180.061 125.997C180.957 123.416 180.906 120.74 181.295 118.107C181.729 117.431 181.67 116.674 181.655 115.916C181.641 115.306 181.589 114.821 180.781 115.35C180.428 115.585 180.296 115.21 180.266 114.916C180.23 114.453 180.215 113.99 180.391 113.548C180.502 113.262 180.538 112.96 180.141 112.879C179.781 112.806 179.59 113.056 179.575 113.372C179.502 114.519 178.738 114.615 177.856 114.548C177.716 114.409 177.576 114.269 177.437 114.129C177.437 113.923 177.429 113.718 177.422 113.512C177.79 113.269 177.819 113.026 177.415 112.791C177.106 112.901 176.886 113.122 176.731 113.401C176.239 113.637 175.372 113.218 175.305 114.21C174.328 113.901 173.696 114.784 172.843 114.924C171.212 115.644 169.852 116.916 168.015 117.21C167.831 117.24 167.691 117.519 167.53 117.688C166.743 117.74 166.038 118.012 165.494 118.593C164.752 119.387 163.51 119.527 162.944 120.549C162.51 120.593 162.26 120.813 162.245 121.262C161.951 121.262 161.694 121.335 161.547 121.622C161.334 121.688 161.092 121.725 160.908 121.836C160.709 121.953 160.526 122.211 160.665 122.402C160.908 122.74 161.187 122.505 161.356 122.284C161.488 122.115 161.51 121.865 161.577 121.644C161.863 121.644 162.128 121.578 162.282 121.291C162.723 121.269 162.966 121.049 163.01 120.6C164.847 120.358 166.236 119.291 167.566 118.107C168.037 117.99 168.515 117.865 168.985 117.747C169.007 118.232 168.948 118.688 168.5 118.99C167.721 119.497 167.001 120.188 166.148 120.475C163.693 121.299 161.9 123.093 159.879 124.541C159.181 125.041 158.394 125.519 158.049 126.372C157.689 127.269 157.189 127.821 156.109 127.659C155.601 127.578 155.315 128.078 154.955 128.372C154.146 129.049 153.558 129.924 152.794 130.645C152.309 131.101 150.964 131.314 151.831 132.556C151.963 132.74 151.589 132.902 151.427 133.064C150.927 133.564 150.31 133.652 149.648 133.615C148.428 133.542 147.355 133.931 146.4 134.674C145.79 134.601 145.106 134.909 144.607 134.299C144.651 133.939 144.812 133.63 145.07 133.38C147.252 131.24 149.516 129.181 151.692 127.027C152.324 126.402 153.11 125.63 154.161 125.497C154.279 125.74 154.396 125.762 154.506 125.497C154.668 125.446 154.977 125.387 154.977 125.343C154.881 124.049 156.109 123.586 156.63 122.681C157.652 121.828 158.901 121.328 159.952 120.541C160.511 120.122 161.386 120.034 161.577 119.166C162.429 119.078 162.789 118.335 163.649 117.806C162.312 117.681 161.753 118.166 161.54 119.137C159.607 119.181 158.372 120.571 156.924 121.549C156.564 121.791 156.601 122.262 156.616 122.674C155.131 122.747 154.021 123.549 152.897 124.439C151.508 125.534 150.56 127.019 149.266 128.196C146.929 130.306 144.518 132.328 142.475 134.777C141.402 136.057 140.91 137.638 139.785 138.851C138.955 139.741 138.124 140.711 137.529 141.741C135.986 144.402 134.545 147.13 133.259 149.939C132.642 151.292 132.524 152.763 132.046 154.123C131.503 155.667 130.834 157.16 130.687 158.8C130.525 160.624 129.937 162.425 130.305 164.359C130.797 163.705 130.826 163.028 130.937 162.337C131.216 160.572 131.495 158.815 132.105 157.087C132.443 156.138 133.318 155.432 133.325 154.447C133.347 152.631 134.501 151.234 134.964 149.586C135.28 148.483 135.927 147.461 136.485 146.439C137.412 144.748 137.933 142.799 139.256 141.358C140.293 140.233 141.248 139.064 142.174 137.858C143.563 137.99 143.57 137.99 143.203 139.174C143.122 139.446 142.99 139.711 142.88 139.976C142.578 140.241 142.321 140.608 141.968 140.748C141.152 141.079 141.042 141.696 141.108 142.439C140.491 142.446 140.168 142.829 139.969 143.358C139.359 144.961 138.646 146.513 137.61 147.888C137.441 148.116 137.198 148.403 137.529 148.631C137.897 148.881 138.323 148.881 138.58 148.439C138.837 147.991 139.271 147.498 139.242 147.05C139.153 145.792 140.072 145.263 140.756 144.549C141.219 144.564 141.461 144.807 141.483 145.27C141.233 146.167 141.057 147.101 140.711 147.954C140.27 149.035 139.712 150.131 138.712 150.756C138.102 151.138 137.904 151.506 137.948 152.138C138.036 153.476 137.559 154.697 136.985 155.837C136.206 157.366 135.92 159.028 135.508 160.646C134.81 163.359 135.104 166.19 134.817 168.955C134.7 170.102 134.7 171.168 133.068 171.955C134.192 172.094 134.927 172.072 135.111 172.852C135.442 174.212 136.214 175.411 136.537 176.786C137.11 179.264 137.603 179.624 140.006 179.124C141.88 178.734 143.901 178.602 145.474 177.404C147.877 175.58 150.67 174.315 152.787 172.087C153.786 171.028 155.168 170.286 155.984 169.124C156.741 168.043 157.571 167.153 158.6 166.366C158.953 166.094 159.129 165.602 159.431 165.249C160.063 164.491 160.386 163.484 161.246 162.91C162.275 162.227 162.819 161.204 163.186 160.079C163.399 159.425 163.642 158.859 164.127 158.285C165.281 156.918 166.177 155.359 166.898 153.689C167.765 151.682 168.279 149.498 169.668 147.733C169.94 147.733 170.22 147.748 170.492 147.748C170.477 147.976 170.455 148.204 170.44 148.439C169.536 150.204 168.904 152.079 168 153.851C167.552 154.726 166.824 155.432 166.589 156.425C166.288 157.712 165.538 158.748 164.627 159.682C163.98 160.344 163.363 160.954 163.194 161.999C163.039 162.955 162.444 163.837 161.621 164.469C160.68 165.197 160.342 166.175 160.327 167.315C160.496 167.33 160.687 167.381 160.702 167.344C161.753 165.16 164.075 163.984 165.112 161.785C165.567 162.05 165.575 162.999 166.332 162.734C166.986 162.499 166.824 161.8 166.861 161.249C166.868 161.079 166.876 160.91 166.876 160.741C166.876 160.535 166.861 160.337 166.861 160.131C168.184 160.249 168.375 159.043 168.978 158.315C169.088 158.329 169.22 158.315 169.316 158.359C170.374 158.925 170.433 158.021 170.616 157.432C170.903 156.498 170.212 156.572 169.632 156.572C169.389 155.984 169.543 155.513 170.029 155.131C170.521 154.932 170.749 154.572 170.712 154.042C171.028 152.829 172.028 151.881 172.057 150.542C172.057 150.307 172.388 150.086 172.564 149.858C173.461 150.057 173.277 150.697 173.02 151.211C172.535 152.197 172.322 153.3 171.609 154.204C171.226 154.697 170.778 155.3 170.925 156.123C172.219 155.741 172.52 154.704 172.792 153.719C173.057 152.748 173.49 152.131 174.6 152.322V152.314ZM158.732 123.725C157.828 123.887 157.314 124.402 157.049 125.527C158.034 125.078 158.607 124.615 158.754 123.747C159.35 123.689 159.739 123.394 160.011 122.725C159.122 122.688 158.799 123.056 158.732 123.725ZM171.079 114.21C169.727 114.321 167.838 115.306 167.419 116.122C169.095 116.343 169.977 115.071 171.079 114.218C171.307 114.218 171.535 114.218 171.756 114.196C172.042 114.173 172.373 114.115 172.27 113.732C172.211 113.512 171.903 113.504 171.675 113.526C171.256 113.556 171.109 113.835 171.065 114.21H171.079ZM159.813 170.668C160.842 170.19 162.334 168.506 163.091 166.969C161.907 167.109 160.46 168.741 159.798 170.661C159.541 170.705 159.247 170.705 159.269 171.087C159.269 171.124 159.335 171.19 159.379 171.197C159.761 171.227 159.769 170.933 159.813 170.675V170.668ZM148.891 177.734C151.023 176.874 152.912 175.587 154.484 173.955C155.418 172.984 156.351 172.014 157.476 171.33C158.916 170.447 159.284 169.087 159.725 167.587C158.813 167.638 158.409 168.234 158.1 168.727C156.682 170.992 154.234 172.249 152.706 174.403C152.243 175.058 151.603 175.521 150.611 175.381C150.111 175.308 149.509 175.617 149.016 175.984C148.399 176.44 149.318 176.933 148.906 177.367C148.84 177.433 148.877 177.595 148.862 177.712C148.686 177.72 148.509 177.712 148.34 177.749C148.09 177.793 147.862 177.933 148.009 178.205C148.156 178.47 148.414 178.337 148.59 178.176C148.715 178.058 148.796 177.896 148.891 177.756V177.734ZM181.281 100.732C180.59 100.827 180.274 101.239 180.303 101.702C180.399 103.011 179.877 104.225 179.877 105.511C179.877 106.842 180.075 108.203 179.34 109.445C179.157 109.754 179.208 110.151 179.664 110.276C180.031 110.372 180.362 110.298 180.531 109.901C180.803 109.254 181.001 108.592 180.979 107.864C180.957 107.225 180.942 106.563 181.089 105.945C181.486 104.217 181.229 102.497 181.288 100.732H181.281ZM147.414 178.734C146.29 178.176 145.349 178.22 144.776 178.999C144.386 179.529 143.989 179.801 143.365 179.859C143.085 179.889 142.813 180.043 142.556 180.176C142.247 180.337 141.858 180.521 142.005 180.94C142.152 181.36 142.608 181.308 142.902 181.176C144.401 180.47 146.179 180.279 147.414 178.734ZM129.614 170.433C129.761 170.44 129.908 170.447 130.055 170.455C130.224 169.102 130.393 167.749 130.554 166.396C130.577 166.227 130.54 166.05 130.518 165.881C130.474 165.624 130.305 165.469 130.055 165.455C129.797 165.44 129.584 165.609 129.57 165.852C129.496 167.381 129.393 168.918 129.621 170.433H129.614ZM155.829 174.734C156.976 174.234 157.674 173.322 158.335 172.205C157.182 172.381 156.63 172.925 155.829 174.734ZM166.699 116.857C166.758 116.607 166.67 116.468 166.486 116.446C166.229 116.409 166.067 116.585 165.964 116.799C165.883 116.96 165.905 117.174 166.082 117.225C166.413 117.313 166.589 117.078 166.699 116.865V116.857ZM164.208 117.541C164.627 117.799 164.972 117.865 165.259 117.46C165.295 117.416 165.229 117.225 165.163 117.188C164.825 116.997 164.531 117.093 164.208 117.541Z" fill="#F7D6B7"/>
<path d="M88.9567 57.0613C90.5589 55.6275 92.1758 54.2156 93.5575 52.5538C94.116 51.8773 95.755 51.9582 96.5928 52.5759C98.2758 53.8259 98.9152 55.4069 98.2317 57.451C97.9745 58.2231 97.7981 59.0246 97.5776 59.8041C97.4453 60.2526 97.1955 60.8556 97.6217 61.0982C98.217 61.4438 98.5037 60.7379 98.8417 60.385C99.121 60.0908 99.3048 59.7158 99.5546 59.3923C99.8192 59.0614 100.15 58.8408 100.591 58.804C100.628 59.6055 99.7016 60.1644 99.9662 61.1423C100.664 60.8335 100.789 60.1055 101.296 59.7379C101.671 59.4658 102.516 59.3261 102.149 58.679C101.804 58.0687 101.23 58.804 100.745 58.7967C100.686 58.7967 100.628 58.8114 100.576 58.8187C101.686 56.929 102.987 55.2966 105.28 54.7304C106.279 54.4877 107.117 54.9215 108.029 55.0539C108.212 55.0833 108.514 55.3627 108.499 55.5025C108.418 56.4069 108.977 56.4216 109.601 56.3775C110.417 56.326 110.829 56.8775 110.946 57.5172C111.292 59.3482 111.806 61.2085 111.718 63.0321C111.645 64.5983 111.586 66.1793 111.476 67.7529C111.395 68.8558 111.747 69.797 112.188 70.7677C112.526 71.5103 112.997 71.5618 113.577 71.1647C115.04 70.1721 116.694 69.5691 118.23 68.7161C119.141 68.2088 119.802 67.4073 120.508 66.7087C123.213 64.0469 125.829 61.2894 128.438 58.532C128.997 57.9437 129.357 57.179 129.864 56.5393C131.76 54.1495 134.009 52.0979 136.111 49.8993C137.39 48.561 139.073 47.7889 140.763 47.6934C142.762 47.5757 144.85 48.0243 146.569 49.2596C147.782 50.1273 148.223 52.4215 147.591 53.8333C147.473 54.098 147.348 54.3701 147.231 54.6348C147.106 54.9068 147.003 55.201 147.282 55.4289C147.495 55.6054 147.701 55.4289 147.922 55.348C150.413 54.3553 151.986 55.5466 151.611 58.1864C151.508 58.9364 151.449 59.7379 151.199 60.4144C150.604 62.0321 151.155 63.5542 151.361 65.091C151.567 66.5763 152.765 67.2822 154.227 66.8411C155.389 66.4955 156.52 66.0322 157.52 65.2895C157.99 64.9439 158.534 64.7086 159.049 64.4219C159.754 64.5101 160.46 65.0763 161.173 64.4513C161.298 64.4439 161.423 64.4292 161.548 64.4219C162.084 65.3704 161.29 66.3263 161.548 67.2823C160.541 69.025 158.718 69.5985 157.057 70.4074C155.947 70.9441 154.749 71.1574 153.551 71.3706C151.596 71.7162 149.921 71.4221 148.436 69.8706C147.209 68.5838 146.261 67.1278 145.261 65.7454C144.849 65.6646 144.688 65.9366 144.497 66.1352C142.373 68.3338 139.889 70.0029 137.257 71.5912C135.369 72.7236 133.553 72.6059 131.716 72.4442C130.195 72.3045 128.739 71.4662 127.49 70.4735C126.843 69.9588 126.307 69.3264 126.314 68.4146C126.321 67.7529 125.836 67.2161 126.005 66.4072C123.668 69.3191 121.39 71.9957 118.318 73.8413C117.157 74.5399 115.915 75.0546 114.504 75.0105C114.099 74.9957 113.68 75.0472 113.291 75.1722C112.328 75.4737 111.505 75.1134 110.873 74.5178C108.609 72.3854 106.926 70.0103 106.86 66.6499C106.816 64.6204 106.404 62.6056 107.191 60.3114C104.868 61.0909 103.678 62.5321 102.686 64.1425C101.958 65.3263 101.032 66.341 100.187 67.422C99.5987 68.172 98.7021 68.7382 98.9667 69.9147C99.0108 70.1132 98.8932 70.4074 98.7536 70.5691C97.5262 71.9515 97.3131 74.0766 95.5051 75.0325C94.998 75.3046 94.8583 75.8487 94.5203 76.2458C93.5722 77.3341 92.6902 77.3414 91.4408 76.6429C89.699 75.6722 89.574 74.3634 89.7798 72.5251C90.2428 68.3632 91.6833 64.466 92.5726 60.4217C92.9181 58.8335 93.2194 57.2378 93.5354 55.6422C92.6314 55.2672 92.5212 56.0834 92.117 56.3922C91.4849 56.2819 90.9852 56.4363 90.6912 57.0687C90.5221 57.429 90.331 57.7966 90.0812 58.1055C89.8239 58.4143 89.5006 58.4805 89.2948 58.0099C89.1625 57.6937 89.0375 57.3701 88.9126 57.0466L88.9567 57.0613ZM144.952 58.0099C144.93 57.7084 144.791 57.554 144.541 57.4805C143.247 57.0907 143.056 55.9951 142.924 54.8921C142.858 54.3112 142.939 53.7156 142.902 53.1347C142.85 52.1935 142.211 51.7523 141.564 52.3259C140.756 53.0318 139.72 53.3553 138.977 54.1274C136.001 57.1863 133.399 60.51 131.576 64.3998C131.282 65.0248 130.944 65.5984 130.863 66.3484C130.687 67.9882 130.614 67.9661 132.311 67.7381C132.892 67.6573 133.48 67.694 134.068 67.6646C134.59 67.6425 135.111 67.6205 135.611 67.3852C137.794 66.3705 139.477 64.7601 140.969 62.9292C142.138 61.5026 143.174 59.9732 144.519 58.6937C144.739 58.4878 144.945 58.2967 144.96 58.0099H144.952ZM97.2616 62.4439C97.4159 62.3262 97.416 62.1644 97.3792 62.0027C97.3645 61.9586 97.3057 61.8924 97.2763 61.8924C97.0852 61.9365 97.0705 62.0909 97.0999 62.238C97.1146 62.3115 97.2102 62.3703 97.2616 62.4365V62.4439ZM103.259 57.4069C103.347 57.3555 103.443 57.304 103.531 57.2599C103.45 57.201 103.369 57.1054 103.281 57.0981C103.149 57.0834 102.957 57.0834 102.994 57.304C103.002 57.3554 103.171 57.3775 103.259 57.4143V57.4069Z" fill="#F6D4B4"/>
<path d="M130.893 99.026C129.225 101.283 126.726 102.129 124.205 102.857C123.095 103.173 121.934 103.328 120.743 103.298C119.604 103.269 118.707 102.894 117.936 102.085C116.804 100.901 115.657 99.7539 114.967 98.2244C114.606 97.4303 114.195 97.4671 113.519 98.1362C111.424 100.202 109.021 101.872 106.515 103.364C105.493 103.975 104.178 104.063 103.06 104.592C102.913 104.658 102.693 104.673 102.539 104.622C100.907 104.056 99.1358 103.835 97.6365 102.916C95.4022 101.541 94.5938 99.6216 95.3361 97.1215C95.8432 95.4008 96.4973 93.717 97.2176 92.0772C98.3861 89.4374 100.341 87.3123 102.098 85.0696C102.458 84.6137 102.862 84.2019 103.215 83.724C104.743 81.6136 106.875 80.3194 109.285 79.4297C109.396 79.3929 109.513 79.3562 109.623 79.3562C111.968 79.29 114.114 79.8709 115.9 81.4445C117.017 82.4298 117.098 83.7607 116.87 85.1284C116.819 85.4152 116.694 85.6873 116.62 85.9741C116.37 86.9594 116.517 87.1064 117.524 86.9226C120.052 86.452 121.434 87.9962 120.648 90.4742C119.994 92.5184 119.766 94.592 120.339 96.6656C120.905 98.6877 122.044 99.4157 124.359 98.2833C125.873 97.548 127.321 96.6656 128.806 95.8567C128.806 96.1582 128.857 96.4303 129.151 96.592C129.357 96.7048 129.477 96.5896 129.511 96.2465C130.187 96.4082 131.327 95.7759 131.231 97.2538L131.194 97.2832C130.761 97.3274 130.562 97.5847 130.562 98.0112C130.018 98.5627 130.459 98.6436 130.9 98.7245C130.9 98.8348 130.9 98.9451 130.9 99.048L130.893 99.026ZM114.165 89.7977C111.674 88.3344 112.299 85.8932 112.225 83.7681C111.498 83.5549 111.042 83.849 110.594 84.099C107.889 85.599 105.875 87.8932 104.133 90.3345C102.281 92.9302 100.753 95.7611 99.687 98.8127C99.4739 99.4157 99.6723 99.7539 100.297 99.7245C100.878 99.6951 101.451 99.4304 102.017 99.4598C105.17 99.6436 107.411 97.8641 109.241 95.7244C110.895 93.7905 112.438 91.7316 114.165 89.8051V89.7977Z" fill="#F6D3B3"/>
<path d="M158.99 91.6286C159.497 94.9302 159.004 98.2318 159.048 101.533C158.064 102.07 157.314 103.122 155.998 102.923C155.962 102.82 155.932 102.71 155.918 102.592C155.918 102.129 156.006 101.622 155.337 101.519C155.286 100.827 155.241 100.144 155.19 99.4524C155.19 98.6436 155.344 97.8127 155.072 97.0259C154.742 96.092 154.815 95.217 155.263 94.3273C155.749 93.364 155.521 92.5625 154.609 91.9669L154.529 91.886C154.47 91.6727 154.433 91.408 154.146 91.4227C153.867 91.4374 153.838 91.7022 153.794 91.9154C153.059 92.8787 152.405 93.9155 151.383 94.6361C151.104 94.8346 150.736 95.114 150.692 95.4008C150.494 96.7611 148.789 97.1729 148.759 98.6289C148.759 98.9451 148.267 98.9083 148.083 99.0921C147.495 99.6877 146.665 100.195 146.929 101.239C147.01 101.57 146.878 101.798 146.709 102.048C146.04 103.078 145.29 104.07 144.923 105.269C144.79 105.717 144.357 105.857 144.041 106.085C143.365 106.563 142.777 107.07 142.299 107.776C141.557 108.872 140.719 109.004 139.55 108.431C139.242 108.276 138.97 108.034 138.668 107.864C137.331 107.1 137.015 106.607 137.323 105.188C137.992 102.048 138.448 98.8642 139.374 95.7832C139.793 94.3934 140.293 93.0331 140.748 91.658C140.939 90.9301 139.977 91.0624 139.888 90.5404C140.702 90.1188 141.111 89.4251 141.116 88.4594C141.116 88.2241 141.116 87.9888 141.116 87.7609C141.116 86.9373 141.116 86.1138 141.108 85.2828C141.454 85.0696 141.483 84.8343 141.145 84.5843C141.175 83.7166 141.718 83.4298 142.453 83.599C143.732 83.8931 144.893 84.4593 145.636 85.6137C146.113 86.3637 146.349 87.0991 146.018 88.0917C145.43 89.8344 145.584 91.7316 144.812 93.7316C146.099 93.2022 146.216 92.0037 147.128 91.6507C147.238 91.7536 147.341 91.8639 147.451 91.9669C147.458 92.2904 147.341 92.7978 147.716 92.8493C148.311 92.9301 148.142 92.3492 148.201 92.0036C148.223 91.8419 148.193 91.6654 148.186 91.4963C148.37 91.3124 148.561 91.1286 148.744 90.9448C149.533 90.8713 149.933 90.3933 149.942 89.5109V89.5256H151.133C150.883 89.0183 150.207 89.0403 150.288 88.4741C150.347 88.0771 150.604 87.8859 150.868 87.6506C151.824 86.805 154.565 86.3123 155.646 86.8123C155.991 86.9741 156.16 87.2535 156.27 87.6065C156.432 88.1138 156.91 88.4668 157.329 88.3491C158.571 87.9888 158.358 88.8197 158.402 89.4962C158.571 90.2168 157.931 91.158 158.99 91.6286Z" fill="#F6D4B4"/>
<path d="M85.7964 66.5911C85.4803 67.6279 84.7748 68.4588 84.0178 69.1279C82.739 70.2603 81.5998 71.503 80.4606 72.7604C79.4979 73.8266 78.3954 74.6502 76.9623 74.981C76.1538 75.1649 75.4042 75.5399 74.7501 76.0325C74.1695 76.4664 73.5227 76.5914 72.9201 76.3929C69.8774 75.3561 67.0699 73.0104 67.0919 69.2088C67.1066 65.9587 67.6431 62.8336 68.7456 59.7747C69.0395 58.9585 69.0689 58.054 69.2894 57.2084C69.6275 55.9216 70.0464 54.6568 70.4065 53.3774C70.7373 52.1935 71.1047 51.0244 71.0239 49.767C70.9945 49.2596 71.2003 48.8478 71.7515 48.7081C72.1998 48.5978 72.4938 48.7964 72.8172 49.1199C73.5521 49.8626 74.3312 50.5832 75.147 51.2376C76.9549 52.6935 76.661 54.4951 75.9922 56.3187C75.4556 57.7819 75.1984 59.3261 74.5516 60.7674C74.3018 61.3188 74.2136 61.9659 73.8975 62.5395C73.6477 62.988 73.4639 63.5321 73.4419 64.0395C73.3463 66.2087 72.5011 68.2529 72.5305 70.5397C73.1993 70.6133 73.8388 70.4515 74.5149 70.0323C76.8594 68.5617 78.7776 66.569 80.8575 64.7895C82.1363 63.6939 83.2828 62.4439 84.7233 61.5321C84.7454 61.76 84.6792 62.0541 84.7968 62.2159C85.7229 63.4439 86.23 64.6719 85.2451 66.1425C85.0467 66.4367 85.5318 66.5322 85.8037 66.5984L85.7964 66.5911Z" fill="#F6D4B4"/>
<path d="M213.038 99.401C212.465 100.732 211.34 101.622 210.319 102.533C209.547 103.232 209.18 104.188 208.29 104.842C206.806 105.945 205.167 106.607 203.513 107.291C200.728 108.453 198.339 107.614 196.7 105.136C195.083 102.688 194.547 100.129 195.502 97.3274C196.149 95.4376 196.215 93.4081 196.862 91.5257C197.832 88.7094 198.016 85.6873 199.192 82.9372C199.346 82.5842 199.258 82.1283 199.302 81.7166C199.405 80.7239 200.265 80.2974 201.007 80.9739C201.955 81.8416 202.888 82.7092 203.895 83.5107C204.358 83.8784 204.491 84.4814 204.542 85.099C204.638 86.2902 204.513 87.4888 204.035 88.5477C203.616 89.4668 203.359 90.408 203.094 91.3566C202.763 92.5404 202.492 93.7317 201.683 94.7023C201.352 95.0994 201.382 95.5773 201.396 96.0479C201.448 97.9377 201.264 99.7833 200.5 101.541C200.382 101.813 200.309 102.122 200.544 102.364C200.823 102.658 201.198 102.614 201.529 102.489C202.587 102.085 203.447 101.35 204.263 100.614C206.519 98.5848 209.047 96.8715 211.149 94.6582C211.326 94.4743 211.686 94.4743 211.965 94.3934C211.972 94.5332 211.987 94.6802 211.994 94.8199C211.605 95.6582 210.51 96.0185 210.326 97.07C211.928 97.2833 212.046 95.9229 212.678 95.1508C212.913 95.1508 213.156 95.1508 213.391 95.1508C213.714 95.7317 214.023 96.4671 213.597 96.9524C212.913 97.7244 213.075 98.5553 213.038 99.401Z" fill="#F6D3B3"/>
<path d="M27.2724 97.3273C27.2577 97.7612 27.0225 97.9671 26.6109 97.9965C26.5522 97.945 26.4934 97.8935 26.4346 97.8421C26.486 97.9009 26.5375 97.9597 26.5889 98.0185C26.4419 98.2685 26.2141 98.3347 25.9421 98.3347C25.1557 98.3568 24.2738 98.0774 23.899 99.1804C23.8255 99.3936 23.4507 99.5701 23.1787 99.6362C21.8779 99.9598 21.2679 101.129 20.3418 101.908C19.9156 102.269 20.0405 102.585 20.408 102.923C20.8196 103.298 21.1797 103.276 21.6721 103.033C23.2522 102.261 23.8108 100.644 24.7956 99.3789C25.0529 99.8495 25.1852 100.445 25.8907 100.467C24.4943 101.761 23.0979 103.055 21.7088 104.357C21.3781 104.673 20.9886 104.695 20.577 104.688C20.5403 104.357 20.555 103.703 20.3051 103.806C19.526 104.129 18.7029 103.423 18.0047 104.011C17.9606 104.048 17.9165 104.151 17.9239 104.158C18.6882 104.842 17.6372 105.57 17.9018 106.32C18.5412 106.225 18.8866 105.556 19.526 105.739C18.1517 108.151 15.7117 109.629 14.1903 111.916C13.9551 112.269 13.5362 112.357 13.1467 112.49C12.6616 112.651 12.1325 112.835 12.1178 113.512C11.8679 113.497 11.618 113.482 11.3755 113.468C11.596 112.137 12.544 111.195 13.2349 110.129C13.6612 109.467 14.2491 108.909 14.5284 108.129C13.911 107.806 13.426 108.188 12.9556 108.276C11.8679 108.482 11.5372 109.563 10.9492 110.328C10.6038 110.769 10.5303 111.159 10.9492 111.703C11.2873 112.144 10.839 112.607 10.3539 112.725C9.91293 112.835 9.42786 112.784 8.96484 112.798C8.96484 112.203 9.00159 111.659 9.39846 111.137C11.155 108.813 12.7057 106.35 14.8665 104.32C15.8881 103.357 16.792 102.166 17.7916 101.202C19.1659 99.8789 20.4888 98.4597 22.1057 97.3641C24.4649 95.7611 26.7432 94.0331 29.0583 92.3566C31.6233 90.5036 34.6292 89.4447 37.2971 87.7756C39.4211 86.4446 41.9126 85.8931 44.066 84.6284C44.1983 84.5475 44.4114 84.6137 44.5878 84.6137C44.551 85.0034 44.7862 85.3049 44.9259 85.6358C44.6907 86.1726 43.8675 85.7387 43.6397 86.4226C44.2865 87.0402 45.0361 85.9373 45.7416 86.577C44.1615 87.43 42.7063 88.4373 41.1041 89.0329C39.6489 89.5697 38.3995 90.6433 36.7385 90.6801C36.327 90.6874 35.9227 91.0918 35.5259 91.3345C34.0927 92.2242 32.7404 93.3052 31.2117 93.9669C30.2269 94.3934 29.7345 94.967 29.4185 95.8714L29.4331 95.8641C27.8457 95.9302 27.7869 95.9744 27.3091 97.3273H27.2724ZM22.6937 98.3421C22.5246 98.3715 22.3336 98.3642 22.1939 98.445C22.0249 98.5406 21.6941 98.6289 21.9661 98.923C22.0102 98.9671 22.2821 98.8568 22.3997 98.7612C22.5246 98.6583 22.5981 98.4818 22.6863 98.3421C22.8113 98.2465 23.2155 98.4892 23.0391 98.0774C23.0024 97.9965 22.7598 98.1803 22.6937 98.3421ZM28.3381 94.4596C28.4483 94.4596 28.5659 94.4449 28.6762 94.4449C29.1318 94.4302 29.3964 94.1802 29.5066 93.7537C29.5581 93.5405 29.4185 93.4449 29.2347 93.4449C28.7791 93.4449 28.5145 93.7096 28.3822 94.114C28.3454 94.2169 28.3454 94.3346 28.3307 94.4449C28.0367 94.4449 27.7722 94.5037 27.6252 94.7979C26.6697 94.7537 26.0965 95.2096 25.6996 96.1582C26.8902 96.2979 27.4267 95.7758 27.6399 94.8126C27.9265 94.8052 28.1911 94.7464 28.3454 94.4596H28.3381ZM40.3177 88.1065C38.8846 87.93 37.8704 88.6359 37.0178 89.6947C38.2672 89.4742 39.5093 89.2536 40.3251 88.1065C41.207 87.805 42.3315 87.9667 42.8092 86.8417C41.3736 86.6701 40.5431 87.0893 40.3177 88.0991V88.1065ZM16.476 103.96C16.5275 104.041 16.5569 104.181 16.623 104.195C16.6965 104.217 16.8582 104.158 16.8876 104.092C16.9611 103.923 16.8876 103.783 16.6891 103.776C16.6157 103.776 16.5495 103.886 16.476 103.953V103.96ZM24.2591 97.1362C24.1709 97.1803 24.068 97.217 23.9945 97.2832C23.899 97.3862 23.9284 97.5038 24.0607 97.5259C24.1415 97.5406 24.2812 97.4744 24.3179 97.4082C24.3547 97.3494 24.2812 97.2318 24.2591 97.1362Z" fill="#FADFC6"/>
<path d="M155.999 102.923C157.314 103.122 158.064 102.07 159.049 101.533C159.247 101.68 159.328 101.879 159.394 102.114C159.806 103.445 159.894 103.416 161.187 102.886C162.488 102.357 163.679 101.636 164.899 100.952C166.111 100.276 167.317 99.6362 168.022 98.3274C168.287 97.8347 168.743 97.4965 169.316 97.2244C170.72 96.5626 171.447 95.114 172.557 94.0993C173.586 93.1581 174.372 91.9669 175.622 91.2683C176.629 91.1948 176.57 92.1948 177.033 92.6728C177.048 93.6434 176.798 94.5405 176.07 95.2096C174.556 96.6067 173.549 98.4083 172.204 99.9451C170.595 101.769 169.007 103.585 167.023 105.048C165.987 105.813 164.811 106.048 163.671 106.445C163.231 106.6 162.738 106.607 162.319 106.798C160.673 107.556 159.387 106.967 158.203 105.82C158.042 105.658 157.777 105.556 157.762 105.306C157.726 104.217 157.182 103.6 156.116 103.401C156.043 103.386 156.021 103.092 155.977 102.923H155.999Z" fill="#F7D4B5"/>
<path d="M144.298 119.821C143.887 119.791 143.659 119.585 143.629 119.159C143.593 118.637 143.74 118.1 143.46 117.607C142.968 117.372 142.858 117.806 142.659 118.056C141.645 119.343 140.227 120.041 138.764 120.63C137.574 121.108 136.971 121.975 136.559 123.314C138.206 122.946 139.712 123.078 141.219 123.027C141.564 123.012 141.939 122.953 142.248 123.166C142.549 123.372 142.726 123.696 142.726 124.056C142.726 124.483 142.395 124.703 142.035 124.718C139.808 124.769 137.574 124.924 135.383 124.387C134.626 124.203 134.795 123.622 134.979 123.108C135.516 121.63 136.493 120.343 137.779 119.615C139.154 118.835 139.8 117.512 140.873 116.534C141.153 116.284 140.631 115.262 140.124 114.975C138.911 114.291 136.772 114.813 136.376 116.166C136.133 116.997 135.707 117.21 135.141 117.269C134.171 117.372 133.943 117.924 134.083 118.703C134.369 120.255 133.568 121.74 133.877 123.284C133.884 123.336 133.877 123.446 133.862 123.446C132.723 123.777 132.282 125.159 131.055 125.35C129.702 125.556 128.284 125.644 127.328 124.461C124.932 121.468 124.506 118.306 126.961 115.063C128.776 112.666 132.142 113.181 133.362 115.938C133.583 116.438 134.193 116.652 135.192 116.578C135.413 115.784 134.303 116.152 134.281 115.49C134.987 115.159 135.648 114.718 136.265 114.196C137.89 112.828 140.462 112.835 141.91 114.071C142.307 114.409 142.512 114.732 142.549 115.24C142.571 115.578 142.703 115.924 142.828 116.247C142.909 116.453 143.078 116.622 143.284 116.909C143.813 116.431 143.593 115.879 143.622 115.416C143.659 114.879 143.585 114.328 144.291 114.166C144.291 116.049 144.306 117.931 144.306 119.813L144.298 119.821ZM127.02 119.578C126.88 120.821 127.314 122.005 128.1 123.086C128.504 123.644 128.997 124.005 129.71 123.953C131.606 123.828 133.303 121.608 132.921 119.718C132.84 119.321 132.686 118.938 132.686 118.519C132.686 117.365 132.076 116.607 131.216 115.865C130.437 115.196 129.798 115.21 129.011 115.674C127.564 116.527 126.954 117.821 127.02 119.578Z" fill="#F8D8BB"/>
<path d="M179.135 132.902C179.275 133.034 179.422 133.167 179.561 133.299C179.561 133.476 179.495 133.674 179.561 133.821C180.561 136.24 179.091 138.263 178.496 140.417C178.393 140.799 178.128 141.116 178.224 141.564C178.532 142.991 178.415 144.329 177.386 145.476C177.239 145.638 177.114 145.888 177.106 146.101C176.974 148.329 176.048 150.234 174.747 151.991C174.681 152.079 174.652 152.204 174.608 152.314C173.498 152.123 173.064 152.748 172.8 153.712C172.528 154.704 172.226 155.734 170.933 156.116C170.786 155.293 171.234 154.69 171.616 154.197C172.322 153.292 172.535 152.189 173.028 151.204C173.285 150.682 173.461 150.042 172.564 149.851C172.52 149.285 172.432 148.719 172.881 148.248C173.226 147.888 173.204 147.425 173.219 146.969C173.219 146.792 173.219 146.608 173.219 146.432C173.41 146.307 173.755 146.189 173.762 146.05C173.829 144.755 174.791 143.682 174.637 142.336C174.586 141.917 174.725 141.535 174.997 141.189C175.526 140.52 175.762 139.755 175.703 138.895C175.666 138.41 175.717 137.939 176.327 137.807C176.57 137.821 176.82 137.836 177.062 137.851C176.482 140.101 175.901 142.344 175.328 144.594C176.327 144.116 176.496 143.219 176.651 142.402C176.893 141.138 177.062 139.873 177.841 138.785C178.121 138.395 178.172 137.91 178.128 137.432C178.099 137.115 178.26 136.63 177.753 136.623C177.533 136.623 177.312 136.961 177.092 137.145C176.959 137.145 176.827 137.145 176.695 137.145C176.702 136.093 176.71 135.049 176.724 133.998C176.643 133.358 177.04 132.821 177.092 132.211C177.231 131.88 177.834 131.755 177.496 131.203C177.356 130.976 177.173 130.652 177.393 130.387C178.04 129.623 177.739 128.711 177.812 127.858C177.856 127.395 177.724 126.821 177.952 126.49C178.613 125.534 178.488 124.49 178.496 123.453C178.496 122.696 178.628 121.961 178.79 121.218C179.23 119.262 179.649 117.284 179.561 115.203C179.348 115.284 179.238 115.306 179.157 115.365C178.665 115.718 178.569 116.85 177.878 116.534C176.908 116.085 177.834 115.232 177.863 114.549C178.745 114.615 179.51 114.519 179.583 113.372C179.605 113.063 179.796 112.813 180.149 112.879C180.546 112.96 180.517 113.262 180.399 113.548C180.223 113.997 180.237 114.46 180.274 114.916C180.296 115.21 180.428 115.585 180.789 115.35C181.597 114.821 181.648 115.306 181.663 115.916C181.678 116.666 181.729 117.431 181.303 118.107C179.899 118.313 180.01 119.519 179.951 120.424C179.84 122.174 180.039 123.953 178.929 125.497C178.841 125.622 178.87 125.836 178.87 126.012C178.819 128.645 178.613 131.255 177.841 133.792C177.761 134.057 177.841 134.373 177.849 134.667C177.834 134.887 177.841 135.167 178.077 135.211C178.473 135.277 178.451 134.939 178.466 134.667C178.51 134.005 178.393 133.277 179.15 132.887L179.135 132.902Z" fill="#F9DCC1"/>
<path d="M144.298 119.821C144.298 117.938 144.291 116.056 144.284 114.174C144.901 113.365 145.9 113.343 146.694 113.365C147.73 113.387 148.789 113.475 149.832 113.519C150.34 113.541 150.766 113.725 150.891 114.262C151.008 114.799 150.531 115.034 150.2 115.144C149.428 115.394 148.759 116.1 147.841 115.769C147.613 115.688 147.378 115.622 147.165 115.747C146.702 116.019 145.783 115.887 145.886 116.666C145.981 117.343 146.753 117.041 147.231 117.071C149.899 117.218 151.817 119.196 151.67 121.696C151.655 121.931 151.692 122.211 151.582 122.38C150.104 124.586 148.524 126.696 145.673 127.167C145.136 127.255 144.526 127.012 143.982 126.821C143.571 126.674 143.593 126.262 143.798 125.939C144.203 125.306 144.864 125.071 145.54 124.836C146.518 124.505 147.635 124.343 147.951 123.086C148.017 122.828 148.26 122.762 148.502 122.725C149.244 122.622 149.311 122.188 149.09 121.578C149.039 121.424 149.002 121.211 149.068 121.071C149.406 120.358 149.215 119.791 148.59 119.402C147.892 118.968 147.231 119.446 146.606 119.652C146.055 119.835 145.18 120.049 144.651 119.865C144.541 119.828 144.423 119.828 144.306 119.813L144.298 119.821Z" fill="#F7D6B7"/>
<path d="M201.073 69.9C201.073 67.319 203.932 64.6204 206.445 64.8189C207.335 64.8851 208.025 65.1866 208.216 66.1719C208.275 66.4587 208.349 66.7455 208.474 67.0102C208.907 67.9661 209.385 68.8705 208.834 69.9956C208.121 71.4515 207.232 72.6868 205.718 73.3854C205.387 73.5398 205.056 73.6133 204.703 73.606C202.778 73.5545 201.08 71.8192 201.08 69.9H201.073Z" fill="#F6D3B3"/>
<path d="M78.0574 33.0753C79.5493 33.0753 80.321 33.6856 80.4386 35.3915C80.4901 36.1489 80.8796 36.8474 80.7473 37.6269C80.3945 39.774 78.9173 40.9211 77.1019 41.7594C76.9035 41.8476 76.6022 41.9138 76.4258 41.8255C75.2425 41.2593 73.7065 41.0976 73.1847 39.6858C72.5967 38.0901 72.6629 36.5092 74.0078 35.193C75.0955 34.1267 76.1171 32.9944 78.0574 33.0753Z" fill="#F6D4B4"/>
<path d="M76.7271 115.401C77.5281 115.254 78.1088 115.078 78.7114 114.622C79.7477 113.835 81.0632 113.343 82.4596 113.968C82.6213 114.041 82.7904 114.159 82.9447 114.151C84.0324 114.093 84.4954 114.776 85.1055 115.571C85.8404 116.527 85.7522 117.188 85.2231 118.122C84.5102 119.38 84.4955 119.512 85.6199 120.468C86.2667 121.019 85.8625 121.563 85.9066 122.049C86.0535 123.725 85.0834 124.975 83.4739 125.35C82.3567 125.608 81.2396 125.747 80.049 125.519C77.1166 124.946 75.9333 122.35 77.6531 119.865C77.9985 119.365 78.2337 119.159 77.8295 118.593C77.3959 117.99 77.0504 117.313 77.2856 116.475C77.3518 116.24 76.999 115.894 76.7271 115.401ZM81.5116 124.461C83.0403 124.431 83.9663 123.666 84.7968 122.74C85.1643 122.328 85.0834 121.902 84.7306 121.483C83.5253 120.049 81.541 119.777 79.6742 120.453C78.6379 120.828 78.5203 121.541 78.4395 122.299C78.3586 123.137 78.8804 123.74 79.6742 124.005C80.3283 124.225 80.975 124.534 81.5116 124.453V124.461ZM81.7173 118.821C83.6503 118.828 84.1941 118.379 84.0324 116.887C83.9442 116.078 82.9521 115.335 81.879 115.276C80.2548 115.188 79.1377 115.872 79.0862 116.975C79.0348 118.181 79.9241 118.806 81.71 118.813L81.7173 118.821Z" fill="#F8D8BB"/>
<path d="M186.271 65.4513C186.227 66.2675 186.308 66.7749 186.154 67.194C185.845 68.0323 186.029 69.1941 184.956 69.5985C183.559 70.1279 182.148 70.775 180.583 70.3559C180.171 70.2456 179.833 69.9441 179.708 69.547C179.076 67.4808 178.826 65.4439 180.201 63.51C180.686 62.8262 181.296 62.4071 182.082 62.4218C183.052 62.4365 184.074 62.0982 184.978 62.7453C186.036 63.5027 186.455 64.5174 186.264 65.4513H186.271Z" fill="#F6D3B3"/>
<path d="M118.612 116.387C119.156 116.534 119.707 116.681 120.251 116.828C118.377 116.637 116.451 118.056 114.606 116.652C114.908 116.159 115.216 116.504 115.503 116.585C116.363 116.828 116.848 116.629 117.252 115.703C117.936 114.137 119.229 113.159 120.978 112.901C122.221 112.718 123.889 113.563 124.521 115.203C125.52 117.813 124.756 118.497 122.338 119.894C120.986 120.674 119.479 121.203 118.531 122.563C118.391 122.769 118.296 122.961 118.465 123.35C119.891 122.997 121.39 123.086 122.882 123.049C123.345 123.034 123.837 122.953 124.227 123.299C124.484 123.527 124.8 123.755 124.734 124.159C124.661 124.571 124.33 124.74 123.962 124.74C122.265 124.74 120.552 124.821 118.869 124.644C118.156 124.571 117.348 124.637 116.628 124.203C117.002 122.027 118.384 120.483 120.082 119.402C121.302 118.63 121.978 117.482 122.853 116.497C123.213 116.093 122.537 115.313 122.074 115.004C120.831 114.173 119.281 114.784 118.509 116.291C118.472 116.365 118.428 116.438 118.391 116.512C118.465 116.475 118.538 116.431 118.612 116.394V116.387Z" fill="#F8D8BB"/>
<path d="M102.355 123.034C102.34 122.586 102.333 122.137 102.318 121.688C102.333 120.372 102.34 119.063 102.355 117.747C102.568 117.291 102.715 116.821 102.722 116.321C102.979 116.188 103.045 115.953 103.053 115.688C103.81 114.629 104.684 113.718 105.904 113.151C106.639 112.813 107.374 112.806 108.131 112.821C108.587 112.821 108.94 112.968 108.977 113.497C109.013 113.968 108.793 114.298 108.367 114.453C107.874 114.637 107.36 114.762 106.86 114.931C104.692 115.659 103.979 116.534 103.56 118.946C103.957 119.291 104.317 119.019 104.692 118.872C107.08 117.931 109.454 119.681 109.77 122.181C110.167 125.336 106.985 126.622 104.611 126.13C103.927 125.99 103.582 125.38 103.031 125.049C102.553 124.762 102.722 124.211 102.693 123.755C102.693 123.461 102.641 123.188 102.355 123.027V123.034ZM105.713 120.313C104.765 120.181 103.729 121.181 103.553 122.402C103.435 123.203 104.655 124.644 105.544 124.762C106.728 124.924 108.175 123.652 108.308 122.336C108.403 121.358 107.36 120.541 105.713 120.313Z" fill="#F7D6B7"/>
<path d="M102.354 117.747C102.34 119.063 102.332 120.372 102.318 121.688C101.943 121.688 101.377 121.041 101.281 121.953C101.223 122.534 100.826 122.894 100.569 123.336C99.3192 125.512 97.9081 126.019 95.6003 125.115C94.7551 124.784 94.0496 124.049 93.7335 123.38C92.3959 120.593 92.3592 117.012 94.6228 114.74C96.4455 112.909 99.3192 113.284 100.532 115.563C100.804 116.078 101.068 116.607 101.245 117.166C101.436 117.769 101.862 117.791 102.347 117.747H102.354ZM100.23 119.644C100.23 119.409 100.201 119.174 100.23 118.946C100.495 117.144 99.084 116.387 98.0183 115.453C97.6655 115.144 97.1511 115.262 96.688 115.482C94.8727 116.357 93.9246 118.527 94.5126 120.527C94.6449 120.975 94.8139 121.416 94.9021 121.865C95.1079 122.887 95.6591 123.63 96.7027 123.725C97.7096 123.821 98.643 123.872 99.4514 122.747C100.194 121.718 100.216 120.733 100.223 119.644H100.23Z" fill="#F8D8BB"/>
<path d="M76.6021 119.424C76.6021 119.821 76.58 119.946 76.6021 120.056C77.0724 122.122 75.676 123.446 74.5809 124.799C73.6329 125.975 72.1483 125.703 71.0018 125.211C69.8111 124.696 68.6793 123.828 68.547 122.306C68.4809 121.534 67.8047 121.027 67.8121 120.181C67.8341 118.313 68.3265 116.578 69.3922 115.129C70.8842 113.115 73.236 112.99 75.1616 114.857C76.5212 116.181 76.8299 117.879 76.6094 119.424H76.6021ZM69.5539 119.512C69.5466 121.063 69.7964 121.887 70.6122 123.005C71.5236 124.247 73.2727 124.299 74.3164 123.115C75.8671 121.358 75.992 118.534 74.603 116.629C73.4785 115.085 71.9057 114.909 70.6637 116.357C69.914 117.225 69.4584 118.343 69.5539 119.519V119.512Z" fill="#F8D8BB"/>
<path d="M161.195 64.4733C160.482 65.0983 159.776 64.5395 159.071 64.4439C159.174 64.2454 159.232 63.9586 159.394 63.8483C161.151 62.7012 162.929 61.5909 164.686 60.4438C165.891 59.6496 167.111 58.8628 168.236 57.9731C168.926 57.429 169.72 56.9584 170.448 56.6495C172.05 55.973 173.204 54.7303 174.637 53.8627C175.085 53.5906 175.46 53.3921 175.879 53.7744C176.474 54.3186 176.658 55.2156 176.283 55.6715C175.879 56.1642 175.497 56.6569 174.946 57.0392C172.8 58.5319 170.448 59.7232 168.471 61.4659C168.03 61.8482 167.449 62.0247 166.832 61.9879L166.839 62.0026C166.847 61.4217 167.317 61.2453 167.714 61.0247C168.045 60.8408 168.346 60.5835 168.155 60.2085C167.927 59.7673 167.545 60.0393 167.258 60.2085C165.333 61.3629 163.414 62.5247 161.503 63.7012C161.239 63.863 161.21 64.1865 161.173 64.4807L161.195 64.4733ZM172.307 56.7892C170.911 57.2304 169.926 58.0099 168.971 58.8555C168.706 59.0908 168.662 59.3334 168.941 59.5834C169.213 59.8261 169.507 59.7967 169.661 59.4878C170.044 58.7305 170.756 58.5099 171.469 58.2378C172.043 58.0172 172.41 57.6054 172.307 56.7819V56.7892Z" fill="#F9DCC1"/>
<path d="M141.131 87.7608C141.131 87.9961 141.131 88.2314 141.131 88.4594C141.121 89.4251 140.712 90.1188 139.903 90.5403C139.992 91.0624 140.954 90.9301 140.763 91.658C139.845 91.4521 139.198 91.8639 138.617 92.5184C137.978 93.239 137.228 93.7757 136.199 93.7169C136.199 93.6213 136.207 93.5184 136.207 93.4228C136.376 93.2684 136.53 93.0992 136.714 92.9669C137.066 92.7095 137.419 92.3639 137.162 91.9669C136.817 91.4227 136.478 91.9521 136.177 92.1433C134.898 92.9448 133.671 93.8052 132.319 94.489C131.856 94.7243 130.849 94.6508 131.055 95.3714C131.312 96.2611 132.12 95.2831 132.664 95.5037C132.789 95.6214 132.907 95.739 133.032 95.8567C132.436 96.3126 131.841 96.7758 131.246 97.2317C131.334 95.7538 130.202 96.3861 129.526 96.2243C129.401 96.342 129.283 96.4523 129.166 96.5699C128.872 96.4082 128.82 96.1361 128.82 95.8346C129.305 94.9449 130.136 94.4522 130.959 93.9155C134.193 91.8051 137.485 89.783 140.815 87.8197C140.91 87.7682 141.043 87.7755 141.153 87.7535L141.131 87.7608Z" fill="#FADFC6"/>
<path d="M115.723 123.284C115.121 123.836 115.062 124.409 114.893 124.946C114.694 125.571 114.334 126.027 113.614 126.24C112.467 126.571 111.762 126.277 111.372 125.093C111.056 124.13 111.63 123.005 112.592 122.762C113.107 122.63 113.629 122.652 114.143 122.813C114.584 122.953 115.025 123.071 115.731 123.277L115.723 123.284Z" fill="#F7D4B5"/>
<path d="M89.6624 122.696C90.706 122.696 91.3822 123.402 91.3601 124.475C91.3381 125.534 90.2063 126.564 89.1332 126.49C88.435 126.446 87.5898 125.416 87.5898 124.615C87.5898 123.563 88.5306 122.696 89.6624 122.696Z" fill="#F7D4B5"/>
<path d="M218.322 90.2168C217.676 90.3271 217.514 89.4595 216.896 89.5109C216.999 88.5182 217.859 88.0991 218.455 87.4961C219.226 86.7093 219.91 85.827 220.887 85.2608C221.078 85.1505 221.299 84.9887 221.534 85.1137C221.85 85.2755 221.784 85.599 221.799 85.8785C221.821 86.3123 221.615 86.6432 221.35 86.9741C220.645 87.8932 219.969 88.8344 219.013 89.5183C218.778 89.7536 218.55 89.9815 218.315 90.2168H218.322Z" fill="#F9DCC1"/>
<path d="M216.904 89.5109C216.904 89.9227 216.955 90.3565 216.448 90.533C216.073 90.6654 215.867 90.9007 215.867 91.3051C215.875 92.4596 215.235 92.9081 214.162 93.114C213.611 93.2169 212.568 93.3934 213.391 94.4523C213.391 94.6876 213.391 94.9302 213.391 95.1655C213.155 95.1655 212.913 95.1655 212.678 95.1655C212.531 94.8861 212.274 94.8273 211.994 94.8346C211.987 94.6949 211.972 94.5479 211.965 94.4081C212.384 92.886 215.346 89.9595 216.918 89.5183L216.904 89.5109Z" fill="#F9DCC1"/>
<path d="M161.569 67.3043C161.305 66.3557 162.106 65.3998 161.569 64.4513C163.091 63.5174 164.869 63.0762 166.347 62.0394C166.464 61.9512 166.692 62.0173 166.861 62.01L166.854 61.9953C166.854 62.7159 166.332 63.0247 165.773 63.2159C164.708 63.5836 163.987 64.5101 162.936 64.9072C162.635 65.0175 162.407 65.341 162.532 65.7528C162.885 66.8852 162.878 66.8852 161.577 67.3043H161.569Z" fill="#F9DCC1"/>
<path d="M213.384 95.1582C213.384 94.9229 213.384 94.6802 213.384 94.4449C214.39 94.2464 214.648 94.4008 214.743 95.4008C214.78 95.7538 214.457 96.2097 215.147 96.217C214.978 96.5773 214.773 96.9229 214.765 97.3494C214.743 98.4965 214.089 99.1215 213.031 99.4009C213.068 98.5553 212.906 97.7244 213.589 96.9523C214.016 96.4744 213.7 95.7317 213.384 95.1508V95.1582Z" fill="#FAE2CB"/>
<path d="M154.61 91.9742C155.528 92.5699 155.756 93.3714 155.264 94.3346C154.815 95.217 154.742 96.092 155.073 97.0332C155.352 97.82 155.19 98.651 155.19 99.4598C154.977 99.3716 154.661 99.298 154.661 99.0554C154.661 97.445 153.845 95.9008 154.426 94.2317C154.661 93.5405 154.558 92.7316 154.61 91.9742Z" fill="#F7D4B5"/>
<path d="M216.206 94.1067C215.787 94.2611 215.177 94.2537 215.61 93.6949C216.345 92.7463 217.021 91.6286 218.322 91.2757C218.072 92.5625 217.154 93.3419 216.198 94.0993L216.206 94.1067Z" fill="#FADFC6"/>
<path d="M136.192 93.4228C136.192 93.5184 136.192 93.6213 136.185 93.7169C135.391 94.8273 134.318 95.5184 133.01 95.8567C132.885 95.739 132.767 95.6214 132.642 95.5038C133.59 94.4155 135.031 94.1508 136.192 93.4228Z" fill="#FAE2CB"/>
<path d="M147.459 91.9669C147.348 91.864 147.245 91.7537 147.135 91.6507C147.628 90.8787 148.069 90.0772 148.796 89.4889C149.178 89.1801 149.575 88.9521 149.943 89.5257V89.511C149.296 89.783 148.965 90.3198 148.745 90.9448C148.561 91.1286 148.37 91.3125 148.186 91.4963C147.944 91.6507 147.701 91.8125 147.459 91.9669Z" fill="#FADFC6"/>
<path d="M4.4597 120.593C4.53319 120.674 4.59934 120.769 4.67284 120.843C5.41513 121.571 5.1285 122.152 4.40825 122.674C4.23187 122.799 4.05548 122.924 3.87909 123.049L3.7762 123.063C3.7174 122.159 3.22499 121.137 4.45235 120.585L4.4597 120.593Z" fill="#FADFC6"/>
<path d="M73.4568 86.6432C72.935 87.6726 72.0825 88.2682 70.9653 88.5109C71.1197 86.9888 72.3103 86.8417 73.4568 86.6432Z" fill="#F9DCC1"/>
<path d="M7.50979 114.887C7.48774 114.365 7.99486 114.203 8.21534 113.85C8.8621 113.887 9.25897 114.188 9.27367 114.879C8.76656 115.284 8.1492 115.284 7.54654 115.35C7.53184 115.196 7.51714 115.049 7.50244 114.894L7.50979 114.887Z" fill="#F7D4B5"/>
<path d="M130.9 98.6951C130.459 98.6142 130.018 98.5333 130.562 97.9818C130.922 97.9597 131.319 98.048 131.576 97.6803C131.981 97.6877 132.311 97.3274 132.745 97.445C132.573 97.9205 132.081 98.3397 131.268 98.7024C131.15 98.4598 131.033 98.4377 130.9 98.7024V98.6951Z" fill="#FAE2CB"/>
<path d="M9.28098 114.872C9.25893 114.188 8.86941 113.879 8.22266 113.843C8.25205 113.35 8.23735 112.821 8.9429 112.791C8.9723 113.159 9.12664 113.416 9.50882 113.504C9.91304 113.6 9.97918 113.924 10.0012 114.269C10.0159 114.35 10.0233 114.431 10.0159 114.512C9.89099 114.651 9.77339 114.784 9.64845 114.916H9.6558C9.53086 114.901 9.40592 114.887 9.27363 114.865L9.28098 114.872Z" fill="#FADFC6"/>
<path d="M7.50942 114.887C7.52412 115.041 7.53882 115.188 7.55352 115.343C7.55352 115.674 7.53882 116.012 7.53882 116.343L7.54617 116.328C7.43593 116.438 7.31834 116.556 7.20809 116.666C6.96556 116.666 6.71568 116.666 6.47314 116.674C6.53194 115.909 6.60544 115.151 7.51678 114.879L7.50942 114.887Z" fill="#FADFC6"/>
<path d="M218.322 90.2168C218.557 89.9815 218.785 89.7536 219.02 89.5182C219.138 89.5182 219.256 89.5182 219.373 89.5182C219.381 89.7536 219.395 89.9962 219.403 90.2315C219.307 90.8639 218.998 91.2683 218.315 91.2904C218.315 90.9301 218.315 90.5771 218.315 90.2168H218.322Z" fill="#FADFC6"/>
<path d="M87.5454 59.0834C87.5307 59.4805 87.6335 59.9217 87.3102 60.2232C86.759 60.7379 86.2959 60.7747 86.1416 59.8776C86.6267 59.6423 86.9353 59.0981 87.5454 59.0834Z" fill="#F6D4B4"/>
<path d="M158.99 91.6286C157.931 91.158 158.564 90.2168 158.402 89.4962C159.276 90.0183 159.049 90.8418 158.99 91.6286Z" fill="#F7D4B5"/>
<path d="M103.061 115.688C103.053 115.953 102.98 116.188 102.73 116.321C102.421 116.107 102.002 116.027 101.789 115.571C102.267 115.078 102.656 115.504 103.061 115.688Z" fill="#F8D8BB"/>
<path d="M155.337 101.519C156.006 101.622 155.911 102.136 155.918 102.592C155.271 102.475 155.227 102.041 155.337 101.519Z" fill="#F7D4B5"/>
<path d="M131.576 97.6877C131.312 98.048 130.922 97.9671 130.562 97.9891C130.562 97.5627 130.76 97.3053 131.194 97.2612C131.319 97.4009 131.451 97.548 131.576 97.6877Z" fill="#FADFC6"/>
<path d="M141.153 84.5843C141.491 84.8343 141.461 85.0696 141.116 85.2829C140.785 85.0328 140.793 84.7975 141.153 84.5843Z" fill="#FADFC6"/>
<path d="M102.355 123.034C102.641 123.196 102.7 123.461 102.693 123.762C102.303 123.652 101.862 123.564 102.355 123.034Z" fill="#F8D8BB"/>
<path d="M153.801 91.9228C153.845 91.7022 153.875 91.4448 154.154 91.4301C154.441 91.4154 154.477 91.6801 154.536 91.8933C154.294 91.9007 154.044 91.9154 153.801 91.9228Z" fill="#F7D4B5"/>
<path d="M88.604 57.6496C88.6334 58.1569 88.4276 58.4584 87.8911 58.4658C87.8911 57.9805 88.2071 57.7819 88.604 57.6496Z" fill="#F6D4B4"/>
<path d="M219.402 90.2315C219.395 89.9962 219.38 89.7536 219.373 89.5182C219.63 89.5624 219.968 89.5477 219.917 89.93C219.888 90.1653 219.616 90.1947 219.402 90.2315Z" fill="#FDF4EB"/>
<path d="M130.9 98.695C131.025 98.4377 131.15 98.4597 131.267 98.695C131.142 98.798 131.018 98.9083 130.893 99.0112C130.893 98.9009 130.893 98.7906 130.893 98.6877L130.9 98.695Z" fill="#FADFC6"/>
<path d="M87.8983 58.4584C87.7733 58.6055 87.6484 58.7526 87.5234 58.8996C87.5675 58.679 87.6851 58.532 87.8983 58.4584Z" fill="#F6D4B4"/>
<path d="M85.7817 66.5984C85.892 66.3337 86.0096 66.319 86.1419 66.5837C86.0243 66.5837 85.8993 66.5911 85.7817 66.5984Z" fill="#F6D4B4"/>
<path d="M215.507 96.2097C215.61 96.0185 215.713 96.0038 215.823 96.2097C215.72 96.2097 215.61 96.2097 215.507 96.2097Z" fill="#FAE2CB"/>
<path d="M18.4678 145.616C19.798 144.697 21.1356 143.785 22.4659 142.858C24.7001 141.299 26.4934 139.285 28.1323 137.145C30.0432 134.652 31.7703 132.027 33.4828 129.395C34.4676 127.88 35.2393 126.277 35.9302 124.6C36.4079 123.446 37.062 122.328 37.7014 121.24C38.1791 120.431 38.598 119.607 38.7891 118.688C39.1933 116.74 40.2149 115.019 40.7441 113.107C41.5525 110.195 42.7505 107.364 43.3164 104.416C43.6177 102.835 44.213 101.283 44.2424 99.6362C44.2424 99.3495 44.3233 99.048 44.8157 98.9671C45.0288 100.526 44.8377 102.085 44.9039 103.629L44.9186 103.614C44.5731 104.21 44.0366 104.769 43.9043 105.408C43.3311 108.137 42.4124 110.776 41.7656 113.475C41.0821 116.321 39.8842 118.96 38.9287 121.696C38.304 123.483 36.5108 124.755 36.5696 126.902C36.5769 127.314 36.2241 127.777 35.9522 128.152C35.232 129.152 35.2025 130.689 33.7179 131.108C33.6004 132.527 32.7111 133.534 31.932 134.637C31.0868 135.821 30.8884 137.535 29.0951 137.895C28.904 137.932 28.9187 138.16 28.9481 138.336C29.1025 139.402 28.4116 139.66 27.5738 139.998C26.1259 140.586 24.7957 141.402 24.4576 143.138H24.465C24.1857 143.16 23.9137 143.174 23.9799 143.594C24.046 144.027 24.0681 144.469 24.1048 144.91L24.1122 144.902C23.3699 144.902 22.9804 145.373 22.6937 145.969H22.7011C22.0543 146.072 21.8412 144.939 21.0621 145.388C20.5256 145.704 19.945 145.954 19.4379 146.314C19.0484 146.594 19.1733 147.366 18.4825 147.403C18.4678 146.807 18.9822 146.204 18.4678 145.616ZM22.9142 144.086C22.8701 144.094 22.8113 144.086 22.7893 144.116C22.7599 144.152 22.7378 144.226 22.7599 144.263C22.8407 144.38 22.9216 144.366 22.9657 144.219C22.973 144.182 22.9363 144.13 22.9142 144.086Z" fill="#F9DCC1"/>
<path d="M9.99367 146.358C10.8756 146.38 11.7869 146.16 12.9702 146.645C11.9045 147.197 11.1034 146.954 10.3317 146.998C10.2142 146.785 10.1039 146.572 9.98633 146.358H9.99367Z" fill="#FAE2CB"/>
<path d="M9.64844 114.924C9.77338 114.791 9.89097 114.651 10.0159 114.519C9.96447 114.718 9.85422 114.865 9.64844 114.924Z" fill="#FEF6F0"/>
<path d="M3.88623 123.049C4.06262 122.924 4.23901 122.799 4.41539 122.674C4.2978 122.887 4.13611 123.034 3.88623 123.049Z" fill="white"/>
<path d="M142.182 137.851C142.777 136.52 143.152 135.035 144.614 134.299C145.107 134.91 145.798 134.601 146.408 134.674C146.584 135.696 147.378 135.483 148.039 135.461C148.348 135.446 148.649 135.395 148.781 135.718C148.936 136.101 148.745 136.424 148.421 136.615C147.047 137.454 146.114 138.77 144.938 139.821C143.923 140.733 143.174 141.755 142.806 143.145C142.615 143.873 142.226 144.748 141.483 145.263C141.461 144.8 141.226 144.557 140.763 144.542C140.881 143.836 141.278 143.182 141.123 142.432C142.277 142.013 142.887 141.211 142.895 139.968C143.005 139.704 143.137 139.439 143.218 139.167C143.578 137.983 143.578 137.983 142.189 137.851H142.182Z" fill="#FADFC6"/>
<path d="M168.971 155.138C168.713 153.469 169.904 152.241 170.316 150.77C170.536 149.984 170.771 149.241 170.72 148.425C170.94 148.314 171.073 148.116 171.08 147.888C171.08 147.645 171.455 147.314 171.051 147.189C170.757 147.101 170.72 147.594 170.485 147.733C170.213 147.733 169.933 147.719 169.661 147.719C170 146.454 170.815 145.447 171.205 144.005C171.954 144.88 170.992 145.564 171.719 146.123C172.285 145.63 172.307 144.888 172.469 144.241C172.587 143.755 172.719 143.344 173.211 143.138C173.307 143.138 173.402 143.138 173.498 143.138C173.667 143.917 173.344 144.623 173.116 145.329C172.991 145.726 172.8 146.094 173.219 146.425C173.219 146.601 173.219 146.785 173.219 146.961C172.822 147.013 172.315 146.939 172.219 147.469C171.83 149.785 170.404 151.748 170.029 154.065C169.463 154.204 169.426 154.873 168.971 155.123V155.138Z" fill="#FADFC6"/>
<path d="M172.851 114.924C173.365 115.409 174.218 115.534 174.453 116.475C173.703 117.071 172.866 117.49 171.844 117.387C171.072 117.313 170.381 117.637 169.646 117.725C169.397 117.35 169.176 117.424 168.963 117.762L168.978 117.755C168.507 117.872 168.03 117.997 167.559 118.115C167.552 117.975 167.537 117.828 167.53 117.688C167.691 117.527 167.831 117.24 168.015 117.21C169.852 116.924 171.219 115.644 172.843 114.924H172.851Z" fill="#FAE7D5"/>
<path d="M165.384 161.506C166.244 159.66 167.082 157.8 167.971 155.969C168.155 155.587 168.39 155.109 168.97 155.138C169.044 156.065 168.507 156.785 168.096 157.528C167.625 158.373 167.126 159.19 166.854 160.124C166.854 160.329 166.868 160.528 166.868 160.734C166.376 160.991 166.038 161.557 165.384 161.506Z" fill="#FADFC6"/>
<path d="M168.971 158.315C168.824 157.601 169.316 157.124 169.625 156.579C170.205 156.579 170.904 156.506 170.61 157.44C170.426 158.028 170.36 158.932 169.309 158.366C169.213 158.315 169.088 158.337 168.971 158.322V158.315Z" fill="#FADFC6"/>
<path d="M177.437 114.129C176.408 115.174 176.004 115.188 175.306 114.203C175.967 114.262 176.54 114.173 176.731 113.394C176.893 113.115 177.106 112.894 177.415 112.784C177.415 113.026 177.415 113.262 177.422 113.504C177.422 113.71 177.43 113.916 177.437 114.122V114.129Z" fill="#F9DCC1"/>
<path d="M158.755 123.747C158.608 124.615 158.042 125.078 157.05 125.527C157.307 124.402 157.829 123.88 158.733 123.725L158.755 123.747Z" fill="#FCECDE"/>
<path d="M158.732 123.725C158.799 123.056 159.115 122.688 160.011 122.725C159.739 123.394 159.357 123.689 158.754 123.747L158.732 123.725Z" fill="#FCECDE"/>
<path d="M161.584 121.637C161.511 121.85 161.489 122.1 161.364 122.277C161.195 122.497 160.908 122.733 160.673 122.394C160.533 122.196 160.717 121.938 160.916 121.828C161.107 121.718 161.342 121.681 161.555 121.615L161.577 121.644L161.584 121.637Z" fill="#FCECDE"/>
<path d="M148.892 177.734C148.789 177.874 148.708 178.036 148.59 178.154C148.414 178.323 148.164 178.455 148.01 178.183C147.863 177.918 148.091 177.771 148.34 177.727C148.509 177.698 148.686 177.705 148.862 177.69L148.892 177.727V177.734Z" fill="#FEF6F0"/>
<path d="M170.021 155.131C170.021 154.778 170.021 154.425 170.021 154.072C170.249 154.057 170.47 154.05 170.698 154.035C170.734 154.565 170.507 154.932 170.014 155.123L170.021 155.131Z" fill="#FAE2CB"/>
<path d="M159.813 170.668C159.769 170.933 159.762 171.22 159.379 171.19C159.335 171.19 159.269 171.124 159.269 171.08C159.247 170.697 159.548 170.697 159.798 170.653L159.813 170.668Z" fill="#FCECDE"/>
<path d="M163.01 120.6C162.973 121.041 162.723 121.269 162.282 121.291L162.253 121.255C162.268 120.806 162.517 120.586 162.951 120.541L163.01 120.6Z" fill="#FCECDE"/>
<path d="M161.555 121.608C161.702 121.321 161.959 121.255 162.253 121.247L162.282 121.284C162.128 121.563 161.871 121.63 161.577 121.637L161.555 121.608Z" fill="#FCECDE"/>
<path d="M154.514 125.497C154.396 125.762 154.286 125.74 154.168 125.497L154.161 125.505C154.286 125.505 154.411 125.505 154.529 125.505L154.514 125.49V125.497Z" fill="#FEF6F0"/>
<path d="M166.861 62.0027C166.685 62.0027 166.464 61.9512 166.347 62.0321C164.87 63.0689 163.098 63.5101 161.57 64.4439C161.445 64.4513 161.32 64.466 161.195 64.4733C161.232 64.1792 161.261 63.863 161.526 63.6939C163.436 62.5174 165.355 61.3556 167.28 60.2011C167.559 60.032 167.942 59.7599 168.177 60.2011C168.375 60.5761 168.074 60.8262 167.736 61.0173C167.339 61.2379 166.869 61.4218 166.861 61.9953V62.0027Z" fill="#FEF6F0"/>
<path d="M100.584 58.8334C100.643 58.8261 100.701 58.8114 100.753 58.8114C101.238 58.8114 101.811 58.0834 102.157 58.6937C102.524 59.3408 101.679 59.4805 101.304 59.7526C100.797 60.1203 100.679 60.8409 99.9737 61.1571C99.7165 60.1791 100.635 59.6202 100.598 58.8187L100.576 58.8408L100.584 58.8334Z" fill="white"/>
<path d="M97.2613 62.4439C97.2025 62.3777 97.1143 62.3189 97.0996 62.2453C97.0702 62.0983 97.0849 61.9438 97.276 61.8997C97.3054 61.8997 97.3642 61.9659 97.3789 62.01C97.423 62.1718 97.423 62.3262 97.2613 62.4512V62.4439Z" fill="white"/>
<path d="M103.259 57.4069C103.163 57.3702 103.002 57.3481 102.994 57.2966C102.958 57.076 103.149 57.076 103.281 57.0907C103.369 57.0981 103.45 57.1937 103.531 57.2525C103.443 57.304 103.347 57.3554 103.259 57.3996V57.4069Z" fill="white"/>
<path d="M129.144 96.57C129.261 96.4523 129.386 96.342 129.504 96.2244C129.469 96.5675 129.349 96.6827 129.144 96.57Z" fill="#FAE2CB"/>
<path d="M211.987 94.8273C212.274 94.8273 212.524 94.8861 212.671 95.1582C212.039 95.9303 211.921 97.2906 210.319 97.0773C210.503 96.0258 211.598 95.6655 211.987 94.8273Z" fill="#FAE7D5"/>
<path d="M22.6866 98.3347C22.591 98.4744 22.5249 98.6509 22.3999 98.7538C22.2823 98.8494 22.0104 98.9597 21.9663 98.9156C21.6944 98.6288 22.0251 98.5332 22.1941 98.4376C22.3338 98.3568 22.5249 98.3641 22.6939 98.3347H22.6866Z" fill="#FDF4EB"/>
<path d="M16.4761 103.96C16.5496 103.901 16.6231 103.783 16.6892 103.783C16.8803 103.783 16.9611 103.931 16.8876 104.1C16.8582 104.166 16.6966 104.225 16.6231 104.203C16.5569 104.181 16.5202 104.048 16.4761 103.967V103.96Z" fill="#FFFCF9"/>
<path d="M24.2589 97.1362C24.281 97.2318 24.3545 97.3494 24.3177 97.4082C24.281 97.4744 24.1413 97.5406 24.0605 97.5259C23.9282 97.5038 23.8915 97.3788 23.9943 97.2832C24.0605 97.217 24.1707 97.1803 24.2589 97.1362Z" fill="#FDF2E8"/>
<path d="M22.6939 98.3421C22.7674 98.1803 23.0099 97.9965 23.0393 98.0774C23.2083 98.4892 22.8115 98.2465 22.6865 98.3421H22.6939Z" fill="#FDF2E8"/>
<path d="M26.5816 98.0259C26.5301 97.9671 26.4787 97.9083 26.4272 97.8494C26.486 97.9009 26.5448 97.9524 26.6036 98.0038L26.5816 98.0259Z" fill="#FEF6F0"/>
<path d="M176.68 131.843C176.812 131.968 176.945 132.086 177.077 132.211C177.026 132.821 176.629 133.358 176.71 133.998C176.482 133.998 176.254 133.983 176.019 133.983C176.205 133.125 175.97 132.655 175.313 132.571C175.298 132.343 175.284 132.115 175.269 131.895C175.739 131.88 176.21 131.865 176.68 131.858V131.843Z" fill="#FAE2CB"/>
<path d="M177.834 134.682C178.039 134.682 178.245 134.682 178.444 134.682C178.436 134.954 178.444 135.292 178.054 135.226C177.819 135.189 177.812 134.902 177.826 134.682H177.834Z" fill="#FDF4EB"/>
<path d="M177.077 137.145C177.07 137.38 177.062 137.615 177.047 137.858C176.805 137.843 176.562 137.829 176.312 137.814C176.364 137.549 176.43 137.292 176.673 137.138C176.805 137.138 176.937 137.138 177.07 137.138L177.077 137.145Z" fill="#FAE2CB"/>
<path d="M118.612 116.387C118.538 116.424 118.465 116.468 118.391 116.504C118.428 116.431 118.472 116.357 118.509 116.284L118.612 116.387Z" fill="white"/>
<path d="M172.307 56.7892C172.41 57.6054 172.035 58.0246 171.469 58.2452C170.756 58.5172 170.044 58.7378 169.661 59.4952C169.507 59.804 169.213 59.8335 168.941 59.5908C168.662 59.3408 168.706 59.0981 168.971 58.8628C169.926 58.0172 170.911 57.2304 172.307 56.7966V56.7892Z" fill="#FDF4EB"/>
<path d="M22.9143 144.086C22.929 144.13 22.9731 144.182 22.9657 144.219C22.929 144.366 22.8408 144.38 22.7599 144.263C22.7379 144.233 22.7599 144.152 22.7893 144.116C22.8114 144.086 22.8702 144.094 22.9143 144.086Z" fill="#FFFEFC"/>
<path d="M24.4502 143.145C24.5016 143.197 24.5531 143.241 24.6045 143.292C24.5751 143.285 24.531 143.285 24.5163 143.263C24.487 143.226 24.4796 143.182 24.4649 143.138L24.4576 143.145H24.4502Z" fill="#F9DCC1"/>
<path d="M175.32 132.564C175.972 132.647 176.207 133.118 176.026 133.976C176.144 134.946 175.783 135.821 175.504 136.711C175.262 137.49 174.894 138.233 174.938 139.093C174.997 140.086 174.247 140.388 173.505 140.594C172.498 140.873 172.322 140.542 172.373 139.454C172.439 138.086 172.946 136.865 173.307 135.593C173.652 134.373 174.042 133.167 175.32 132.556V132.564Z" fill="#F9DCC1"/>
<path d="M177.43 121.637C177.43 120.843 177.591 119.946 175.916 120.277C176.856 119.409 176.518 118.416 177.194 117.828C177.371 117.674 177.54 117.505 177.797 117.563C178.003 117.607 178.084 117.784 178.091 117.953C178.142 119.299 178.216 120.644 178.01 121.983C177.973 122.233 177.701 122.306 177.481 122.394C177.466 122.144 177.444 121.894 177.43 121.644V121.637Z" fill="#FAE2CB"/>
<path d="M176.68 131.843C176.21 131.858 175.739 131.873 175.269 131.88C174.71 131.373 174.416 130.196 174.718 129.718C175.056 129.181 175.739 130.086 176.033 129.387C176.246 129.387 176.467 129.387 176.68 129.387C176.68 130.203 176.68 131.02 176.68 131.836V131.843Z" fill="#F9DCC1"/>
<path d="M176.68 129.395C176.467 129.395 176.247 129.395 176.033 129.395C175.975 128.056 176.761 126.747 176.085 125.372C175.886 124.961 176.585 124.814 176.717 124.439L176.71 124.446C176.996 124.461 177.29 124.446 177.569 124.483C177.915 124.541 178.135 124.828 177.878 125.078C176.621 126.292 177.106 127.968 176.68 129.387V129.395Z" fill="#FAE2CB"/>
<path d="M177.43 121.637C177.444 121.887 177.466 122.137 177.481 122.387C177.547 123.196 177.172 123.836 176.709 124.446L176.717 124.439C175.519 124.078 176.041 123.122 176.092 122.409C176.143 121.652 176.82 121.63 177.422 121.644L177.43 121.637Z" fill="#F8D8BB"/>
<path d="M173.49 143.152C173.395 143.152 173.299 143.152 173.204 143.152C173.204 142.917 173.189 142.689 173.204 142.454C173.226 142.174 173.241 141.814 173.659 141.939C173.931 142.02 173.88 142.321 173.806 142.542C173.733 142.755 173.593 142.954 173.483 143.152H173.49Z" fill="#FAE2CB"/>
<path d="M168.963 117.754C169.176 117.416 169.397 117.343 169.646 117.718C169.419 117.732 169.191 117.74 168.963 117.754Z" fill="#F7D6B7"/>
<path d="M154.529 125.512C154.404 125.512 154.279 125.512 154.161 125.512C154.286 125.225 154.411 125.24 154.529 125.512Z" fill="#F7D6B7"/>
</svg>
