<svg width="338" height="34" viewBox="0 0 338 34" fill="none" xmlns="http://www.w3.org/2000/svg">
<path d="M337.333 0.424316H0.901855V33.7261H337.333V0.424316Z" fill="#B2A697"/>
<path d="M99.7376 28.1155C105.518 28.1155 110.204 23.428 110.204 17.6457C110.204 11.8633 105.518 7.17578 99.7376 7.17578C93.957 7.17578 89.271 11.8633 89.271 17.6457C89.271 23.428 93.957 28.1155 99.7376 28.1155Z" fill="#C6C1A8"/>
<path d="M124.66 28.1155C130.441 28.1155 135.127 23.428 135.127 17.6457C135.127 11.8633 130.441 7.17578 124.66 7.17578C118.88 7.17578 114.194 11.8633 114.194 17.6457C114.194 23.428 118.88 28.1155 124.66 28.1155Z" fill="#9B6271"/>
<path d="M149.09 28.1155C154.87 28.1155 159.556 23.428 159.556 17.6457C159.556 11.8633 154.87 7.17578 149.09 7.17578C143.309 7.17578 138.623 11.8633 138.623 17.6457C138.623 23.428 143.309 28.1155 149.09 28.1155Z" fill="#C47F78"/>
<path d="M174.012 28.1155C179.792 28.1155 184.479 23.428 184.479 17.6457C184.479 11.8633 179.792 7.17578 174.012 7.17578C168.231 7.17578 163.545 11.8633 163.545 17.6457C163.545 23.428 168.231 28.1155 174.012 28.1155Z" fill="#6D8463"/>
<path d="M198.434 28.1155C204.214 28.1155 208.9 23.428 208.9 17.6457C208.9 11.8633 204.214 7.17578 198.434 7.17578C192.653 7.17578 187.967 11.8633 187.967 17.6457C187.967 23.428 192.653 28.1155 198.434 28.1155Z" fill="#8D4B46"/>
<path d="M222.863 28.1155C228.644 28.1155 233.33 23.428 233.33 17.6457C233.33 11.8633 228.644 7.17578 222.863 7.17578C217.083 7.17578 212.396 11.8633 212.396 17.6457C212.396 23.428 217.083 28.1155 222.863 28.1155Z" fill="#574746"/>
</svg>
