<svg width="151" height="119" viewBox="0 0 151 119" fill="none" xmlns="http://www.w3.org/2000/svg">
<path d="M57.7226 12.9855C58.017 13.1917 58.3115 13.3978 58.6059 13.604C58.8046 13.7881 59.0696 14.1709 59.2683 13.8396C59.4891 13.4788 59.3566 13.0002 58.8856 12.7573C58.812 12.529 58.7457 12.3008 58.6721 12.0799C58.5617 8.58259 59.6584 5.34298 60.9612 2.18435C62.0358 -0.429429 63.6993 -0.657653 65.7897 1.28612C67.0483 2.46416 67.5709 3.91461 67.7402 5.55651C67.8285 6.42531 67.8874 7.2941 67.961 8.20708C68.5351 8.58995 68.9252 8.17765 69.3668 7.80951C70.9346 6.52103 72.7232 6.10869 74.74 6.4032C76.926 6.7198 77.7578 7.66225 77.8166 9.87108C77.8829 12.3597 76.6979 14.3182 75.373 16.2472C75.1006 16.6448 74.8504 17.0792 74.4897 17.3737C73.577 18.1247 73.6285 18.8021 74.4897 19.5384C74.8504 19.8476 75.1595 20.2158 75.4834 20.5692C78.8103 24.1843 76.6169 29.4487 72.311 30.7151C71.1996 31.0464 70.2869 30.3911 69.2859 30.1628C68.8737 29.537 68.2333 29.3088 67.5488 29.1468C66.9232 28.4841 65.7013 28.8449 65.2892 27.8289C64.9653 27.122 64.6046 26.5477 63.7803 27.2987C62.4259 30.3764 60.9465 33.3877 58.5102 35.788C57.9582 36.3329 57.4356 37.0102 56.5155 36.966C56.2137 36.885 55.912 36.7672 55.6028 36.723C53.4315 36.3696 52.7838 35.707 52.4673 33.6307C52.3863 33.0932 52.6586 32.5189 52.3127 32.0109C52.8058 28.7787 54.1234 25.8998 56.3609 23.1314C54.852 22.6087 53.5787 22.1669 52.3053 21.7251C51.768 20.7606 51.0099 20.0906 49.8985 19.8624C49.5673 18.9862 49.133 18.1247 48.9269 17.2191C48.0952 13.5156 50.4799 10.924 54.1822 11.4467C54.484 11.6897 54.8226 11.8075 55.2201 11.7559C55.934 12.0946 56.648 12.4333 57.3693 12.772C57.4208 12.9561 57.5092 13.0812 57.7226 13.0076V12.9855ZM62.0947 18.3161C61.7341 19.5089 62.2861 20.5986 63.4417 20.9741C64.2955 21.2539 65.2303 20.7827 65.5394 19.9139C65.9222 18.8389 65.326 17.5504 64.2808 17.1823C63.162 16.7847 62.448 17.1528 62.1021 18.3161H62.0947Z" fill="#B56A4E"/>
<path d="M21.458 4.3046C22.9374 3.92909 24.3286 3.68612 25.8448 4.48866C28.0382 5.64462 28.4578 7.61048 28.5682 9.69414C28.6639 11.5937 28.34 13.5007 27.8027 15.3487C27.5819 16.0997 27.1623 16.7918 27.1844 17.83C29.3263 17.0201 31.4755 16.6004 33.6469 16.2249C34.0149 16.3501 34.3829 16.3869 34.7362 16.166C37.3639 16.6225 38.4238 18.5663 39.1378 20.8266C38.755 22.0047 38.3649 23.1827 37.9822 24.3608C35.5606 26.5769 32.7268 27.5783 29.238 27.107C29.8931 29.5588 31.0486 31.8855 29.6281 34.1532C28.6933 35.6552 27.3169 36.7817 25.4326 37.01C24.6671 36.7228 23.9017 36.4431 23.1362 36.1559C22.0542 35.7583 22.0468 34.5582 21.3991 33.8366C21.5831 33.2991 21.642 32.7617 21.5389 32.1874C21.2813 30.7295 20.9059 30.516 19.7062 31.3701C18.7199 32.0769 17.6085 32.504 16.5559 33.0709C16.1217 33.0709 15.6727 33.012 15.2899 33.2918C15.1722 33.2476 15.047 33.2476 14.9219 33.2918C14.0092 32.9678 13.0965 32.6439 12.1838 32.3125C10.3805 31.186 10.1229 30.5381 10.7706 28.6533C11.4699 26.599 12.6843 25.0528 14.8851 24.4933C15.0986 24.4344 15.3635 24.4344 15.5181 24.3092C15.9376 23.9705 15.5623 23.7717 15.312 23.676C14.5244 23.3741 13.7148 23.1238 12.9125 22.8588C10.6308 21.3568 8.68761 19.5529 7.64979 16.9391C6.53836 14.1339 8.27542 11.822 11.2564 12.2048C13.9871 12.5582 16.129 14.156 18.2636 15.7095C18.7935 16.0924 19.2499 16.49 20.0374 16.5857C20.192 15.7316 19.9417 15.0027 19.7136 14.2738C18.5948 10.7838 19.3308 7.53684 21.0384 4.42975C21.09 4.33403 21.3255 4.3414 21.4727 4.29723L21.458 4.3046ZM24.7407 23.9852C25.0793 23.1091 24.3874 21.8133 23.4085 21.4819C22.6504 21.2242 21.0237 21.9752 20.744 22.7115C20.4643 23.4331 21.2151 25.0897 21.9511 25.3842C22.7461 25.7008 24.4022 24.8761 24.7407 23.9852Z" fill="#B56A4E"/>
<path d="M47.3886 48.6728C49.2803 46.5818 51.5252 45.3227 54.462 45.7203C56.5009 46.0001 57.7816 47.4579 59.1874 48.7243L59.1727 48.6875C59.526 53.7899 55.4851 55.0048 51.9227 56.7129C53.7628 58.156 55.4262 59.6359 57.0087 61.2042C57.8699 62.0583 58.6648 62.9639 59.1285 64.0831C59.8719 65.8943 59.0328 67.0061 57.0676 66.9987C55.8311 66.9987 54.727 66.5937 53.6524 66.0415C51.8123 65.0402 49.9501 64.083 48.3676 62.6767C47.9554 62.3086 47.5137 61.992 46.9764 61.8227V61.8374C46.9912 61.5355 46.8439 61.3441 46.579 61.2337C45.762 61.5208 46.1373 62.1025 46.2404 62.6179C45.8503 64.9445 45.946 67.3374 44.3708 69.4063C42.4939 71.8581 39.3878 71.7477 38.0997 68.8909C37.0178 66.4907 36.6056 63.9505 37.4594 61.3368C37.7317 60.5048 37.9452 59.6507 38.1881 58.804C38.2837 57.8836 38.2764 57.8836 36.9073 58.3327C34.1177 58.9144 31.4459 58.7303 28.8182 57.4786C27.4492 56.8233 25.7563 53.7899 25.7931 52.4278C25.8372 50.6828 26.9339 49.6447 28.8477 49.4164C30.8276 49.1808 32.7781 49.6005 34.7287 49.8214C36.4436 50.4472 38.1586 51.0878 39.8736 51.6989C40.1754 51.802 40.5508 51.7946 40.4404 51.3013C40.3962 51.1025 40.1754 50.9405 40.0355 50.7638C38.7475 47.6199 37.3931 44.557 37.6949 40.9566C37.8348 39.2558 38.799 38.5048 39.8368 37.8569C40.9703 37.1501 41.9566 38.1735 42.7295 38.9539C44.5548 40.7946 44.9597 43.3348 45.8429 45.632C46.1889 46.5229 46.3582 47.48 46.6084 48.4077C46.5274 48.7906 46.5569 49.2176 46.9544 49.306C47.2193 49.3722 47.3592 48.982 47.396 48.6875L47.3886 48.6728ZM46.1741 55.2625C46.5643 54.0255 46.2698 53.385 45.151 53.0095C44.0396 52.634 42.6411 53.569 42.3026 54.9017C42.0965 55.7042 42.6779 56.7203 43.4949 57.0001C44.6064 57.3829 45.7399 56.6467 46.1741 55.2625Z" fill="#B56A4E"/>
<path d="M46.9764 61.8154C47.5137 61.9847 47.948 62.3014 48.3675 62.6695C49.95 64.0758 51.8196 65.033 53.6523 66.0343C53.5934 66.9252 54.3221 67.2565 54.8742 67.6688C57.1485 69.3843 59.6658 70.717 62.4481 71.2545C65.4143 71.8288 68.4395 72.1012 71.8032 73.5001C70.8978 71.225 71.1113 69.2444 70.0588 67.5805C69.0136 65.9386 68.5867 64.0463 67.8138 62.3014C66.7686 59.9526 65.591 57.6481 64.0747 55.6086C62.875 53.9888 61.6899 52.3984 60.8288 50.5872C60.446 49.7846 60.1663 48.9453 59.1727 48.695L59.1874 48.7318C59.5848 47.5243 58.3336 47.0973 58.0023 46.2358C57.8919 45.8603 57.6122 45.6394 57.3031 45.4406V45.4259C56.6407 44.3141 55.5808 44.3436 54.4914 44.4467C53.3211 43.9092 51.8932 43.9092 51.0026 42.7827C50.3107 41.6635 49.0152 41.7003 47.9995 41.2144C43.3035 38.9982 41.7873 36.0531 42.8987 31.0243C43.4581 28.4768 43.1637 28.4547 40.5875 26.349C39.7558 25.6716 38.8357 25.0531 37.9819 24.3684C38.372 23.1904 38.7548 22.0123 39.1375 20.8343C40.6611 21.8577 42.1847 22.8811 43.7157 23.9045C44.0617 24.442 44.4297 24.9206 45.1068 24.3021C46.2256 22.2994 47.5652 20.5324 49.9132 19.8477C51.0173 20.0759 51.7828 20.7386 52.3201 21.7105C50.8186 22.7781 49.1772 23.6837 48.0952 25.2519C47.1972 26.5404 47.1825 27.0926 48.3307 28.1749C49.6777 29.4413 50.7597 30.9728 52.3274 32.0036C52.6734 32.5116 52.401 33.0786 52.482 33.6234C52.7912 35.6997 53.4462 36.3624 55.6176 36.7158C55.9267 36.7673 56.2285 36.8777 56.5303 36.9587C56.832 38.0189 57.443 38.8951 58.1864 39.6829C58.2379 39.9259 58.3336 40.1321 58.6206 40.1615C59.8498 41.5531 60.6521 43.2392 61.7047 44.7191C63.2871 46.9426 64.509 49.3871 66.1577 51.5517C68.5793 54.7398 70.574 58.1709 71.8179 61.9848C72.4583 63.958 73.9451 65.5483 74.2468 67.6614C74.5634 69.8703 75.6748 71.8803 75.8956 74.126C75.9986 75.2009 76.6022 76.0108 77.4413 76.7176C81.2172 79.8763 80.9669 84.1467 80.5768 88.4392C78.5453 90.2283 79.9659 92.1647 80.2751 94.0864C80.437 95.1025 81.0773 96.0449 80.7829 97.1272C79.7893 99.0489 79.9218 101.265 79.171 103.246C78.3687 102.87 78.2068 102.038 77.824 101.361C78.0964 100.779 78.1921 100.242 78.008 99.5422C76.9629 95.4927 76.0354 91.4137 74.2689 87.5998C74.0408 87.1139 74.3057 86.6647 74.291 86.1935C74.372 85.9284 74.2468 85.7444 74.0481 85.5898C74.0334 84.5811 73.5034 83.5871 73.9966 82.571L74.107 82.5195C74.7842 82.8066 75.1669 83.4546 75.7263 83.8743C76.4035 84.3896 77.1101 84.9713 78.0301 84.3234C78.3613 83.5797 78.3834 82.8729 77.7431 82.2618C77.8314 81.8937 77.9124 81.5255 77.6106 81.2016C77.721 80.6052 77.8314 79.9425 77.4634 79.4492C76.9702 78.7866 76.7788 79.3314 76.639 79.7806C75.8293 79.6039 75.8882 78.8234 75.5938 78.2933C75.3804 77.9104 75.0491 77.6748 74.6075 77.7852C74.2395 77.8736 74.2469 78.2344 74.21 78.5657C74.0996 79.6775 73.9598 80.7893 73.8273 81.901L73.7758 81.9157C73.2974 81.0985 72.76 80.3107 72.7085 79.302C72.5687 76.7986 71.1334 75.4439 68.756 74.9653C68.3659 74.8843 67.9831 74.7739 67.6004 74.6782C67.0925 74.4278 66.5773 74.2437 66.0179 74.5088C65.7308 74.4499 65.4511 74.391 65.1641 74.3321C64.6562 74.0891 64.141 73.9198 63.5889 74.1996C63.4564 74.148 63.3239 74.1186 63.1841 74.126C60.895 73.3382 58.6133 72.5503 56.3242 71.7699C56.0592 71.6447 55.7869 71.5195 55.5219 71.3944C55.2495 70.8348 54.7417 70.6655 54.1896 70.5403C53.2033 70.1869 52.379 69.6347 51.6797 68.8248C50.0383 66.9252 48.0437 65.3127 47.0353 62.9198C47.0206 62.559 47.0058 62.1909 46.9985 61.8301L46.9764 61.8154ZM46.1594 31.5471C45.4454 34.1093 45.7251 35.8617 47.2487 37.371C48.7355 38.8436 50.4653 39.9848 52.2391 41.0671C52.8648 41.4426 53.5787 41.8844 54.6828 41.4574C52.0698 37.9674 49.501 34.7205 46.1594 31.5545V31.5471ZM78.5674 85.5529C78.273 86.8046 78.4398 88.0244 79.0679 89.2123C78.8692 87.725 78.7146 86.6353 78.5674 85.5529Z" fill="#929499"/>
<path d="M120.551 72.1529C119.845 71.7038 119.388 71.078 119.153 70.2681C118.939 69.5391 118.417 69.0164 117.835 68.5967C115.259 66.7339 114.472 63.7667 116.209 61.1971C117.291 59.5994 117.372 57.9281 117.35 56.1831C117.327 54.0994 117.364 52.0378 117.607 49.9615C117.813 48.1724 118.409 46.7735 119.778 45.669C120.905 45.7059 121.523 44.8223 122.62 44.2775C122.031 43.9977 121.685 43.8284 121.339 43.659C123.253 43.6737 124.879 42.3411 126.822 42.4736L126.867 42.5546C127.448 43.7695 128.751 43.6516 129.745 43.9977C132.711 45.0285 134.418 46.8913 134.47 50.153C134.507 52.4502 135.059 54.6884 135.464 56.9414C135.618 57.7955 135.949 58.0385 136.759 57.6998C137.834 57.2507 138.194 57.8618 138.349 58.8042C138.577 60.2032 138.489 61.5211 137.48 62.6328C136.259 63.9876 134.993 65.2613 135.427 67.4186C135.603 68.3095 134.131 69.5759 133.145 69.8263C131.209 70.3196 129.502 69.598 127.831 68.8176C126.381 68.1328 126.41 68.0739 125.468 69.5906C124.614 69.7305 124.055 70.0251 124.703 70.9896C123.415 71.7259 122.163 72.5799 120.551 72.1602V72.1529Z" fill="#DBBCA5"/>
<path d="M5.72856 85.8033C4.492 85.9947 3.24809 86.1493 2.01889 86.385C-0.0420336 86.7899 -0.270208 86.547 0.215581 84.2866C1.08411 84.1025 1.06203 83.4104 1.09884 82.7477C1.89376 81.2899 3.46154 80.7819 4.71281 79.9057C5.17652 79.5744 5.58871 79.2578 5.89785 78.7939C6.25851 78.9707 6.60445 79.1915 6.73694 79.5818C7.25953 81.0617 8.20166 81.0764 9.54863 80.6862C10.6159 80.3843 11.5212 79.6922 12.64 79.5891C13.4055 80.1266 14.4875 79.7364 15.2162 80.2886C15.1205 81.0764 13.9649 81.4225 14.2299 81.6213C15.2088 82.3575 15.069 83.9773 16.1804 84.3308C18.8817 85.1922 21.3916 86.8783 24.4683 86.3997C25.2779 86.2745 26.1023 86.6058 26.9487 86.9519C29.2084 87.8722 30.9822 89.5215 33.0873 90.6406C33.8749 91.0603 34.6478 91.4653 35.5678 91.4064C36.0389 91.3769 36.5909 91.3622 36.7749 90.8026C36.9737 90.1989 36.4363 90.0295 36.0536 89.7424C34.2356 88.3655 33.9559 88.8073 34.8759 86.2892C35.1924 86.3187 35.5089 86.3776 35.8254 86.385C37.2533 86.4218 38.6445 86.3923 39.2112 88.1888C39.3879 88.741 40.0503 89.1313 40.6907 89.3374C44.9524 90.7069 49.0521 92.4519 53.0121 94.5429C53.2108 94.646 53.4979 94.7417 53.6966 94.6828C55.7501 94.0054 57.3915 95.3454 59.2169 95.7872C59.0182 96.1554 58.7753 96.4867 58.3042 96.4204C57.2075 96.2511 56.0887 96.1259 55.0215 95.8388C53.6819 95.4853 52.4527 95.5884 51.4075 96.4867C50.7156 97.0831 50.0384 97.1714 49.1994 96.9726C47.0575 96.4719 44.8052 97.0536 42.678 96.2731C42.2584 96.1185 41.7285 96.2511 41.2501 96.2658C40.8894 96.2732 40.6392 96.472 40.5729 96.8106C40.5067 97.1493 40.6686 97.4438 40.9998 97.5764C42.0303 98.0034 43.0607 98.3715 44.2163 98.4452C45.4897 98.5188 47.0722 98.7397 47.6463 99.7926C48.0806 100.588 48.7136 101.221 49.192 101.817C48.8902 102.576 47.9186 101.957 47.8671 102.87C48.6179 103.393 49.3981 103.938 50.1783 104.475C50.0752 104.586 50.009 104.718 49.9796 104.866C49.6189 104.836 49.2656 104.807 48.9049 104.77C48.6252 104.461 48.3161 104.372 47.9628 104.659H47.9481C47.4476 104.542 46.9471 104.218 46.4465 104.659H46.4245C45.7767 104.505 45.1732 103.886 44.4519 104.453H44.4371C43.6128 104.225 42.8399 103.68 41.9125 104.019C41.78 103.96 41.6475 103.967 41.5224 104.034C39.3069 103.555 37.2975 102.34 34.9863 102.193C34.5815 102.068 34.2797 101.825 34.1252 101.42C32.6531 100.102 30.9602 99.1815 29.0391 98.7029C27.9277 98.0255 26.6396 97.5322 26.2053 96.1112C25.9624 95.3602 25.2117 95.3602 24.6596 95.0657C22.7827 94.4987 21.502 93.0483 20.0078 91.907C19.5368 90.8836 18.4621 90.8468 17.6157 90.4418L17.6304 90.4566C17.4758 89.7277 16.8281 89.7866 16.3129 89.6246C16.2319 89.5141 16.1215 89.4405 15.989 89.3963C15.7903 88.7116 15.1352 88.7632 14.6421 88.5349C14.2888 88.1962 14.0827 87.563 13.3834 87.8943C12.7504 87.6955 12.2499 87.0255 11.4697 87.3568L11.2563 87.2464L11.0207 87.2169C9.48238 85.899 7.63491 85.7665 5.73592 85.8107L5.72856 85.8033Z" fill="#746B3E"/>
<path d="M50.1636 104.475C49.3834 103.931 48.6031 103.393 47.8524 102.87C47.9039 101.957 48.8755 102.576 49.1773 101.817C48.6988 101.221 48.0732 100.588 47.6316 99.7927C47.0575 98.7398 45.475 98.5263 44.2016 98.4453C43.046 98.379 42.0155 98.0109 40.9851 97.5765C40.6539 97.4366 40.4993 97.1495 40.5582 96.8108C40.6244 96.4721 40.8747 96.2733 41.2353 96.266C41.7138 96.2512 42.2437 96.1187 42.6633 96.2733C44.7904 97.0537 47.0501 96.4647 49.1846 96.9727C50.0237 97.1715 50.7009 97.0906 51.3928 96.4868C52.4306 95.5886 53.6671 95.4781 55.0067 95.8389C56.074 96.126 57.1928 96.2512 58.2895 96.4205C58.7606 96.4942 59.0035 96.1555 59.2022 95.7874C60.5492 95.353 61.4545 94.521 61.6753 93.0705C62.1169 92.6876 62.4481 92.1501 63.0738 92.0103C65.5837 92.8717 67.2251 94.9627 69.1609 96.5678C70.7581 97.8931 72.3553 98.9313 74.3058 99.5129C75.0787 99.7412 75.8294 100.036 76.5876 100.293C76.985 100.647 77.3825 101 77.78 101.354C78.1627 102.031 78.332 102.863 79.1269 103.238C78.8987 104.726 79.5833 106.051 79.8556 107.45C80.1427 108.923 80.7315 110.366 80.2015 111.897C78.3909 111.227 76.6538 110.344 74.7548 109.916L74.7327 109.902C74.4972 109.703 74.2985 109.408 74.0261 109.327C71.2586 108.451 68.4764 107.605 65.6941 106.765C65.1642 106.603 64.6268 106.463 64.0674 106.684L63.854 106.603H63.6185C62.7941 106.301 62.0433 105.668 61.0717 106.08C59.9309 105.352 58.5913 105.727 57.3842 105.418C55.1245 104.969 52.9311 103.975 50.5389 104.571L50.5169 104.586C50.3917 104.549 50.2666 104.52 50.1415 104.483L50.1636 104.475Z" fill="#675F35"/>
<path d="M76.6024 100.293C75.8443 100.028 75.0861 99.741 74.3206 99.5128C72.3701 98.9311 70.7729 97.9004 69.1757 96.5677C67.2473 94.9626 65.6059 92.8642 63.0886 92.0101C60.5861 90.2873 58.5399 87.8134 55.316 87.2611C54.4106 87.1065 53.6084 86.304 52.6 86.8341C51.4002 85.7739 49.5896 85.5015 48.456 83.6534C49.8398 83.7933 50.8408 83.889 51.8418 84.0068C52.2246 84.051 52.8134 84.3087 52.887 83.8228C53.1741 81.8937 54.2929 82.9392 55.1761 83.1012C55.5368 83.1675 55.9416 83.4252 56.2876 82.7625C55.0657 81.9452 53.8439 81.1574 52.4454 80.5979C50.8187 79.9426 48.8609 79.4493 47.8083 78.2271C46.3289 76.4968 45.085 77.3877 43.7233 77.5423C43.5613 78.6173 44.4593 79.1032 44.5108 79.8468C43.1271 81.7243 41.4636 81.5845 39.5941 80.7967C37.9306 80.0972 36.1862 79.5818 34.4712 78.9928C36.0242 80.4138 38.2471 80.3402 39.837 81.7538C39.4248 82.144 39.1451 82.122 38.9758 81.9821C37.9306 81.1133 36.856 80.7009 35.4281 81.1059C34.5963 81.3415 33.6395 80.9734 33.0948 80.1855C32.7562 79.6996 32.4397 79.2799 31.8656 79.1179C29.3778 78.3964 27.3536 76.7398 25.0204 75.7016C24.6744 75.547 24.1813 75.4734 24.2402 74.9433C24.2991 74.4573 24.748 74.2806 25.1308 74.3395C26.1833 74.5015 26.993 73.964 27.8615 73.5517C28.524 73.2425 29.1717 72.8891 29.8856 73.4339C30.1727 73.6548 30.4229 73.5591 30.7468 73.4265C32.0643 72.8743 33.4113 72.3957 34.7509 71.8877H34.7288C35.1778 72.0718 35.6121 72.3516 36.1273 72.1749C37.6803 71.9392 39.1156 72.5283 40.5951 72.808L40.8085 72.9038H41.0441C42.7811 73.7947 44.5918 74.4941 46.4687 75.0095C47.2784 75.9667 48.537 75.8341 49.5527 76.298C49.7809 76.6293 50.0827 76.7913 50.4875 76.7324L50.701 76.8134L50.9292 76.7987C53.2919 78.6615 56.0667 79.8763 58.481 81.6802C60.5566 83.2337 62.4114 85.0302 64.4429 86.6206C66.813 88.476 68.5648 91.0162 71.0821 92.7022C71.9211 93.2692 72.2744 94.1895 72.8486 94.9332C74.1882 96.6487 75.3585 98.5041 76.595 100.301L76.6024 100.293ZM31.6448 78.2786C31.5565 78.1681 31.4976 78.0135 31.3872 77.9693C31.2694 77.9252 31.1148 77.9914 30.975 78.0061C31.0633 78.1166 31.1222 78.2712 31.2326 78.3154C31.343 78.3596 31.5049 78.2933 31.6448 78.2786ZM56.3317 85.1848C56.2581 85.1848 56.1845 85.1628 56.1183 85.1848C56.0962 85.1922 56.1109 85.3027 56.1035 85.3616C56.1772 85.3616 56.2508 85.3837 56.317 85.3616C56.3391 85.3616 56.3244 85.2437 56.3317 85.1848Z" fill="#816E43"/>
<path d="M34.7509 71.8801C33.4113 72.3881 32.0643 72.8667 30.7468 73.4189C30.4156 73.5588 30.1653 73.6472 29.8856 73.4263C29.1716 72.8815 28.5239 73.2348 27.8615 73.5441C26.9929 73.949 26.1833 74.4865 25.1308 74.3319C24.748 74.273 24.299 74.4497 24.2401 74.9357C24.1739 75.4658 24.6744 75.5394 25.0203 75.694C27.3536 76.7322 29.3777 78.3888 31.8656 79.1103C32.4397 79.2797 32.7562 79.6994 33.0948 80.1779C33.6394 80.9658 34.5963 81.3339 35.428 81.0983C36.8559 80.6933 37.9306 81.113 38.9758 81.9745C39.145 82.1143 39.4247 82.1364 39.8369 81.7462C38.2544 80.3326 36.0242 80.3988 34.4712 78.9852C36.1788 79.5816 37.9232 80.0896 39.594 80.7891C41.4636 81.5769 43.127 81.7168 44.5108 79.8393C44.4593 79.0956 43.5539 78.6097 43.7232 77.5347C45.0923 77.3875 46.3288 76.4892 47.8083 78.2195C48.8535 79.4417 50.8187 79.9423 52.4454 80.5903C53.8438 81.1498 55.0657 81.9376 56.2875 82.7549C55.9416 83.4176 55.5368 83.1599 55.1761 83.0936C54.2928 82.9316 53.1741 81.8861 52.887 83.8151C52.8134 84.3011 52.2319 84.0434 51.8418 83.9992C50.8408 83.8814 49.8324 83.7857 48.456 83.6458C49.5895 85.4865 51.4002 85.7589 52.5999 86.8265C53.9616 87.8131 55.3233 88.8071 56.6776 89.7937C56.6703 90.2944 56.6629 90.8466 55.9121 90.53C54.3002 89.86 52.6662 89.2047 51.0542 88.5641C48.5738 87.5702 46.2994 85.6853 43.3552 86.105C41.6108 84.8975 39.4174 85.0153 37.5478 84.1538C36.6719 83.7489 35.7519 83.4617 34.7582 83.6826C33.9486 83.5722 33.2567 82.7844 32.2925 83.4912C30.8204 84.5588 30.7689 84.4925 30.0107 82.8801C29.7163 82.2542 29.731 81.4811 28.8919 81.1351C25.5945 79.7951 22.6871 77.1739 18.7124 78.1016C18.5726 78.1384 18.3886 78.0059 18.2414 78.028C16.3203 78.352 14.252 78.1237 12.6474 79.5816C11.5287 79.692 10.6233 80.3767 9.55605 80.6786C8.20173 81.0615 7.25959 81.0467 6.74436 79.5742C6.60452 79.184 6.25857 78.9704 5.90527 78.7864C9.0261 75.9002 12.8462 74.4202 16.8576 73.3085C17.2404 73.5146 17.601 73.5588 17.9175 73.1907C19.9416 72.9256 21.745 71.7991 23.8059 71.7034C27.4567 71.5267 31.1295 70.3781 34.7582 71.8654L34.7509 71.8801Z" fill="#927150"/>
<path d="M121.339 43.659C121.685 43.8284 122.031 43.9903 122.62 44.2775C121.523 44.8223 120.905 45.6985 119.779 45.669L119.639 45.647C118.638 44.5941 117.379 44.248 115.966 44.3511C114.362 43.8652 112.779 43.313 111.108 43.0184C109.46 42.7239 107.84 42.1938 106.427 41.2072C105.632 40.6476 105.043 40.7433 104.388 41.5312C101.783 44.6677 99.1254 47.738 96.9762 51.2353C94.0983 55.918 92.4569 61.1161 90.5211 66.189C90.234 66.94 89.9838 67.6984 89.7188 68.4568C88.2982 72.1455 87.2457 75.9815 85.6705 79.6776C84.7726 79.1696 84.8903 78.5585 84.8903 78.0357C84.8903 75.7091 85.0228 73.3972 85.6926 71.1589C85.8914 70.4963 86.0312 69.8999 85.251 69.5244C85.2363 69.3845 85.2657 69.2593 85.332 69.1415C87.6726 64.8122 89.6599 60.3283 91.0363 55.594C91.2792 54.6589 91.7724 53.8417 92.2287 52.995C94.5914 48.6289 97.7122 44.8076 100.826 40.979C102.29 39.1824 102.121 38.7775 99.8247 38.3872C99.5965 38.3504 99.3463 38.402 99.1107 38.4167C99.4199 37.5626 99.729 36.7159 100.038 35.8618C100.2 35.8397 100.369 35.8177 100.531 35.7956C100.988 35.9576 101.444 36.1122 101.9 36.2741C102.357 36.4361 102.806 36.5981 103.262 36.7527C103.409 36.8411 103.549 36.9294 103.696 37.0104C104.557 37.1209 104.955 36.414 105.485 35.9723C107.936 33.9181 110.497 32.0332 113.39 30.6343C117.659 28.5653 121.921 26.4743 126.19 24.3906C126.565 24.5158 126.933 24.6336 127.309 24.7588C122.075 28.5285 116.283 31.4442 111.13 35.3538C110.181 36.0753 109.143 36.6791 108.194 37.4007C107.318 38.0707 107.377 38.7627 108.414 39.1677C111.167 40.2427 113.935 41.2956 116.842 41.9214C117.357 42.3632 117.998 42.481 118.638 42.6061C118.94 42.7166 119.234 42.827 119.536 42.9374C119.691 43.0037 119.845 43.07 120 43.1362L121.339 43.6443V43.659Z" fill="#929499"/>
<path d="M127.316 24.7659C126.94 24.6407 126.565 24.5229 126.197 24.3977C123.621 23.5437 123.194 21.3937 123.334 19.1702C123.525 16.1294 124.695 13.2726 125.601 10.3864C126.057 8.92123 127.492 8.0966 128.721 7.21307C129.531 6.63878 130.341 6.16757 130.826 5.10733C131.511 3.62006 135.154 2.68496 136.376 3.61267C137.098 4.15752 137.473 5.15148 138.01 5.94665C138.805 6.21908 138.982 6.92591 139.232 7.61065C139.541 8.45736 140.645 7.71373 141.087 8.53099C140.425 9.48815 139.431 9.34091 138.526 9.18629C137.539 9.01694 136.612 9.23782 135.67 9.36299C135.191 9.42925 134.639 9.62806 134.808 10.2539C135.162 11.5424 134.087 10.8724 133.697 11.1227C133.601 10.8797 133.646 10.438 133.16 10.7472C133.336 10.8724 133.52 10.9975 133.697 11.1227C132.387 12.6615 130.584 13.5745 128.972 14.7231C128.375 15.1501 127.765 15.5477 127.411 16.1883C126.999 16.954 127.485 17.7492 128.309 17.6314C129.178 17.5062 130.252 17.5062 130.841 16.9982C132.843 15.2679 135.191 16.0778 137.363 15.6066C137.392 15.8864 137.436 15.9895 137.399 16.0263C136.722 16.7699 135.927 17.3663 136.104 18.6401C136.339 20.3335 137.539 20.0095 138.599 20.1273C139.328 20.2083 139.563 20.6059 139.269 21.3054C139.107 21.6809 138.4 21.9386 138.989 22.4834C141.168 21.8797 141.278 21.7913 141.61 20.5029C141.924 19.2659 142.785 18.726 144.193 18.883C143.634 21.9901 141.875 24.1695 139.004 25.4285C138.503 25.6494 137.944 25.8188 137.399 25.8409C133.991 25.9734 130.591 25.8997 127.316 24.7659Z" fill="#DCB996"/>
<path d="M144.193 18.8829C142.785 18.7258 141.924 19.2658 141.61 20.5027C141.286 21.7912 141.175 21.8722 138.989 22.4833C138.393 21.9311 139.107 21.6734 139.269 21.3053C139.563 20.6058 139.328 20.2082 138.599 20.1272C137.539 20.0094 136.339 20.3334 136.104 18.6399C135.927 17.3662 136.722 16.7772 137.399 16.0261C137.436 15.9893 137.392 15.8863 137.363 15.6065C135.191 16.0703 132.843 15.2604 130.841 16.998C130.252 17.5061 129.178 17.5061 128.309 17.6312C127.485 17.749 126.999 16.9539 127.411 16.1882C127.757 15.5402 128.375 15.1426 128.972 14.723C130.584 13.567 132.38 12.6614 133.697 11.1226C134.095 10.8722 135.162 11.5423 134.808 10.2538C134.639 9.62793 135.191 9.42912 135.67 9.36286C136.612 9.23769 137.539 9.01682 138.525 9.18616C139.431 9.34078 140.425 9.48802 141.087 8.53086C140.653 7.7136 139.541 8.45724 139.232 7.61052C138.982 6.92578 138.805 6.21895 138.01 5.94653C140.454 4.87156 142.979 5.60048 144.053 7.97866C144.76 9.5322 145.739 10.3347 147.336 10.7912C149.323 11.3655 150.184 12.7424 150.221 14.7524C150.273 17.3367 148.322 18.7872 145.452 18.2203C144.73 18.0804 144.193 17.8669 144.193 18.8903V18.8829Z" fill="#DBBCA5"/>
<path d="M85.2582 69.5095C86.0384 69.885 85.8986 70.4814 85.6998 71.144C85.03 73.3897 84.8902 75.7016 84.8975 78.0209C84.8975 78.5436 84.7798 79.1547 85.6778 79.6627C87.2529 75.9666 88.3054 72.1306 89.726 68.4419C89.807 70.5476 89.3653 72.6019 88.8207 74.5825C87.2308 80.3549 87.0394 86.2377 86.9658 92.15C86.5389 92.0911 86.0899 92.0985 86.112 92.658C86.1415 93.49 85.8765 94.2263 85.5673 94.9699C85.4717 95.1908 85.3613 95.2129 85.2067 94.992C84.9932 94.7417 85.5968 94.241 84.8828 93.9981C84.5369 95.5516 83.6242 96.9211 83.7125 98.5998C83.7493 99.2624 83.477 99.8882 82.5864 99.8146C82.4612 99.0563 82.3361 98.2979 82.2183 97.5469C82.0491 93.2839 82.0049 89.0282 82.5937 84.7946C82.7262 83.8374 82.7115 82.9024 82.7483 81.9526C82.8808 77.6601 83.7861 73.5222 85.2729 69.5021L85.2582 69.5095Z" fill="#A98D90"/>
<path d="M82.5788 99.8295C83.4694 99.9031 83.7344 99.2699 83.7049 98.6147C83.6166 96.9359 84.5293 95.5665 84.8752 94.0129C85.5892 94.2559 84.9856 94.7566 85.1991 95.0069C85.3537 95.2278 85.4714 95.213 85.5598 94.9848C85.8689 94.2485 86.1339 93.5049 86.1044 92.6729C86.0824 92.1133 86.5313 92.106 86.9582 92.1649C86.9214 92.4299 86.8846 92.7023 86.8552 92.9674C86.7816 93.2398 86.8405 93.4828 87.0245 93.6963C87.1791 99.049 87.5692 104.372 88.4892 109.651C88.8499 111.698 88.6512 113.819 89.2915 115.836C89.4387 116.315 89.2768 116.793 89.1001 117.242C89.0118 117.463 88.9235 117.714 88.7468 117.854C88.5849 117.986 88.1359 118.06 88.1212 118.023C87.422 116.499 85.3978 118.207 84.7722 116.646C84.4851 115.925 84.6986 115.011 83.8963 114.496C84.1907 113.149 84.3674 111.816 83.175 110.756V110.778C83.3075 110.476 83.4252 110.174 83.5504 109.88C85.4567 109.283 86.6123 108.076 86.9435 106.279C85.5892 106.669 84.912 108.127 83.4988 108.348C83.3737 108.245 83.2265 108.179 83.0646 108.157V108.179C83.1455 107.192 83.4179 106.169 82.4905 105.396V105.425C82.6377 104.777 83.0646 104.056 82.0488 103.71V103.739C82.9689 102.532 82.2844 101.111 82.5861 99.8295H82.5788Z" fill="#8A8E93"/>
<path d="M100.045 35.8616C99.736 36.7157 99.4269 37.5624 99.1177 38.4165C94.7603 38.9098 91.7205 41.4131 89.056 44.7117C86.8184 47.4874 85.0077 50.3589 85.4862 54.0624C85.7511 56.1166 85.6702 58.2149 86.2517 60.2397C86.4651 60.9981 86.2517 61.8964 87.0098 62.5296C88.3273 60.0851 89.2842 57.6039 91.0433 55.5865C89.6595 60.3207 87.6722 64.7973 85.339 69.1339C86.075 65.8133 84.6765 62.7504 84.0877 59.6139C83.4032 55.9472 82.8585 52.2585 83.9773 48.717C84.7133 46.3756 85.7732 43.9827 87.79 42.2525C88.5628 41.5898 89.1811 40.7358 89.873 39.97C92.5964 36.9366 96.019 35.6555 100.052 35.869L100.045 35.8616Z" fill="#A98D90"/>
<path d="M83.4918 108.348C84.8977 108.127 85.5822 106.669 86.9365 106.279C86.6053 108.076 85.4497 109.283 83.5434 109.879C82.7999 109.924 82.7631 110.262 83.1753 110.778V110.756C82.5718 112.022 82.6233 113.244 83.433 114.407C82.9692 114.739 82.6454 115.181 82.351 115.667C82.0933 116.094 81.6296 116.307 81.0997 116.13C80.474 115.924 80.1575 115.446 80.2827 114.835C80.4667 113.922 80.1944 113.097 79.9809 112.25C80.0692 112.132 80.1502 112.007 80.2238 111.882C80.7464 110.351 80.1649 108.9 79.8779 107.435C79.6055 106.036 78.9136 104.711 79.1492 103.223C79.9073 101.243 79.7748 99.0267 80.7611 97.105C80.9746 97.5173 81.188 97.9296 81.4088 98.3419C81.718 100.124 81.1807 102.009 82.0565 103.724V103.695C82.1228 104.284 82.086 104.91 82.4982 105.41V105.381C82.373 106.375 81.9535 107.435 83.0796 108.164L83.0723 108.142C82.8956 108.392 82.7926 108.804 83.0208 108.9C83.3152 109.011 83.4035 108.591 83.5066 108.341L83.4918 108.348Z" fill="#A98D90"/>
<path d="M83.4326 114.422C82.6156 113.259 82.564 112.037 83.1676 110.771C84.3673 111.831 84.1833 113.156 83.8889 114.511C83.727 114.526 83.5798 114.496 83.4326 114.43V114.422Z" fill="#746B3E"/>
<path d="M40.0354 50.7493C40.1752 50.926 40.3961 51.0879 40.4402 51.2867C40.5506 51.78 40.1752 51.7874 39.8735 51.6843C38.1511 51.0732 36.4435 50.44 34.7285 49.8068C35.8105 49.3798 36.657 50.1676 37.6212 50.3516C38.4235 50.5063 39.1227 51.2867 40.0354 50.7419V50.7493Z" fill="#DFC1AC"/>
<path d="M92.7144 104.387C92.9131 104.622 93.1192 104.858 93.3179 105.094C93.1487 105.557 93.0898 106.102 92.5083 106.294C92.5745 105.66 92.6408 105.02 92.7144 104.387Z" fill="#927150"/>
<path d="M131.151 71.7034C130.886 72.1378 130.886 72.7416 130.23 73.095C130.378 72.2409 130.23 71.3942 131.268 71.1733C131.231 71.35 131.187 71.5267 131.151 71.7034Z" fill="#DFC1AC"/>
<path d="M92.0739 107.767C92.3463 108.267 92.1034 108.716 91.9267 109.165C91.6912 108.665 91.7427 108.201 92.0739 107.767Z" fill="#927150"/>
<path d="M36.1343 72.1598C35.6117 72.3366 35.1848 72.0568 34.7358 71.8801C35.332 71.3205 35.7074 71.8874 36.1343 72.1598Z" fill="#927150"/>
<path d="M126.83 42.4659C126.97 42.3039 127.11 42.1493 127.25 41.9873C127.286 42.0536 127.36 42.1198 127.353 42.1714C127.309 42.4364 127.11 42.5174 126.874 42.5395L126.83 42.4585V42.4659Z" fill="#DBBCA5"/>
<path d="M57.3031 45.4331C57.6196 45.6245 57.892 45.8528 58.0024 46.2283C57.6049 46.1105 57.259 45.9485 57.3031 45.4331Z" fill="#E1E3E4"/>
<path d="M131.15 71.7034C131.187 71.5267 131.231 71.35 131.268 71.1733C131.29 71.3059 131.334 71.4458 131.334 71.5783C131.334 71.6225 131.217 71.6666 131.15 71.7034Z" fill="#E1E3E4"/>
<path d="M58.5988 40.1539C58.3118 40.1244 58.2161 39.9183 58.1646 39.6753C58.3118 39.8373 58.4516 39.9993 58.5988 40.1539Z" fill="#E1E3E4"/>
<path d="M103.696 37.0176C103.549 36.9292 103.409 36.8409 103.262 36.7599C103.549 36.6126 103.674 36.7304 103.696 37.0176Z" fill="#E1E3E4"/>
<path d="M73.9671 82.5635C73.761 82.3868 73.6874 82.1734 73.7536 81.9083L73.8051 81.8936C73.9008 82.0997 73.9891 82.3058 74.0848 82.512L73.9744 82.5635H73.9671Z" fill="#929499"/>
<path d="M74.0186 85.5752C74.2173 85.7298 74.3424 85.9139 74.2615 86.1789C74.1805 85.9728 74.0995 85.774 74.0186 85.5752Z" fill="#E1E3E4"/>
<path d="M87.0175 93.6962C86.8409 93.4827 86.782 93.2397 86.8482 92.9673C87.0249 93.1808 87.1132 93.4164 87.0175 93.6962Z" fill="#A98D90"/>
<path d="M91.8824 109.732C92.0444 109.939 92.0517 110.159 91.9192 110.388C91.7426 110.182 91.7279 109.961 91.8824 109.732Z" fill="#927150"/>
<path d="M92.1326 110.888C92.2356 111.028 92.2504 111.175 92.1768 111.33C92.0958 111.19 92.0811 111.043 92.1326 110.888Z" fill="#927150"/>
<path d="M62.095 18.316C62.4483 17.1527 63.1549 16.7846 64.2737 17.1822C65.3189 17.5503 65.9077 18.8462 65.5324 19.9138C65.2232 20.7752 64.2958 21.2464 63.4346 20.974C62.2864 20.5985 61.727 19.5088 62.0877 18.316H62.095Z" fill="#A98D90"/>
<path d="M46.9766 61.8303C46.7337 61.7051 46.5938 61.5063 46.5791 61.2266C46.8441 61.337 46.9913 61.5284 46.9766 61.8303Z" fill="#929499"/>
<path d="M74.0775 82.5048C73.9819 82.2986 73.8935 82.0924 73.7979 81.8863C73.9303 80.7745 74.0702 79.6627 74.1806 78.551C74.21 78.2196 74.21 77.8662 74.5781 77.7705C75.0123 77.66 75.3509 77.8956 75.5644 78.2785C75.8588 78.816 75.7999 79.5964 76.6095 79.7658C76.8672 80.0088 76.9334 80.3106 76.8819 80.6493C76.3078 81.6875 76.109 82.6299 77.5296 83.16C77.6842 83.5429 77.8461 83.9184 78.0007 84.3013C77.0806 84.9566 76.374 84.3675 75.6968 83.8521C75.1375 83.4324 74.7547 82.7845 74.0775 82.4974V82.5048Z" fill="#A98D90"/>
<path d="M78.5677 85.5527C78.7149 86.6424 78.8621 87.7248 79.0682 89.2121C78.4401 88.0242 78.2733 86.8044 78.5677 85.5527Z" fill="#DFC1AC"/>
<path d="M78.0009 84.3087C77.8463 83.9258 77.6844 83.5503 77.5298 83.1675C77.596 82.8582 77.6696 82.549 77.7432 82.2397L77.7138 82.2545C78.3542 82.8656 78.3321 83.565 78.0009 84.3161V84.3087Z" fill="#DAB9A0"/>
<path d="M77.5811 81.1866C77.8829 81.5105 77.7945 81.8787 77.7136 82.2468L77.743 82.2321C77.478 81.9082 77.5148 81.5474 77.6105 81.1719H77.5811V81.1866Z" fill="#E1E3E4"/>
<path d="M12.6402 79.5888C14.2448 78.1384 16.3204 78.3666 18.2341 78.0353C18.3813 78.0132 18.558 78.1383 18.7052 78.1089C22.6798 77.1812 25.5872 79.795 28.8847 81.1423C29.7238 81.481 29.7017 82.2615 30.0035 82.8873C30.769 84.4998 30.8131 84.5734 32.2852 83.4984C33.2494 82.799 33.9413 83.5868 34.751 83.6899C34.0443 84.5955 33.588 85.4864 34.8687 86.2963C33.9487 88.8143 34.2357 88.3652 36.0464 89.7494C36.4291 90.0366 36.9591 90.2059 36.7677 90.8097C36.5911 91.3619 36.0317 91.384 35.5606 91.4134C34.6479 91.4723 33.8677 91.0674 33.0801 90.6477C30.975 89.5286 29.2012 87.8793 26.9415 86.9589C26.0951 86.6129 25.2707 86.2816 24.461 86.4067C21.3844 86.8853 18.8818 85.2066 16.1732 84.3378C15.0618 83.9844 15.2016 82.3646 14.2227 81.6283C13.9577 81.4295 15.1133 81.0835 15.209 80.2957C14.4803 79.7435 13.3983 80.1337 12.6328 79.5962L12.6402 79.5888Z" fill="#837640"/>
<path d="M34.8758 86.2967C33.5951 85.4868 34.0515 84.5959 34.7581 83.6903C35.7517 83.4768 36.6791 83.764 37.5477 84.1615C39.4172 85.023 41.6106 84.8978 43.3551 86.1127C46.2992 85.693 48.5736 87.5779 51.0541 88.5718C52.6587 89.2124 54.3 89.8677 55.912 90.5377C56.6628 90.8543 56.6701 90.3021 56.6775 89.8014C58.098 89.7131 59.2021 90.2358 60.0706 91.3844C60.5343 92.0029 61.1453 92.5109 61.6899 93.0631C61.4691 94.5209 60.5564 95.3456 59.2168 95.78C57.3914 95.3382 55.7501 93.9982 53.6965 94.6756C53.5051 94.7418 53.2181 94.6387 53.012 94.5357C49.0594 92.4446 44.9523 90.6997 40.6906 89.3302C40.0502 89.124 39.3878 88.7338 39.2111 88.1816C38.6444 86.3924 37.2533 86.4145 35.8253 86.3777C35.5088 86.3703 35.1923 86.3188 34.8758 86.282V86.2967Z" fill="#816E43"/>
<path d="M61.6902 93.0629C61.1456 92.5034 60.5347 91.9954 60.0709 91.3843C59.2024 90.2357 58.0984 89.7129 56.6778 89.8012C55.3161 88.8146 53.9544 87.8207 52.6001 86.8341C53.6158 86.304 54.4108 87.1065 55.3161 87.2611C58.54 87.8133 60.5862 90.2872 63.0887 92.0101C62.4631 92.15 62.1319 92.6875 61.6902 93.0703V93.0629Z" fill="#6F663A"/>
<path d="M56.3314 85.1846C56.3314 85.2435 56.3388 85.354 56.3167 85.3614C56.2504 85.3835 56.1768 85.3614 56.1032 85.3614C56.1032 85.3025 56.0959 85.192 56.1179 85.1846C56.1842 85.1625 56.2578 85.1846 56.3314 85.1846Z" fill="#927150"/>
<path d="M133.682 11.1153C133.506 10.9901 133.322 10.865 133.145 10.7398C133.623 10.4306 133.579 10.8797 133.682 11.1153Z" fill="#DBBCA5"/>
<path d="M83.1749 110.785C82.7627 110.27 82.7995 109.931 83.5429 109.887C83.4178 110.189 83.3 110.49 83.1749 110.785Z" fill="#746B3E"/>
<path d="M77.6105 81.1795C77.5075 81.5476 77.478 81.9084 77.743 82.2397C77.6694 82.5489 77.6032 82.8582 77.5295 83.1674C76.1163 82.6373 76.3077 81.6949 76.8892 80.6567C77.1321 80.8334 77.375 81.0101 77.6179 81.1868L77.6105 81.1795Z" fill="#929499"/>
</svg>
