<svg width="142" height="65" viewBox="0 0 142 65" fill="none" xmlns="http://www.w3.org/2000/svg">
<path d="M11.6022 41.8502C12.6695 41.2317 13.7956 40.628 14.7304 39.8843C16.3129 38.6179 18.2781 38.2424 19.9195 37.2043C21.8627 35.9673 24.115 35.6139 26.198 34.7893C26.3158 34.7451 26.4114 34.6199 26.5145 34.539C26.3452 34.0456 26.9487 33.5008 26.4998 33.0811C25.933 32.5437 25.7564 33.7217 25.1675 33.4272C24.7701 32.5878 25.5576 32.389 26.014 32.0724C26.0361 31.6086 24.7995 31.5202 25.6386 31.0784C26.382 30.6882 27.1916 30.2317 28.1117 30.2096C28.73 30.1949 29.017 30.4674 28.8698 31.0564C28.73 31.6012 28.5386 32.1019 29.1863 32.4774C29.3777 32.1387 29.8414 31.8736 29.6942 31.5129C29.4145 30.8502 29.834 30.6662 30.2536 30.46C30.8792 30.1508 31.4975 29.7826 32.1673 29.6059C32.7267 29.4513 33.2051 29.2231 33.6615 28.8917C35.7298 27.3971 37.776 25.873 39.8663 24.4225C41.0587 23.5979 42.0892 22.5745 43.1859 21.6467C43.5907 21.3007 44.1869 21.3007 44.4592 20.8295C45.3719 19.2686 46.2773 17.7077 47.1385 16.1174C47.2783 15.8597 47.1973 15.4767 47.2121 15.1528C46.8293 15.1528 46.5128 15.2853 46.1742 15.4989C45.4676 15.9406 44.8052 16.4486 44.0176 16.78C42.31 17.5089 40.6392 18.3188 38.9536 19.0919C38.7181 19.195 38.4973 19.4747 38.0778 19.114C39.0272 18.363 39.6014 17.3101 40.4331 16.456C40.595 16.2867 40.7643 16.1173 40.9557 15.9922C42.5382 15.0203 44.0912 13.9895 45.7252 13.1133C47.4108 12.2151 48.3677 10.7425 49.2362 9.15216C48.5149 9.03436 47.9702 9.42459 47.477 9.84426C46.9176 10.3228 46.3951 10.5879 45.8062 9.9105C45.291 9.32148 44.2532 10.1093 43.8631 9.1816C43.7453 9.2405 43.5907 9.26995 43.5098 9.36567C43.3331 9.57919 43.1785 9.81479 43.0387 10.0504C42.4351 11.037 42.0892 11.0886 41.1176 10.2934C40.8158 10.5069 40.4699 10.691 40.2123 10.9487C39.3658 11.7954 38.3059 11.8616 37.2166 11.8395C36.9369 11.8395 36.5468 11.8837 36.4879 11.5745C36.3039 10.6247 35.6194 10.7793 34.9716 10.794C34.2282 10.8161 33.4775 10.956 32.8224 10.4259C32.6384 10.2786 32.3071 10.264 32.1526 10.4112C31.5122 11.037 30.5038 11.3905 30.5038 12.5243C30.5038 13.2091 30.2536 13.6287 29.4734 13.4152C29.2379 13.3489 29.017 13.3048 28.8183 13.4888C28.1338 14.1147 27.4419 14.7479 26.7574 15.3811C26.4335 15.6829 26.4114 16.0069 26.6764 16.375C27.0003 16.8242 27.3904 16.7652 27.7878 16.5444C28.2368 16.294 28.6564 15.9922 29.0906 15.7271C29.6132 15.4105 30.099 15.0718 30.732 15.6093C31.0706 15.8965 31.4313 15.624 31.6594 15.2706C31.9318 14.8362 32.1894 14.3871 32.4764 13.9674C32.5868 13.8054 32.7856 13.7244 32.9475 13.9012C33.0285 13.9895 33.08 14.1883 33.0358 14.2767C32.7635 14.7626 32.4397 15.2191 32.1673 15.705C31.549 16.7947 30.3861 17.5752 30.1653 18.871C29.9592 20.0859 29.4955 21.0283 28.6711 21.9855C26.8604 24.0912 25.3294 26.3957 23.114 28.1923C21.3254 29.6501 19.5883 31.2331 17.9911 32.9486C16.7398 34.2886 15.4002 35.6287 13.5233 36.1661C13.17 36.2692 12.8608 36.5416 12.5296 36.122C12.2131 35.717 12.272 35.393 12.5959 35.0102C13.3908 34.0677 13.9208 32.9339 15.0911 32.2639C15.7462 31.8884 16.2319 31.1889 16.9533 30.8134C17.3654 30.5999 17.6746 30.2097 17.8807 29.7826C18.0647 29.4071 18.2782 29.0243 18.0647 28.5825C17.8439 28.1334 17.336 28.8549 17.0931 28.288C17.1814 27.9566 17.4685 27.7063 17.7261 27.4486C19.5736 25.6374 20.9721 23.4801 22.481 21.4038C22.8343 20.9179 23.114 20.3657 23.4231 19.8429C23.5409 19.6515 23.7396 19.4527 23.5041 19.2318C23.3127 19.0551 23.0404 19.0845 22.8416 19.1876C22.5987 19.3128 22.3853 19.5116 22.1939 19.703C20.9132 20.9768 19.5662 22.199 18.3738 23.5537C16.4454 25.7257 14.2961 27.6769 12.2647 29.7385C11.5949 30.4232 10.9913 31.4024 9.81364 31.4319C9.89461 32.2344 9.53395 32.6246 8.73166 32.5952C8.51084 32.7277 8.46667 32.9339 8.46667 33.1695C8.99662 33.891 8.3489 33.891 7.93672 34.0309C7.93672 34.2224 7.95143 34.4064 7.95143 34.5979C8.80524 36.122 8.79052 36.1072 7.70118 37.3736C7.38468 37.7418 6.54559 38.1983 7.22275 38.6989C7.78215 39.1112 8.12072 38.3234 8.41514 37.8596C8.75372 37.3147 9.18799 36.9171 10.1375 36.9466C8.87885 38.4339 7.81896 39.7813 6.8621 41.1949C6.28798 42.0416 5.69178 42.8883 5.28695 43.8381C5.21335 44.0148 5.19126 44.2136 5.35319 44.3609C5.52248 44.5155 5.72122 44.4492 5.83899 44.2946C6.4131 43.5142 7.28163 42.9546 7.65702 42.0269C7.84839 41.563 8.1649 41.2833 8.56236 41.0108C10.0418 39.9801 11.9923 39.8254 13.2951 38.4633C13.4202 38.3308 13.6558 38.4412 13.7809 38.6032C13.8987 38.7578 13.7588 38.8462 13.6558 38.9419C12.7652 39.7665 11.8525 40.569 11.6169 41.8502H11.6022Z" fill="#75673A"/>
<path d="M7.92226 34.0457C7.92226 34.2372 7.93697 34.4212 7.93697 34.6127C7.33342 34.8998 7.13468 35.5036 6.85499 36.0337C6.72986 36.2767 6.50905 36.3871 6.28087 36.2693C6.00854 36.122 6.14102 35.8717 6.22934 35.6582C6.26615 35.5698 6.30297 35.4888 6.33977 35.4005C6.48698 35.0397 7.07579 34.6716 6.64153 34.3181C6.1999 33.9574 5.99382 34.6347 5.68468 34.8482C5.47123 34.9955 5.30929 35.349 4.99279 35.0692C4.7867 34.8851 4.91183 34.6421 5.01488 34.4286C5.47122 33.442 5.88341 32.4333 6.39864 31.4761C6.97276 30.4085 8.06209 29.7385 8.68773 28.693C8.82758 28.4574 9.07784 28.2881 9.24713 28.0672C9.40906 27.861 9.73293 27.6475 9.43851 27.3677C9.18825 27.1321 8.90855 27.3235 8.6951 27.515C8.07682 28.0598 7.06844 28.1629 6.94331 29.2894C6.90651 29.6354 6.42072 30.3643 5.81716 29.9447C5.20624 29.5176 5.86132 29.1421 6.11157 28.8182C6.84762 27.8684 7.55423 26.867 8.85703 26.5504C8.80551 26.2338 8.75397 25.9246 8.68773 25.527C7.76767 26.2265 7.17885 25.4607 6.49433 25.0926C7.23774 23.1488 8.70247 21.7057 10.0642 20.2406C10.7192 19.5411 11.1682 18.7017 11.9116 18.0317C12.8832 17.1629 13.8916 16.3088 14.7822 15.3369C15.9672 14.0484 17.4467 13.0692 18.8452 12.0679C21.0312 10.4923 23.1584 8.79883 25.5947 7.55453C27.398 6.63418 29.0541 5.42668 30.9163 4.60205C31.1224 5.16162 31.3726 5.73588 30.6513 6.13347C30.7176 6.23655 30.7764 6.33966 30.8427 6.44274C30.6587 6.7078 30.379 6.7814 30.0993 6.73723C28.9658 6.56788 28.031 7.19375 27.0005 7.45881C26.7135 7.53243 26.4706 7.6944 26.5074 8.04045C26.5442 8.37177 26.8165 8.49696 27.1036 8.51905C27.4274 8.54113 27.7734 8.57793 28.0825 8.49694C29.1571 8.20979 30.195 7.73121 31.3432 7.80483C32.4031 6.65624 34.0592 7.67966 35.1559 6.6047C35.1485 7.53977 34.5082 7.74592 33.9267 7.97416C33.6691 8.07724 33.3526 8.01098 33.1023 8.11406C32.7858 8.24659 32.278 8.34231 32.4767 8.8577C32.6533 9.3142 32.5061 10.0799 33.3967 10.0063C34.0518 9.95475 34.7069 9.96213 35.362 9.92531C35.546 9.91795 35.8404 9.8885 35.8846 9.78542C36.3483 8.72518 37.3272 8.85774 38.1958 8.75466C38.7331 8.6884 39.1747 8.48959 39.5133 8.05519C39.7488 7.76068 40.0212 7.4956 40.4407 7.48824C40.5364 7.57659 40.6321 7.66494 40.7351 7.76066C41.2724 8.54111 41.427 9.37309 41.1031 10.2787C40.8014 10.4922 40.4554 10.6763 40.1978 10.934C39.3514 11.7807 38.2915 11.847 37.2021 11.8249C36.9224 11.8249 36.5323 11.8691 36.4734 11.5599C36.2894 10.6101 35.6049 10.7647 34.9572 10.7794C34.2138 10.8015 33.463 10.9414 32.8079 10.4113C32.6239 10.264 32.2927 10.2493 32.1381 10.3965C31.4978 11.0224 30.4894 11.3758 30.4894 12.5097C30.4894 13.1944 30.2391 13.6141 29.4589 13.4006C29.2234 13.3343 29.0026 13.2901 28.8038 13.4742C28.1193 14.1 27.4274 14.7332 26.7429 15.3664C26.4191 15.6683 26.397 15.9922 26.6619 16.3604C26.9858 16.8095 27.3759 16.7506 27.7734 16.5297C28.2224 16.2794 28.6419 15.9775 29.0762 15.7124C29.5988 15.3958 30.0846 15.0572 30.7176 15.5947C31.0561 15.8818 31.4168 15.6094 31.645 15.2559C31.9173 14.8215 32.1749 14.3724 32.462 13.9528C32.5724 13.7908 32.7711 13.7098 32.933 13.8865C33.014 13.9748 33.0655 14.1736 33.0214 14.262C32.749 14.7479 32.4252 15.2044 32.1528 15.6904C31.5346 16.7801 30.3716 17.5605 30.1508 18.8563C29.9447 20.0712 29.481 21.0136 28.6566 21.9708C26.846 24.0765 25.315 26.3811 23.0995 28.1776C21.3109 29.6354 19.5738 31.2184 17.9766 32.9339C16.7254 34.274 15.3857 35.614 13.5088 36.1515C13.1555 36.2545 12.8464 36.527 12.5152 36.1073C12.1987 35.7023 12.2576 35.3784 12.5814 34.9955C13.3763 34.0531 13.9063 32.9192 15.0766 32.2492C15.7317 31.8737 16.2175 31.1742 16.9388 30.7987C17.351 30.5852 17.6601 30.195 17.8662 29.768C18.0502 29.3925 18.2637 29.0096 18.0502 28.5678C17.8294 28.1187 17.3215 28.8402 17.0787 28.2733C17.167 27.942 17.454 27.6917 17.7116 27.434C19.5591 25.6227 20.9576 23.4654 22.4665 21.3891C22.8198 20.9032 23.0995 20.351 23.4086 19.8282C23.5264 19.6368 23.7251 19.438 23.4896 19.2171C23.2982 19.0404 23.0259 19.0699 22.8272 19.1729C22.5843 19.2981 22.3708 19.4969 22.1794 19.6883C20.8987 20.9621 19.5518 22.1843 18.3594 23.5391C16.4309 25.7111 14.2817 27.6622 12.2502 29.7238C11.5804 30.4085 10.9768 31.3878 9.79916 31.4172C8.88647 31.2921 8.98215 32.1093 8.71718 32.5805C8.49636 32.7131 8.45221 32.9192 8.45221 33.1548C8.08419 33.3242 7.90754 33.6113 7.92226 34.0163V34.0457ZM23.9312 23.782C23.7104 24.0765 23.416 24.4226 23.416 24.7466C23.4086 25.6375 22.7977 25.9099 22.1721 26.2485C21.8114 26.44 21.3772 26.5799 21.2373 27.0364C21.1711 27.2572 21.1637 27.5076 21.3256 27.699C21.5023 27.9199 21.7378 27.8757 21.9586 27.7726C22.2972 27.618 22.6579 27.4634 22.864 27.1395C24.049 25.2472 25.7198 23.7305 26.9343 21.8677C27.1993 21.4628 27.5305 21.0725 27.6703 20.2406C26.0437 21.3302 24.9102 22.4715 23.9312 23.7747V23.782Z" fill="#806B3B"/>
<path d="M40.448 7.49538C40.632 7.29659 40.8087 7.10517 40.9927 6.90637C41.3607 6.88428 41.5447 6.69282 41.53 6.32469C41.9128 6.13325 42.1777 5.83875 42.347 5.45588C42.7077 5.4338 42.8917 5.24238 42.8843 4.87424C42.9947 4.59446 43.164 4.33674 43.1346 4.02014C44.327 3.77717 45.4826 3.34278 46.7412 3.53421C47.3668 3.62993 48.0661 2.82737 47.9263 2.08373C47.7938 1.35481 48.1471 1.3033 48.6623 1.28121L48.7285 1.399L48.78 1.34745L48.6623 1.28858C48.7506 1.10451 48.8316 0.913073 48.9199 0.729004L49.759 0.905703C49.9283 1.40637 49.2953 1.70086 49.4131 2.2678C49.8841 2.48132 50.3994 2.31936 50.8925 2.33408C51.3121 2.34144 51.7684 2.20891 52.1438 2.33408C52.8577 2.56233 53.4245 2.54761 53.8661 1.74507C53.8661 2.48871 53.5938 3.16607 54.1458 3.98333C54.4255 2.94518 54.6463 2.12058 54.8745 1.29595C55.905 1.25177 56.8766 1.36222 57.8629 1.75981C60.6304 2.86422 63.4421 3.86554 66.239 4.91105C66.239 5.34545 66.0256 5.70622 65.8048 6.05227C65.6134 6.36887 65.341 6.58974 65.8931 6.92107C66.0403 7.00942 65.8195 7.94452 65.5692 8.37893C65.4294 8.61453 65.2012 8.08442 64.9436 8.01816C64.6271 7.47331 64.4504 6.83272 63.5083 7.06096C63.2212 7.12723 62.7943 6.39097 62.6545 5.92711C62.4484 5.26446 62.2129 5.28654 61.6461 5.5516C60.2329 6.21425 59.0479 7.19349 57.7819 8.06966C57.5169 8.25373 57.274 8.48937 57.0753 8.74706C56.56 9.39499 56.0743 9.96925 55.2057 10.2785C54.455 10.5509 53.7483 11.1473 53.4539 12.0088C53.2552 12.5831 52.8504 12.9144 52.3425 13.2015C51.7758 13.5255 51.2826 13.9673 50.7379 14.3207C50.3184 14.5857 50.1197 14.9097 49.9725 15.403C49.7222 16.2423 49.2364 16.986 48.4341 17.4719C47.1902 18.2303 46.1965 19.1433 45.4531 20.5054C44.9011 21.5141 44.592 22.7068 43.4143 23.4431C44.5036 23.9364 45.0778 22.7216 45.9021 23.2222C46.0346 23.6714 45.5856 23.7303 45.3795 23.9364C45.1145 24.1941 44.7686 24.3709 44.5036 24.6285C43.8559 25.2323 43.4953 26.0937 43.8044 26.3146C44.3859 26.7196 45.0778 26.5502 45.6887 26.3661C46.1156 26.2336 46.5057 25.9023 46.8369 25.5857C47.2859 25.1587 47.8011 24.8715 48.3605 24.6138C48.7065 24.4592 48.8978 24.3193 49.3321 24.4887C50.1049 24.7905 50.9514 24.9451 51.8052 24.8494C50.9293 26.3735 49.2879 27.0288 47.9704 27.9933C46.8884 28.7811 45.5783 29.3554 44.3785 30.0328C41.7582 31.5127 38.9465 32.3005 36.0023 32.7202C35.7226 32.3815 35.5533 32.5141 35.4429 32.8601C35.1927 33.0663 34.9056 33.0294 34.6186 32.9853C34.4493 31.9913 34.4493 31.9839 33.7206 32.2784C33.463 32.3815 33.2201 32.6245 32.9404 32.5214C32.013 32.1754 31.9246 32.8012 31.8216 33.4344C31.6081 33.7142 31.3873 33.9792 30.9825 33.7583C30.4452 33.4049 29.9447 33.2503 29.584 33.9866C28.5756 34.2664 27.5673 34.5609 26.5073 34.5462C26.3381 34.0529 26.9416 33.508 26.4926 33.0884C25.9259 32.5509 25.7492 33.7289 25.1604 33.4344C24.7629 32.595 25.5505 32.3963 26.0068 32.0797C26.0289 31.6158 24.7924 31.5274 25.6315 31.0857C26.3749 30.6954 27.1845 30.2389 28.1046 30.2169C28.7228 30.2021 29.0099 30.4746 28.8627 31.0636C28.7228 31.6084 28.5315 32.1091 29.1792 32.4846C29.3706 32.1459 29.8343 31.8809 29.6871 31.5201C29.4074 30.8574 29.8269 30.6734 30.2464 30.4672C30.8721 30.158 31.4904 29.7898 32.1602 29.6131C32.7196 29.4585 33.198 29.2303 33.6543 28.8989C35.7226 27.4043 37.7688 25.8802 39.8592 24.4297C41.0516 23.6051 42.082 22.5817 43.1788 21.654C43.5836 21.3079 44.1798 21.3079 44.4521 20.8367C45.3648 19.2758 46.2701 17.7149 47.1313 16.1245C47.2712 15.8668 47.1902 15.484 47.2049 15.16C47.6024 15.1747 47.8674 14.9686 48.1765 14.7183C49.1407 13.9083 50.1417 13.1353 51.2532 12.5242C52.1585 12.0235 53.0638 11.5817 53.5496 10.5656C53.741 10.1607 54.2047 9.98398 54.6537 9.77782C55.6032 9.35078 56.5159 8.79122 57.0385 7.66471C54.1679 7.16405 51.6433 7.84881 49.2438 9.16675C48.5224 9.04894 47.9778 9.43917 47.4846 9.85885C46.9252 10.3374 46.4026 10.6025 45.8138 9.92509C45.2986 9.33607 44.2607 10.1239 43.8706 9.19618C43.7529 9.25508 43.5983 9.28453 43.5173 9.38025C43.3407 9.59377 43.1861 9.82937 43.0463 10.065C42.4427 11.0516 42.0968 11.1031 41.1252 10.308C41.449 9.40235 41.2871 8.57032 40.7572 7.78987C40.6615 7.70152 40.5658 7.61317 40.4627 7.51745L40.448 7.49538ZM33.0949 30.1506C33.8089 30.3789 34.0224 30.9752 34.6554 30.9973C34.4885 30.3445 33.9684 30.0623 33.0949 30.1506ZM27.9647 31.336C27.9426 31.174 27.8028 31.1372 27.6629 31.1887C27.5305 31.2403 27.4274 31.3507 27.4716 31.5053C27.4863 31.5569 27.6261 31.5716 27.7071 31.6011C27.8543 31.5716 27.9794 31.498 27.9574 31.336H27.9647Z" fill="#6F653A"/>
<path d="M64.7593 8.29816C65.0906 8.41596 64.8844 8.10676 64.9507 8.01105C65.2083 8.07731 65.4365 8.61479 65.5763 8.37181C65.8266 7.93741 66.0474 7.00236 65.9002 6.914C65.3482 6.58268 65.6131 6.36176 65.8119 6.04516C66.0253 5.69174 66.2461 5.33834 66.2461 4.90394C66.6436 4.88185 67.0264 4.88923 67.1515 5.38253C66.835 5.61078 66.6804 5.92002 66.6951 6.35442C67.1368 6.58267 67.6667 5.96419 68.0862 6.47958C68.3512 6.80354 68.0936 7.08331 68.0495 7.38518C67.5342 7.96684 67.4459 8.66631 67.468 9.40994C67.0411 9.59401 66.6215 9.78546 66.1946 9.97689C65.7751 9.82227 65.9738 9.32158 65.6867 9.07861C65.1568 9.60137 65.3482 10.2419 65.3555 10.8457C64.7888 11.5231 64.3103 12.3109 63.3756 12.5612C63.0296 12.6349 62.9339 12.8778 62.9339 13.1944C62.0139 14.3062 61.0055 15.3517 60.24 16.5886C60.1222 16.7727 60.1738 17.0893 59.9161 17.163C58.7532 17.5016 58.3116 18.5619 57.6271 19.4012C57.0014 20.1669 56.339 20.8959 55.6986 21.6395C55.4189 21.6027 55.1908 21.4775 54.9626 21.2935C54.5578 20.9695 54.1235 21.0211 53.6892 21.3156C52.9753 21.8089 52.2466 22.2801 51.459 22.8028C51.8565 23.3992 52.1435 24.0103 52.0478 24.7319C51.9889 24.8202 51.9154 24.8571 51.8123 24.8571C50.9585 24.9528 50.112 24.7981 49.3392 24.4962C48.9049 24.3269 48.7135 24.4668 48.3676 24.6214C47.8082 24.8791 47.293 25.1589 46.844 25.5933C46.5128 25.9099 46.1227 26.2486 45.6958 26.3738C45.0922 26.5578 44.4003 26.7272 43.8115 26.3222C43.5024 26.1014 43.863 25.2399 44.5107 24.6361C44.7831 24.3858 45.129 24.2091 45.3866 23.944C45.5927 23.7379 46.0417 23.6864 45.9092 23.2299C45.0849 22.7218 44.5107 23.944 43.4214 23.4507C44.5991 22.7145 44.9156 21.5217 45.4602 20.513C46.2036 19.1583 47.2047 18.2379 48.4412 17.4795C49.2435 16.9862 49.7293 16.2426 49.9795 15.4106C50.1268 14.9099 50.3255 14.5933 50.745 14.3283C51.2971 13.9749 51.7902 13.5331 52.3496 13.2092C52.8648 12.9146 53.2697 12.5833 53.461 12.0164C53.7555 11.1549 54.4621 10.5585 55.2128 10.2861C56.0814 9.97688 56.5671 9.40262 57.0824 8.75469C57.2811 8.497 57.524 8.26136 57.789 8.07729C59.0476 7.20112 60.24 6.22188 61.6532 5.55923C62.22 5.29417 62.4555 5.27209 62.6616 5.93474C62.8015 6.39123 63.2357 7.13486 63.5154 7.06859C64.4576 6.84035 64.6342 7.4809 64.9507 8.02574C64.8329 8.09201 64.6931 8.29081 64.7593 8.3129V8.29816ZM64.2735 11.0371C64.3839 11.0224 64.5385 10.8899 64.5532 10.7941C64.5974 10.5659 64.3692 10.5217 64.2073 10.4776C64.0454 10.4334 63.9644 10.5438 63.957 10.7352C63.9718 10.8972 64.0527 11.0666 64.2735 11.0371ZM63.7436 9.53514C63.7804 9.46152 63.8466 9.38786 63.8466 9.3216C63.8466 9.24797 63.773 9.18173 63.7289 9.11546C63.6921 9.18909 63.6553 9.2627 63.6185 9.32896C63.6626 9.39523 63.6994 9.46888 63.7436 9.53514Z" fill="#645A33"/>
<path d="M7.94421 34.6124C7.34065 34.8995 7.14192 35.5033 6.86222 36.0334C6.7371 36.2764 6.51628 36.3868 6.28811 36.269C6.01577 36.1217 6.14826 35.8714 6.23658 35.6579C6.27338 35.5695 6.31018 35.4885 6.34698 35.4002C6.49419 35.0394 7.08303 34.6713 6.64876 34.3178C6.20714 33.9571 6.00105 34.6344 5.69192 34.8479C5.47846 34.9952 5.31653 35.3486 5.00003 35.0689C4.79394 34.8848 4.91907 34.6418 5.02211 34.4283C5.47846 33.4417 5.89065 32.433 6.40588 31.4758C6.97999 30.4082 8.06933 29.7382 8.69497 28.6927C8.83482 28.4571 9.08508 28.2878 9.25437 28.0669C9.4163 27.8607 9.74017 27.6472 9.44575 27.3674C9.19549 27.1318 8.91579 27.3232 8.70234 27.5147C8.08406 28.0595 7.07567 28.1626 6.95055 29.2891C6.91374 29.6351 6.42796 30.364 5.8244 29.9444C5.21348 29.5173 5.86856 29.1418 6.11881 28.8179C6.85486 27.8681 7.56147 26.8667 8.86427 26.5501C8.81274 26.2335 8.76121 25.9243 8.69497 25.5267C7.77491 26.2262 7.18609 25.4604 6.50157 25.0923C5.56679 25.593 5.49317 26.6091 5.19139 27.4337C4.49215 29.348 3.44697 31.0856 2.52691 32.8895C1.48909 34.9216 0.767767 37.0347 0.804569 39.3613C0.848732 42.1665 1.8056 44.7141 2.86551 47.2469C2.97591 47.5193 3.182 47.6739 3.41017 47.858C3.7782 48.1599 3.9254 48.5648 3.7782 49.0875C3.63099 49.625 3.6825 50.1331 3.95484 50.7C4.22718 51.2817 4.5216 51.4363 5.11043 51.4068C5.71399 51.3774 5.78023 50.9135 5.84648 50.5454C6.27338 48.2924 7.75284 46.6505 8.93787 44.8098C9.696 43.6391 10.8737 42.9691 11.6171 41.8499C11.8526 40.5688 12.7726 39.7663 13.6559 38.9417C13.7589 38.846 13.8988 38.765 13.781 38.603C13.6633 38.441 13.4204 38.3306 13.2952 38.4631C11.9924 39.8252 10.0419 39.9798 8.56249 41.0106C8.16502 41.283 7.84851 41.5628 7.65714 42.0266C7.28176 42.9543 6.41323 43.5066 5.83911 44.2944C5.72134 44.449 5.52261 44.5153 5.35332 44.3607C5.19875 44.2208 5.21347 44.0146 5.28708 43.8379C5.6919 42.8881 6.28811 42.0488 6.86222 41.1947C7.81908 39.7737 8.87161 38.4263 10.1376 36.9464C9.18811 36.9169 8.75385 37.3145 8.41527 37.8593C8.12821 38.3232 7.78227 39.111 7.22288 38.6987C6.55308 38.2054 7.3848 37.7489 7.7013 37.3734C8.78329 36.107 8.80537 36.1217 7.95156 34.5976L7.94421 34.6124Z" fill="#7D6D3F"/>
<path d="M48.6624 1.28128C48.7507 1.09722 48.8317 0.905776 48.92 0.721707C47.1903 0.265216 45.4459 0.530299 43.7162 0.699642C42.6121 0.810084 41.5227 1.14138 40.426 1.17819C39.0938 1.22237 37.8425 1.53163 36.6575 2.07648C35.5608 2.57714 34.4494 2.99682 33.2938 3.31341C32.6755 3.48276 32.2854 4.13801 31.6008 4.20428C31.5567 4.62396 31.3506 4.77861 30.9384 4.60927H30.9163C31.1224 5.16884 31.3727 5.7431 30.6514 6.14069C30.7176 6.24377 30.7765 6.34688 30.8427 6.44996C31.1077 6.39842 31.38 6.36158 31.645 6.28795C32.9552 5.91245 34.2653 5.52223 35.5755 5.13936C35.973 3.91715 36.444 3.51218 37.5187 3.74779C38.056 3.8656 38.527 3.88035 38.976 3.63738C40.4555 2.82747 41.8319 2.92317 43.1273 4.02758C44.3197 3.78461 45.4753 3.35023 46.7339 3.54166C47.3596 3.63737 48.0588 2.83481 47.919 2.09117C47.7865 1.36226 48.1398 1.31074 48.655 1.28865L48.6624 1.28128Z" fill="#7D6D3F"/>
<path d="M49.7591 0.89864C49.9284 1.39931 49.2954 1.69385 49.4132 2.26078C49.8842 2.4743 50.3995 2.31229 50.8926 2.32702C51.3122 2.33438 51.7685 2.20185 52.1439 2.32702C52.8578 2.55526 53.4246 2.54055 53.8662 1.73801C53.8662 2.48164 53.5939 3.159 54.1459 3.97627C54.4256 2.93812 54.6464 2.11352 54.8746 1.28889C53.1964 0.854485 51.5035 0.515776 49.7591 0.89864Z" fill="#7D6D3F"/>
<path d="M55.6913 21.6322C55.4116 21.5954 55.1834 21.4702 54.9552 21.2861C54.5504 20.9622 54.1161 21.0137 53.6819 21.3083C52.9679 21.8016 52.2392 22.2727 51.4517 22.7955C51.8491 23.3919 52.1362 24.003 52.0405 24.7245C53.5936 24.0913 54.5872 22.7955 55.6839 21.6322H55.6913Z" fill="#6F653A"/>
<path d="M68.0423 7.37059C68.7145 7.2086 68.9918 6.63429 68.874 5.64768C68.2631 5.78757 67.7847 5.03657 67.1443 5.37526C66.8278 5.60351 66.6733 5.91275 66.688 6.34715C67.1296 6.5754 67.6595 5.95691 68.0791 6.4723C68.3441 6.79627 68.0865 7.07604 68.0423 7.37791V7.37059Z" fill="#6F653A"/>
<path d="M34.6256 32.9778C34.4563 31.9839 34.4563 31.9765 33.7276 32.271C33.47 32.3741 33.2271 32.617 32.9474 32.514C32.02 32.1679 31.9317 32.7937 31.8286 33.4269C32.8149 33.5889 33.6834 33.0515 34.6329 32.9778H34.6256Z" fill="#72673C"/>
<path d="M66.1873 9.9622C65.7677 9.80758 65.9665 9.30694 65.6794 9.06396C65.1495 9.58672 65.3408 10.2273 65.3482 10.831C65.7162 10.6248 65.9223 10.2567 66.1946 9.9622H66.1873Z" fill="#6F653A"/>
<path d="M30.9898 33.751C30.4525 33.3976 29.952 33.243 29.5913 33.9793C30.0256 33.7216 30.5702 34.1413 30.9898 33.751Z" fill="#72673C"/>
<path d="M36.0096 32.7129C35.7299 32.3742 35.5606 32.5067 35.4502 32.8528C35.6489 32.8528 35.8845 33.0074 36.0096 32.7129Z" fill="#916D4D"/>
<path d="M63.3611 12.5464C63.0151 12.62 62.9194 12.863 62.9194 13.1796C63.2359 13.0839 63.4052 12.8924 63.3611 12.5464Z" fill="#A2888C"/>
<path d="M30.9385 4.60929C31.3433 4.77864 31.5494 4.62398 31.6009 4.20431C31.2918 4.19694 31.1078 4.38841 30.9385 4.60929Z" fill="#806B3B"/>
<path d="M47.1977 15.138C47.5952 15.1528 47.8602 14.9466 48.1693 14.6962C49.1335 13.8863 50.1345 13.1133 51.246 12.5021C52.1513 12.0015 53.0566 11.5597 53.5424 10.5437C53.7338 10.1387 54.1975 9.96201 54.6465 9.75585C55.596 9.32881 56.5087 8.76924 57.0313 7.64274C54.1607 7.14207 51.6361 7.82679 49.2366 9.14473C48.368 10.7351 47.4112 12.2003 45.7256 13.1059C44.0916 13.9821 42.5386 15.0128 40.9561 15.9847C40.7573 16.1025 40.5954 16.2792 40.4335 16.4486C39.6017 17.2953 39.0203 18.3482 38.0781 19.1066C38.4977 19.4673 38.7185 19.1949 38.954 19.0845C40.6469 18.3187 42.3104 17.5015 44.018 16.7725C44.8056 16.4412 45.468 15.9332 46.1746 15.4914C46.5058 15.2779 46.8223 15.138 47.2124 15.1454L47.1977 15.138Z" fill="#7D6D3F"/>
<path d="M9.79927 31.4465C8.88658 31.3213 8.98226 32.1386 8.71729 32.6098C9.52693 32.6392 9.88024 32.249 9.79927 31.4465Z" fill="#7D6D3F"/>
<path d="M8.45219 33.1841C8.08417 33.3534 7.90752 33.6406 7.92224 34.0455C8.33442 33.9056 8.98214 33.9056 8.45219 33.1841Z" fill="#7D6D3F"/>
<path d="M35.5752 5.132C34.265 5.51486 32.9549 5.90509 31.6447 6.28059C31.3871 6.35422 31.1074 6.39106 30.8424 6.44259C30.6584 6.70765 30.3787 6.78125 30.099 6.73708C28.9655 6.56773 28.0307 7.1936 27.0003 7.45866C26.7132 7.53229 26.4703 7.69425 26.5071 8.0403C26.5439 8.37163 26.8163 8.49681 27.1033 8.5189C27.4272 8.54099 27.7731 8.57778 28.0822 8.49679C29.1569 8.20964 30.1947 7.73106 31.3429 7.80469C32.4028 6.6561 34.0589 7.67952 35.1556 6.60455C35.1483 7.53962 34.5079 7.74577 33.9264 7.97402C33.6688 8.0771 33.3523 8.01083 33.1021 8.11391C32.7856 8.24644 32.2777 8.34216 32.4764 8.85756C32.6531 9.31405 32.5059 10.0798 33.3965 10.0061C34.0516 9.95461 34.7067 9.96198 35.3617 9.92517C35.5457 9.9178 35.8402 9.88835 35.8843 9.78527C36.348 8.72503 37.327 8.85759 38.1955 8.75451C38.7328 8.68825 39.1744 8.48944 39.513 8.05504C39.7485 7.76053 40.0209 7.49546 40.4404 7.48809C40.6244 7.2893 40.8011 7.09788 40.9851 6.89908C40.9851 6.53831 41.1618 6.33948 41.5224 6.3174C41.5077 5.89772 41.493 5.47808 41.6549 5.07313C41.7506 4.84489 41.7285 4.51356 41.493 4.46938C40.7275 4.32212 40.1313 3.62263 39.1524 4.07176C38.0336 4.58716 36.7676 4.78598 35.5678 5.11731L35.5752 5.132Z" fill="#916D4D"/>
<path d="M27.6701 20.2554C26.0434 21.3451 24.9099 22.4863 23.931 23.7895C23.7102 24.084 23.4157 24.4301 23.4157 24.7541C23.4084 25.6449 22.7975 25.9174 22.1718 26.256C21.8112 26.4475 21.3769 26.5874 21.2371 27.0439C21.1708 27.2647 21.1634 27.5151 21.3254 27.7065C21.502 27.9274 21.7376 27.8832 21.9584 27.7801C22.297 27.6255 22.6576 27.4709 22.8637 27.147C24.0487 25.2547 25.7196 23.738 26.934 21.8752C27.199 21.4702 27.5302 21.08 27.6701 20.248V20.2554Z" fill="#75673A"/>
<path d="M40.7348 7.76802C40.6392 7.67967 40.5435 7.59132 40.4404 7.49561C40.5361 7.58396 40.6318 7.67231 40.7348 7.76802Z" fill="#7D6D3F"/>
<path d="M35.5752 5.132C36.7749 4.79331 38.0409 4.6019 39.1597 4.0865C40.1387 3.63737 40.7349 4.33682 41.5003 4.48407C41.7359 4.52825 41.758 4.85958 41.6623 5.08783C41.493 5.49278 41.5077 5.91246 41.5298 6.33214C41.9125 6.1407 42.1775 5.8462 42.3468 5.46333C42.3468 5.10256 42.5235 4.90378 42.8841 4.88169C42.9945 4.60191 43.1638 4.34419 43.1344 4.02759C41.8389 2.92317 40.4625 2.82748 38.9831 3.63738C38.5267 3.88772 38.063 3.8656 37.5257 3.7478C36.4511 3.51219 35.9726 3.90979 35.5825 5.13937L35.5752 5.132Z" fill="#806B3B"/>
<path d="M34.6552 30.9973C34.4883 30.3444 33.9682 30.0622 33.0947 30.1506C33.8087 30.3788 34.0222 30.9752 34.6552 30.9973Z" fill="#72673C"/>
<path d="M27.7069 31.5937C27.8541 31.5642 27.9792 31.4906 27.9571 31.3286C27.9351 31.1667 27.7952 31.1298 27.6554 31.1814C27.5229 31.2329 27.4198 31.3434 27.464 31.498C27.4787 31.5495 27.6186 31.5642 27.6995 31.5937H27.7069Z" fill="#75673A"/>
<path d="M41.5224 6.33203C41.1617 6.35412 40.9777 6.55294 40.9851 6.91372C41.3531 6.89163 41.5371 6.70017 41.5224 6.33203Z" fill="#806B3B"/>
<path d="M42.8769 4.87451C42.5162 4.8966 42.3322 5.09538 42.3396 5.45615C42.7002 5.43407 42.8842 5.24265 42.8769 4.87451Z" fill="#7D6D3F"/>
<path d="M63.9644 10.7425C63.9791 10.9045 64.0601 11.0738 64.2809 11.0444C64.3913 11.0296 64.5458 10.8971 64.5605 10.8014C64.6047 10.5731 64.3765 10.529 64.2146 10.4848C64.0527 10.4406 63.9717 10.551 63.9644 10.7425Z" fill="#6F653A"/>
<path d="M63.6113 9.32874C63.6555 9.395 63.6923 9.46865 63.7364 9.53492C63.7732 9.46129 63.8395 9.38763 63.8395 9.32137C63.8395 9.24774 63.7659 9.1815 63.7217 9.11523C63.6849 9.18886 63.6481 9.26247 63.6113 9.32874Z" fill="#6F653A"/>
<path d="M64.9506 8.01074C64.8328 8.07701 64.693 8.27577 64.7593 8.29786C65.0905 8.41566 64.8844 8.10646 64.9506 8.01074Z" fill="#6F653A"/>
<path d="M98.5367 54.7274C98.3085 54.5949 98.073 54.4624 97.8448 54.3298C97.4032 53.3359 96.8438 52.445 95.8943 51.8486C95.6514 51.694 95.5189 51.4437 95.3496 51.2228C94.6283 50.2583 94.2456 49.1686 94.0763 47.9979C93.9217 46.9376 93.3844 46.1866 92.4349 45.708C91.8387 45.4135 91.3455 44.9791 90.9039 44.4932C89.6894 43.1532 88.4971 41.7984 87.3194 40.4289C86.7968 39.8252 86.2521 39.273 85.5897 38.8091C85.0744 38.4484 84.4635 38.1465 84.1544 37.5133C83.6392 36.4678 82.9473 35.5327 82.248 34.605C81.777 33.9792 81.512 33.2208 81.2544 32.4772C81.144 32.1679 81.0851 31.8145 81.4605 31.6084C82.0346 31.2991 81.9978 30.8279 81.9095 30.2831C81.7917 29.591 82.145 28.3319 82.4983 27.8828C82.7044 28.3908 82.962 28.8694 83.1681 29.3774C83.6244 30.4671 84.0219 31.5936 84.7359 32.5581C85.0008 33.2502 85.1554 34.0602 85.8179 34.4504C86.6717 34.9511 87.1869 35.7021 87.6874 36.4825C88.21 37.3071 88.7105 38.1465 89.3656 38.8754C89.8808 39.4423 90.4034 39.9945 91.1321 40.2375C91.2867 40.0166 91.2204 39.8989 91.1615 39.7663C90.5212 38.2422 89.1889 37.2188 88.3057 35.864C87.3047 34.3252 85.8915 32.9852 86.3552 30.8868C86.3625 30.8427 86.3404 30.7985 86.3257 30.7469C86.7453 30.6218 87.1427 30.6144 87.4887 30.9531C87.9303 31.3875 88.475 31.4169 89.0417 31.2697C89.5275 31.7482 90.0869 32.0943 90.7273 32.3225C91.2646 33.0662 91.9786 33.5669 92.8471 33.8687C93.7598 34.1853 94.4443 34.7891 95.0331 35.5474C96.0857 36.9169 96.8953 38.5073 98.4189 39.4644C98.4557 39.4865 98.4778 39.5381 98.5073 39.5749C99.5598 40.8118 100.524 42.115 101.878 43.0722C102.938 43.8232 103.748 44.9791 104.845 45.5902C106.604 46.5695 108.26 47.7033 109.997 48.7047C110.483 48.9845 110.961 49.2937 111.528 49.3673C112.691 49.522 113.655 50.1404 114.494 50.8693C115.274 51.5541 116.113 51.7529 117.07 51.6204C117.497 51.5615 117.909 51.5099 118.314 51.6498C119.404 52.0253 120.515 52.3051 121.597 52.7616C124.21 53.8733 126.367 55.6625 128.744 57.1203C128.95 57.2455 129.141 57.4148 129.09 57.6799C129.031 57.9818 128.781 58.1069 128.516 58.2321C128.111 58.4235 127.618 58.1364 127.191 58.4677C127.515 58.8285 127.912 59.0494 127.912 59.528C127.139 59.7415 126.374 59.4028 125.594 59.4838C125.034 59.1009 124.387 59.6237 123.82 59.3144C123.474 58.6003 122.811 58.8801 122.259 58.8138C121.965 58.7843 121.671 58.7549 121.376 58.7254C121.192 58.4972 120.964 58.3794 120.67 58.3278C118.852 58.0186 117.07 58.21 115.304 58.6886C114.03 57.8934 112.875 56.6491 111.13 57.5842C110.961 57.6725 110.681 57.5474 110.446 57.5474C110.107 57.5474 109.798 57.6063 109.644 57.9671C109.438 57.9155 109.231 57.8713 109.033 57.8198C108.621 57.7535 108.282 57.3707 107.818 57.5253C107.73 57.1645 107.502 57.0246 107.141 57.1056C107.119 57.0173 107.097 56.9289 107.075 56.8332C107.215 56.362 106.861 56.6638 106.736 56.6197C106.434 56.708 106.147 56.5828 105.86 56.5313C105.801 56.3104 105.713 56.1117 105.463 56.0601L105.441 56.0454C105.33 55.9791 105.22 55.9055 105.11 55.8392C104.462 55.8834 103.888 55.8171 103.763 55.0072C103.645 54.9336 103.534 54.86 103.417 54.7863C102.938 54.8747 102.416 54.5728 101.967 54.9851C101.68 55.2428 101.245 55.1324 101.076 54.9262C100.531 54.2709 99.6997 54.5655 99.0667 54.2121C98.7722 54.0501 98.6324 54.4329 98.5294 54.6832L98.5367 54.7274Z" fill="#806B3B"/>
<path d="M127.927 59.5649C127.927 59.0937 127.537 58.8655 127.206 58.5047C127.625 58.166 128.126 58.4605 128.53 58.2691C128.795 58.1439 129.046 58.0188 129.105 57.7169C129.156 57.4518 128.965 57.2899 128.759 57.1573C126.381 55.6995 124.217 53.9103 121.612 52.7985C120.53 52.3347 119.426 52.0549 118.329 51.6868C117.924 51.5469 117.512 51.5984 117.085 51.6573C116.128 51.7898 115.289 51.5837 114.509 50.9063C113.67 50.1774 112.705 49.5589 111.543 49.4043C110.976 49.3233 110.497 49.0215 110.012 48.7417C108.274 47.733 106.611 46.6065 104.859 45.6272C103.77 45.0161 102.953 43.8602 101.893 43.1092C100.539 42.1446 99.5745 40.8414 98.5219 39.6118C98.4925 39.575 98.4704 39.5308 98.4336 39.5014C96.9026 38.5442 96.1003 36.9539 95.0478 35.5844C94.4589 34.826 93.7744 34.2223 92.8617 33.9057C92.0006 33.6038 91.2866 33.1032 90.7419 32.3595C90.3445 31.2404 90.2856 31.1962 89.3287 31.2404C89.2257 30.7839 89.1226 30.3274 89.0122 29.8709C89.3066 29.7605 89.4538 29.5764 89.4318 29.2451C89.4097 28.8622 89.0343 28.3763 89.5348 28.1112C89.9691 27.8756 90.4401 28.1333 90.8523 28.3468C91.0584 28.4499 91.2571 28.5824 91.4485 28.7076C92.7808 29.6132 94.113 30.5262 95.4526 31.4318C95.6808 31.5864 95.9237 31.7484 96.1813 31.8294C96.6156 31.9767 96.8732 31.7116 96.8143 31.2257C96.748 30.6808 96.4242 30.2832 96.0341 29.9445C95.3201 29.3261 95.5998 28.4646 95.5998 27.7431C95.5998 27.2719 96.3579 27.3676 96.7775 27.1982C97.911 27.7799 98.728 28.5824 98.8458 29.9372C98.8973 30.5262 99.2285 30.9238 99.6996 31.3066C100.333 31.822 101.083 32.3816 100.958 33.3461C100.87 33.9793 101.157 34.2886 101.628 34.5831C102.055 34.8481 102.57 35.0322 102.747 35.5844C103.107 36.6962 103.961 37.5135 104.815 38.1393C106.133 39.0891 107.502 39.9432 108.51 41.2537C109.224 42.1814 109.526 41.8722 110.166 41.2169C111.027 40.3481 111.071 40.3187 110.497 39.3762C110.173 38.8314 110.159 38.4633 110.659 38.0657C110.976 37.8154 111.049 37.4178 111.042 37.0496C111.042 36.6152 110.578 36.6446 110.313 36.5047C109.783 36.225 109.68 35.7317 109.585 35.2236C109.872 35.1426 110.085 34.988 110.004 34.6494C109.953 34.4579 109.842 34.4653 109.732 34.6199C108.451 33.8762 107.421 32.8897 106.721 31.5791C106.604 31.4981 106.486 31.4171 106.368 31.3361C106.309 31.13 106.236 30.9385 106 30.8796C105.949 30.6219 105.772 30.3127 106.037 30.1286C106.317 29.9372 106.567 30.1581 106.692 30.401C106.913 30.8575 107.207 31.1373 107.752 31.0269C108.01 31.8883 109.268 32.2417 108.988 33.3977C108.988 33.3977 109.224 33.4934 109.349 33.486C109.496 33.486 109.636 33.3461 109.577 33.2062C109.408 32.8013 109.489 32.389 109.467 31.9767C110.711 32.4332 111.152 33.6333 111.844 34.5757C113.258 36.49 114.45 38.5516 115.951 40.4217C117.269 42.071 118.218 44.0001 119.028 45.9733C119.05 46.3414 119.249 46.5844 119.565 46.739C119.816 46.7979 119.97 46.9525 120.029 47.2029C119.779 47.3722 119.558 47.6152 119.83 47.8655C120.073 48.079 120.191 47.7183 120.346 47.5857L120.39 47.6373C119.992 48.5797 119.757 49.5074 120.574 50.4277C120.839 49.8093 121.249 49.3651 121.803 49.0951L121.774 49.1613L121.796 49.0951C121.869 49.6547 121.906 50.251 121.671 50.737C121.376 51.3407 121.523 51.6058 122.112 51.7162C122.414 51.7751 122.576 52.1286 122.9 52.0991C123.128 51.5175 122.399 51.2892 122.37 50.8327C122.885 50.5824 123.533 51.1419 123.776 50.3836C124.806 51.1272 125.844 51.8708 126.874 52.6145C126.815 52.8354 126.72 53.1667 126.477 53.0415C126.116 52.8575 125.888 52.9385 125.608 53.1446C125.388 53.3066 125.086 53.395 125.159 53.7484C125.226 54.0576 125.468 54.1828 125.748 54.2564C126.992 54.5877 127.412 54.2564 127.566 52.8133C129.119 53.4833 130.621 54.3006 132.233 54.7718C133.786 55.2209 135.309 55.7657 136.921 56.0676C138.504 56.3621 140.072 56.7376 141.691 56.7597C142.236 56.7671 142.795 56.8186 142.817 57.496C142.832 57.9746 143.855 57.6654 143.421 58.4532C143.075 59.0717 142.824 59.749 142.11 59.9993C141.109 60.3528 140.307 61.0301 139.394 61.5308C137.834 62.3775 136.318 63.2168 134.551 63.5629C132.91 63.8869 131.298 64.3655 129.642 64.6158C128.862 64.4244 129.642 63.9016 129.421 63.5924C129.833 63.4304 130.481 63.5555 130.378 62.7824C130.319 62.51 130.253 62.2376 130.194 61.9652C130.194 61.8695 130.172 61.7738 130.194 61.6854C130.65 60.3233 130.437 60.0141 128.957 59.9184C128.582 59.8963 128.214 59.8595 127.912 59.6018L127.927 59.5649Z" fill="#72673C"/>
<path d="M78.0674 14.5049C78.141 15.0203 78.59 15.3221 78.7887 15.7639C77.9054 15.9799 77.4638 16.5517 77.4638 17.4794C77.4638 18.3114 77.3166 19.0624 76.4628 19.46C75.977 18.9078 76.345 18.2157 76.1536 17.5089C75.0128 17.8475 74.3135 18.7237 73.6879 19.5631C72.5618 21.0798 72.1717 22.869 72.1422 24.7391C72.1422 24.879 72.1348 25.0189 72.1054 25.1514C71.4209 28.0082 71.6785 30.8355 72.3409 33.6554C72.4587 34.1561 72.4734 34.6494 72.4513 35.1648C72.3851 36.9539 72.4072 38.7505 72.4145 40.5396C72.4145 40.9961 72.525 41.4599 72.1643 41.8428C72.098 41.725 72.0024 41.4968 71.9582 41.5041C71.3178 41.6587 70.9277 41.5041 70.6112 40.8562C70.3831 40.3997 69.7353 40.5469 69.279 40.9813C68.9993 41.2464 69.0876 41.806 68.5135 41.9312C68.4031 41.3201 68.7343 40.8857 68.8374 40.4071C69.1023 39.1112 69.6249 37.7859 68.6313 36.5563C68.4988 36.2618 68.4767 35.636 67.9836 36.041C67.0782 36.792 66.0036 37.4399 65.6577 38.6989C65.5693 38.721 65.4737 38.7431 65.3853 38.7725C64.9658 38.5811 64.9069 38.213 64.9658 37.8301C65.032 37.4178 65.1571 37.0055 65.2381 36.5932C65.3927 35.8348 65.7239 35.0838 65.3264 34.3107C64.3033 34.4211 63.9132 35.2605 63.4863 35.9968C63.0668 36.7183 62.8092 37.5282 62.3086 38.2203C61.8376 38.8756 61.4843 39.5751 61.3444 40.385C61.2487 40.9372 61.0132 41.4378 60.5348 41.7544C59.865 41.4599 60.4685 40.7531 60.0048 40.3702C59.3056 40.6868 58.9596 41.2685 58.9081 41.9974C58.8787 42.3729 58.7168 42.5938 58.4739 42.8294C58.1353 43.146 57.8041 43.4774 57.4802 43.816C57.2815 44.0222 57.0533 44.3093 57.3551 44.5302C57.9881 44.9867 57.6936 45.3548 57.252 45.5978C56.7221 45.8923 56.8472 46.5108 56.4865 46.8569C56.1479 45.8187 56.8987 44.8173 56.619 43.7792C57.4213 41.3053 57.4434 38.721 57.7452 36.1809C57.8556 35.2973 58.0102 34.4138 58.1353 33.5229C59.2835 33.0075 59.8723 31.9104 60.6378 31.0196C61.7493 29.7311 62.4264 28.0965 63.7587 26.97C63.8175 26.9259 63.8543 26.8007 63.8323 26.7271C63.5599 25.8288 64.2813 25.63 64.8259 25.306C65.4368 25.549 65.1277 26.1012 65.0467 26.3957C64.745 27.478 64.7155 28.5972 64.4432 29.6795C64.318 30.1876 64.2665 30.6588 64.951 30.725C65.7312 30.7987 65.7533 31.2625 65.562 31.8147C65.4074 32.2565 65.216 32.6835 65.2528 33.1695C65.2675 33.3535 65.3191 33.5671 65.5031 33.6407C65.6944 33.7217 65.8564 33.6039 65.9742 33.4419C66.0551 33.3241 66.1287 33.2063 66.2097 33.0959C66.9605 32.1092 66.9752 32.1018 67.8216 33.0075C68.0719 33.2725 68.3074 33.4861 68.6533 33.2504C68.9772 33.0296 69.4704 32.9191 69.36 32.3375C69.1833 31.4392 68.7638 30.5263 69.463 29.6427C69.5808 29.4881 69.3526 29.2967 69.3452 29.1273C69.279 28.1407 69.6323 27.1467 69.2422 26.1601C69.198 26.0349 69.4998 25.7994 69.6028 25.5932C70.1181 24.5992 70.729 23.6347 70.28 22.4199C70.0886 21.9045 70.3242 21.4995 70.8615 21.3228C71.2957 21.1829 71.3988 20.8295 71.4503 20.454C71.4871 20.1742 71.4724 19.8723 71.2074 19.6956C70.913 19.5042 70.6922 19.7251 70.4567 19.8723C70.199 20.0269 70.0371 20.4098 69.6323 20.2773C69.5292 19.3422 68.6828 19.0182 68.1676 18.4292C68.3074 17.8328 68.9331 17.5457 69.3084 17.4426C71.0087 16.964 72.4808 15.4841 74.4755 16.2057C74.7478 16.3014 75.1085 16.1688 75.4323 16.132C76.0653 16.0535 76.3622 15.6387 76.3229 14.8877C76.9044 14.7625 77.4785 14.63 78.06 14.5049H78.0674ZM76.3965 16.5075C76.1463 16.6032 76.1463 16.8462 76.1463 17.0671C76.1463 17.1113 76.3082 17.207 76.3597 17.1923C76.5732 17.1113 76.7793 16.9788 76.6983 16.699C76.6615 16.5738 76.5732 16.4707 76.3965 16.5075Z" fill="#72673C"/>
<path d="M76.4555 19.4598C77.3167 19.0622 77.4639 18.3112 77.4566 17.4792C77.4566 16.5515 77.8982 15.9796 78.7815 15.7637C79.0243 15.8373 79.1863 15.9846 79.2304 16.2423C79.4586 16.5294 79.6868 16.8166 79.753 17.1994C79.8046 17.4939 79.9738 17.7148 80.283 17.759C80.9381 17.8473 81.5931 17.9504 82.2482 17.9651C82.4764 17.9651 82.6898 17.8547 82.8002 18.1419C82.9033 18.4143 82.9401 18.6941 82.631 18.856C82.2261 19.0769 81.814 19.2684 81.4091 19.4745C81.3355 19.2757 81.284 19.0033 80.9896 19.1285C80.8129 19.2021 80.8571 19.423 80.8865 19.5923C80.5406 20.1298 80.7099 20.3875 81.3208 20.3507C81.4901 20.336 81.6962 20.2403 81.814 20.1151C82.4322 19.4083 83.1609 19.4083 83.9779 19.7028C84.3239 19.8279 84.6845 19.8795 85.0378 19.6144C85.5678 19.2168 85.7076 19.7616 86.002 20.0341C86.6498 20.6304 86.2744 19.0769 86.9221 19.5629C87.2901 19.8427 87.6729 20.1151 88.0482 20.3875C88.3427 20.601 88.5856 20.925 89.1155 20.7262C88.983 20.2476 89.4467 19.5997 88.431 19.423C87.8643 19.3199 87.7244 18.7456 88.1071 18.2007C89.3879 18.2523 90.4257 18.9444 91.515 19.4966C91.6917 19.8279 91.8683 20.1592 92.045 20.4979C91.4046 20.5789 91.066 20.9986 90.7569 21.5803C90.9777 21.5729 91.1249 21.5361 91.2427 21.5655C92.1995 21.8232 92.1996 21.8306 92.1333 20.9029C92.1259 20.7704 92.0744 20.6378 92.045 20.4979C92.332 20.4169 92.6559 20.4169 92.8031 20.0782C93.3846 19.9089 93.6348 20.5274 94.0985 20.6378C94.1427 20.8661 94.2163 21.087 94.231 21.3152C94.3341 22.7141 94.864 23.2663 96.1963 23.443C97.3445 23.5976 98.4706 23.6713 99.5453 23.097C100.09 23.4283 100.642 23.7523 101.187 24.0836C100.532 24.8419 100.406 25.4678 100.988 25.7844C101.599 26.1231 102.055 26.7931 102.835 26.8004C103.093 26.3366 102.622 25.836 103.034 25.4531C103.203 25.4531 103.314 25.5341 103.358 25.7034C103.498 26.2041 103.829 26.3882 104.33 26.3219C104.491 26.5207 104.587 26.7489 104.587 27.0066C104.933 28.3172 105.095 28.4203 105.986 27.8975C106.118 27.8828 106.214 27.9343 106.265 28.0595C106.324 28.5381 106.39 29.0093 107.075 28.8326C107.34 29.3038 107.958 29.4437 108.15 29.9885C108.069 30.3493 107.62 30.5628 107.767 31.0046C107.23 31.115 106.928 30.8353 106.707 30.3788C106.582 30.1284 106.332 29.9149 106.052 30.1064C105.787 30.2904 105.964 30.5996 106.015 30.8573C105.463 31.2844 105.205 30.7543 104.852 30.5039C104.514 30.2683 104.079 29.9002 103.748 30.3567C103.351 30.9162 103.108 30.7395 102.806 30.3493C102.578 30.0474 102.298 29.7971 101.959 29.6204C100.87 29.0314 100.09 28.111 99.3024 27.1833C98.6105 26.3734 97.9186 25.5341 96.9176 25.0408C96.476 24.8273 96.027 24.5548 95.6369 24.9745C95.232 25.4089 95.843 25.7034 95.9386 26.0789C95.9534 26.1231 95.9755 26.1673 95.9902 26.2114C95.5265 26.1893 94.9965 26.0126 94.6064 26.1673C93.4361 26.6458 92.6853 25.8948 91.8389 25.3868C91.3531 25.0997 90.8894 24.783 90.4036 24.4959C90.1239 24.3266 89.8442 24.1351 89.5351 24.0468C88.4016 23.7155 88.0924 23.8848 88.0041 25.0408C87.9452 25.7771 87.6729 26.1673 86.9589 26.2851C86.7381 26.3219 86.4952 26.3661 86.3701 26.7268C86.9147 27.9932 88.1734 28.7516 89.0125 29.8486C89.1155 30.3051 89.2186 30.7616 89.329 31.2181C89.2333 31.2402 89.145 31.2623 89.0493 31.2844C88.4825 31.4316 87.9378 31.4022 87.4962 30.9678C87.1503 30.6291 86.7528 30.6364 86.3333 30.7616C85.8843 30.8352 85.5899 31.012 85.5899 31.5494C85.5899 32.0943 85.3543 32.5213 84.7287 32.5729C84.0074 31.6083 83.6173 30.4818 83.1609 29.3922C82.9475 28.8841 82.6899 28.4056 82.4911 27.8975C82.3513 26.8226 81.9317 25.8433 81.4901 24.8788C81.2472 24.3413 80.8865 23.9143 80.1947 24.253C79.9444 24.3781 79.7678 24.3634 79.6132 24.1204C79.201 23.4651 78.8256 23.3694 78.4502 24.1719C78.1485 24.8125 77.7363 24.6506 77.3756 24.2162C77.2284 24.0468 77.1695 23.7965 76.9266 23.7081C76.7353 23.0528 76.5365 22.3902 76.8162 21.7054C77.4787 21.2489 77.0297 21.0796 76.6028 20.9029C76.5292 20.4317 76.2274 19.9826 76.4408 19.4745L76.4555 19.4598ZM99.7955 24.2898C99.7808 24.3708 99.7293 24.4812 99.7587 24.5327C99.7955 24.5843 99.9133 24.5696 100.002 24.5843C100.016 24.5033 100.068 24.3928 100.038 24.3413C100.002 24.2898 99.8839 24.3045 99.7955 24.2898ZM98.2498 24.1867C98.2278 24.2677 98.1762 24.3487 98.1909 24.4223C98.2057 24.4886 98.294 24.5401 98.3529 24.599C98.375 24.518 98.4265 24.437 98.4118 24.3634C98.397 24.2971 98.3087 24.2456 98.2498 24.1867Z" fill="#645A33"/>
<path d="M56.4939 46.8567C56.862 46.5107 56.7295 45.8922 57.2594 45.5977C57.7011 45.3547 57.9955 44.9866 57.3625 44.5301C57.0607 44.3092 57.2889 44.0221 57.4876 43.8159C57.8115 43.4772 58.1427 43.1459 58.4813 42.8293C58.7242 42.601 58.8861 42.3728 58.9155 41.9973C58.9671 41.2684 59.313 40.6867 60.0122 40.3701C60.4759 40.7529 59.8724 41.4598 60.5422 41.7543C61.0206 41.4377 61.2562 40.937 61.3518 40.3848C61.4917 39.5749 61.845 38.8755 62.3161 38.2202C62.8092 37.5281 63.0742 36.7182 63.4937 35.9966C63.9206 35.2604 64.3107 34.421 65.3338 34.3105C65.7313 35.091 65.4001 35.842 65.2455 36.593C65.1646 37.0053 65.0394 37.4103 64.9732 37.83C64.9143 38.2128 64.9732 38.5809 65.3927 38.7724C65.5252 39.2804 65.5252 39.7296 65.297 40.2597C64.8554 41.3052 64.2666 42.255 63.6557 43.19C63.2876 43.7496 63.1036 44.3754 62.8755 44.9866C62.8092 45.1559 62.846 45.3768 63.0447 45.4725C63.2435 45.5682 63.398 45.4504 63.5084 45.2811C63.8176 44.8172 64.1194 44.3534 64.3034 43.8085C64.5904 42.9765 65.1572 42.3507 66.0257 42.0046C65.5326 43.3005 64.5095 44.3092 64.193 45.6787C64.1046 46.0542 63.7293 46.3634 63.4717 46.6947C63.3907 46.8052 63.2655 46.8861 63.1551 46.9671C62.8754 47.1807 62.7062 47.4678 62.6914 47.8065C62.6178 49.441 62.0805 51.024 62.2424 52.6733C62.2719 52.9604 62.2424 53.2181 62.1468 53.4905C61.8082 54.433 61.9554 54.5876 62.949 54.757C63.3539 54.8306 63.6115 54.3741 63.9869 54.5803C64.1267 54.8453 64.0089 55.0514 63.8691 55.2355C63.1625 56.1779 62.7724 57.2971 62.1983 58.3132C61.9775 58.7108 61.6242 59.2188 61.9996 59.5943C62.4338 60.014 63.0595 59.8888 63.5821 59.6164C63.9574 59.4176 64.2519 59.1157 64.5095 58.7697C65.2087 57.8272 66.1656 57.1498 67.0194 56.362C68.0572 55.4049 69.4042 54.7201 69.8752 53.2329C69.9488 52.9972 70.2359 52.9604 70.4641 52.9089C70.6039 53.5126 70.2948 53.9986 70.0077 54.4698C68.8006 56.4504 67.3359 58.2984 65.5179 59.6753C64.0678 60.7723 62.5884 61.8841 60.9985 62.8118C60.3803 63.1726 59.6589 63.2094 58.9744 63.3493C58.2016 63.5113 57.4214 63.607 56.7736 64.1592C56.4203 64.4611 55.9272 64.5494 55.4488 64.4243C54.6391 64.2181 54.4919 63.7027 54.8894 62.9664C56.1701 60.5809 57.1638 58.1291 57.149 55.3312C57.1343 53.2402 56.8546 51.1713 56.7295 49.095C56.6853 48.3513 56.0523 47.6666 56.5013 46.8567H56.4939Z" fill="#867042"/>
<path d="M70.4568 52.9089C70.2286 52.9678 69.9342 53.0046 69.868 53.2328C69.3969 54.7201 68.0499 55.4048 67.0121 56.362C66.1583 57.1498 65.2088 57.8272 64.5022 58.7696C64.2446 59.1157 63.9502 59.4175 63.5748 59.6163C63.0522 59.8888 62.4192 60.0139 61.9923 59.5943C61.6096 59.2261 61.9628 58.7107 62.191 58.3132C62.7578 57.2971 63.1553 56.1779 63.8619 55.2355C64.0017 55.0514 64.1195 54.8379 63.9796 54.5802C63.6042 54.3814 63.3466 54.8306 62.9418 54.7569C61.9555 54.5876 61.8009 54.4256 62.1395 53.4905C62.2426 53.2181 62.2646 52.9604 62.2352 52.6733C62.0806 51.024 62.6106 49.4336 62.6842 47.8065C62.6989 47.4752 62.8682 47.1806 63.1479 46.9671C63.2583 46.8861 63.3834 46.7978 63.4644 46.6947C63.722 46.3634 64.0974 46.0541 64.1857 45.6786C64.5096 44.3092 65.5253 43.3005 66.0185 42.0046C65.1499 42.3507 64.5832 42.9765 64.2961 43.8085C64.1047 44.3533 63.8103 44.8172 63.5012 45.2811C63.3908 45.443 63.2362 45.5608 63.0375 45.4725C62.8388 45.3768 62.8019 45.1559 62.8682 44.9865C63.0964 44.3754 63.2877 43.7496 63.6484 43.19C64.2593 42.2549 64.8482 41.2978 65.2898 40.2596C65.5106 39.7369 65.518 39.2804 65.3855 38.7724C65.4738 38.7429 65.5621 38.7208 65.6578 38.6987C65.7903 38.6693 65.9375 38.5956 66.0626 38.6251C67.0195 38.8533 67.5273 38.4484 67.7555 37.5354C67.8659 37.0789 68.1235 36.696 68.6314 36.5562C69.6251 37.7857 69.1025 39.1184 68.8375 40.4069C68.7418 40.8855 68.4033 41.3199 68.5137 41.931C69.0878 41.8058 68.9994 41.2462 69.2791 40.9812C69.7281 40.5541 70.3832 40.3995 70.6114 40.856C70.9352 41.5039 71.3253 41.6586 71.9583 41.504C71.9951 41.4966 72.0908 41.7248 72.1644 41.8426C72.2896 42.7482 71.8479 47.6886 71.6124 48.5206C71.4578 49.0508 71.3769 49.603 71.2959 50.1478C71.1561 51.105 70.8837 52.0253 70.4642 52.8941L70.4568 52.9089Z" fill="#916D4D"/>
<path d="M76.9339 23.6937C77.1768 23.782 77.2357 24.0324 77.3829 24.2017C77.7436 24.6361 78.1558 24.7981 78.4576 24.1575C78.8329 23.355 79.2083 23.4507 79.6205 24.106C79.7751 24.3563 79.9517 24.3637 80.202 24.2385C80.8939 23.8998 81.2545 24.3342 81.4974 24.8643C81.939 25.8362 82.3586 26.8155 82.4985 27.8831C82.1525 28.3249 81.7992 29.5913 81.9096 30.2834C81.9979 30.8356 82.0347 31.2994 81.4606 31.6087C81.0926 31.8075 81.1515 32.1682 81.2545 32.4775C81.5122 33.2211 81.7771 33.9795 82.2482 34.6053C82.9474 35.533 83.6393 36.4681 84.1546 37.5136C84.4637 38.1468 85.0746 38.4486 85.5898 38.8094C86.2523 39.2733 86.7969 39.8181 87.3195 40.4292C88.4972 41.7987 89.6896 43.1535 90.9041 44.4935C91.3383 44.9794 91.8389 45.4064 92.4351 45.7083C93.3846 46.1869 93.9219 46.9379 94.0764 47.9982C94.2457 49.1689 94.6211 50.2585 95.3498 51.2231C95.5191 51.444 95.6442 51.6943 95.8945 51.8489C96.8366 52.4453 97.4033 53.3362 97.845 54.3301C97.4475 54.2786 96.9838 54.4479 96.7041 54.0209C95.9607 52.887 94.6873 52.4526 93.6201 51.7973C91.8536 50.715 90.2637 49.4781 88.8284 47.9761C87.7612 46.8643 86.4584 45.9734 85.5162 44.7365C84.8832 43.9118 84.0368 43.2271 83.7203 42.1816C83.5215 41.5189 82.8517 41.2612 82.4837 40.7164C81.7403 39.612 81.0631 38.456 80.2461 37.3884C79.6426 36.6006 79.3776 35.5551 78.9433 34.6347C78.3987 33.4788 78.0527 32.2345 77.6185 31.0343C77.589 30.946 77.4786 30.8724 77.486 30.7987C77.5596 28.5752 76.4849 26.4694 76.772 24.2238C76.7941 24.0397 76.8898 23.8704 76.9487 23.6937H76.9339Z" fill="#72673C"/>
<path d="M68.1748 18.4365C68.69 19.0255 69.5365 19.3495 69.6395 20.2846C70.0444 20.4171 70.2063 20.0343 70.4639 19.8796C70.7068 19.7324 70.9276 19.5115 71.2146 19.7029C71.4796 19.8796 71.4944 20.1815 71.4576 20.4613C71.406 20.8441 71.303 21.1902 70.8687 21.3301C70.3314 21.5068 70.0959 21.9117 70.2872 22.4271C70.7362 23.642 70.1253 24.6065 69.6101 25.6005C69.507 25.8066 69.1979 26.0423 69.2494 26.1674C69.6395 27.154 69.2789 28.148 69.3525 29.1346C69.3672 29.2966 69.588 29.4954 69.4702 29.65C68.7783 30.5335 69.1905 31.4392 69.3672 32.3448C69.4849 32.9265 68.9844 33.0369 68.6606 33.2578C68.3146 33.4934 68.0791 33.2798 67.8288 33.0148C66.975 32.1092 66.9677 32.1239 66.2169 33.1031C66.1286 33.2136 66.0623 33.3388 65.9814 33.4492C65.8636 33.6112 65.7017 33.729 65.5103 33.648C65.3263 33.567 65.2748 33.3609 65.2601 33.1768C65.2232 32.6982 65.422 32.2638 65.5692 31.822C65.7606 31.2698 65.7385 30.806 64.9583 30.7323C64.2811 30.6661 64.3253 30.1949 64.4504 29.6868C64.7227 28.6045 64.7522 27.4854 65.054 26.403C65.1349 26.1012 65.4441 25.5563 64.8332 25.3134C65.1349 24.2752 66.3641 23.7893 66.4598 22.6407C66.342 22.4934 66.2095 22.4861 66.0844 22.5523C65.8783 22.6628 65.6649 22.8395 65.4735 22.5965C65.3116 22.3903 65.3925 22.1694 65.5692 21.9706C65.9667 21.5215 66.0844 20.8662 66.6512 20.5423C67.0045 20.638 67.3063 20.719 67.6301 20.3582C68.1306 19.7986 67.8877 19.2833 67.7037 18.7384C67.8657 18.6353 68.0202 18.5396 68.1821 18.4365H68.1748Z" fill="#645A33"/>
<path d="M105.868 56.5685C106.155 56.62 106.442 56.7452 106.744 56.6569C106.854 56.7305 106.972 56.7968 107.082 56.8704C107.104 56.9587 107.126 57.0471 107.148 57.1428C107.237 57.5036 107.465 57.6435 107.826 57.5625C108.289 57.4152 108.628 57.7907 109.04 57.857C109.173 58.1957 109.312 58.527 109.651 58.0042C109.806 57.6435 110.115 57.5846 110.453 57.5846C110.681 57.5846 110.961 57.7098 111.138 57.6214C112.882 56.679 114.038 57.9233 115.311 58.7258C115.274 59.2191 114.744 59.4326 114.671 59.9407C114.597 60.456 114.214 60.5076 113.913 60.0805C113.589 59.6314 113.236 59.5799 112.706 59.7934C113.228 60.5002 113.633 61.126 114.597 61.0819C114.951 61.0671 115.135 61.5384 114.641 61.7224C114.185 61.8918 114.089 62.3335 113.78 62.5986C112.934 62.7311 112.205 62.2526 111.55 61.9286C109.57 60.9346 107.413 60.3456 105.507 59.116C104.256 58.3061 102.946 57.5036 101.577 56.8262C100.517 56.3035 99.2433 55.8543 98.5146 54.7352C98.6177 54.4775 98.7576 54.0946 99.052 54.264C99.685 54.6174 100.517 54.3229 101.061 54.9782C101.231 55.1843 101.672 55.2874 101.952 55.0371C102.408 54.6321 102.924 54.934 103.402 54.8383C103.52 54.9119 103.63 54.9855 103.748 55.0591C103.866 55.869 104.447 55.9353 105.095 55.8911C105.205 55.9574 105.316 56.031 105.426 56.0973L105.448 56.112C105.492 56.3403 105.595 56.5243 105.846 56.5832L105.868 56.5685ZM107.877 58.3429C107.848 58.4166 107.796 58.4976 107.804 58.5712C107.818 58.6448 107.899 58.6964 107.951 58.7626C107.98 58.689 108.039 58.608 108.024 58.5344C108.01 58.4608 107.929 58.4092 107.877 58.3429Z" fill="#72673C"/>
<path d="M113.795 62.5909C114.104 62.3258 114.2 61.884 114.656 61.7147C115.149 61.5306 114.965 61.0594 114.612 61.0741C113.655 61.111 113.25 60.4925 112.72 59.7857C113.25 59.5795 113.603 59.6236 113.927 60.0728C114.229 60.4924 114.612 60.4483 114.685 59.9329C114.759 59.4248 115.289 59.2114 115.326 58.718C117.092 58.2468 118.874 58.0554 120.692 58.3573C120.986 58.4088 121.222 58.5192 121.398 58.7549C120.75 58.799 120.066 58.9831 119.462 58.8506C118.483 58.6297 118.012 59.285 117.453 59.793C117.026 60.1758 117.107 60.7502 117.549 61.1404C117.799 61.3613 118.115 61.4128 118.439 61.4938C119.116 61.6558 119.948 61.7368 120.382 62.1712C120.831 62.6203 121.192 62.6718 121.567 62.4289C122.23 62.0092 122.804 62.1049 123.385 62.4878C123.768 62.7381 124.18 62.6792 124.593 62.7087C125.557 62.7749 126.558 62.716 127.323 63.5185C127.574 63.7836 127.942 63.9603 128.332 63.6511C128.67 63.386 129.068 63.6806 129.421 63.5554C129.635 63.8646 128.862 64.3947 129.642 64.5788C129.377 64.6524 129.105 64.8144 128.84 64.7923C126.558 64.6156 124.276 64.9543 122.002 64.7408C121.288 64.6745 120.574 64.461 119.852 64.3579C118.69 64.1959 117.541 63.9382 116.378 63.7689C115.392 63.6216 114.516 63.283 113.78 62.5909H113.795Z" fill="#867042"/>
<path d="M66.6439 20.5424C66.0772 20.8664 65.9594 21.5217 65.5619 21.9708C65.3853 22.1696 65.3117 22.3905 65.4663 22.5967C65.6576 22.8396 65.8784 22.6629 66.0772 22.5525C66.2023 22.4862 66.3348 22.4862 66.4525 22.6408C66.3569 23.7894 65.135 24.2754 64.8259 25.3135C64.2812 25.6375 63.5599 25.8363 63.8322 26.7345C63.8543 26.8008 63.8101 26.926 63.7586 26.9775C62.4264 28.104 61.7492 29.7385 60.6378 31.027C59.8723 31.9179 59.2835 33.0149 58.1353 33.5303C58.5474 31.0344 59.5484 28.774 60.9248 26.6756C62.419 24.4005 64.0678 22.2432 65.9962 20.3142C66.2906 20.0197 66.5556 19.6736 67.0193 19.6221C66.8942 19.9313 66.7691 20.2406 66.6439 20.5572V20.5424Z" fill="#916D4D"/>
<path d="M88.1145 18.1861C87.7317 18.7309 87.8716 19.3052 88.4384 19.4083C89.4541 19.5923 88.9904 20.2403 89.1229 20.7115C88.5929 20.9176 88.3427 20.5863 88.0556 20.3728C87.6802 20.1004 87.3049 19.8279 86.9295 19.5482C86.2817 19.0622 86.6571 20.6084 86.0094 20.0194C85.715 19.747 85.5751 19.2021 85.0452 19.5997C84.6919 19.8648 84.3312 19.8132 83.9853 19.688C83.1683 19.3935 82.447 19.3935 81.8213 20.1004C81.7109 20.2255 81.5048 20.3212 81.3282 20.336C80.7099 20.3801 80.548 20.1151 80.8939 19.5776C81.0705 19.5408 81.2399 19.4966 81.4165 19.4598C81.8213 19.2536 82.2409 19.0548 82.6383 18.8413C82.9475 18.672 82.918 18.3996 82.8076 18.1271C82.6972 17.84 82.4838 17.9578 82.2556 17.9504C81.6005 17.9357 80.9381 17.8326 80.2904 17.7443C79.9812 17.7001 79.8119 17.4792 79.7604 17.1847C79.6942 16.8018 79.466 16.522 79.2378 16.2275C79.9738 16.2496 80.6731 16.3233 81.284 16.846C81.5416 17.0669 81.9759 17.2436 82.2997 17.2068C83.6835 17.0669 84.9937 17.3172 86.3038 17.7075C86.4731 17.759 86.6939 17.7443 86.8485 17.6707C87.4668 17.3761 87.798 17.7443 88.1145 18.1787V18.1861Z" fill="#72673C"/>
<path d="M99.5527 23.09C98.4854 23.657 97.3593 23.5907 96.2037 23.4361C94.8788 23.252 94.3415 22.6998 94.2384 21.3083C94.2237 21.08 94.1501 20.8517 94.106 20.6309C95.9755 21.1757 97.6905 22.0813 99.4644 22.8471C99.5159 22.8691 99.5232 23.0164 99.5527 23.0974V23.09Z" fill="#72673C"/>
<path d="M103.041 25.4461C102.629 25.829 103.108 26.337 102.843 26.7935C102.063 26.7788 101.606 26.1088 100.995 25.7775C100.414 25.4535 100.539 24.835 101.194 24.0767C101.687 24.6951 102.593 24.7688 103.041 25.4535V25.4461Z" fill="#72673C"/>
<path d="M123.805 50.3466C123.562 51.105 122.915 50.5454 122.4 50.7957C122.422 51.2522 123.158 51.4804 122.929 52.0621C122.598 52.0989 122.444 51.7381 122.142 51.6792C121.56 51.5688 121.406 51.3037 121.7 50.7C121.936 50.214 121.899 49.6177 121.825 49.0581C122.635 49.2569 123.025 50.111 123.813 50.3392L123.805 50.3466Z" fill="#867042"/>
<path d="M127.589 52.7837C127.434 54.2194 127.014 54.5581 125.771 54.2267C125.491 54.1531 125.248 54.0206 125.182 53.7187C125.108 53.3579 125.41 53.277 125.631 53.115C125.91 52.9088 126.139 52.8278 126.499 53.0119C126.742 53.1371 126.838 52.8057 126.897 52.5849C127.154 52.548 127.397 52.5849 127.589 52.791V52.7837Z" fill="#867042"/>
<path d="M121.832 49.0658C121.278 49.3357 120.868 49.78 120.603 50.3984C119.786 49.4781 120.022 48.5503 120.419 47.6079C121.214 47.7773 121.45 48.4915 121.832 49.0658Z" fill="#867042"/>
<path d="M109.489 31.9543C109.518 32.3667 109.43 32.779 109.599 33.184C109.658 33.3165 109.518 33.4564 109.371 33.4637C109.246 33.4637 109.01 33.3754 109.01 33.3754C109.29 32.2194 108.039 31.8734 107.774 31.0046C108.105 30.9309 108.436 30.8573 108.775 30.7837C109.194 31.0635 109.585 31.3653 109.496 31.9543H109.489Z" fill="#645A33"/>
<path d="M66.644 20.5422C66.7692 20.2329 66.8943 19.9237 67.0194 19.6071C67.1961 19.2758 67.174 18.7972 67.6966 18.731C67.8806 19.2758 68.1235 19.7986 67.623 20.3508C67.2991 20.7115 66.9973 20.6306 66.644 20.5348V20.5422Z" fill="#72673C"/>
<path d="M105.993 27.8979C105.102 28.4133 104.94 28.3102 104.594 27.007C105.404 26.7714 105.676 27.3678 105.993 27.8979Z" fill="#7D6D3F"/>
<path d="M92.8105 20.0636C92.6707 20.4023 92.3395 20.4097 92.0524 20.4833C91.8758 20.152 91.6991 19.8206 91.5225 19.4819C91.9862 19.5924 92.4793 19.6366 92.8105 20.0563V20.0636Z" fill="#72673C"/>
<path d="M108.768 30.784C108.437 30.8576 108.105 30.9312 107.767 31.0048C107.62 30.5631 108.068 30.3422 108.149 29.9888C108.503 30.1434 108.584 30.5042 108.768 30.784Z" fill="#72673C"/>
<path d="M76.6172 20.8882C77.0367 21.0649 77.4857 21.2342 76.8307 21.6907C76.6393 21.4551 76.3669 21.2416 76.6172 20.8882Z" fill="#72673C"/>
<path d="M104.337 26.3148C103.844 26.381 103.505 26.1896 103.365 25.6963C103.726 25.8509 104.168 25.873 104.337 26.3148Z" fill="#867042"/>
<path d="M120.375 47.5635C120.213 47.6887 120.096 48.0569 119.86 47.8433C119.588 47.593 119.809 47.35 120.059 47.1807C120.162 47.3058 120.272 47.4384 120.375 47.5635Z" fill="#867042"/>
<path d="M119.588 46.7169C119.271 46.5623 119.072 46.3193 119.05 45.9512C119.47 46.0395 119.47 46.4224 119.588 46.7169Z" fill="#867042"/>
<path d="M107.082 28.8327C106.398 29.0094 106.331 28.5381 106.272 28.0596C106.663 28.1921 106.832 28.5529 107.082 28.8327Z" fill="#72673C"/>
<path d="M129.428 63.5481C129.075 63.6659 128.678 63.3714 128.339 63.6438C127.949 63.953 127.581 63.7763 127.331 63.5113C126.565 62.7087 125.557 62.7676 124.6 62.7014C124.18 62.6719 123.776 62.7308 123.393 62.4805C122.811 62.0976 122.23 62.0019 121.575 62.4216C121.192 62.6645 120.831 62.613 120.39 62.1639C119.948 61.7221 119.124 61.6411 118.447 61.4865C118.123 61.4055 117.806 61.354 117.556 61.1331C117.114 60.7502 117.034 60.176 117.46 59.7857C118.012 59.2777 118.484 58.6224 119.47 58.8433C120.081 58.9758 120.758 58.7917 121.406 58.7476C121.7 58.777 121.994 58.8065 122.289 58.8359C122.62 59.5795 123.238 59.4396 123.849 59.3366C124.416 59.6532 125.064 59.1231 125.623 59.5059C125.741 60.2128 125.903 60.8459 126.764 61.0374C127.92 61.2951 129.068 61.619 130.216 61.9135C130.275 62.186 130.341 62.4584 130.4 62.7308C129.988 62.8855 129.355 62.7824 129.443 63.5334L129.428 63.5481Z" fill="#916D4D"/>
<path d="M84.7358 32.5657C85.3615 32.5141 85.597 32.0797 85.597 31.5422C85.597 31.0047 85.8914 30.828 86.3404 30.7544C86.3478 30.7986 86.3772 30.8501 86.3699 30.8943C85.9062 32.9927 87.3194 34.3327 88.3204 35.8715C89.2036 37.2263 90.5285 38.2497 91.1762 39.7738C91.2278 39.9063 91.3014 40.0241 91.1468 40.245C90.4108 40.002 89.8882 39.4498 89.3803 38.8829C88.7178 38.154 88.2247 37.3146 87.7021 36.49C87.2016 35.7096 86.6937 34.9586 85.8326 34.4579C85.1701 34.075 85.0156 33.2578 84.7506 32.5657H84.7358Z" fill="#6F653A"/>
<path d="M130.201 61.9282C129.053 61.6337 127.912 61.3098 126.749 61.0521C125.888 60.8606 125.726 60.2201 125.608 59.5206C126.381 59.4396 127.147 59.7783 127.927 59.5648C128.229 59.8225 128.597 59.8519 128.972 59.8814C130.452 59.9844 130.665 60.2863 130.209 61.6484C130.179 61.7294 130.209 61.8325 130.209 61.9282H130.201Z" fill="#867042"/>
<path d="M89.0566 31.2847C89.1523 31.2626 89.2407 31.2405 89.3363 31.2184C90.2932 31.1816 90.3447 31.2184 90.7496 32.3375C90.1092 32.1093 89.5424 31.7632 89.064 31.2847H89.0566Z" fill="#6F653A"/>
<path d="M123.835 59.3512C123.224 59.4543 122.613 59.5869 122.274 58.8506C122.826 58.9169 123.489 58.6444 123.835 59.3512Z" fill="#867042"/>
<path d="M107.833 57.5547C107.472 57.6357 107.244 57.4885 107.156 57.1351C107.516 57.0541 107.745 57.194 107.833 57.5547Z" fill="#867042"/>
<path d="M109.666 57.9968C109.327 58.5196 109.187 58.1883 109.055 57.8496C109.261 57.9011 109.467 57.9453 109.666 57.9968Z" fill="#867042"/>
<path d="M105.868 56.5684C105.617 56.5094 105.514 56.3254 105.47 56.0972C105.728 56.1487 105.809 56.3475 105.868 56.5684Z" fill="#867042"/>
<path d="M107.09 56.8701C106.979 56.7965 106.861 56.7302 106.751 56.6566C106.883 56.7008 107.229 56.3915 107.09 56.8701Z" fill="#867042"/>
<path d="M95.9973 26.2117C95.9826 26.1675 95.9605 26.1234 95.9458 26.0792C95.8501 25.7037 95.2392 25.4092 95.644 24.9748C96.0341 24.5551 96.4831 24.8202 96.9247 25.041C97.9257 25.5344 98.6176 26.3737 99.3095 27.1836C100.104 28.1113 100.877 29.0316 101.967 29.6207C102.298 29.8047 102.578 30.0477 102.813 30.3496C103.115 30.7472 103.358 30.9165 103.755 30.3569C104.086 29.8931 104.521 30.2612 104.859 30.5042C105.213 30.7545 105.47 31.2773 106.022 30.8576C106.258 30.9165 106.339 31.1079 106.398 31.3141C106.515 31.3951 106.633 31.4761 106.751 31.5571C107.458 32.8676 108.481 33.8616 109.761 34.5979C109.71 34.7967 109.666 35.0029 109.614 35.2017C109.71 35.7097 109.813 36.203 110.343 36.4828C110.608 36.6227 111.064 36.5932 111.071 37.0276C111.071 37.3957 111.005 37.8007 110.689 38.0437C110.181 38.4413 110.196 38.8094 110.527 39.3543C111.094 40.2967 111.057 40.3261 110.196 41.195C109.548 41.8502 109.253 42.1595 108.539 41.2318C107.531 39.9212 106.162 39.0744 104.845 38.1173C103.983 37.4988 103.137 36.6816 102.776 35.5624C102.6 35.0102 102.084 34.8262 101.657 34.5611C101.186 34.2666 100.907 33.9574 100.988 33.3242C101.12 32.3523 100.362 31.8 99.729 31.2847C99.258 30.9018 98.9268 30.5042 98.8752 29.9152C98.7575 28.5604 97.9404 27.7505 96.8069 27.1762C96.7112 26.7197 96.5493 26.3074 96.012 26.2117H95.9973Z" fill="#867042"/>
<path d="M95.9975 26.2114C96.5348 26.3071 96.6894 26.7194 96.7924 27.1759C96.3729 27.3453 95.6147 27.2495 95.6147 27.7208C95.6147 28.4423 95.335 29.3038 96.049 29.9223C96.4391 30.261 96.763 30.6585 96.8292 31.2034C96.8881 31.6893 96.6305 31.947 96.1962 31.8071C95.9386 31.7188 95.6957 31.5641 95.4676 31.4095C94.128 30.5039 92.7957 29.5909 91.4635 28.6853C91.2721 28.5528 91.0734 28.4276 90.8673 28.3245C90.4477 28.111 89.984 27.8607 89.5497 28.0889C89.0492 28.354 89.4172 28.8399 89.4467 29.2228C89.4688 29.5615 89.3142 29.7455 89.0272 29.8486C88.1881 28.7516 86.9294 27.9932 86.3848 26.7268C86.5099 26.366 86.7528 26.3219 86.9736 26.2851C87.6949 26.1746 87.9673 25.7844 88.0188 25.0408C88.1071 23.8848 88.4162 23.7228 89.5497 24.0468C89.8589 24.1351 90.1386 24.3339 90.4183 24.4959C90.9041 24.783 91.3678 25.0996 91.8536 25.3868C92.7 25.8948 93.4508 26.6384 94.6211 26.1672C95.0112 26.0052 95.5411 26.182 96.0049 26.2114H95.9975Z" fill="#6F653A"/>
<path d="M129.429 63.5482C129.34 62.7972 129.973 62.9002 130.386 62.7456C130.489 63.5113 129.841 63.3935 129.429 63.5482Z" fill="#867042"/>
<path d="M109.607 35.2016C109.658 35.0028 109.703 34.7966 109.754 34.5979C109.865 34.4432 109.982 34.4285 110.026 34.6273C110.115 34.966 109.901 35.1206 109.607 35.2016Z" fill="#7D6D3F"/>
<path d="M68.624 36.5639C68.1235 36.6964 67.8659 37.0867 67.7481 37.5432C67.5199 38.4635 67.0047 38.8611 66.0552 38.6328C65.9301 38.6034 65.7902 38.677 65.6504 38.7065C65.9963 37.4475 67.0636 36.7995 67.9763 36.0485C68.4694 35.6435 68.4915 36.2768 68.624 36.5639Z" fill="#867042"/>
<path d="M76.3967 16.5076C76.5734 16.4707 76.6617 16.5738 76.6985 16.699C76.7795 16.9861 76.5734 17.1113 76.3599 17.1923C76.3084 17.2144 76.1465 17.1113 76.1465 17.0671C76.1465 16.8463 76.1465 16.6033 76.3967 16.5076Z" fill="white"/>
<path d="M92.0596 20.4834C92.089 20.6159 92.1405 20.7484 92.1479 20.8883C92.2141 21.8087 92.2141 21.8087 91.2573 21.551C91.1321 21.5215 90.9923 21.551 90.7715 21.5657C91.0806 20.984 91.4192 20.5644 92.0596 20.4834Z" fill="#72673C"/>
<path d="M81.4164 19.4671C81.2398 19.504 81.0705 19.5481 80.8938 19.5849C80.857 19.4156 80.8202 19.1947 80.9969 19.1211C81.2913 18.9959 81.3428 19.2683 81.4164 19.4671Z" fill="#916D4D"/>
<path d="M99.7953 24.29C99.8763 24.3048 100.001 24.29 100.038 24.3416C100.075 24.3931 100.016 24.5036 100.001 24.5846C99.9204 24.5698 99.7953 24.5846 99.7585 24.533C99.7217 24.4815 99.7806 24.371 99.7953 24.29Z" fill="#6F653A"/>
<path d="M98.25 24.187C98.3089 24.2459 98.3898 24.2974 98.4119 24.3637C98.4266 24.43 98.3751 24.5183 98.353 24.5993C98.2941 24.5404 98.2132 24.4889 98.1911 24.4226C98.1764 24.3564 98.2279 24.268 98.25 24.187Z" fill="#72673C"/>
<path d="M107.877 58.3428C107.929 58.409 108.01 58.4606 108.024 58.5342C108.039 58.6005 107.98 58.6815 107.951 58.7625C107.899 58.6962 107.818 58.6446 107.804 58.571C107.789 58.5048 107.848 58.4238 107.877 58.3428Z" fill="#867042"/>
</svg>
