<svg width="100" height="148" viewBox="0 0 100 148" fill="none" xmlns="http://www.w3.org/2000/svg">
<path d="M13.3387 123.95C13.6552 123.832 13.9644 123.818 14.2809 123.891C14.6195 123.965 14.9433 124.024 15.2966 124.038C15.8487 124.061 16.3712 124.473 16.5037 124.988C16.7613 126.012 17.5195 126.461 18.3438 126.77C19.3228 127.138 20.3532 127.44 21.4426 127.337C21.5972 127.322 21.7738 127.315 21.9137 127.374C23.6875 128.081 25.5865 127.874 27.4266 128.103C27.802 128.154 28.1848 128.125 28.5749 128.213C29.5096 128.427 30.4665 128.522 31.4307 128.486C31.6662 128.611 31.8208 128.544 31.9018 128.294C32.314 128.478 32.7188 128.662 33.131 128.846C33.1089 128.979 32.9838 129.141 33.1825 129.222C33.3003 129.273 33.3886 129.17 33.4401 129.052C33.7787 128.868 34.1099 128.92 34.4706 129.016C34.7797 129.097 35.1109 129.148 35.3391 128.809C36.2592 129.266 37.2749 129.435 38.2318 129.767C39.5493 130.23 40.9183 130.591 42.1696 131.254C42.5303 131.445 42.7069 131.799 43.016 132.02C43.2074 132.16 43.4209 132.358 43.7006 132.182C43.4356 131.806 44.179 131.578 43.8625 131.202C43.5313 130.812 43.178 130.444 42.8394 130.061C43.1265 129.686 42.7805 129.354 42.6922 128.927C43.8478 128.868 44.8635 129.119 45.8498 129.516C45.5996 129.722 45.342 129.907 45.0475 130.046C44.5986 130.275 44.5618 130.591 44.9887 130.797C45.71 131.151 46.4019 131.593 47.2115 131.718C48.507 131.909 49.795 132.167 51.0831 132.417C52.0768 132.609 53.0263 133.102 53.8801 133.691C54.4174 134.066 54.9915 134.287 55.6171 134.479C56.5961 134.781 57.6486 134.943 58.5466 135.37C59.2753 135.708 60.0555 136.091 60.6664 136.783C61.2111 137.394 62.1238 137.682 62.8672 138.116C63.191 138.307 63.64 138.307 63.7872 138.749C63.6768 138.808 63.5664 138.874 63.4413 138.911C63.353 138.933 63.2499 138.911 63.1542 138.896C62.9113 138.845 62.639 138.896 62.5507 139.095C62.2415 139.824 61.2111 139.751 60.8725 140.56C61.5423 140.656 62.2121 140.001 62.7421 140.87C62.2489 140.973 61.7999 141.083 61.4834 141.459C61.3509 141.613 61.1007 141.724 60.8872 141.746C60.0113 141.842 59.7022 142.313 59.8641 143.145C59.5108 143.211 59.1869 143.02 58.8189 142.946C58.9146 143.277 59.5108 143.226 59.3195 143.587C59.1207 143.947 58.7527 143.697 58.4656 143.572C57.9946 143.366 57.5161 143.167 57.0598 142.931C54.9694 141.849 52.7098 141.172 50.5679 140.214C50.0674 139.986 49.4933 139.913 48.8529 139.743C48.9412 140.251 49.2136 140.443 49.5448 140.583C50.9727 141.157 52.3049 141.937 53.8138 142.364C54.6308 142.6 55.4111 142.983 56.0956 143.668C56.9347 144.514 58.0682 145.096 59.3268 145.243C59.5476 145.354 59.6212 145.523 59.5255 145.751C58.8263 145.876 58.1639 145.435 57.4573 145.604C56.9567 144.941 56.125 145.147 55.4699 144.89C53.9022 144.271 52.2166 143.969 50.6562 143.292C50.4133 143.189 50.4207 142.894 50.0968 142.894C49.427 142.894 48.8529 142.651 48.2714 142.239C47.3514 141.591 46.2326 141.223 45.3199 140.568C44.8488 140.229 44.2673 140.266 43.8257 139.832C43.4209 139.434 42.7879 139.235 42.2874 138.941C41.4998 138.477 40.6239 138.145 39.9099 137.556C39.6155 137.313 39.2549 137.129 38.9457 136.967C38.0551 136.496 37.216 135.966 36.5094 135.274C35.5967 134.376 34.5442 133.662 33.6388 132.771C33.3371 132.476 32.7998 132.454 32.6967 131.931C32.1447 131.931 31.6 131.917 31.3866 131.261C30.6947 131.342 30.2751 130.746 29.7231 130.503C28.7294 130.069 27.7211 129.619 26.7053 129.318C25.6454 129.008 24.5781 128.574 23.4373 128.559C23.3122 128.559 23.1576 128.574 23.0693 128.508C22.3038 127.941 21.3616 128.228 20.5225 127.97C19.7644 127.735 18.8885 127.735 18.0715 127.985C17.9022 128.036 17.652 128.036 17.5121 127.948C16.8717 127.528 16.2093 127.838 15.5616 127.845C15.3776 127.845 15.1936 127.911 15.0022 127.926C12.8382 128.117 10.6816 128.338 8.5103 128.508C7.59024 128.581 6.77323 129.008 5.88261 129.185C5.7354 129.214 5.53667 129.413 5.37474 129.546C4.93311 129.929 4.40315 130.201 3.89528 130.503C3.74807 130.591 3.58614 130.532 3.43157 130.466C3.19604 130.363 2.9605 130.238 2.71761 130.179C2.33486 130.091 2.18766 129.87 2.17294 129.502C2.15822 129.178 2.14349 128.913 2.48943 128.677C3.10035 128.272 3.77015 127.963 4.32955 127.447C4.78589 127.028 5.45569 126.814 5.8458 126.35C6.25062 125.886 6.77321 125.614 7.25164 125.356C8.01713 124.929 8.76054 124.458 9.51131 124.009C9.80572 123.832 10.0707 123.56 10.4608 123.633C11.3661 124.311 12.3451 124.333 13.3608 123.957L13.3387 123.95ZM10.976 126.387C10.976 126.387 10.9319 126.593 10.976 126.63C11.2999 126.888 11.6017 126.682 12.0433 126.564C11.6238 126.343 11.3146 126.255 10.976 126.387ZM58.2375 140.627C58.3331 140.627 58.3994 140.56 58.392 140.457C58.3847 140.354 58.2963 140.31 58.2006 140.295C58.105 140.281 58.024 140.303 58.0019 140.413C58.0166 140.553 58.1123 140.619 58.2375 140.627ZM59.3268 140.803C59.3268 140.745 59.3489 140.664 59.3268 140.634C59.2974 140.605 59.2164 140.627 59.1575 140.627C59.1575 140.686 59.1575 140.745 59.1575 140.803C59.2164 140.803 59.2753 140.803 59.3342 140.803H59.3268Z" fill="#786A3D"/>
<path d="M66.1797 56.3378C65.2596 58.1932 65.1934 60.1297 65.7012 62.0955C66.0325 63.3766 67.7695 64.4074 69.1386 64.0835C70.964 63.6564 72.5244 62.7287 73.8051 61.3371C73.8493 61.293 73.8566 61.2193 73.8861 61.1604C73.8272 61.0868 73.7021 61.0058 73.7168 60.9396C73.8713 60.1076 74.2688 59.3639 74.6883 58.6571C74.9607 58.2006 75.5716 58.0607 76.0574 57.8251C76.4475 57.6337 76.8302 57.6705 77.0584 58.0828C77.3087 58.5393 77.5663 58.5025 77.8607 58.1564C77.927 58.0828 78.0006 58.0313 78.1772 58.0828C78.5158 58.6276 78.6483 59.3566 79.1635 59.8646C79.2371 59.9382 79.2592 60.137 79.215 60.2253C78.7881 61.0721 79.3475 61.6022 79.8112 62.1765C80.0688 62.5005 80.3633 62.8244 80.4074 63.2515C80.4516 63.6859 80.6503 63.8847 81.0919 63.8773C81.298 63.8773 81.46 63.9877 81.5409 64.1791C82.0635 65.3866 82.9247 66.4322 83.1602 67.7649C83.4841 67.8753 83.8079 68.1624 84.1318 67.7722C84.2864 67.3967 84.095 66.9844 84.2422 66.631C84.5661 65.8431 84.4041 65.0922 84.2717 64.297C84.1465 63.5165 83.727 62.8686 83.5282 62.1323C83.2559 61.1457 83.0572 60.1223 82.6082 59.1872C82.3432 58.635 82.0783 58.0901 81.7986 57.5527C81.6661 57.3023 81.6881 57.1036 81.9237 56.9784C82.6229 56.6103 83.381 56.5072 84.1612 56.4777C84.2937 56.5072 84.4189 56.5293 84.5514 56.5587C84.7427 55.8592 84.6838 55.6825 83.9772 55.6457C83.1528 55.6016 82.4315 55.285 81.7176 54.9389C81.2244 54.7033 80.7239 54.5119 80.1792 54.4603C80.0541 54.8358 79.8186 55.1451 79.5315 55.3954C79.0384 55.8298 78.4569 55.9697 77.8386 55.712C77.2719 55.4764 76.7861 55.0935 76.4254 54.6002C75.9396 53.9449 75.9175 53.216 76.315 52.7374C76.9259 51.9938 77.7503 51.7435 78.5158 51.9938C79.1856 52.2147 79.6493 52.6859 80.1204 53.1571C80.7239 53.3633 81.3127 53.621 81.9163 53.8418C83.2265 54.3204 84.6765 54.4309 85.8394 55.3071C85.9866 55.4175 86.2001 55.5058 86.3767 55.4985C87.0981 55.4837 87.7679 55.7488 88.445 55.9255C89.2399 56.139 90.0275 56.1317 90.8298 56.1464C91.7866 56.1685 92.7509 55.955 93.7078 56.1243C94.7824 54.7548 94.2083 53.5032 93.5311 52.5902C93.3765 52.3767 93.3103 52.038 92.9643 51.9864C92.6331 52.0159 92.3608 52.1926 92.059 52.303C91.1316 52.6491 90.1895 52.9657 89.1958 53.0098C88.6511 53.0393 88.1212 53.0393 87.5839 53.1866C86.2148 53.5694 84.9341 53.2086 83.6975 52.6196C83.3074 52.4356 83.2706 52.1852 83.5577 51.8613C83.6828 51.7214 83.8448 51.6036 84.0067 51.4931C84.7059 51.0072 85.2138 50.3666 85.5745 49.6009C85.4493 49.5641 85.3316 49.5273 85.2064 49.4905C85.1108 49.5494 85.0077 49.6303 84.9267 49.4684C84.9783 49.4463 85.0224 49.4168 85.0739 49.3948C85.6554 48.6732 86.3767 48.0842 86.9877 47.3921C88.0844 46.1478 88.9455 44.7562 89.4902 43.2174C90.2041 41.2 88.8499 39.86 87.0392 39.9189C85.7585 39.963 84.7427 40.6625 83.7196 41.4209C81.6219 42.9818 80.4295 45.1906 79.1488 47.3626C79.031 47.6792 78.8249 47.9296 78.5158 48.0474C78.2508 48.1431 78.1183 48.3272 77.9637 48.5407C77.6104 49.0266 77.3675 49.0192 76.9922 48.5554C76.8744 48.4081 76.7787 48.2388 76.7051 48.0621C76.3445 47.2669 75.6599 46.6926 75.2698 45.9195C75.1815 45.7428 74.9754 45.6397 74.7767 45.6839C74.4823 45.7428 74.5191 46.0079 74.5191 46.2288C74.5191 46.965 74.519 47.7013 74.5043 48.4376C74.5043 48.6806 74.6221 48.953 74.3718 49.1444C73.8125 49.0364 73.4125 49.2401 73.1721 49.7555C73.1058 49.9028 73.0396 50.05 72.9734 50.1899C73.0322 50.2562 73.0911 50.3224 73.15 50.3887C73.2972 50.4329 73.4518 50.4918 73.6064 50.5213C74.3351 50.6611 74.5779 50.9483 74.5411 51.6625C74.5338 51.8907 74.5191 52.1411 74.2909 52.2368C74.0112 52.3472 73.9155 52.0601 73.8051 51.8907C73.5843 51.5594 73.5254 51.0955 73.047 50.9777C72.885 50.9925 72.7084 50.963 72.5759 51.0293C70.964 51.8539 69.3594 52.7006 67.9241 53.8271C67.7843 54.1069 67.6738 54.4014 67.4309 54.6297C66.9157 55.123 66.5256 55.7046 66.2017 56.3378H66.1797Z" fill="#BA6B4A"/>
<path d="M90.4321 110.528C90.3437 110.528 90.2554 110.52 90.1671 110.513C90.0346 110.498 89.9536 110.572 89.9095 110.682C89.8211 110.682 89.7402 110.682 89.6519 110.682C89.0925 110.56 88.6828 110.709 88.4227 111.131C88.408 111.168 88.3785 111.183 88.3417 111.161C88.2754 111.146 88.2166 111.168 88.1798 111.227C88.1651 111.271 88.143 111.286 88.0988 111.271C87.9663 111.271 87.8927 111.345 87.8559 111.455C87.7676 111.455 87.6866 111.455 87.5983 111.455C87.2597 111.352 87.1567 111.588 87.0536 111.831H87.0168C86.7077 111.721 86.4795 111.831 86.2955 112.074C86.2513 112.089 86.2072 112.081 86.1704 112.059C85.9643 112.008 85.7582 111.919 85.611 112.17C84.794 112.619 83.7856 112.516 82.9907 113.031C82.9612 113.046 82.9171 113.068 82.9023 113.061C82.4239 112.751 82.2104 113.223 81.8719 113.37C81.5922 113.488 81.5039 113.804 81.2168 113.885C81.0181 113.804 80.7457 113.657 80.65 113.907C80.4807 114.327 80.0465 114.401 79.8036 114.695L79.7594 114.702C79.6196 114.688 79.5386 114.769 79.4945 114.887C79.4135 114.887 79.3251 114.886 79.2442 114.894C78.6921 115.1 78.5081 115.873 77.934 115.925C77.2642 115.984 77.2863 116.47 77.1097 116.867H77.0655C76.933 116.882 76.8005 116.904 76.6754 116.919C76.4325 116.845 76.1822 116.757 76.3442 117.184C76.2485 117.353 76.1602 117.515 76.0645 117.684C75.829 117.589 75.748 117.382 75.667 117.169C75.5787 116.955 75.483 116.735 75.1812 116.838C74.9457 116.919 74.8353 117.125 74.8206 117.36C74.8132 117.552 74.9678 117.721 74.8942 117.92C74.8353 118.075 74.769 118.229 74.5777 118.222C74.3863 118.214 74.3053 118.089 74.3274 117.898C74.3495 117.721 74.5114 117.478 74.2465 117.405C73.9373 117.316 73.8122 117.596 73.6944 117.832C73.4736 118.266 73.3706 118.73 73.0982 119.164C72.8112 119.621 72.4063 119.746 72.0751 120.136C71.5599 118.892 71.3979 117.699 71.5599 116.455C71.604 116.101 71.6261 115.77 71.0888 115.925C70.9784 115.954 70.8901 115.91 70.868 115.807C70.8312 115.667 70.9048 115.557 71.052 115.52C71.1404 115.498 71.2434 115.52 71.3391 115.512C71.5231 115.49 71.6409 115.387 71.5967 115.196C71.5599 115.034 71.4127 115.071 71.2802 115.063C70.6914 115.026 70.1099 114.975 69.521 114.931L69.5137 114.894C69.7124 114.504 70.0142 114.165 70.0584 113.694C70.0804 113.488 70.2129 113.245 70.5147 113.311C70.765 113.362 71.0005 113.451 71.0741 113.767C71.1403 114.062 70.9858 114.43 71.3906 114.666C71.685 114.297 71.5746 113.841 71.5231 113.495C71.4642 113.083 71.5746 112.759 71.685 112.391C71.9058 111.654 72.0677 110.911 72.2297 110.16C72.2886 109.902 72.2591 109.644 71.8911 109.6C71.7145 109.578 71.604 109.423 71.685 109.247C71.7954 109.011 71.9794 109.048 72.1561 109.18C72.2518 109.254 72.3033 109.394 72.4799 109.357C72.6271 108.753 73.4957 108.422 73.0467 107.575C73.6871 107.781 73.6355 107.73 74.0183 107.354C74.563 106.817 74.6218 105.926 75.402 105.565C75.5345 105.506 75.6376 105.241 75.5419 105.042C75.4168 104.785 75.1518 104.652 74.9015 104.733C74.5777 104.836 74.2685 104.8 73.952 104.77C73.6576 104.741 73.5914 104.542 73.6871 104.277C74.0624 104.527 74.4231 104.35 74.7985 104.255C75.5051 104.071 75.5051 104.078 75.8805 104.777C76.1749 104.476 76.4987 104.225 76.2853 103.739C76.3442 103.761 76.4031 103.783 76.4619 103.806C76.5797 103.85 76.7122 103.887 76.8005 103.761C76.83 103.725 76.8226 103.629 76.8005 103.599C76.6754 103.474 76.5355 103.437 76.4031 103.592C76.3589 103.636 76.3295 103.695 76.2927 103.747C76.0424 103.541 75.5272 103.761 75.4683 103.408C75.3873 102.9 75.9982 103.084 76.2338 102.848C76.3442 102.745 76.4472 102.569 76.6239 102.76C76.7196 102.863 76.7122 103.128 76.933 103.025C77.1685 102.915 77.0581 102.716 76.9919 102.524C76.9183 102.311 76.8594 102.09 77.0508 101.84C77.4851 101.965 77.9267 102.075 78.2947 101.597C78.545 101.273 78.8835 101.523 79.1559 101.685C79.8404 102.105 79.9582 102.083 80.3115 101.398C80.5691 100.897 80.9371 100.507 81.3861 100.183C81.5554 100.065 81.7615 100.036 81.916 100.198C82.0927 100.382 81.9602 100.544 81.8277 100.691C81.6216 100.919 81.3566 101.111 81.2389 101.457C81.3934 101.479 81.5186 101.538 81.5627 101.501C81.9896 101.125 82.2252 101.081 82.6815 101.619C83.101 102.119 83.8665 102.326 84.4774 102.657C84.5879 102.716 84.7424 102.716 84.8234 102.789C84.9044 102.87 84.9706 103.01 84.9633 103.128C84.9633 103.268 84.8234 103.327 84.6762 103.298C84.4407 103.246 84.2051 103.275 84.0285 103.415C83.631 103.732 83.2335 103.783 82.7846 103.526C82.5417 103.386 82.284 103.415 82.0927 103.658C81.9013 103.901 81.9602 104.115 82.1148 104.358C82.711 105.3 82.6962 105.3 81.8571 106.014C81.6878 106.162 81.4891 106.287 81.3934 106.5C80.6648 106.633 80.2967 107.229 79.833 107.7C79.7815 107.752 79.7594 107.885 79.7815 107.966C79.833 108.113 79.9729 108.113 80.098 108.069C80.2158 108.024 80.3924 107.995 80.4366 107.907C80.7384 107.347 81.3566 107.126 81.7394 106.662C82.1663 106.596 82.6006 106.522 82.8435 106.103C83.0275 106.184 83.2336 106.213 83.3955 106.103C84.3229 105.506 85.4417 105.175 86.06 104.159C86.0894 104.1 86.1115 104.041 86.1409 103.982C86.3765 104.085 86.5457 104.019 86.6562 103.791C86.7886 103.423 87.2818 103.437 87.4143 103.069C88.0841 103.202 88.5919 102.87 89.0777 102.495C89.4826 102.186 89.8138 101.84 90.4468 102.031C90.859 102.156 91.308 101.847 91.6907 101.604C92.0735 101.361 92.4709 101.177 93.0009 101.155C93.045 101.832 92.574 102.142 92.1839 102.488C91.9925 102.657 91.7496 102.76 91.5361 102.9C91.2049 103.128 91.2049 103.128 91.0724 103.747C91.2932 103.894 91.4478 103.702 91.5803 103.607C92.4267 103.025 93.3983 103.415 94.2963 103.283C94.5907 103.239 94.8483 103.666 95.2164 103.732C95.3194 103.754 95.2899 103.953 95.2016 104.063C95.0691 104.218 94.8851 104.306 94.6938 104.321C94.1344 104.358 93.6412 104.608 93.126 104.785C92.7138 104.925 92.2943 105.227 91.9115 104.711C91.8821 104.667 91.779 104.63 91.7349 104.652C91.0356 104.998 90.2481 104.593 89.6077 104.829C88.6656 105.175 87.7308 105.676 87.2597 106.662C87.0536 107.089 86.6635 107.237 86.3249 107.457C85.9716 107.693 85.6257 107.899 85.4343 108.304C85.1178 108.967 85.1914 109.46 85.7361 109.931C85.7803 109.968 85.8318 110.042 85.8612 110.034C86.7518 109.858 87.6793 110.123 88.5552 109.725C88.9821 109.534 89.4237 109.291 89.9389 109.49C90.1745 109.578 90.3511 109.342 90.5498 109.247C90.7265 109.166 90.8663 109.026 91.043 108.945C91.6318 108.658 91.9042 108.827 91.8674 109.475C91.86 109.629 91.779 109.784 91.7275 109.931C91.3374 110.101 90.9547 110.277 90.5646 110.447C90.5057 110.425 90.4541 110.439 90.41 110.484L90.4321 110.528ZM76.3515 115.166C76.9036 115.498 77.2201 114.938 77.6322 115.012C77.1391 114.43 76.83 114.923 76.3515 115.166ZM75.9393 116.079C75.9909 115.954 75.9835 115.822 75.8289 115.8C75.7701 115.792 75.6744 115.881 75.6376 115.947C75.586 116.035 75.6376 116.123 75.7185 116.175C75.8216 116.204 75.9025 116.175 75.9393 116.079Z" fill="#685E34"/>
<path d="M19.7353 100.831C19.3673 101.788 19.2642 102.834 18.8594 103.784C18.8005 103.931 18.8152 104.115 18.9624 104.226C19.1538 104.38 19.3231 104.262 19.485 104.145C19.3893 103.975 19.2495 103.791 19.4924 103.659C19.6985 103.541 19.8751 103.416 19.9487 103.187C20.0959 102.701 20.464 102.407 20.8394 102.083C21.7447 101.303 22.5911 100.463 23.4744 99.6606C23.7099 99.4471 23.9749 99.263 24.3061 99.2115C24.5049 99.182 24.6521 99.0937 24.7772 98.917C25.1084 98.4532 25.5721 98.1439 26.0579 97.8494C26.7645 97.415 27.5153 97.0248 28.1335 96.4873C28.5605 96.1191 28.9947 95.8614 29.4952 95.6553C30.1062 95.4049 30.7833 95.3387 31.3501 94.9779C32.3069 94.3594 33.4773 94.4184 34.5004 93.9913C34.5298 93.9766 34.5666 93.9766 34.596 93.984C35.7369 94.1238 36.8189 93.7042 37.8199 93.3655C38.9608 92.9752 40.1384 92.8795 41.2793 92.6366C42.4128 92.3936 43.6199 92.4083 44.7682 92.1212C45.0847 92.0402 45.3938 92.0255 45.7177 92.0917C45.8649 92.1212 46.0268 92.2537 46.1814 92.1359C46.8438 91.6352 47.624 92.0034 48.3306 91.8561C48.5367 91.8119 48.7428 91.8782 48.7649 92.1138C48.8311 92.7249 49.2212 93.2477 49.258 93.8441C49.3537 95.3166 49.9058 96.6861 50.237 98.0924C50.5608 99.4471 50.7596 100.853 51.4809 102.098C51.5692 102.252 51.6134 102.473 51.5913 102.657C51.5103 103.313 51.7974 103.865 52.0992 104.38C52.3789 104.851 52.585 105.352 52.8352 105.831C53.689 107.465 54.0423 109.306 54.8152 110.992C55.323 112.104 55.7941 113.245 56.221 114.401C56.6553 115.557 56.9865 116.742 57.4576 117.883C57.9655 119.12 58.4071 120.379 59.0106 121.58C59.2903 122.139 59.7025 122.655 59.7982 123.302C59.9454 123.361 60.1294 123.487 60.2472 123.369C60.9023 122.758 61.8444 122.389 62.0284 121.366C62.0358 121.322 61.9695 121.27 61.9474 121.234C61.6383 121.13 61.6677 121.675 61.285 121.513C61.2629 121.086 61.6383 120.762 61.653 120.372C61.6677 119.952 61.631 119.584 62.102 119.371C62.2271 119.319 62.183 119.076 62.0726 118.936C61.9254 118.752 61.7929 118.863 61.6751 118.981C61.5721 119.084 61.469 119.12 61.3512 118.988C61.3071 118.399 61.5353 117.803 61.3218 117.184C61.1157 116.595 60.3208 116.499 60.1883 115.785C60.8213 115.719 60.9464 116.514 61.5205 116.462C61.7487 115.859 61.6751 115.233 61.7046 114.636C61.7561 113.554 61.8812 112.457 61.6236 111.382C61.02 112.435 60.7919 113.562 60.9538 114.769C60.9759 114.938 60.9832 115.108 60.7771 115.145C60.6446 115.167 60.549 115.078 60.5195 114.931C60.3134 113.944 59.6583 113.186 59.2167 112.317C59.0695 112.03 59.0033 111.728 58.9297 111.412C58.7236 110.58 58.4144 109.762 58.0464 108.989C57.9286 108.746 57.8256 108.525 57.7299 108.268C57.384 107.362 57.0675 106.434 56.4639 105.647C55.8972 105.809 55.7058 105.426 55.5807 105.006C55.2936 104.034 54.7416 103.202 54.2779 102.319C54.1233 102.024 53.9172 101.811 53.6007 101.965C53.0707 102.223 52.7616 101.914 52.4378 101.597C51.9446 101.111 51.6355 100.507 51.4588 99.8447C51.319 99.3293 51.2454 98.7624 51.0393 98.2985C50.4578 97.0174 50.1192 95.6995 49.9867 94.3079C49.9573 94.0208 49.8689 93.741 49.8027 93.4612C49.4568 92.0107 49.1844 90.5455 49.0004 89.0583C48.9195 88.4177 48.9268 87.6446 48.441 87.0703C48.2423 87.8655 48.441 88.6533 48.4999 89.4338C48.5294 89.8608 48.4852 89.9933 48.0215 89.9786C46.8512 89.9344 45.7103 90.3615 44.5253 90.2363C43.7156 90.759 42.6778 90.332 41.8755 90.8916C41.7136 91.002 41.559 90.8769 41.4192 90.9063C39.4613 91.2892 37.4666 91.5101 35.5382 92.0328C34.5004 92.3126 33.4552 92.5188 32.3879 92.6881C31.3795 92.8501 30.4521 93.3066 29.5173 93.7262C28.612 94.1385 27.6846 94.5656 26.8897 95.1104C25.6678 95.9498 24.3724 96.6787 23.2462 97.6948C22.0833 98.7476 21.0234 99.9331 19.7206 100.824L19.7353 100.831Z" fill="#8D9196"/>
<path d="M65.3405 56.3602C64.023 56.6621 62.7055 56.9861 61.388 57.2732C60.6372 57.4426 59.8496 57.4941 59.121 57.715C58.223 57.9948 57.3103 58.1789 56.3976 58.3777C55.8014 58.5102 55.2052 58.6501 54.609 58.7826C54.2336 58.8636 54.0128 59.055 53.8582 59.4379C53.5638 60.1668 53.4755 60.962 53.0044 61.6394C52.7983 61.9339 52.6953 62.3683 52.71 62.7364C52.7247 63.377 52.6438 64.0396 52.526 64.6286C52.2905 65.8656 51.9666 67.1025 51.8047 68.3394C51.547 70.3274 50.9435 72.2859 51.1275 74.318C51.1422 74.5094 51.1128 74.7009 51.0834 74.8923C50.8773 75.9894 50.627 77.0864 50.9067 78.2129C50.9361 78.3307 50.9067 78.4927 50.8478 78.5811C50.5828 78.9639 50.73 79.3836 50.708 79.7812C50.627 79.7296 50.4871 79.6928 50.4724 79.6266C50.3031 78.7357 49.6628 78.1614 49.096 77.5503C48.7795 77.2042 48.5366 76.9244 49.0224 76.5342C49.1475 76.4385 49.1991 76.2618 49.0666 76.1145C48.9709 76.0114 48.8458 75.9893 48.7133 76.0114C48.463 76.063 48.2201 76.1293 47.9699 76.1882C47.8742 76.0336 47.9036 75.8789 47.9699 75.7316C48.5514 74.4284 48.3085 73.2872 47.3222 72.2785C47.1381 72.0944 46.9762 71.8957 46.7922 71.719C45.4232 70.3274 45.0183 68.5677 44.9889 66.7123C44.9668 65.4827 45.276 64.2826 45.6513 63.1119C46.093 61.7645 46.8217 60.6159 48.0729 59.8428C49.0004 59.2685 49.8541 58.5691 50.8625 58.1199C51.0392 58.0389 51.2674 57.9506 51.2747 57.7518C51.2968 57.1407 51.7531 56.6842 51.8341 56.1246C52.1138 54.225 53.1884 52.6126 53.7184 50.8087C53.7552 50.6909 53.873 50.6099 53.9539 50.5068C55.0212 50.7793 56.0884 50.632 57.1631 50.5584C56.9055 51.1032 56.8171 51.7143 56.4712 52.215C55.8382 53.1206 55.5511 54.1882 55.1095 55.1896C55.0948 55.219 55.0801 55.2485 55.0727 55.2779C54.9549 55.705 54.7047 56.2203 54.9181 56.559C55.1758 56.9493 55.691 56.5959 56.0737 56.5222C60.041 55.7197 63.9788 54.8141 67.9093 53.8422C67.7695 54.122 67.6591 54.4165 67.4162 54.6447C66.901 55.138 66.5108 55.7197 66.187 56.3529C65.8999 56.1688 65.6276 56.3087 65.3479 56.375L65.3405 56.3602ZM48.6323 70.3274C48.5661 69.2893 49.1476 68.3542 49.0813 67.3234C49.0813 67.2571 49.0739 67.1835 49.096 67.1319C49.6481 66.0128 49.5229 64.7464 49.8615 63.5831C50.075 62.8394 50.1927 62.1106 50.2222 61.3522C50.2295 61.1608 50.2001 60.9693 50.1854 60.719C48.8973 61.124 48.1465 62.0369 47.543 63.1193C47.0498 63.9954 46.8584 64.9894 46.4904 65.9171C46.3653 66.2337 46.4757 66.3883 46.7849 66.484C47.3222 66.6534 47.7859 66.9258 47.9993 67.4927C48.0582 67.6473 48.095 67.8094 47.9772 67.9492C47.8374 68.1186 47.7049 67.9787 47.5577 67.9345C47.0645 67.7799 46.91 67.9198 47.0498 68.4278C47.2854 69.2819 47.7859 69.9666 48.441 70.5925C48.5293 70.4746 48.6397 70.401 48.6323 70.3274Z" fill="#8D9196"/>
<path d="M87.4216 103.092C87.7381 102.731 88.0399 102.355 88.3711 102.009C88.8054 101.567 89.2838 101.207 89.9536 101.199C90.3805 101.199 90.7632 101.03 91.1607 100.89C91.5876 100.743 91.9115 100.522 91.9041 100.014C91.9041 99.8519 91.9262 99.6752 92.0734 99.5795C92.8168 99.1083 93.597 98.7107 94.2741 98.1511C94.5686 98.5929 93.9945 98.696 94.1711 99.0862C94.6275 98.7623 95.4224 98.8432 95.2899 97.9376C94.9366 97.7462 94.5391 97.7756 94.1564 97.7388C93.6927 97.6946 93.3247 97.4811 92.8242 97.1866C93.6853 96.7007 94.3846 96.2294 95.2016 96.0748C95.2457 95.8245 95.1133 95.795 94.9881 95.8098C94.4729 95.8466 94.046 95.854 94.0975 95.0956C94.1196 94.7569 93.7589 94.6686 93.4351 94.779C92.9493 94.9484 92.4488 95.0956 91.9924 95.3239C90.3216 96.1264 88.6213 96.8774 86.98 97.7462C86.3617 98.0775 85.6845 98.2984 85.1104 98.7254C84.9559 98.8432 84.7571 98.9242 84.5952 98.7254C84.4333 98.5193 84.4406 98.2616 84.6541 98.1291C85.0074 97.9155 85.2429 97.6873 85.2503 97.2308C85.2503 96.8847 85.6256 96.8258 85.8833 96.7301C86.2439 96.5976 86.6046 96.4577 86.8843 96.1632C87.0315 96.0086 87.0904 95.8392 87.0094 95.6404C86.9284 95.4343 86.7739 95.3533 86.5604 95.3385C86.1629 95.3017 85.7949 95.4196 85.4416 95.5815C84.8749 95.8466 84.2934 95.9497 83.6678 95.8834C83.3733 95.854 83.101 95.854 82.8949 95.5963C82.6152 95.2429 82.2693 95.3754 81.9381 95.5006C81.8718 95.5889 81.8497 95.7803 81.6878 95.6699C81.57 95.5889 81.5774 95.4564 81.7614 95.4196C81.8129 94.9484 81.3934 94.5949 81.4302 94.1237C81.4302 94.1237 81.2609 94.1016 81.1652 94.0869C79.4723 94.7422 78.2725 95.9055 77.3599 97.4811C76.7342 98.5635 76.3515 99.7562 75.6964 100.809C75.2474 101.531 74.6512 102.164 74.2022 102.907C73.9741 103.29 73.871 103.725 73.5913 104.078L73.6134 104.137C73.6355 104.196 73.6576 104.247 73.6723 104.306C74.0477 104.557 74.4083 104.38 74.7837 104.277C75.4903 104.093 75.4903 104.1 75.8657 104.8C76.1601 104.498 76.484 104.247 76.2705 103.762C76.0203 103.563 75.4977 103.784 75.4462 103.43C75.3652 102.922 75.9761 103.106 76.2116 102.871C76.322 102.768 76.4251 102.591 76.6017 102.782C76.6974 102.885 76.6901 103.15 76.9109 103.047C77.1464 102.937 77.036 102.738 76.9698 102.547C76.8961 102.333 76.8373 102.112 77.0286 101.862C77.4629 101.987 77.9045 102.098 78.2726 101.619C78.5228 101.295 78.8614 101.545 79.1337 101.707C79.8182 102.127 79.936 102.105 80.2893 101.42C80.5469 100.92 80.915 100.529 81.3639 100.205C81.5332 100.088 81.7393 100.058 81.8939 100.22C82.0706 100.404 81.9381 100.566 81.8056 100.713C81.5995 100.942 81.3345 101.133 81.2167 101.479C81.3713 101.501 81.4964 101.56 81.5406 101.523C81.9675 101.148 82.203 101.104 82.6594 101.641C83.0789 102.142 83.8444 102.348 84.4553 102.679C84.5657 102.738 84.7203 102.738 84.8013 102.812C84.8822 102.893 84.9485 103.033 84.9411 103.15C84.9411 103.29 84.8013 103.349 84.6541 103.32C84.4185 103.268 84.183 103.298 84.0064 103.438C83.6089 103.754 83.2114 103.806 82.7624 103.548C82.5195 103.408 82.2619 103.438 82.0706 103.681C81.8792 103.924 81.938 104.137 82.0926 104.38C82.6888 105.322 82.6741 105.322 81.835 106.037C81.6657 106.184 81.467 106.309 81.3713 106.523C81.4891 106.574 81.6068 106.626 81.7246 106.685C82.1515 106.618 82.5858 106.545 82.8287 106.125C82.9243 105.911 83.0936 105.75 83.285 105.654C84.0505 105.264 84.7718 104.814 85.4196 104.255C85.6036 104.093 85.8244 104.093 86.0452 104.181C86.0746 104.122 86.0967 104.063 86.1262 104.005C86.2366 103.776 86.4058 103.717 86.6414 103.813C86.7739 103.445 87.267 103.46 87.3995 103.092H87.4216Z" fill="#786A3D"/>
<path d="M73.047 141.268C73.0838 140.914 73.0543 140.634 72.5833 140.841C72.046 140.539 71.7589 139.994 71.3835 139.545C70.6033 138.624 69.9114 137.623 69.1459 136.688C68.0934 135.407 67.0482 134.118 65.9 132.911C65.4584 132.454 65.1198 131.895 64.7444 131.372C64.4426 130.96 64.1629 130.533 63.8759 130.12C63.8317 129.443 63.4269 128.979 62.9558 128.545C62.2271 127.875 61.8223 126.969 61.2703 126.166C61.2335 126.115 61.2997 125.982 61.3144 125.894C61.4248 124.915 61.8517 124.09 62.5583 123.42C62.7792 123.214 62.8454 122.927 62.9852 122.684C63.1398 122.419 63.1619 122.065 63.5299 121.874C64.4573 122.566 65.1198 123.575 66.084 124.245C66.7464 125.209 67.4015 126.189 68.086 127.138C68.4909 127.698 68.9987 128.191 69.3888 128.766C70.3531 130.209 71.5675 131.431 72.6274 132.793C73.1647 133.478 73.8272 134.067 74.4528 134.671C74.9092 135.105 75.2772 135.613 75.7335 136.055C76.3665 136.666 77.1173 137.027 77.8386 137.446C78.5673 137.866 78.6409 137.991 77.9711 138.514C77.7871 138.654 77.581 138.742 77.3528 138.749C77.1173 138.757 76.9039 138.823 76.7787 139.044C76.4254 139.677 75.8292 139.964 75.1741 140.185C74.9533 140.259 74.6 140.266 74.6442 140.627C74.681 140.921 74.9165 141.032 75.2109 141.039C75.5495 141.039 75.844 141.187 76.0206 141.481C76.1825 141.746 76.1383 141.952 75.7924 142.055C74.968 142.306 74.2246 142.225 73.5843 141.614C73.415 141.459 73.2604 141.297 73.0322 141.253V141.268H73.047ZM74.313 137.483C74.7325 137.682 74.7472 138.138 75.1962 138.079C75.1079 137.667 74.8208 137.571 74.313 137.483Z" fill="#8D9196"/>
<path d="M81.2244 23.154C81.4452 21.9318 81.7765 20.7464 82.1666 19.5684C81.9679 19.5831 81.8206 19.6862 81.6734 19.8187C80.0688 21.2618 78.5011 22.7491 76.8302 24.1112C75.7703 24.9726 74.8208 26.0034 73.5769 26.6366C72.6348 27.9619 71.0523 28.5804 70.0439 29.8247C69.6464 30.318 69.065 30.5094 68.6086 30.8996C67.453 31.8936 66.2901 32.8802 65.1198 33.8595C64.7149 34.1982 64.4941 34.6694 64.2218 35.0891C63.8538 35.6486 63.5152 36.2524 63.0956 36.753C62.5878 37.3642 62.0505 37.9826 61.6825 38.66C61.285 39.4036 60.7698 39.5141 60.0779 39.4331C59.1137 39.3226 58.1494 39.4405 57.1926 39.4773C56.9202 39.4846 56.6111 39.6098 56.3682 39.3521H56.3903C56.3535 39.3889 56.3093 39.4552 56.2725 39.4552C56.1695 39.4405 56.1548 39.3447 56.14 39.249C55.2053 39.5877 54.5207 40.3313 53.6596 40.8026C52.953 41.1854 52.1875 41.4063 51.4661 41.7303C51.3116 41.7965 51.1644 41.8996 51.2748 42.0763C51.3631 42.2236 51.5324 42.2457 51.6943 42.1499C51.8121 42.0984 51.9225 42.01 52.0403 41.988C54.3588 41.583 56.7068 41.5609 59.0474 41.3842C59.5553 41.3474 59.7098 41.6198 59.3565 42.0248C58.5616 42.9525 57.9507 44.0054 57.1631 44.9257C57.2146 45.0435 57.2662 45.1613 57.3251 45.2791C57.9654 45.9123 58.5911 46.5529 58.753 47.4953C59.0621 47.1051 59.4449 46.759 59.6583 46.3246C60.4165 44.8005 61.388 43.4164 62.3596 42.0322C62.6761 41.5757 63.0073 41.4726 63.4858 41.5683C63.7066 41.6125 63.9348 41.6051 64.1482 41.6714C65.9221 42.2162 67.7695 42.5328 69.4404 43.3795C69.6097 42.5328 69.2711 41.6935 69.3888 40.8467C68.9914 41.0014 68.616 40.832 68.2627 40.7142C67.1365 40.3314 65.9883 40.0368 64.8254 39.7865C64.1997 39.654 64.2512 39.6172 64.4868 39.0502C64.9873 37.8354 65.8779 36.8929 66.6728 35.9137C67.166 35.3026 67.7474 34.6841 68.432 34.2055C69.1386 33.7049 69.7642 33.0864 70.4119 32.5047C71.3761 31.6433 72.3993 30.8407 73.3414 29.9646C74.946 28.4847 76.7861 27.2919 78.2876 25.6868C79.1709 24.7444 80.1204 23.8608 81.2097 23.1467L81.2244 23.154Z" fill="#8D9196"/>
<path d="M22.142 119.385C21.5384 119.798 20.8539 119.886 20.1399 119.886C19.6615 119.886 19.1831 119.915 18.7046 119.938C18.5795 119.938 18.3882 119.879 18.344 119.938C17.8435 120.549 17.078 120.482 16.445 120.733C15.7384 121.013 14.9803 121.16 14.3252 121.55C14.4503 121.609 14.5681 121.668 14.6932 121.727C15.1275 121.498 15.5838 121.683 16.0255 121.697C17.1737 121.734 18.3366 121.579 19.4775 121.83C20.6405 122.08 21.8108 122.065 22.9958 122.058C23.8938 122.058 24.8285 122.051 25.675 122.301C26.8232 122.647 28.0156 122.662 29.1639 122.942C30.2458 123.207 31.3793 123.302 32.4024 123.81C32.7778 123.994 33.0723 124.223 33.0723 124.664C33.0796 125.165 32.6969 125.283 32.3141 125.393C32.2847 125.401 32.2847 125.504 32.2626 125.614C33.6316 125.894 34.9565 126.402 36.3697 126.476C37.0984 126.093 37.9081 125.85 38.5779 125.357C38.806 124.922 38.968 124.495 38.7471 123.98C38.6367 123.729 38.6662 123.413 38.6294 123.126C38.5631 122.654 38.7619 122.323 39.2035 122.22C39.3581 122.183 39.5273 122.176 39.6819 122.191C40.2634 122.257 40.6462 121.911 41.0363 121.572C41.3233 121.322 41.338 121.064 40.9627 120.909C40.5357 120.733 40.3591 120.497 40.5063 120.026C40.5431 119.901 40.418 119.731 40.3665 119.577C40.0279 119.459 39.6672 119.356 39.336 119.481C38.8944 119.643 38.7619 119.054 38.3865 119.142C38.0258 119.231 37.7241 118.966 37.356 119.01C37.0763 119.047 36.7304 119.201 36.4875 118.745C36.3918 118.568 35.8545 118.804 35.4938 118.782C34.8387 118.737 34.1984 118.583 33.5507 118.539C32.0123 118.428 30.474 118.347 28.9283 118.494C28.7664 118.509 28.6192 118.546 28.4572 118.465C27.758 118.119 27.0882 118.303 26.4552 118.62C26.1608 118.767 25.8737 118.885 25.5499 118.914C24.8138 118.973 24.0778 119.032 23.3491 119.091C23.2828 119.172 23.2092 119.201 23.1062 119.164H23.0915C22.8339 119.518 22.4879 119.422 22.142 119.378V119.385Z" fill="#896F40"/>
<path d="M50.7006 80.8782C50.5976 81.1064 50.4283 81.1506 50.2075 81.0549V80.9592L50.1486 80.9812L50.2075 81.0549C50.0382 81.3494 50.0382 81.666 50.075 81.9899C50.2148 83.1901 50.3547 84.3976 50.5092 85.5977C50.5387 85.8333 50.5166 86.0616 50.3915 86.2456C49.9057 86.923 50.1044 87.674 50.3915 88.263C51.1054 89.7577 51.2821 91.3848 51.6869 92.9531C52.2463 95.1398 53.1443 97.2014 53.9024 99.3145C53.9686 99.506 54.1011 99.6458 54.2925 99.7195C54.1306 100.073 54.241 100.323 54.5722 100.5C54.6016 100.588 54.6311 100.669 54.6532 100.758C54.6753 100.839 54.6973 100.92 54.7194 101.001C55.0065 102.134 55.7793 103.033 56.2136 104.108C56.4344 104.645 56.2577 105.168 56.4786 105.646C55.9118 105.808 55.7204 105.426 55.5953 105.006C55.3083 104.034 54.7562 103.202 54.2925 102.319C54.1379 102.024 53.9319 101.81 53.6154 101.965C53.0854 102.223 52.7763 101.914 52.4524 101.597C51.9592 101.111 51.6501 100.507 51.4735 99.8446C51.3336 99.3292 51.26 98.7623 51.0539 98.2985C50.4724 97.0173 50.1339 95.6994 50.0014 94.3079C49.9719 94.0207 49.8836 93.7409 49.8174 93.4611C49.4714 92.0107 49.1991 90.5455 49.0151 89.0582C48.9341 88.4176 48.9415 87.6445 48.4557 87.0702C48.4557 86.9745 48.4483 86.8862 48.441 86.7905C48.441 86.7536 48.441 86.7095 48.4262 86.6727C48.4262 86.577 48.4115 86.4812 48.4042 86.3781C48.4189 86.3266 48.4115 86.2751 48.3894 86.2309C48.3379 86.0174 48.2937 85.7965 48.2201 85.583C47.9036 84.6847 48.2349 83.7423 47.9993 82.844C47.911 82.498 47.8448 82.174 47.9846 81.8132C48.1171 81.4819 48.0361 81.1211 47.9552 80.7751C47.8227 80.2155 47.8006 79.6191 47.9404 79.089C48.0582 78.6325 48.0582 78.1981 48.0067 77.7711C47.9404 77.2336 47.9331 76.7035 47.9404 76.1734C48.1907 76.1145 48.4336 76.0482 48.6839 75.9967C48.809 75.9672 48.9415 75.9966 49.0372 76.0997C49.1696 76.2543 49.1181 76.4237 48.993 76.5194C48.5072 76.9096 48.7501 77.1968 49.0666 77.5355C49.6407 78.1466 50.2737 78.7282 50.443 79.6118C50.4577 79.678 50.5976 79.7149 50.6785 79.7664C50.708 80.1272 50.7889 80.4953 50.6785 80.8561L50.7006 80.8782ZM48.8016 78.9418C48.8311 78.8092 48.8384 78.662 48.6986 78.6031C48.6029 78.5663 48.5366 78.6767 48.5146 78.7651C48.4851 78.8976 48.4851 79.0228 48.6176 79.1111C48.7354 79.1111 48.7869 79.0301 48.809 78.9344L48.8016 78.9418Z" fill="#9F8588"/>
<path d="M16.1874 105.337C16.2389 105.219 16.3051 105.102 16.3419 104.984C16.4523 104.652 16.813 104.336 16.6363 104.005C16.4155 103.592 15.9886 103.946 15.6574 103.924C15.3924 103.901 15.1422 103.872 14.9214 103.732C14.4061 103.408 13.9056 103.062 13.383 102.753C12.8457 102.436 12.5513 101.972 12.4851 101.361C12.0802 101.656 11.9183 101.266 11.7048 101.082C10.4388 99.9918 9.26852 98.7916 7.87004 97.8639C6.63348 97.0393 5.38223 96.2515 3.88806 95.9791C2.71774 95.7656 1.65047 95.9128 0.84082 96.8994C1.36341 97.3338 1.55478 98.0112 2.03321 98.4972C2.41595 98.8874 2.79871 99.285 3.05632 99.8077C3.21825 100.132 3.61571 100.316 3.96901 100.478C4.76394 100.846 5.49997 101.295 5.84591 102.171C5.9048 102.326 6.00786 102.466 6.16243 102.517C6.97208 102.782 7.58299 103.386 8.34112 103.732C8.66498 103.879 9.03299 103.872 9.34213 103.968C10.3211 104.27 11.4472 104.056 12.2937 104.859C12.7206 105.264 13.383 105.19 13.9351 105.337C14.2148 105.411 14.465 105.197 14.6784 104.976C15.0612 104.594 15.4145 104.63 15.65 105.16C15.834 105.219 16.0107 105.286 16.1947 105.345L16.1874 105.337Z" fill="#BE6D4A"/>
<path d="M14.6933 121.727C14.5682 121.668 14.4504 121.609 14.3253 121.55C13.604 121.344 13.2286 122.073 12.6103 122.191C11.8963 122.331 11.4179 123.015 10.6818 123.155C10.4537 123.199 10.5567 123.487 10.439 123.626C11.3443 124.304 12.3232 124.326 13.339 123.95C13.6555 123.833 13.9646 123.818 14.2811 123.892C14.6197 123.965 14.9436 124.024 15.2969 124.039C15.8489 124.061 16.3715 124.473 16.504 124.989C16.7616 126.012 17.5197 126.461 18.3441 126.77C19.323 127.138 20.3535 127.44 21.4428 127.337C21.5974 127.323 21.774 127.315 21.9139 127.374C23.6878 128.081 25.5868 127.875 27.4269 128.103C27.8022 128.155 28.185 128.125 28.5751 128.213C29.5099 128.427 30.4667 128.523 31.4309 128.486C31.4383 128.339 31.3426 128.147 31.4825 128.059C31.7106 127.926 31.7695 128.184 31.902 128.294C32.3142 128.479 32.719 128.663 33.1312 128.847C33.2343 128.913 33.3373 128.979 33.4404 129.053C33.7789 128.869 34.1102 128.92 34.4708 129.016C34.78 129.097 35.1112 129.149 35.3393 128.81C33.6391 128.051 31.8947 127.455 30.003 127.418C29.5467 127.772 29.4436 127.742 28.8769 127.116C28.6045 127.139 28.3322 127.131 28.082 126.977C27.8464 127.153 27.6403 127.021 27.4416 126.903C26.6246 126.954 25.8444 126.608 25.0274 126.653C24.9096 126.601 24.7918 126.542 24.6741 126.491C24.1883 126.572 23.7982 126.292 23.3786 126.122C23.1946 126.218 23.018 126.218 22.9002 126.027C22.8634 125.968 22.8781 125.828 22.9223 125.776C23.1063 125.541 23.305 125.688 23.489 125.791C23.7246 125.556 23.9895 125.607 24.2913 125.666C26.1756 126.012 28.104 126.086 29.9662 126.623C31.1292 126.954 32.3731 126.999 33.5802 127.161C33.7495 127.183 33.9482 127.367 34.0586 127.08C33.9997 126.896 33.8525 126.822 33.698 126.785C32.3878 126.491 31.1292 126.005 29.8043 125.776C28.9873 125.637 28.1261 125.578 27.3606 125.32C26.4111 124.996 25.285 125.143 24.5048 124.319C24.4385 124.245 24.2545 124.282 24.1294 124.252C22.6131 123.928 21.0674 123.906 19.5365 123.774C19.0948 123.737 18.4545 123.384 18.3588 124.267C18.3441 124.392 18.1453 124.392 18.0202 124.392C17.6816 124.392 17.3283 124.51 17.0118 124.341C17.0486 123.656 17.4608 123.361 18.0276 123.391C18.874 123.435 19.6027 122.794 20.4786 123.023C20.6111 123.06 20.8908 123.06 20.9055 122.758C20.5596 122.331 20.0443 122.632 19.6469 122.485C18.403 122.036 17.137 122.066 15.8489 122.228C15.3999 122.286 14.9362 122.279 14.7006 121.756L14.6933 121.727Z" fill="#8B6E4D"/>
<path d="M60.048 144.603C60.1879 144.419 60.394 144.404 60.5633 144.522C61.0417 144.861 61.6305 144.934 62.1457 145.155C63.2277 145.604 64.4128 145.781 65.5904 145.906C65.642 145.906 65.745 145.877 65.7524 145.84C65.9511 144.964 66.643 145.317 67.0625 145.428C67.6366 145.575 68.1224 145.56 68.6377 145.324C69.0719 145.126 69.5135 145.207 69.9625 145.324C70.0877 145.361 70.2349 145.302 70.3011 145.192C70.3821 145.067 70.279 144.971 70.1981 144.868C69.8301 144.375 69.4399 143.948 68.7407 143.948C68.5052 143.948 68.2696 143.764 68.0267 143.661C67.7618 143.543 67.5041 143.381 67.2392 143.668C67.1729 143.742 67.011 143.764 66.9816 143.697C66.6945 142.887 65.6567 143.182 65.2445 142.468C65.0163 142.07 64.4128 142.026 63.9049 142.144C63.5884 142.217 63.2719 142.269 62.948 142.188C61.947 141.93 61.13 142.217 60.5191 143.042C60.3056 143.337 60.0848 143.233 59.8419 143.138C59.68 142.298 59.9891 141.827 60.865 141.739C61.0711 141.717 61.3287 141.606 61.4612 141.452C61.7777 141.069 62.2267 140.966 62.7199 140.863C62.1899 140.001 61.5201 140.649 60.8503 140.553C61.1889 139.744 62.2193 139.817 62.5285 139.088C62.6094 138.889 62.8891 138.838 63.132 138.889C63.2277 138.912 63.3308 138.926 63.4191 138.904C63.5369 138.875 63.6473 138.801 63.765 138.742C64.3759 139.029 65.1341 138.956 65.6567 139.405C66.4222 140.068 67.46 140.244 68.196 140.936C68.3948 141.128 68.7113 141.194 68.9689 141.319C69.3075 141.695 69.6092 142.055 69.7712 142.586C69.9552 143.211 70.5955 143.557 71.1917 143.778C71.5671 143.918 71.8689 144.095 72.1412 144.353C72.1118 144.677 71.8321 144.662 71.6554 144.78C71.0077 145.207 71.0151 145.604 71.6775 145.958C71.7658 146.002 71.8542 146.031 71.9425 146.083C72.4209 146.355 72.4357 146.451 72.0161 146.826C71.9204 146.907 71.7879 146.944 71.7585 147.114C71.8468 147.438 72.2001 147.423 72.4283 147.57C72.2516 147.695 72.0603 147.636 71.8763 147.622C70.728 147.555 69.6019 147.239 68.4315 147.408C67.9752 147.474 67.3496 147.533 67.0478 147.29C66.5915 146.93 66.1351 147.069 65.7008 147.011C65.3181 146.966 64.9206 146.952 64.5894 146.775C63.9859 146.458 63.3234 146.48 62.6904 146.363C62.4181 146.311 62.1531 146.598 61.947 146.414C61.4538 145.965 60.865 146.186 60.3203 146.12C59.9891 146.083 59.7094 146.024 59.5181 145.729C59.6137 145.494 59.5401 145.332 59.3193 145.221C59.4518 144.89 59.8419 144.853 60.0406 144.603H60.048ZM62.5064 139.721C62.9186 140.016 63.2719 139.861 63.6399 139.736C63.3504 139.564 62.9726 139.559 62.5064 139.721Z" fill="#8B6E4D"/>
<path d="M63.3161 112.98C63.6841 112.714 63.5737 112.258 63.743 111.905C64.1699 111.043 64.4054 110.086 64.8176 109.217C65.0384 108.753 64.928 108.282 65.009 107.818C65.2077 106.692 65.8481 105.668 65.7818 104.505C65.7009 103.099 65.7156 101.692 65.826 100.286C65.9438 98.8578 65.6493 97.4883 65.1194 96.1851C64.7661 95.3089 64.3245 94.4843 63.5442 93.8511C62.6095 93.0927 61.8219 92.1724 60.7031 91.6054C60.3645 91.4361 59.9597 91.149 59.6874 91.1784C59.1501 91.23 58.8262 90.5673 58.2889 90.8765C58.0165 91.252 58.5759 91.6864 58.2668 92.0767C57.8546 91.9441 58.0018 91.3846 57.5602 91.3257C57.2437 91.8043 57.9356 92.1061 57.7516 92.5405C58.5907 92.9307 59.6138 92.8792 60.3351 93.5566C60.5485 93.7554 60.8282 93.8658 61.0343 94.0425C61.5569 94.499 62.2709 94.742 62.5947 95.4267C62.9039 96.082 63.2719 96.7152 63.5075 97.3926C63.7724 98.173 64.1331 98.9829 63.9785 99.8076C63.8092 100.676 63.9196 101.53 63.8902 102.385C63.8387 103.975 63.7209 105.528 62.9554 106.964C62.8671 107.126 62.8818 107.266 62.9186 107.421C62.9996 107.723 62.8744 107.988 62.8082 108.267C62.9112 108.341 63.0953 108.407 63.1026 108.488C63.1983 109.232 63.4854 109.924 63.3455 110.727C63.2204 111.448 63.029 112.214 63.3161 112.965V112.98Z" fill="#8D9196"/>
<path d="M68.9762 141.319C69.3148 141.695 69.6166 142.055 69.7785 142.586C69.9625 143.211 70.6029 143.557 71.1991 143.778C71.5745 143.918 71.8762 144.095 72.1486 144.353C72.1191 144.677 71.8394 144.662 71.6628 144.78C71.0151 145.207 71.0224 145.604 71.6849 145.958C71.7732 146.002 71.8615 146.031 71.9499 146.083C72.4283 146.355 72.443 146.451 72.0234 146.826C71.9278 146.907 71.7953 146.944 71.7658 147.114C71.8542 147.438 72.2075 147.423 72.4356 147.57C72.4798 147.592 72.5166 147.57 72.5387 147.533C72.5902 147.497 72.6417 147.474 72.708 147.482C72.811 147.482 72.9214 147.482 73.0245 147.482C73.0613 147.46 73.1054 147.46 73.1422 147.467C73.2379 147.467 73.341 147.474 73.4367 147.482C73.4808 147.452 73.5323 147.445 73.5839 147.46C73.7679 147.423 73.9592 147.386 74.1433 147.357C74.1801 147.335 74.2169 147.335 74.2537 147.342C74.3493 147.342 74.445 147.342 74.5407 147.342C74.5849 147.246 74.6585 147.173 74.7763 147.165L74.8499 147.128C74.9603 146.915 75.056 146.679 75.3725 146.79C75.873 145.877 75.1516 145.361 74.6511 144.861C74.3788 144.588 74.2463 144.338 74.1506 143.992C73.9666 143.329 73.5544 142.762 73.2674 142.144C73.1422 141.871 72.8552 141.621 73.0392 141.26V141.275C72.7595 141.275 72.5166 141.231 72.5828 140.848C72.0455 140.546 71.7585 140.001 71.3831 139.552C70.6029 138.632 69.911 137.63 69.1455 136.695C68.093 135.414 67.0478 134.126 65.8996 132.918C65.4579 132.462 65.1194 131.902 64.744 131.379C64.4422 130.967 64.1625 130.54 63.8754 130.128C63.3529 129.988 63.132 129.355 62.5432 129.318C62.3224 129.745 62.499 129.966 62.8523 130.253C63.927 131.129 64.766 132.182 64.8029 133.669C65.5757 134.435 66.1351 135.385 66.8564 136.195C66.9595 136.313 67.0993 136.489 67.0184 136.629C66.7313 137.122 66.8932 137.468 67.2686 137.829C67.3864 137.94 67.1656 138.205 67.4158 138.404C67.7765 138.337 68.2843 138.219 68.4831 138.676C68.8437 139.508 69.3958 140.333 68.9836 141.327L68.9762 141.319Z" fill="#786A3D"/>
<path d="M63.3161 112.98C63.029 112.229 63.2278 111.463 63.3455 110.741C63.4854 109.939 63.1983 109.239 63.1026 108.503C63.0953 108.415 62.9113 108.356 62.8082 108.282C62.7861 108.378 62.7641 108.474 62.742 108.569C62.6757 108.761 62.6095 108.952 62.5432 109.144C62.477 109.49 62.3151 109.792 62.1311 110.079C61.8808 110.476 61.6894 110.896 61.6379 111.375C61.8955 112.457 61.7704 113.547 61.7189 114.629C61.6894 115.225 61.763 115.844 61.5349 116.455C60.9607 116.506 60.8356 115.719 60.2026 115.778C60.3351 116.484 61.13 116.587 61.3361 117.176C61.5496 117.788 61.3214 118.384 61.3656 118.98C61.4907 119.106 61.5864 119.076 61.6894 118.973C61.8072 118.855 61.9397 118.745 62.0869 118.929C62.1973 119.069 62.2341 119.312 62.1163 119.363C61.6379 119.577 61.6747 119.945 61.6674 120.365C61.66 120.755 61.2773 121.079 61.2993 121.506C61.6821 121.675 61.6526 121.123 61.9618 121.226C61.9839 121.263 62.0501 121.322 62.0427 121.359C61.8587 122.389 60.9166 122.75 60.2615 123.361C60.1364 123.479 59.9597 123.361 59.8052 123.295C60.0407 123.899 60.2836 124.495 60.6516 125.025C60.8577 125.32 60.9019 125.747 61.3141 125.894C61.4245 124.915 61.8514 124.09 62.558 123.42C62.7788 123.214 62.845 122.927 62.9849 122.684C63.1394 122.419 63.1615 122.065 63.5296 121.874C64.457 122.566 65.1194 123.575 66.0836 124.245C65.9879 123.501 66.3192 122.765 66.1351 122.006C66.0763 121.756 66.0836 121.491 65.8775 121.307C65.5831 121.042 65.4433 120.703 65.2813 120.357C65.0605 119.879 64.7146 119.422 64.2141 119.172C63.8976 119.01 63.7356 118.774 63.6252 118.465C63.4044 117.832 63.11 117.221 62.9849 116.565C62.8892 116.065 62.9186 115.498 63.0438 114.997C63.1468 114.592 63.0658 114.246 63.0438 113.871C62.9996 113.613 63.1689 113.414 63.2425 113.193C63.2719 113.12 63.294 113.046 63.3235 112.972L63.3161 112.98Z" fill="#9F8588"/>
<path d="M50.7005 80.8779C50.5974 81.1062 50.4282 81.1503 50.2073 81.0546C50.0381 81.3491 50.0381 81.6657 50.0749 81.9897C50.2147 83.1898 50.3546 84.3973 50.5091 85.5974C50.5386 85.833 50.5165 86.0613 50.3914 86.2454C49.9056 86.9227 50.1043 87.6737 50.3914 88.2628C51.1053 89.7574 51.282 91.3846 51.6868 92.9528C52.2462 95.1396 53.1442 97.2012 53.9023 99.3143C53.9685 99.5057 54.101 99.6456 54.2924 99.7192C54.5574 99.2406 54.366 98.7768 54.1967 98.3424C53.8508 97.4441 54.1157 96.4133 53.5563 95.574C53.7624 94.3002 52.8865 93.2842 52.7982 92.0472C53.5784 92.0472 54.3954 92.0472 55.2124 92.0472C54.734 91.5613 54.4175 90.9943 54.2997 90.317C53.8876 90.258 53.4754 90.1771 53.0632 90.155C52.2388 90.1108 52.2462 90.1182 51.9738 89.404C51.6426 88.5425 51.4513 87.6222 51.4071 86.7387C51.3777 86.2012 51.2157 85.7447 51.1127 85.2587C51.0023 84.7286 51.3188 84.1617 50.9655 83.661C51.2452 82.7039 50.5017 81.8424 50.7005 80.8853V80.8779Z" fill="#8D9196"/>
<path d="M69.5136 114.901C69.7123 114.511 70.0141 114.173 70.0583 113.701C70.0803 113.495 70.2128 113.252 70.5146 113.319C70.7649 113.37 71.0004 113.458 71.074 113.775C71.1402 114.07 70.9857 114.438 71.3905 114.673C71.6849 114.305 71.5745 113.849 71.523 113.503C71.4641 113.09 71.5745 112.766 71.6849 112.398C71.9057 111.662 72.0676 110.918 72.2296 110.167C72.2885 109.91 72.259 109.652 71.891 109.608C71.7143 109.586 71.6039 109.431 71.6849 109.254C71.7953 109.019 71.9793 109.055 72.156 109.188C72.2517 109.262 72.3032 109.402 72.4798 109.365C72.627 108.761 73.4956 108.43 73.0466 107.583C73.687 107.789 73.6354 107.738 74.0182 107.362C74.5628 106.825 74.6217 105.934 75.4019 105.573C75.5344 105.514 75.6375 105.249 75.5418 105.05C75.4166 104.792 75.1517 104.66 74.9014 104.741C74.5776 104.844 74.2684 104.807 73.9519 104.778C73.6575 104.748 73.5913 104.549 73.6869 104.284C73.6281 104.24 73.606 104.189 73.6281 104.115L73.606 104.056C72.1265 105.691 71.2065 107.686 70.0656 109.534C69.7049 110.116 69.7049 110.881 69.4989 111.551C69.3148 112.163 69.256 112.818 69.2339 113.458C69.2192 113.944 69.543 114.393 69.5136 114.894V114.901Z" fill="#786A3D"/>
<path d="M76.0572 117.707C75.8217 117.611 75.7407 117.405 75.6598 117.191C75.5714 116.978 75.4757 116.757 75.174 116.86C74.9384 116.941 74.828 117.147 74.8133 117.383C74.8059 117.574 74.9605 117.744 74.8869 117.942C74.828 118.097 74.7618 118.252 74.5704 118.244C74.379 118.237 74.2981 118.112 74.3201 117.92C74.3422 117.744 74.5042 117.501 74.2392 117.427C73.9301 117.339 73.8049 117.618 73.6872 117.854C73.4663 118.288 73.3633 118.752 73.091 119.187C72.8039 119.643 72.3991 119.768 72.0678 120.159C71.5526 118.914 71.3907 117.722 71.5526 116.477C71.5968 116.124 71.6189 115.793 71.0816 115.947C70.9711 115.977 70.8828 115.932 70.8607 115.829C70.8239 115.689 70.8976 115.579 71.0448 115.542C71.1331 115.52 71.2361 115.542 71.3318 115.535C71.5158 115.513 71.6336 115.41 71.5894 115.218C71.5526 115.056 71.4054 115.093 71.2729 115.086C70.6841 115.049 70.1026 114.997 69.5138 114.953C69.5138 114.983 69.4917 115.019 69.4991 115.049C69.6168 115.881 69.6831 116.72 69.6831 117.56C69.6831 118.001 69.845 118.369 70.0511 118.738C70.559 119.651 70.8755 120.667 71.5673 121.477C71.6998 121.631 71.6336 121.83 71.5894 122.029C71.479 122.529 71.7293 123.001 72.1047 123.082C72.4948 123.17 72.9438 122.942 73.0247 122.434C73.2529 121.101 74.1729 120.166 74.828 119.076C74.909 118.885 74.9532 118.679 75.2034 118.635L75.2402 118.612C75.2991 118.473 75.3874 118.369 75.5641 118.377H75.5788C75.6377 118.237 75.7113 118.112 75.8879 118.097L75.9247 118.075C75.9689 117.957 76.0057 117.839 76.0499 117.722L76.0572 117.707Z" fill="#786A3D"/>
<path d="M46.2474 25.6572C46.1591 25.8855 46.2106 26.0916 46.3578 26.2831C47.3 27.52 47.587 28.9926 47.8226 30.4798C47.9035 30.9952 48.1096 31.4591 48.2716 31.9377C48.4188 32.3647 48.5881 32.7549 48.3673 33.2261C48.2274 33.5354 48.1759 33.9256 48.6396 34.1097C48.6764 34.0066 48.7132 33.9035 48.75 33.8004C48.7721 33.7342 48.7942 33.6679 48.8162 33.5943C49.1107 32.7549 49.2137 31.864 49.5008 31.0173C49.8982 29.8466 49.5744 28.6833 49.2211 27.5421C49.1843 27.4243 49.1254 27.2844 49.0297 27.2181C48.1685 26.5849 47.4546 25.6793 46.2474 25.6572Z" fill="#B4684B"/>
<path d="M54.3071 90.3026C54.4249 90.9799 54.7414 91.5469 55.2198 92.0328C56.0883 92.0623 56.8759 92.5335 57.7518 92.5335C57.9358 92.0991 57.2439 91.7899 57.5604 91.3186C58.0021 91.3775 57.8548 91.9371 58.267 92.0696C58.5688 91.6794 58.0168 91.245 58.2891 90.8695C57.9947 90.921 57.7003 90.8695 57.45 90.7443C56.449 90.2216 55.3818 90.2437 54.3071 90.2952V90.3026Z" fill="#9F8588"/>
<path d="M78.1695 0.270588C78.3535 0.0865188 78.5817 0.0938645 78.8099 0.138041C79.0454 0.292659 79.3104 0.410461 79.3398 0.75651C79.3619 1.01421 79.4797 1.24247 79.6563 1.44126C80.3188 2.21435 80.6058 3.22305 81.2756 3.98877C81.2903 4.0035 81.2241 4.09185 81.1947 4.15076C80.8266 4.13603 80.5322 3.97404 80.2746 3.7237C80.0612 3.51755 79.8477 3.32613 79.5238 3.48811C78.8982 2.67084 78.2799 1.83885 77.9561 0.837512C78.0297 0.646081 78.1033 0.46202 78.1769 0.270588H78.1695ZM79.6784 2.47205C79.7299 2.20699 79.671 1.96402 79.4061 1.83149C79.3177 1.78731 79.2221 1.84622 79.1853 1.9493C79.0749 2.23644 79.1632 2.44259 79.4281 2.5604C79.5459 2.58248 79.6563 2.58248 79.6784 2.46468V2.47205Z" fill="#B4694A"/>
<path d="M79.2371 114.909C78.685 115.115 78.501 115.888 77.9269 115.939C77.2571 115.998 77.2792 116.484 77.1025 116.882C77.9564 116.381 78.7513 115.807 79.2371 114.909Z" fill="#8B6E4D"/>
<path d="M41.0435 46.6341C41.4851 46.1408 41.7574 45.5665 41.8237 44.9038C41.3232 45.375 41.0582 45.9493 41.0435 46.6341Z" fill="#C98587"/>
<path d="M81.2096 113.893C81.0109 113.812 80.7385 113.664 80.6429 113.915C80.4736 114.334 80.0393 114.408 79.7964 114.703C80.4883 114.813 80.8195 114.298 81.2096 113.893Z" fill="#8B6E4D"/>
<path d="M77.9489 0.837432C78.0225 0.646001 78.0961 0.46194 78.1697 0.270508C77.5735 0.712274 77.0362 1.18349 77.1613 2.03757C77.4852 1.67679 77.4557 1.08777 77.9563 0.844802L77.9489 0.837432Z" fill="#C98587"/>
<path d="M76.0573 117.706C76.0131 117.824 75.9763 117.942 75.9321 118.06C76.4179 117.78 76.8963 117.486 77.0583 116.889C76.9258 116.904 76.7933 116.926 76.6682 116.941C76.5946 117.073 76.5063 117.191 76.337 117.206C76.2413 117.375 76.153 117.537 76.0573 117.706Z" fill="#8B6E4D"/>
<path d="M76.3959 59.5113C76.5136 59.2536 76.4179 59.018 76.3517 58.6572C75.969 59.0475 75.542 59.2536 75.4316 59.7543C75.5788 59.6512 75.7629 59.5776 75.8733 59.445C76.1014 59.1726 76.2339 59.3862 76.3959 59.5113Z" fill="#C98587"/>
<path d="M78.7141 64.9302C78.7656 64.378 78.3608 64.0761 78.0443 63.7227C77.9707 64.2896 78.4418 64.5547 78.7141 64.9302Z" fill="#C98587"/>
<path d="M0.178623 98.0777C0.509843 97.8863 0.64233 97.6065 0.568726 97.231C0.244866 97.4298 0.11974 97.7096 0.178623 98.0777Z" fill="#BE6D4A"/>
<path d="M79.3399 65.6962C79.3914 65.2471 79.2001 64.9893 78.729 64.9746C78.8615 65.2765 79.1117 65.4753 79.3399 65.6962Z" fill="#C98587"/>
<path d="M40.2783 48.9311C40.4771 48.6218 40.7494 48.3347 40.558 47.9224C40.2342 48.1948 40.2857 48.5703 40.2783 48.9311Z" fill="#C98587"/>
<path d="M39.7409 43.689C40.2487 43.8068 40.764 43.8142 41.2718 43.689C41.4632 43.2252 41.2718 42.7466 41.2939 42.2312C41.8533 42.187 42.2213 42.614 42.6998 42.6435C42.766 42.6435 42.8322 42.6582 42.8911 42.6729C43.0825 42.7392 43.0751 42.9159 43.0899 43.0705C43.1119 43.3577 43.1488 43.6375 43.2665 43.9173C43.4211 44.2633 43.8995 44.0203 44.0173 44.3075C43.3475 45.6181 42.6777 46.855 42.2949 48.2318C41.9564 49.4467 41.9564 50.7057 41.6767 51.9279C41.5 52.7157 41.3822 53.5109 41.7135 54.2914C41.8459 54.5933 41.6767 54.8583 41.5589 55.116C42.7734 56.0143 44.0246 55.9775 45.3716 55.3737C46.1371 55.0277 46.4978 54.3724 46.7848 53.7392C47.7122 51.7144 48.4851 49.6234 48.0214 47.3041C47.9772 47.0906 47.6828 46.5752 48.3599 46.7151C49.0224 45.5297 49.1475 45.537 50.3914 45.7432C51.6942 45.9641 52.8572 46.612 54.1379 46.8771C54.2777 46.9065 54.4323 47.0243 54.5133 47.1495C54.9549 47.8416 55.6836 47.9815 56.3828 48.195C57.1557 48.438 57.9727 48.2907 58.7455 48.519C59.0326 48.1803 58.6351 47.8342 58.7455 47.4955C58.5836 46.5531 57.9653 45.9125 57.3176 45.2793C57.0894 45.4413 56.795 45.4781 56.5742 45.3751C55.9338 45.0658 55.2051 44.9996 54.5648 44.7124C53.1148 44.0498 51.5985 43.689 50.016 43.5859C49.6775 43.5638 49.4272 43.4608 49.4125 43.1073C49.361 42.0177 48.463 41.5833 47.7858 40.9869C47.6313 41.1857 47.4399 41.3771 47.3221 41.598C46.8731 42.4447 46.1297 42.4889 45.3274 42.3563C44.6061 42.2312 44.0026 41.2225 44.1571 40.5009C44.3927 39.426 46.1297 38.2185 47.3442 39.3671C47.462 39.4775 47.5945 39.5658 47.7196 39.6689C47.8447 39.3082 48.1097 39.0799 48.4335 38.9106C48.8899 38.6676 49.361 38.4688 49.8099 38.2185C50.1412 38.0344 50.5386 37.9166 50.73 37.4528C50.3767 37.3938 50.1117 37.4748 49.9203 37.6221C49.3536 38.0418 48.647 38.0491 48.0214 38.2921C47.462 38.5056 47.278 38.2626 47.3736 37.6074C47.197 37.5779 46.932 37.6884 46.8878 37.4307C46.7995 36.9226 46.8437 36.4146 47.0792 35.9434C47.2412 35.6194 47.5061 35.7593 47.7417 35.855C47.8668 35.5458 48.0655 35.2586 48.0582 34.8979C48.0582 34.6549 48.1539 34.4782 48.4188 34.4414C48.4998 34.3162 48.5807 34.1984 48.6544 34.0732L48.6102 34.0806C48.1465 33.9039 48.198 33.5063 48.3379 33.1971C48.5587 32.7259 48.3894 32.3356 48.2422 31.9086C48.0802 31.43 47.8742 30.9661 47.7932 30.4508C47.565 28.9708 47.2706 27.4909 46.3284 26.254C46.1812 26.0625 46.1297 25.8564 46.218 25.6281C45.6587 25.3999 45.0919 25.2453 44.4883 25.2158C44.3485 25.4882 44.297 25.746 44.4736 26.0405C44.6576 26.3497 44.7386 26.7105 44.6871 27.0565C44.5178 28.2935 44.4221 29.5451 44.0467 30.7379C43.8627 31.3196 43.7597 31.9528 42.9942 32.2252C42.6335 32.3577 42.03 32.7995 42.0815 33.1971C42.2066 34.1321 41.8607 34.9715 41.7724 35.855C41.6693 36.8784 41.3822 37.8871 41.1688 38.9327C40.8155 38.7118 41.0363 38.4688 40.9848 38.2626C40.9333 38.027 41.0363 37.6515 40.683 37.6663C40.4033 37.6663 40.4622 38.0049 40.4695 38.2258C40.4769 38.5203 40.4696 38.8075 40.3223 39.0725C40.4254 39.3376 40.3223 39.426 40.0647 39.3671C39.9175 39.3302 39.7777 39.2493 39.6305 39.1904C39.2772 39.0284 38.9239 38.8664 38.5706 38.7118C38.1878 38.8149 37.8198 38.7118 37.4444 38.6308C36.5096 38.4393 35.5822 38.1596 34.6253 38.0859C34.3824 38.0712 34.0807 38.0197 33.9408 38.3142C33.8231 38.5645 34.0144 38.7412 34.169 38.9032C34.4634 39.2198 34.4119 39.5217 34.2058 39.8604C33.9114 40.3463 33.9776 40.7365 34.4119 41.0458C34.5959 41.1783 34.8094 41.2593 35.0154 41.3403C36.3477 41.8851 37.7462 42.2606 39.0269 42.9527C39.3434 43.1221 39.6967 43.2251 39.7114 43.6669L39.7409 43.689Z" fill="#BE6D4A"/>
<path d="M86.1117 9.9379C85.8614 9.70229 85.8173 9.37834 85.7437 9.0691C85.1475 6.60994 84.117 4.32749 82.667 2.26592C82.0266 1.3603 81.2464 0.513575 80.1129 0.145437C79.6713 -0.00181797 79.2444 -0.0901711 78.8101 0.145437C79.0456 0.300055 79.3106 0.417857 79.3401 0.763907C79.3621 1.0216 79.4799 1.24984 79.6566 1.44864C80.319 2.22173 80.6061 3.23044 81.2759 3.99617C81.2906 4.0109 81.2244 4.09925 81.1949 4.15815C80.8269 4.14343 80.5325 3.98143 80.2749 3.7311C80.0614 3.52494 79.8479 3.3335 79.5241 3.49549C79.6566 4.1655 79.8995 4.78398 80.2454 5.373C80.5251 5.84422 80.768 6.33016 80.9741 6.83819C81.0992 7.14006 81.0624 7.39776 80.5987 7.39776C79.9878 7.39776 79.951 7.47139 80.135 8.04569C80.3853 8.81878 80.7533 9.51823 81.3495 10.0999C81.7617 10.5048 82.1149 10.9687 82.4609 11.4325C82.667 11.705 82.5713 11.9185 82.2253 11.9774C82.034 12.0142 81.8426 12.0068 81.6586 11.9259C81.4231 12.1541 81.1213 12.0952 80.8416 12.132C80.2675 12.2056 79.6124 12.132 79.1487 12.4044C78.4347 12.8167 77.7281 12.9345 76.9479 12.883C76.7934 12.8756 76.6167 12.8757 76.4695 12.9346C75.5421 13.3248 74.5337 13.369 73.5695 13.6119C73.3928 13.6561 73.172 13.6635 73.2309 13.958C73.5106 14.1126 73.7829 14.0022 74.07 13.9727C74.4159 13.9359 74.7619 13.9506 75.0857 14.1347C76.4033 14.8636 77.7797 15.3863 79.3254 15.4158C80.0908 15.4305 80.8637 15.3643 81.6292 15.5263C81.9383 15.5925 82.2401 15.5115 82.4241 15.2759C82.7406 14.8636 83.1675 14.7973 83.6239 14.7973C83.933 14.7973 84.2053 14.7458 84.3452 14.4292C84.2789 13.2291 85.2652 12.7063 85.9497 12.0142C86.1926 11.7639 86.5975 11.7933 86.9434 11.9774C87.1642 12.1026 87.4071 12.1983 87.6353 12.3087C88.3787 12.1983 88.9087 12.8683 89.6079 12.8757C89.998 11.7712 90.5059 10.7994 91.6909 10.4165C91.8087 10.3797 91.897 10.2619 92.0148 10.2251C92.6772 10.0115 93.0526 9.40779 93.6194 9.09119C93.9947 8.88503 94.3112 8.68625 94.5688 8.3402C94.878 7.92052 95.2681 7.58182 95.8643 7.75116C96.3427 6.92653 96.5562 6.05774 96.2323 5.12267C95.327 6.3817 93.9874 7.09589 92.6846 7.83216C92.1399 8.1414 91.9191 7.92789 92.0442 7.28733C92.3533 5.66016 93.244 4.3054 94.1199 2.95065C94.2597 2.73713 94.4143 2.53833 94.5247 2.30272C93.3617 2.01557 92.3681 2.30273 91.5437 3.18626C91.6173 3.63539 91.7277 4.09924 91.3891 4.47475C90.7046 5.24047 90.4323 6.21971 90.0053 7.1106C89.63 7.89106 89.1294 8.59788 88.6216 9.29735C88.4965 9.46669 88.445 9.7612 88.1505 9.70966C87.812 9.65076 87.9444 9.37098 87.9371 9.16482C87.9297 8.95866 87.8193 8.79668 87.6868 8.65679C87.3851 8.35492 87.4071 8.03832 87.6058 7.69227C87.6868 7.55238 87.7236 7.39039 87.6721 7.22841C87.1937 8.11931 86.7226 9.0102 86.2442 9.9011C86.2883 9.99681 86.2736 10.0704 86.1632 10.0925C86.1559 10.0925 86.1264 9.99681 86.1043 9.94527L86.1117 9.9379Z" fill="#BE6D4A"/>
<path d="M18.8592 103.784C18.8003 103.931 18.815 104.115 18.9622 104.225C19.1536 104.38 19.3229 104.262 19.4848 104.152C21.3838 103.128 23.4668 102.93 25.5572 102.937C26.1975 102.937 26.8968 103.077 27.4783 103.452C27.3458 103.762 27.0808 103.806 26.7717 103.857C25.6087 104.049 24.4458 104.306 23.2755 104.483C22.7234 104.564 22.2376 104.8 21.7224 104.976C21.4795 105.057 21.3617 105.212 21.3838 105.484C21.4059 105.742 21.5163 105.956 21.7592 105.978C22.3848 106.044 22.7529 106.339 23.0694 106.913C23.2975 107.333 23.8864 107.421 24.3795 107.303C24.8653 107.193 25.3364 107.207 25.8148 107.281C26.3963 107.369 26.4331 107.524 26.146 108.017C25.778 108.65 25.2554 109.092 24.6224 109.431C24.247 109.63 23.9011 109.858 23.7318 110.27C23.0841 110.535 22.3922 110.314 21.7371 110.498C21.5605 110.55 21.347 110.462 21.1483 110.697C21.266 111.154 21.5016 111.603 21.7666 112.037C22.3186 112.95 22.7897 113.907 23.2092 114.879C23.4153 115.351 23.6067 115.836 23.5183 116.374C23.43 116.506 23.3932 116.639 23.4815 116.786C23.5184 117.552 23.246 118.215 22.7676 118.796C22.4216 118.841 22.2524 119.076 22.1493 119.378C21.5458 119.79 20.8612 119.879 20.1473 119.879C19.6688 119.879 19.1904 119.908 18.712 119.93C18.7709 119.739 18.6825 119.614 18.5206 119.547C16.8792 118.796 15.8782 117.434 15.0097 115.932C14.6564 115.328 14.2295 114.769 13.8099 114.158C13.1696 114.6 12.5807 114.99 12.014 115.402C10.2107 116.705 8.20862 117.243 6.00049 117.066C5.27181 117.007 4.60936 116.779 3.99108 116.425C3.16671 115.954 2.76188 115.233 2.74716 114.276C2.72508 112.818 3.52737 111.706 4.49159 110.837C5.77966 109.667 7.36216 108.879 9.0477 108.363C9.41572 108.253 9.79112 108.15 10.1444 108.002C10.5051 107.855 10.9835 107.98 11.2853 107.561C10.5934 107.112 9.85735 106.869 9.1581 106.552C7.33271 105.735 5.49997 104.94 3.78499 103.901C2.52635 103.136 1.45173 102.164 0.700961 100.89C0.19309 100.029 -0.263251 99.123 0.178375 98.0628C0.509595 97.8713 0.642082 97.5916 0.568478 97.2161C0.59792 97.0541 0.678881 96.9363 0.840811 96.8774C1.3634 97.3118 1.55477 97.9891 2.0332 98.4751C2.41594 98.8653 2.7987 99.2629 3.05631 99.7857C3.21824 100.11 3.6157 100.294 3.969 100.456C4.76393 100.824 5.49996 101.273 5.8459 102.149C5.90479 102.304 6.00785 102.444 6.16242 102.495C6.97207 102.76 7.58298 103.364 8.34111 103.71C8.66497 103.857 9.03298 103.85 9.34212 103.946C10.3211 104.247 11.4472 104.034 12.2937 104.837C12.7206 105.241 13.383 105.168 13.9351 105.315C14.2147 105.389 14.465 105.175 14.6784 104.954C15.0612 104.571 15.4145 104.608 15.65 105.138C15.1348 105.507 14.7741 106.051 14.2295 106.39C13.7437 106.692 13.5744 107.178 13.6848 107.73C13.7878 108.253 14.1706 108.547 14.6564 108.709C15.4218 108.96 16.6216 108.466 16.997 107.804C17.549 106.832 17.2325 105.72 16.1947 105.322C16.2462 105.205 16.3125 105.087 16.3493 104.969C16.4597 104.638 16.8203 104.321 16.6437 103.99C16.4229 103.577 15.996 103.931 15.6648 103.909C15.3998 103.887 15.1495 103.857 14.9287 103.717C14.4135 103.393 13.913 103.047 13.3904 102.738C12.853 102.422 12.5586 101.958 12.4924 101.347C12.4703 101.251 12.4261 101.163 12.4261 101.067C12.5071 98.9389 13.118 96.951 14.0896 95.0809C14.6343 94.0353 15.6279 93.5494 16.7615 93.3948C18.1673 93.196 19.529 94.1311 19.9559 95.4932C20.1914 96.2442 20.265 96.9952 20.2209 97.7756C20.1693 98.8064 19.9117 99.8077 19.7351 100.816C19.3671 101.774 19.264 102.819 18.8592 103.769V103.784ZM5.08778 115.034C5.22763 115.093 5.42637 115.196 5.5147 115.012C5.63247 114.754 5.4043 114.607 5.22028 114.489C5.05835 114.386 4.91851 114.489 4.8081 114.6C4.7345 114.865 4.91114 114.96 5.09515 115.034H5.08778Z" fill="#BE6D4A"/>
<path d="M84.3376 14.4145C84.1904 14.7237 83.9254 14.7826 83.6163 14.7826C83.1526 14.7826 82.733 14.8489 82.4165 15.2612C82.2325 15.4968 81.9308 15.5704 81.6216 15.5115C80.8561 15.3569 80.0833 15.4158 79.3178 15.4011C77.7721 15.3716 76.3957 14.8489 75.0782 14.12C74.7543 13.9433 74.4084 13.9212 74.0625 13.958C73.7828 13.9874 73.5031 14.0979 73.2234 13.9433C73.1645 13.6487 73.3853 13.6414 73.5619 13.5972C74.5262 13.3542 75.5345 13.3101 76.4619 12.9198C76.6018 12.8609 76.7785 12.8609 76.9404 12.8683C77.7206 12.9198 78.4272 12.802 79.1412 12.3897C79.6049 12.1247 80.2599 12.1909 80.8341 12.1173C81.1138 12.0805 81.4229 12.1394 81.6511 11.9111C81.5112 11.7786 81.364 11.6387 81.2242 11.5062C80.8856 11.6093 80.6206 11.4546 80.3703 11.2485C78.6259 10.7773 76.9404 10.8141 75.196 11.462C74.0698 11.8817 73.4368 12.5664 73.0835 13.6267C73.0614 13.6856 73.032 13.7445 73.0099 13.8034C72.8553 14.223 72.8774 14.6722 73.0909 15.0256C73.5178 15.7324 73.3338 16.638 74.2097 17.2639C75.748 18.3756 77.3894 18.5376 79.1485 18.4566C80.2747 18.4051 81.3787 18.2578 82.4387 17.8455C82.1442 16.7558 83.1158 16.6086 83.6973 16.2183C84.2567 15.8428 84.8308 15.9017 85.1693 16.3803C85.3975 16.7043 85.5816 16.7411 85.9349 16.7264C86.3765 16.7117 86.774 16.9988 87.2303 17.0503C87.5542 17.0872 87.6646 17.4479 87.6351 17.7424C87.5836 18.2652 87.878 18.5744 88.2828 18.6333C88.6729 18.6849 88.9968 18.4861 88.9306 17.9192C88.9085 17.7277 89.3059 17.4847 89.4679 17.2123C89.6813 16.8589 90.0861 16.6822 90.2407 16.2036C90.3511 15.8429 90.9179 15.9459 91.2859 16.0932C92.1986 16.4761 93.229 16.4245 94.1417 16.8663C94.5686 17.0724 95.1281 17.1534 95.6507 16.9841C95.9598 16.881 96.2174 17.0209 96.4309 17.2418C96.7326 17.5657 97.1448 17.6615 97.5202 17.8455C97.7778 17.9707 97.9324 17.9854 98.0943 17.632C98.3372 17.0872 98.7935 17.4258 99.1689 17.5142C98.8451 16.638 98.1017 16.1668 97.3951 15.6882C95.9672 14.7311 94.4435 13.9874 92.7285 13.6856C92.574 13.6561 92.4121 13.6561 92.2796 13.472C92.309 13.0229 92.7065 12.8094 93.0082 12.5443C94.495 11.2559 95.2974 9.56242 95.8788 7.73645C95.2826 7.56711 94.8925 7.90579 94.5834 8.32546C94.3258 8.67151 94.0092 8.87032 93.6339 9.07648C93.0671 9.38572 92.6844 9.99683 92.0293 10.2104C91.9115 10.2472 91.8232 10.365 91.7054 10.4018C90.513 10.7846 90.0126 11.7565 89.6225 12.8609C88.9158 12.8536 88.3859 12.1836 87.6498 12.294C87.9295 13.0892 88.1062 13.8917 87.6425 14.6795C87.0978 15.6146 86.3912 15.8429 85.5889 15.4232C85.0957 15.1655 84.6688 14.871 84.3523 14.4145H84.3376Z" fill="#BE6D4A"/>
<path d="M69.4107 40.8614C69.2929 41.7081 69.6315 42.5475 69.4622 43.3942C69.8523 44.3219 70.0879 45.2938 70.5295 46.2141C70.9049 47.0093 71.3759 47.7529 71.7293 48.5481C72.0163 49.196 72.4064 49.7556 72.9585 50.19C73.0247 50.0428 73.0909 49.8955 73.1572 49.7556C73.3976 49.2402 73.7975 49.0365 74.3569 49.1445C74.6072 48.9531 74.4821 48.6733 74.4894 48.4377C74.5041 47.7014 74.4968 46.9651 74.5041 46.2288C74.5041 46.008 74.4673 45.7429 74.7618 45.684C74.9605 45.6398 75.1666 45.7429 75.2549 45.9196C75.645 46.6927 76.3369 47.267 76.6902 48.0622C76.7711 48.2389 76.8595 48.4082 76.9773 48.5555C77.3453 49.0193 77.5955 49.0267 77.9488 48.5408C78.1034 48.3272 78.2359 48.1432 78.5009 48.0474C78.8174 47.937 79.0235 47.6793 79.1339 47.3627C78.8762 47.4069 78.7511 47.3627 78.729 47.0388C78.626 45.4337 78.3242 43.858 77.809 42.3339C77.1686 40.427 76.2559 38.6967 74.8648 37.1727C73.4222 35.5897 71.0079 35.6706 69.9627 37.9752C69.5506 38.8808 69.3371 39.8453 69.4107 40.854V40.8614Z" fill="#BE6D4A"/>
<path d="M57.3397 45.2936C57.2882 45.1758 57.2367 45.058 57.1778 44.9402C56.405 44.4837 55.8456 43.7548 55.0212 43.3646C53.9539 42.8565 52.8719 42.3927 51.709 42.1497C51.5471 42.2454 51.3778 42.2233 51.2894 42.0761C51.1717 41.892 51.3262 41.7963 51.4808 41.73C52.2095 41.4134 52.975 41.1925 53.6742 40.8023C54.5354 40.3311 55.2199 39.5948 56.1547 39.2488C56.2651 39.2193 56.3461 39.2488 56.3976 39.3518H56.3755C56.5448 38.8659 56.9938 38.6597 57.3544 38.3579C57.8255 37.9676 58.304 37.5921 58.6057 37.0326C59.2093 35.9355 59.1062 34.8385 58.2892 33.8298C58.0684 33.7267 57.7887 33.6678 57.8623 33.3144C57.7372 33.0419 57.5532 32.8358 57.2514 32.7695C57.1042 33.1524 56.8245 33.4984 56.4418 33.5058C55.6468 33.5279 54.9549 33.8666 54.2263 34.0875C52.7468 34.5366 51.4146 35.2287 50.3031 36.3258C50.1559 36.473 50.0014 36.5687 49.7953 36.5319C49.1549 36.4215 48.6912 36.7601 48.2496 37.1356C48.095 37.5259 47.8668 37.7836 47.4031 37.5995C47.3001 38.2548 47.4915 38.4904 48.0509 38.2842C48.6765 38.0486 49.3831 38.0413 49.9498 37.6142C50.1412 37.467 50.4062 37.386 50.7595 37.4449C50.5681 37.9087 50.1707 38.0266 49.8394 38.2106C49.3905 38.461 48.9194 38.6598 48.463 38.9027C48.1465 39.0721 47.8742 39.3003 47.7491 39.6611C47.7785 40.1029 48.0877 40.5225 47.8153 40.979C48.4925 41.5754 49.3904 42.0098 49.442 43.0995C49.4567 43.4529 49.7069 43.556 50.0455 43.5781C51.628 43.6738 53.1443 44.0419 54.5943 44.7046C55.2346 44.9991 55.956 45.058 56.6037 45.3672C56.8171 45.4703 57.1115 45.4335 57.3471 45.2715L57.3397 45.2936Z" fill="#BE6D4A"/>
<path d="M38.6 38.7334C38.9533 38.8954 39.3066 39.0574 39.6599 39.212C39.8366 38.8586 40.0942 38.9838 40.3518 39.1016C40.5064 38.8365 40.5064 38.5494 40.499 38.2549C40.499 38.034 40.4328 37.7027 40.7125 37.6953C41.0658 37.6879 40.9627 38.0561 41.0143 38.2917C41.0584 38.4905 40.845 38.7408 41.1983 38.9617C41.4117 37.9088 41.6988 36.9075 41.8018 35.8841C41.8902 35.0005 42.2361 34.1612 42.111 33.2261C42.0595 32.8285 42.663 32.3867 43.0237 32.2542C43.7965 31.9818 43.8996 31.3412 44.0762 30.7669C44.4516 29.5742 44.5399 28.3225 44.7166 27.0855C44.7681 26.7321 44.6871 26.3787 44.5031 26.0695C44.3265 25.7823 44.3854 25.5173 44.5178 25.2449C44.0394 25.0976 43.5757 25.0976 43.1047 25.2964C42.8397 25.4068 42.5526 25.4805 42.2656 25.5173C41.132 25.6572 40.2414 26.3051 39.4171 26.9898C37.9671 28.19 37.8861 29.8539 37.9891 31.5916C38.0627 32.8948 38.6589 34.0434 38.8429 35.3098C38.8871 35.6043 39.1374 35.8693 39.2919 36.1565C39.5348 36.613 39.6452 37.1063 39.7041 37.6879C38.6 37.5333 37.5622 37.3861 36.5244 37.2462C36.6348 37.8941 36.7526 38.0266 37.4886 38.1665C37.9229 38.2549 38.3866 38.2622 38.6074 38.7482L38.6 38.7334Z" fill="#BE6D4A"/>
<path d="M38.5999 38.7338C38.3791 38.2479 37.9154 38.2405 37.4812 38.1521C36.7525 38.0122 36.6347 37.8797 36.5169 37.2318C34.5959 36.8563 32.6527 36.7238 30.7022 36.9226C30.0766 36.9815 29.4436 37.2097 28.9357 37.6368C28.4057 38.0859 28.1923 38.6749 28.3616 39.367C28.6192 40.4272 29.2154 41.2003 30.209 41.701C31.5118 42.3563 32.8809 42.8275 34.3088 43.0778C35.7956 43.3429 37.2898 43.5417 38.784 43.7478C39.0931 43.792 39.4243 43.8067 39.7335 43.6963C39.7187 43.2545 39.3581 43.1515 39.0489 42.9821C37.7682 42.2974 36.3697 41.9145 35.0375 41.3697C34.8314 41.2813 34.6106 41.2003 34.434 41.0752C33.9997 40.7659 33.9334 40.3757 34.2279 39.8898C34.434 39.5511 34.4855 39.2492 34.191 38.9326C34.0438 38.7706 33.8525 38.5939 33.9629 38.3436C34.1027 38.0491 34.4045 38.1006 34.6474 38.1153C35.6042 38.189 36.5317 38.4687 37.4665 38.6602C37.8418 38.7412 38.2099 38.8443 38.5926 38.7412L38.5999 38.7338Z" fill="#BE6D4A"/>
<path d="M83.1526 67.7722C82.9171 66.4396 82.056 65.3867 81.5334 64.1866C81.4524 63.9951 81.2905 63.8773 81.0844 63.8847C80.6501 63.8921 80.4514 63.6932 80.3998 63.2588C80.3557 62.8318 80.0613 62.5079 79.8036 62.1839C79.3473 61.6096 78.7806 61.0795 79.2075 60.2328C79.2516 60.137 79.2295 59.9456 79.1559 59.872C78.6481 59.364 78.5082 58.6351 78.1696 58.0902C77.993 58.0387 77.9194 58.0902 77.8531 58.1638C77.5514 58.5172 77.3011 58.5541 77.0509 58.0902C76.8227 57.6779 76.4399 57.6411 76.0498 57.8325C75.564 58.0681 74.9531 58.208 74.6808 58.6645C74.2612 59.3713 73.8638 60.115 73.7092 60.947C73.6945 61.0059 73.8196 61.0942 73.8785 61.1678C74.4747 60.785 75.0562 60.38 75.4242 59.7468C75.5346 59.2462 75.9615 59.0327 76.3442 58.6498C76.4178 59.0106 76.5135 59.2535 76.3884 59.5038C76.4179 59.5996 76.4546 59.6953 76.4841 59.791C76.5577 59.872 76.5724 59.9603 76.5282 60.0561C76.7638 60.7408 77.0067 61.4255 77.2496 62.1176C77.7354 62.2575 77.728 62.5962 77.5955 62.9864C77.6912 63.1263 77.7869 63.2662 77.8899 63.4061C77.912 63.465 77.9267 63.5239 77.9488 63.5828C77.9635 63.6417 78.0004 63.6933 78.0445 63.7301C78.361 64.0835 78.7658 64.378 78.7143 64.9376L78.729 64.9744C79.1927 64.9965 79.3841 65.2468 79.3399 65.696C80.3189 66.6163 81.3714 67.4115 82.6889 67.7943C82.8509 67.8385 82.9981 67.8606 83.1453 67.7722H83.1526Z" fill="#BE6D4A"/>
<path d="M53.9464 50.5066C55.0136 50.779 56.0809 50.6317 57.1555 50.5581C57.2954 50.4256 57.4058 50.2636 57.5677 50.1753C58.2302 49.8145 58.6129 49.2696 58.7601 48.5407C57.9873 48.3125 57.1703 48.4597 56.3974 48.2168C55.6982 47.9959 54.9695 47.8633 54.5279 47.1712C54.4469 47.0461 54.2923 46.9283 54.1525 46.8988C52.8717 46.6338 51.7088 45.9858 50.406 45.7649C49.1547 45.5514 49.037 45.5441 48.3745 46.7368C49.9644 48.4008 51.7824 49.7114 53.9537 50.5066H53.9464Z" fill="#BE6D4A"/>
<path d="M81.2168 11.4988C81.3567 11.6313 81.5039 11.7712 81.6437 11.9037C81.8278 11.9847 82.0191 11.9921 82.2105 11.9552C82.5565 11.8963 82.6521 11.6828 82.4461 11.4104C82.0928 10.9539 81.7468 10.4827 81.3346 10.0777C80.7384 9.49607 80.3777 8.79663 80.1201 8.02353C79.9288 7.44924 79.9729 7.37561 80.5838 7.37561C81.0549 7.37561 81.0844 7.1179 80.9592 6.81603C80.7531 6.31536 80.5102 5.82207 80.2305 5.35085C79.8846 4.76183 79.6417 4.14334 79.5092 3.47333C78.8836 2.65606 78.2653 1.82409 77.9414 0.822754C77.4409 1.06573 77.4777 1.66211 77.1465 2.01552C77.1097 2.19959 77.0803 2.38365 77.0435 2.56036C77.095 2.72234 77.0435 2.84749 76.9404 2.9653C77.0361 4.71764 77.544 6.35219 78.361 7.88364C78.6922 8.50211 79.097 9.08377 79.6196 9.56235C79.8625 9.57708 80.0024 9.69488 79.9876 9.95257C80.1569 10.2839 80.4293 10.5342 80.6942 10.7919C80.9666 10.9465 81.3272 11.0275 81.2095 11.4767L81.2168 11.4988Z" fill="#BE6D4A"/>
<path d="M48.2496 37.1579C48.6985 36.7824 49.1549 36.4363 49.7953 36.5541C50.0013 36.591 50.1559 36.4879 50.3031 36.348C51.4072 35.2509 52.7394 34.5588 54.2262 34.1097C54.9549 33.8888 55.6468 33.5501 56.4417 33.528C56.8245 33.5207 57.1042 33.1746 57.2514 32.7918C55.6983 31.5843 54.0496 31.5254 52.2978 32.3426C51.1054 32.8948 50.0234 33.6164 48.9194 34.3011C48.8237 34.5294 48.6544 34.5662 48.4409 34.4705C48.176 34.5073 48.0803 34.684 48.0803 34.927C48.0803 35.2877 47.8963 35.5749 47.7638 35.8841C47.8226 36.3185 47.5724 36.7603 47.8153 37.1873C47.9625 37.1873 48.1023 37.18 48.2496 37.1726V37.1579Z" fill="#BE6D4A"/>
<path d="M41.566 55.1307C41.6837 54.8656 41.8457 54.6079 41.7206 54.306C41.3893 53.5256 41.4997 52.7304 41.6837 51.9426C41.9634 50.7204 41.9634 49.4613 42.302 48.2465C42.6848 46.8623 43.3546 45.6327 44.0244 44.3221C43.9066 44.035 43.4282 44.278 43.2736 43.9319C43.1485 43.6595 43.119 43.3797 43.097 43.0852C43.0822 42.9306 43.097 42.7539 42.8982 42.6876C42.8394 42.6655 42.7731 42.6581 42.7069 42.6581C42.2284 42.6361 41.8604 42.2017 41.301 42.2458C41.2716 42.7539 41.4703 43.2398 41.2789 43.7037C41.5365 43.711 41.7942 43.7184 42.0518 43.7258C42.1548 43.6521 42.28 43.6079 42.3683 43.7184C42.4566 43.8288 42.4198 43.9393 42.2799 43.9982C42.1327 44.3 41.9782 44.6093 41.831 44.9111C41.7574 45.5738 41.4924 46.1481 41.0508 46.6414C40.8079 47.039 40.6975 47.4881 40.565 47.9299C40.7637 48.3422 40.484 48.6293 40.2853 48.9386C40.2558 49.0417 40.219 49.1447 40.1896 49.2478C40.3221 49.4319 40.2632 49.5939 40.1086 49.7338C40.0865 49.8295 40.0645 49.9326 40.035 50.0283C40.2043 50.2712 40.0792 50.4774 39.9393 50.6688C39.9393 50.7866 39.9246 50.8971 39.9172 51.0149C40.1086 51.1769 40.1086 51.3609 39.9541 51.545C39.5713 52.8335 40.2632 53.8201 40.8888 54.8067C40.9992 54.9834 41.3378 55.0276 41.566 55.1307Z" fill="#BE6D4A"/>
<path d="M77.5955 62.9865C77.7353 62.5962 77.7353 62.2649 77.2495 62.1177C77.3378 62.4195 77.3158 62.7582 77.5955 62.9865Z" fill="#BE6D4A"/>
<path d="M57.8619 33.3291C57.781 33.6825 58.0607 33.7414 58.2888 33.8445C58.2447 33.5941 58.0901 33.4322 57.8619 33.3291Z" fill="#BE6D4A"/>
<path d="M75.3654 146.775C75.0489 146.664 74.9458 146.893 74.8428 147.113C75.1004 147.128 75.2476 146.974 75.3654 146.775Z" fill="#8B6E4D"/>
<path d="M39.9397 50.6689C40.0795 50.4701 40.2046 50.2713 40.0353 50.0283C39.7777 50.2124 39.8661 50.4406 39.9397 50.6689Z" fill="#C98587"/>
<path d="M48.4482 34.4634C48.6617 34.5591 48.8236 34.5296 48.9267 34.294C48.8457 34.2278 48.7648 34.1615 48.6911 34.0952C48.6102 34.2204 48.5366 34.3382 48.4556 34.4634H48.4482Z" fill="#C98587"/>
<path d="M63.2355 113.193C63.1693 113.422 62.9926 113.613 63.0368 113.871C63.1546 113.657 63.4342 113.495 63.2355 113.193Z" fill="#8D9196"/>
<path d="M40.109 49.7262C40.2636 49.5863 40.3151 49.4243 40.1899 49.2402C39.947 49.3654 40.0354 49.5495 40.109 49.7262Z" fill="#C98587"/>
<path d="M39.9541 51.5448C40.1086 51.3533 40.116 51.1766 39.9173 51.0146C39.7995 51.1987 39.8363 51.3754 39.9541 51.5448Z" fill="#C98587"/>
<path d="M42.2726 43.9905C42.4125 43.9316 42.4566 43.8285 42.3609 43.7107C42.2726 43.6003 42.1475 43.6444 42.0444 43.7181C42.118 43.8064 42.1916 43.8948 42.2726 43.9831V43.9905Z" fill="#C98587"/>
<path d="M79.995 9.98202C80.0097 9.71696 79.8698 9.60652 79.627 9.5918C79.6785 9.79059 79.7815 9.93785 79.995 9.98202Z" fill="#C98587"/>
<path d="M75.2255 118.62C74.9752 118.664 74.9237 118.877 74.8501 119.061C75.1004 119.017 75.1151 118.782 75.2255 118.62Z" fill="#8B6E4D"/>
<path d="M75.9029 118.082C75.7262 118.097 75.6526 118.215 75.5938 118.362C75.8219 118.406 75.8367 118.222 75.9029 118.082Z" fill="#8B6E4D"/>
<path d="M75.586 118.362C75.4168 118.355 75.3285 118.458 75.2622 118.598C75.4315 118.598 75.5051 118.473 75.586 118.362Z" fill="#8B6E4D"/>
<path d="M79.7523 114.71C79.6124 114.695 79.5315 114.776 79.4873 114.894C79.664 114.953 79.6787 114.791 79.7523 114.71Z" fill="#8B6E4D"/>
<path d="M74.7692 147.15C74.6515 147.15 74.5852 147.224 74.5337 147.327C74.703 147.393 74.7103 147.239 74.7692 147.15Z" fill="#8B6E4D"/>
<path d="M76.9404 2.98746C77.0434 2.86966 77.1023 2.73714 77.0434 2.58252C76.9109 2.69296 76.8741 2.82548 76.9404 2.98746Z" fill="#C98587"/>
<path d="M48.8089 33.5869C48.7869 33.6532 48.7648 33.7194 48.7427 33.7931C48.831 33.7489 48.8457 33.6753 48.8089 33.5869Z" fill="#C98587"/>
<path d="M72.701 147.474C72.6422 147.474 72.5833 147.489 72.5317 147.526C72.6053 147.562 72.6569 147.54 72.701 147.474Z" fill="#8B6E4D"/>
<path d="M73.1427 147.46C73.0985 147.445 73.0617 147.46 73.0249 147.474L73.0911 147.511L73.15 147.46H73.1427Z" fill="#8B6E4D"/>
<path d="M73.5769 147.452C73.5254 147.437 73.4739 147.452 73.4297 147.474L73.5107 147.511L73.5769 147.452Z" fill="#8B6E4D"/>
<path d="M74.254 147.327C74.2172 147.32 74.1804 147.327 74.1436 147.342L74.2025 147.379L74.254 147.327Z" fill="#8B6E4D"/>
<path d="M77.949 63.5829C77.9269 63.524 77.9122 63.4652 77.8901 63.4062C77.8386 63.4946 77.8533 63.5535 77.949 63.5829Z" fill="#C98587"/>
<path d="M76.5356 60.0634C76.5798 59.9677 76.5724 59.8793 76.4915 59.7983C76.44 59.8941 76.4547 59.9824 76.5356 60.0634Z" fill="#C98587"/>
<path d="M48.448 86.798C48.448 86.7611 48.448 86.717 48.4333 86.6802L48.4038 86.7464L48.448 86.798Z" fill="#8D9196"/>
<path d="M48.4113 86.3855C48.426 86.334 48.4187 86.2825 48.3966 86.2383C48.3598 86.2898 48.3598 86.3414 48.4113 86.3855Z" fill="#8D9196"/>
<path d="M23.7246 110.277C24.2325 110.277 24.7182 110.167 25.1746 109.931C25.2335 109.814 25.2629 109.674 25.3512 109.593C25.9695 109.033 26.5805 108.459 27.2355 107.943C27.552 107.693 27.9716 107.737 28.3322 107.943C28.5236 108.054 28.6782 108.223 28.8548 108.363C30.0987 107.531 30.3858 105.926 29.4437 104.755C28.9358 104.13 28.3396 103.57 27.4784 103.452C27.3459 103.761 27.081 103.806 26.7718 103.857C25.6089 104.049 24.4459 104.306 23.2756 104.483C22.7236 104.564 22.2378 104.8 21.7225 104.976C21.4796 105.057 21.3619 105.212 21.384 105.484C21.4061 105.742 21.5165 105.955 21.7594 105.978C22.385 106.044 22.753 106.338 23.0695 106.913C23.2977 107.332 23.8865 107.421 24.3797 107.303C24.8655 107.192 25.3365 107.207 25.8149 107.281C26.3964 107.369 26.4332 107.524 26.1462 108.017C25.7782 108.65 25.2556 109.092 24.6226 109.431C24.2472 109.63 23.9012 109.858 23.732 110.27L23.7246 110.277Z" fill="#BE6D4A"/>
<path d="M16.1873 105.337C16.0033 105.278 15.8267 105.212 15.6427 105.153C15.1274 105.521 14.7668 106.066 14.2221 106.405C13.7363 106.707 13.567 107.193 13.6774 107.745C13.7805 108.268 14.1632 108.562 14.649 108.724C15.4145 108.975 16.6142 108.481 16.9896 107.819C17.5417 106.847 17.2252 105.735 16.1873 105.337Z" fill="#C98587"/>
<path d="M4.80812 114.6C4.73452 114.865 4.91116 114.96 5.09517 115.034C5.23502 115.093 5.43376 115.196 5.52209 115.012C5.63985 114.754 5.41166 114.607 5.22765 114.489C5.06572 114.386 4.92587 114.489 4.81547 114.6H4.80812Z" fill="#C98587"/>
<path d="M23.0916 119.179C22.9149 119.113 22.7677 119.025 22.7604 118.804C22.4144 118.848 22.2451 119.084 22.1421 119.385C22.4807 119.437 22.834 119.525 23.0916 119.179Z" fill="#C98587"/>
<path d="M23.4813 116.786C23.5917 116.661 23.577 116.521 23.5181 116.374C23.4298 116.507 23.393 116.639 23.4813 116.786Z" fill="#C98587"/>
<path d="M68.9766 141.319C69.3888 140.332 68.8368 139.508 68.4761 138.668C68.2774 138.212 67.7695 138.33 67.4088 138.396C67.1586 138.197 67.3794 137.932 67.2616 137.822C66.8862 137.468 66.7317 137.115 67.0114 136.622C67.0923 136.482 66.9525 136.305 66.8494 136.187C66.1281 135.377 65.5687 134.428 64.7959 133.662C64.3543 133.765 63.9421 133.286 63.6109 133.441C62.8012 133.802 62.5068 133.286 62.1314 132.793C61.837 132.41 61.5131 132.035 60.9905 132.005C60.6888 131.99 60.5342 131.821 60.3649 131.622C59.9453 131.151 59.5626 130.628 59.0842 130.223C58.3113 129.568 57.3545 129.163 56.5816 128.486C56.3535 128.287 56.1768 128.375 56.0369 128.611C55.7867 129.053 55.9781 129.399 56.3535 129.568C56.8245 129.782 57.1042 130.135 57.3913 130.525C57.6562 130.886 57.9875 131.195 58.407 131.387C58.9958 131.659 59.1725 132.307 59.6068 132.734C59.7393 132.859 59.7319 133.176 59.5626 133.36C59.3565 133.581 59.121 133.434 58.9517 133.323C58.2525 132.859 57.4354 132.668 56.692 132.3C56.5522 132.226 56.3976 132.152 56.2872 132.049C55.7499 131.556 55.0654 131.343 54.4103 131.092C54.0791 130.967 53.7773 130.834 53.4755 130.658C52.6732 130.201 51.8709 129.701 51.0024 129.421C49.5892 128.972 48.0729 128.847 46.7922 128.015C46.7407 127.978 46.6745 127.948 46.6156 127.941C46.0856 127.845 45.5483 127.661 44.8859 127.889C45.3864 128.258 45.8059 128.456 46.2917 128.53C46.6745 128.589 47.0499 128.648 47.4252 128.743C47.7417 128.824 47.7785 129.097 47.7417 129.362C47.7123 129.627 47.4768 129.612 47.2928 129.605C46.8143 129.583 46.3359 129.531 45.8575 129.494C45.6072 129.701 45.3496 129.885 45.0552 130.025C44.6062 130.253 44.5694 130.569 44.9963 130.776C45.7176 131.129 46.4095 131.571 47.2191 131.696C48.5146 131.887 49.8027 132.145 51.0907 132.395C52.0844 132.587 53.0339 133.08 53.8877 133.669C54.425 134.045 54.9991 134.266 55.6248 134.457C56.6037 134.759 57.6563 134.921 58.5542 135.348C59.2829 135.687 60.0631 136.069 60.674 136.762C61.2187 137.373 62.1314 137.66 62.8748 138.094C63.1987 138.286 63.6477 138.286 63.7949 138.727C64.4058 139.014 65.1639 138.941 65.6865 139.39C66.452 140.053 67.4898 140.229 68.2258 140.921C68.4246 141.113 68.7411 141.179 68.9987 141.304L68.9766 141.319Z" fill="#837740"/>
<path d="M45.8351 129.509C46.3135 129.546 46.792 129.597 47.2704 129.62C47.4544 129.627 47.6899 129.642 47.7194 129.377C47.7488 129.112 47.7194 128.832 47.4029 128.758C47.0349 128.662 46.6521 128.604 46.2694 128.545C45.7836 128.471 45.364 128.265 44.8635 127.904C45.526 127.676 46.0633 127.86 46.5932 127.956C46.6521 127.963 46.7184 128 46.7699 128.029C48.058 128.861 49.5742 128.986 50.9801 129.436C51.8486 129.715 52.6509 130.216 53.4532 130.672C53.7623 130.849 54.0641 130.982 54.388 131.107C55.043 131.357 55.7275 131.571 56.2649 132.064C56.3826 132.167 56.5298 132.248 56.6697 132.314C57.4131 132.675 58.2301 132.874 58.9294 133.338C59.0986 133.456 59.3342 133.595 59.5403 133.375C59.7096 133.191 59.7169 132.874 59.5844 132.749C59.1502 132.329 58.9809 131.674 58.3847 131.401C57.9651 131.21 57.6265 130.901 57.3689 130.54C57.0819 130.15 56.8022 129.796 56.3311 129.583C55.9557 129.406 55.7644 129.06 56.0146 128.626C55.411 128.39 54.8369 128.015 54.3438 127.536C54.2555 127.448 54.1524 127.359 54.042 127.308C53.2324 126.932 52.3638 126.63 51.8928 125.776C51.8633 125.732 51.7897 125.688 51.7308 125.688C51.1346 125.688 50.6783 125.224 50.1115 125.158C50.0674 125.224 50.0011 125.268 50.0011 125.32C49.9349 126.056 49.8171 126.115 49.2136 125.769C48.9927 125.644 48.7498 125.482 48.5143 125.474C47.4544 125.438 46.4092 125.209 45.3714 125.187C44.2232 125.165 43.097 124.996 41.9709 124.871C40.9551 124.76 40.0056 124.731 39.1813 125.43C39.3432 125.791 39.1445 126.063 38.9237 126.292C38.7176 126.505 38.5777 126.755 38.46 127.021C39.1298 127.183 39.5567 127.691 39.6229 128.272C39.7039 129.001 40.197 129.185 40.6902 129.274C41.463 129.413 42.1255 129.774 42.8247 130.061C43.1118 129.686 42.7658 129.355 42.6775 128.927C43.8331 128.869 44.8488 129.119 45.8351 129.517V129.509Z" fill="#70623A"/>
<path d="M42.825 130.054C42.1258 129.767 41.456 129.406 40.6905 129.266C40.2047 129.178 39.7116 129.001 39.6232 128.265C39.557 127.683 39.1301 127.168 38.4603 127.013C38.1659 126.881 37.8788 126.756 37.5844 126.623C37.1575 126.719 36.7527 126.66 36.3626 126.476C34.942 126.402 33.6245 125.894 32.2554 125.614C32.2775 125.504 32.2775 125.401 32.3069 125.393C32.6897 125.283 33.0724 125.158 33.0651 124.665C33.0651 124.223 32.7706 124.002 32.3953 123.81C31.3722 123.302 30.2387 123.207 29.1567 122.942C28.0084 122.662 26.8234 122.64 25.6678 122.301C24.8214 122.051 23.8866 122.051 22.9886 122.058C21.8109 122.058 20.6333 122.073 19.4703 121.83C18.3295 121.587 17.1665 121.734 16.0183 121.697C15.5766 121.683 15.1277 121.499 14.686 121.727C14.9142 122.25 15.3853 122.257 15.8343 122.198C17.1223 122.036 18.3883 122.007 19.6323 122.456C20.0371 122.603 20.5449 122.301 20.8909 122.728C20.8762 123.037 20.5965 123.03 20.464 122.993C19.5881 122.772 18.8668 123.405 18.0129 123.361C17.4388 123.332 17.034 123.634 16.9972 124.311C17.3211 124.48 17.667 124.363 18.0056 124.363C18.1307 124.363 18.3295 124.363 18.3442 124.237C18.4472 123.354 19.0876 123.707 19.5219 123.744C21.0528 123.884 22.5985 123.899 24.1148 124.223C24.2399 124.252 24.4165 124.215 24.4902 124.289C25.2704 125.114 26.3965 124.966 27.346 125.29C28.1041 125.548 28.9653 125.6 29.7897 125.747C31.1145 125.982 32.3732 126.461 33.6833 126.756C33.8306 126.792 33.9851 126.866 34.044 127.05C33.9336 127.337 33.7349 127.153 33.5656 127.131C32.3585 126.962 31.1145 126.925 29.9516 126.594C28.082 126.056 26.161 125.982 24.2767 125.636C23.9749 125.578 23.7099 125.526 23.4744 125.762C23.4376 125.872 23.4008 125.982 23.364 126.093C23.7836 126.262 24.1737 126.542 24.6595 126.461C24.7551 126.292 24.7846 125.968 25.0716 126.137C25.2556 126.248 25.0937 126.461 25.0127 126.623C25.8297 126.579 26.61 126.932 27.427 126.873C27.6993 126.38 27.8833 126.689 28.0673 126.947C28.3102 127.094 28.5826 127.102 28.8623 127.087C28.9653 126.903 29.1125 126.785 29.2818 126.984C29.4732 127.205 29.7529 127.256 29.9884 127.389C31.88 127.418 33.6245 128.015 35.3247 128.78C36.2448 129.237 37.2605 129.406 38.2174 129.737C39.5349 130.201 40.9039 130.562 42.1552 131.225C42.5159 131.416 42.6925 131.77 43.0017 131.99C43.193 132.13 43.4065 132.329 43.6862 132.152C43.4212 131.777 44.1646 131.549 43.8481 131.173C43.5169 130.783 43.1636 130.415 42.825 130.032V130.054Z" fill="#9D6955"/>
<path d="M59.327 145.228C59.4595 144.897 59.8496 144.86 60.0484 144.61C60.1882 144.426 60.3943 144.411 60.5636 144.529C61.042 144.868 61.6309 144.941 62.1461 145.162C63.2281 145.611 64.4131 145.788 65.5908 145.913C65.6423 145.913 65.7454 145.884 65.7527 145.847C65.9514 144.971 66.6433 145.324 67.0629 145.435C67.637 145.582 68.1228 145.567 68.638 145.332C69.0723 145.133 69.5139 145.214 69.9629 145.332C70.088 145.368 70.2352 145.309 70.3015 145.199C70.3824 145.074 70.2794 144.978 70.1984 144.875C69.8304 144.382 69.4403 143.955 68.7411 143.955C68.5055 143.955 68.27 143.771 68.0271 143.668C67.7621 143.55 67.5045 143.388 67.2395 143.675C67.1733 143.749 67.0114 143.771 66.9819 143.704C66.6949 142.894 65.657 143.189 65.2448 142.475C65.0167 142.077 64.4131 142.033 63.9052 142.151C63.5887 142.224 63.2722 142.276 62.9484 142.195C61.9474 141.937 61.1303 142.224 60.5194 143.049C60.306 143.344 60.0852 143.24 59.8423 143.145C59.489 143.211 59.1651 143.02 58.7971 142.946C58.8928 143.277 59.489 143.226 59.2976 143.587C59.0989 143.947 58.7309 143.697 58.4438 143.572C57.9727 143.366 57.4943 143.167 57.0379 142.931C54.9476 141.849 52.6879 141.172 50.546 140.214C50.0455 139.986 49.4714 139.913 48.8311 139.743C48.9194 140.251 49.1917 140.443 49.5229 140.583C50.9509 141.157 52.2831 141.937 53.792 142.364C54.609 142.6 55.3892 142.983 56.0737 143.668C56.9128 144.514 58.0463 145.096 59.305 145.243L59.327 145.228Z" fill="#9D6955"/>
<path d="M12.0434 126.564C11.6238 126.343 11.3147 126.255 10.9761 126.387C10.9467 126.402 10.932 126.594 10.9761 126.63C11.3 126.888 11.6018 126.682 12.0434 126.564Z" fill="#C98587"/>
<path d="M31.8943 128.287C31.7692 128.184 31.703 127.919 31.4748 128.051C31.3276 128.14 31.4306 128.331 31.4233 128.479C31.6588 128.604 31.8134 128.537 31.8943 128.287Z" fill="#9F8588"/>
<path d="M58.002 140.413C58.0167 140.553 58.1124 140.62 58.2375 140.627C58.3332 140.627 58.3994 140.561 58.3921 140.458C58.3847 140.355 58.2964 140.31 58.2007 140.296C58.105 140.281 58.024 140.303 58.002 140.413Z" fill="#8B6E4D"/>
<path d="M59.1504 140.804C59.2093 140.804 59.2682 140.804 59.327 140.804C59.327 140.745 59.3491 140.664 59.327 140.634C59.2976 140.605 59.2166 140.627 59.1578 140.627C59.1578 140.686 59.1578 140.745 59.1578 140.804H59.1504Z" fill="#8B6E4D"/>
<path d="M33.4327 129.038C33.3297 128.972 33.2267 128.906 33.1236 128.832C33.1015 128.965 32.9764 129.127 33.1751 129.2C33.2929 129.252 33.3812 129.149 33.4327 129.031V129.038Z" fill="#9F8588"/>
<path d="M80.1641 54.4457C80.142 54.0113 80.1199 53.5769 80.0979 53.1499C79.6268 52.6787 79.1704 52.2001 78.4933 51.9866C77.7352 51.7362 76.9034 51.9866 76.2925 52.7302C75.9024 53.2088 75.9171 53.9377 76.4029 54.593C76.7636 55.0863 77.2494 55.4691 77.8161 55.7048C78.427 55.9625 79.0159 55.8226 79.509 55.3882C79.7961 55.1305 80.0316 54.8286 80.1567 54.4531L80.1641 54.4457Z" fill="#C98587"/>
<path d="M73.1279 50.3965C73.1279 50.5953 73.1279 50.8014 73.0249 50.9855C73.5033 51.1033 73.5549 51.5672 73.783 51.8985C73.8934 52.0605 73.9891 52.355 74.2688 52.2445C74.497 52.1562 74.5117 51.8985 74.5191 51.6703C74.5485 50.9561 74.313 50.6689 73.5843 50.529C73.4297 50.4996 73.2825 50.4407 73.1279 50.3965Z" fill="#B4684B"/>
<path d="M47.8076 41.0014C48.0873 40.5449 47.7708 40.1252 47.7413 39.6835C47.6162 39.5804 47.4837 39.492 47.3659 39.3816C46.1515 38.233 44.4144 39.4405 44.1789 40.5154C44.0243 41.237 44.6205 42.2457 45.3492 42.3709C46.1441 42.5034 46.8949 42.4592 47.3439 41.6125C47.4616 41.3916 47.653 41.2075 47.8076 41.0014Z" fill="#C98587"/>
<path d="M47.8153 37.1802C47.5797 36.7531 47.83 36.3114 47.7637 35.877C47.5282 35.7813 47.2706 35.6414 47.1013 35.9653C46.8584 36.4365 46.8216 36.9446 46.9099 37.4526C46.9541 37.7029 47.2191 37.5999 47.3957 37.6293C47.4767 37.4232 47.6607 37.3201 47.8153 37.1802Z" fill="#B4694A"/>
<path d="M40.3516 39.102C40.0939 38.9842 39.8437 38.859 39.6597 39.2124C39.8069 39.2713 39.9467 39.3523 40.0939 39.3891C40.3442 39.4554 40.4546 39.3597 40.3516 39.0946V39.102Z" fill="#B4694A"/>
<path d="M81.7467 106.677C81.629 106.626 81.5112 106.574 81.3934 106.515C80.6647 106.648 80.2967 107.244 79.833 107.715C79.7815 107.767 79.7594 107.899 79.7815 107.98C79.833 108.128 79.9728 108.128 80.098 108.083C80.2157 108.039 80.3924 108.01 80.4366 107.921C80.7383 107.362 81.3566 107.141 81.7394 106.677H81.7467Z" fill="#70623A"/>
<path d="M77.6323 115.012C77.1391 114.43 76.83 114.923 76.3516 115.166C76.9036 115.498 77.2201 114.938 77.6323 115.012Z" fill="#70623A"/>
<path d="M76.2852 103.754C76.344 103.776 76.4029 103.798 76.4618 103.82C76.5796 103.864 76.7121 103.901 76.8004 103.776C76.8298 103.739 76.8225 103.644 76.8004 103.614C76.6753 103.489 76.5354 103.452 76.4029 103.607C76.3588 103.651 76.3293 103.71 76.2925 103.761L76.2852 103.754Z" fill="#9F8588"/>
<path d="M75.7188 116.183C75.8219 116.212 75.9028 116.183 75.9396 116.087C75.9911 115.962 75.9838 115.829 75.8292 115.807C75.7703 115.8 75.6746 115.888 75.6378 115.954C75.5863 116.043 75.6379 116.131 75.7188 116.183Z" fill="#8B6E4D"/>
<path d="M76.3371 117.206C76.5064 117.191 76.5947 117.081 76.6683 116.941C76.4255 116.867 76.1752 116.779 76.3371 117.206Z" fill="#786A3D"/>
<path d="M73.621 104.123C73.6063 104.189 73.621 104.248 73.6799 104.292C73.6578 104.233 73.6358 104.181 73.621 104.123Z" fill="#685E34"/>
<path d="M75.1962 138.079C75.1079 137.667 74.8209 137.571 74.313 137.483C74.7325 137.682 74.7472 138.138 75.1962 138.079Z" fill="white"/>
<path d="M72.5759 140.841C72.5097 141.224 72.7526 141.275 73.0396 141.268C73.0765 140.914 73.047 140.635 72.5759 140.841Z" fill="white"/>
<path d="M56.3977 39.3596C56.3388 39.2638 56.2578 39.2344 56.1548 39.2565C56.1621 39.3448 56.1769 39.4479 56.2799 39.4626C56.3167 39.4626 56.3535 39.3964 56.3977 39.3596Z" fill="white"/>
<path d="M39.1814 125.423C40.0131 124.723 40.9552 124.753 41.971 124.863C43.0971 124.988 44.2233 125.158 45.3715 125.18C46.4093 125.202 47.4545 125.43 48.5144 125.467C48.7499 125.474 48.9928 125.636 49.2137 125.761C49.8172 126.107 49.935 126.049 50.0012 125.312C50.0012 125.261 50.0675 125.217 50.1116 125.15C50.6784 125.224 51.1347 125.673 51.7309 125.68C51.7825 125.68 51.8634 125.725 51.8929 125.769C52.3713 126.623 53.2325 126.917 54.0421 127.3C54.1525 127.352 54.2556 127.44 54.3439 127.528C54.837 128.007 55.4111 128.383 56.0147 128.618C56.1546 128.383 56.3386 128.294 56.5594 128.493C57.3249 129.17 58.2817 129.575 59.0619 130.231C59.5404 130.636 59.9231 131.151 60.3427 131.629C60.5119 131.821 60.6739 131.99 60.9683 132.012C61.4909 132.042 61.8147 132.417 62.1092 132.8C62.4845 133.293 62.779 133.809 63.5886 133.448C63.9198 133.293 64.3394 133.772 64.7737 133.669C64.7369 132.182 63.8977 131.129 62.8231 130.253C62.4698 129.966 62.2858 129.745 62.514 129.318C62.4478 129.251 62.4036 129.148 62.3226 129.111C60.9757 128.589 60.0335 127.374 58.6277 126.939C58.1713 126.8 57.8475 126.35 57.3985 126.1C55.5436 125.04 53.5784 124.23 51.6279 123.361C50.1926 122.721 48.7279 122.146 47.2411 121.66C45.9309 121.233 44.687 120.607 43.2885 120.35C42.3022 120.166 41.3306 119.79 40.3296 119.584C40.3811 119.731 40.5063 119.908 40.4694 120.033C40.3222 120.504 40.5062 120.747 40.9258 120.917C41.3012 121.071 41.2865 121.329 40.9994 121.579C40.6093 121.918 40.2339 122.271 39.6451 122.198C39.4905 122.176 39.3212 122.19 39.1667 122.227C38.7324 122.323 38.5337 122.654 38.5925 123.133C38.6293 123.42 38.5999 123.737 38.7103 123.987C38.9385 124.502 38.7692 124.922 38.541 125.364C38.5999 125.393 38.6588 125.415 38.7177 125.445C38.8649 125.445 39.0047 125.43 39.1519 125.43L39.1814 125.423Z" fill="#8B6E4D"/>
<path d="M38.7544 125.437C38.6955 125.408 38.6366 125.386 38.5778 125.356C37.9006 125.857 37.0983 126.093 36.3696 126.476C36.7597 126.652 37.1646 126.719 37.5915 126.623C38.0699 126.314 38.5925 126.049 38.7544 125.437Z" fill="#786A3D"/>
<path d="M23.3415 119.098C23.2385 119.047 23.1649 119.084 23.0986 119.172C23.1943 119.209 23.2753 119.172 23.3415 119.098Z" fill="#C98587"/>
<path d="M47.8151 37.1802C47.6605 37.3201 47.4765 37.4232 47.3955 37.6294C47.8666 37.8135 48.0874 37.5558 48.242 37.1655C48.0947 37.1655 47.9549 37.1729 47.8077 37.1802H47.8151Z" fill="#BE6D4A"/>
<path d="M54.5721 100.492C54.7046 100.146 54.5647 99.9033 54.2924 99.7119C54.1304 100.065 54.2409 100.323 54.5721 100.492Z" fill="#8D9196"/>
<path d="M48.6101 79.111C48.7278 79.111 48.7794 79.03 48.8014 78.9417C48.8309 78.8092 48.8382 78.6619 48.6984 78.603C48.6027 78.5662 48.5365 78.6766 48.5144 78.765C48.4849 78.8975 48.4849 79.0227 48.6174 79.111H48.6101Z" fill="#8D9196"/>
<path d="M54.7191 100.986C54.778 100.883 54.7412 100.809 54.6528 100.743C54.6749 100.824 54.697 100.905 54.7191 100.986Z" fill="#8D9196"/>
<path d="M50.2073 81.0473L50.1999 80.959L50.1558 80.9737L50.2073 81.0473Z" fill="#8D9196"/>
<path d="M29.988 127.403C29.7524 127.271 29.4801 127.227 29.2814 126.998C29.1121 126.8 28.9649 126.917 28.8618 127.101C29.4286 127.727 29.5316 127.749 29.988 127.403Z" fill="#C98587"/>
<path d="M23.3635 126.108C23.4003 125.997 23.4371 125.887 23.4739 125.776C23.2826 125.673 23.0912 125.526 22.9072 125.762C22.863 125.82 22.8483 125.953 22.8851 126.012C22.9955 126.203 23.1795 126.203 23.3635 126.108Z" fill="#C98587"/>
<path d="M25.0198 126.638C25.0934 126.476 25.2627 126.262 25.0787 126.152C24.7916 125.982 24.7622 126.306 24.6665 126.476C24.7843 126.527 24.902 126.586 25.0198 126.638Z" fill="#C98587"/>
<path d="M28.0744 126.962C27.8904 126.704 27.7064 126.387 27.4341 126.888C27.6402 127.006 27.8389 127.138 28.0744 126.962Z" fill="#C98587"/>
<path d="M63.6404 139.736C63.3508 139.564 62.973 139.559 62.5068 139.721C62.919 140.016 63.2723 139.861 63.6404 139.736Z" fill="#786A3D"/>
<path d="M62.7423 108.562C62.5877 108.724 62.4479 108.893 62.5435 109.136C62.6098 108.945 62.676 108.753 62.7423 108.562Z" fill="#8D9196"/>
<path d="M79.428 2.5602C79.5458 2.58229 79.6562 2.58228 79.6783 2.46448C79.7298 2.19942 79.6709 1.95645 79.406 1.82392C79.3176 1.77975 79.222 1.83865 79.1852 1.94173C79.0748 2.22888 79.1631 2.43502 79.428 2.55283V2.5602Z" fill="#BE6D4A"/>
<path d="M28.8472 108.371C28.6779 108.231 28.516 108.062 28.3246 107.951C27.9713 107.738 27.5444 107.701 27.2279 107.951C26.5729 108.466 25.9619 109.041 25.3437 109.6C25.2553 109.681 25.2259 109.829 25.167 109.939C26.5213 109.733 27.6622 109.011 28.8399 108.371H28.8472Z" fill="#B4694A"/>
<path d="M38.7543 125.438C38.585 126.049 38.0697 126.314 37.5913 126.623C37.8857 126.756 38.1728 126.881 38.4672 127.013C38.585 126.748 38.7248 126.505 38.9309 126.284C39.1517 126.056 39.3505 125.784 39.1885 125.423C39.0413 125.423 38.9015 125.438 38.7543 125.438Z" fill="#896F40"/>
</svg>
