<svg width="83" height="185" viewBox="0 0 83 185" fill="none" xmlns="http://www.w3.org/2000/svg">
<path d="M44.1084 142.979L44.0863 142.964C43.9906 142.684 43.7698 142.596 43.4974 142.596C39.1401 139.791 35.0624 136.566 30.4989 134.077C30.3664 133.981 30.2266 133.886 30.0941 133.783C30.072 133.606 29.991 133.488 29.7923 133.495C28.4895 132.339 26.9438 131.522 25.5232 130.528C25.273 130.278 24.9638 130.16 24.6179 130.123C24.5001 129.851 24.2793 129.763 23.9996 129.77C23.3813 129.394 22.7704 129.026 22.1522 128.651C21.9976 128.459 21.7841 128.356 21.5412 128.319L21.5044 128.29C21.4161 128.018 21.2174 127.892 20.9377 127.892C20.128 127.222 19.2153 126.751 18.2658 126.295C17.3311 125.853 16.3006 125.713 15.41 125.183C15.1008 124.66 14.5856 124.829 14.1293 124.785L14.0115 124.712H13.879C13.1503 124.395 12.3996 124.226 11.6046 124.263C10.2577 123.548 8.86655 123.364 7.41654 123.909C7.17365 123.997 6.89395 124.167 6.6805 124.108C5.57643 123.828 4.60485 124.402 3.76576 124.829C2.70586 125.367 1.74164 125.382 0.674372 125.227C0.512443 124.999 0.269548 124.925 0.00457194 124.903C-0.0395907 124.454 0.247465 124.108 0.379953 123.718C2.4924 122.842 4.47236 121.715 6.62161 120.89C8.99167 119.977 11.4133 119.514 13.9011 119.19C14.4752 119.293 15.0493 119.536 15.6161 119.167C15.697 119.153 15.778 119.116 15.8516 119.072C17.0514 119.116 18.2438 119.572 19.4435 119.116C19.944 119.16 20.4519 119.212 20.9524 119.256C20.9745 119.329 20.9966 119.403 21.0186 119.477C20.8862 120.294 20.1428 120.287 19.5539 120.485C19.7306 120.883 19.9293 121.288 20.2679 121.34C21.3793 121.502 22.2699 121.943 22.8735 122.93C23.028 123.18 23.3151 123.18 23.5727 122.989C24.3161 122.429 25.2141 122.621 25.8692 122.893C27.8859 123.725 29.7113 123.173 31.5441 122.437C31.8606 122.311 32.052 122.142 32.3685 122.437C32.9352 122.974 33.6565 122.827 34.3411 122.783C34.606 122.768 34.871 122.621 35.1213 122.65C35.5923 122.709 36.3063 122.444 36.3431 123.276C36.3725 124.02 35.7248 124.69 35.055 124.52C33.0088 123.997 30.9626 125.006 28.9606 124.321C28.8281 124.947 29.1887 125.006 29.4832 125.036C30.072 125.087 30.6167 125.382 31.1761 125.448C32.5451 125.603 33.1487 126.803 34.1644 127.428C34.5398 127.664 34.2895 127.995 33.9804 128.165C33.6712 128.334 33.3695 128.194 33.0751 128.054C32.4494 127.767 31.8091 127.487 31.1687 127.244C30.5651 127.016 29.9248 126.869 29.3212 127.222C28.6073 127.635 27.9522 127.959 27.091 127.51C26.5095 127.2 26.0753 128.054 25.457 127.929C25.4276 127.694 25.457 127.429 25.1037 127.421C25.0669 127.421 25.0006 127.473 25.0006 127.51C24.9491 127.856 25.2215 127.87 25.4423 127.937C25.7735 128.474 26.2593 128.481 26.8334 128.408C27.5474 128.312 28.0626 128.57 28.5557 129.232C29.4905 130.484 30.5946 131.603 31.3969 132.98C32.052 134.107 33.3253 134.615 34.3263 135.388C36.3799 136.978 38.6175 138.296 40.855 139.614C41.0023 139.695 41.1421 139.739 41.385 139.577C41.1789 138.922 40.4797 138.826 40.038 138.465C39.7142 138.2 39.2799 138.001 39.7289 137.479C40.038 137.125 39.6185 137.037 39.4418 136.941C38.4408 136.374 37.4619 135.756 36.4093 135.299C34.9667 134.681 34.8048 134.622 33.9362 133.267C34.3926 132.884 34.8784 132.774 35.3862 133.142C36.0192 133.606 36.7406 133.724 37.4913 133.746C37.5502 133.893 37.7563 134.07 37.7857 134.003C37.9624 133.65 37.5944 133.841 37.4913 133.746C37.2926 133.333 36.5124 133.09 36.5786 132.973C36.8951 132.398 36.0855 132.325 36.2106 132.03C36.4093 131.574 36.7406 132.03 37.0055 132.052C37.403 132.097 37.5649 131.883 37.7048 131.559C38.0139 130.86 38.5512 130.941 39.1769 131.088C40.4134 131.368 41.1936 132.398 42.3124 132.862C42.4007 132.899 42.5185 133.002 42.5259 133.083C42.7025 134.858 44.2629 135.226 45.4774 135.859C46.6183 136.455 47.8622 135.984 49.0546 135.748C49.2092 135.719 49.3711 135.712 49.5257 135.697C50.1439 136.021 50.5929 136.551 51.1081 137C52.963 138.627 54.8473 140.218 56.7904 141.749C57.6074 142.39 58.7262 142.522 59.6095 143.266C60.2277 141.918 59.0795 141.241 58.7777 140.313C59.7935 139.349 59.8229 139.312 60.8534 140.254C61.5894 140.924 62.3328 141.543 63.2308 141.97C63.4001 142.191 63.5694 142.412 63.7313 142.633C63.7976 142.743 63.8638 142.861 63.93 142.971C63.9448 143.192 63.9521 143.413 63.9668 143.634C63.9521 144.311 64.4453 144.753 64.7471 145.283C65.2108 145.504 64.9237 145.961 65.0562 146.285C65.0636 146.395 65.0783 146.498 65.0856 146.609C65.0194 148.331 65.4463 150.032 65.2549 151.762C65.2623 151.873 65.2696 151.976 65.2844 152.086C65.2328 152.602 65.093 153.102 65.5125 153.581C65.9468 154.074 65.9836 154.737 66.0499 155.37C65.9762 155.525 66.0425 155.643 66.1603 155.738C66.1455 155.908 66.1308 156.077 66.1161 156.246C65.7039 156.423 65.1666 156.048 64.8207 156.534C64.2024 156.629 64.3643 155.959 64.0184 155.731C61.9942 154.398 60.3823 152.499 58.1006 151.527C57.9092 151.218 57.5853 151.166 57.2688 151.1C56.6285 150.452 55.679 150.444 54.9282 149.981C51.4026 147.801 47.9064 145.585 44.4543 143.303C44.3881 143.148 44.2997 143.015 44.1084 143.001V142.979ZM22.1448 125.735C22.2037 126.081 22.3803 126.339 22.7704 126.28C22.8588 126.265 22.9692 126.037 22.9765 125.897C22.9912 125.536 22.7631 125.345 22.5349 125.227C22.1816 125.315 22.1154 125.507 22.1522 125.728L22.1448 125.735ZM31.3969 123.593C31.3674 123.769 31.4852 123.865 31.6545 123.828C31.7134 123.813 31.787 123.681 31.7796 123.607C31.7796 123.548 31.6618 123.497 31.5956 123.438C31.5294 123.489 31.4116 123.534 31.4042 123.593H31.3969Z" fill="#746B3E"/>
<path d="M57.4453 139.238C56.2971 137.987 55.1489 136.647 53.6989 135.844C52.8009 135.351 52.3592 134.799 51.9544 133.834C53.5001 133.856 54.4349 135.049 55.6935 135.476C55.642 134.548 54.7146 133.046 53.8461 132.641C52.7641 132.141 51.9029 131.102 50.5486 131.213C50.4161 131.228 50.2247 131.11 50.129 130.999C49.1869 129.843 48.1932 129.799 47.0524 130.749C46.596 131.132 46.2795 130.653 46.044 130.3C45.7937 129.924 45.9998 129.74 46.3679 129.623C46.8389 129.475 47.0008 129.085 46.5887 128.813C45.7864 128.29 45.1313 127.635 44.4541 126.965C43.9463 126.457 43.1734 126.221 42.4227 126.118C41.9442 126.052 41.4952 125.985 41.1051 125.632C40.5899 125.168 40.1336 125.249 39.5889 125.742C38.5143 126.714 38.4922 126.67 39.3901 127.87C39.8907 128.533 40.1851 129.328 40.877 129.866C41.716 130.521 42.5331 131.183 43.6371 131.345C44.9767 131.544 45.8085 132.627 46.8978 133.274C47.7148 133.76 48.4214 134.423 49.1869 134.99C49.4298 135.167 49.5108 135.395 49.5181 135.675C49.3562 135.689 49.2016 135.697 49.0471 135.726C47.8547 135.962 46.6107 136.433 45.4699 135.837C44.2628 135.204 42.7023 134.835 42.5183 133.061C42.511 132.98 42.3932 132.877 42.3049 132.84C41.1861 132.384 40.4059 131.345 39.1693 131.066C38.5363 130.926 37.999 130.845 37.6972 131.537C37.5574 131.861 37.3955 132.074 36.998 132.03C36.7257 132.001 36.3944 131.544 36.2031 132.008C36.0779 132.295 36.8876 132.376 36.5711 132.951C36.5049 133.076 37.2851 133.311 37.4838 133.724C36.7257 133.709 36.0043 133.584 35.3787 133.127C34.8708 132.752 34.385 132.87 33.9287 133.252C34.7899 134.6 34.9592 134.659 36.4018 135.285C37.4543 135.741 38.4333 136.359 39.4343 136.926C39.611 137.029 40.0231 137.11 39.7214 137.464C39.2724 137.987 39.7066 138.185 40.0305 138.451C40.4721 138.819 41.1714 138.914 41.3775 139.562C41.1346 139.724 40.9947 139.68 40.8475 139.599C38.6099 138.281 36.3724 136.963 34.3188 135.373C33.3178 134.6 32.0444 134.092 31.3893 132.965C30.5871 131.588 29.483 130.477 28.5482 129.218C28.0551 128.555 27.5398 128.305 26.8259 128.393C26.2518 128.467 25.7733 128.467 25.4347 127.922H25.4495C26.0677 128.032 26.502 127.178 27.0835 127.487C27.9447 127.936 28.5997 127.613 29.3137 127.2C29.9173 126.847 30.5576 126.994 31.1612 127.222C31.8089 127.465 32.4419 127.745 33.0675 128.032C33.3693 128.172 33.6637 128.312 33.9729 128.143C34.282 127.973 34.5323 127.642 34.1569 127.406C33.1485 126.773 32.5376 125.58 31.1685 125.426C30.6165 125.36 30.0718 125.065 29.4756 125.013C29.1812 124.984 28.8205 124.925 28.953 124.299C30.9624 124.984 33.0013 123.975 35.0475 124.498C35.7099 124.667 36.365 123.997 36.3356 123.254C36.2988 122.422 35.5848 122.687 35.1137 122.628C34.8635 122.598 34.5985 122.746 34.3335 122.76C33.649 122.805 32.9277 122.952 32.3609 122.414C32.0518 122.12 31.8531 122.289 31.5366 122.414C29.7038 123.151 27.8784 123.703 25.8616 122.871C25.2066 122.598 24.3012 122.407 23.5652 122.967C23.3076 123.158 23.0205 123.158 22.8659 122.908C22.2624 121.921 21.3718 121.487 20.2603 121.317C19.9218 121.266 19.723 120.861 19.5464 120.463C20.1426 120.272 20.886 120.272 21.0111 119.455C21.2172 119.499 21.4159 119.55 21.622 119.594C21.7913 119.911 21.9974 119.941 22.2329 119.661C23.1972 119.742 24.1687 119.815 25.133 119.896C25.2139 120.058 25.3096 120.08 25.4274 119.933C25.5525 119.904 25.6776 119.867 25.8101 119.837C25.9794 119.904 26.1487 119.977 26.3254 120.044C27.3705 120.574 28.504 120.397 29.6081 120.471C31.1685 120.743 32.7289 121.008 34.2967 121.281C34.8561 121.818 35.5848 121.597 36.2325 121.722C36.2988 121.781 36.3724 121.818 36.4533 121.84C36.7477 122.179 37.1305 122.12 37.5059 122.09C37.9033 122.164 38.2934 122.23 38.6909 122.304C38.9412 122.643 39.3165 122.628 39.6772 122.665C39.8833 123.099 40.2734 123.011 40.6341 123.018C40.8402 123.055 41.0683 123.055 41.2523 123.143C42.9452 123.939 44.6823 124.601 46.4046 125.315C48.5465 126.199 50.6295 127.311 52.4034 128.879C53.6989 130.02 54.9649 131.191 56.2603 132.325C56.9301 132.914 57.7103 133.407 58.1814 134.173C59.4032 136.161 61.0151 137.876 62.1486 139.923C62.5167 140.593 63.2085 141.086 63.2306 141.94C62.3327 141.513 61.5892 140.895 60.8532 140.225C59.8227 139.282 59.7859 139.319 58.7776 140.284C58.1004 140.225 57.8354 139.643 57.4453 139.224V139.238ZM23.4474 122.142C23.4106 122.12 23.3738 122.076 23.337 122.076C23.3002 122.076 23.2634 122.12 23.2266 122.142C23.2634 122.164 23.3002 122.186 23.337 122.216C23.3738 122.194 23.4106 122.164 23.4474 122.142Z" fill="#816E43"/>
<path d="M51.5276 12.886C50.0629 12.9376 48.841 11.9583 47.4057 11.8994C47.288 12.6872 46.3974 12.5252 46.0367 13.0038C45.9778 13.7475 45.8453 14.4616 45.6613 15.1905C45.3743 16.3391 45.1534 17.4951 45.9263 18.7026C46.4415 19.5051 46.3826 20.6832 46.1397 21.633C45.8968 22.5828 45.8748 23.5252 45.7644 24.475C45.6687 25.3512 46.3532 26.4998 44.7265 26.7648C44.4321 26.809 44.2849 27.6705 44.042 28.149C43.9463 28.3405 43.755 28.473 43.5194 28.4215C43.2544 28.3626 43.2176 28.1269 43.2397 27.9208C43.3354 27.1109 43.0852 26.1758 44.0715 25.6678C44.3806 25.5058 44.4689 25.1377 44.3217 24.8284C44.1451 24.4603 43.9022 24.7622 43.6666 24.8211C43.1588 24.9389 43.1808 24.5413 43.2103 24.2394C43.5047 20.639 43.5709 17.0166 44.6897 13.5266C44.5131 13.5266 44.3364 13.5192 44.1598 13.5119C42.2608 15.2495 41.5468 17.6129 41.0537 19.9837C40.6415 21.9422 41.1862 23.8934 42.1062 25.6678C42.3933 26.22 42.3565 26.5439 41.8633 26.8532C41.775 26.9121 41.6867 26.971 41.5983 27.0373C40.774 27.6115 40.1042 28.3626 40.3544 29.4081C40.6341 30.5788 41.3555 31.5065 42.6656 31.6979C43.6666 31.8451 44.6971 32.0071 45.5951 31.3518C46.0441 31.0279 46.287 31.2414 46.493 31.5801C46.7948 32.0807 47.0156 32.6182 47.4425 33.0379C48.5245 34.0908 49.7979 34.0466 50.7253 32.8685C51.0197 32.493 51.3436 32.0955 51.4687 31.6537C51.719 30.7775 52.2931 30.8364 52.9482 30.9837C53.1027 31.0205 53.2426 31.1089 53.3824 31.1751C55.1195 32.0366 56.437 30.7407 56.8418 29.2313C57.0921 28.2963 57.4601 27.1109 56.1205 26.4482C55.6789 26.2274 55.7157 25.815 55.885 25.3438C56.2383 24.3499 56.5548 23.3338 56.518 22.2515C56.1647 22.1926 55.7451 22.2515 55.6494 21.7508C55.436 20.5948 54.7662 19.6524 54.2436 18.6216C53.3677 16.8914 52.5654 15.1096 52.1459 13.1953V13.2026C51.8883 13.2026 51.6527 13.1437 51.5202 12.886H51.5276Z" fill="#DAB9A0"/>
<path d="M30.2636 56.9889C31.927 57.173 32.9354 56.5251 33.6126 54.8316C33.8874 54.1444 34.3437 53.9702 34.9816 54.3089C36.5199 55.1188 37.9626 54.412 38.2938 52.6891C38.3012 52.6375 38.3159 52.586 38.3085 52.5345C38.2497 50.5318 39.0151 48.7794 39.7733 46.9682C40.3768 45.5398 40.8773 43.9936 40.524 42.3444C40.4283 41.8952 40.5608 41.3946 40.5829 40.916C40.6124 40.3343 40.6712 39.7453 40.2738 39.2373C38.8385 39.1195 37.3958 39.0017 35.9532 38.8839C36.6304 38.4053 37.4106 38.9281 38.073 38.4495C37.9258 37.9783 37.2486 37.7795 37.44 37.3524C37.8007 36.5352 37.2413 36.3364 36.7555 36.0272C35.99 35.5412 35.1951 35.1215 34.3118 34.8933C33.9585 34.8049 33.7451 34.6356 33.7083 34.2674C32.9722 34.1055 32.2288 34.0465 31.478 34.0613C31.3603 34.1423 31.2425 34.2159 31.1247 34.2969V34.2895C31.0806 34.9669 31.7209 35.2099 32.0595 35.1584C33.7377 34.8933 34.5253 36.7781 36.0857 36.7487C36.2697 36.7487 36.3507 37.0726 36.255 37.2862C36.1593 37.4997 35.9311 37.6175 35.7324 37.5071C35.3202 37.2788 34.9448 36.9769 34.54 36.7266C34.0616 36.4247 33.6347 36.3511 33.4727 37.0727C33.5758 37.161 33.9511 36.9769 33.7671 37.3303C33.7303 37.404 33.5316 37.2199 33.4727 37.0727C32.1773 36.5057 31.2572 35.3866 29.9986 34.7607C29.7115 34.7313 29.4171 34.6945 29.1301 34.665C29.1816 35.0332 29.4171 35.578 29.2552 35.7326C28.4235 36.5573 29.1374 37.0285 29.5864 37.5659C30.2636 38.3832 30.9923 39.1637 31.64 40.0104C32.2877 40.8497 31.8829 42.0278 32.641 42.8524C32.008 43.1543 31.5516 43.0438 30.9996 42.8966C31.3161 42.5873 31.7725 42.6021 31.5811 42.0204C31.0953 40.511 29.4024 39.9441 28.9166 38.4569C28.9092 38.4274 28.8136 38.3906 28.7768 38.4053C27.7757 38.744 27.5476 37.8089 27.0323 37.3524C26.8115 37.1536 26.6201 36.756 26.2668 37.0211C25.9503 37.2567 26.1123 37.6028 26.311 37.8678C26.495 38.1255 26.7894 38.339 26.8925 38.6188C27.1869 39.4066 28.1143 39.922 27.9965 40.8424C27.8935 41.6596 28.313 42.1014 28.7988 42.6095C29.1521 42.9776 29.7925 43.3678 29.5717 43.9053C29.3067 44.5458 29.6674 44.8993 29.8514 45.3705C30.006 45.7755 30.4623 46.3277 29.8146 46.6074C29.2405 46.8578 28.9976 46.2908 28.8283 45.827C28.74 45.5767 28.6811 45.3189 28.6148 45.0612C28.4014 44.2292 27.9524 43.5372 27.4004 42.7346C27.312 43.0365 27.2016 43.1984 27.2384 43.3089C28.1217 46.0257 28.107 48.934 29.2037 51.6435C29.8735 53.2854 29.6453 55.2513 30.2415 56.9963L30.2636 56.9889Z" fill="#DAB9A0"/>
<path d="M41.2527 115.125C43.3946 114.323 45.2715 113.02 47.2956 111.996C47.406 111.922 47.5164 111.841 47.6268 111.768C47.8108 111.761 47.9213 111.665 47.9728 111.488C47.774 110.825 47.4355 110.347 46.6332 110.391C46.2136 110.413 45.7867 110.332 45.3598 110.295C43.8877 110.17 43.8951 110.17 43.6522 108.617C43.6007 108.307 43.4903 107.998 43.3651 107.711C43.1149 107.137 43.2179 106.562 43.2915 105.988C43.3283 105.716 43.4535 105.384 43.7479 105.436C45.1979 105.664 46.5449 104.891 47.9949 105.046C50.284 105.296 52.5731 105.171 54.8548 104.957C55.4878 104.898 55.7601 104.435 55.5025 103.86C55.3479 103.514 55.0682 103.271 54.7665 103.043C54.4573 102.807 53.8391 102.726 54.0304 102.174C54.1924 101.696 54.7076 101.769 55.1419 101.784C55.4068 101.799 55.6718 101.784 55.9368 101.784C55.9 101.696 55.8632 101.615 55.819 101.534C53.6698 100.842 51.4248 100.709 49.2167 100.709C46.5449 100.709 43.8583 100.996 41.3042 101.894C40.6639 102.115 39.9352 101.946 39.3831 102.41C39.3611 102.962 39.6334 103.271 40.1339 103.492C40.7154 103.757 40.443 104.169 40.0603 104.258C39.1697 104.471 38.5661 104.987 38.0435 105.694C37.6755 106.194 37.0204 106.511 36.4905 106.319C34.6798 105.679 33.274 106.386 31.9123 107.431C31.8681 107.461 31.8166 107.475 31.7651 107.497C30.4476 108.182 29.13 108.867 27.8052 109.544C27.1869 109.861 26.7821 110.295 26.7968 111.032C27.2016 111.429 28.1511 111.311 27.9597 112.283C27.7316 113.402 28.4823 114.021 29.8661 113.763C30.4181 113.66 30.926 113.299 31.4633 113.086C31.5958 113.034 31.7651 113.093 31.846 113.262C31.7872 113.734 31.0143 113.829 31.2498 114.58C32.7882 114.779 34.1646 114.256 35.4306 113.395C36.9616 112.349 38.6618 111.672 40.443 110.811C40.5314 111.554 40.8331 112.335 40.1928 112.497C37.992 113.042 36.6303 114.904 34.6945 115.832C34.4296 115.957 34.4296 116.267 34.6798 116.495C35.1141 116.539 35.5483 116.59 35.9826 116.635C37.1014 116.406 38.2202 116.171 39.3316 115.943C39.442 115.663 39.7144 115.758 39.9205 115.692L39.9425 115.663C40.0603 115.361 40.3179 115.368 40.5682 115.376C40.7301 115.133 40.9509 115.044 41.2306 115.14L41.2527 115.125Z" fill="#816E43"/>
<path d="M25.7586 22.3104C26.6419 22.4576 27.1424 21.8833 27.6208 21.309C27.8564 21.0219 28.0477 20.6906 28.3863 20.5138C28.5114 20.4476 28.7249 20.4108 28.8279 20.4697C29.0267 20.5948 29.0635 20.8673 28.931 21.0293C27.8564 22.3619 27.2454 24.0111 26.1267 25.2849C25.4201 26.0948 25.0079 26.9415 24.8975 27.9723C26.0236 27.2434 26.5977 26.0359 27.4295 25.0493C30.8889 20.9703 34.7825 17.3847 39.0884 14.2187C40.1336 13.453 41.2229 12.7977 42.3049 12.0982C42.9968 11.4061 43.0115 11.4061 43.7696 12.2381C44.1303 12.5842 44.1229 13.048 44.1597 13.4897C44.3364 13.4897 44.513 13.4971 44.6897 13.5045C45.0798 13.1732 45.5214 12.9891 46.0367 12.9965C46.4047 12.5105 47.2953 12.6799 47.4057 11.892C47.4646 11.5313 47.2732 11.2294 47.1481 10.9128C46.8831 10.552 46.206 10.2133 47.1113 9.81573C47.1113 9.81573 47.207 9.78631 47.207 9.79367C47.2953 9.63905 47.4425 9.61695 47.5971 9.63903C48.3846 9.36661 49.2826 9.44023 49.9892 8.89539C50.2027 8.51252 50.5633 8.61561 50.8872 8.62297H50.9019C51.0638 8.38736 51.292 8.33582 51.557 8.39473C52.8819 8.18121 54.1994 7.96032 55.5243 7.7468C56.1058 7.30503 56.7608 7.54067 57.3938 7.54803C57.7766 7.10627 58.2476 7.31976 58.6966 7.37866C60.8385 7.32712 63.0025 6.98107 65.0781 7.84252C65.1517 7.31976 65.5786 6.88535 65.4977 6.31842C63.2233 5.69995 60.9416 5.14775 58.5421 4.85324C59.5578 4.25685 60.5735 3.74885 61.7512 3.77093C63.503 3.79302 65.2474 3.87402 66.9771 4.19062C67.5954 4.1538 67.9119 3.63101 68.3683 3.32177C69.303 2.40143 70.5911 2.1953 71.7099 1.65045C71.2094 1.28232 70.8487 0.69329 70.1348 0.678564C69.8551 0.899447 69.6563 0.83319 69.5312 0.501865L69.5459 0.51656C68.9571 0.457658 68.3977 0.420846 67.9929 1.02459C67.7941 1.3191 67.4703 1.62099 67.1391 1.73143C65.2842 2.36463 63.422 3.18188 61.4789 1.98911C61.1477 1.79032 60.787 1.73144 60.4116 1.68726C58.8733 1.9155 57.9532 3.11562 56.8712 4.02124C56.2309 4.55872 55.6126 4.97106 54.7514 4.87535C54.4202 5.13304 54.0743 5.04467 53.7136 4.94896C53.6179 4.95632 53.5149 4.97104 53.4192 4.99313C53.2499 5.25083 53.0217 5.24347 52.7715 5.13303C50.0849 5.74414 47.3615 6.25951 44.8884 7.55536C45.0945 7.71734 45.2785 7.90143 45.4993 8.03396C46.5077 8.64507 46.5298 8.71132 46.0514 9.72738C45.5288 10.8244 44.4321 10.8539 43.5047 10.876C42.5552 10.8907 41.6057 10.9054 40.693 11.1042C39.8907 11.2736 39.1326 11.2294 38.345 11.0968C36.4681 11.9068 35.0843 13.4235 33.4061 14.5205C32.3021 15.2421 31.6323 16.479 30.4031 17.0975C30.3663 16.9208 30.3295 16.8177 30.3295 16.7146C30.3295 16.6116 30.3516 16.5011 30.3957 16.4054C31.4335 14.0861 32.7952 12.0393 35.0622 10.7287C35.6143 10.4121 36.1589 10.0735 36.7036 9.74949C36.3503 9.63905 35.8424 9.53595 36.4681 9.12363C36.7993 8.91011 37.5133 8.82915 37.1894 8.37266C36.6815 7.66584 37.3587 7.1578 37.2188 6.56877C36.7404 6.5246 36.3062 6.54667 35.8351 6.78228C32.8173 8.28428 30.6312 10.4637 29.4977 13.7327C29.012 15.1243 28.5924 16.5453 28.1213 17.9443C27.5693 19.5788 26.8627 21.0513 25.7366 22.3398L25.7586 22.3104Z" fill="#7F8693"/>
<path d="M67.4559 18.3196C68.2877 18.6804 68.6262 19.3578 68.8765 20.2118C69.3991 22.0157 70.0762 22.509 71.6072 22.5238C72.0488 22.5238 72.4021 22.4796 72.7039 22.0746C73.2044 21.4194 73.8742 21.493 74.5514 21.8243C74.6912 21.8906 74.8311 21.9642 74.9857 22.0231C76.7816 22.6784 78.0402 22.1335 78.8205 20.3665C79.1885 19.5345 79.3946 18.732 80.4471 18.2607C81.7573 17.6717 81.5733 16.4568 80.1969 15.5144C80.0791 15.6175 79.9466 15.7132 79.8509 15.831C79.505 16.2654 79.3651 17.0385 78.6438 16.9281C77.9004 16.8176 77.5692 16.1329 77.2748 15.4997C77.1864 15.3083 77.0834 15.0947 77.0908 14.896C77.0981 13.9241 76.5976 13.2982 75.7732 12.908C75.3831 12.7239 75.1844 12.4073 75.1402 12.0539C74.9783 10.574 74.0582 9.63156 72.9836 8.75539C72.4978 8.36516 72.3065 8.54189 72.0268 9.00574C71.5851 9.73465 72.0636 10.4636 71.8869 11.1778C71.7765 11.6122 72.0268 12.2895 71.4453 12.4147C70.6872 12.5767 71.0184 11.7447 70.7534 11.4354C70.4222 11.0379 70.2823 10.6182 70.3707 10.1175C70.459 9.60213 70.2235 9.21189 69.9143 8.8143C69.3991 8.14429 68.8397 7.50372 68.479 6.73063C68.3907 6.53919 68.3097 6.32568 68.0521 6.32568C67.743 6.32568 67.559 6.54658 67.4854 6.80428C66.6978 9.59477 66.5138 12.3779 67.5148 15.1831C67.8828 16.2139 68.2582 17.3036 67.4559 18.3417V18.3196Z" fill="#DAB9A0"/>
<path d="M33.7669 150.783C32.9425 150.842 32.5745 150.165 32.1108 149.701C31.6397 149.237 31.176 148.862 30.4768 148.906C30.4252 149.789 31.3158 150.224 31.4704 151.019C31.8752 153.073 32.6702 154.995 33.5019 156.909C33.6197 157.189 33.7227 157.535 33.2443 157.66C32.8468 157.373 32.7143 156.887 32.4273 156.526C31.9488 155.93 31.4483 155.878 30.8374 156.328C31.073 156.482 31.1098 156.725 31.095 156.983C31.3379 157.152 31.3821 157.395 31.36 157.668C31.3895 158.787 31.7428 159.84 32.1476 160.863C32.5082 161.776 32.0813 161.894 31.3453 161.835C31.4851 163.241 31.6544 164.611 32.1476 165.995C32.8247 167.872 32.8983 169.927 33.075 171.922C33.2148 173.549 33.6344 175.161 33.3547 176.811C33.3326 176.958 33.3547 177.164 33.4357 177.267C34.6943 178.703 34.0098 180.242 33.6712 181.744C33.5313 182.37 33.5313 183.01 33.4136 183.629C33.2443 184.534 33.6344 184.917 34.5103 184.895C34.8489 183.209 35.3273 181.552 35.4451 179.829C35.3862 179.638 35.4819 179.528 35.6438 179.447C35.7468 178.026 35.9677 176.641 36.2694 175.242C36.7258 173.115 36.2842 170.921 36.4093 168.763C36.4461 168.093 36.4902 167.394 36.4093 166.709C36.2621 166.657 36.1664 166.584 36.2473 166.407C36.4314 163.447 35.791 160.554 35.5481 157.623C35.4083 157.579 35.3273 157.506 35.3935 157.344C35.2905 155.37 34.5986 153.537 33.9951 151.682C33.8994 151.38 33.7448 151.107 33.7669 150.783Z" fill="#816E43"/>
<path d="M55.944 101.777C55.679 101.777 55.4141 101.784 55.1491 101.777C54.7222 101.755 54.2069 101.688 54.0377 102.167C53.8463 102.719 54.4646 102.808 54.7737 103.036C55.0755 103.264 55.3552 103.507 55.5097 103.853C55.7674 104.427 55.495 104.899 54.862 104.95C52.5803 105.156 50.2838 105.281 48.0021 105.038C46.5521 104.884 45.2051 105.657 43.7551 105.429C43.4607 105.385 43.3356 105.708 43.2988 105.981C43.2252 106.555 43.1221 107.137 43.3724 107.704C43.4975 107.991 43.6079 108.3 43.6594 108.609C43.9023 110.163 43.895 110.163 45.367 110.288C45.7939 110.325 46.2135 110.406 46.6404 110.384C47.4427 110.34 47.7813 110.818 47.98 111.481C48.9148 111.334 49.5846 110.634 50.431 110.273C52.0062 109.596 53.6328 109.235 55.2742 108.823C56.6138 108.492 58.0491 108.492 59.2783 107.77C59.6978 107.527 60.0585 107.476 60.4633 107.733C60.8093 107.954 61.1478 107.998 61.5011 107.763C61.5232 107.579 61.6484 107.52 61.8103 107.49L61.8324 107.468C61.8618 107.291 61.9575 107.196 62.1489 107.218C63.5768 106.57 63.9375 105.208 62.7819 104.53C60.9933 103.478 59.2047 102.373 57.1438 101.887C56.7537 101.85 56.3562 101.806 55.9661 101.769L55.944 101.777Z" fill="#746B3E"/>
<path d="M67.4558 18.32C68.2581 17.2818 67.8827 16.1921 67.5147 15.1613C66.5063 12.3635 66.6977 9.58037 67.4852 6.78252C67.5588 6.52482 67.7355 6.30396 68.052 6.30396C68.3096 6.30396 68.3906 6.52484 68.4789 6.70891C68.8469 7.482 69.399 8.12257 69.9142 8.79258C70.216 9.19017 70.4589 9.58037 70.3705 10.0958C70.2822 10.5964 70.4221 11.0235 70.7533 11.4137C71.0183 11.723 70.687 12.5623 71.4452 12.3929C72.0266 12.2678 71.7837 11.5904 71.8868 11.156C72.0634 10.4418 71.585 9.71289 72.0266 8.98397C72.3063 8.52012 72.4977 8.34344 72.9835 8.73367C74.0581 9.60983 74.9782 10.5523 75.1401 12.0322C75.1769 12.3856 75.3756 12.7096 75.7731 12.8863C76.5975 13.2765 77.1053 13.9023 77.0906 14.8742C77.0906 15.073 77.1937 15.2865 77.2746 15.4779C77.5617 16.1111 77.8929 16.7959 78.6437 16.9063C79.365 17.0168 79.5049 16.2437 79.8508 15.8093C79.9465 15.6915 80.079 15.5958 80.1967 15.4927C80.2041 15.3822 80.2188 15.2718 80.2262 15.1613C80.3145 15.0656 80.4102 14.9773 80.4985 14.8816C81.6173 13.1145 82.1473 11.1634 82.3165 9.09443C82.3607 8.53486 82.2429 8.14466 81.8749 7.68817C81.0505 6.6721 80.4102 5.51614 79.5932 4.50008C78.4744 3.10115 77.0465 2.17344 75.2211 1.96729C75.4934 2.21762 75.8173 2.43112 76.016 2.733C77.098 4.36753 78.1873 6.00209 79.1957 7.6808C79.63 8.40971 79.8434 9.23431 79.6815 10.1326C79.5711 10.7437 79.2472 10.994 78.6952 10.8541C77.5691 10.5744 76.4503 10.2357 75.3388 9.91169C75.2064 9.87488 75.0297 9.74237 75.0003 9.61721C74.7058 8.36554 73.4987 7.71025 72.9982 6.57638C72.6817 5.85483 71.9972 5.36152 71.3568 4.86822C70.8637 4.48535 70.503 4.30862 70.0246 4.89028C69.5167 5.50139 69.2518 5.09645 69.0236 4.58106C68.8322 4.13929 69.1781 3.4251 68.3832 3.29257C67.9342 3.60181 67.6177 4.12456 66.9921 4.16137C66.6756 4.99337 66.1015 5.64867 65.5126 6.29659C65.5936 6.86353 65.1667 7.29057 65.0931 7.82069C65.071 8.04157 65.0489 8.25506 65.0269 8.47594C65.6525 9.29321 65.2992 10.324 65.5715 11.1781C66.2119 13.1955 65.6893 15.235 65.9175 17.245C66.2266 17.8856 66.6756 18.3347 67.4558 18.3053V18.32Z" fill="#DCB996"/>
<path d="M34.687 116.48C34.4368 116.252 34.4368 115.943 34.7017 115.817C36.6375 114.89 37.9992 113.027 40.2 112.482C40.8477 112.32 40.5386 111.54 40.4502 110.796C38.669 111.657 36.9761 112.327 35.4378 113.38C34.1791 114.242 32.7954 114.764 31.257 114.566C31.0215 113.815 31.7944 113.719 31.8532 113.248C31.7723 113.086 31.6104 113.019 31.4705 113.071C30.9332 113.292 30.4253 113.645 29.8733 113.748C28.4895 114.006 27.7461 113.395 27.9669 112.269C28.1583 111.297 27.2088 111.422 26.804 111.017C26.436 110.987 26.0606 110.958 25.6926 110.928C24.8289 110.845 24.4781 110.362 24.64 109.478C24.6842 109.25 24.5885 109.066 24.4266 108.918C23.7126 109.161 23.1238 109.588 22.5496 110.067C21.0039 111.356 19.6055 112.806 18.2879 114.315C17.4562 115.265 17.1176 116.384 17.7359 117.82C19.2448 116.001 21.2321 115.994 23.1826 116.119C24.7651 116.215 26.3476 115.729 27.9007 116.163C29.1667 116.517 30.44 116.723 31.7576 116.811C32.6997 116.878 33.6124 116.347 34.5545 116.73C34.584 116.642 34.6281 116.561 34.6797 116.487L34.687 116.48Z" fill="#746B3E"/>
<path d="M68.3833 3.29983C69.1782 3.43235 68.8323 4.14654 69.0237 4.58831C69.2518 5.1037 69.5168 5.50864 70.0247 4.89753C70.5031 4.32324 70.8638 4.4926 71.3569 4.87547C71.9973 5.36877 72.6818 5.86945 72.9983 6.58363C73.4988 7.72486 74.6986 8.37274 75.0003 9.62441C75.0298 9.74222 75.2064 9.87477 75.3389 9.91894C76.4503 10.2503 77.5691 10.5816 78.6953 10.8614C79.2473 11.0013 79.5712 10.7509 79.6816 10.1398C79.8435 9.24156 79.6301 8.4096 79.1958 7.68805C78.1874 6.00934 77.0981 4.37478 76.0161 2.74025C75.8174 2.43837 75.4861 2.22487 75.2212 1.97454C74.0582 1.85673 72.8879 1.7389 71.7249 1.62109C70.6062 2.1733 69.3181 2.37947 68.3833 3.29246V3.29983Z" fill="#DAB9A0"/>
<path d="M26.3253 107.836C27.7311 107.056 29.0781 106.172 30.5576 105.495C32.5596 104.574 34.7457 104.199 36.733 103.234C37.5426 102.837 38.4259 102.447 39.3827 102.395C39.3607 102.947 39.633 103.256 40.1335 103.477C40.715 103.742 40.4426 104.155 40.0599 104.243C39.1693 104.457 38.5657 104.972 38.0431 105.679C37.6751 106.179 37.02 106.496 36.4901 106.305C34.6794 105.664 33.2736 106.371 31.9119 107.416C31.8677 107.446 31.8162 107.461 31.7647 107.483C30.4472 108.167 29.1296 108.852 27.8048 109.53C27.1865 109.846 26.7816 110.281 26.7964 111.017C26.4283 110.987 26.053 110.958 25.6849 110.928C24.8213 110.845 24.4705 110.362 24.6324 109.478C24.6766 109.25 24.5809 109.066 24.4189 108.918C24.9563 108.396 25.6849 108.182 26.3179 107.836H26.3253ZM25.8763 110.17C25.891 110.008 25.8542 109.802 25.6334 109.898C25.4568 109.979 25.2728 110.133 25.1918 110.31C25.0961 110.501 25.2948 110.56 25.4641 110.568C25.707 110.546 25.8542 110.413 25.8763 110.177V110.17Z" fill="#927150"/>
<path d="M38.3747 11.0751C39.1549 11.2076 39.9204 11.2518 40.7227 11.0824C41.6354 10.8836 42.5849 10.8689 43.5344 10.8542C44.4618 10.8395 45.5585 10.81 46.0811 9.70559C46.5595 8.69689 46.5375 8.62323 45.5291 8.01212C45.3083 7.87959 45.1169 7.69555 44.9182 7.53357C44.16 7.80599 43.4387 7.83543 42.7247 7.34213C42.1653 6.95927 41.4882 6.84882 40.811 6.78255C40.2443 6.78991 39.6775 6.78258 39.1328 6.58379C38.5072 6.60588 37.8816 6.5985 37.278 6.43652L37.2559 6.53957C37.3958 7.12859 36.7186 7.64399 37.2265 8.34345C37.5577 8.79995 36.8437 8.88095 36.5052 9.09447C35.8795 9.49942 36.3874 9.60985 36.7407 9.72029C37.6534 9.68347 38.6544 9.11655 39.3316 10.0958C39.0151 10.4198 38.6986 10.7437 38.3821 11.0677L38.3747 11.0751Z" fill="#A98D90"/>
<path d="M52.1534 13.188C52.5803 15.1023 53.3752 16.8841 54.2511 18.6143C54.7663 19.6378 55.4435 20.5802 55.6569 21.7435C55.7526 22.2442 56.1722 22.1853 56.5255 22.2442C56.68 20.4698 57.0701 18.7027 56.6506 16.8988C56.5549 16.4791 56.5255 16.0742 56.1942 15.765C55.0166 14.6385 53.7947 13.5709 52.146 13.188H52.1534Z" fill="#DCB996"/>
<path d="M60.4336 1.67264C60.809 1.71681 61.1696 1.76838 61.5009 1.97453C63.444 3.1673 65.3062 2.34264 67.161 1.71681C67.4923 1.60637 67.8161 1.31189 68.0149 1.01001C68.4197 0.398904 68.9791 0.443079 69.5679 0.501981C68.7803 -0.190119 67.8014 0.00867761 66.9402 0.089668C66.3293 0.14857 65.7258 0.170655 65.1148 0.178018C64.8131 0.479891 64.4598 0.376814 64.1065 0.317912C62.8993 0.825942 61.5229 0.855368 60.4336 1.67264Z" fill="#A98D90"/>
<path d="M65.9246 17.2525C65.7038 15.2424 66.2264 13.203 65.5787 11.1856C65.3063 10.3241 65.6596 9.30067 65.034 8.4834C63.9888 10.1327 63.9226 11.8776 64.3642 13.7404C64.6733 15.0289 64.9383 16.2806 65.9173 17.2525H65.9246Z" fill="#DAB9A0"/>
<path d="M33.708 34.2678C33.7448 34.6359 33.9583 34.7979 34.3116 34.8936C35.1875 35.1219 35.9897 35.5416 36.7552 36.0275C37.2484 36.3367 37.8004 36.5355 37.4398 37.3528C37.2484 37.7872 37.9255 37.9786 38.0728 38.4498C37.403 38.9284 36.6301 38.413 35.9529 38.8843C37.3956 39.0021 38.8309 39.1199 40.2735 39.2377C40.3913 38.0891 39.6405 37.3675 38.8971 36.7269C38.2641 36.1821 37.6238 35.6299 36.9687 35.1292C36.0634 34.4371 34.9078 34.1279 33.708 34.2678Z" fill="#DFC1AC"/>
<path d="M33.4873 37.0652C33.6418 36.3437 34.0688 36.4173 34.5545 36.7192C34.9594 36.9695 35.3347 37.2714 35.7469 37.4996C35.9457 37.6101 36.1738 37.4996 36.2695 37.2787C36.3652 37.0652 36.2842 36.7412 36.1002 36.7412C34.5398 36.7707 33.7523 34.8858 32.0741 35.1509C31.7281 35.2024 31.0951 34.9595 31.1393 34.2821C30.6756 34.2306 30.256 34.2673 30.0205 34.7533C31.2791 35.3718 32.1992 36.4983 33.4946 37.0652H33.4873Z" fill="#DFC1AC"/>
<path d="M63.9666 143.619C63.9519 144.297 64.4451 144.738 64.7468 145.268C64.8204 144.562 64.8352 143.877 63.9666 143.619Z" fill="#816E43"/>
<path d="M51.5278 12.8862C51.6603 13.1439 51.8959 13.1955 52.1535 13.2028C52.0431 12.9083 51.8002 12.8641 51.5278 12.8862Z" fill="#DCB996"/>
<path d="M69.5532 0.47998C69.6784 0.811305 69.8771 0.877562 70.1568 0.65668C69.958 0.597777 69.752 0.538883 69.5532 0.47998Z" fill="#A98D90"/>
<path d="M47.6266 111.768C47.5162 111.842 47.4058 111.923 47.2954 111.996C47.5015 112.063 47.5751 111.937 47.6266 111.768Z" fill="#746B3E"/>
<path d="M80.5057 14.9033C80.4174 14.999 80.3217 15.0874 80.2334 15.1831C80.3953 15.161 80.5131 15.0948 80.5057 14.9033Z" fill="#DAB9A0"/>
<path d="M63.7314 142.618C63.7977 142.729 63.8639 142.846 63.9302 142.957C64.0259 142.751 63.8934 142.67 63.7314 142.618Z" fill="#816E43"/>
<path d="M58.7777 140.299C58.1005 140.24 57.8355 139.658 57.4454 139.238C56.2972 137.987 55.149 136.647 53.6989 135.844C52.801 135.351 52.3593 134.799 51.9545 133.834C53.5002 133.856 54.435 135.049 55.6936 135.476C55.6421 134.548 54.7147 133.046 53.8462 132.641C52.7642 132.141 51.903 131.103 50.5487 131.213C50.4162 131.228 50.2248 131.11 50.1291 130.999C49.187 129.844 48.1933 129.799 47.0525 130.749C46.5961 131.132 46.2796 130.653 46.0441 130.3C45.7938 129.924 45.9999 129.74 46.3679 129.623C46.839 129.475 47.0009 129.085 46.5888 128.813C45.7865 128.29 45.1314 127.635 44.4542 126.965C43.9464 126.457 43.1735 126.221 42.4227 126.118C41.9443 126.052 41.4953 125.985 41.1052 125.632C40.59 125.168 40.1336 125.249 39.589 125.742C38.5143 126.714 38.4923 126.67 39.3902 127.87C39.8907 128.533 40.1852 129.328 40.877 129.866C41.7161 130.521 42.5331 131.184 43.6372 131.345C44.9768 131.544 45.8085 132.627 46.8979 133.275C47.7149 133.76 48.4215 134.423 49.187 134.99C49.4299 135.167 49.5109 135.395 49.5182 135.675C50.1365 135.999 50.5855 136.529 51.1007 136.978C52.9555 138.605 54.8398 140.196 56.783 141.727C57.6 142.368 58.7188 142.5 59.602 143.244C60.2203 141.896 59.0721 141.219 58.7703 140.291L58.7777 140.299Z" fill="#837640"/>
<path d="M37.4839 133.738C37.5428 133.886 37.7489 134.062 37.7783 133.996C37.955 133.643 37.5869 133.834 37.4839 133.738Z" fill="#816E43"/>
<path d="M46.0369 13.004C45.5217 12.9966 45.0801 13.1807 44.69 13.512C43.5786 16.9946 43.5123 20.6245 43.2105 24.2248C43.1885 24.5341 43.159 24.9317 43.6669 24.8065C43.9024 24.7476 44.1527 24.4457 44.322 24.8139C44.4692 25.1231 44.3808 25.4912 44.0717 25.6532C43.0854 26.1539 43.3357 27.089 43.24 27.9062C43.2179 28.1124 43.2473 28.348 43.5197 28.4069C43.7552 28.4584 43.9392 28.3259 44.0423 28.1345C44.2852 27.6632 44.4324 26.8018 44.7268 26.7503C46.3534 26.4852 45.6689 25.3366 45.7646 24.4605C45.8677 23.5107 45.8971 22.5682 46.14 21.6184C46.3829 20.6686 46.4418 19.4979 45.9265 18.688C45.1611 17.4879 45.3745 16.332 45.6616 15.176C45.8456 14.4471 45.9707 13.7255 46.0369 12.9893V13.004Z" fill="#DFC1AC"/>
</svg>
