<svg width="151" height="284" viewBox="0 0 151 284" fill="none" xmlns="http://www.w3.org/2000/svg">
<path d="M53.0186 115.905C52.7425 116.25 52.6504 116.664 52.5891 117.078C52.1519 119.862 52.359 122.6 53.4097 125.231C54.2533 127.347 55.9788 128.022 57.9268 126.795C59.9668 125.507 62.1371 124.809 64.4915 124.533C65.0667 124.464 65.5422 124.157 66.0637 123.942C66.3245 123.835 66.6236 123.774 66.8306 124.042C66.9917 124.249 66.9533 124.502 66.8383 124.709C66.6619 125.031 66.4395 125.33 66.1557 125.752C66.7693 125.752 67.099 125.346 67.4902 125.108C68.6022 124.425 69.4305 124.625 70.0056 125.798C70.2511 126.297 70.3968 126.849 70.5578 127.386C71.9996 132.378 73.4261 137.386 74.8755 142.379C75.2513 143.683 75.7268 144.956 76.1563 146.244C76.279 146.612 76.4247 147.019 76.9232 146.819C77.9892 146.405 78.6104 147.08 79.2316 147.717C81.4403 149.979 83.3192 152.464 84.6997 155.324C86.64 159.343 88.2505 163.484 89.2321 167.84C90.2368 172.319 91.1724 176.806 91.6862 181.376C92.0237 184.375 92.967 187.236 93.9333 190.065C94.6388 192.144 95.4671 194.184 96.5715 196.109C97.7755 198.202 99.2326 200.074 100.966 201.738C103.09 203.785 105.245 205.802 107.347 207.873C107.922 208.433 108.466 208.556 109.233 208.395C111.388 207.95 113.052 206.899 113.988 204.851C114.924 202.796 116.611 201.454 118.405 200.25C119.41 199.575 120.323 198.908 120.614 197.666C120.675 197.397 120.821 197.113 121.143 197.067C121.55 197.006 121.703 197.351 121.864 197.627C122.409 198.601 122.278 199.89 121.481 200.764C121.105 201.178 120.652 201.523 120.2 201.845C118.352 203.164 116.718 204.637 115.706 206.753C114.908 208.425 113.451 209.468 111.749 210.166C111.043 210.45 110.299 210.542 109.548 210.573C108.865 210.603 108.244 210.427 107.83 209.813C107.531 209.376 107.109 209.077 106.679 208.793C104.018 207.022 101.694 204.836 99.2787 202.765C95.9963 199.943 93.941 196.285 92.3535 192.335C90.4899 187.703 89.3318 182.895 88.6416 177.956C87.9284 172.848 86.8163 167.794 85.1138 162.932C83.488 158.285 81.3483 153.844 77.9969 150.109C77.7591 149.841 77.6134 149.465 77.0306 149.319C77.1763 149.841 77.299 150.27 77.4217 150.692C79.7761 158.936 82.0078 167.219 84.5233 175.41C87.867 186.292 90.7276 197.313 94.079 208.188C95.9503 214.277 97.6298 220.42 99.4551 226.524C99.5087 226.701 99.5548 226.885 99.6161 227.061C99.9612 228.051 100.122 228.135 101.173 227.889C101.449 227.828 101.71 227.736 101.986 227.659C104.417 226.969 106.848 226.271 109.295 225.604C110.905 225.159 111.058 225.336 111.411 227.008C112.124 230.351 113.206 233.603 114.103 236.901C114.272 237.53 114.678 237.698 115.276 237.537C116.588 237.177 117.907 236.847 119.211 236.464C120.33 236.134 120.415 235.988 120.116 234.861C119.464 232.414 118.797 229.975 118.129 227.537C117.968 226.946 117.8 226.363 117.631 225.78C116.971 223.434 116.971 223.342 119.28 222.813C125.223 221.455 131.021 219.576 136.903 218.027C137.041 217.989 137.172 217.95 137.31 217.912C138.989 217.482 139.588 217.812 140.086 219.522C140.469 220.826 140.891 222.122 141.152 223.457C142.003 227.69 143.338 231.793 144.411 235.965C144.519 236.372 144.649 236.778 144.718 237.192C144.872 238.097 144.726 238.373 143.829 238.642C141.091 239.447 138.345 240.244 135.592 240.996C134.465 241.303 134.196 241.126 133.882 239.984C133.414 238.312 132.869 236.671 132.624 234.945C132.563 234.531 132.432 234.124 132.31 233.726C132.164 233.243 131.819 233.043 131.336 233.181C129.802 233.611 128.268 234.032 126.742 234.5C125.99 234.73 126.136 235.344 126.289 235.904C126.765 237.622 127.248 239.332 127.731 241.05C127.808 241.318 127.907 241.587 127.961 241.863C128.168 242.821 127.969 243.105 127.003 243.358C124.203 244.087 121.396 244.823 118.597 245.551C118.329 245.62 118.053 245.697 117.784 245.782C116.818 246.104 116.711 246.257 116.933 247.193C117.163 248.151 117.431 249.095 117.738 250.03C118.014 250.882 118.206 250.966 119.088 250.782C119.502 250.69 119.901 250.559 120.307 250.444C123.015 249.685 125.714 248.903 128.421 248.167C129.457 247.883 129.702 248.044 129.886 249.049C130.415 251.909 131.359 254.662 132.11 257.469C132.409 258.589 132.601 258.666 133.721 258.359C134.848 258.052 135.975 257.73 137.08 257.347C138.092 256.994 138.268 256.679 137.977 255.644C137.248 253.075 136.85 250.421 136.021 247.883C135.906 247.53 135.822 247.162 135.73 246.794C135.577 246.142 135.853 245.697 136.451 245.459C136.75 245.337 137.064 245.214 137.387 245.168C139.802 244.785 142.111 243.987 144.465 243.381C145.922 243.005 146.206 243.143 146.574 244.554C147.878 249.539 149.174 254.524 150.47 259.509C150.892 261.15 150.654 261.595 149.013 262.063C142.977 263.781 136.934 265.491 130.898 267.194C129.441 267.6 129.319 267.523 128.912 266.112C128.283 263.904 127.677 261.687 127.041 259.486C126.688 258.275 126.558 258.221 125.354 258.489C124.119 258.758 122.877 258.995 121.649 259.31C120.606 259.578 120.476 259.785 120.729 260.79C121.32 263.106 122.002 265.391 122.554 267.715C122.961 269.433 123.076 269.418 121.343 269.909C119.042 270.56 116.741 271.197 114.441 271.849C112.96 272.271 112.899 272.324 113.29 273.781C113.528 274.679 113.497 275.392 112.7 276.029C111.925 276.642 111.91 277.7 111.58 278.529C110.445 281.351 108.259 282.547 105.475 283.046C103.029 283.483 101.112 282.356 99.294 280.983C98.8569 280.653 98.5194 280.201 98.0209 279.901C97.3154 279.487 97.162 278.713 96.9549 277.992C95.5055 272.854 94.0637 267.708 92.6142 262.569C86.0188 239.171 79.2853 215.803 72.8662 192.351C67.6666 173.331 62.1755 154.389 56.9145 135.377C56.7687 134.855 56.6844 134.303 56.37 133.797C55.9482 134.096 56.0172 134.495 55.9942 134.84C55.8791 136.573 55.5417 138.276 55.1122 139.955C54.8591 140.96 54.7671 141.988 54.7058 143.015C54.4987 146.336 54.0079 149.626 53.6167 152.932C53.2103 156.337 53.31 159.757 53.2563 163.177C53.1413 170.985 54.537 178.554 56.7074 186.008C57.7044 189.429 58.4099 192.911 59.1615 196.392C59.3762 197.397 59.637 198.402 59.9898 199.368C61.0788 202.313 61.815 205.373 62.812 208.349C64.1234 212.26 64.783 216.347 66.1481 220.243C67.1987 223.25 68.0884 226.31 68.978 229.362C69.7679 232.069 70.2127 234.838 70.5578 237.629C70.6192 238.143 70.7035 238.642 70.9183 239.117C71.5471 240.513 70.9873 241.694 69.4841 242.108C68.5102 242.376 67.5208 242.3 66.5699 242.008C65.4502 241.663 64.3458 241.264 63.2645 240.835C62.4286 240.505 61.585 240.237 60.6877 240.183C59.5296 240.114 58.525 239.692 57.528 239.117C55.465 237.913 53.3713 236.763 51.5461 235.198C51.1166 234.83 50.6565 234.5 50.4341 233.956C50.3037 233.634 50.2577 233.281 50.5951 233.074C50.8865 232.897 51.1166 233.104 51.316 233.327C53.4634 235.712 56.393 236.778 59.2152 238.005C59.591 238.166 60.0358 238.235 60.4499 238.235C62.1295 238.25 63.6633 238.803 65.1818 239.447C66.0867 239.83 67.0147 240.183 68.0117 240.229C69.3001 240.29 69.7449 239.761 69.3998 238.511C68.1651 234.048 66.9073 229.584 65.4732 225.175C64.3535 221.708 63.0574 218.295 62.3059 214.699C61.6156 211.409 60.5803 208.195 59.4836 204.997C58.2105 201.278 57.0525 197.512 56.3623 193.624C56.2626 193.072 56.1092 192.527 55.9712 191.983C54.8515 187.627 53.6321 183.301 52.6504 178.915C51.6074 174.244 51.0936 169.497 51.0936 164.696C51.0936 162.449 51.0936 160.202 51.1089 157.955C51.1243 154.143 51.8989 150.416 52.2133 146.635C52.6121 141.857 53.8391 137.225 54.6214 132.516C54.7058 132.01 54.7594 131.458 55.1659 131.098C55.6184 130.691 55.4727 130.139 55.6184 129.663C55.7411 129.257 55.5494 129.035 55.1659 128.95C53.1413 128.505 52.359 126.933 51.7531 125.208C50.7638 122.408 50.4801 119.563 51.1089 116.634C51.5768 114.448 52.428 113.627 54.6291 113.259C55.5954 113.098 56.5463 112.822 57.4973 112.569C57.9881 112.439 58.456 112.232 58.9851 111.641C57.3516 112.101 55.9635 112.5 54.5754 112.883C53.7625 113.113 52.8958 113.405 52.1673 112.745C51.27 111.932 50.7408 110.882 50.6871 109.662C50.6565 109.103 50.9862 108.681 51.5154 108.466C51.8605 108.32 52.221 108.213 52.5814 108.106C55.557 107.262 58.5326 106.418 61.5083 105.582C61.8227 105.49 62.1448 105.398 62.4669 105.36C63.4486 105.23 64.1081 105.682 64.3152 106.648C64.4149 107.101 64.4149 107.576 64.4685 108.044C64.5759 109.011 64.852 109.164 65.7109 108.673C66.4932 108.228 67.1221 107.599 67.7279 106.94C70.2434 104.225 72.6668 101.433 75.3203 98.8489C76.7621 97.4455 78.2346 96.065 79.7761 94.769C83.8254 91.3715 88.6186 90.0525 93.7722 90.4206C98.0976 90.7273 101.817 92.6063 104.325 96.3181C105.629 98.2431 106.265 100.375 105.169 102.668C104.915 103.19 105.054 103.696 105.207 104.171C105.851 106.158 105.889 108.228 106.074 110.276C106.196 111.61 105.928 112.868 105.383 114.103C104.256 116.672 103.106 119.241 102.124 121.864C101.211 124.31 99.5854 126.212 97.9059 128.099C97.3154 128.758 96.6482 129.357 96.0039 129.963C94.3551 131.527 92.3074 131.88 90.1294 131.619C88.1048 131.381 86.2412 130.607 84.4082 129.755C83.3806 129.28 82.3146 128.966 81.2102 128.712C81.0875 129.134 81.4326 129.219 81.609 129.38C83.7487 131.274 85.3439 133.536 86.4559 136.182C87.89 139.587 89.4239 142.954 90.904 146.344C91.1647 146.942 91.4025 147.556 91.6095 148.177C93.9256 155.148 96.1727 162.15 98.7188 169.044C99.6928 171.675 100.943 174.206 102.285 176.675C105.314 182.235 108.39 187.757 112.899 192.32C114.678 194.122 116.419 195.955 118.467 197.466C118.689 197.635 118.912 197.811 119.103 198.011C119.18 198.095 119.234 198.279 119.203 198.386C119.134 198.616 118.912 198.601 118.735 198.532C117.562 198.049 116.45 197.435 115.407 196.722C111.848 194.299 108.819 191.285 106.242 187.88C102.04 182.327 98.7648 176.223 96.1343 169.773C95.053 167.127 94.1404 164.428 93.2584 161.705C91.7092 156.943 90.1371 152.188 88.3808 147.502C87.0771 144.043 85.3746 140.745 84.0094 137.31C82.9128 134.541 81.2256 132.24 79.1549 130.162C78.5567 129.564 77.9432 128.958 78.1733 127.969C78.2729 127.554 77.9585 127.393 77.6594 127.24C76.2406 126.527 74.8372 125.76 73.3877 125.108C71.8309 124.41 70.4735 123.421 69.1237 122.408C68.5408 121.971 68.1727 121.396 68.0193 120.675C67.4672 118.121 66.3782 115.821 64.8137 113.727C63.786 112.354 63.4102 112.147 61.746 112.569C60.7874 112.814 59.8747 113.137 58.9928 113.604C57.7427 114.264 56.3239 114.456 54.9665 114.801C54.33 114.962 53.6704 115.054 53.1873 115.56C53.1183 115.675 53.0492 115.798 52.9802 115.913L53.0186 115.905ZM102.07 98.9793C101.411 97.6602 100.506 96.5712 99.2096 95.996C96.6635 94.861 93.9793 94.2551 91.1647 94.3778C88.887 94.4775 86.7703 95.2751 84.6153 95.904C83.0662 96.3565 81.678 97.1311 80.497 98.2431C79.339 99.3321 78.1733 100.421 77.0536 101.548C75.7345 102.875 74.2697 104.049 72.9506 105.383C70.7726 107.576 68.4641 109.639 65.6036 110.943C64.967 111.235 65.2508 111.549 65.5192 111.917C67.03 113.972 68.7172 115.928 69.116 118.566C69.5838 118.497 69.7449 118.175 69.9826 117.96C71.1253 116.971 72.3447 116.066 73.7789 115.606C76.3173 114.801 78.8481 113.98 81.517 113.604C87.4606 112.768 92.9516 113.942 98.1206 116.894C98.7265 117.239 99.34 117.592 99.9535 117.937C100.475 118.229 100.805 118.075 101.058 117.531C101.403 116.764 101.878 116.051 102.178 115.269C102.86 113.482 103.704 111.733 103.665 109.747C103.635 108.106 103.581 106.472 103.527 104.831C103.512 104.363 103.412 103.857 103.658 103.45C104.003 102.875 103.757 102.461 103.566 101.909C103.098 100.567 102.316 99.6849 100.92 99.3474C100.697 99.2937 100.506 99.125 100.299 99.0253C98.6191 98.1817 96.8706 97.4762 95.0683 96.9853C92.6909 96.3411 90.2675 96.2798 87.8593 97.0314C87.3839 97.1771 86.8624 97.5529 86.2872 97.1617C87.0387 96.3258 87.2305 96.1954 88.6033 95.927C93.5192 94.9684 97.8982 96.4868 102.078 98.964L102.07 98.9793ZM90.3595 217.482H90.3671C89.5772 214.691 88.8103 211.892 87.9897 209.108C87.66 207.996 86.732 207.321 85.9804 207.52C85.1752 207.727 84.7994 208.671 85.1291 209.882C86.1108 213.541 86.847 217.26 87.89 220.903C88.4269 222.79 88.8257 224.714 89.2858 226.624C89.4545 227.337 89.815 227.92 90.4822 228.273C91.3488 228.725 92.0083 228.503 92.4531 227.629C92.8366 226.877 92.8136 226.118 92.5759 225.313C91.8166 222.705 91.0957 220.09 90.3595 217.482ZM78.9862 189.275C79.431 190.855 79.8681 192.427 80.3206 194.007C80.7117 195.38 81.3713 195.971 82.2609 195.779C83.1582 195.587 83.5416 194.767 83.4036 193.386C83.2886 192.213 82.8974 191.101 82.6137 189.973C81.517 185.663 80.0675 181.445 79.2546 177.066C79.1779 176.644 79.0245 176.261 78.7254 175.939C78.1809 175.356 77.276 175.088 76.6854 175.356C76.1409 175.609 75.8188 176.345 75.9109 177.174C75.9339 177.404 75.9876 177.634 76.0566 177.856C77.2069 181.622 77.8588 185.51 78.9785 189.283L78.9862 189.275ZM72.6361 166.774C73.0043 168.078 73.5718 170.103 74.147 172.135C74.2467 172.495 74.331 172.864 74.4844 173.201C74.7912 173.884 75.4584 174.213 76.0719 174.029C76.6931 173.845 77.1379 173.209 77.0996 172.526C77.0919 172.342 77.0459 172.158 76.9999 171.974C76.371 169.627 75.9262 167.227 75.2743 164.88C74.3694 161.636 73.334 158.423 72.7205 155.094C72.6898 154.91 72.6438 154.726 72.5671 154.557C72.2527 153.798 71.0026 153.223 70.3508 153.522C69.7296 153.806 69.4305 154.757 69.6835 155.593C69.9443 156.444 70.2741 157.28 70.4351 158.154C70.9183 160.838 71.8002 163.408 72.6361 166.774ZM96.5715 239.539C95.6358 236.226 94.8229 233.35 94.0177 230.474C93.8029 229.699 93.151 229.285 92.3151 229.393C91.6249 229.485 91.2338 229.96 91.1801 230.765C91.1494 231.295 91.3335 231.778 91.4715 232.269C92.9516 237.583 94.4318 242.89 95.9119 248.205C95.9963 248.519 96.0883 248.834 96.2187 249.133C96.4718 249.716 96.9242 249.984 97.5608 249.9C98.2433 249.808 98.6651 249.44 98.7725 248.742C98.8415 248.312 98.7418 247.906 98.6345 247.499C97.9059 244.7 96.9626 241.947 96.5715 239.531V239.539ZM111.833 269.571C112.048 268.935 111.787 268.513 111.664 268.083C110.92 265.522 110 263.014 109.287 260.437C106.626 250.72 103.573 241.126 100.782 231.448C100.728 231.272 100.697 231.072 100.613 230.911C100.506 230.712 100.582 230.305 100.13 230.436C100.061 230.934 100.291 231.364 100.398 231.808C100.874 233.772 101.671 235.628 102.224 237.568C105.123 247.799 108.16 257.983 111.204 268.175C111.335 268.613 111.373 269.103 111.833 269.571ZM137.816 219.914C137.394 220.458 137.67 220.949 137.793 221.424C139.012 226.126 140.469 230.773 141.482 235.528C141.589 236.034 141.658 237.023 142.111 236.893C142.893 236.655 142.279 235.858 142.149 235.344C141.559 232.989 140.807 230.666 140.301 228.288C139.741 225.673 138.951 223.135 138.284 220.558C138.23 220.335 138.161 220.105 137.808 219.914H137.816ZM83.8714 200.603C84.8454 200.334 85.3745 199.33 85.0985 198.271C84.8377 197.274 83.9098 196.661 82.9971 196.906C82.0231 197.167 81.517 198.149 81.8007 199.238C82.0845 200.304 82.9281 200.871 83.8714 200.603ZM144.657 245.851C144.312 246.449 144.465 247.039 144.618 247.599C145.623 251.342 146.643 255.084 147.678 258.827C147.755 259.103 147.747 259.509 148.376 259.494C147.226 254.892 146.26 250.306 144.664 245.851H144.657ZM83.3652 204.851C83.5033 205.304 83.6797 205.733 84.0938 206.017C84.7917 206.5 85.597 206.385 86.0878 205.741C86.709 204.92 86.4022 203.31 85.5126 202.727C84.8531 202.29 83.9711 202.451 83.5186 203.103C83.1352 203.655 83.1965 204.253 83.3576 204.859L83.3652 204.851ZM99.4704 120.023C98.9489 120.046 98.8799 120.53 98.6805 120.859C98.159 121.741 97.7525 122.7 97.1543 123.528C95.5975 125.706 93.8566 127.7 91.1571 128.528C91.111 128.544 91.111 128.689 91.0727 128.858C92.1234 129.058 92.9593 128.613 93.7569 128.053C96.3874 126.205 98.1743 123.674 99.5087 120.79C99.6238 120.553 99.7848 120.276 99.4704 120.016V120.023ZM70.972 149.511C70.6652 148.483 70.1437 148.069 69.3691 148.161C68.5869 148.261 68.2034 148.744 68.1344 149.741C68.1037 150.163 68.0884 150.585 68.2878 150.968C68.5485 151.49 68.9243 151.912 69.5378 151.95C70.1207 151.988 70.4505 151.566 70.7419 151.137C71.1177 150.6 71.1407 150.017 70.972 149.503V149.511ZM111.058 277.01C110.859 276.673 110.568 276.78 110.307 276.849C109.586 277.056 108.85 277.233 108.16 277.509C106.373 278.237 104.532 278.743 102.638 279.066C101.902 279.188 101.188 279.426 100.467 279.625C100.245 279.687 99.9689 279.779 100.061 280.07C100.145 280.331 100.437 280.339 100.659 280.277C101.886 279.97 103.152 279.786 104.34 279.411C106.25 278.812 108.198 278.306 110.084 277.647C110.453 277.516 110.951 277.547 111.051 277.003L111.058 277.01ZM88.0971 128.16C87.2075 127.907 86.3869 127.662 85.5586 127.424C84.7534 127.194 83.9481 126.918 83.1275 126.772C82.3146 126.626 81.6474 125.852 80.428 126.197C82.491 127.746 84.8377 127.739 86.8854 128.544C87.2612 128.689 87.706 128.735 88.1048 128.16H88.0971Z" fill="#A36667"/>
<path d="M18.2699 49.7973C18.5306 49.6976 18.7837 49.5595 19.0598 49.5058C19.6963 49.3755 20.0414 49.015 20.0721 48.3555C20.0721 48.2174 20.1181 48.0794 20.1641 47.9413C20.609 46.5762 20.6166 46.5456 19.1978 46.1161C18.3006 45.8477 17.3879 45.6406 16.4676 45.4565C15.3249 45.2265 14.581 44.6129 14.0672 43.5316C12.6868 40.5943 12.3493 37.5113 12.6254 34.344C13.0395 29.6351 14.6731 25.4248 17.9554 21.9354C19.2285 20.5856 20.724 19.5809 22.4879 18.9597C23.2548 18.6913 23.853 18.7987 24.4128 19.3432C24.9804 19.903 25.5249 20.4859 26.1231 21.0074C26.9053 21.6899 27.4882 21.6209 28.1324 20.808C28.6769 20.1254 28.8072 19.3048 28.9453 18.5149C28.5312 18.2235 28.2321 18.4459 27.933 18.5149C23.9374 19.4122 19.9571 16.59 19.4893 12.5177C19.3205 11.0375 19.635 10.6771 21.1151 10.5927C22.1658 10.5314 23.1628 10.6848 24.0984 11.1909C24.4972 11.4057 24.8883 11.6894 25.4635 11.6817C24.2901 8.86718 24.6966 6.08329 25.4328 3.2994C25.5939 2.70121 25.847 2.1567 26.1844 1.64287C26.7979 0.69957 27.3118 0.538519 28.3011 1.014C28.6769 1.19039 29.0833 1.37445 29.3901 1.64287C31.6908 3.63684 33.7078 5.81487 34.145 9.01289C34.1526 9.08191 34.2446 9.14327 34.352 9.27364C34.6434 8.82883 34.9272 8.4147 35.188 7.98523C35.8245 6.94223 36.7755 6.27502 37.8415 5.75352C38.6697 5.34705 39.1529 5.51578 39.567 6.34404C41.2696 9.73379 40.495 14.458 35.9472 16.2372C35.7325 16.3216 35.5024 16.3752 35.28 16.4673C34.9119 16.6207 34.9425 16.8967 35.1573 17.1345C35.6634 17.6943 36.2003 18.2158 36.9595 18.4306C37.7801 18.6606 38.2249 18.4843 38.5087 17.6867C38.7618 16.9811 38.9228 16.2449 39.0839 15.5163C39.3063 14.5653 39.7741 13.9978 40.8324 13.7984C42.7267 13.438 44.5826 13.5453 46.3849 14.1205C52.8039 16.1835 57.1906 20.4322 59.7138 26.6672C60.1969 27.8559 60.4117 29.0906 60.6418 30.3254C60.8642 31.5371 60.5421 32.5187 59.5604 33.3163C58.7628 33.9682 58.0189 34.6814 57.4054 35.525C56.7228 36.4607 56.7612 36.453 57.6508 37.2506C58.249 37.7874 58.7245 38.3166 59.6985 38.1019C60.45 37.9331 61.0942 38.9301 60.6034 39.5053C59.5988 40.6633 59.2766 42.3429 57.8042 43.1175C57.4897 43.2785 57.2827 43.5163 57.2673 43.8767C57.229 44.9734 56.6461 45.8247 55.9943 46.6299C54.8592 48.0334 53.9773 49.5365 53.6782 51.3694C53.5325 52.259 53.0033 52.5351 52.1444 52.3051C51.6996 52.1824 51.2778 51.9523 50.8713 51.7299C50.4648 51.5075 50.0967 51.2084 49.6826 50.986C48.6242 50.4185 47.9033 50.5028 47.0061 51.2851C46.684 51.5612 46.3772 51.8449 45.9784 52.006C44.9201 52.4201 43.8847 51.8909 43.8234 50.7712C43.6777 48.0103 43.3709 45.2648 43.4169 42.4963C43.4169 42.3122 43.4323 42.1205 43.4629 41.9364C43.555 41.4072 43.7237 40.9011 44.3219 40.786C44.9354 40.671 45.3879 40.9394 45.7407 41.4686C46.3158 42.3505 46.3389 42.3429 47.1288 41.691C49.6826 39.5667 51.3851 36.9515 51.5769 33.5541C51.8146 29.3437 49.8053 26.3068 46.4232 24.0367C45.1655 23.1931 43.7467 22.6946 42.3126 22.2575C41.2849 21.943 40.2956 22.1424 39.3753 22.6179C39.383 22.917 39.5363 22.8863 39.6514 22.8403C40.8938 22.3418 41.8217 22.7713 42.581 23.799C43.3556 24.8573 43.4092 25.977 42.8111 27.1043C41.7834 29.037 40.0808 29.7118 37.9565 29.0906C37.6114 28.9909 37.3046 28.7225 36.8215 28.8912C37.274 29.5048 37.7418 30.0723 38.1406 30.6935C38.9228 31.9205 38.9075 32.8715 38.1406 33.6384C37.2203 34.5664 35.3183 34.9192 34.3674 34.321C33.7692 33.9452 33.5161 33.37 33.4394 32.6721C33.3244 31.6291 33.5774 30.6245 33.7462 29.4511C33.194 29.7272 33.0636 30.2027 32.7875 30.5248C31.016 32.5954 28.9223 32.304 27.2658 31.2073C26.1307 30.4481 25.7933 29.198 26.1154 27.8482C26.4222 26.5752 27.3271 26.184 28.6232 26.138C27.6339 25.7546 26.8056 25.9386 25.893 26.6212C25.2871 27.0813 24.8576 27.7025 24.4128 28.3084C23.1781 29.9803 22.2118 31.7825 21.8437 33.8685C20.9847 38.6387 23.5156 43.2938 27.9943 45.1574C29.1677 45.6483 30.3794 46.001 31.6372 46.1621C32.2353 46.2388 32.6802 46.1621 32.5574 45.3798C32.5038 45.0501 32.5958 44.728 32.7722 44.4365C33.148 43.8153 33.7078 43.6696 34.3213 44.0531C34.6895 44.2832 34.9272 44.6283 35.1649 44.981C36.6451 47.2664 37.7955 49.7282 39.0762 52.121C39.6821 53.256 38.9535 54.299 37.6574 54.3374C37.2893 54.3527 36.9058 54.299 36.5454 54.2147C35.5101 53.9539 34.8198 54.4141 34.3137 55.2423C33.9302 55.8865 33.6081 56.5691 33.2247 57.2056C32.4271 58.5324 31.7445 58.6321 30.7245 57.5124C29.8119 56.5154 28.6769 55.8865 27.4728 55.3574C26.1921 54.7975 24.8193 54.3987 23.922 53.2023C23.738 52.9569 23.4619 52.8802 23.1704 52.9186C22.3192 53.049 21.629 52.6885 20.9387 52.2437C20.6243 52.0443 20.2792 51.8603 19.9264 51.7759C18.8451 51.5381 18.3542 50.8556 18.3006 49.7973V49.8126L18.2699 49.7973ZM35.7018 27.6182C34.6895 26.1917 34.7815 24.9877 35.326 23.7606C35.6098 23.1241 35.9242 22.5029 36.2233 21.8663C36.3537 21.5902 36.6374 21.3295 36.369 20.9154C34.7278 20.8924 33.4547 20.2021 32.7645 18.5993C32.6878 18.4229 32.5728 18.2772 32.3811 18.2158C32.151 18.1391 31.9209 18.1545 31.7062 18.2618C31.4224 18.4076 31.5298 18.6376 31.5911 18.86C31.9746 20.2328 31.4991 21.3065 30.4791 22.2345C29.6892 22.9477 29.7122 22.963 30.6555 23.5765C32.2123 24.5965 33.8919 25.5092 34.0069 27.7639C34.5514 27.4418 34.9886 27.3804 35.7018 27.6182ZM33.4777 14.2739C33.5007 13.5453 33.5238 13.0852 33.5314 12.6174C33.5314 12.2799 33.3397 12.0652 33.0099 12.1266C32.266 12.2646 31.6371 11.9272 30.9776 11.7048C30.3641 11.4977 29.8426 11.6127 29.5128 12.1649C29.0603 12.9011 28.5082 13.4917 27.4421 13.6067C27.9406 14.2969 28.3241 14.8338 28.8456 15.5546C28.8763 14.0898 28.953 12.8935 30.3564 12.441C31.8442 11.9655 32.5728 13.0085 33.4854 14.2739H33.4777Z" fill="#A36667"/>
<path d="M54.2841 92.499C54.1 92.0618 53.985 91.617 54.0003 91.1415C54.123 87.0079 56.2704 82.1917 61.378 80.8266C61.5084 80.7882 61.6234 80.7115 61.8458 80.5965C61.1172 79.9216 60.7568 79.078 60.404 78.2191C60.2123 77.7436 59.9745 77.2834 59.7138 76.8386C59.0849 75.7726 58.6171 75.6652 57.5664 76.3861C57.1446 76.6776 56.7612 77.0303 56.3931 77.3831C56.0173 77.7359 55.6798 78.127 55.3271 78.5028C54.2611 79.6148 53.5248 79.7069 52.2671 78.8556C51.8836 78.5948 51.5462 78.2574 51.1857 77.966C50.6412 77.5288 50.5109 76.992 50.7103 76.3325C50.9173 75.6576 51.0937 74.9827 51.2931 74.3078C51.4542 73.7556 51.5002 73.2034 51.3084 72.6513C51.0477 71.8767 50.6412 71.5546 49.8513 71.6466C48.6089 71.7847 47.3665 71.9687 46.0321 72.1528C46.2852 72.5976 46.684 72.5899 47.0061 72.7126C47.9954 73.0807 48.0721 73.1958 47.934 74.2618C47.9187 74.3998 47.888 74.5379 47.865 74.6759C47.3742 77.3064 47.3205 77.3524 44.644 77.4598C43.9844 77.4828 43.3326 77.5135 42.7037 77.7129C41.4383 78.1117 41.2006 78.7866 41.9828 79.9216C42.489 80.6502 43.0565 81.3404 43.578 82.0613C44.4062 83.2193 44.3986 83.4341 43.509 84.5001C43.3019 84.7531 43.0872 85.0062 42.8647 85.244C41.6377 86.517 41.0932 86.5861 39.5747 85.7194C38.6391 85.1903 37.7264 84.6074 36.6681 84.339C35.7171 84.0936 35.326 84.2777 35.142 85.221C34.9732 86.0876 34.9502 86.9849 34.8582 87.8668C34.6588 89.7457 34.4441 89.9758 32.6035 90.2749C32.4194 90.3056 32.2354 90.3516 32.0513 90.3823C30.6172 90.6124 30.3948 90.505 29.7199 89.2166C29.3288 88.4727 28.9453 87.7211 28.5388 86.9849C28.002 86.0185 27.6032 85.9035 26.6216 86.4097C26.3301 86.5631 26.0694 86.7701 25.7933 86.9312C24.7963 87.5217 24.5892 87.4067 24.4205 86.1949C24.4052 86.0569 24.3898 85.9188 24.3745 85.7731C24.3898 85.4664 24.4052 85.1673 24.4205 84.8605C24.6659 84.339 24.6506 83.7638 24.712 83.2117C24.827 82.2377 24.8653 82.1533 25.8163 82.1917C27.3731 82.253 28.884 82.0996 30.4178 81.8082C31.5988 81.5781 32.6955 81.1793 33.6388 80.5045C37.1359 77.9967 39.0225 74.6146 38.4473 70.2662C38.0485 67.2676 36.1083 65.1279 33.6235 63.4944C33.1173 63.1569 32.5805 62.8732 32.128 62.459C31.7215 62.0909 31.6142 61.6844 31.8749 61.209C32.8796 59.353 33.7999 57.4588 35.0346 55.7409C35.4947 55.0967 36.0316 54.951 36.7295 55.3037C37.0669 55.4725 37.4273 55.5875 37.7494 55.7639C39.4443 56.6842 39.5747 56.9756 39.1376 58.8852C38.9535 59.7058 38.7694 60.5341 38.7618 61.3853C38.7618 62.2213 38.9995 62.5971 39.7664 62.6201C41.0548 62.6584 42.3663 62.6431 43.555 62.0832C43.5933 61.4544 43.1332 61.4007 42.8417 61.232C42.1975 60.8562 42.0825 60.327 42.3202 59.6675C42.4506 59.3147 42.5887 58.9696 42.7267 58.6168C43.4323 56.8529 43.6393 56.6765 45.5106 56.6918C46.4692 56.6995 47.3742 56.4924 48.2561 56.1933C49.2685 55.8559 49.4065 55.5415 49.0614 54.4985C48.931 54.0997 48.724 53.7239 48.5476 53.3481C48.3865 53.003 48.2868 52.6426 48.3328 52.2591C48.4172 51.6072 48.816 51.3158 49.4065 51.6072C51.3085 52.5198 53.1337 53.5705 54.9359 54.6595C55.5341 55.0276 55.6032 55.5031 55.2427 56.086C54.7289 56.9296 54.2917 57.8115 53.9696 58.7395C53.3408 60.5878 53.0493 62.4744 53.4481 64.407C54.169 67.9118 56.5695 69.9594 59.6678 71.3168C62.9348 72.7433 66.0715 72.1451 69.1085 70.5423C69.607 70.2815 70.0901 69.9824 70.5426 69.6603C71.1254 69.2462 71.7313 69.1235 72.4829 69.5376C72.6133 68.0958 73.5105 67.2522 74.3771 66.3166C78.043 62.344 79.6918 57.7348 78.2501 52.3665C77.0153 47.765 73.8863 44.9428 69.3922 43.6007C66.6697 42.7877 63.9318 43.0025 61.2016 43.662C61.0636 43.6927 60.9409 43.7617 60.8028 43.8077C60.5344 43.8921 60.2353 43.9918 60.0282 43.7157C59.7752 43.3706 60.0282 43.0945 60.243 42.8491C61.2936 41.6374 62.5284 40.6327 63.9011 39.8121C70.1821 36.0543 77.8743 37.1279 83.0663 42.4733C88.6034 48.1791 90.2522 57.1827 87.1386 64.5527C85.436 68.579 82.7748 71.7233 78.8252 73.7019C77.3681 74.4305 76.8773 74.3615 75.6809 73.2878C75.3358 72.981 74.983 72.6666 74.5612 72.4059C74.6762 72.981 75.052 73.4029 75.3588 73.8707C75.9186 74.7219 75.911 74.9137 75.2438 75.7189C75.1824 75.7879 75.1211 75.857 75.052 75.926C73.2728 77.8816 73.1041 77.9046 70.811 76.6085C70.0364 76.1714 69.2695 75.7036 68.4643 75.3431C67.4749 74.906 66.9918 75.1207 66.5853 76.11C66.2479 76.9383 66.0485 77.8049 65.9028 78.6869C65.7801 79.4308 65.642 80.1747 64.6527 80.6272C66.3246 81.0336 67.7357 81.5091 69.0011 82.345C69.4306 82.6288 69.86 82.9126 70.1438 83.365C70.7036 84.2546 70.5426 84.8682 69.5609 85.244C68.8631 85.5124 68.1345 85.7118 67.4059 85.8728C65.5347 86.2793 64.2156 87.284 63.464 89.1015C62.9502 90.3439 62.1602 90.7504 60.8718 90.4206C58.8472 89.8991 57.1677 90.3516 55.7795 91.8931C55.3654 92.3532 54.8669 92.5143 54.2764 92.4759H54.2917L54.2841 92.499ZM44.7514 62.1062C44.7053 62.1676 44.6593 62.2289 44.6133 62.2903C45.0198 62.8501 45.4646 63.3947 45.825 63.9852C46.4616 65.0052 46.3849 65.4883 45.5106 66.3243C44.736 67.0682 43.8847 67.743 43.2635 68.6327C42.3126 69.9824 42.8954 71.1558 44.6747 71.4012C44.598 71.2095 44.5366 71.0331 44.4599 70.872C43.6087 69.0238 43.6317 68.8781 45.0044 67.4286C45.2959 67.1218 45.595 66.8304 45.8787 66.516C46.4156 65.9255 46.9524 65.3273 47.3205 64.6217C47.7193 63.8548 47.5659 63.456 46.7683 63.0572C46.1088 62.7274 45.4262 62.4283 44.7514 62.1139V62.1062Z" fill="#A36667"/>
<path d="M44.4062 115.43C45.6025 115.598 46.8373 115.43 48.0183 115.851C49.3681 116.335 50.158 117.216 50.1733 118.643C50.1963 120.967 50.6105 123.221 51.3774 125.392C52.0829 127.378 51.4618 128.812 49.9509 130.101C45.7789 133.667 41.3845 136.941 36.5607 139.564C34.4747 140.699 32.312 141.658 29.9422 142.202C28.301 142.578 26.6828 142.977 25.011 143.146C23.5155 143.299 22.1197 143.13 20.8466 142.256C20.1104 141.758 19.3051 141.374 18.5996 140.814C16.713 139.304 15.7313 137.31 15.3019 134.963C15.0334 133.483 15.0795 131.98 14.765 130.507C14.2742 128.176 13.1162 126.136 12.0655 124.05C11.452 122.838 10.9535 121.573 10.4396 120.315C9.36597 117.669 9.81844 115.138 11.2219 112.776C13.2465 109.371 16.2375 107.132 19.9877 105.928C25.3024 104.225 30.5251 104.7 35.6404 106.779C37.3812 107.484 39.0378 108.351 40.5869 109.425C43.2405 111.258 46.1087 112.584 49.3067 113.121C49.5828 113.167 49.8589 113.244 50.1273 113.313C50.6028 113.443 51.063 113.635 50.9709 114.241C50.8866 114.801 50.4111 114.954 49.9203 114.992C49.1687 115.046 48.4248 114.931 47.6885 114.801C46.914 114.663 46.1471 114.417 45.4645 115.138C45.2498 115.368 44.7589 115.338 44.3985 115.43C42.7573 115.054 41.0548 114.931 39.4903 114.249C38.6083 113.988 37.7187 113.735 36.8367 113.474C34.2139 111.925 31.338 111.495 28.3547 111.526C28.0403 111.526 27.6952 111.679 27.4804 111.204C28.1553 110.368 29.1293 110.23 30.1109 110.253C32.1279 110.299 34.1142 110.483 35.9855 111.396C37.3736 112.071 38.8307 112.592 40.2725 113.144C41.0241 113.436 41.791 113.735 42.742 113.819C42.5886 113.566 42.5579 113.451 42.4889 113.42C39.1988 111.971 36.1082 110.115 32.588 109.133C28.0326 107.86 23.6305 108.014 19.2668 109.816C17.4799 110.552 15.831 111.511 14.4122 112.845C13.5303 113.673 12.9858 114.678 12.7327 115.859C12.1652 118.505 12.6177 121.005 13.9981 123.29C15.9307 126.473 17.1348 129.84 17.3418 133.582C17.4569 135.645 18.3312 137.463 19.5199 139.127C19.7193 139.411 19.911 139.787 20.3711 139.626C20.5629 139.357 20.5399 139.066 20.5705 138.79C21.0997 134.127 23.1167 130.139 25.9849 126.504C28.393 123.451 31.2996 120.99 34.5667 118.927C36.5607 117.669 38.708 116.741 40.9551 116.081C42.0747 115.752 43.2481 115.629 44.3985 115.407L44.4062 115.43ZM47.7039 117.884C47.6272 117.339 47.3051 117.362 47.0443 117.316C45.8786 117.132 44.7129 117.224 43.5702 117.47C38.731 118.49 34.5897 120.813 31.0542 124.241C30.5864 124.694 30.1569 125.192 29.7428 125.699C29.5818 125.898 29.3824 126.174 29.8655 126.465C34.6587 121.281 40.3722 117.853 47.7039 117.884ZM25.5018 132.325C26.6675 131.366 28.0863 129.027 28.0939 128.076C26.8899 129.479 25.7625 130.63 25.5018 132.325Z" fill="#A36667"/>
<path d="M24.3819 84.8605C24.3666 85.1673 24.3513 85.4663 24.3359 85.7731C24.1212 86.54 23.9295 87.3069 23.6841 88.0662C23.2239 89.5003 22.7638 89.8608 21.276 89.9605C14.9413 90.3976 9.8183 87.8975 5.83803 83.1503C1.0525 77.4445 -0.535011 70.9027 1.87309 63.7321C3.66767 58.379 7.42553 54.9433 12.9703 53.6088C15.5165 52.9953 18.0856 53.187 20.6164 53.8236C20.7084 53.8466 20.7928 53.8773 20.8848 53.9079C21.1916 54.0306 21.5674 54.138 21.5674 54.5215C21.5674 54.9433 21.1609 54.9509 20.8542 55.0506C18.6531 55.7409 16.5518 56.6381 14.7879 58.172C11.4748 61.0556 9.64191 64.66 10.1404 69.0851C10.7309 74.3308 13.6298 78.058 18.377 80.3357C19.3894 80.8189 20.463 81.164 21.552 81.4477C24.0522 82.1073 24.1826 82.2607 24.3819 84.8528V84.8605Z" fill="#A36667"/>
<path d="M54.2764 92.4912C55.0509 93.4652 55.7948 94.4468 56.3547 95.9423C56.6308 94.838 56.8072 94.0787 57.0142 93.3272C57.2596 92.4375 57.7658 91.732 58.5174 91.1875C59.0312 90.8117 59.5911 90.643 60.2276 90.689C61.355 90.781 61.7998 91.1875 62.1525 92.5296C62.628 92.3532 62.8198 91.9007 63.0958 91.5479C63.7401 90.712 64.5606 90.1215 65.5116 89.6767C66.1788 89.3622 66.8691 89.3315 67.5669 89.4926C68.7787 89.7764 69.2311 90.7043 68.6943 91.8393C68.0884 93.1201 67.2525 94.2628 66.2172 95.2214C64.7754 96.5559 63.8551 98.2047 63.0115 99.9379C62.8198 100.329 62.8811 100.544 63.2185 100.736C63.3029 100.782 63.3719 100.843 63.4563 100.881C65.4886 101.986 64.4609 104.378 62.9501 104.946C62.6894 105.046 62.421 105.13 62.1525 105.207C58.7781 106.165 55.4037 107.116 52.0216 108.067C51.5308 108.205 51.0323 108.343 50.5032 108.305C48.7316 108.175 47.8496 106.786 48.5015 105.145C48.6012 104.892 48.7393 104.647 48.839 104.432C46.9677 102.891 44.828 102.032 42.5273 101.51C41.5226 101.28 40.5793 100.828 39.682 100.337C38.1789 99.5161 38.1635 98.082 39.6053 97.131C40.6177 96.4562 41.7297 96.5098 42.857 96.6632C43.7773 96.7859 44.6209 97.1771 45.5566 97.5145C44.943 96.6786 44.8357 95.858 45.3648 95.0144V95.0297C47.7039 93.818 49.2531 94.1247 50.9863 96.1494C51.3084 96.5252 51.6152 96.9163 52.0063 97.4071C51.9296 96.4638 51.8299 95.6816 51.8146 94.8993C51.8069 94.4929 51.9066 94.0711 52.014 93.6646C52.4204 92.1461 52.7655 91.9774 54.284 92.5066L54.2687 92.4989L54.2764 92.4912ZM47.9493 99.4625C48.885 100.874 50.158 101.832 49.9126 103.535L51.9219 102.967C50.1887 102.185 49.8589 100.16 47.9493 99.4625ZM61.4163 100.252C60.381 99.148 61.0559 97.7983 60.7721 96.3488C59.8135 97.8289 60.404 99.4011 59.5911 100.766C60.2889 100.667 60.8104 100.567 61.4086 100.245L61.4163 100.252ZM52.6275 98.5958C52.7732 99.7079 53.3714 100.697 53.3791 101.855C53.3791 102.315 53.8239 102.231 54.146 102.131C54.5141 102.016 54.5601 101.763 54.33 101.495C53.6168 100.62 53.2564 99.5391 52.6198 98.6035L52.6275 98.5958ZM56.6768 98.3044C56.7075 99.171 56.6461 100.015 56.6384 100.851C56.6384 101.341 56.9989 101.326 57.344 101.226C57.6508 101.142 57.8885 100.935 57.6661 100.613C57.1753 99.9073 57.0372 99.0637 56.6768 98.3044Z" fill="#A36667"/>
<path d="M49.5673 232.422C48.624 231.049 48.0412 229.669 47.3586 228.357C47.1822 228.027 47.0595 227.667 46.8755 227.345C44.6131 223.342 43.3323 219.032 42.481 214.522C41.0929 207.206 39.8736 199.867 38.9609 192.481C38.4548 188.394 37.8029 184.314 37.7492 180.188C37.6725 173.761 38.1173 167.365 39.0223 160.999C39.5438 157.334 40.0116 153.66 40.9856 150.086C42.2586 145.423 43.8078 140.853 45.8018 136.451C46.9061 134.004 48.6317 131.933 50.6717 130.162C51.0244 129.855 51.3849 129.548 51.845 129.41C52.2362 129.295 52.6043 129.364 52.8727 129.679C53.1565 130.001 53.1565 130.384 52.9341 130.722C52.6733 131.105 52.3665 131.466 52.0444 131.803C50.0505 133.897 48.5627 136.32 47.466 138.989C45.7558 143.146 44.0072 147.302 43.0256 151.712C42.1053 155.83 41.4304 159.987 40.9089 164.174C40.2033 169.896 39.7048 175.632 39.8812 181.407C40.0193 186.047 40.6635 190.641 41.2923 195.234C41.9826 200.288 42.7955 205.327 43.5854 210.366C44.0149 213.096 44.4674 215.818 44.9812 218.533C45.6024 221.877 47.0058 224.952 48.3403 228.051C48.7697 229.04 49.1762 230.037 49.5673 231.041C49.7054 231.41 49.9584 231.793 49.5827 232.437L49.5673 232.422Z" fill="#A36667"/>
<path d="M18.2774 49.7819C15.1868 54.4448 8.03915 54.5215 4.36565 51.2314C1.4974 48.6622 0.822513 44.889 2.54806 41.5453C3.9055 38.9225 7.3566 37.9562 10.1021 39.3443C12.9474 40.7784 14.0978 43.8997 12.7863 46.6836C12.6253 47.0211 12.4412 47.3432 12.2265 47.7496C12.794 47.9644 13.2388 47.6729 13.6529 47.4582C14.3662 47.0901 15.1254 46.8753 15.8693 46.5992C16.9813 46.1774 17.9783 46.4919 18.983 46.9367C19.4508 47.1438 19.4968 47.4275 19.2054 47.811C18.7529 48.4092 18.2774 48.992 18.2851 49.8049V49.7896L18.2774 49.7819Z" fill="#A36667"/>
<path d="M64.6066 33.0172C63.1418 32.3193 62.0604 31.4757 61.4392 30.1259C60.3886 27.8175 61.0021 25.0797 62.9807 23.3618C64.8903 21.7129 67.6589 21.5135 69.7679 22.8863C72.6361 24.7576 73.9476 28.3007 72.9966 31.6214C71.7695 35.9084 67.3905 38.9608 62.9577 38.608C62.1525 38.5466 61.3855 38.3626 60.6953 37.9254C59.9821 37.4806 59.3302 36.9438 58.5096 36.6677C58.0572 36.5143 57.9958 36.1845 58.2565 35.7781C58.778 34.9728 59.3609 34.2749 60.3579 34.0295C61.1785 33.8301 61.9837 33.5924 62.8273 33.531C63.3795 33.4927 63.947 33.462 64.5989 33.0095L64.6066 33.0172Z" fill="#A36667"/>
<path d="M108.451 206.439C107.193 205.572 106.142 204.721 105.23 203.732C101.702 199.882 98.6114 195.733 96.4947 190.917C95.8505 189.452 95.4747 187.895 95.1373 186.346C94.3243 182.642 93.5728 178.93 93.1279 175.164C92.7675 172.112 91.7628 169.236 90.7352 166.375C89.7765 163.737 88.5955 161.183 87.2764 158.699C87.054 158.285 86.5325 157.656 87.0693 157.326C87.7212 156.927 87.9743 157.748 88.2504 158.17C89.8072 160.578 90.9576 163.185 92.1233 165.8C91.8012 164.665 91.4944 163.53 91.1647 162.403C89.7842 157.686 87.9436 153.123 86.3101 148.491C84.2394 142.601 81.4709 137.01 77.529 132.11C75.6884 129.824 73.7711 127.539 71.0562 126.174C70.9719 126.136 70.8952 126.082 70.8185 126.021C70.5577 125.813 70.274 125.599 70.481 125.208C70.6498 124.901 70.9565 124.924 71.225 125.008C71.6237 125.131 72.0225 125.284 72.3983 125.476C73.3646 125.959 74.2696 126.557 75.0595 127.294C77.0535 129.15 78.9708 131.059 80.3205 133.475C80.888 134.495 81.5859 135.446 82.1995 136.443C83.2348 138.115 84.2625 139.787 84.945 141.65C86.0263 144.641 87.4758 147.486 88.2581 150.592C88.7719 152.64 89.6232 154.573 90.4054 156.528C90.5435 156.873 90.6738 157.226 90.7735 157.587C91.6095 160.562 92.4531 163.538 93.266 166.513C93.4194 167.066 93.7798 167.664 93.0743 168.155C92.8672 168.3 93.0129 168.599 93.0973 168.814C94.2937 171.775 94.3397 174.942 94.7921 178.04C95.3673 181.928 96.0729 185.801 97.0775 189.598C97.7908 192.297 99.2326 194.667 100.782 196.968C102.883 200.074 105.023 203.149 108.006 205.511C108.213 205.68 108.466 205.841 108.459 206.439H108.451Z" fill="#A36667"/>
<path d="M45.3571 95.0067C44.1914 95.789 43.087 95.6356 41.975 94.838C40.7096 93.933 39.3292 93.749 37.8414 94.2398C37.0898 94.4852 36.3152 94.6846 35.5483 94.884C34.9961 95.0297 34.4133 95.1601 33.9838 94.6539C33.5467 94.1401 33.6157 93.5342 33.8304 92.9284C34.2446 91.7627 34.8811 90.7504 35.6863 89.8147C38.754 86.2409 43.4322 85.4663 47.4738 87.8821C49.0613 88.8331 50.3267 90.1445 51.408 91.6323C51.7301 92.0848 52.1213 92.5679 51.7148 93.1585C51.3467 93.6876 50.8022 93.5036 50.3037 93.4039C49.0536 93.1508 47.8189 92.9667 46.6455 93.749C46.1317 94.0941 45.6715 94.4699 45.3571 95.0067Z" fill="#A36667"/>
<path d="M45.9324 199.153C45.2191 197.635 44.943 196.162 44.6439 194.713C43.9077 191.185 43.2482 187.65 42.719 184.083C41.8064 177.979 41.6913 171.89 42.5426 165.77C43.0718 161.973 43.4322 158.147 44.1531 154.373C45.1961 148.921 47.029 143.721 49.4602 138.736C50.2808 137.056 51.0707 135.362 51.8836 133.674C52.2901 132.831 52.7119 131.995 53.3331 131.282C53.5248 131.067 53.7779 130.921 54.0846 131.082C54.3914 131.243 54.4221 131.542 54.33 131.811C54.1997 132.21 54.0156 132.585 53.8316 132.961C52.4588 135.783 51.0093 138.56 49.7362 141.42C47.6119 146.19 46.1778 151.175 45.3648 156.337C44.4906 161.927 43.8234 167.549 43.4782 173.209C43.2175 177.488 43.7237 181.714 44.2452 185.939C44.7436 189.981 45.3648 194 46.1318 197.995C46.1931 198.31 46.2928 198.632 45.9324 199.146V199.153Z" fill="#A36667"/>
<path d="M45.6636 170.218C46.1851 170.709 46.1314 171.291 46.1698 171.836C46.4689 176.276 46.8753 180.701 47.4121 185.119C47.8876 189.068 48.5165 192.995 49.3141 196.899C49.8203 199.376 50.2114 201.876 50.6639 204.361C50.7636 204.913 50.8786 205.465 51.0243 206.009C51.5918 208.18 52.2667 210.327 52.6272 212.551C52.9262 214.361 53.7545 216.018 54.2913 217.759C55.0659 220.266 55.7485 222.797 56.4847 225.32C56.7071 226.08 56.9142 226.854 57.3283 227.544C57.497 227.82 57.6197 228.219 57.2593 228.426C56.8068 228.687 56.5461 228.288 56.408 227.966C55.9325 226.846 55.5107 225.704 55.0659 224.576C54.9969 224.4 54.9356 224.224 54.8895 224.04C53.348 218.349 51.1624 212.835 49.8739 207.075C49.1607 203.877 48.6776 200.633 48.0947 197.412C47.4275 193.731 46.7373 190.05 46.2848 186.331C45.6789 181.361 44.9274 176.399 45.3185 171.36C45.3492 171 45.2495 170.601 45.6713 170.225L45.6636 170.218Z" fill="#A36667"/>
<path d="M46.7066 85.4893C46.3691 84.408 46.5379 83.4033 46.8216 82.4064C47.2051 81.0643 47.7189 79.7605 48.0564 78.3954C48.3248 77.2834 49.0457 77.1147 49.9199 77.8739C51.1163 78.9169 52.2974 79.9676 53.4554 81.0566C54.8512 82.368 55.365 83.8635 54.4141 85.7118C53.7315 87.0385 53.0643 88.3806 53.1026 89.9451C53.1103 90.3516 52.8879 90.666 52.4661 90.758C52.098 90.8424 51.7989 90.6813 51.6302 90.3822C50.8096 88.9328 49.4368 88.1352 48.0947 87.2686C47.4198 86.8314 46.8293 86.2946 46.6989 85.4893H46.7066Z" fill="#A36667"/>
<path d="M52.4435 195.541C52.8422 195.679 52.8806 195.986 52.9496 196.239C53.8776 199.575 54.9206 202.888 55.6722 206.263C56.3547 209.369 57.183 212.436 57.8732 215.542C58.6938 219.239 59.8748 222.851 60.9025 226.501C61.3473 228.081 61.8535 229.638 62.2446 231.226C62.6127 232.736 63.3489 234.109 63.7631 235.597C63.8704 235.973 64.2155 236.525 63.7401 236.732C63.1495 236.985 63.0192 236.302 62.8274 235.927C62.467 235.221 62.0759 234.508 61.8458 233.756C60.7491 230.137 59.3457 226.609 58.5327 222.897C58.249 221.616 57.9115 220.351 57.5434 219.093C56.117 214.2 55.1276 209.2 53.8929 204.261C53.2564 201.715 52.7579 199.146 52.3668 196.561C52.3208 196.247 52.175 195.925 52.4511 195.549L52.4435 195.541Z" fill="#A36667"/>
<path d="M50.0733 150.293C50.5948 150.991 50.4414 151.513 50.4031 151.996C50.173 155.263 49.8586 158.522 49.6975 161.797C49.4905 165.908 49.2451 170.011 49.5288 174.129C49.8126 178.232 50.0426 182.343 50.6332 186.423C50.7482 187.22 50.9169 187.987 51.262 188.716C51.3847 188.969 51.4844 189.237 51.5458 189.506C51.6148 189.812 51.7375 190.219 51.3387 190.349C51.0243 190.457 50.8862 190.104 50.7635 189.851C49.989 188.286 49.4981 186.63 49.2527 184.904C48.6008 180.356 48.2021 175.778 48.2251 171.199C48.2557 164.558 48.5778 157.916 49.8202 151.359C49.8739 151.091 49.9506 150.823 50.0887 150.286L50.0733 150.293Z" fill="#A36667"/>
<path d="M115.345 198.969C113.873 198.302 112.7 197.428 111.68 196.438C109.133 193.969 106.442 191.63 104.141 188.907C103.052 187.619 102.085 186.239 101.173 184.82C100.314 183.485 99.478 182.128 98.5807 180.816C97.1159 178.669 96.3183 176.207 95.5974 173.738C95.536 173.515 95.513 173.278 95.5054 173.048C95.5054 172.856 95.5897 172.687 95.7891 172.61C95.9885 172.534 96.1572 172.634 96.2953 172.764C96.6404 173.101 96.7478 173.569 96.9165 174.006C99.2939 180.034 102.768 185.41 107.017 190.242C109.478 193.041 111.94 195.894 114.97 198.141C115.146 198.271 115.33 198.44 115.338 198.977L115.345 198.969Z" fill="#A36667"/>
<path d="M67.4672 237.1C67.1068 237.069 67.0224 236.77 66.915 236.525C66.1174 234.73 65.2738 232.959 64.714 231.072C64.4226 230.091 64.0621 229.117 63.6173 228.189C62.8427 226.57 62.4746 224.83 61.8918 223.158C60.6724 219.668 59.7137 216.102 58.6094 212.582C57.6354 209.491 57.3516 206.255 56.37 203.172C56.2396 202.75 56.0479 202.098 56.6231 201.96C57.2136 201.815 57.2903 202.505 57.39 202.919C57.7965 204.598 58.2643 206.278 58.5097 207.98C58.8548 210.312 59.6217 212.521 60.2813 214.76C60.9715 217.084 61.8074 219.369 62.4209 221.716C63.4793 225.757 65.1895 229.554 66.5853 233.465C66.8997 234.347 67.2678 235.206 67.5822 236.088C67.705 236.425 67.8507 236.801 67.4749 237.1H67.4672Z" fill="#A36667"/>
<path d="M46.0396 167.534C45.5565 167.434 45.7022 167.027 45.6792 166.751C45.5411 164.972 45.6101 163.193 45.8786 161.429C46.2313 159.113 46.5688 156.797 46.9599 154.488C47.1056 153.614 47.282 152.724 47.6041 151.904C48.9769 148.399 49.7055 144.718 50.7331 141.113C50.9862 140.216 51.3313 139.342 51.6611 138.468C51.7608 138.207 51.9142 137.969 52.0829 137.739C52.2516 137.509 52.4817 137.317 52.7961 137.486C53.0492 137.624 53.0032 137.877 52.9495 138.107C52.9035 138.291 52.8345 138.46 52.7731 138.636C51.8681 141.198 51.247 143.844 50.5491 146.474C50.2346 147.648 49.8895 148.821 49.4907 149.971C47.6731 155.278 46.7298 160.746 46.2927 166.322C46.262 166.721 46.3771 167.165 46.0473 167.534H46.0396Z" fill="#A36667"/>
<path d="M51.5307 230.052C50.8021 230.144 50.5184 229.546 50.1963 229.086C49.391 227.913 48.9845 226.547 48.5781 225.221C47.7191 222.398 46.5918 219.676 45.6868 216.877C45.173 215.282 44.8509 213.617 44.6822 211.945C44.4214 209.338 44.0456 206.746 43.1483 204.269C43.0717 204.054 43.0026 203.824 43.1023 203.578C43.5548 203.44 43.6392 203.824 43.7849 204.085C44.7205 205.787 45.2343 207.651 45.4798 209.553C45.9859 213.472 47.0289 217.229 48.4247 220.918C49.1303 222.782 49.9355 224.638 50.2499 226.647C50.3957 227.56 50.8558 228.411 51.3236 229.224C51.4617 229.462 51.6994 229.661 51.5307 230.06V230.052Z" fill="#A36667"/>
<path d="M46.653 203.049C47.1822 203.264 47.1822 203.686 47.2589 204.016C48.0565 207.29 49.0765 210.504 49.8357 213.786C50.4646 216.508 51.5459 219.124 52.4432 221.785C52.5736 222.184 52.7806 222.559 52.934 222.951C53.0567 223.265 53.1488 223.61 52.7576 223.802C52.3895 223.986 52.1211 223.756 51.914 223.495C51.707 223.242 51.5076 222.974 51.3772 222.674C50.9861 221.77 50.5796 220.872 50.2728 219.944C48.8464 215.627 47.8187 211.201 46.8294 206.769C46.561 205.572 46.3769 204.338 46.653 203.049Z" fill="#A36667"/>
<path d="M113.719 202.919C113.198 203.042 112.745 202.781 112.308 202.551C108.666 200.626 105.537 198.156 103.121 194.728C100.92 191.599 99.1405 188.309 97.9211 184.697C97.737 184.153 97.6603 183.608 97.6373 183.048C97.6297 182.803 97.691 182.55 97.9671 182.511C98.2202 182.473 98.3966 182.672 98.4809 182.902C98.6113 183.255 98.7187 183.608 98.8184 183.968C100.122 188.746 102.691 192.842 105.705 196.699C106.84 198.156 108.359 199.192 109.877 200.196C111.005 200.94 112.101 201.753 113.321 202.351C113.512 202.443 113.758 202.528 113.712 202.911L113.719 202.919Z" fill="#A36667"/>
<path d="M83.6719 150.148C83.3652 150.209 83.2501 150.048 83.1581 149.895C81.2101 146.865 78.9477 144.051 76.9154 141.075C76.3633 140.262 75.7344 139.511 75.1439 138.721C74.9215 138.422 74.7067 138.115 74.5303 137.785C74.423 137.578 74.3923 137.317 74.607 137.141C74.8524 136.949 75.0518 137.118 75.2129 137.287C75.9338 138.084 76.7467 138.828 77.3449 139.71C79.3695 142.693 81.4172 145.654 83.2118 148.783C83.4495 149.204 83.7563 149.626 83.6719 150.148Z" fill="#A36667"/>
<path d="M62.8503 118.689C62.9884 119.586 63.1494 120.507 63.2721 121.434C63.3105 121.757 63.2875 122.094 63.2261 122.408C63.1494 122.823 63.0114 123.329 62.5129 123.313C61.976 123.298 61.9914 122.754 61.9377 122.339C61.5926 119.931 61.0711 117.569 59.9207 115.391C59.8747 115.307 59.8287 115.222 59.8057 115.138C59.66 114.663 59.3149 114.08 59.9207 113.773C60.5036 113.474 60.68 114.11 60.933 114.479C61.8303 115.759 62.2905 117.232 62.8503 118.697V118.689Z" fill="#A36667"/>
<path d="M55.3804 115.644C55.9095 115.897 55.8252 116.265 55.8098 116.565C55.6871 119.226 56.6764 121.48 58.2946 123.513C58.5784 123.873 58.9082 124.218 59.0002 124.701C59.0462 124.955 58.9848 125.177 58.7624 125.307C58.6014 125.399 58.3943 125.392 58.2333 125.277C58.0492 125.139 57.8652 124.993 57.7041 124.832C56.0706 123.129 55.0659 121.112 54.7515 118.773C54.6058 117.677 54.7055 116.588 55.3804 115.637V115.644Z" fill="#A36667"/>
<path d="M64.0541 118.014C63.755 117.278 63.4636 116.595 63.2029 115.897C63.1262 115.69 63.0725 115.414 63.3256 115.268C63.594 115.115 63.7704 115.33 63.9084 115.499C64.4683 116.196 64.9514 116.956 65.1892 117.822C65.565 119.233 65.7413 120.668 65.588 122.132C65.5573 122.408 65.4959 122.692 65.4039 122.953C65.2735 123.313 65.0971 123.705 64.614 123.551C64.2305 123.428 64.2075 123.053 64.2689 122.723C64.4913 121.503 64.2996 120.299 64.2075 119.088C64.1768 118.72 64.1002 118.351 64.0541 118.014Z" fill="#A36667"/>
<path d="M53.7165 231.157C53.4865 230.344 53.2181 229.546 53.0417 228.725C52.9266 228.212 52.6352 227.391 53.2104 227.222C53.8239 227.046 53.962 227.89 54.123 228.388C54.3531 229.101 54.5371 229.83 54.6982 230.558C54.9436 231.655 55.1507 232.752 55.3654 233.856C55.4191 234.132 55.4651 234.477 55.143 234.585C54.8209 234.692 54.6368 234.393 54.5601 234.125C54.2687 233.135 53.9926 232.146 53.7165 231.157Z" fill="#A36667"/>
<path d="M85.6197 151.82C84.9525 151.168 84.8298 150.454 84.5768 149.841C83.6565 147.64 82.7515 145.439 81.4708 143.422C81.3481 143.23 81.256 143.008 81.1793 142.785C81.1103 142.609 81.1026 142.402 81.2714 142.279C81.5474 142.072 81.7008 142.302 81.8159 142.502C82.3604 143.43 82.9662 144.327 83.4034 145.308C84.1933 147.103 84.8835 148.936 85.6044 150.761C85.7041 151.022 85.7655 151.298 85.6197 151.827V151.82Z" fill="#A36667"/>
<path d="M79.446 138.659C79.0012 138.682 78.8094 138.314 78.5794 138.053C77.0149 136.267 75.3507 134.579 73.6865 132.884C73.4564 132.654 73.2417 132.409 73.0499 132.148C72.9809 132.056 72.9579 131.864 73.0116 131.765C73.1113 131.573 73.326 131.573 73.4871 131.68C73.7938 131.887 74.1083 132.095 74.369 132.355C76.1713 134.112 77.7818 136.036 79.3003 138.038C79.4306 138.214 79.6147 138.391 79.4306 138.659H79.446Z" fill="#A36667"/>
<path d="M53.9846 121.718C54.2454 121.672 54.4064 121.78 54.5138 121.933C54.6442 122.125 54.7669 122.332 54.8359 122.554C55.1427 123.59 55.4648 124.61 56.1703 125.468C56.316 125.645 56.4234 125.883 56.224 126.097C56.086 126.251 55.8789 126.212 55.6948 126.159C54.4448 125.775 53.164 123.229 53.6318 122.063C53.7009 121.887 53.8082 121.734 53.977 121.734L53.9846 121.718Z" fill="#A36667"/>
<path d="M58.7473 120.437C57.2518 119.241 56.7916 117.608 56.5692 115.874C56.5386 115.606 56.6536 115.307 56.9757 115.207C57.2364 115.13 57.4665 115.245 57.5432 115.476C58.0877 117.086 58.5095 118.727 58.7473 120.43V120.437Z" fill="#A36667"/>
<path d="M108.359 201.753C107.592 201.6 107.07 201.048 106.464 200.641C105.038 199.675 103.711 198.578 102.476 197.382C102.208 197.121 101.909 196.883 101.809 196.507C101.779 196.392 101.809 196.224 101.878 196.124C101.97 196.001 102.147 196.024 102.246 196.124C104.11 198.195 106.549 199.613 108.366 201.746L108.359 201.753Z" fill="#A36667"/>
<path d="M67.6588 119.993C67.8812 120.721 67.9426 121.45 67.5745 122.148C67.3751 122.523 66.9533 122.531 66.8536 122.148C66.6005 121.166 66.4164 120.169 66.2247 119.18C66.1864 118.98 66.3244 118.812 66.4931 118.735C66.7232 118.628 66.9456 118.712 67.122 118.888C67.4288 119.195 67.5361 119.602 67.6665 120L67.6588 119.993Z" fill="#A36667"/>
<path d="M53.0183 115.905C53.0874 115.79 53.1564 115.667 53.2254 115.552C54.2224 115.522 54.3528 115.591 54.2147 116.304C54.046 117.17 53.8543 118.029 53.7852 118.904C53.7699 119.095 53.6702 119.272 53.4478 119.272C53.2331 119.272 53.1334 119.095 53.0567 118.927C52.8343 118.451 52.8343 117.93 52.865 117.424C52.8956 116.917 52.9646 116.411 53.026 115.905H53.0183Z" fill="#A36667"/>
<path d="M112.224 198.916C112.83 199.299 113.444 199.682 114.042 200.081C114.233 200.212 114.402 200.411 114.21 200.656C114.042 200.864 113.781 200.841 113.589 200.71C112.953 200.296 112.339 199.851 111.963 199.184C112.048 199.092 112.14 199.008 112.224 198.916Z" fill="#A36667"/>
<path d="M39.49 114.256C39.582 115.453 38.608 115.798 37.8181 116.143C36.9285 116.534 35.9468 116.71 34.9959 116.956C33.0633 117.447 31.3147 118.275 29.8806 119.701C29.6505 119.931 29.3667 120.1 29.0983 120.284C29.037 120.322 28.9219 120.269 28.6612 120.246C29.3131 118.743 30.3024 117.654 31.7135 116.956C33.5694 116.043 35.525 115.445 37.588 115.176C36.5834 114.64 34.2366 114.226 32.2657 114.264C30.4558 114.302 28.6765 114.555 26.9663 115.284C27.3574 114.494 28.086 114.233 28.8069 113.965C30.9619 113.167 33.1936 113.152 35.4483 113.359C35.9162 113.405 36.3763 113.436 36.8441 113.474C37.7261 113.735 38.6157 113.988 39.4976 114.249L39.49 114.256Z" fill="#A36667"/>
<path d="M82 103.42C82.046 102.868 82.2761 102.691 82.4908 102.515C84.8299 100.651 87.33 99.194 90.4054 98.9256C94.1709 98.5958 97.783 98.9716 101.096 100.966C101.533 101.234 102.001 101.464 102.338 101.871C102.561 102.147 102.668 102.453 102.446 102.768C102.216 103.09 101.894 103.082 101.572 102.937C100.682 102.522 99.8077 102.078 98.9104 101.679C94.2706 99.6158 89.6614 99.7922 85.083 101.909C84.0783 102.369 83.1887 103.075 82.0077 103.427L82 103.42Z" fill="#A36667"/>
<path d="M88.6263 103.389C88.8257 102.806 89.3626 102.707 89.838 102.576C93.7186 101.525 99.4551 102.538 102.707 106.825C102.791 106.94 102.876 107.055 102.945 107.17C103.121 107.477 103.19 107.791 102.922 108.075C102.645 108.374 102.323 108.297 102.032 108.106C101.764 107.922 101.503 107.714 101.265 107.492C98.0287 104.294 94.0407 103.358 89.654 103.604C89.2935 103.627 88.9024 103.796 88.6187 103.389H88.6263Z" fill="#A36667"/>
<path d="M78.9403 110.314C79.2317 109.762 79.5922 109.624 79.9296 109.501C82.9052 108.435 85.9422 107.768 89.1325 108.098C90.8964 108.282 92.668 108.412 94.4319 108.635C96.8017 108.926 98.8493 110.077 100.889 111.219C100.966 111.265 101.043 111.334 101.104 111.403C101.426 111.779 102.07 112.193 101.672 112.669C101.173 113.267 100.843 112.462 100.452 112.232C98.7726 111.204 97.0394 110.192 95.1221 109.816C92.5146 109.31 89.8688 108.934 87.1923 108.926C85.1216 108.919 83.1046 109.264 81.1106 109.816C80.4434 110 79.7916 110.268 78.9326 110.314H78.9403Z" fill="#A36667"/>
<path d="M83.8405 97.99C83.7868 98.3581 83.5951 98.5038 83.411 98.6495C80.3127 101.081 77.6515 103.98 74.7986 106.671C73.0194 108.351 71.0177 109.716 68.9778 111.035C68.5636 111.304 67.9194 111.779 67.6203 111.342C67.2599 110.805 68.0881 110.598 68.4179 110.261C68.579 110.092 68.786 109.977 68.9854 109.854C71.4012 108.32 73.5869 106.51 75.6499 104.524C77.8356 102.415 80.167 100.459 82.5904 98.6265C82.9432 98.3581 83.2423 97.944 83.8558 98.0053L83.8405 97.99Z" fill="#A36667"/>
<path d="M69.8519 116.749C69.9056 116.104 70.3197 115.767 70.6955 115.445C73.7018 112.883 77.1452 111.357 81.1178 111.112C81.6163 111.081 82.3142 110.943 82.4293 111.58C82.5596 112.301 81.7851 112.255 81.3326 112.347C80.2359 112.584 79.1162 112.669 78.0272 112.991C75.3737 113.796 72.8122 114.793 70.5958 116.519C70.4194 116.657 70.243 116.833 69.8442 116.741L69.8519 116.749Z" fill="#A36667"/>
<path d="M79.1856 105.674C79.2623 106.188 78.9325 106.487 78.6794 106.794C78.0275 107.584 77.4217 108.435 76.6624 109.118C74.6148 110.958 72.4521 112.661 69.975 113.926C69.8523 113.988 69.7295 114.064 69.5992 114.118C69.1237 114.287 68.4948 114.655 68.2264 114.072C67.9196 113.42 68.6865 113.313 69.1007 113.067C71.6928 111.572 74.1623 109.908 76.3787 107.883C77.0305 107.285 77.6824 106.679 78.342 106.081C78.572 105.874 78.7868 105.598 79.1856 105.682V105.674Z" fill="#A36667"/>
<path d="M82.8511 106.901C82.9431 106.733 82.9738 106.618 83.0351 106.587C86.1488 105.023 89.3698 104.087 92.8823 104.938C93.3424 105.053 94.186 105.061 94.0633 105.651C93.9023 106.426 93.1277 105.958 92.6522 105.851C89.5615 105.176 86.6319 105.858 83.7177 106.802C83.4646 106.886 83.2422 107.132 82.8511 106.901Z" fill="#A36667"/>
<path d="M90.3133 111.526C90.3593 111.35 90.5051 111.319 90.6431 111.342C93.7568 111.802 96.7784 112.508 99.3322 114.509C99.4396 114.594 99.5546 114.678 99.6543 114.778C99.9381 115.054 100.513 115.337 100.191 115.752C99.8691 116.166 99.4089 115.698 99.1175 115.468C96.579 113.428 93.6187 112.393 90.4821 111.733C90.413 111.718 90.367 111.603 90.3057 111.534L90.3133 111.526Z" fill="#A36667"/>
<path d="M85.5969 98.9257C84.5156 99.7463 83.4649 100.598 82.0845 101.242C82.8667 99.823 84.4312 98.7876 85.5969 98.9257Z" fill="#A36667"/>
<path d="M34.9118 22.2037C35.2723 23.4078 34.8505 24.3204 33.9148 24.6195C32.9792 24.9109 32.1126 24.3741 31.7905 23.3081C31.6678 22.894 31.6601 22.4722 31.7138 22.058C31.8058 21.3831 31.9822 20.7466 32.7568 20.5625C33.5007 20.3938 34.0145 20.808 34.421 21.3525C34.6434 21.6516 34.7891 21.9967 34.9042 22.2037H34.9118Z" fill="#A36667"/>
<path d="M23.8835 122.531C23.9219 123.076 23.5461 123.252 23.293 123.497C21.7285 125.039 20.1027 126.527 18.8296 128.337C18.6992 128.528 18.5382 128.705 18.3694 128.866C18.0243 129.219 17.6409 129.541 17.1577 129.134C16.7666 128.805 16.8663 128.375 17.081 127.984C18.4308 125.591 20.3634 123.812 22.8559 122.646C23.1473 122.508 23.4617 122.37 23.8759 122.523L23.8835 122.531Z" fill="#A36667"/>
<path d="M19.9874 137.509C19.65 136.282 19.9184 135.101 20.3172 133.974C21.6209 130.277 23.5075 126.903 26.1073 123.95C26.4448 123.567 26.7822 123.16 27.2731 122.961C27.3728 122.915 27.5798 122.961 27.6488 123.03C27.7179 123.106 27.7332 123.313 27.6795 123.405C27.5338 123.643 27.3497 123.858 27.1657 124.065C24.5198 126.91 22.6102 130.223 21.0841 133.766C20.7543 134.541 20.5319 135.354 20.4475 136.205C20.4015 136.658 20.3862 137.126 19.9951 137.509H19.9874Z" fill="#A36667"/>
<path d="M13.3998 116.986C13.1467 116.235 13.5148 115.759 13.8216 115.322C15.1944 113.328 17.0273 111.817 19.0673 110.552C19.2207 110.452 19.4047 110.383 19.5811 110.345C19.8725 110.276 20.1409 110.314 20.302 110.613C20.4247 110.851 20.3557 111.081 20.187 111.258C19.9952 111.457 19.7728 111.633 19.5428 111.794C17.4491 113.221 15.5241 114.831 13.8753 116.764C13.7986 116.856 13.6375 116.887 13.4075 116.994L13.3998 116.986Z" fill="#A36667"/>
<path d="M16.0458 123.536C15.8541 122.631 16.2069 121.971 16.7667 121.473C18.6073 119.824 20.3559 118.045 22.6489 116.979C23.1627 116.741 23.6766 116.519 24.2441 116.496C24.4818 116.48 24.7119 116.549 24.7809 116.833C24.8346 117.048 24.6812 117.186 24.5279 117.285C24.3285 117.408 24.1214 117.516 23.899 117.6C21.6519 118.505 19.8113 120.031 17.9554 121.534C17.2345 122.117 16.6977 122.869 16.0458 123.543V123.536Z" fill="#A36667"/>
<path d="M14.1055 121.465C14.1285 120.553 14.4813 120.161 14.8034 119.793C17.0964 117.124 19.8496 115.107 23.1704 113.896C23.2164 113.88 23.2547 113.857 23.3007 113.85C23.7532 113.758 24.3284 113.535 24.4971 114.126C24.6505 114.647 24.0676 114.77 23.6842 114.877C21.0844 115.637 18.845 117.032 16.7743 118.743C15.877 119.487 15.2022 120.453 14.1055 121.473V121.465Z" fill="#A36667"/>
<path d="M23.6532 125.185C23.7299 125.668 23.3617 125.936 23.1393 126.274C21.6208 128.521 20.064 130.745 19.0824 133.306C18.929 133.713 18.8676 134.549 18.1774 134.242C17.6713 134.012 18.1237 133.406 18.2694 132.992C19.2971 130.124 21.0533 127.715 23.0626 125.468C23.2084 125.307 23.3464 125.07 23.6532 125.192V125.185Z" fill="#A36667"/>
<path d="M13.998 119.18C14.4352 117.577 15.3708 116.319 16.7283 115.368C16.874 115.261 17.104 115.215 17.2498 115.368C17.4031 115.522 17.3264 115.721 17.1731 115.844C15.969 116.81 15.1407 118.114 14.0057 119.18H13.998Z" fill="#A36667"/>
</svg>
