<svg width="375" height="667" viewBox="0 0 375 667" fill="none" xmlns="http://www.w3.org/2000/svg">
<path d="M375 -0.0585938H0V667.052H375V-0.0585938Z" fill="#6A2623"/>
<path d="M375.964 -0.183594C375.964 -0.051064 375.964 0.0741029 375.964 0.206633C375.287 0.206633 374.684 0.287623 374.691 1.10489C374.691 1.81171 374.684 2.51118 374.684 3.218C374.684 222.658 374.684 442.105 374.684 661.545C374.684 662.693 374.676 663.849 374.669 664.998C373.697 665.175 372.726 665.182 371.762 664.998C371.762 663.974 371.754 662.951 371.754 661.928C371.754 442.245 371.754 222.555 371.754 2.87195C371.754 2.29766 371.754 1.72336 371.74 1.1417C371.732 0.736752 371.614 0.41279 371.121 0.265535C369.701 -0.161505 368.869 0.353888 368.825 1.72336C368.81 2.10623 368.825 2.48909 368.825 2.87195C368.825 222.363 368.825 441.862 368.825 661.353C368.825 662.568 368.817 663.783 368.81 665.005C367.839 665.189 366.874 665.182 365.903 665.005C365.903 664.107 365.895 663.216 365.895 662.318C365.895 443.15 365.895 223.983 365.895 4.81572C365.895 4.04999 365.895 3.2769 365.895 2.51118C365.895 2.00315 365.895 1.48775 365.895 0.979723C365.056 -0.102603 364.225 -0.102603 363.393 0.979723C363.393 1.49512 363.393 2.00315 363.393 2.51854C363.393 222.194 363.393 441.877 363.393 661.552C363.393 662.701 363.385 663.857 363.378 665.005C362.406 665.189 361.442 665.189 360.471 664.99C360.471 663.967 360.463 662.944 360.463 661.92C360.463 442.694 360.463 223.468 360.463 4.24143C360.463 3.15174 360.463 2.06205 360.456 0.979723C359.617 -0.0878778 358.792 -0.0878778 357.939 0.979723C357.372 1.79699 357.534 2.70997 357.534 3.5935C357.534 26.0573 357.534 48.5211 357.534 70.9849C357.534 267.968 357.534 464.952 357.534 661.935C357.534 662.958 357.416 663.982 357.696 664.99C356.599 665.167 355.51 665.16 354.413 664.99C354.693 663.982 354.575 662.951 354.575 661.928C354.575 442.385 354.575 222.834 354.575 3.29163C354.575 2.5259 354.568 1.75281 354.56 0.987086C353.64 -0.132054 352.183 -0.132054 351.263 0.987086C351.263 27.3605 351.248 53.7266 351.248 80.1C351.248 274.043 351.248 467.985 351.248 661.935C351.248 662.958 351.123 663.982 351.41 664.99C349.813 665.167 348.223 665.152 346.626 664.99C346.626 663.842 346.626 662.686 346.626 661.537C346.626 441.987 346.626 222.437 346.626 2.87932C346.626 2.43019 346.604 1.98106 346.626 1.53193C346.67 0.7073 346.427 0.19927 345.36 0.19927C344.3 0.19927 344.042 0.699938 344.086 1.52457C344.108 1.9737 344.086 2.42282 344.086 2.87195C344.086 222.363 344.086 441.847 344.086 661.339C344.086 662.553 344.086 663.768 344.086 664.99C343.122 665.189 342.151 665.182 341.179 665.013C341.179 663.864 341.164 662.708 341.164 661.559C341.164 442.775 341.164 223.99 341.164 5.20595C341.164 4.30769 341.15 3.4168 341.142 2.51854C341.142 2.01051 341.142 1.49512 341.135 0.987086C340.252 -0.0731523 339.162 -0.0731523 338.242 0.987086C338.242 1.56138 338.235 2.13568 338.235 2.71733C338.235 222.459 338.235 442.201 338.235 661.942C338.235 662.966 338.235 663.989 338.227 665.013C337.116 665.211 336.012 665.189 334.9 665.035C334.9 663.886 334.886 662.73 334.886 661.581C334.886 442.385 334.886 223.188 334.886 3.98373C334.886 3.46834 334.849 2.96031 334.893 2.44491C334.937 1.90007 334.724 1.44358 334.474 0.987086C333.627 -0.0878778 332.795 -0.0805151 331.971 0.987086C331.971 1.62765 331.956 2.26821 331.956 2.90877C331.956 222.65 331.956 442.392 331.956 662.134C331.956 663.091 331.956 664.055 331.949 665.013C330.838 665.197 329.733 665.204 328.622 665.013C328.622 663.923 328.615 662.833 328.615 661.751C328.615 442.134 328.615 222.518 328.615 2.9014C328.615 2.45228 328.593 2.00315 328.615 1.55402C328.659 0.729389 328.423 0.221358 327.349 0.221358C326.289 0.221358 326.031 0.722026 326.075 1.55402C326.097 2.00315 326.075 2.45228 326.075 2.9014C326.075 222.452 326.075 442.009 326.075 661.559C326.075 662.708 326.075 663.864 326.075 665.013C325.111 665.211 324.14 665.204 323.168 665.027C323.168 663.938 323.153 662.848 323.153 661.766C323.153 442.981 323.153 224.197 323.153 5.41211C323.153 4.45495 323.139 3.49042 323.131 2.53327C323.131 2.02524 323.131 1.50984 323.131 1.00181C322.241 -0.0584268 321.151 -0.0584268 320.238 1.00181C320.238 1.57611 320.231 2.1504 320.231 2.73206C320.231 222.599 320.231 442.473 320.231 662.34C320.231 663.238 320.231 664.129 320.224 665.027C319.193 665.219 318.17 665.204 317.147 664.998C317.412 664.048 317.294 663.083 317.294 662.126C317.294 442.458 317.294 222.783 317.294 3.11492C317.294 2.4081 317.272 1.70864 317.265 1.00181C316.382 -0.0584268 315.285 -0.0657896 314.387 1.00181C314.387 1.64237 314.372 2.28293 314.372 2.92349C314.372 222.798 314.372 442.664 314.372 662.539C314.372 663.371 314.365 664.203 314.357 665.035C313.386 665.211 312.422 665.219 311.45 665.035C311.45 664.078 311.435 663.113 311.435 662.156C311.435 442.407 311.435 222.665 311.435 2.91613C311.435 2.40074 311.413 1.89271 311.435 1.37731C311.472 0.567408 311.067 0.236084 310.184 0.236084C309.308 0.236084 308.889 0.54532 308.911 1.36259C308.933 2.26084 308.911 3.15174 308.911 4.04999C308.911 224.373 308.911 444.697 308.911 665.013C307.888 665.152 306.857 665.219 305.841 664.983C306.099 664.033 305.981 663.069 305.981 662.112C305.981 442.51 305.981 222.908 305.981 3.29899C305.981 2.53327 305.967 1.76018 305.959 0.994448C305.076 -0.0657896 303.972 -0.0657896 303.081 0.994448C303.081 1.37731 303.081 1.76018 303.074 2.14304C303.074 2.97503 303.059 3.80702 303.059 4.63902C303.059 223.49 303.059 442.333 303.059 661.184C303.059 662.465 303.052 663.746 303.044 665.027C301.933 665.211 300.829 665.211 299.718 665.027C299.718 664.07 299.71 663.106 299.71 662.148C299.71 443.43 299.71 224.712 299.71 5.99376C299.71 4.84517 299.71 3.68922 299.703 2.54063C299.703 2.0326 299.703 1.5172 299.695 1.00917C298.79 -0.0510641 297.693 -0.0510641 296.818 1.00917C296.81 1.58347 296.788 2.15776 296.788 2.73942C296.788 222.731 296.788 442.716 296.788 662.708C296.788 663.474 296.876 664.24 296.928 664.998C295.426 665.226 293.925 665.189 292.431 665.013C292.71 664.004 292.585 662.973 292.585 661.95C292.585 442.79 292.585 223.63 292.585 4.47704C292.585 3.32844 292.578 2.17249 292.571 1.0239C291.687 -0.0584268 290.591 -0.0584268 289.663 1.01654C289.663 1.53193 289.663 2.03996 289.663 2.55535C289.663 222.422 289.663 442.296 289.663 662.163C289.663 663.12 289.663 664.085 289.656 665.042C288.684 665.226 287.72 665.226 286.748 665.042C286.748 664.144 286.734 663.253 286.734 662.355C286.734 442.539 286.734 222.724 286.734 2.91613C286.734 2.34183 286.719 1.76754 286.726 1.18588C286.726 0.54532 286.373 0.272898 285.696 0.258172C284.069 0.228721 283.716 0.302349 283.804 1.75281C283.826 2.13568 283.804 2.51854 283.804 2.9014C283.804 222.717 283.804 442.532 283.804 662.34C283.804 663.238 283.804 664.129 283.797 665.027C282.685 665.226 281.581 665.204 280.47 665.049C280.47 663.835 280.455 662.62 280.455 661.405C280.455 442.267 280.455 223.136 280.455 3.99846C280.455 3.48306 280.418 2.97503 280.463 2.45964C280.514 1.91479 280.286 1.46567 280.043 1.00181C279.197 -0.0657896 278.358 -0.0657896 277.541 1.00181C277.541 1.64237 277.526 2.28293 277.526 2.92349C277.526 222.798 277.526 442.664 277.526 662.539C277.526 663.371 277.526 664.203 277.511 665.035C276.4 665.219 275.296 665.226 274.184 665.02C274.184 664.122 274.177 663.231 274.177 662.333C274.177 442.915 274.177 223.497 274.177 4.07208C274.177 3.04866 274.177 2.02524 274.169 1.00181C273.249 -0.0584268 272.16 -0.0584268 271.277 1.00181C271.269 1.57611 271.247 2.1504 271.247 2.73206C271.247 222.724 271.247 442.716 271.247 662.708C271.247 663.474 271.336 664.24 271.387 664.998C270.504 665.182 269.621 665.197 268.737 665.027C268.737 658.688 268.73 652.356 268.73 646.017C268.73 431.642 268.73 217.268 268.73 2.89404C268.73 2.31975 268.73 1.74545 268.715 1.16379C268.708 0.75884 268.598 0.434878 268.104 0.28026C266.691 -0.154143 265.845 0.368613 265.801 1.73072C265.786 2.11359 265.801 2.49645 265.801 2.87932C265.801 222.562 265.801 442.252 265.801 661.935C265.801 662.958 265.801 663.982 265.793 665.005C264.77 665.197 263.747 665.182 262.724 664.976C262.989 663.96 262.864 662.936 262.864 661.913C262.864 442.436 262.864 222.96 262.864 3.4757C262.864 2.64371 262.849 1.81172 262.834 0.979723C261.951 -0.0805151 260.854 -0.0805151 259.956 0.979723C259.956 1.81172 259.934 2.64371 259.934 3.4757C259.934 223.092 259.934 442.709 259.934 662.325C259.934 663.223 259.934 664.114 259.92 665.013C258.948 665.189 257.984 665.189 257.012 665.013C257.012 664.114 256.998 663.223 256.998 662.325C256.998 442.517 256.998 222.702 256.998 2.89404C256.998 2.44491 256.975 1.99578 256.998 1.54666C257.042 0.722026 256.814 0.206633 255.739 0.206633C254.672 0.206633 254.436 0.714663 254.473 1.53929C254.502 2.11359 254.473 2.68788 254.473 3.26954C254.473 202.152 254.473 401.028 254.473 599.911C254.473 621.609 254.473 643.307 254.466 665.013C253.494 665.197 252.53 665.197 251.558 665.013C251.558 663.923 251.551 662.833 251.551 661.751C251.551 443.349 251.551 224.955 251.551 6.55333C251.551 5.20595 251.551 3.86593 251.543 2.51854C251.543 2.01051 251.543 1.49512 251.536 0.987086C250.638 -0.0731523 249.534 -0.0731523 248.658 0.987086C248.651 1.56138 248.629 2.13568 248.629 2.71733C248.629 222.709 248.629 442.694 248.629 662.686C248.629 663.452 248.717 664.217 248.769 664.976C247.687 665.189 246.612 665.175 245.53 664.983C245.795 664.033 245.677 663.069 245.677 662.112C245.677 442.569 245.677 223.026 245.677 3.48306C245.677 2.65107 245.662 1.81908 245.655 0.987086C244.772 -0.0878778 243.682 -0.0878778 242.748 0.979723C242.748 1.36259 242.748 1.74545 242.748 2.12831C242.748 221.995 242.748 441.862 242.748 661.729C242.748 662.818 242.748 663.908 242.74 664.99C241.077 665.197 239.406 665.204 237.743 664.99C237.743 663.967 237.743 662.944 237.743 661.92C237.743 442.694 237.743 223.468 237.743 4.24143C237.743 3.15174 237.743 2.06205 237.735 0.979723C236.808 -0.0805151 235.718 -0.0805151 234.843 0.979723C234.835 1.55402 234.813 2.12831 234.813 2.70997C234.813 222.709 234.813 442.701 234.813 662.701C234.813 663.466 234.74 664.239 234.968 664.99C234.018 665.167 233.069 665.167 232.112 664.99C232.392 663.982 232.274 662.951 232.274 661.928C232.274 442.385 232.274 222.834 232.274 3.29163C232.274 2.5259 232.266 1.75281 232.259 0.987086C231.339 -0.132054 229.882 -0.132054 228.962 0.987086C228.962 27.3605 228.947 53.7266 228.947 80.1C228.947 274.043 228.947 467.985 228.947 661.935C228.947 662.958 228.822 663.982 229.109 664.99C227.938 665.16 226.761 665.167 225.59 664.976C225.59 663.886 225.576 662.796 225.576 661.707C225.576 442.679 225.576 223.644 225.576 4.61693C225.576 3.78494 225.576 2.95294 225.576 2.12095C225.576 1.73809 225.568 1.35522 225.561 0.97236C224.744 -0.0952406 223.905 -0.0952406 223.066 0.97236C223.066 1.54666 223.051 2.12095 223.051 2.70261C223.051 217.32 223.051 431.937 223.051 646.554C223.051 652.702 223.051 658.843 223.051 664.99C221.947 665.204 220.836 665.182 219.724 665.005C219.724 664.173 219.717 663.341 219.717 662.509C219.717 442.959 219.717 223.409 219.717 3.85856C219.717 2.9014 219.717 1.93688 219.71 0.979723C218.797 -0.0878778 217.707 -0.0878778 216.795 0.979723C216.795 1.55402 216.787 2.12831 216.787 2.70997C216.787 222.518 216.787 442.326 216.787 662.134C216.787 663.091 216.787 664.055 216.773 665.013C215.875 665.204 214.984 665.145 214.093 664.998C214.388 663.989 214.255 662.958 214.255 661.942C214.255 442.525 214.255 223.1 214.255 3.68186C214.255 2.7836 214.241 1.89271 214.233 0.994448C213.321 -0.117329 211.863 -0.117329 210.951 0.994448C210.943 1.76018 210.929 2.53327 210.929 3.29899C210.929 222.79 210.929 442.274 210.929 661.766C210.929 662.855 210.921 663.945 210.914 665.027C209.942 665.182 208.971 665.204 208.006 665.005C208.006 663.79 208.006 662.576 208.006 661.353C208.006 441.803 208.006 222.245 208.006 2.69525C208.006 2.31238 207.984 1.92952 208.006 1.54666C208.051 0.722026 207.808 0.213995 206.74 0.213995C205.673 0.213995 205.43 0.714663 205.474 1.54666C205.497 1.99578 205.474 2.44491 205.474 2.89404C205.474 222.768 205.474 442.642 205.474 662.509C205.474 663.341 205.474 664.173 205.467 665.005C204.495 665.197 203.531 665.197 202.56 665.02C202.552 664.659 202.538 664.291 202.53 663.93C202.53 663.29 202.545 662.649 202.545 662.009C202.545 442.311 202.545 222.606 202.545 2.90877C202.545 2.26821 202.53 1.62765 202.523 0.987086C201.632 -0.0805151 200.528 -0.0731523 199.652 0.987086C199.645 1.56138 199.623 2.13568 199.623 2.71733C199.623 222.709 199.623 442.694 199.623 662.686C199.623 663.452 199.711 664.217 199.763 664.976C198.887 665.174 198.004 665.182 197.113 665.02C197.113 664.063 197.098 663.098 197.098 662.141C197.098 442.525 197.098 222.908 197.098 3.29163C197.098 2.5259 197.084 1.75281 197.076 0.987086C196.178 -0.0731523 195.074 -0.0731523 194.198 0.987086C194.191 1.56138 194.169 2.13568 194.169 2.71733C194.169 222.709 194.169 442.709 194.169 662.701C194.169 663.466 194.088 664.239 194.323 664.99C193.16 665.167 191.99 665.226 190.827 665.005C190.827 663.982 190.82 662.958 190.82 661.935C190.82 442.709 190.82 223.482 190.82 4.25615C190.82 3.16646 190.82 2.07677 190.812 0.994448C189.973 -0.0731523 189.149 -0.0731523 188.295 0.994448C187.773 1.74545 187.89 2.59217 187.89 3.4168C187.89 223.181 187.89 442.952 187.89 662.715C187.89 663.481 187.986 664.247 188.038 665.005C186.595 665.189 185.145 665.219 183.695 665.027C183.695 664.07 183.68 663.106 183.68 662.148C183.68 442.532 183.68 222.915 183.68 3.29899C183.68 2.53327 183.665 1.76018 183.658 0.994448C182.775 -0.0657896 181.671 -0.0657896 180.78 0.994448C180.78 1.50248 180.78 2.01787 180.773 2.5259C180.773 7.45159 180.758 12.3846 180.758 17.3103C180.758 232.178 180.758 447.053 180.758 661.92C180.758 662.936 180.618 663.967 180.935 664.976C179.904 665.189 178.874 665.189 177.836 665.02C177.836 664.254 177.821 663.481 177.821 662.715C177.821 489.315 177.821 315.915 177.821 142.514C177.821 95.3409 177.821 48.1677 177.814 0.987086C176.901 -0.0805151 175.812 -0.0805151 174.899 0.987086C174.899 1.62765 174.892 2.26821 174.892 2.90877C174.892 222.783 174.892 442.65 174.892 662.524C174.892 663.356 174.892 664.188 174.884 665.02C173.773 665.204 172.662 665.197 171.557 665.02C171.557 664.188 171.543 663.356 171.543 662.524C171.543 442.716 171.543 222.908 171.543 3.09284C171.543 2.38601 171.528 1.68655 171.513 0.979723C170.63 -0.0878778 169.533 -0.0878778 168.628 0.979723C168.628 1.62028 168.613 2.26084 168.613 2.9014C168.613 222.776 168.613 442.642 168.613 662.517C168.613 663.349 168.613 664.181 168.599 665.013C167.627 665.197 166.655 665.182 165.684 665.027C165.684 663.812 165.662 662.598 165.662 661.383C165.662 442.318 165.662 223.247 165.662 4.18252C165.662 3.66713 165.64 3.1591 165.662 2.64371C165.691 2.04732 165.559 1.50248 165.25 0.979723C164.403 -0.0878778 163.579 -0.0878778 162.725 0.979723C162.173 1.79699 162.32 2.70997 162.32 3.60087C162.32 223.181 162.32 442.753 162.32 662.333C162.32 663.223 162.232 664.129 162.482 665.005C161.591 665.145 160.701 665.204 159.803 665.013C159.803 664.181 159.788 663.349 159.788 662.517C159.788 442.9 159.788 223.284 159.788 3.66713C159.788 2.76887 159.773 1.87798 159.766 0.979723C158.868 -0.0805151 157.771 -0.0805151 156.881 0.979723C156.881 1.23742 156.873 1.48775 156.866 1.74545C156.866 2.57744 156.859 3.40943 156.859 4.24143C156.859 223.217 156.859 442.193 156.859 661.169C156.859 662.45 156.859 663.731 156.851 665.013C155.88 665.189 154.916 665.197 153.944 665.013C153.944 643.889 153.937 622.765 153.937 601.641C153.937 402.118 153.937 202.594 153.937 3.07075C153.937 2.43019 153.937 1.78963 153.922 1.14907C153.915 0.744114 153.804 0.420153 153.304 0.265535C151.883 -0.161505 151.022 0.353888 151.007 1.72336C150.985 4.66847 151.007 7.61357 151.007 10.5587C151.007 228.71 151.007 446.861 151.007 665.005C150.117 665.145 149.226 665.182 148.335 664.976C148.6 664.026 148.482 663.061 148.482 662.104C148.482 442.429 148.482 222.761 148.482 3.08547C148.482 2.37865 148.468 1.67919 148.453 0.97236C147.57 -0.0952406 146.473 -0.0952406 145.575 0.97236C145.575 1.67919 145.553 2.37865 145.553 3.08547C145.553 222.702 145.553 442.318 145.553 661.935C145.553 662.958 145.546 663.982 145.538 665.005C144.567 665.182 143.603 665.182 142.631 664.99C142.631 663.967 142.631 662.944 142.631 661.92C142.631 442.237 142.631 222.555 142.631 2.87932C142.631 2.43019 142.609 1.98106 142.631 1.53193C142.675 0.7073 142.432 0.19927 141.365 0.19927C140.305 0.19927 140.055 0.699938 140.099 1.53193C140.121 1.98106 140.099 2.43019 140.099 2.87932C140.099 222.687 140.099 442.495 140.099 662.303C140.099 663.201 140.099 664.092 140.099 664.99C138.855 665.189 137.604 665.189 136.36 664.99C136.36 664.284 136.352 663.584 136.352 662.877C136.352 442.237 136.352 221.605 136.352 0.964997C135.491 -0.109966 134.667 -0.109966 133.835 0.97236C133.835 1.54666 133.835 2.12095 133.835 2.70261C133.835 222.378 133.835 442.061 133.835 661.736C133.835 662.826 133.835 663.916 133.828 664.998C132.297 665.189 130.773 665.175 129.242 665.013C129.242 663.864 129.228 662.708 129.228 661.559C129.228 442.201 129.228 222.842 129.228 3.4757C129.228 2.64371 129.213 1.81172 129.205 0.979723C128.285 -0.132054 126.835 -0.132054 125.915 0.979723C125.908 1.49512 125.893 2.00315 125.893 2.51854C125.893 222.577 125.893 442.635 125.893 662.693C125.893 663.459 125.82 664.232 126.048 664.983C125.165 665.167 124.274 665.13 123.383 665.005C123.369 664.512 123.354 664.019 123.339 663.533C123.347 662.826 123.369 662.126 123.369 661.42C123.369 442.039 123.369 222.658 123.369 3.2769C123.369 2.51118 123.347 1.73809 123.339 0.97236C122.463 -0.0878778 121.367 -0.0878778 120.447 0.97236C120.447 1.48775 120.439 1.99578 120.439 2.51118C120.439 222.378 120.439 442.252 120.439 662.119C120.439 663.076 120.439 664.041 120.432 664.998C119.188 665.189 117.937 665.197 116.693 664.99C116.693 664.159 116.693 663.326 116.693 662.495C116.693 442.62 116.693 222.746 116.693 2.87932C116.693 2.36392 116.671 1.85589 116.693 1.3405C116.722 0.523232 116.295 0.213995 115.419 0.213995C114.536 0.213995 114.131 0.537957 114.161 1.35522C114.183 1.92952 114.161 2.50381 114.161 3.08547C114.161 222.827 114.161 442.576 114.161 662.318C114.161 663.216 114.161 664.107 114.153 665.005C113.042 665.197 111.938 665.197 110.826 665.005C110.826 651.818 110.819 638.632 110.819 625.445C110.819 417.918 110.819 210.399 110.819 2.87195C110.819 2.29766 110.819 1.72336 110.804 1.1417C110.797 0.736752 110.679 0.41279 110.186 0.265535C108.766 -0.161505 107.934 0.353888 107.89 1.72336C107.875 2.10623 107.89 2.48909 107.89 2.87195C107.89 222.363 107.89 441.862 107.89 661.353C107.89 662.568 107.882 663.783 107.875 665.005C107.043 665.189 106.211 665.182 105.38 665.005C105.365 664.637 105.358 664.276 105.343 663.908C105.35 663.201 105.365 662.502 105.365 661.795C105.365 442.289 105.365 222.776 105.365 3.26954C105.365 2.50381 105.343 1.73809 105.328 0.964997C104.452 -0.0952407 103.363 -0.0952407 102.443 0.964997C102.443 1.48039 102.436 1.98842 102.436 2.50381C102.436 222.312 102.436 442.112 102.436 661.92C102.436 662.944 102.436 663.967 102.428 664.99C101.457 665.175 100.492 665.182 99.5208 664.99C99.5208 625.364 99.5134 585.745 99.5134 546.119C99.5134 365.098 99.5134 184.07 99.5134 3.04866C99.5134 2.4081 99.5061 1.76754 99.4987 1.12698C99.4987 0.618947 99.2706 0.309711 98.667 0.213995C97.1434 -0.0437013 96.6208 0.309711 96.5766 1.70864C96.5619 2.0915 96.5766 2.47436 96.5766 2.85723C96.5766 222.481 96.5766 442.105 96.5766 661.721C96.5766 662.811 96.5693 663.901 96.5619 664.983C95.5903 665.16 94.6188 665.16 93.6545 664.983C93.6545 663.768 93.6472 662.553 93.6472 661.331C93.6472 441.84 93.6472 222.349 93.6472 2.85723C93.6472 2.34183 93.6251 1.8338 93.6472 1.31841C93.684 0.501143 93.2644 0.184544 92.3812 0.184544C91.4979 0.184544 91.0857 0.508506 91.1225 1.32577C91.1446 1.8338 91.1225 2.3492 91.1225 2.86459C91.1225 222.673 91.1225 442.488 91.1225 662.296C91.1225 663.194 91.1225 664.085 91.1078 664.983C90.1362 665.167 89.172 665.16 88.2004 664.983C88.2004 664.217 88.1931 663.444 88.1931 662.679C88.1931 442.804 88.1931 222.93 88.1931 3.05602C88.1931 2.3492 88.1784 1.64973 88.171 0.942909C87.273 -0.117329 86.1763 -0.117329 85.2931 0.942909C85.2857 1.7749 85.2636 2.60689 85.2636 3.43889C85.2636 222.82 85.2636 442.201 85.2636 661.581C85.2636 662.347 85.2783 663.12 85.2783 663.886C85.271 664.247 85.2563 664.608 85.2489 664.976C84.1375 665.16 83.0334 665.16 81.922 664.976C81.922 664.077 81.9073 663.187 81.9073 662.288C81.9073 442.863 81.9073 223.446 81.9073 4.02054C81.9073 2.99712 81.8925 1.9737 81.8925 0.950272C81.0755 -0.124692 80.2438 -0.124692 79.39 0.950272C78.757 1.82644 78.9852 2.80569 78.9852 3.74812C78.9778 223.077 78.9778 442.399 78.9778 661.729C78.9778 662.818 78.9704 663.908 78.9631 664.99C77.572 665.16 76.1808 665.16 74.7897 664.99C74.7897 663.967 74.775 662.944 74.775 661.92C74.775 442.37 74.775 222.812 74.775 3.26218C74.775 2.49645 74.7603 1.72336 74.7529 0.957634C73.8328 -0.154143 72.3828 -0.154143 71.4628 0.957634C71.4554 1.66446 71.4407 2.36392 71.4407 3.07075C71.4407 222.687 71.4407 442.304 71.4407 661.92C71.4407 662.944 71.4333 663.967 71.426 664.99C70.4544 665.145 69.4828 665.167 68.5186 664.961C68.5186 664.063 68.5186 663.172 68.5186 662.274C68.5186 442.466 68.5186 222.658 68.5186 2.84986C68.5186 2.33447 68.4965 1.82644 68.5186 1.31105C68.5554 0.49378 68.1359 0.177182 67.2526 0.177182C66.3767 0.177182 65.9498 0.49378 65.9866 1.31105C66.0087 1.76018 65.9866 2.2093 65.9866 2.65843C65.9866 223.424 65.9866 444.196 65.9866 664.961C64.8089 665.123 63.6386 665.138 62.461 664.961C62.748 663.952 62.6229 662.922 62.6229 661.905C62.6229 442.583 62.6229 223.269 62.6229 3.94692C62.6229 3.43152 62.5935 2.92349 62.6229 2.4081C62.6597 1.87062 62.461 1.40676 62.2107 0.942909C61.3643 -0.132054 60.5325 -0.124692 59.7082 0.942909C59.7082 1.58347 59.6934 2.22403 59.6934 2.86459C59.6934 222.481 59.6934 442.09 59.6934 661.707C59.6934 662.796 59.6934 663.886 59.6861 664.968C58.5746 665.16 57.4706 665.16 56.3592 664.968C56.3592 664.011 56.3518 663.047 56.3518 662.09C56.3518 442.797 56.3518 223.505 56.3518 4.21198C56.3518 3.12229 56.3444 2.0326 56.3371 0.950272C55.4244 -0.109966 54.335 -0.109966 53.4444 0.950272C53.4444 1.33314 53.4444 1.716 53.4444 2.09886C53.4444 2.93085 53.4223 3.76285 53.4223 4.59484C53.4223 223.637 53.4223 442.679 53.4223 661.721C53.4223 662.811 53.4223 663.901 53.415 664.983C52.5832 665.152 51.7515 665.16 50.9271 664.983C50.9271 652.952 50.9198 640.914 50.9198 628.883C50.9198 420.208 50.9198 211.525 50.9198 2.84986C50.9198 2.27557 50.9198 1.70127 50.9051 1.11962C50.8977 0.714663 50.7873 0.390702 50.2868 0.243447C48.8589 -0.183594 48.0345 0.3318 47.983 1.70127C47.9682 2.08414 47.983 2.467 47.983 2.84986C47.983 222.599 47.983 442.355 47.983 662.104C47.983 663.061 47.983 664.026 47.9682 664.983C46.9967 665.167 46.0324 665.16 45.0609 664.983C45.0609 663.96 45.0535 662.936 45.0535 661.913C45.0535 442.804 45.0535 223.703 45.0535 4.59484C45.0535 3.76285 45.0461 2.93085 45.0388 2.09886C45.0388 1.716 45.0388 1.33314 45.0314 0.950272C44.1408 -0.109966 43.0367 -0.109966 42.1461 0.950272C42.1461 1.59083 42.1461 2.23139 42.1388 2.86459C42.1388 3.76285 42.1241 4.65374 42.1241 5.552C42.1241 224.145 42.1241 442.738 42.1241 661.324C42.1241 662.539 42.1167 663.754 42.1093 664.976C41.1378 665.152 40.1735 665.152 39.202 664.968C39.202 664.328 39.1946 663.687 39.1946 663.047C39.1946 442.341 39.1946 221.642 39.1946 0.935546C38.3334 -0.139417 37.5164 -0.132054 36.6773 0.942909C36.6773 221.2 36.6773 441.457 36.6773 661.707C36.6773 662.796 36.6773 663.886 36.67 664.968C35.6984 665.145 34.7268 665.145 33.7626 664.968C33.7626 664.07 33.7552 663.179 33.7552 662.281C33.7552 443.047 33.7552 223.814 33.7552 4.58011C33.7552 3.74812 33.7479 2.91613 33.7405 2.08414C33.7405 1.70127 33.7405 1.31841 33.7405 0.935546C32.8278 -0.139417 31.7311 -0.139417 30.8405 0.935546C30.8405 1.57611 30.8405 2.2093 30.8405 2.84986C30.8331 3.68186 30.811 4.51385 30.811 5.34584C30.811 224.071 30.811 442.79 30.811 661.515C30.811 662.664 30.8037 663.82 30.7963 664.968C29.6849 665.13 28.5735 665.152 27.4694 664.954C27.4694 663.864 27.462 662.774 27.462 661.692C27.462 442.849 27.462 223.998 27.462 5.15441C27.462 4.25615 27.462 3.36526 27.4547 2.467C27.4547 1.95897 27.4547 1.44358 27.4547 0.935546C26.6303 -0.14678 25.7986 -0.14678 24.9448 0.935546C24.9448 221.119 24.9448 441.31 24.9448 661.493C24.9448 662.642 24.9448 663.798 24.9374 664.946C23.274 665.16 21.6031 665.16 19.9397 664.946C19.9397 663.923 19.9323 662.899 19.9323 661.876C19.9323 442.716 19.9323 223.549 19.9323 4.38868C19.9323 3.24009 19.9323 2.08414 19.9249 0.935546C18.9975 -0.124692 17.9082 -0.124692 17.0323 0.935546C17.0249 1.50984 17.0028 2.08414 17.0028 2.6658C17.0028 222.658 17.0028 442.65 17.0028 662.642C17.0028 663.407 16.9219 664.181 17.1501 664.932C16.127 665.138 15.1039 665.145 14.0734 664.961C14.0734 664.063 14.0587 663.172 14.0587 662.274C14.0587 442.79 14.0587 223.298 14.0587 3.81439C14.0587 2.85723 14.0439 1.89271 14.0366 0.935546C13.1386 -0.124692 12.0419 -0.124692 11.1587 0.935546C11.1513 1.50984 11.1292 2.08414 11.1292 2.6658C11.1292 222.658 11.1292 442.65 11.1292 662.649C11.1292 663.415 11.0482 664.188 11.2838 664.939L11.1366 665.005L10.9746 664.961C10.7317 664.762 10.5109 664.792 10.3048 665.013C9.59824 665.138 8.88428 665.138 8.17767 665.013C8.04519 664.887 7.92006 664.762 7.78757 664.63C7.78757 663.989 7.77285 663.349 7.77285 662.708C7.77285 443.202 7.77285 223.703 7.77285 4.19725C7.77285 3.49042 7.76549 2.79096 7.75813 2.08414C7.75813 1.70127 7.75813 1.31841 7.75813 0.935546C6.84543 -0.14678 5.74137 -0.139417 4.85811 0.942909L4.87283 2.84986C4.85811 3.68186 4.83603 4.51385 4.83603 5.34584C4.83603 223.88 4.83603 442.414 4.83603 660.956C4.83603 662.303 4.83603 663.643 4.83603 664.99C3.85709 665.145 2.88551 665.175 1.91393 664.961C1.91393 663.172 1.91393 661.375 1.91393 659.586C1.91393 441.317 1.91393 223.048 1.91393 4.77891C1.91393 3.49779 1.91393 2.21667 1.91393 0.935546C1.57535 -0.271947 0.486008 0.368613 -0.242676 0.19927C-0.242676 0.0741029 -0.242676 -0.051064 -0.242676 -0.183594C125.157 -0.183594 250.565 -0.183594 375.964 -0.183594Z" fill="#6B4D61"/>
<path d="M118.592 468.839C126.291 480.119 133.806 491.133 141.416 502.288C133.747 513.001 126.114 523.662 118.393 534.441C126.062 545.699 133.71 556.92 141.365 568.17C133.622 579.045 125.974 589.78 118.179 600.735C110.539 589.706 103.061 578.912 95.5534 568.074C95.8037 567.654 96.0098 567.272 96.26 566.911C102.435 558.024 108.611 549.137 114.786 540.243C115.721 538.896 116.604 537.511 117.569 536.193C118.194 535.339 118.143 534.625 117.546 533.778C115.073 530.296 112.63 526.776 110.186 523.272C105.578 516.667 100.978 510.056 96.3778 503.444C96.0981 503.039 95.8479 502.604 95.5093 502.052C103.149 491.06 110.775 480.074 118.584 468.839H118.592Z" fill="#704A43"/>
<path d="M306.519 468.816C314.225 480.148 321.696 491.118 329.248 502.221C321.703 513.133 313.968 523.647 306.342 534.455C313.953 545.654 321.563 556.831 329.263 568.155C321.556 579.015 313.945 589.72 306.232 600.588C305.79 600.117 305.429 599.815 305.164 599.432C302.728 595.912 300.314 592.364 297.878 588.844C293.432 582.424 288.964 576.026 284.511 569.613C284.158 569.105 283.849 568.567 283.473 567.963C284.673 566.233 285.806 564.576 286.955 562.927C292.35 555.167 297.745 547.414 303.14 539.661C303.891 538.579 304.627 537.474 305.356 536.37C306.217 535.067 306.239 534.934 305.371 533.675C302.971 530.207 300.549 526.754 298.143 523.293C293.572 516.733 289.001 510.166 284.437 503.598C284.121 503.142 283.849 502.648 283.466 502.037C291.091 491.052 298.687 480.111 306.526 468.816H306.519Z" fill="#704A43"/>
<path d="M71.2567 600.625C63.6607 589.662 56.2193 578.92 48.6822 568.045C49.2784 567.125 49.8599 566.16 50.4929 565.247C56.396 556.78 62.3064 548.32 68.2095 539.853C69.0707 538.616 69.8656 537.313 70.7709 536.113C71.3671 535.318 71.3451 534.721 70.7709 533.911C68.2537 530.377 65.7879 526.806 63.3001 523.25C58.6556 516.587 54.0186 509.931 49.3815 503.26C49.1386 502.907 48.9399 502.517 48.6602 502.038C56.2856 491.06 63.8889 480.119 71.5879 469.023C71.9854 469.443 72.3093 469.701 72.5374 470.032C76.9832 476.533 81.4289 483.035 85.8451 489.558C88.4213 493.365 90.9459 497.208 93.4853 501.037C94.3391 502.318 94.3317 502.325 93.5 503.503C88.3845 510.748 83.269 517.993 78.1387 525.238C76.2471 527.911 74.3628 530.583 72.3902 533.197C71.691 534.125 71.7131 534.758 72.3755 535.708C77.7045 543.432 82.9893 551.192 88.2667 558.96C90.1363 561.721 91.9322 564.541 93.787 567.309C94.2581 568.016 94.1551 568.531 93.684 569.194C88.2005 576.873 82.739 584.575 77.2849 592.276C75.5773 594.691 73.8991 597.135 72.1989 599.558C71.9854 599.86 71.7131 600.103 71.2494 600.618L71.2567 600.625Z" fill="#704A43"/>
<path d="M188.126 502.273C186.036 505.233 184.092 508.016 182.112 510.77C179.257 514.76 176.379 518.729 173.515 522.712C171.02 526.18 168.518 529.655 166.03 533.131C165.103 534.426 165.117 534.441 166.03 535.781C171.455 543.74 176.887 551.692 182.311 559.644C184.225 562.449 186.117 565.254 188.089 568.163C180.412 578.942 172.765 589.669 164.955 600.632C164.47 600.043 164.057 599.624 163.719 599.138C160.465 594.426 157.219 589.706 153.996 584.972C151.832 581.798 149.734 578.581 147.563 575.408C146.216 573.434 144.788 571.52 143.411 569.569C142.366 568.082 142.351 568.06 143.338 566.609C145.067 564.054 146.834 561.529 148.578 558.981C152.141 553.791 155.688 548.592 159.258 543.409C160.863 541.075 162.497 538.763 164.101 536.429C165.066 535.03 165.08 535.001 164.124 533.624C160.723 528.713 157.286 523.831 153.885 518.913C150.271 513.686 146.716 508.414 143.087 503.201C142.513 502.376 142.521 501.824 143.102 501.014C144.972 498.408 146.76 495.742 148.571 493.092C152.163 487.85 155.747 482.593 159.354 477.358C161.275 474.567 163.226 471.799 165.301 468.824C172.956 480.038 180.501 491.097 188.119 502.266L188.126 502.273Z" fill="#704A43"/>
<path d="M118.952 134.967C126.629 146.188 134.122 157.136 141.726 168.247C134.093 178.952 126.445 189.687 118.732 200.503C126.416 211.79 134.034 222.967 141.755 234.305C134.056 245.04 126.379 255.738 118.548 266.657C110.9 255.694 103.422 244.981 95.8701 234.158C97.0404 232.442 98.1592 230.779 99.3001 229.129C105.328 220.441 111.364 211.76 117.399 203.08C117.576 202.822 117.745 202.55 117.944 202.307C118.614 201.489 118.511 200.731 117.922 199.884C115.832 196.895 113.8 193.854 111.717 190.858C106.653 183.576 101.574 176.301 96.4958 169.02C96.3191 168.762 96.1719 168.482 95.9069 168.04C103.51 157.121 111.136 146.173 118.952 134.952V134.967Z" fill="#704A43"/>
<path d="M306.702 200.577C314.343 211.805 321.924 222.938 329.432 233.982C328.335 236.25 308.211 264.574 306.371 266.444C298.761 255.82 291.459 244.997 283.819 234.247C284.562 233.062 285.225 231.928 285.968 230.853C291.098 223.453 296.243 216.068 301.381 208.683C302.779 206.673 304.207 204.678 305.598 202.653C306.607 201.181 306.607 201.063 305.62 199.62C301.918 194.216 298.216 188.811 294.484 183.429C291.26 178.769 288 174.137 284.761 169.491C284.444 169.035 284.18 168.542 283.863 168.012C291.488 157.063 299.062 146.188 306.636 135.313C307.924 136.278 327.216 164.234 329.439 168.343C322.078 179.137 314.137 189.636 306.695 200.577H306.702Z" fill="#704A43"/>
<path d="M165.669 134.967C173.324 146.151 180.817 157.107 188.435 168.232C187.36 169.771 186.263 171.361 185.145 172.929C178.866 181.742 172.588 190.57 166.272 199.354C165.639 200.23 165.625 200.841 166.236 201.725C171.675 209.603 177.092 217.496 182.495 225.396C184.482 228.305 186.418 231.25 188.479 234.327C180.795 245.025 173.118 255.723 165.345 266.539C164.889 266.024 164.572 265.737 164.337 265.391C159.854 258.926 155.372 252.454 150.904 245.975C148.475 242.456 146.075 238.907 143.602 235.417C142.947 234.497 142.881 233.856 143.58 232.899C145.258 230.624 146.811 228.246 148.416 225.904C152.251 220.286 156.078 214.661 159.92 209.058C161.415 206.879 162.968 204.736 164.484 202.564C165.478 201.151 165.478 201.129 164.521 199.73C159.965 193.074 155.416 186.425 150.852 179.777C148.431 176.25 146.017 172.716 143.536 169.233C142.925 168.372 142.844 167.768 143.514 166.884C145.141 164.727 146.686 162.496 148.217 160.273C152.251 154.412 156.255 148.529 160.288 142.668C161.996 140.187 163.74 137.728 165.669 134.967Z" fill="#704A43"/>
<path d="M71.6246 266.57C63.9918 255.643 56.5504 244.975 48.9912 234.144C50.3161 232.222 51.6263 230.323 52.9438 228.423C57.5367 221.804 62.137 215.185 66.7372 208.573C68.1357 206.556 69.5563 204.553 70.9548 202.536C71.9116 201.151 71.9116 201.107 70.9327 199.701C63.9403 189.614 56.9405 179.534 49.9407 169.447C49.6537 169.035 49.3887 168.608 49.0427 168.085C56.6902 157.107 64.3304 146.137 72.0809 135.012C72.8391 136.079 73.4647 136.926 74.0609 137.802C79.4193 145.658 84.7703 153.522 90.114 161.385C91.3874 163.255 92.5871 165.184 93.9267 167.01C94.5524 167.864 94.626 168.446 93.9783 169.352C88.48 177.016 83.0259 184.71 77.5718 192.412C75.9304 194.724 74.3774 197.109 72.7139 199.392C72.0809 200.261 72.0736 200.872 72.6918 201.755C75.4962 205.783 78.2416 209.862 80.9944 213.933C85.234 220.192 89.4663 226.45 93.6912 232.716C94.7437 234.276 94.7437 234.299 93.8678 235.536C90.4305 240.424 86.9932 245.321 83.5338 250.195C80.0008 255.172 76.4383 260.127 72.8832 265.09C72.5594 265.539 72.1766 265.936 71.6319 266.577L71.6246 266.57Z" fill="#704A43"/>
<path d="M282.244 568.097C274.567 578.993 267.008 589.728 259.331 600.633C258.83 600.051 258.44 599.675 258.138 599.241C253.796 592.909 249.475 586.548 245.118 580.23C242.615 576.601 240.039 573.03 237.507 569.429C236.58 568.104 236.558 568.067 237.441 566.779C241.732 560.557 246.045 554.358 250.351 548.143C253.074 544.212 255.812 540.28 258.528 536.348C258.808 535.943 259.029 535.48 259.368 534.876C258.212 533.256 257.027 531.644 255.886 530.002C252.338 524.87 248.827 519.723 245.28 514.599C242.696 510.873 240.068 507.192 237.47 503.474C236.58 502.2 236.558 502.156 237.47 500.823C240.385 496.56 243.322 492.312 246.266 488.071C250.322 482.225 254.392 476.393 258.455 470.555C258.808 470.047 259.176 469.553 259.677 468.876C267.236 480.075 274.699 491.119 282.266 502.34C281.589 503.26 280.889 504.21 280.205 505.167C276.679 510.071 273.139 514.959 269.643 519.893C267.972 522.249 266.411 524.7 264.755 527.071C263.386 529.03 261.922 530.915 260.553 532.88C259.441 534.471 259.471 534.508 260.597 536.164C262.613 539.131 264.652 542.091 266.662 545.066C271.137 551.692 275.605 558.326 280.08 564.953C280.779 565.991 281.5 567.029 282.251 568.119L282.244 568.097Z" fill="#704A43"/>
<path d="M47.5927 568.104C39.9379 578.964 32.3713 589.706 24.6208 600.691C16.8849 589.816 9.6717 578.772 1.86963 568.089C4.15873 564.776 6.3595 561.565 8.58236 558.37C12.1743 553.201 15.7735 548.04 19.358 542.871C20.8669 540.699 22.3758 538.527 23.8553 536.341C24.7533 535.023 24.7606 534.979 23.8553 533.661C20.4548 528.75 17.0395 523.846 13.6169 518.942C9.98084 513.73 6.33742 508.531 2.694 503.326C2.44374 502.965 2.23029 502.582 1.92115 502.067C9.54657 491.089 17.1867 480.089 24.9888 468.854C32.5774 480.074 40.063 491.141 47.6148 502.317C45.3846 505.446 43.1544 508.568 40.9389 511.69C37.6193 516.351 34.3145 521.026 30.9949 525.687C29.3609 527.991 27.6974 530.274 26.0855 532.6C24.8121 534.448 24.8416 534.463 26.034 536.238C32.2315 545.426 38.429 554.622 44.6265 563.811C45.6054 565.262 46.6138 566.697 47.578 568.096L47.5927 568.104Z" fill="#704A43"/>
<path d="M189.826 502.14C197.518 491.008 205.092 480.037 212.798 468.883C220.416 480.045 227.953 491.104 235.498 502.17C235.218 502.656 235.034 503.068 234.784 503.414C230.75 509.032 226.687 514.628 222.661 520.245C219.584 524.538 216.53 528.845 213.49 533.167C212.585 534.456 212.607 534.5 213.512 535.825C218.694 543.423 223.898 551.007 229.079 558.605C231.207 561.727 233.304 564.864 235.527 568.162C227.858 578.941 220.181 589.72 212.401 600.647C204.842 589.684 197.422 578.927 189.863 567.971C190.982 566.351 192.145 564.658 193.315 562.964C198.048 556.132 202.788 549.306 207.506 542.459C208.897 540.441 210.237 538.373 211.591 536.326C212.467 535 212.489 534.978 211.576 533.653C205.754 525.201 199.917 516.755 194.088 508.31C192.697 506.293 191.298 504.276 189.819 502.133L189.826 502.14Z" fill="#704A43"/>
<path d="M47.9462 168.306C45.7528 171.398 43.5667 174.468 41.3807 177.546C38.0611 182.207 34.7269 186.86 31.4294 191.535C29.6555 194.053 27.9184 196.601 26.1814 199.156C25.2319 200.547 25.2319 200.584 26.1814 201.998C31.5251 209.935 36.8835 217.872 42.2419 225.801C44.1409 228.614 46.0472 231.419 47.9757 234.269C40.3208 245.048 32.7248 255.738 24.9743 266.65C17.3636 255.753 9.88535 245.04 2.32617 234.217C2.96653 233.208 3.57009 232.185 4.24725 231.22C10.7465 221.87 17.2605 212.534 23.7745 203.19C23.9512 202.933 24.1352 202.675 24.3045 202.41C25.092 201.195 25.1141 201.041 24.3045 199.855C22.2877 196.881 20.2709 193.913 18.2247 190.968C13.1239 183.635 8.00108 176.316 2.88557 168.99C2.70892 168.733 2.56171 168.446 2.33353 168.063C9.95159 157.122 17.5991 146.151 25.3644 135.004C32.9235 146.158 40.365 157.136 47.9462 168.313V168.306Z" fill="#704A43"/>
<path d="M190.209 234.107C191.953 231.581 193.668 229.1 195.391 226.626C199.888 220.169 204.4 213.726 208.883 207.255C210.068 205.546 211.127 203.757 212.283 202.027C212.754 201.328 212.658 200.746 212.217 200.098C209.251 195.717 206.328 191.307 203.325 186.955C199.005 180.682 194.64 174.453 190.238 168.129C197.842 157.151 205.423 146.21 213.159 135.033C220.755 146.129 228.263 157.099 235.888 168.239C228.255 178.952 220.615 189.68 212.894 200.51C220.63 211.849 228.248 223.026 235.94 234.298C228.218 245.055 220.549 255.753 212.754 266.606C205.158 255.665 197.717 244.937 190.194 234.107H190.209Z" fill="#704A43"/>
<path d="M118.952 0.0957031C126.644 11.3681 134.152 22.3754 141.799 33.5815C134.078 44.3827 126.379 55.1692 118.547 66.125C110.907 55.125 103.414 44.3385 95.8184 33.4122C103.503 22.3386 111.128 11.3607 118.952 0.0957031Z" fill="#704A43"/>
<path d="M306.482 66.133C298.819 55.1036 291.326 44.3245 283.745 33.4056C291.415 22.3541 299.011 11.4204 306.769 0.236328C307.247 0.825349 307.644 1.25239 307.968 1.73833C312.694 8.6446 317.419 15.5509 322.13 22.4719C324.574 26.0575 326.988 29.6727 329.542 33.4497C322.233 44.597 314.144 55.0374 306.482 66.133Z" fill="#704A43"/>
<path d="M118.886 68.1128C126.835 79.1938 134.174 90.3116 141.792 101.363C134.041 112.208 126.372 122.936 118.555 133.884C110.929 122.921 103.414 112.105 95.7964 101.157C103.473 90.1717 111.091 79.2674 118.886 68.1055V68.1128Z" fill="#704A43"/>
<path d="M165.713 0.169472C173.339 11.3388 180.883 22.3903 188.516 33.5817C180.802 44.3608 173.132 55.0883 165.294 66.0441C164.609 65.1017 164.057 64.3728 163.534 63.6218C159.427 57.7389 155.313 51.8708 151.235 45.9659C148.696 42.2918 146.208 38.5736 143.713 34.8628C142.704 33.3608 142.726 33.3534 143.742 31.8735C147.621 26.2116 151.471 20.5275 155.372 14.8729C158.588 10.2049 161.849 5.5811 165.095 0.935199C165.235 0.736405 165.397 0.559699 165.713 0.162109V0.169472Z" fill="#704A43"/>
<path d="M71.6321 66.0221C63.9551 54.978 56.4916 44.2431 48.9619 33.4051C56.6683 22.3094 64.2937 11.3242 72.2577 -0.139648C72.4859 0.397833 72.5669 0.729157 72.7362 0.979491C78.3007 9.15952 83.8799 17.3175 89.437 25.5049C90.9533 27.7431 92.3959 30.0403 93.8827 32.3007C94.6924 33.5376 94.7218 33.5523 93.8606 34.7967C90.3791 39.8107 86.9124 44.8321 83.3941 49.8093C79.942 54.6908 76.4311 59.5282 72.9422 64.3802C72.5889 64.8735 72.1841 65.33 71.6321 66.0221Z" fill="#704A43"/>
<path d="M118.585 334.203C126.306 345.424 133.828 356.35 141.453 367.431C133.74 378.225 126.07 388.945 118.194 399.96C110.54 388.975 102.98 378.262 95.458 367.21C103.083 356.321 110.716 345.424 118.577 334.203H118.585Z" fill="#704A43"/>
<path d="M71.7057 133.892C64.0141 122.833 56.5211 112.047 48.9546 101.172C56.6757 90.2014 64.1024 79.1278 72.2283 68.0469C72.4933 68.5475 72.6184 68.8421 72.7951 69.1071C77.3585 75.7483 81.9441 82.3822 86.4929 89.0307C88.8776 92.5133 91.2109 96.0254 93.5589 99.53C93.7723 99.8466 93.9269 100.2 94.1551 100.495C94.5967 101.084 94.5746 101.599 94.133 102.217C90.9975 106.62 87.8987 111.053 84.7779 115.47C81.9441 119.476 79.0956 123.474 76.2545 127.479C74.8045 129.526 73.3471 131.573 71.6984 133.899L71.7057 133.892Z" fill="#704A43"/>
<path d="M306.518 68.4375C308.351 69.8364 327.378 97.4468 329.483 101.614C321.909 112.239 314.262 122.966 306.489 133.87C305.186 132.03 303.979 130.366 302.809 128.68C296.78 119.992 290.76 111.304 284.746 102.608C283.752 101.172 283.76 101.158 284.702 99.8029C290.369 91.6376 296.03 83.4649 301.705 75.307C303.029 73.4 304.413 71.5372 305.768 69.645C306.055 69.24 306.298 68.8056 306.518 68.4375Z" fill="#704A43"/>
<path d="M165.728 68.1055C173.39 79.2748 180.898 90.2232 188.523 101.341C180.802 112.142 173.103 122.899 165.257 133.87C164.123 132.257 163.122 130.829 162.129 129.4C158.39 124.026 154.643 118.666 150.926 113.276C148.46 109.698 146.046 106.083 143.617 102.482C142.727 101.164 142.719 101.15 143.632 99.8242C145.384 97.2841 147.165 94.766 148.909 92.2185C152.693 86.7185 156.439 81.1965 160.244 75.7112C161.959 73.23 163.763 70.8223 165.728 68.1055Z" fill="#704A43"/>
<path d="M329.138 367.704C321.527 378.373 313.916 389.049 306.107 399.997C298.422 388.946 290.937 378.181 283.341 367.255C291.055 356.255 298.68 345.373 306.305 334.483C307.711 335.698 327.386 364.325 329.13 367.697L329.138 367.704Z" fill="#704A43"/>
<path d="M71.713 334.232C72.6257 335.521 73.4206 336.625 74.1935 337.752C79.2943 345.173 84.3877 352.595 89.4738 360.032C90.9311 362.159 92.2928 364.361 93.7576 366.481C94.236 367.181 94.2139 367.696 93.7355 368.366C89.3192 374.566 84.925 380.772 80.5308 386.987C77.9105 390.683 75.3123 394.394 72.6846 398.09C72.3019 398.627 71.8602 399.12 71.2567 399.879C63.6239 388.908 56.1678 378.188 48.5718 367.269C56.2634 356.284 63.9257 345.343 71.713 334.232Z" fill="#704A43"/>
<path d="M118.952 267.247C126.666 278.563 134.203 289.607 141.711 300.615C133.968 311.526 126.342 322.269 118.548 333.254C110.9 322.173 103.422 311.335 95.8921 300.431C103.554 289.401 111.15 278.467 118.952 267.239V267.247Z" fill="#704A43"/>
<path d="M306.651 267.563C308.13 268.771 328.313 298.457 329.373 300.924C321.843 311.556 314.262 322.276 306.482 333.261C298.871 322.239 291.415 311.445 283.812 300.438C291.408 289.497 299.026 278.526 306.651 267.556V267.563Z" fill="#704A43"/>
<path d="M164.896 399.997C164.189 398.959 163.704 398.245 163.21 397.531C160.929 394.217 158.64 390.897 156.351 387.583C152.067 381.369 147.776 375.162 143.492 368.941C142.721 367.822 142.704 366.725 143.44 365.65C147.172 360.194 150.882 354.716 154.65 349.29C157.911 344.585 161.238 339.939 164.543 335.271C164.749 334.977 164.984 334.697 165.33 334.24C172.97 345.343 180.522 356.314 188.17 367.432C180.449 378.233 172.786 388.953 164.889 400.004L164.896 399.997Z" fill="#704A43"/>
<path d="M49.0356 300.437C56.6905 289.415 64.3012 278.467 72.0076 267.371C72.4051 267.85 72.7363 268.188 73.0013 268.579C78.6467 276.854 84.2922 285.123 89.9229 293.413C91.2993 295.445 92.5506 297.58 93.9712 299.576C94.5674 300.408 94.56 300.96 93.9859 301.763C90.3057 306.939 86.6622 312.144 83.0041 317.342C79.7802 321.914 76.5564 326.494 73.3251 331.059C72.8614 331.722 72.3462 332.34 71.6764 333.224C64.0951 322.238 56.639 311.445 49.043 300.437H49.0356Z" fill="#704A43"/>
<path d="M165.331 333.173C164.874 332.613 164.543 332.26 164.263 331.862C159.059 324.212 153.87 316.555 148.659 308.912C147.099 306.623 145.45 304.406 143.868 302.139C142.609 300.335 142.646 300.673 143.757 299.046C149.336 290.896 154.908 282.738 160.51 274.602C162.144 272.224 163.836 269.89 165.691 267.269C173.324 278.453 180.854 289.489 188.442 300.615C180.736 311.475 173.081 322.261 165.331 333.18V333.173Z" fill="#704A43"/>
<path d="M259.618 66.1256C257.483 63.0554 255.584 60.3238 253.693 57.5922C248.599 50.2515 243.498 42.9109 238.405 35.5702C238.228 35.3125 238.037 35.0622 237.868 34.7971C236.97 33.3834 236.948 33.3614 237.919 31.9403C240.812 27.7436 243.727 23.5615 246.634 19.3721C250.896 13.2168 255.157 7.06157 259.419 0.906301C259.566 0.700143 259.662 0.457172 259.927 -0.0361328C267.597 11.3246 275.053 22.3614 282.619 33.5749C275.038 44.3024 267.427 55.0668 259.618 66.1256Z" fill="#704A43"/>
<path d="M2.24512 33.4052C9.97359 22.2801 17.6064 11.2875 25.3643 0.118164C32.9603 11.3537 40.4311 22.4052 47.9829 33.5746C40.3575 44.3463 32.7394 55.1106 24.9668 66.0885C17.334 55.1106 9.81166 44.28 2.24512 33.4052Z" fill="#704A43"/>
<path d="M118.584 401.978C126.261 413.235 133.798 424.287 141.387 435.404C133.636 446.191 125.952 456.882 118.172 467.705C110.547 456.786 103.069 446.066 95.4946 435.213C103.142 424.206 110.768 413.22 118.584 401.978Z" fill="#704A43"/>
<path d="M260.118 68.3486C267.861 79.1351 274.927 90.3707 282.671 101.275C275.001 112.128 267.375 122.914 259.625 133.892C258.087 131.713 256.71 129.776 255.356 127.832C249.652 119.623 243.955 111.406 238.25 103.197C238.074 102.939 237.934 102.637 237.728 102.409C236.933 101.54 237.102 100.774 237.75 99.8686C240.193 96.4376 242.571 92.955 244.978 89.4945C248.172 84.9001 251.359 80.2984 254.568 75.7188C256.151 73.4584 257.77 71.2201 259.382 68.9745C259.522 68.783 259.75 68.6579 260.118 68.3486Z" fill="#704A43"/>
<path d="M259.735 334.299C267.287 345.402 274.751 356.365 282.28 367.431C274.655 378.225 267.052 388.989 259.272 399.997C258.698 399.187 258.3 398.649 257.917 398.105C255.665 394.835 253.427 391.559 251.16 388.305C246.707 381.906 242.225 375.516 237.779 369.117C236.506 367.284 236.513 367.255 237.735 365.495C241.496 360.061 245.257 354.627 249.041 349.216C252.39 344.423 255.768 339.644 259.139 334.866C259.242 334.718 259.404 334.615 259.735 334.306V334.299Z" fill="#704A43"/>
<path d="M213.166 0.169922C220.835 11.4055 228.343 22.4128 235.968 33.5821C228.247 44.3907 220.556 55.155 212.768 66.0593C205.194 55.1035 197.738 44.317 190.201 33.4202C197.834 22.376 205.43 11.3834 213.173 0.177285L213.166 0.169922Z" fill="#704A43"/>
<path d="M329.233 634.508C321.497 645.427 313.938 656.103 306.195 667.037C305.584 666.271 305.061 665.697 304.62 665.056C298.187 655.72 291.768 646.384 285.343 637.048C284.746 636.179 284.099 635.34 283.399 634.383C291.069 623.427 298.672 612.574 306.217 601.803C306.46 601.817 306.519 601.81 306.577 601.825C306.636 601.84 306.695 601.854 306.747 601.891C306.85 601.957 306.968 602.024 307.041 602.119C307.409 602.627 307.777 603.143 308.131 603.666C315.13 613.9 322.13 624.134 329.233 634.523V634.508Z" fill="#704A43"/>
<path d="M259.633 333.283C257.822 330.699 256.232 328.446 254.664 326.178C249.409 318.565 244.168 310.937 238.92 303.317C238.884 303.265 238.847 303.214 238.81 303.162C236.425 299.922 236.668 300.88 238.81 297.714C243.506 290.785 248.364 283.982 253.148 277.113C255.165 274.219 257.145 271.311 259.154 268.41C259.368 268.1 259.633 267.835 259.868 267.556C260.972 268.424 281.169 298.052 282.472 300.703C274.92 311.467 267.361 322.254 259.625 333.276L259.633 333.283Z" fill="#704A43"/>
<path d="M212.776 133.811C205.217 122.892 197.746 112.098 190.179 101.172C197.783 90.2233 205.371 79.3043 213.1 68.1865C221.005 79.2012 228.365 90.2969 235.961 101.363C228.218 112.201 220.526 122.965 212.776 133.811Z" fill="#704A43"/>
<path d="M283.414 435.213C291.069 424.198 298.665 413.264 306.261 402.338C307.674 403.435 327.01 431.649 329.1 435.61C321.534 446.183 313.908 456.844 306.114 467.734C298.518 456.852 291.047 446.154 283.414 435.22V435.213Z" fill="#704A43"/>
<path d="M118.592 601.391C126.276 612.567 133.784 623.494 141.357 634.501C133.658 645.346 125.996 656.133 118.187 667.14C110.532 656.059 103.068 645.258 95.5166 634.324C103.157 623.42 110.79 612.53 118.592 601.391Z" fill="#704A43"/>
<path d="M71.3304 467.72C63.6682 456.749 56.1974 446.044 48.6382 435.221C56.2857 424.213 63.9111 413.235 71.6911 402.029C72.7584 403.539 73.7005 404.842 74.6132 406.174C79.4785 413.294 84.3437 420.414 89.1869 427.549C90.6663 429.735 92.0354 432.01 93.5443 434.175C94.1993 435.118 94.192 435.765 93.5075 436.701C89.8493 441.729 86.2501 446.81 82.6434 451.875C79.2503 456.639 75.8645 461.41 72.4787 466.174C72.1548 466.623 71.8162 467.057 71.3231 467.72H71.3304Z" fill="#704A43"/>
<path d="M164.874 467.734C163.211 465.356 161.702 463.206 160.2 461.049C157.109 456.609 154.01 452.177 150.926 447.73C148.416 444.107 145.928 440.477 143.433 436.848C142.322 435.228 142.329 435.22 143.492 433.556C145.185 431.134 146.885 428.712 148.563 426.275C152.347 420.775 156.108 415.267 159.884 409.767C161.378 407.588 162.879 405.409 164.388 403.237C164.631 402.883 164.933 402.574 165.36 402.073C172.985 413.25 180.537 424.309 188.104 435.404C180.368 446.176 172.713 456.83 164.874 467.749V467.734Z" fill="#704A43"/>
<path d="M24.6061 399.975C16.9586 388.982 9.45832 378.203 1.85498 367.269C9.55401 356.284 17.2236 345.335 24.9962 334.232C32.5996 345.387 40.0778 356.35 47.637 367.431C40.0042 378.218 32.3861 388.975 24.6061 399.975Z" fill="#704A43"/>
<path d="M259.537 200.908C259.986 201.306 260.531 201.63 260.862 202.116C265.587 209.103 270.276 216.12 275.001 223.114C277.327 226.56 279.697 229.969 282.045 233.393C282.222 233.651 282.369 233.923 282.656 234.387C274.81 244.886 267.516 255.871 259.596 266.643C257.756 264.015 256.107 261.659 254.458 259.295C251.293 254.76 248.136 250.209 244.971 245.674C242.556 242.221 240.157 238.76 237.706 235.329C237.095 234.475 237.08 233.857 237.706 232.958C241.798 227.149 245.824 221.281 249.88 215.442C252.89 211.098 255.93 206.769 258.926 202.418C259.235 201.969 259.368 201.394 259.581 200.879L259.537 200.901V200.908Z" fill="#704A43"/>
<path d="M25.4305 68.1572C33.0339 79.3413 40.4753 90.2971 47.9829 101.334C40.3428 112.128 32.7321 122.885 24.9668 133.855C17.3929 122.966 9.8779 112.164 2.24512 101.194C9.9147 90.2455 17.3782 79.1646 25.4305 68.1572Z" fill="#704A43"/>
<path d="M212.798 334.262C220.453 345.38 227.975 356.306 235.638 367.424C227.909 378.233 220.225 388.99 212.408 399.923C204.797 388.909 197.334 378.13 189.819 367.255C197.503 356.218 205.077 345.343 212.798 334.255V334.262Z" fill="#704A43"/>
<path d="M71.7425 601.361C72.6773 602.723 73.4943 603.909 74.3113 605.102C78.0725 610.616 81.8263 616.138 85.5801 621.66C88.2299 625.563 90.8576 629.487 93.5441 633.367C94.1329 634.221 94.2286 634.803 93.5809 635.716C90.0626 640.612 86.6253 645.575 83.1512 650.5C79.7065 655.382 76.2544 660.256 72.8024 665.13C72.3755 665.734 71.9044 666.301 71.2935 667.089C63.7049 656.103 56.2487 645.302 48.6675 634.324C56.3076 623.413 63.9698 612.472 71.7498 601.361H71.7425Z" fill="#704A43"/>
<path d="M25.3644 267.269C32.9677 278.512 40.4312 289.556 47.9021 300.6C40.2767 311.46 32.7028 322.239 24.9743 333.247C17.371 322.232 9.88539 311.387 2.31885 300.431C9.98107 289.402 17.6139 278.416 25.3644 267.262V267.269Z" fill="#704A43"/>
<path d="M213.203 267.357C220.792 278.467 228.307 289.482 235.895 300.6C228.181 311.467 220.527 322.254 212.725 333.254C211.849 331.995 211.091 330.934 210.354 329.859C207.109 325.066 203.892 320.244 200.609 315.48C197.437 310.871 194.184 306.321 190.974 301.741C190.209 300.644 190.202 300.445 191.063 299.208C194.787 293.826 198.512 288.451 202.251 283.076C204.481 279.874 206.748 276.7 208.963 273.49C210.141 271.782 211.23 270.008 212.371 268.277C212.57 267.975 212.85 267.732 213.188 267.35L213.203 267.357Z" fill="#704A43"/>
<path d="M165.294 601.376C172.949 612.508 180.493 623.479 188.067 634.494C180.383 645.324 172.75 656.067 164.999 666.986C164.587 666.529 164.241 666.212 163.984 665.837C158.905 658.408 153.848 650.957 148.762 643.528C147.055 641.032 145.303 638.573 143.536 636.128C142.337 634.464 142.315 634.486 143.441 632.859C148.983 624.834 154.525 616.808 160.083 608.798C161.761 606.375 163.468 603.975 165.294 601.383V601.376Z" fill="#704A43"/>
<path d="M259.721 402.044C267.294 413.272 274.721 424.272 282.214 435.383C274.603 446.103 266.978 456.845 259.242 467.742C257.564 465.349 256.011 463.155 254.473 460.946C249.696 454.069 244.926 447.192 240.142 440.316C239.281 439.079 238.346 437.893 237.492 436.649C236.528 435.25 236.535 435.213 237.507 433.814C240.304 429.779 243.13 425.767 245.934 421.732C250.204 415.584 254.465 409.429 258.734 403.281C258.985 402.927 259.272 402.604 259.728 402.044H259.721Z" fill="#704A43"/>
<path d="M259.581 200.886C255.952 195.599 252.338 190.298 248.695 185.019C245.118 179.843 241.511 174.697 237.927 169.535C236.918 168.085 236.896 168.048 237.934 166.553C242.402 160.162 246.892 153.786 251.36 147.395C253.95 143.685 256.519 139.959 259.11 136.241C259.353 135.887 259.633 135.556 260.067 135.004C267.604 146.144 275.06 157.166 282.546 168.239C274.898 179.107 267.229 190.004 259.552 200.901L259.589 200.879L259.581 200.886Z" fill="#704A43"/>
<path d="M212.408 467.654C204.834 456.757 197.378 446.022 189.87 435.213C197.488 424.191 205.092 413.191 212.805 402.044C220.467 413.265 228.012 424.324 235.564 435.39C227.821 446.184 220.166 456.845 212.408 467.654Z" fill="#704A43"/>
<path d="M1.92139 435.213C9.61305 424.139 17.2385 413.169 24.9964 402.007C32.6218 413.279 40.0779 424.316 47.5635 435.397C39.9381 446.117 32.3421 456.808 24.5989 467.705C17.0324 456.867 9.53209 446.124 1.92139 435.22V435.213Z" fill="#704A43"/>
<path d="M259.272 667.14C257.373 664.445 255.665 662.045 253.987 659.623C248.57 651.818 243.167 643.999 237.742 636.202C236.543 634.479 236.484 634.42 237.669 632.726C242.365 626.034 247.075 619.348 251.771 612.656C254.046 609.409 256.291 606.14 258.558 602.885C258.874 602.436 259.213 602.009 259.669 601.405C267.228 612.516 274.692 623.479 282.177 634.479C274.581 645.302 267.015 656.089 259.272 667.133V667.14Z" fill="#704A43"/>
<path d="M25.0036 601.405C32.5849 612.538 40.0557 623.494 47.5487 634.494C39.9527 645.302 32.3714 656.081 24.6062 667.125C17.0102 656.14 9.52462 645.309 1.94336 634.332C9.5835 623.42 17.2531 612.479 25.0036 601.413V601.405Z" fill="#704A43"/>
<path d="M212.408 667.074C204.856 656.074 197.459 645.302 189.915 634.317C197.488 623.457 205.092 612.553 212.813 601.472C220.402 612.501 227.946 623.464 235.535 634.486C227.85 645.31 220.218 656.067 212.408 667.067V667.074Z" fill="#704A43"/>
<path d="M352.72 468.816C360.426 480.148 367.897 491.118 375.449 502.221C367.904 513.133 360.169 523.647 352.543 534.455C360.154 545.654 367.765 556.831 375.464 568.155C367.757 579.015 360.147 589.72 352.433 600.588C351.991 600.117 351.631 599.815 351.366 599.432C348.929 595.912 346.515 592.364 344.079 588.844C339.633 582.424 335.165 576.026 330.712 569.613C330.359 569.105 330.05 568.567 329.674 567.963C330.874 566.233 332.008 564.576 333.156 562.927C338.551 555.167 343.946 547.414 349.341 539.661C350.092 538.579 350.828 537.474 351.557 536.37C352.418 535.067 352.44 534.934 351.572 533.675C349.172 530.207 346.751 526.754 344.344 523.293C339.773 516.733 335.202 510.166 330.639 503.598C330.322 503.142 330.05 502.648 329.667 502.037C337.292 491.052 344.888 480.111 352.727 468.816H352.72Z" fill="#704A43"/>
<path d="M352.904 200.577C360.544 211.805 368.126 222.938 375.633 233.982C374.536 236.25 354.413 264.574 352.573 266.444C344.962 255.82 337.661 244.997 330.021 234.247C330.764 233.062 331.426 231.928 332.17 230.853C337.3 223.453 342.445 216.068 347.583 208.683C348.981 206.673 350.409 204.678 351.8 202.653C352.808 201.181 352.808 201.063 351.822 199.62C348.12 194.216 344.418 188.811 340.686 183.429C337.462 178.769 334.201 174.137 330.963 169.491C330.646 169.035 330.381 168.542 330.065 168.012C337.69 157.063 345.264 146.188 352.838 135.313C354.126 136.278 373.418 164.234 375.641 168.343C368.28 179.137 360.338 189.636 352.897 200.577H352.904Z" fill="#704A43"/>
<path d="M352.683 66.133C345.021 55.1036 337.528 44.3245 329.947 33.4056C337.616 22.3541 345.212 11.4204 352.97 0.236328C353.449 0.825349 353.846 1.25239 354.17 1.73833C358.895 8.6446 363.621 15.5509 368.332 22.4719C370.775 26.0575 373.189 29.6727 375.743 33.4497C368.435 44.597 360.345 55.0374 352.683 66.133Z" fill="#704A43"/>
<path d="M352.72 68.4375C354.553 69.8364 373.579 97.4468 375.685 101.614C368.111 112.239 360.463 122.966 352.691 133.87C351.388 132.03 350.181 130.366 349.01 128.68C342.982 119.992 336.961 111.304 330.948 102.608C329.954 101.172 329.961 101.158 330.904 99.8029C336.571 91.6376 342.231 83.4649 347.906 75.307C349.231 73.4 350.615 71.5372 351.969 69.645C352.256 69.24 352.499 68.8056 352.72 68.4375Z" fill="#704A43"/>
<path d="M375.339 367.704C367.728 378.373 360.117 389.049 352.308 399.997C344.624 388.946 337.138 378.181 329.542 367.255C337.256 356.255 344.881 345.373 352.507 334.483C353.912 335.698 373.587 364.325 375.331 367.697L375.339 367.704Z" fill="#704A43"/>
<path d="M352.853 267.563C354.332 268.771 374.514 298.457 375.574 300.924C368.045 311.556 360.463 322.276 352.683 333.261C345.073 322.239 337.617 311.445 330.013 300.438C337.609 289.497 345.227 278.526 352.853 267.556V267.563Z" fill="#704A43"/>
<path d="M375.435 634.508C367.699 645.427 360.14 656.103 352.396 667.037C351.785 666.271 351.263 665.697 350.821 665.056C344.388 655.72 337.97 646.384 331.544 637.048C330.948 636.179 330.3 635.34 329.601 634.383C337.271 623.427 344.874 612.574 352.418 601.803C352.661 601.817 352.72 601.81 352.779 601.825C352.838 601.84 352.897 601.854 352.948 601.891C353.051 601.957 353.169 602.024 353.243 602.119C353.611 602.627 353.979 603.143 354.332 603.666C361.332 613.9 368.332 624.134 375.435 634.523V634.508Z" fill="#704A43"/>
<path d="M329.616 435.213C337.271 424.198 344.867 413.264 352.463 402.338C353.876 403.435 373.212 431.649 375.302 435.61C367.735 446.183 360.11 456.844 352.315 467.734C344.719 456.852 337.249 446.154 329.616 435.22V435.213Z" fill="#704A43"/>
</svg>
