<svg width="24" height="23" viewBox="0 0 24 23" fill="none" xmlns="http://www.w3.org/2000/svg">
<path d="M19.2147 8.42976C20.1715 9.02614 21.2388 9.18078 21.916 9.89496C22.8655 10.8963 24.0063 11.8461 23.8002 13.4806C23.7634 13.7825 23.8002 14.0991 23.7929 14.4083C23.7929 14.5924 23.8223 14.8133 23.734 14.9532C23.1304 15.9766 22.5122 16.9117 21.3271 17.4565C20.0464 18.0455 18.7657 17.9572 17.4555 17.9719C16.7931 17.9719 16.7342 17.9719 16.7857 18.6051C16.8593 19.5181 16.5576 20.2912 16.1012 21.0422C15.6301 21.8079 14.9824 22.3086 14.1213 22.6031C13.1129 22.9491 12.1045 23.0743 11.0519 22.9639C9.91108 22.8461 8.92478 22.4264 8.21817 21.506C7.52629 20.6078 6.83441 19.6948 6.98898 18.4431C7.04786 17.9793 6.75344 17.7289 6.31182 17.7878C5.36232 17.9204 4.50115 17.5522 3.60318 17.3903C3.36764 17.3461 3.11002 17.2577 2.93337 17.1031C2.04276 16.3153 0.997579 15.5937 0.762045 14.3421C0.438185 12.5971 0.298334 10.8448 1.7189 9.41639C1.95443 9.17342 2.20469 8.94517 2.44758 8.7022C2.73464 8.40769 3.0585 8.23097 3.49277 8.1868C4.14049 8.1279 4.26562 7.8702 3.86079 7.36217C3.22779 6.57436 3.14683 5.69082 3.20571 4.75575C3.21307 4.63058 3.20571 4.49805 3.24987 4.38761C3.67678 3.26111 4.25089 2.20823 5.22247 1.46459C6.98898 0.117206 9.99204 0.161393 11.523 1.93582C12.0162 2.51011 12.2443 2.48066 12.6492 1.8401C13.5251 0.441175 15.9246 -0.324551 17.5586 0.34546C18.3461 0.662059 19.0675 1.0081 19.6931 1.56031C20.7236 2.47329 21.283 3.73234 21.1946 4.99873C21.099 6.29458 20.7825 7.72295 19.2368 8.4445L19.2147 8.42976ZM12.3179 14.909C13.3852 14.9237 14.2537 14.4672 15.0413 13.7899C15.5271 13.3702 15.7038 12.7812 15.9908 12.2437C16.7195 10.8963 16.1601 9.1734 15.3136 8.13525C14.055 6.6038 11.2728 6.64799 9.80067 7.98801C8.66716 9.0188 8.25498 10.7711 8.79229 12.3394C9.33696 13.9298 10.6766 14.9016 12.3179 14.909Z" fill="#DCD2B5"/>
<path d="M19.7444 11.4561C19.7591 11.9052 19.7149 12.5458 19.5751 13.179C19.5162 13.4514 19.5972 13.5397 19.8769 13.5839C21.003 13.7606 22.1071 14.0404 23.167 14.4748C23.3363 14.5485 23.616 14.5779 23.5056 14.8503C23.4025 15.1154 23.1964 14.924 23.0419 14.8651C21.9672 14.438 20.8484 14.1729 19.7076 13.9594C19.4868 13.9152 19.369 13.9668 19.2954 14.1877C19.1923 14.5043 18.9274 14.8356 18.9789 15.1154C19.0304 15.3878 19.4794 15.4614 19.7517 15.6455C20.4289 16.102 21.0545 16.6247 21.6139 17.2285C21.7243 17.3463 21.9599 17.4788 21.7611 17.6776C21.5698 17.8617 21.4299 17.6482 21.3121 17.523C20.6497 16.8235 19.9063 16.2345 19.0819 15.7339C18.7875 15.5571 18.6182 15.5572 18.3974 15.859C17.4037 17.1843 16.0274 17.9206 14.4375 18.2372C12.2809 18.6642 10.1537 18.6127 8.10015 17.7144C7.14329 17.2948 6.32628 16.6837 5.708 15.8296C5.50927 15.5498 5.3547 15.5571 5.08973 15.7118C4.39048 16.1388 3.7354 16.6248 3.14657 17.1917C3.05824 17.28 2.97728 17.3757 2.87423 17.4567C2.72702 17.5745 2.60189 17.8838 2.37372 17.6629C2.18235 17.4715 2.43996 17.3168 2.55773 17.1843C3.00672 16.6984 3.50723 16.264 4.0519 15.8811C4.33896 15.675 4.63338 15.4835 4.94252 15.3215C5.19277 15.1964 5.24429 15.0565 5.08973 14.8282C5.06028 14.784 5.0382 14.7252 5.01612 14.6736C4.78059 14.1582 4.37822 13.9594 3.80901 14.0772C2.85215 14.2687 1.91737 14.5264 1.0194 14.8945C0.86483 14.9608 0.680819 15.0786 0.599854 14.8356C0.51889 14.6147 0.739703 14.5632 0.886911 14.4969C1.9689 14.0404 3.10241 13.768 4.258 13.5692C4.44937 13.5397 4.62602 13.5398 4.5745 13.2526C4.11079 10.9628 4.52297 8.75395 5.20749 6.57457C5.49455 5.66159 5.81105 4.74862 6.31892 3.91663C6.70902 3.28343 6.74583 3.26133 7.35674 3.7031C8.33568 4.40992 9.08645 5.30818 9.64584 6.36842C9.77833 6.61875 9.90346 6.69239 10.1979 6.63349C11.4271 6.40524 12.6636 6.4126 13.8928 6.62612C14.202 6.67766 14.3344 6.62612 14.4817 6.3537C15.0631 5.25665 15.836 4.32156 16.8738 3.6221C17.3817 3.28341 17.4111 3.28342 17.7276 3.82091C18.3165 4.80752 18.6992 5.87511 19.0304 6.9648C19.45 8.35636 19.7223 9.77002 19.7297 11.434L19.7444 11.4561Z" fill="#757576"/>
<path d="M12.2293 17.6257C10.4702 17.6478 8.95391 17.3607 7.59959 16.4698C7.17269 16.19 6.81203 15.8439 6.48081 15.4537C6.30416 15.2402 6.31888 15.1224 6.59858 15.0488C7.01812 14.931 7.4303 14.7984 7.86457 14.7322C8.01914 14.7101 8.25467 14.6953 8.21787 14.4671C8.17371 14.1947 7.93818 14.2904 7.77625 14.3198C7.27574 14.4156 6.78258 14.526 6.31151 14.7101C6.16431 14.769 6.03182 14.7911 5.95085 14.6217C5.84045 14.3861 5.67116 14.1579 5.7006 13.8781C5.7006 13.8486 5.81837 13.8192 5.88461 13.8118C6.03918 13.7971 6.19375 13.7971 6.34832 13.7824C6.50289 13.7676 6.67954 13.7529 6.65746 13.532C6.63537 13.3406 6.47345 13.348 6.3336 13.348C6.30416 13.348 6.27472 13.348 6.25263 13.348C5.71287 13.3578 5.40863 13.0927 5.33994 12.5528C5.06024 10.3808 5.53867 8.31183 6.23791 6.27234C6.41456 5.75695 6.65746 5.26364 6.87091 4.75561C6.9666 4.52 7.08436 4.50529 7.27574 4.67463C7.9529 5.26365 8.49021 5.95574 8.93184 6.7362C9.03488 6.92027 9.03488 7.07489 8.80671 7.11171C8.5859 7.14852 8.37244 7.55347 8.12954 7.15588C7.99706 6.94236 7.90873 6.69938 7.7836 6.4785C7.66584 6.27234 7.50391 6.11773 7.23893 6.16927C7.09172 6.19872 6.95924 6.27235 6.95924 6.44169C6.95924 6.58895 7.077 6.61103 7.21685 6.64048C7.6364 6.72147 7.60696 7.16323 7.77625 7.44302C7.92346 7.68599 7.61431 7.70809 7.49655 7.82589C7.40086 7.92161 7.26102 7.98786 7.17269 8.09094C7.0402 8.24556 7.0402 8.42963 7.16533 8.59898C7.29046 8.76096 7.45975 8.80514 7.65112 8.72415C7.72473 8.6947 7.79833 8.64315 7.87193 8.59898C9.4029 7.51665 11.1179 7.19269 12.958 7.35467C14.1725 7.45775 15.2471 7.90687 16.2408 8.56952C16.5057 8.74622 16.7707 8.90821 17.0062 8.56952C17.2344 8.24556 16.9694 8.06885 16.7486 7.87742C16.6088 7.75225 16.2555 7.70808 16.3953 7.45039C16.5573 7.15588 16.5057 6.66258 17.0283 6.63313C17.124 6.63313 17.1903 6.57422 17.205 6.48587C17.2271 6.37542 17.1829 6.29444 17.0872 6.23554C16.7928 6.05883 16.5646 6.19136 16.41 6.44169C16.2702 6.66994 16.1745 6.92026 16.042 7.14851C15.8065 7.55346 15.593 7.14852 15.3722 7.11171C15.1514 7.07489 15.144 6.9129 15.2471 6.72883C15.6814 5.94837 16.226 5.25628 16.9032 4.66726C17.0651 4.52737 17.1829 4.49792 17.2859 4.71881C18.4563 7.33259 19.2144 10.02 18.7728 12.9283C18.7139 13.2964 18.5961 13.4363 18.1986 13.3774C17.9631 13.3406 17.5509 13.1786 17.5141 13.5247C17.4773 13.9075 17.9116 13.775 18.1398 13.7824C18.5151 13.7971 18.5151 13.937 18.3974 14.2241C18.1545 14.7984 18.1618 14.8058 17.5877 14.6144C17.1608 14.4671 16.7192 14.3787 16.2776 14.2977C16.1304 14.2683 15.9758 14.2609 15.939 14.445C15.9022 14.6364 16.0568 14.688 16.1966 14.7101C16.6161 14.7763 17.021 14.8794 17.4258 15.0046C17.9042 15.1518 17.9116 15.1813 17.573 15.5641C16.6235 16.6538 15.3796 17.1987 13.9958 17.4711C13.3555 17.5963 12.7151 17.6404 12.2293 17.6184V17.6257Z" fill="#7D7D7D"/>
<path d="M6.67972 12.4576C6.67972 12.4576 7.38633 10.131 8.54928 10.3151C9.71223 10.4991 10.3894 10.4697 10.3894 11.5152C10.3894 12.5607 10.3599 13.2234 10.1539 13.4221C9.94776 13.6209 7.87212 13.6872 7.48202 13.4884C7.09191 13.2896 6.56932 13.1129 6.67237 12.4576H6.67972Z" fill="white"/>
<path d="M17.4406 12.4576C17.4406 12.4576 16.734 10.131 15.5711 10.3151C14.4081 10.4991 13.731 10.4697 13.731 11.5152C13.731 12.5607 13.7604 13.2234 13.9665 13.4221C14.1726 13.6209 16.2482 13.6872 16.6383 13.4884C17.0284 13.2896 17.551 13.1129 17.448 12.4576H17.4406Z" fill="white"/>
<path d="M7.93068 12.3985C7.92332 12.0009 7.99692 11.7432 8.15885 11.5223C8.49743 11.0363 9.12307 11.0216 9.46901 11.5076C9.73398 11.8904 9.78551 12.3101 9.63094 12.7519C9.49845 13.1274 9.26292 13.4072 8.85073 13.4219C8.41647 13.4366 8.15885 13.1568 8.019 12.7666C7.96012 12.612 7.9454 12.4426 7.93804 12.3985H7.93068Z" fill="#514F4F"/>
<path d="M16.2332 12.2736C16.2111 12.4135 16.1964 12.524 16.1743 12.6344C16.0565 13.1204 15.7106 13.437 15.3131 13.4296C14.9083 13.4222 14.555 13.0615 14.4667 12.5682C14.4225 12.3252 14.4225 12.0896 14.4961 11.8613C14.6212 11.4785 14.8568 11.184 15.291 11.1545C15.6517 11.1251 15.9829 11.3975 16.1228 11.8098C16.1743 11.9644 16.1964 12.1338 16.2258 12.2736H16.2332Z" fill="#514F4F"/>
<path d="M10.6688 12.2733C10.6541 12.6414 10.5437 13.0759 10.2861 13.4587C10.2125 13.5692 10.1168 13.7238 9.94748 13.6281C9.75611 13.525 9.84444 13.3704 9.9254 13.2305C10.3229 12.5457 10.3523 11.8389 9.94012 11.1542C9.4985 10.4179 8.57844 10.2633 7.90128 10.8008C7.47438 11.1394 7.18732 11.5812 6.95915 12.0745C6.77513 12.4795 6.86346 12.7813 7.21676 13.017C7.33453 13.0979 7.45965 13.1642 7.57742 13.2378C7.70991 13.3188 7.88656 13.3998 7.76143 13.5912C7.65102 13.768 7.4891 13.6796 7.34925 13.5912C7.15052 13.4661 6.93706 13.3483 6.76041 13.1863C6.42919 12.8844 6.31143 12.531 6.48808 12.0892C6.67209 11.6401 6.8929 11.2278 7.2094 10.867C7.84976 10.1308 8.61524 9.88778 9.38809 10.1676C10.1389 10.44 10.6614 11.272 10.6541 12.266L10.6688 12.2733Z" fill="#757576"/>
<path d="M13.4878 12.2806C13.5172 10.7639 14.5624 9.84353 15.7916 10.116C16.3436 10.2411 16.7264 10.6093 17.0576 11.0363C17.2195 11.2498 17.3594 11.4781 17.4772 11.7137C17.9261 12.634 17.698 13.2157 16.7485 13.6206C16.6086 13.6795 16.4688 13.7458 16.3878 13.5765C16.2995 13.4071 16.432 13.3188 16.5571 13.2451C17.4772 12.7297 17.4845 12.5236 16.903 11.5443C16.8 11.375 16.6749 11.2204 16.5497 11.0805C16.1081 10.6019 15.5929 10.3295 14.9304 10.5724C14.268 10.8154 13.9957 11.3455 13.9221 12.0008C13.8779 12.4279 13.9736 12.8402 14.2091 13.2083C14.2901 13.3409 14.4079 13.4881 14.2312 13.6133C14.0251 13.7532 13.9294 13.547 13.8411 13.4145C13.5908 13.0243 13.4878 12.5898 13.4952 12.2732L13.4878 12.2806Z" fill="#757576"/>
<path d="M12.7958 15.2771C12.3468 15.0857 11.8022 15.2108 11.2501 15.2697C10.8011 15.3139 10.389 15.174 10.0725 14.8279C9.96941 14.7175 9.84429 14.5776 9.98414 14.423C10.1387 14.261 10.2565 14.4009 10.3669 14.5187C10.7791 14.931 11.2722 14.931 11.7727 14.7543C11.9862 14.6807 12.1555 14.6807 12.3689 14.7543C12.8842 14.9384 13.392 14.931 13.8042 14.4893C13.9073 14.3788 14.025 14.2978 14.1649 14.4304C14.3047 14.5703 14.1869 14.6954 14.0986 14.7985C13.7821 15.1667 13.3626 15.2918 12.7885 15.2845L12.7958 15.2771Z" fill="#757576"/>
<path d="M11.7285 13.4958C11.9567 13.5621 12.1996 13.54 12.4498 13.4958C12.6706 13.459 12.8547 13.54 12.8841 13.7756C12.9062 13.9965 12.7443 14.0996 12.5529 14.129C12.2364 14.1805 11.9125 14.1879 11.596 14.129C11.3973 14.0922 11.2427 13.9965 11.2722 13.7682C11.3016 13.5179 11.493 13.4811 11.7285 13.4958Z" fill="#757576"/>
</svg>
