<svg width="24" height="24" viewBox="0 0 24 24" fill="none" xmlns="http://www.w3.org/2000/svg">
<path d="M19.0828 8.87312C20.0397 9.46951 21.107 9.62412 21.7841 10.3383C22.7336 11.3396 23.8745 12.2894 23.6684 13.924C23.6316 14.2258 23.6684 14.5424 23.661 14.8517C23.661 15.0358 23.6905 15.2566 23.6022 15.3965C22.9986 16.4199 22.3803 17.355 21.1953 17.8999C19.9146 18.4889 18.6339 18.4006 17.3237 18.4153C16.6613 18.4153 16.6024 18.4153 16.6539 19.0485C16.7275 19.9614 16.4257 20.7345 15.9694 21.4855C15.4983 22.2513 14.8506 22.7519 13.9894 23.0464C12.981 23.3925 11.9727 23.5177 10.9201 23.4072C9.77925 23.2894 8.79294 22.8697 8.08634 21.9494C7.39446 21.0511 6.70258 20.1381 6.85715 18.8865C6.91603 18.4226 6.62161 18.1723 6.17998 18.2312C5.23048 18.3637 4.36931 17.9956 3.47134 17.8336C3.2358 17.7894 2.97819 17.7011 2.80154 17.5465C1.91092 16.7587 0.865743 16.0371 0.630209 14.7854C0.306349 13.0405 0.166498 11.2881 1.58706 9.85975C1.8226 9.61678 2.07285 9.38851 2.31575 9.14554C2.6028 8.85103 2.92667 8.67431 3.36093 8.63014C4.00865 8.57124 4.13378 8.31354 3.72896 7.80551C3.09596 7.0177 3.01499 6.13418 3.07388 5.19911C3.08124 5.07394 3.07388 4.94141 3.11804 4.83097C3.54494 3.70447 4.11906 2.65157 5.09064 1.90793C6.85714 0.560547 9.86021 0.604734 11.3912 2.37916C11.8843 2.95346 12.1125 2.924 12.5173 2.28344C13.3932 0.884516 15.7927 0.118811 17.4267 0.788823C18.2143 1.10542 18.9356 1.45144 19.5613 2.00365C20.5917 2.91663 21.1511 4.1757 21.0628 5.44209C20.9671 6.73794 20.6506 8.16631 19.1049 8.88786L19.0828 8.87312ZM12.1935 15.345C13.2607 15.3597 14.1293 14.9032 14.9168 14.2259C15.4026 13.8062 15.5793 13.2171 15.8663 12.6797C16.595 11.3323 16.0356 9.60942 15.1892 8.57127C13.9305 7.03981 11.1483 7.08398 9.67619 8.424C8.54268 9.45479 8.1305 11.2071 8.66781 12.7754C9.21249 14.3657 10.5521 15.3376 12.1935 15.345Z" fill="#EC7FB1"/>
<path d="M19.6721 11.502C19.6868 11.9511 19.6427 12.5917 19.5028 13.2248C19.4439 13.4973 19.5249 13.5857 19.8046 13.6298C20.9307 13.8065 22.0348 14.0863 23.0947 14.5207C23.264 14.5943 23.5437 14.6238 23.4333 14.8962C23.3303 15.1613 23.1242 14.9699 22.9696 14.9109C21.895 14.4839 20.7762 14.2188 19.6353 14.0053C19.4145 13.9611 19.2967 14.0127 19.2231 14.2336C19.1201 14.5502 18.8551 14.8815 18.9066 15.1613C18.9581 15.4337 19.4071 15.5073 19.6795 15.6914C20.3566 16.1479 20.9823 16.6706 21.5417 17.2744C21.6521 17.3922 21.8876 17.5247 21.6889 17.7235C21.4975 17.9076 21.3577 17.6941 21.2399 17.5689C20.5774 16.8694 19.834 16.2804 19.0097 15.7797C18.7153 15.603 18.546 15.603 18.3252 15.9049C17.3315 17.2302 15.9551 17.9665 14.3652 18.2831C12.2086 18.7101 10.0814 18.6586 8.02788 17.7603C7.07103 17.3407 6.25402 16.7295 5.63574 15.8755C5.43701 15.5957 5.28244 15.603 5.01747 15.7576C4.31822 16.1847 3.66314 16.6706 3.07431 17.2376C2.98598 17.3259 2.90502 17.4216 2.80197 17.5026C2.65476 17.6204 2.52963 17.9297 2.30146 17.7088C2.11009 17.5174 2.3677 17.3627 2.48547 17.2302C2.93446 16.7443 3.43497 16.3099 3.97964 15.927C4.2667 15.7209 4.56111 15.5294 4.87025 15.3674C5.12051 15.2423 5.17203 15.1024 5.01747 14.8741C4.98802 14.83 4.96594 14.771 4.94386 14.7195C4.70832 14.2041 4.30595 14.0053 3.73674 14.1231C2.77989 14.3146 1.84511 14.5722 0.947139 14.9404C0.79257 15.0066 0.608553 15.1244 0.527589 14.8815C0.446624 14.6606 0.667442 14.6091 0.814651 14.5428C1.89664 14.0863 3.03014 13.8139 4.18573 13.6151C4.3771 13.5856 4.55375 13.5857 4.50223 13.2985C4.03852 11.0087 4.45071 8.79985 5.13523 6.62047C5.42229 5.70749 5.73879 4.79452 6.24666 3.96252C6.63676 3.32933 6.67356 3.30721 7.28448 3.74898C8.26342 4.4558 9.01418 5.35405 9.57358 6.41429C9.70607 6.66463 9.83119 6.73829 10.1256 6.67939C11.3548 6.45114 12.5914 6.4585 13.8206 6.67202C14.1297 6.72355 14.2622 6.67202 14.4094 6.3996C14.9909 5.30255 15.7637 4.36746 16.8015 3.668C17.3094 3.32931 17.3389 3.32932 17.6553 3.8668C18.2442 4.85342 18.6269 5.92098 18.9582 7.01067C19.3777 8.40224 19.65 9.81589 19.6574 11.4799L19.6721 11.502Z" fill="#CFBFAF"/>
<path d="M12.1497 17.6717C10.3906 17.6937 8.87432 17.4066 7.52 16.5157C7.0931 16.2359 6.73244 15.8899 6.40122 15.4996C6.22457 15.2861 6.23929 15.1683 6.51899 15.0947C6.93853 14.9769 7.35071 14.8444 7.78498 14.7781C7.93955 14.756 8.17508 14.7412 8.13828 14.513C8.09412 14.2406 7.85859 14.3363 7.69666 14.3658C7.19615 14.4615 6.70299 14.5719 6.23192 14.756C6.08472 14.8149 5.95223 14.837 5.87126 14.6676C5.76086 14.432 5.59157 14.2038 5.62101 13.924C5.62101 13.8945 5.73878 13.8651 5.80502 13.8577C5.95959 13.843 6.11416 13.843 6.26873 13.8283C6.4233 13.8135 6.59995 13.7988 6.57787 13.578C6.55578 13.3865 6.39386 13.3939 6.25401 13.3939C6.22457 13.3939 6.19513 13.3939 6.17304 13.3939C5.63328 13.4037 5.32904 13.1386 5.26035 12.5987C4.98065 10.4267 5.45908 8.35777 6.15832 6.31828C6.33497 5.80289 6.57787 5.30954 6.79132 4.80151C6.88701 4.5659 7.00477 4.55119 7.19615 4.72053C7.87331 5.30955 8.41062 6.00164 8.85225 6.7821C8.95529 6.96617 8.95529 7.12079 8.72712 7.1576C8.50631 7.19442 8.29285 7.59937 8.04996 7.20178C7.91747 6.98826 7.82914 6.7453 7.70401 6.52442C7.58625 6.31826 7.42432 6.16365 7.15934 6.21519C7.01213 6.24464 6.87965 6.31827 6.87965 6.48761C6.87965 6.63487 6.99741 6.65697 7.13726 6.68642C7.55681 6.76741 7.52737 7.20915 7.69666 7.48894C7.84387 7.73191 7.53472 7.75401 7.41696 7.87182C7.32127 7.96753 7.18143 8.03379 7.0931 8.13686C6.96061 8.29148 6.96061 8.47555 7.08574 8.6449C7.21087 8.80688 7.38016 8.85104 7.57153 8.77005C7.64514 8.7406 7.71874 8.68907 7.79234 8.6449C9.32331 7.56257 11.0383 7.23861 12.8784 7.40059C14.0929 7.50367 15.1675 7.95281 16.1612 8.61546C16.4261 8.79217 16.6911 8.95415 16.9267 8.61546C17.1548 8.2915 16.8899 8.11479 16.669 7.92336C16.5292 7.79819 16.1759 7.754 16.3157 7.49631C16.4777 7.2018 16.4261 6.7085 16.9487 6.67905C17.0444 6.67905 17.1107 6.62014 17.1254 6.53179C17.1475 6.42135 17.1033 6.34034 17.0076 6.28143C16.7132 6.10473 16.485 6.23728 16.3305 6.48761C16.1906 6.71586 16.0949 6.96616 15.9624 7.19441C15.7269 7.59936 15.5134 7.19442 15.2926 7.1576C15.0718 7.12079 15.0645 6.95884 15.1675 6.77477C15.6018 5.99432 16.1464 5.30218 16.8236 4.71316C16.9855 4.57327 17.1033 4.54382 17.2064 4.76471C18.3767 7.37849 19.1348 10.0659 18.6932 12.9742C18.6343 13.3423 18.5165 13.4822 18.1191 13.4233C17.8835 13.3865 17.4713 13.2245 17.4345 13.5706C17.3977 13.9535 17.832 13.8209 18.0602 13.8283C18.4355 13.843 18.4355 13.9829 18.3178 14.2701C18.0749 14.8444 18.0822 14.8517 17.5081 14.6603C17.0812 14.513 16.6396 14.4247 16.198 14.3437C16.0508 14.3142 15.8962 14.3069 15.8594 14.4909C15.8226 14.6824 15.9772 14.7339 16.117 14.756C16.5366 14.8222 16.9414 14.9253 17.3462 15.0505C17.8246 15.1978 17.832 15.2272 17.4934 15.6101C16.5439 16.6998 15.3 17.2446 13.9162 17.517C13.2759 17.6422 12.6355 17.6864 12.1497 17.6643V17.6717Z" fill="#E0D3C3"/>
<path d="M6.60013 12.5035C6.60013 12.5035 7.30674 10.1769 8.46969 10.361C9.63264 10.545 10.3098 10.5156 10.3098 11.5611C10.3098 12.6066 10.2804 13.2692 10.0743 13.468C9.86817 13.6668 7.79253 13.7331 7.40243 13.5343C7.01232 13.3355 6.48973 13.1588 6.59278 12.5035H6.60013Z" fill="white"/>
<path d="M17.361 12.5035C17.361 12.5035 16.6544 10.1769 15.4915 10.361C14.3285 10.545 13.6514 10.5156 13.6514 11.5611C13.6514 12.6066 13.6808 13.2692 13.8869 13.468C14.093 13.6668 16.1686 13.7331 16.5587 13.5343C16.9488 13.3355 17.4714 13.1588 17.3684 12.5035H17.361Z" fill="white"/>
<path d="M7.85841 12.4522C7.85105 12.0546 7.92465 11.7969 8.08658 11.576C8.42516 11.09 9.0508 11.0754 9.39674 11.5613C9.66172 11.9442 9.71324 12.3638 9.55867 12.8056C9.42618 13.1811 9.19065 13.4609 8.77847 13.4756C8.3442 13.4903 8.08658 13.2105 7.94673 12.8203C7.88785 12.6657 7.87313 12.4963 7.86577 12.4522H7.85841Z" fill="#514F4F"/>
<path d="M16.1609 12.3196C16.1388 12.4595 16.1241 12.5699 16.102 12.6803C15.9843 13.1663 15.6383 13.4829 15.2409 13.4755C14.836 13.4682 14.4827 13.1074 14.3944 12.6141C14.3502 12.3711 14.3502 12.1355 14.4238 11.9073C14.549 11.5244 14.7845 11.2299 15.2188 11.2004C15.5794 11.171 15.9106 11.4434 16.0505 11.8557C16.102 12.0103 16.1241 12.1797 16.1536 12.3196H16.1609Z" fill="#514F4F"/>
<path d="M10.5965 12.3192C10.5818 12.6873 10.4714 13.1217 10.2138 13.5046C10.1402 13.615 10.0445 13.7697 9.87522 13.674C9.68385 13.5709 9.77218 13.4162 9.85314 13.2764C10.2506 12.5916 10.28 11.8848 9.86786 11.2C9.42623 10.4638 8.50618 10.3092 7.82902 10.8467C7.40211 11.1853 7.11506 11.6271 6.88688 12.1204C6.70287 12.5253 6.7912 12.8272 7.1445 13.0628C7.26227 13.1438 7.38739 13.2101 7.50516 13.2837C7.63765 13.3647 7.8143 13.4457 7.68917 13.6371C7.57876 13.8138 7.41684 13.7255 7.27699 13.6371C7.07825 13.512 6.8648 13.3942 6.68815 13.2322C6.35693 12.9303 6.23916 12.5769 6.41581 12.1351C6.59982 11.686 6.82064 11.2737 7.13714 10.9129C7.7775 10.1767 8.54298 9.93368 9.31583 10.2135C10.0666 10.4859 10.5892 11.3179 10.5818 12.3118L10.5965 12.3192Z" fill="#B6A69F"/>
<path d="M13.4082 12.3265C13.4376 10.8098 14.4828 9.88943 15.712 10.1619C16.2641 10.287 16.6468 10.6552 16.978 11.0822C17.14 11.2957 17.2798 11.5239 17.3976 11.7596C17.8466 12.6799 17.6184 13.2616 16.6689 13.6665C16.529 13.7254 16.3892 13.7917 16.3082 13.6224C16.2199 13.453 16.3524 13.3647 16.4775 13.291C17.3976 12.7756 17.4049 12.5695 16.8234 11.5902C16.7204 11.4209 16.5953 11.2663 16.4702 11.1264C16.0285 10.6478 15.5133 10.3754 14.8509 10.6183C14.1884 10.8613 13.9161 11.3914 13.8425 12.0467C13.7983 12.4738 13.894 12.8861 14.1295 13.2542C14.2105 13.3868 14.3283 13.534 14.1516 13.6592C13.9455 13.7991 13.8498 13.5929 13.7615 13.4604C13.5113 13.0701 13.4082 12.6357 13.4156 12.3191L13.4082 12.3265Z" fill="#B6A69F"/>
<path d="M12.7162 15.323C12.2672 15.1316 11.7226 15.2567 11.1705 15.3156C10.7216 15.3598 10.3094 15.2199 9.99287 14.8739C9.88982 14.7634 9.7647 14.6235 9.90455 14.4689C10.0591 14.3069 10.1769 14.4468 10.2873 14.5646C10.6995 14.9769 11.1926 14.9769 11.6931 14.8002C11.9066 14.7266 12.0759 14.7266 12.2893 14.8002C12.8046 14.9843 13.3124 14.977 13.7246 14.5352C13.8277 14.4247 13.9454 14.3437 14.0853 14.4763C14.2251 14.6162 14.1074 14.7413 14.019 14.8444C13.7025 15.2125 13.283 15.3377 12.7089 15.3304L12.7162 15.323Z" fill="#B6A69F"/>
<path d="M11.6489 13.5417C11.8771 13.608 12.12 13.5859 12.3702 13.5417C12.5911 13.5049 12.7751 13.5858 12.8045 13.8214C12.8266 14.0423 12.6647 14.1454 12.4733 14.1749C12.1568 14.2264 11.8329 14.2338 11.5164 14.1749C11.3177 14.1381 11.1631 14.0424 11.1926 13.8141C11.222 13.5638 11.4134 13.527 11.6489 13.5417Z" fill="#B6A69F"/>
</svg>
