<svg width="24" height="24" viewBox="0 0 24 24" fill="none" xmlns="http://www.w3.org/2000/svg">
<path d="M19.2147 8.84383C20.1715 9.44021 21.2388 9.59482 21.916 10.309C22.8655 11.3103 24.0063 12.2601 23.8002 13.8947C23.7634 14.1965 23.8002 14.5131 23.7929 14.8224C23.7929 15.0065 23.8223 15.2273 23.734 15.3672C23.1304 16.3906 22.5122 17.3257 21.3271 17.8706C20.0464 18.4596 18.7657 18.3713 17.4555 18.386C16.7931 18.386 16.7342 18.386 16.7857 19.0192C16.8593 19.9322 16.5576 20.7052 16.1012 21.4562C15.6301 22.222 14.9824 22.7226 14.1213 23.0171C13.1129 23.3632 12.1045 23.4884 11.0519 23.3779C9.91108 23.2601 8.92478 22.8404 8.21817 21.9201C7.52629 21.0218 6.83441 20.1089 6.98898 18.8572C7.04786 18.3934 6.75344 18.143 6.31182 18.2019C5.36232 18.3344 4.50115 17.9663 3.60318 17.8043C3.36764 17.7601 3.11002 17.6718 2.93337 17.5172C2.04276 16.7294 0.997579 16.0078 0.762045 14.7561C0.438185 13.0112 0.298334 11.2588 1.7189 9.83045C1.95443 9.58748 2.20469 9.35921 2.44758 9.11624C2.73464 8.82173 3.0585 8.64502 3.49277 8.60084C4.14049 8.54194 4.26562 8.28425 3.86079 7.77622C3.22779 6.9884 3.14683 6.10488 3.20571 5.16981C3.21307 5.04465 3.20571 4.91212 3.24987 4.80168C3.67678 3.67517 4.25089 2.62232 5.22247 1.87868C6.98898 0.531295 9.99204 0.575437 11.523 2.34986C12.0162 2.92416 12.2443 2.8947 12.6492 2.25414C13.5251 0.855219 15.9246 0.0895146 17.5586 0.759526C18.3461 1.07612 19.0675 1.42215 19.6931 1.97435C20.7236 2.88734 21.283 4.1464 21.1946 5.4128C21.099 6.70864 20.7825 8.13701 19.2368 8.85857L19.2147 8.84383ZM12.3179 15.323C13.3852 15.3378 14.2537 14.8813 15.0413 14.2039C15.5271 13.7843 15.7038 13.1952 15.9908 12.6577C16.7195 11.3103 16.1601 9.58749 15.3136 8.54934C14.055 7.01789 11.2728 7.06205 9.80067 8.40208C8.66716 9.43286 8.25498 11.1852 8.79229 12.7535C9.33696 14.3438 10.6766 15.3157 12.3179 15.323Z" fill="#C29AC7"/>
<path d="M4.50098 11.2441C4.59666 8.70395 5.23702 6.25214 6.45886 3.96232C6.81216 3.30704 6.85632 3.30703 7.45252 3.72671C8.43882 4.41881 9.18958 5.31709 9.74898 6.37733C9.90355 6.6792 10.0655 6.72335 10.3746 6.67181C11.5891 6.45829 12.8109 6.45829 14.0254 6.67181C14.3345 6.72335 14.4744 6.65712 14.6142 6.3847C15.2104 5.25084 16.0274 4.30104 17.1094 3.57949C17.4259 3.37333 17.5952 3.42484 17.7792 3.72671C18.3681 4.67651 18.7582 5.71467 19.0894 6.7749C19.6635 8.63768 20.0315 10.5373 19.796 12.5032C19.428 15.5661 17.7351 17.4951 14.7246 18.224C12.833 18.6805 10.9266 18.6437 9.05709 18.0547C6.40733 17.2153 4.80276 15.1905 4.56722 12.4295C4.53778 12.054 4.53042 11.6711 4.50834 11.2367L4.50098 11.2441Z" fill="#C6BDB6"/>
<path d="M5.39154 11.2952C5.39154 9.02745 5.98773 6.89223 6.92251 4.83802C7.055 4.54351 7.17277 4.53615 7.40094 4.74967C8.21059 5.49331 8.87303 6.33267 9.26313 7.37082C9.38826 7.70214 9.49867 7.78316 9.86669 7.67271C11.3977 7.23095 12.9507 7.23831 14.4817 7.67271C14.8129 7.76843 14.9454 7.73895 15.0632 7.40762C15.4533 6.34738 16.1304 5.47125 16.9769 4.72761C17.1388 4.58772 17.2492 4.49937 17.3817 4.77915C18.4784 7.18678 19.1997 9.68274 18.9348 12.3554C18.6624 15.087 17.2198 16.7362 14.5479 17.3989C12.7961 17.8333 11.0296 17.8039 9.29994 17.2664C6.95931 16.5301 5.59027 14.7999 5.38418 12.3554C5.35474 12.0094 5.38418 11.656 5.38418 11.3026L5.39154 11.2952Z" fill="#DDD5CE"/>
<path d="M8.65226 14.2919C8.28424 14.2772 8.00454 14.2624 7.7322 14.1888C6.26748 13.8133 5.69336 12.6132 6.33372 11.2437C6.48093 10.9197 6.67966 10.6326 6.93728 10.3896C7.87206 9.48403 9.09389 9.55765 9.9109 10.5737C10.2642 11.0155 10.5218 11.5088 10.6396 12.0683C10.8825 13.2464 10.4188 13.9679 9.2411 14.2256C9.02028 14.2698 8.79947 14.2772 8.65962 14.2919H8.65226Z" fill="#918D8D"/>
<path d="M15.7627 14.292C15.586 14.2773 15.4094 14.27 15.2254 14.2405C13.9594 14.027 13.4073 13.1508 13.7606 11.9138C13.9373 11.2954 14.2317 10.7432 14.6954 10.2941C15.3505 9.66087 16.2558 9.56516 17.014 10.0658C17.8236 10.5959 18.2431 11.3617 18.2726 12.3188C18.2947 13.3349 17.5586 14.0638 16.3589 14.2405C16.1675 14.27 15.9688 14.2773 15.7627 14.292Z" fill="#918D8D"/>
<path d="M12.9361 15.4263C12.465 15.2422 11.9203 15.3527 11.361 15.4042C10.8604 15.4558 10.3894 15.279 10.0508 14.8593C9.91831 14.6974 9.8447 14.506 10.0508 14.344C10.2348 14.1967 10.3894 14.2851 10.5219 14.4397C10.9267 14.8888 11.4198 14.8373 11.9204 14.6606C12.0823 14.6017 12.2221 14.5648 12.3988 14.6385C12.9361 14.852 13.466 14.8962 13.893 14.3882C14.0034 14.2556 14.1579 14.2188 14.3051 14.3366C14.4744 14.4765 14.4671 14.6606 14.3419 14.8225C14.0107 15.2717 13.5323 15.4042 12.9287 15.4337L12.9361 15.4263Z" fill="#918D8D"/>
<path d="M12.2 13.5627C12.3693 13.5553 12.5239 13.5332 12.6784 13.5332C12.8551 13.5332 12.9728 13.6216 12.9876 13.8056C13.0023 13.9676 12.9213 14.0854 12.7741 14.1222C12.3914 14.2179 11.9939 14.2253 11.6111 14.1222C11.4492 14.078 11.3462 13.9529 11.3756 13.7762C11.4051 13.6216 11.5081 13.5332 11.67 13.5332C11.854 13.5332 12.0307 13.548 12.2 13.5553V13.5627Z" fill="#918D8D"/>
<path d="M14.5776 11.5534C14.688 11.5608 14.7543 11.4945 14.8279 11.4283C15.3357 11.0012 15.9246 11.1338 16.1895 11.7375C16.4398 12.3118 16.3294 12.8272 15.9246 13.2911C15.5713 13.5856 15.1885 13.6003 14.8279 13.3279C14.4966 13.0702 14.3126 12.7315 14.401 12.2823C14.4378 12.0762 14.4598 11.87 14.5776 11.6933C14.5776 11.6418 14.5776 11.5976 14.5776 11.5461V11.5534Z" fill="#918D8D"/>
<path d="M9.57964 11.5533C9.7931 11.9141 9.7931 12.319 9.77102 12.7166C9.40299 13.4455 9.11594 13.5707 8.42405 13.2909C8.11492 12.9154 7.95299 12.5031 8.07076 12.0098C8.27685 11.1483 8.92456 10.9495 9.57964 11.5459V11.5533Z" fill="#918D8D"/>
<path d="M7.29813 13.3202C6.95219 13.173 6.79763 12.8858 6.73138 12.5398C6.56945 11.6857 7.29077 10.6033 8.13723 10.4045C8.62301 10.2941 8.97631 10.5297 9.28545 10.8537C9.43266 11.0083 9.54307 11.2071 9.6682 11.3912C9.75652 11.4722 9.705 11.5384 9.64612 11.6047C9.50627 11.7004 9.3885 11.6194 9.25601 11.5531C8.81438 11.347 8.45373 11.5016 8.29916 11.9654C8.12987 12.4661 8.29916 12.8637 8.67454 13.2024C8.77759 13.4674 8.69908 13.6025 8.43901 13.6074C8.02682 13.6074 7.65144 13.5043 7.28342 13.3202H7.29813Z" fill="#FBFBFB"/>
<path d="M7.29785 13.3201C7.7174 13.3864 8.11486 13.6072 8.60065 13.5483C8.5344 13.4526 8.47552 13.379 8.424 13.298C8.49024 13.1802 8.60065 13.1876 8.71842 13.1802C9.27045 13.1802 9.38822 13.0845 9.55751 12.5544C9.60903 12.3041 9.57223 12.0022 9.94761 11.958C9.99177 12.1347 10.0507 12.304 10.0727 12.4807C10.1316 12.9667 9.98442 13.2759 9.54279 13.4674C8.7773 13.7913 8.02654 13.784 7.30521 13.3201H7.29785Z" fill="#D4D4D4"/>
<path d="M9.94762 11.9585C9.78569 12.1868 9.94026 12.4886 9.77097 12.7169C9.47655 12.3635 9.46183 11.9659 9.57959 11.5536C9.60904 11.502 9.63848 11.4431 9.67528 11.3916C9.84457 11.5462 9.94025 11.7303 9.94025 11.9585H9.94762Z" fill="#AFAFAF"/>
<path d="M14.5772 11.5529C14.8422 10.824 15.5488 10.3013 16.1376 10.3896C16.8516 10.4927 17.5582 11.31 17.6244 12.1272C17.6686 12.6353 17.5656 13.077 17.0503 13.3274C16.6749 13.482 16.2996 13.6219 15.8874 13.6071C15.4973 13.5998 15.4973 13.5998 15.6592 13.1948C16.0935 12.7531 16.1965 12.2966 15.961 11.8401C15.7696 11.4572 15.4458 11.3394 15.0556 11.5161C14.8937 11.5897 14.7465 11.7296 14.5625 11.5603L14.5772 11.5529Z" fill="#FBFBFB"/>
<path d="M14.585 11.7002C14.5629 12.0904 14.4083 12.4659 14.6512 12.8635C15.0045 13.4378 15.2916 13.563 15.9246 13.2979C15.8657 13.3715 15.8142 13.4452 15.7406 13.5409C16.2116 13.6219 16.6165 13.3789 17.0507 13.3274C16.2852 13.7912 15.4977 13.806 14.7101 13.4157C14.3936 13.2611 14.239 12.9666 14.2758 12.6205C14.3126 12.2966 14.2243 11.9284 14.5776 11.7076L14.585 11.7002Z" fill="#D3D3D3"/>
</svg>
