<svg width="24" height="23" viewBox="0 0 24 23" fill="none" xmlns="http://www.w3.org/2000/svg">
<path d="M19.0828 8.33019C20.0397 8.92657 21.107 9.08119 21.7841 9.79537C22.7336 10.7967 23.8745 11.7465 23.6684 13.381C23.6316 13.6829 23.6684 13.9995 23.661 14.3088C23.661 14.4928 23.6905 14.7137 23.6022 14.8536C22.9986 15.877 22.3803 16.8121 21.1953 17.3569C19.9146 17.946 18.6339 17.8576 17.3237 17.8723C16.6613 17.8723 16.6024 17.8723 16.6539 18.5055C16.7275 19.4185 16.4257 20.1916 15.9694 20.9426C15.4983 21.7083 14.8506 22.209 13.9894 22.5035C12.981 22.8496 11.9727 22.9747 10.9201 22.8643C9.77925 22.7465 8.79294 22.3268 8.08634 21.4065C7.39446 20.5082 6.70258 19.5952 6.85715 18.3435C6.91603 17.8797 6.62161 17.6293 6.17998 17.6882C5.23048 17.8208 4.36931 17.4526 3.47134 17.2907C3.2358 17.2465 2.97819 17.1581 2.80154 17.0035C1.91092 16.2157 0.865743 15.4941 0.630209 14.2425C0.306349 12.4975 0.166498 10.7452 1.58706 9.31678C1.8226 9.0738 2.07285 8.84558 2.31575 8.60261C2.6028 8.3081 2.92667 8.13138 3.36093 8.08721C4.00865 8.02831 4.13378 7.77061 3.72896 7.26258C3.09596 6.47477 3.01499 5.59125 3.07388 4.65618C3.08124 4.53101 3.07388 4.39848 3.11804 4.28804C3.54494 3.16154 4.11906 2.10864 5.09064 1.365C6.85714 0.0176158 9.86021 0.0618031 11.3912 1.83623C11.8843 2.41052 12.1125 2.38107 12.5173 1.74051C13.3932 0.341585 15.7927 -0.424164 17.4267 0.245847C18.2143 0.562446 18.9356 0.908514 19.5613 1.46072C20.5917 2.3737 21.1511 3.63272 21.0628 4.89912C20.9671 6.19496 20.6506 7.62334 19.1049 8.34489L19.0828 8.33019ZM12.1935 14.802C13.2607 14.8168 14.1293 14.3603 14.9168 13.6829C15.4026 13.2632 15.5793 12.6742 15.8663 12.1367C16.595 10.7893 16.0356 9.06644 15.1892 8.02829C13.9305 6.49684 11.1483 6.54105 9.67619 7.88107C8.54268 8.91186 8.1305 10.6642 8.66781 12.2324C9.21249 13.8228 10.5521 14.7947 12.1935 14.802Z" fill="#E5DFA7"/>
<path d="M19.7236 10.988C19.7162 12.7771 19.3629 14.4559 18.1411 15.8401C16.9708 17.1801 15.4324 17.8133 13.7101 18.0489C11.8111 18.3066 9.94155 18.2109 8.16032 17.4304C5.67249 16.3407 4.53898 14.3159 4.39177 11.7095C4.2372 8.8675 4.98061 6.2022 6.26868 3.68414C6.65143 2.9405 6.72503 2.9405 7.40956 3.44853C8.35169 4.14799 9.08038 5.03152 9.61769 6.06967C9.75018 6.32736 9.89002 6.38626 10.1771 6.33472C11.3916 6.11383 12.6134 6.11383 13.8279 6.32735C14.1591 6.38625 14.3137 6.32736 14.4829 6.01812C15.0791 4.89898 15.8888 3.9639 16.9561 3.24972C17.2578 3.04356 17.4345 3.08038 17.6259 3.38961C18.3693 4.60447 18.8182 5.92979 19.1789 7.28454C19.5028 8.49203 19.7089 9.72896 19.7089 10.988H19.7236Z" fill="#D3AC79"/>
<path d="M8.28552 13.5498C7.33603 13.5498 6.5043 12.9682 6.29821 12.1583C6.07739 11.2969 6.5411 10.2071 7.32867 9.77275C7.91014 9.44878 8.54314 9.50032 9.04365 9.95681C9.62513 10.4943 9.98579 11.1791 10.0888 11.9669C10.1845 12.6737 9.97107 13.0271 9.30863 13.329C8.98477 13.4762 8.64619 13.5498 8.28552 13.5498Z" fill="#FCFCFC"/>
<path d="M14.3208 10.9439C14.5195 10.6125 14.7035 10.2738 14.9906 10.0088C15.5794 9.45657 16.3449 9.42712 16.9779 9.92043C17.9937 10.723 18.1335 12.1808 17.2797 12.9686C16.6835 13.4325 16.0211 13.6165 15.2703 13.4325C15.1967 13.4104 15.0863 13.4472 15.0716 13.3368C15.0568 13.241 15.1452 13.1895 15.2114 13.1379C15.2629 13.0864 15.3292 13.0717 15.3954 13.0422C16.1683 12.6962 16.3817 12.1587 16.0726 11.3341C15.7487 10.7672 15.4175 10.6714 14.836 10.9733C14.7256 11.0322 14.6373 11.1279 14.4975 11.1132C14.4018 11.0985 14.3576 11.0249 14.3282 10.9439H14.3208Z" fill="#FCFCFC"/>
<path d="M14.321 10.9439C14.3726 10.9733 14.4314 11.0028 14.483 11.0249C14.667 11.1574 14.5713 11.3341 14.5418 11.4887C14.483 11.8937 14.5418 12.2766 14.77 12.6153C15.0718 13.0644 15.5502 13.0865 15.8888 12.6668C16.1464 12.3502 16.1906 11.982 16.1317 11.5918C16.1023 11.4151 16.0213 11.231 16.2421 11.1059C16.8825 11.9231 16.3525 13.1233 15.2337 13.3368C15.9992 13.5798 16.6396 13.2852 17.2726 12.9613C16.5292 13.7417 14.954 13.7491 14.2327 12.976C14.0708 12.8067 13.9824 12.6079 13.9751 12.3723C13.9604 11.8642 14.0561 11.3783 14.321 10.9365V10.9439Z" fill="#E8E8E8"/>
<path d="M12.0392 13.2407C12.1496 13.2407 12.26 13.2334 12.3704 13.2407C12.5176 13.2555 12.7237 13.1745 12.7973 13.3291C12.8783 13.5205 12.7016 13.6604 12.5839 13.7856C12.1422 14.2642 11.5092 14.1169 11.2884 13.4911C11.2295 13.3218 11.2884 13.2555 11.4504 13.2481C11.6417 13.2481 11.8405 13.2481 12.0392 13.2481C12.0392 13.2481 12.0392 13.2407 12.0392 13.2334V13.2407Z" fill="#4C3B30"/>
<path d="M12.768 15.1114C12.319 14.6623 11.767 14.9642 11.1929 15.0967C10.8248 15.1851 10.4715 14.8832 10.3979 14.5519C10.3832 14.4709 10.3317 14.3825 10.4421 14.3384C10.5304 14.3015 10.5599 14.3825 10.5967 14.4414C10.9941 14.9937 11.4431 15.0231 11.87 14.5004C11.9878 14.3531 12.0319 14.2721 12.1939 14.4782C12.6502 15.0378 13.033 15.0157 13.4893 14.4341C13.5335 14.3752 13.5703 14.3089 13.6512 14.3531C13.7248 14.3899 13.7101 14.4635 13.6954 14.5372C13.6365 14.8759 13.2759 15.1335 12.768 15.1188V15.1114Z" fill="#4C3B30"/>
<path d="M7.68945 11.7975C7.70417 11.7165 7.71889 11.5472 7.76306 11.3852C7.91027 10.8771 8.27829 10.5679 8.71255 10.5605C9.14682 10.5605 9.51484 10.8551 9.68413 11.3631C9.8019 11.7312 9.8019 12.1141 9.65469 12.4749C9.47804 12.9314 9.11738 13.2112 8.71992 13.2112C8.32981 13.2112 7.96915 12.9167 7.7925 12.4675C7.71889 12.2835 7.69681 12.0846 7.68945 11.8049V11.7975Z" fill="#4C3B30"/>
<path d="M16.2493 11.1134C16.3818 11.5772 16.4775 12.0411 16.264 12.5123C16.0947 12.8952 15.8298 13.175 15.3881 13.2044C15.0127 13.2339 14.6374 12.9615 14.4607 12.527C14.2546 12.0264 14.2841 11.5257 14.4828 11.025C15.1305 10.3697 15.6237 10.3992 16.2419 11.1134H16.2493Z" fill="#4C3B30"/>
</svg>
