<svg width="24" height="24" viewBox="0 0 24 24" fill="none" xmlns="http://www.w3.org/2000/svg">
<path d="M19.2147 8.50595C20.1715 9.10234 21.2388 9.25695 21.916 9.97114C22.8655 10.9725 24.0063 11.9223 23.8002 13.5568C23.7634 13.8587 23.8002 14.1753 23.7929 14.4845C23.7929 14.6686 23.8223 14.8895 23.734 15.0294C23.1304 16.0528 22.5122 16.9878 21.3271 17.5327C20.0464 18.1217 18.7657 18.0334 17.4555 18.0481C16.7931 18.0481 16.7342 18.0481 16.7857 18.6813C16.8593 19.5943 16.5576 20.3673 16.1012 21.1183C15.6301 21.8841 14.9824 22.3847 14.1213 22.6792C13.1129 23.0253 12.1045 23.1505 11.0519 23.0401C9.91108 22.9223 8.92478 22.5026 8.21817 21.5822C7.52629 20.6839 6.83441 19.771 6.98898 18.5193C7.04786 18.0555 6.75344 17.8051 6.31182 17.864C5.36232 17.9965 4.50115 17.6284 3.60318 17.4664C3.36764 17.4223 3.11002 17.3339 2.93337 17.1793C2.04276 16.3915 0.997579 15.6699 0.762045 14.4183C0.438185 12.6733 0.298334 10.9209 1.7189 9.49256C1.95443 9.24959 2.20469 9.02134 2.44758 8.77837C2.73464 8.48386 3.0585 8.30715 3.49277 8.26297C4.14049 8.20407 4.26562 7.94637 3.86079 7.43834C3.22779 6.65053 3.14683 5.76699 3.20571 4.83192C3.21307 4.70675 3.20571 4.57422 3.24987 4.46378C3.67678 3.33728 4.25089 2.2844 5.22247 1.54076C6.98898 0.193378 9.99204 0.237565 11.523 2.01199C12.0162 2.58629 12.2443 2.55683 12.6492 1.91627C13.5251 0.517347 15.9246 -0.24838 17.5586 0.421632C18.3461 0.738231 19.0675 1.08428 19.6931 1.63648C20.7236 2.54947 21.283 3.80851 21.1946 5.0749C21.099 6.37075 20.7825 7.79912 19.2368 8.52067L19.2147 8.50595ZM12.3179 14.9778C13.3852 14.9926 14.2537 14.536 15.0413 13.8587C15.5271 13.439 15.7038 12.85 15.9908 12.3125C16.7195 10.9651 16.1601 9.24223 15.3136 8.20408C14.055 6.67262 11.2728 6.71679 9.80067 8.05681C8.66716 9.0876 8.25498 10.84 8.79229 12.4082C9.33696 13.9986 10.6766 14.9705 12.3179 14.9778Z" fill="#E2B181"/>
<path d="M19.8032 11.0681C19.7958 12.8572 19.4425 14.5359 18.2207 15.9201C17.0504 17.2601 15.512 17.8933 13.7897 18.129C11.8907 18.3866 10.0211 18.291 8.23991 17.5105C5.75208 16.4208 4.61857 14.396 4.47136 11.7896C4.31679 8.9476 5.0602 6.28228 6.34827 3.76422C6.73102 3.02058 6.80462 3.02057 7.48915 3.5286C8.43128 4.22807 9.15997 5.1116 9.69728 6.14975C9.82977 6.40744 9.96961 6.46636 10.2567 6.41482C11.4711 6.19393 12.693 6.19393 13.9075 6.40745C14.2387 6.46635 14.3932 6.40744 14.5625 6.0982C15.1587 4.97906 15.9684 4.04401 17.0356 3.32982C17.3374 3.12366 17.5141 3.16048 17.7054 3.46971C18.4489 4.68457 18.8978 6.00985 19.2585 7.3646C19.5823 8.57209 19.7884 9.80903 19.7884 11.0681H19.8032Z" fill="#776354"/>
<path d="M8.37244 13.6377C7.42294 13.6377 6.59121 13.0561 6.38512 12.2462C6.16431 11.3847 6.62801 10.295 7.41558 9.86064C7.99705 9.53667 8.63005 9.58821 9.13056 10.0447C9.71204 10.5822 10.0727 11.2669 10.1757 12.0547C10.2714 12.7616 10.058 13.115 9.39554 13.4169C9.07168 13.5641 8.7331 13.6377 8.37244 13.6377Z" fill="#FCFCFC"/>
<path d="M14.4082 11.0239C14.6069 10.6926 14.7909 10.3539 15.078 10.0889C15.6668 9.53665 16.4323 9.5072 17.0653 10.0005C18.0811 10.803 18.2209 12.2609 17.3671 13.0487C16.7709 13.5126 16.1085 13.6966 15.3577 13.5126C15.2841 13.4905 15.1737 13.5273 15.159 13.4168C15.1443 13.3211 15.2326 13.2696 15.2988 13.218C15.3503 13.1665 15.4166 13.1518 15.4828 13.1223C16.2557 12.7763 16.4691 12.2388 16.16 11.4141C15.8361 10.8472 15.5049 10.7515 14.9234 11.0534C14.813 11.1123 14.7247 11.208 14.5849 11.1933C14.4892 11.1785 14.445 11.1049 14.4156 11.0239H14.4082Z" fill="#FCFCFC"/>
<path d="M14.4079 11.0239C14.4595 11.0534 14.5184 11.0829 14.5699 11.105C14.7539 11.2375 14.6582 11.4142 14.6288 11.5688C14.5699 11.9738 14.6288 12.3566 14.8569 12.6953C15.1587 13.1444 15.6371 13.1665 15.9757 12.7468C16.2333 12.4302 16.2775 12.0621 16.2186 11.6719C16.1892 11.4952 16.1082 11.3111 16.329 11.1859C16.9694 12.0032 16.4394 13.2033 15.3206 13.4169C16.0861 13.6598 16.7265 13.3653 17.3595 13.0414C16.6161 13.8218 15.0409 13.8291 14.3196 13.0561C14.1577 12.8867 14.0694 12.688 14.062 12.4523C14.0473 11.9443 14.143 11.4584 14.4079 11.0166V11.0239Z" fill="#E8E8E8"/>
<path d="M12.1261 13.3208C12.2365 13.3208 12.3469 13.3135 12.4573 13.3208C12.6045 13.3355 12.8106 13.2546 12.8842 13.4092C12.9652 13.6006 12.7885 13.7405 12.6708 13.8657C12.2292 14.3442 11.5962 14.197 11.3753 13.5711C11.3165 13.4018 11.3753 13.3356 11.5373 13.3282C11.7286 13.3282 11.9274 13.3282 12.1261 13.3282C12.1261 13.3282 12.1261 13.3208 12.1261 13.3135V13.3208Z" fill="#EDEDED"/>
<path d="M12.8549 15.1915C12.4059 14.7424 11.8539 15.0442 11.2798 15.1768C10.9117 15.2651 10.5584 14.9633 10.4848 14.6319C10.4701 14.5509 10.4186 14.4626 10.529 14.4184C10.6173 14.3816 10.6468 14.4626 10.6836 14.5215C11.081 15.0737 11.53 15.1031 11.9569 14.5804C12.0747 14.4331 12.1189 14.3522 12.2808 14.5583C12.7371 15.1179 13.1199 15.0958 13.5762 14.5142C13.6204 14.4553 13.6572 14.389 13.7382 14.4332C13.8118 14.47 13.797 14.5436 13.7823 14.6172C13.7234 14.9559 13.3628 15.2136 12.8549 15.1989V15.1915Z" fill="#D7D7D7"/>
<path d="M7.77637 11.8854C7.79109 11.8044 7.80581 11.635 7.84997 11.4731C7.99718 10.965 8.3652 10.6558 8.79947 10.6484C9.23373 10.6484 9.60176 10.9429 9.77105 11.451C9.88881 11.8191 9.88881 12.202 9.7416 12.5627C9.56495 13.0192 9.20429 13.299 8.80683 13.299C8.41673 13.299 8.05606 13.0045 7.87941 12.5554C7.80581 12.3713 7.78373 12.1725 7.77637 11.8927V11.8854Z" fill="#4C3B30"/>
<path d="M16.3362 11.1934C16.4687 11.6573 16.5644 12.1212 16.3509 12.5924C16.1816 12.9752 15.9167 13.255 15.475 13.2845C15.0997 13.3139 14.7243 13.0415 14.5476 12.6071C14.3415 12.1064 14.371 11.6058 14.5697 11.1051C15.2174 10.4498 15.7106 10.4793 16.3289 11.1934H16.3362Z" fill="#4C3B30"/>
</svg>
