<svg width="375" height="667" viewBox="0 0 375 667" fill="none" xmlns="http://www.w3.org/2000/svg">
<path d="M25.894 667.78H69.1587V625.857H25.894L25.894 667.78Z" fill="#8A4658"/>
<path d="M95.7963 667.78H139.061V625.857H95.7963V667.78Z" fill="#8A4658"/>
<path d="M165.698 667.78H208.963V625.857H165.698V667.78Z" fill="#8A4658"/>
<path d="M235.601 667.78H278.865V625.857H235.601V667.78Z" fill="#8A4658"/>
<path d="M305.503 667.78H348.768V625.857H305.503V667.78Z" fill="#8A4658"/>
<path d="M25.894 598.291H69.1587V556.367H25.894L25.894 598.291Z" fill="#8A4658"/>
<path d="M95.7963 598.291H139.061V556.367H95.7963V598.291Z" fill="#8A4658"/>
<path d="M165.698 598.291H208.963V556.367H165.698V598.291Z" fill="#8A4658"/>
<path d="M235.601 598.291H278.865V556.367H235.601V598.291Z" fill="#8A4658"/>
<path d="M305.503 598.291H348.768V556.367H305.503V598.291Z" fill="#8A4658"/>
<path d="M25.894 528.793H69.1587V486.87H25.894L25.894 528.793Z" fill="#8A4658"/>
<path d="M95.7963 528.793H139.061V486.87H95.7963V528.793Z" fill="#8A4658"/>
<path d="M165.698 528.793H208.963V486.87H165.698V528.793Z" fill="#8A4658"/>
<path d="M235.601 528.793H278.865V486.87H235.601V528.793Z" fill="#8A4658"/>
<path d="M305.503 528.793H348.768V486.87H305.503V528.793Z" fill="#8A4658"/>
<path d="M25.894 459.304H69.1587V417.38H25.894L25.894 459.304Z" fill="#8A4658"/>
<path d="M95.7963 459.304H139.061V417.38H95.7963V459.304Z" fill="#8A4658"/>
<path d="M165.698 459.304H208.963V417.38H165.698V459.304Z" fill="#8A4658"/>
<path d="M235.601 459.304H278.865V417.38H235.601V459.304Z" fill="#8A4658"/>
<path d="M305.503 459.304H348.768V417.38H305.503V459.304Z" fill="#8A4658"/>
<path d="M25.894 389.814H69.1587V347.89H25.894L25.894 389.814Z" fill="#8A4658"/>
<path d="M95.7963 389.814H139.061V347.89H95.7963V389.814Z" fill="#8A4658"/>
<path d="M165.698 389.814H208.963V347.89H165.698V389.814Z" fill="#8A4658"/>
<path d="M235.601 389.814H278.865V347.89H235.601V389.814Z" fill="#8A4658"/>
<path d="M305.503 389.814H348.768V347.89H305.503V389.814Z" fill="#8A4658"/>
<path d="M25.894 320.324H69.1587V278.401H25.894L25.894 320.324Z" fill="#8A4658"/>
<path d="M95.7963 320.324H139.061V278.401H95.7963V320.324Z" fill="#8A4658"/>
<path d="M165.698 320.324H208.963V278.401H165.698V320.324Z" fill="#8A4658"/>
<path d="M235.601 320.324H278.865V278.401H235.601V320.324Z" fill="#8A4658"/>
<path d="M305.503 320.324H348.768V278.401H305.503V320.324Z" fill="#8A4658"/>
<path d="M25.894 250.834H69.1587V208.911H25.894L25.894 250.834Z" fill="#8A4658"/>
<path d="M95.7963 250.834H139.061V208.911H95.7963V250.834Z" fill="#8A4658"/>
<path d="M165.698 250.834H208.963V208.911H165.698V250.834Z" fill="#8A4658"/>
<path d="M235.601 250.834H278.865V208.911H235.601V250.834Z" fill="#8A4658"/>
<path d="M305.503 250.834H348.768V208.911H305.503V250.834Z" fill="#8A4658"/>
<path d="M25.894 180.785H69.1587V138.862H25.894L25.894 180.785Z" fill="#8A4658"/>
<path d="M95.7963 180.785H139.061V138.862H95.7963V180.785Z" fill="#8A4658"/>
<path d="M165.698 180.785H208.963V138.862H165.698V180.785Z" fill="#8A4658"/>
<path d="M235.601 180.785H278.865V138.862H235.601V180.785Z" fill="#8A4658"/>
<path d="M305.503 180.785H348.768V138.862H305.503V180.785Z" fill="#8A4658"/>
<path d="M25.894 111.295H69.1587V69.3718H25.894L25.894 111.295Z" fill="#8A4658"/>
<path d="M95.7963 111.295H139.061V69.3718H95.7963V111.295Z" fill="#8A4658"/>
<path d="M165.698 111.295H208.963V69.3718H165.698V111.295Z" fill="#8A4658"/>
<path d="M235.601 111.295H278.865V69.3718H235.601V111.295Z" fill="#8A4658"/>
<path d="M305.503 111.295H348.768V69.3718H305.503V111.295Z" fill="#8A4658"/>
<path d="M25.894 41.8057L69.1587 41.8057V-0.117908L25.894 -0.117908L25.894 41.8057Z" fill="#8A4658"/>
<path d="M95.7963 41.8057L139.061 41.8057V-0.117908L95.7963 -0.117908V41.8057Z" fill="#8A4658"/>
<path d="M165.698 41.8057L208.963 41.8057V-0.117908L165.698 -0.117908V41.8057Z" fill="#8A4658"/>
<path d="M235.601 41.8057L278.865 41.8057V-0.117908L235.601 -0.117908V41.8057Z" fill="#8A4658"/>
<path d="M305.503 41.8057L348.768 41.8057V-0.117908L305.503 -0.117908V41.8057Z" fill="#8A4658"/>
<path d="M25.894 625.857H69.1587V598.284H25.894V625.857Z" fill="#8D4F5D"/>
<path d="M95.7963 625.857H139.061V598.284H95.7963V625.857Z" fill="#8D4F5D"/>
<path d="M165.698 625.857H208.963V598.284H165.698V625.857Z" fill="#8D4F5D"/>
<path d="M235.601 625.857H278.865V598.284H235.601V625.857Z" fill="#8D4F5D"/>
<path d="M305.503 625.857H348.768V598.284H305.503V625.857Z" fill="#8D4F5D"/>
<path d="M25.894 556.375H69.1587V528.801H25.894V556.375Z" fill="#8D4F5D"/>
<path d="M95.7963 556.375H139.061V528.801H95.7963V556.375Z" fill="#8D4F5D"/>
<path d="M165.698 556.375H208.963V528.801H165.698V556.375Z" fill="#8D4F5D"/>
<path d="M235.601 556.375H278.865V528.801H235.601V556.375Z" fill="#8D4F5D"/>
<path d="M305.503 556.375H348.768V528.801H305.503V556.375Z" fill="#8D4F5D"/>
<path d="M25.894 486.877H69.1587V459.304H25.894V486.877Z" fill="#8D4F5D"/>
<path d="M95.7963 486.877H139.061V459.304H95.7963V486.877Z" fill="#8D4F5D"/>
<path d="M165.698 486.877H208.963V459.304H165.698V486.877Z" fill="#8D4F5D"/>
<path d="M235.601 486.877H278.865V459.304H235.601V486.877Z" fill="#8D4F5D"/>
<path d="M305.503 486.877H348.768V459.304H305.503V486.877Z" fill="#8D4F5D"/>
<path d="M25.894 417.388H69.1587V389.814H25.894V417.388Z" fill="#8D4F5D"/>
<path d="M95.7963 417.388H139.061V389.814H95.7963V417.388Z" fill="#8D4F5D"/>
<path d="M165.698 417.388H208.963V389.814H165.698V417.388Z" fill="#8D4F5D"/>
<path d="M235.601 417.388H278.865V389.814H235.601V417.388Z" fill="#8D4F5D"/>
<path d="M305.503 417.388H348.768V389.814H305.503V417.388Z" fill="#8D4F5D"/>
<path d="M25.894 347.898H69.1587V320.324H25.894V347.898Z" fill="#8D4F5D"/>
<path d="M95.7963 347.898H139.061V320.324H95.7963V347.898Z" fill="#8D4F5D"/>
<path d="M165.698 347.898H208.963V320.324H165.698V347.898Z" fill="#8D4F5D"/>
<path d="M235.601 347.898H278.865V320.324H235.601V347.898Z" fill="#8D4F5D"/>
<path d="M305.503 347.898H348.768V320.324H305.503V347.898Z" fill="#8D4F5D"/>
<path d="M25.894 278.401H69.1587V250.827H25.894V278.401Z" fill="#8D4F5D"/>
<path d="M95.7963 278.401H139.061V250.827H95.7963V278.401Z" fill="#8D4F5D"/>
<path d="M165.698 278.401H208.963V250.827H165.698V278.401Z" fill="#8D4F5D"/>
<path d="M235.601 278.401H278.865V250.827H235.601V278.401Z" fill="#8D4F5D"/>
<path d="M305.503 278.401H348.768V250.827H305.503V278.401Z" fill="#8D4F5D"/>
<path d="M25.894 208.359H69.1587V180.785H25.894V208.359Z" fill="#8D4F5D"/>
<path d="M95.7963 208.359H139.061V180.785H95.7963V208.359Z" fill="#8D4F5D"/>
<path d="M165.698 208.359H208.963V180.785H165.698V208.359Z" fill="#8D4F5D"/>
<path d="M235.601 208.359H278.865V180.785H235.601V208.359Z" fill="#8D4F5D"/>
<path d="M305.503 208.359H348.768V180.785H305.503V208.359Z" fill="#8D4F5D"/>
<path d="M25.894 138.869H69.1587V111.296H25.894V138.869Z" fill="#8D4F5D"/>
<path d="M95.7963 138.869H139.061V111.296H95.7963V138.869Z" fill="#8D4F5D"/>
<path d="M165.698 138.869H208.963V111.296H165.698V138.869Z" fill="#8D4F5D"/>
<path d="M235.601 138.869H278.865V111.296H235.601V138.869Z" fill="#8D4F5D"/>
<path d="M305.503 138.869H348.768V111.296H305.503V138.869Z" fill="#8D4F5D"/>
<path d="M25.894 69.3794H69.1587V41.8058H25.894V69.3794Z" fill="#8D4F5D"/>
<path d="M95.7963 69.3794H139.061V41.8058H95.7963V69.3794Z" fill="#8D4F5D"/>
<path d="M165.698 69.3794H208.963V41.8058H165.698V69.3794Z" fill="#8D4F5D"/>
<path d="M235.601 69.3794H278.865V41.8058H235.601V69.3794Z" fill="#8D4F5D"/>
<path d="M305.503 69.3794H348.768V41.8058H305.503V69.3794Z" fill="#8D4F5D"/>
<path d="M25.8869 598.291H-0.743164V625.864H25.8869V598.291Z" fill="#846D5C"/>
<path d="M95.7893 598.291H69.1592V625.864H95.7893V598.291Z" fill="#846D5C"/>
<path d="M165.691 598.291H139.061V625.864H165.691V598.291Z" fill="#846D5C"/>
<path d="M235.593 598.291H208.963V625.864H235.593V598.291Z" fill="#846D5C"/>
<path d="M305.495 598.291H278.865V625.864H305.495V598.291Z" fill="#846D5C"/>
<path d="M375.398 598.291H348.768V625.864H375.398V598.291Z" fill="#846D5C"/>
<path d="M25.8869 528.793H-0.743164V556.367H25.8869V528.793Z" fill="#846D5C"/>
<path d="M95.7893 528.793H69.1592V556.367H95.7893V528.793Z" fill="#846D5C"/>
<path d="M165.691 528.793H139.061V556.367H165.691V528.793Z" fill="#846D5C"/>
<path d="M235.593 528.793H208.963V556.367H235.593V528.793Z" fill="#846D5C"/>
<path d="M305.495 528.793H278.865V556.367H305.495V528.793Z" fill="#846D5C"/>
<path d="M375.398 528.793H348.768V556.367H375.398V528.793Z" fill="#846D5C"/>
<path d="M25.8869 459.304H-0.743164V486.877H25.8869V459.304Z" fill="#846D5C"/>
<path d="M95.7893 459.304H69.1592V486.877H95.7893V459.304Z" fill="#846D5C"/>
<path d="M165.691 459.304H139.061V486.877H165.691V459.304Z" fill="#846D5C"/>
<path d="M235.593 459.304H208.963V486.877H235.593V459.304Z" fill="#846D5C"/>
<path d="M305.495 459.304H278.865V486.877H305.495V459.304Z" fill="#846D5C"/>
<path d="M375.398 459.304H348.768V486.877H375.398V459.304Z" fill="#846D5C"/>
<path d="M25.8869 389.814H-0.743164V417.388H25.8869V389.814Z" fill="#846D5C"/>
<path d="M95.7893 389.814H69.1592V417.388H95.7893V389.814Z" fill="#846D5C"/>
<path d="M165.691 389.814H139.061V417.388H165.691V389.814Z" fill="#846D5C"/>
<path d="M235.593 389.814H208.963V417.388H235.593V389.814Z" fill="#846D5C"/>
<path d="M305.495 389.814H278.865V417.388H305.495V389.814Z" fill="#846D5C"/>
<path d="M375.398 389.814H348.768V417.388H375.398V389.814Z" fill="#846D5C"/>
<path d="M25.8869 320.324H-0.743164V347.898H25.8869V320.324Z" fill="#846D5C"/>
<path d="M95.7893 320.324H69.1592V347.898H95.7893V320.324Z" fill="#846D5C"/>
<path d="M165.691 320.324H139.061V347.898H165.691V320.324Z" fill="#846D5C"/>
<path d="M235.593 320.324H208.963V347.898H235.593V320.324Z" fill="#846D5C"/>
<path d="M305.495 320.324H278.865V347.898H305.495V320.324Z" fill="#846D5C"/>
<path d="M375.398 320.324H348.768V347.898H375.398V320.324Z" fill="#846D5C"/>
<path d="M25.8869 250.834H-0.743164V278.408H25.8869V250.834Z" fill="#846D5C"/>
<path d="M95.7893 250.834H69.1592V278.408H95.7893V250.834Z" fill="#846D5C"/>
<path d="M165.691 250.834H139.061V278.408H165.691V250.834Z" fill="#846D5C"/>
<path d="M235.593 250.834H208.963V278.408H235.593V250.834Z" fill="#846D5C"/>
<path d="M305.495 250.834H278.865V278.408H305.495V250.834Z" fill="#846D5C"/>
<path d="M375.398 250.834H348.768V278.408H375.398V250.834Z" fill="#846D5C"/>
<path d="M25.8869 180.785H-0.743164V208.911H25.8869V180.785Z" fill="#846D5C"/>
<path d="M95.7893 180.785H69.1592V208.911H95.7893V180.785Z" fill="#846D5C"/>
<path d="M165.691 180.785H139.061V208.911H165.691V180.785Z" fill="#846D5C"/>
<path d="M235.593 180.785H208.963V208.911H235.593V180.785Z" fill="#846D5C"/>
<path d="M305.495 180.785H278.865V208.911H305.495V180.785Z" fill="#846D5C"/>
<path d="M375.398 180.785H348.768V208.911H375.398V180.785Z" fill="#846D5C"/>
<path d="M25.8869 111.295H-0.743164V138.869H25.8869V111.295Z" fill="#846D5C"/>
<path d="M95.7893 111.295H69.1592V138.869H95.7893V111.295Z" fill="#846D5C"/>
<path d="M165.691 111.295H139.061V138.869H165.691V111.295Z" fill="#846D5C"/>
<path d="M235.593 111.295H208.963V138.869H235.593V111.295Z" fill="#846D5C"/>
<path d="M305.495 111.295H278.865V138.869H305.495V111.295Z" fill="#846D5C"/>
<path d="M375.398 111.295H348.768V138.869H375.398V111.295Z" fill="#846D5C"/>
<path d="M25.8869 41.8057H-0.743164V69.3792H25.8869V41.8057Z" fill="#846D5C"/>
<path d="M95.7893 41.8057H69.1592V69.3792H95.7893V41.8057Z" fill="#846D5C"/>
<path d="M165.691 41.8057H139.061V69.3792H165.691V41.8057Z" fill="#846D5C"/>
<path d="M235.593 41.8057H208.963V69.3792H235.593V41.8057Z" fill="#846D5C"/>
<path d="M305.495 41.8057H278.865V69.3792H305.495V41.8057Z" fill="#846D5C"/>
<path d="M375.398 41.8057H348.768V69.3792H375.398V41.8057Z" fill="#846D5C"/>
<path d="M25.8869 625.857H-0.743164V667.78H25.8869V625.857Z" fill="#7C4F4F"/>
<path d="M95.7893 625.857H69.1592V667.78H95.7893V625.857Z" fill="#7C4F4F"/>
<path d="M165.691 625.857H139.061V667.78H165.691V625.857Z" fill="#7C4F4F"/>
<path d="M235.593 625.857H208.963V667.78H235.593V625.857Z" fill="#7C4F4F"/>
<path d="M305.495 625.857H278.865V667.78H305.495V625.857Z" fill="#7C4F4F"/>
<path d="M375.398 625.857H348.768V667.78H375.398V625.857Z" fill="#7C4F4F"/>
<path d="M25.8869 556.367H-0.743164V598.291H25.8869V556.367Z" fill="#7C4F4F"/>
<path d="M95.7893 556.367H69.1592V598.291H95.7893V556.367Z" fill="#7C4F4F"/>
<path d="M165.691 556.367H139.061V598.291H165.691V556.367Z" fill="#7C4F4F"/>
<path d="M235.593 556.367H208.963V598.291H235.593V556.367Z" fill="#7C4F4F"/>
<path d="M305.495 556.367H278.865V598.291H305.495V556.367Z" fill="#7C4F4F"/>
<path d="M375.398 556.367H348.768V598.291H375.398V556.367Z" fill="#7C4F4F"/>
<path d="M25.8869 486.877H-0.743164V528.801H25.8869V486.877Z" fill="#7C4F4F"/>
<path d="M95.7893 486.877H69.1592V528.801H95.7893V486.877Z" fill="#7C4F4F"/>
<path d="M165.691 486.877H139.061V528.801H165.691V486.877Z" fill="#7C4F4F"/>
<path d="M235.593 486.877H208.963V528.801H235.593V486.877Z" fill="#7C4F4F"/>
<path d="M305.495 486.877H278.865V528.801H305.495V486.877Z" fill="#7C4F4F"/>
<path d="M375.398 486.877H348.768V528.801H375.398V486.877Z" fill="#7C4F4F"/>
<path d="M25.8869 417.388H-0.743164V459.311H25.8869V417.388Z" fill="#7C4F4F"/>
<path d="M95.7893 417.388H69.1592V459.311H95.7893V417.388Z" fill="#7C4F4F"/>
<path d="M165.691 417.388H139.061V459.311H165.691V417.388Z" fill="#7C4F4F"/>
<path d="M235.593 417.388H208.963V459.311H235.593V417.388Z" fill="#7C4F4F"/>
<path d="M305.495 417.388H278.865V459.311H305.495V417.388Z" fill="#7C4F4F"/>
<path d="M375.398 417.388H348.768V459.311H375.398V417.388Z" fill="#7C4F4F"/>
<path d="M25.8869 347.898H-0.743164V389.822H25.8869V347.898Z" fill="#7C4F4F"/>
<path d="M95.7893 347.898H69.1592V389.822H95.7893V347.898Z" fill="#7C4F4F"/>
<path d="M165.691 347.898H139.061V389.822H165.691V347.898Z" fill="#7C4F4F"/>
<path d="M235.593 347.898H208.963V389.822H235.593V347.898Z" fill="#7C4F4F"/>
<path d="M305.495 347.898H278.865V389.822H305.495V347.898Z" fill="#7C4F4F"/>
<path d="M375.398 347.898H348.768V389.822H375.398V347.898Z" fill="#7C4F4F"/>
<path d="M25.8869 278.408H-0.743164V320.332H25.8869V278.408Z" fill="#7C4F4F"/>
<path d="M95.7893 278.408H69.1592V320.332H95.7893V278.408Z" fill="#7C4F4F"/>
<path d="M165.691 278.408H139.061V320.332H165.691V278.408Z" fill="#7C4F4F"/>
<path d="M235.593 278.408H208.963V320.332H235.593V278.408Z" fill="#7C4F4F"/>
<path d="M305.495 278.408H278.865V320.332H305.495V278.408Z" fill="#7C4F4F"/>
<path d="M375.398 278.408H348.768V320.332H375.398V278.408Z" fill="#7C4F4F"/>
<path d="M25.8869 208.911H-0.743164V250.835H25.8869V208.911Z" fill="#7C4F4F"/>
<path d="M95.7893 208.911H69.1592V250.835H95.7893V208.911Z" fill="#7C4F4F"/>
<path d="M165.691 208.911H139.061V250.835H165.691V208.911Z" fill="#7C4F4F"/>
<path d="M235.593 208.911H208.963V250.835H235.593V208.911Z" fill="#7C4F4F"/>
<path d="M305.495 208.911H278.865V250.835H305.495V208.911Z" fill="#7C4F4F"/>
<path d="M375.398 208.911H348.768V250.835H375.398V208.911Z" fill="#7C4F4F"/>
<path d="M25.8869 138.869H-0.743164V180.793H25.8869V138.869Z" fill="#7C4F4F"/>
<path d="M95.7893 138.869H69.1592V180.793H95.7893V138.869Z" fill="#7C4F4F"/>
<path d="M165.691 138.869H139.061V180.793H165.691V138.869Z" fill="#7C4F4F"/>
<path d="M235.593 138.869H208.963V180.793H235.593V138.869Z" fill="#7C4F4F"/>
<path d="M305.495 138.869H278.865V180.793H305.495V138.869Z" fill="#7C4F4F"/>
<path d="M375.398 138.869H348.768V180.793H375.398V138.869Z" fill="#7C4F4F"/>
<path d="M25.8869 69.3794H-0.743164V111.303H25.8869V69.3794Z" fill="#7C4F4F"/>
<path d="M95.7893 69.3794H69.1592V111.303H95.7893V69.3794Z" fill="#7C4F4F"/>
<path d="M165.691 69.3794H139.061V111.303H165.691V69.3794Z" fill="#7C4F4F"/>
<path d="M235.593 69.3794H208.963V111.303H235.593V69.3794Z" fill="#7C4F4F"/>
<path d="M305.495 69.3794H278.865V111.303H305.495V69.3794Z" fill="#7C4F4F"/>
<path d="M375.398 69.3794H348.768V111.303H375.398V69.3794Z" fill="#7C4F4F"/>
<path d="M25.8869 -0.110352H-0.743164V41.8132H25.8869V-0.110352Z" fill="#7C4F4F"/>
<path d="M95.7893 -0.110352H69.1592V41.8132H95.7893V-0.110352Z" fill="#7C4F4F"/>
<path d="M165.691 -0.110352H139.061V41.8132H165.691V-0.110352Z" fill="#7C4F4F"/>
<path d="M235.593 -0.110352H208.963V41.8132H235.593V-0.110352Z" fill="#7C4F4F"/>
<path d="M305.495 -0.110352H278.865V41.8132H305.495V-0.110352Z" fill="#7C4F4F"/>
<path d="M375.398 -0.110352H348.768V41.8132H375.398V-0.110352Z" fill="#7C4F4F"/>
<path d="M20.1826 -0.0810547H-0.743164V20.8513H20.1826V-0.0810547Z" fill="#995E4B"/>
<path d="M41.0566 20.8438H20.1309V41.7761H41.0566V20.8438Z" fill="#995E4B"/>
<path d="M61.9751 -0.0810547H41.0493V20.8513H61.9751V-0.0810547Z" fill="#995E4B"/>
<path d="M82.8496 20.8438H61.9238V41.7761H82.8496V20.8438Z" fill="#995E4B"/>
<path d="M103.775 -0.0810547H82.8496V20.8513H103.775V-0.0810547Z" fill="#995E4B"/>
<path d="M124.642 20.8438H103.716V41.7761H124.642V20.8438Z" fill="#995E4B"/>
<path d="M145.568 -0.0810547H124.642V20.8513H145.568V-0.0810547Z" fill="#995E4B"/>
<path d="M166.435 20.8438H145.509V41.7761H166.435V20.8438Z" fill="#995E4B"/>
<path d="M187.36 -0.0810547H166.435V20.8513H187.36V-0.0810547Z" fill="#995E4B"/>
<path d="M208.235 20.8438H187.309V41.7761H208.235V20.8438Z" fill="#995E4B"/>
<path d="M229.153 -0.0810547H208.227V20.8513H229.153V-0.0810547Z" fill="#995E4B"/>
<path d="M250.027 20.8438H229.102V41.7761H250.027V20.8438Z" fill="#995E4B"/>
<path d="M270.946 -0.0810547H250.02V20.8513H270.946V-0.0810547Z" fill="#995E4B"/>
<path d="M291.82 20.8438H270.894V41.7761H291.82V20.8438Z" fill="#995E4B"/>
<path d="M312.738 -0.0810547H291.812V20.8513H312.738V-0.0810547Z" fill="#995E4B"/>
<path d="M333.612 20.8438H312.687V41.7761H333.612V20.8438Z" fill="#995E4B"/>
<path d="M354.582 -0.0810547H333.657V20.8513H354.582V-0.0810547Z" fill="#995E4B"/>
<path d="M375.449 20.8438H354.523V41.7761H375.449V20.8438Z" fill="#995E4B"/>
</svg>
