<svg width="348" height="519" viewBox="0 0 348 519" fill="none" xmlns="http://www.w3.org/2000/svg">
<path d="M347.666 410.228C347.666 390.407 347.659 370.594 347.681 350.774C347.681 349.603 347.409 348.513 347.151 347.409C347.151 345.421 347.151 343.433 347.144 341.445C347.055 311.464 347.225 281.475 346.761 251.494C346.319 223.251 346.695 194.992 346.15 166.741C346.076 162.957 346.106 159.165 346.084 155.381C346.084 149.697 346.084 144.013 346.076 138.328C346.076 132.689 346.238 127.049 346.032 121.424C345.907 117.926 345.642 114.473 345.892 110.939C346.415 103.539 346.091 96.1104 345.576 88.6961C345.407 85.9056 345.377 83.093 345.031 80.3173C344.229 73.8454 341.366 69.7812 334.322 68.4191C330.73 67.727 327.138 67.322 323.487 67.4913C321.883 67.565 321.463 67.2263 322.148 65.5697C325.025 58.5456 325.688 51.3669 323.642 43.9452C321.264 35.3161 315.722 29.3522 307.714 25.7298C298.697 21.6508 289.416 22.3061 280.186 25.2733C279.781 25.2438 279.442 25.3322 279.273 25.7371C278.684 25.7592 278.095 25.7739 277.506 25.7887C277.006 25.3027 277.035 24.6843 277.08 24.0658C277.403 19.8027 277.205 15.5544 276.469 11.3503C275.6 6.3657 271.25 2.16156 266.429 1.44737C262.881 1.24122 259.341 0.858351 255.793 0.858351C222.914 0.806812 190.042 0.836264 157.163 0.784725C153.078 0.784725 149 0.372412 144.915 0.320873C137.599 0.239882 130.283 0.225155 122.967 0.313509C112.191 0.446038 101.423 0.689007 90.6542 0.880439C87.5407 0.792086 84.442 0.718459 81.3579 1.35902C77.2214 2.22046 73.3203 3.67093 71.3256 7.59528C68.7421 12.6682 68.8893 18.2786 68.9924 23.8081C69.0071 24.6474 69.5959 25.5162 68.7053 26.2378C67.8294 26.952 67.0566 26.3924 66.2249 26.0758C54.4629 21.5477 43.5105 23.4694 33.4709 30.5671C31.0787 32.2532 28.8191 34.4915 27.4868 37.304C26.6257 37.7605 26.3533 38.5042 26.4122 39.4171C25.5658 39.7705 25.08 40.3743 24.7046 41.2505C21.8708 47.7739 20.8183 54.4887 22.8277 61.3803C23.6079 64.0529 23.7551 67.1748 26.4564 69.0154C26.9937 70.6279 26.0147 70.7899 24.815 70.6279C20.5827 70.0757 16.402 70.5543 12.2065 71.1506C7.01743 71.8869 2.43923 76.8494 1.73263 81.9813C1.05547 86.8922 1.43821 91.7958 1.26892 96.6994C1.23212 97.7597 1.26892 98.8052 0.790494 99.7918C0.378309 102.538 1.291 105.196 1.291 107.92C1.26892 144.845 1.29836 181.776 1.31309 218.7C1.33517 227.212 1.35725 235.73 1.37197 244.242C1.35725 266.072 1.30572 287.903 1.34253 309.741C1.35725 316.426 1.75471 323.104 1.76943 329.79C1.8504 356.237 1.84304 382.691 1.87248 409.138C1.87248 411.833 1.87248 414.52 1.87248 417.215C1.99761 424.497 1.2174 431.793 2.8367 439.031C4.13214 444.811 5.91336 448.374 12.8543 449.648C16.5345 450.326 20.0749 451.018 23.8729 450.532C27.082 450.119 27.4206 450.834 26.3607 453.749C25.7571 455.398 25.102 457.048 24.7046 458.749C22.732 467.201 23.3355 475.366 28.2008 482.817C29.0914 484.18 29.6876 486.123 31.7706 486.469C32.3962 488.244 33.4782 489.495 35.5171 489.643C35.5171 490.438 36.0029 490.99 36.6211 491.329C41.2214 493.869 46.0793 495.629 51.4009 495.945C57.8487 496.328 64.1124 495.481 70.3688 492.919C70.3688 494.186 70.3762 495.143 70.3688 496.092C70.3246 500.304 70.4277 504.493 71.4213 508.624C72.1647 511.702 73.8135 514.05 76.7135 515.479C78.7818 517.15 81.093 518.048 83.8163 517.606C84.4493 517.967 85.1118 518.129 85.8552 518.129C91.5963 518.122 97.3375 518.144 103.079 518.144C117.203 518.144 131.328 517.901 145.46 517.739C180.915 517.334 216.371 518.085 251.826 517.121C255.212 517.025 258.597 517.091 261.983 517.106C263.853 517.106 265.649 516.804 267.364 516.053C273.959 515.169 278.5 509.691 278.647 502.844C278.721 499.332 278.669 495.813 278.684 492.293C278.684 491.277 278.669 490.607 280.164 491.263C283.387 492.669 286.736 493.663 290.292 494.112C300.891 495.445 309.561 491.932 316.693 484.275C317.849 483.458 319.027 482.655 319.373 481.161C319.873 480.682 320.447 480.255 320.852 479.71C324.069 475.315 325.349 470.264 325.776 464.963C326.152 460.317 325.114 455.921 323.421 451.607C322.523 449.317 323.075 448.735 325.526 448.897C326.049 448.934 326.564 449.118 327.094 449.17C333.858 449.818 339.938 448.544 344.509 443.081L344.538 443.051C346.849 440.864 347.644 438.074 347.666 435.048C347.725 428.223 347.696 421.397 347.71 414.572C347.703 413.121 347.688 411.664 347.681 410.213L347.666 410.228Z" fill="#678F9E"/>
<path d="M343.559 407.968C343.559 388.464 343.552 368.96 343.574 349.456C343.574 348.307 343.309 347.232 343.058 346.143C343.058 344.184 343.058 342.233 343.051 340.275C342.97 310.765 343.132 281.255 342.676 251.745C342.249 223.943 342.609 196.134 342.079 168.332C342.006 164.606 342.035 160.881 342.013 157.148C342.013 151.552 342.013 145.957 342.006 140.368C342.006 134.824 342.16 129.265 341.962 123.728C341.837 120.283 341.579 116.888 341.822 113.406C342.33 106.124 342.013 98.8055 341.513 91.5163C341.343 88.77 341.314 86.0016 340.983 83.2701C340.203 76.9013 337.42 72.9033 330.575 71.5633C327.086 70.8785 323.597 70.4809 320.05 70.6503C318.489 70.7239 318.084 70.3852 318.747 68.758C321.544 61.8444 322.184 54.7762 320.197 47.4797C317.886 38.9904 312.505 33.1223 304.718 29.5513C295.952 25.5313 286.935 26.1792 277.97 29.1022C277.58 29.0728 277.249 29.1611 277.087 29.5587C276.513 29.5734 275.946 29.5955 275.372 29.6102C274.886 29.1317 274.915 28.5279 274.96 27.9168C275.276 23.72 275.085 19.538 274.371 15.4001C273.524 10.4965 269.299 6.35864 264.611 5.65917C261.166 5.46038 257.721 5.08488 254.277 5.07752C222.332 5.02598 190.388 5.05542 158.444 5.01125C154.476 5.01125 150.509 4.59894 146.542 4.55476C139.432 4.47377 132.321 4.45904 125.219 4.5474C114.752 4.67256 104.286 4.91554 93.819 5.10697C90.7939 5.02598 87.7761 4.95235 84.7877 5.57818C80.7689 6.4249 76.9783 7.85327 75.0351 11.7114C72.5252 16.7033 72.6651 22.2254 72.7681 27.6665C72.7828 28.4985 73.3496 29.3452 72.4884 30.0594C71.6346 30.7588 70.8838 30.214 70.0816 29.8974C58.6508 25.4356 48.0076 27.3351 38.255 34.3224C35.9365 35.9864 33.7357 38.1805 32.4402 40.9563C31.6012 41.4054 31.3362 42.1417 31.3951 43.0399C30.5707 43.3933 30.0996 43.9824 29.7316 44.8438C26.9714 51.2641 25.9557 57.8685 27.9062 64.657C28.6643 67.2929 28.8115 70.3558 31.4319 72.1744C31.9545 73.7574 31.005 73.9193 29.8346 73.7647C25.7202 73.2199 21.6572 73.6911 17.5869 74.2801C12.545 75.009 8.09189 79.8832 7.40736 84.934C6.75229 89.7714 7.12031 94.594 6.95838 99.4166C6.92158 100.462 6.95838 101.493 6.49467 102.457C6.08985 105.16 6.98046 107.773 6.98046 110.461C6.95838 146.803 6.98782 183.146 7.00254 219.496C7.02462 227.875 7.03934 236.254 7.06142 244.64C7.0467 266.124 6.99518 287.616 7.03934 309.101C7.05406 315.676 7.43681 322.258 7.45889 328.833C7.53249 354.868 7.53249 380.895 7.56194 406.93C7.56194 409.58 7.56194 412.231 7.56194 414.874C7.68706 422.038 6.92158 429.224 8.50407 436.344C9.76271 442.028 11.4924 445.54 18.2419 446.792C21.8191 447.454 25.2564 448.139 28.9514 447.661C32.0649 447.256 32.3961 447.955 31.3656 450.827C30.7841 452.454 30.1364 454.073 29.7537 455.745C27.8326 464.065 28.4288 472.098 33.1468 479.431C34.0154 480.771 34.5969 482.685 36.621 483.024C37.2319 484.769 38.2771 486.006 40.2644 486.146C40.2644 486.926 40.7355 487.471 41.339 487.81C45.8142 490.306 50.5322 492.043 55.7066 492.353C61.9777 492.728 68.0574 491.896 74.1372 489.378C74.1372 490.622 74.1445 491.565 74.1372 492.5C74.093 496.645 74.196 500.768 75.1603 504.832C75.8816 507.859 77.4862 510.17 80.3052 511.584C82.3146 513.226 84.5595 514.109 87.202 513.682C87.8129 514.036 88.4606 514.198 89.1819 514.198C94.7611 514.19 100.34 514.213 105.92 514.213C119.647 514.213 133.374 513.97 147.101 513.815C181.548 513.417 216.002 514.161 250.457 513.204C253.747 513.116 257.037 513.174 260.327 513.189C262.145 513.189 263.889 512.887 265.553 512.151C271.956 511.282 276.373 505.893 276.52 499.148C276.594 495.688 276.542 492.227 276.557 488.767C276.557 487.766 276.542 487.11 277.999 487.751C281.128 489.135 284.388 490.114 287.84 490.556C298.138 491.867 306.565 488.413 313.499 480.874C314.625 480.071 315.766 479.284 316.104 477.811C316.59 477.34 317.15 476.92 317.54 476.383C320.668 472.053 321.904 467.091 322.324 461.871C322.692 457.298 321.684 452.969 320.035 448.728C319.159 446.475 319.704 445.901 322.081 446.063C322.589 446.1 323.089 446.284 323.605 446.328C330.178 446.961 336.081 445.717 340.526 440.335L340.556 440.305C342.801 438.155 343.574 435.402 343.596 432.427C343.655 425.712 343.625 418.99 343.64 412.275C343.632 410.847 343.618 409.418 343.61 407.983L343.559 407.968Z" fill="#DAD0C4"/>
<path d="M333.298 398.919C333.298 380.6 333.291 362.282 333.313 343.97C333.313 342.888 333.063 341.887 332.827 340.856C332.827 339.023 332.827 337.182 332.82 335.341C332.739 307.628 332.894 279.914 332.467 252.201C332.062 226.093 332.408 199.977 331.907 173.869C331.841 170.371 331.863 166.867 331.848 163.369C331.848 158.12 331.848 152.863 331.841 147.606C331.841 142.393 331.988 137.18 331.804 131.974C331.686 128.742 331.451 125.547 331.679 122.285C332.158 115.445 331.863 108.576 331.385 101.728C331.23 99.1439 331.201 96.5449 330.884 93.9826C330.148 87.9967 327.543 84.2417 321.11 82.9827C317.834 82.3421 314.551 81.9666 311.224 82.1212C309.76 82.1875 309.384 81.8709 310.003 80.3468C312.63 73.8528 313.234 67.219 311.364 60.3643C309.193 52.3904 304.136 46.8757 296.827 43.5256C288.598 39.7559 280.134 40.3596 271.706 43.1059C271.338 43.0765 271.029 43.1648 270.875 43.5403C270.337 43.5551 269.8 43.5772 269.263 43.5919C268.806 43.1428 268.836 42.5758 268.872 42.0015C269.167 38.0624 268.99 34.1307 268.32 30.2506C267.525 25.6415 263.558 21.7613 259.157 21.0986C255.925 20.9072 252.687 20.5538 249.456 20.5538C219.454 20.5023 189.453 20.5317 159.452 20.4875C155.728 20.4875 152.003 20.1047 148.272 20.0605C141.596 19.9869 134.92 19.9721 128.244 20.0531C118.41 20.1709 108.584 20.3992 98.7578 20.5759C95.9167 20.4949 93.083 20.4286 90.2786 21.025C86.5027 21.8202 82.9403 23.1676 81.1222 26.7901C78.7669 31.4801 78.892 36.6635 78.9877 41.7733C79.0024 42.5537 79.5397 43.3489 78.7227 44.0189C77.9204 44.6742 77.2138 44.1662 76.4631 43.8717C65.7315 39.6822 55.7361 41.464 46.5723 48.0243C44.3936 49.5852 42.3327 51.6467 41.1108 54.2532C40.3233 54.6728 40.073 55.3649 40.1319 56.2117C39.3591 56.543 38.9174 57.0952 38.5715 57.9051C35.9806 63.9352 35.0238 70.142 36.8565 76.5108C37.5705 78.9847 37.703 81.8635 40.1687 83.5717C40.6619 85.0589 39.7639 85.2062 38.6672 85.0663C34.8029 84.5583 30.9902 85 27.1628 85.5523C22.4227 86.237 18.2493 90.8166 17.6016 95.5582C16.9833 100.101 17.3292 104.629 17.1747 109.157C17.1452 110.137 17.1747 111.108 16.7331 112.014C16.3577 114.547 17.1894 117.006 17.1894 119.531C17.1673 153.665 17.1894 187.792 17.2115 221.925C17.2336 229.796 17.2483 237.667 17.2704 245.538C17.2556 265.719 17.2041 285.893 17.2483 306.074C17.263 312.252 17.6237 318.429 17.6384 324.606C17.712 349.051 17.7046 373.502 17.7341 397.947C17.7341 400.435 17.7341 402.924 17.7341 405.413C17.8518 412.142 17.1305 418.887 18.6173 425.579C19.8024 430.917 21.429 434.216 27.759 435.394C31.1154 436.02 34.3466 436.66 37.8134 436.211C40.7355 435.828 41.052 436.491 40.0804 439.186C39.5357 440.71 38.9322 442.234 38.5641 443.802C36.7608 451.614 37.3202 459.161 41.7512 466.045C42.5609 467.304 43.1129 469.101 45.0119 469.425C45.586 471.066 46.5649 472.222 48.4345 472.355C48.4345 473.091 48.8761 473.599 49.4429 473.916C53.6457 476.265 58.0767 477.892 62.9346 478.179C68.8229 478.532 74.5346 477.752 80.239 475.381C80.239 476.552 80.2463 477.435 80.239 478.311C80.1948 482.199 80.2905 486.079 81.2032 489.893C81.8804 492.735 83.3892 494.907 86.0316 496.232C87.9233 497.779 90.0284 498.611 92.5088 498.198C93.083 498.53 93.6939 498.677 94.371 498.677C99.6117 498.677 104.852 498.692 110.093 498.692C122.988 498.692 135.877 498.463 148.765 498.316C181.114 497.941 213.478 498.64 245.827 497.742C248.918 497.653 252.01 497.72 255.101 497.727C256.809 497.727 258.45 497.447 260.01 496.748C266.024 495.93 270.175 490.872 270.308 484.533C270.374 481.286 270.33 478.032 270.337 474.785C270.337 473.842 270.322 473.231 271.692 473.835C274.628 475.131 277.69 476.058 280.936 476.471C290.608 477.7 298.52 474.461 305.027 467.378C306.08 466.627 307.154 465.883 307.471 464.499C307.927 464.057 308.45 463.667 308.818 463.159C311.754 459.095 312.917 454.427 313.315 449.53C313.661 445.238 312.711 441.174 311.166 437.183C310.349 435.07 310.849 434.532 313.087 434.68C313.565 434.709 314.036 434.886 314.515 434.93C320.683 435.526 326.232 434.356 330.406 429.305L330.428 429.275C332.54 427.258 333.262 424.674 333.284 421.876C333.335 415.566 333.313 409.256 333.321 402.946C333.313 401.606 333.306 400.259 333.291 398.919H333.298Z" stroke="#7FA3B2" stroke-width="3" stroke-miterlimit="10"/>
<path d="M181.526 61.3657C181.327 62.5585 181.902 63.4715 182.593 64.3403C182.8 64.6053 183.094 64.9072 182.719 65.2017C182.328 65.511 181.924 65.3711 181.607 65.0176C180.893 64.2151 180.864 62.3597 181.541 61.3731L181.526 61.3657Z" fill="#CEB09F"/>
<path d="M178.221 61.3726C179.009 62.4255 178.685 63.5299 178.361 64.627C178.317 64.7816 178.214 64.9362 178.104 65.054C177.853 65.3338 177.544 65.4442 177.22 65.1792C176.933 64.9436 177.007 64.6417 177.184 64.384C177.522 63.8981 177.875 63.4416 178.037 62.8526C178.17 62.3592 178.244 61.8659 178.236 61.3579H178.229L178.221 61.3726Z" fill="#CEB09F"/>
<path d="M191.728 52.3093C191.691 50.7705 190.631 49.4525 189.122 49.1433C187.002 48.7089 185.199 49.3789 183.653 50.8367C183.227 51.2417 182.866 51.7276 182.292 51.9632C182.233 52.2062 182.24 52.5007 182.108 52.6922C181.423 53.664 181.386 54.8274 181.136 55.917C180.672 55.917 180.724 55.5857 180.768 55.3869C181.004 54.4445 181.269 53.5168 181.541 52.5891C181.644 52.2357 181.916 52.0442 182.27 51.9559C182.24 51.2049 182.623 50.5864 182.895 49.9164C183.786 47.737 183.904 45.6092 182.557 43.5108C181.696 42.1781 180.422 41.0811 180.15 39.395C180.135 39.2993 179.995 39.1668 179.892 39.152C179.642 39.1152 179.517 39.3067 179.458 39.5128C179.2 40.4184 178.803 41.2578 178.251 42.0161C177.684 42.7966 177.066 43.5402 176.632 44.4238C175.896 45.9258 175.954 47.472 176.462 48.9666C176.889 50.233 177.419 51.4847 178.082 52.6701C178.31 53.075 178.479 53.5168 178.464 53.9954C179.053 54.7685 179.009 55.6299 178.906 56.7417C178.347 55.7477 178.509 54.8126 178.214 53.988C177.92 53.1413 177.508 52.3608 176.911 51.6761C175.314 49.8501 173.437 48.7163 170.898 49.1139C169.676 49.3053 168.793 49.8575 168.314 51.065C167.49 53.1781 168.292 56.403 170.059 57.8019C170.545 58.1848 171.111 58.3468 171.73 58.251C172.789 58.0891 173.231 56.9994 172.583 56.1453C172.48 56.0128 172.311 55.9318 172.208 55.8066C171.722 55.1881 171.811 54.6654 172.458 54.1942C172.973 53.8187 173.518 53.6714 174.129 53.9438C174.519 54.1132 174.895 54.2972 175.285 54.4666C176.713 55.0851 178.207 58.1627 177.265 59.7162C177.095 59.996 177.059 60.4157 176.639 60.4378C176.146 60.4672 176.19 60.0255 176.116 59.7162C176.057 59.4585 175.984 59.2156 175.77 59.0536C175.447 58.8106 175.182 58.3541 174.688 58.5603C174.232 58.7443 173.952 59.1199 173.894 59.6279C173.871 59.7972 173.871 59.9666 173.894 60.1359C174.048 61.255 175.13 62.1386 176.271 62.1975C177.081 62.2417 177.625 61.8073 178.199 61.3802H178.192C178.28 60.7544 178.442 60.158 178.854 59.65C178.98 60.9458 178.972 62.2122 178.98 63.4712C178.98 63.8468 179.002 64.237 179.068 64.6051C179.142 64.9732 179.414 65.1794 179.804 65.172C180.209 65.1647 180.422 64.9143 180.452 64.5315C180.488 64.0234 180.488 63.5228 180.503 63.0147C180.525 62.0797 180.628 61.1593 180.901 60.2022C181.372 60.5556 181.453 60.9679 181.512 61.3876C181.799 61.4759 182.019 61.66 182.255 61.8293C183.02 62.3742 183.889 62.3668 184.64 61.9177C185.435 61.4391 185.891 60.666 185.795 59.6647C185.766 59.3628 185.656 59.0904 185.457 58.8622C185.074 58.4204 184.699 58.3983 184.257 58.7812C183.882 59.1051 183.779 59.569 183.631 60.0107C183.447 60.5556 183.153 60.6366 182.748 60.2758C182.483 60.0402 182.373 59.7236 182.314 59.3849C181.835 56.6239 183.263 54.7022 185.692 53.9217C186.318 53.7229 187.304 54.0984 187.577 54.6433C187.93 55.328 187.547 55.6888 187.017 56.1011C186.266 56.6828 186.502 57.7725 187.4 58.1185C188.107 58.3909 188.85 58.4572 189.446 57.9344C190.101 57.3528 190.697 56.727 191.124 55.9097C191.735 54.7537 191.735 53.5536 191.713 52.3314L191.728 52.3093Z" fill="#CEB09F"/>
</svg>
