<svg width="126" height="119" viewBox="0 0 126 119" fill="none" xmlns="http://www.w3.org/2000/svg">
<path d="M33.4873 12.9855C33.7817 13.1917 34.0761 13.3979 34.3705 13.604C34.5693 13.7881 34.8342 14.171 35.033 13.8396C35.2538 13.4789 35.1213 13.0003 34.6502 12.7573C34.5766 12.529 34.5104 12.3008 34.4368 12.0799C34.3264 8.58261 35.4231 5.34299 36.7259 2.18436C37.8005 -0.429416 39.464 -0.657663 41.5543 1.28611C42.813 2.46415 43.3355 3.9146 43.5048 5.5565C43.5932 6.42531 43.652 7.29412 43.7257 8.2071C44.2998 8.58996 44.6899 8.17766 45.1315 7.80953C46.6993 6.52104 48.4879 6.1087 50.5046 6.40321C52.6907 6.71981 53.5224 7.66226 53.5813 9.87109C53.6475 12.3597 52.4625 14.3182 51.1376 16.2472C50.8653 16.6448 50.615 17.0792 50.2544 17.3737C49.3417 18.1248 49.3932 18.8021 50.2544 19.5384C50.615 19.8476 50.9242 20.2157 51.248 20.5692C54.5749 24.1843 52.3815 29.4487 48.0757 30.7151C46.9642 31.0464 46.0516 30.3911 45.0505 30.1629C44.6383 29.537 43.998 29.3088 43.3135 29.1468C42.6878 28.4841 41.466 28.8449 41.0538 27.8289C40.7299 27.1221 40.3693 26.5477 39.5449 27.2987C38.1906 30.3764 36.7111 33.3878 34.2748 35.788C33.7228 36.3329 33.2002 37.0102 32.2802 36.966C31.9784 36.8851 31.6766 36.7672 31.3675 36.7231C29.1961 36.3697 28.5484 35.707 28.2319 33.6307C28.1509 33.0932 28.4233 32.519 28.0773 32.0109C28.5705 28.7787 29.888 25.8998 32.1256 23.1314C30.6167 22.6087 29.3433 22.1669 28.07 21.7251C27.5327 20.7606 26.7745 20.0906 25.6631 19.8624C25.3319 18.9862 24.8976 18.1247 24.6915 17.2191C23.8598 13.5156 26.2446 10.924 29.9469 11.4467C30.2487 11.6897 30.5873 11.8075 30.9847 11.756C31.6987 12.0946 32.4126 12.4333 33.134 12.772C33.1855 12.9561 33.2738 13.0813 33.4873 13.0076V12.9855ZM37.8667 18.3162C37.5061 19.5089 38.0581 20.5986 39.2137 20.9741C40.0675 21.2539 41.0023 20.7827 41.3114 19.9139C41.6942 18.8389 41.098 17.5504 40.0528 17.1823C38.934 16.7847 38.22 17.1528 37.8741 18.3162H37.8667Z" fill="#B56A4E"/>
<path d="M22.741 61.8154C23.2784 61.9847 23.7126 62.3013 24.1322 62.6695C25.7147 64.0758 27.5842 65.0329 29.417 66.0343C29.3581 66.9251 30.0868 67.2565 30.6388 67.6688C32.9132 69.3843 35.4305 70.717 38.2127 71.2545C41.179 71.8288 44.2041 72.1012 47.5678 73.5001C46.6625 71.225 46.8759 69.2444 45.8234 67.5805C44.7782 65.9386 44.3513 64.0463 43.5785 62.3013C42.5333 59.9526 41.3556 57.6481 39.8394 55.6086C38.6396 53.9888 37.4546 52.3984 36.5934 50.5872C36.2107 49.7846 35.931 48.9453 34.9373 48.695L34.952 48.7318C35.3495 47.5243 34.0982 47.0973 33.767 46.2358C33.6566 45.8603 33.3769 45.6394 33.0678 45.4406V45.4259C32.4053 44.3141 31.3454 44.3435 30.2561 44.4466C29.0858 43.9091 27.6578 43.9092 26.7672 42.7827C26.0753 41.6635 24.7799 41.7003 23.7641 41.2144C19.0682 38.9982 17.5519 36.0531 18.6634 31.0243C19.2228 28.4768 18.9283 28.4547 16.3522 26.349C15.5205 25.6716 14.6004 25.0531 13.7466 24.3684C14.1367 23.1904 14.5194 22.0123 14.9022 20.8343C16.4258 21.8577 17.9494 22.8811 19.4804 23.9045C19.8263 24.442 20.1943 24.9206 20.8715 24.3021C21.9903 22.2994 23.3299 20.5324 25.6779 19.8477C26.7819 20.0759 27.5474 20.7385 28.0847 21.7104C26.5832 22.778 24.9418 23.6837 23.8598 25.2519C22.9619 26.5404 22.9471 27.0926 24.0954 28.1749C25.4423 29.4413 26.5243 30.9728 28.0921 32.0036C28.438 32.5116 28.1657 33.0786 28.2467 33.6234C28.5558 35.6997 29.2109 36.3623 31.3822 36.7157C31.6913 36.7673 31.9931 36.8777 32.2949 36.9587C32.5967 38.0189 33.2076 38.8951 33.951 39.6829C34.0025 39.9259 34.0982 40.1321 34.3853 40.1615C35.6145 41.5531 36.4168 43.2391 37.4693 44.719C39.0518 46.9426 40.2736 49.3871 41.9224 51.5517C44.344 54.7398 46.3386 58.1708 47.5826 61.9847C48.2229 63.958 49.7097 65.5483 50.0115 67.6614C50.328 69.8703 51.4394 71.8803 51.6602 74.1259C51.7633 75.2009 52.3668 76.0108 53.2059 76.7176C56.9818 79.8763 56.7316 84.1466 56.3415 88.4391C54.31 90.2283 55.7306 92.1647 56.0397 94.0864C56.2016 95.1025 56.842 96.0449 56.5476 97.1272C55.5539 99.0489 55.6864 101.265 54.9356 103.246C54.1333 102.87 53.9714 102.038 53.5887 101.361C53.861 100.779 53.9567 100.242 53.7727 99.5422C52.7275 95.4927 51.8001 91.4137 50.0336 87.5998C49.8054 87.1139 50.0704 86.6647 50.0557 86.1935C50.1366 85.9284 50.0115 85.7444 49.8128 85.5897C49.798 84.581 49.2681 83.5871 49.7612 82.571L49.8717 82.5195C50.5488 82.8066 50.9316 83.4546 51.4909 83.8743C52.1681 84.3896 52.8747 84.9713 53.7948 84.3234C54.126 83.5797 54.1481 82.8729 53.5077 82.2618C53.596 81.8937 53.677 81.5255 53.3752 81.2016C53.4856 80.6052 53.596 79.9425 53.228 79.4492C52.7349 78.7866 52.5435 79.3314 52.4036 79.7806C51.594 79.6039 51.6529 78.8234 51.3585 78.2933C51.145 77.9104 50.8138 77.6748 50.3722 77.7852C50.0041 77.8736 50.0115 78.2344 49.9747 78.5657C49.8643 79.6775 49.7244 80.7892 49.592 81.901L49.5404 81.9157C49.062 81.0985 48.5247 80.3107 48.4732 79.302C48.3333 76.7986 46.898 75.4439 44.5206 74.9653C44.1305 74.8843 43.7478 74.7738 43.365 74.6781C42.8571 74.4278 42.3419 74.2437 41.7825 74.5088C41.4955 74.4499 41.2158 74.391 40.9287 74.3321C40.4208 74.0891 39.9056 73.9198 39.3536 74.1996C39.2211 74.148 39.0886 74.1186 38.9487 74.1259C36.6596 73.3381 34.3779 72.5503 32.0888 71.7699C31.8238 71.6447 31.5515 71.5195 31.2865 71.3944C31.0142 70.8348 30.5063 70.6654 29.9543 70.5403C28.968 70.1868 28.1436 69.6347 27.4444 68.8248C25.803 66.9252 23.8083 65.3127 22.7999 62.9198C22.7852 62.559 22.7705 62.1909 22.7631 61.8301L22.741 61.8154ZM21.924 31.5471C21.2101 34.1093 21.4898 35.8617 23.0134 37.371C24.5002 38.8436 26.2299 39.9848 28.0038 41.0671C28.6294 41.4426 29.3434 41.8844 30.4474 41.4573C27.8345 37.9674 25.2657 34.7205 21.924 31.5545V31.5471ZM54.3321 85.5529C54.0377 86.8046 54.2045 88.0244 54.8326 89.2123C54.6339 87.725 54.4793 86.6353 54.3321 85.5529Z" fill="#929499"/>
<path d="M96.3164 72.1524C95.6098 71.7033 95.1535 71.0775 94.918 70.2676C94.7045 69.5387 94.1819 69.0159 93.6004 68.5962C91.0243 66.7335 90.2367 63.7662 91.9738 61.1966C93.0558 59.5989 93.1367 57.9276 93.1147 56.1826C93.0926 54.0989 93.1294 52.0374 93.3723 49.9611C93.5784 48.1719 94.1746 46.773 95.5436 45.6686C96.6698 45.7054 97.288 44.8219 98.3847 44.277C97.7959 43.9972 97.45 43.8279 97.104 43.6586C99.0177 43.6733 100.644 42.3406 102.588 42.4731L102.632 42.5542C103.213 43.769 104.516 43.6512 105.51 43.9972C108.476 45.028 110.184 46.8908 110.235 50.1525C110.272 52.4497 110.824 54.688 111.229 56.941C111.383 57.7951 111.715 58.038 112.524 57.6993C113.599 57.2502 113.959 57.8613 114.114 58.8037C114.342 60.2027 114.254 61.5206 113.245 62.6324C112.024 63.9871 110.758 65.2609 111.192 67.4182C111.369 68.3091 109.896 69.5755 108.91 69.8258C106.974 70.3191 105.267 69.5976 103.596 68.8171C102.146 68.1324 102.175 68.0735 101.233 69.5902C100.379 69.7301 99.82 70.0246 100.468 70.9891C99.1797 71.7254 97.9284 72.5795 96.3164 72.1598V72.1524Z" fill="#DBBCA5"/>
<path d="M25.9282 104.475C25.148 103.931 24.3678 103.393 23.617 102.87C23.6686 101.957 24.6401 102.576 24.9419 101.817C24.4635 101.221 23.8378 100.588 23.3962 99.7927C22.8221 98.7398 21.2396 98.5263 19.9662 98.4453C18.8107 98.379 17.7802 98.0109 16.7497 97.5765C16.4185 97.4366 16.2639 97.1494 16.3228 96.8107C16.3891 96.4721 16.6393 96.2733 17 96.2659C17.4784 96.2512 18.0084 96.1187 18.4279 96.2733C20.5551 97.0537 22.8147 96.4647 24.9493 96.9727C25.7884 97.1715 26.4655 97.0906 27.1574 96.4868C28.1952 95.5886 29.4318 95.4781 30.7714 95.8389C31.8386 96.126 32.9574 96.2512 34.0541 96.4205C34.5252 96.4942 34.7681 96.1555 34.9668 95.7874C36.3138 95.353 37.2191 94.521 37.4399 93.0705C37.8816 92.6876 38.2128 92.1501 38.8384 92.0103C41.3483 92.8717 42.9897 94.9627 44.9255 96.5678C46.5227 97.8931 48.12 98.9313 50.0705 99.5129C50.8433 99.7412 51.5941 100.036 52.3522 100.293C52.7497 100.647 53.1471 101 53.5446 101.354C53.9273 102.031 54.0966 102.863 54.8916 103.238C54.6634 104.726 55.3479 106.051 55.6202 107.45C55.9073 108.922 56.4961 110.366 55.9662 111.897C54.1555 111.227 52.4185 110.344 50.5195 109.916L50.4974 109.902C50.2618 109.703 50.0631 109.408 49.7908 109.327C47.0232 108.451 44.241 107.605 41.4588 106.765C40.9288 106.603 40.3915 106.463 39.8321 106.684L39.6186 106.603H39.3831C38.5587 106.301 37.808 105.668 36.8364 106.08C35.6955 105.352 34.3559 105.727 33.1488 105.418C30.8892 104.969 28.6957 103.975 26.3036 104.571L26.2815 104.586C26.1564 104.549 26.0313 104.52 25.9061 104.483L25.9282 104.475Z" fill="#675F35"/>
<path d="M52.367 100.293C51.6089 100.028 50.8508 99.741 50.0853 99.5128C48.1348 98.9311 46.5376 97.9004 44.9403 96.5677C43.0119 94.9626 41.3705 92.8642 38.8533 92.0101C36.3507 90.2873 34.3045 87.8134 31.0806 87.2611C30.1753 87.1065 29.373 86.304 28.3646 86.8341C27.1649 85.7739 25.3542 85.5014 24.2207 83.6534C25.6045 83.7933 26.6055 83.889 27.6065 84.0068C27.9892 84.051 28.5781 84.3087 28.6517 83.8228C28.9387 81.8937 30.0575 82.9392 30.9408 83.1012C31.3014 83.1674 31.7063 83.4252 32.0522 82.7625C30.8304 81.9452 29.6085 81.1574 28.21 80.5979C26.5834 79.9426 24.6255 79.4492 23.573 78.227C22.0935 76.4968 20.8496 77.3877 19.4879 77.5423C19.326 78.6173 20.224 79.1032 20.2755 79.8468C18.8917 81.7243 17.2283 81.5844 15.3587 80.7966C13.6952 80.0972 11.9508 79.5818 10.2358 78.9928C11.7889 80.4138 14.0118 80.3402 15.6016 81.7538C15.1894 82.144 14.9097 82.122 14.7404 81.9821C13.6952 81.1133 12.6206 80.7009 11.1927 81.1059C10.361 81.3415 9.40411 80.9734 8.85944 80.1855C8.52086 79.6996 8.20436 79.2799 7.63024 79.1179C5.14241 78.3964 3.11829 76.7398 0.785028 75.7016C0.439087 75.547 -0.054061 75.4734 0.00482255 74.9433C0.0637061 74.4573 0.512693 74.2806 0.895436 74.3395C1.94798 74.5015 2.75763 73.964 3.62616 73.5517C4.2886 73.2425 4.93632 72.889 5.65028 73.4339C5.93734 73.6547 6.1876 73.5591 6.51146 73.4265C7.82898 72.8743 9.17594 72.3957 10.5155 71.8877H10.4935C10.9424 72.0718 11.3767 72.3516 11.8919 72.1749C13.445 71.9392 14.8803 72.5283 16.3597 72.808L16.5732 72.9038H16.8087C18.5458 73.7947 20.3565 74.4941 22.2334 75.0095C23.043 75.9667 24.3017 75.8341 25.3174 76.298C25.5456 76.6293 25.8473 76.7913 26.2522 76.7324L26.4656 76.8134L26.6938 76.7986C29.0565 78.6614 31.8314 79.8763 34.2456 81.6802C36.3213 83.2337 38.1761 85.0302 40.2076 86.6206C42.5776 88.476 44.3294 91.0162 46.8467 92.7022C47.6858 93.2692 48.0391 94.1895 48.6132 94.9331C49.9528 96.6487 51.1231 98.5041 52.3597 100.301L52.367 100.293ZM7.40943 78.2786C7.3211 78.1681 7.26222 78.0135 7.15181 77.9693C7.03405 77.9252 6.87948 77.9914 6.73963 78.0061C6.82795 78.1166 6.88684 78.2712 6.99725 78.3154C7.10765 78.3595 7.26958 78.2933 7.40943 78.2786ZM32.0964 85.1848C32.0228 85.1848 31.9492 85.1628 31.8829 85.1848C31.8608 85.1922 31.8756 85.3026 31.8682 85.3615C31.9418 85.3615 32.0154 85.3836 32.0816 85.3615C32.1037 85.3615 32.089 85.2437 32.0964 85.1848Z" fill="#816E43"/>
<path d="M97.1039 43.6512C97.4499 43.8205 97.7958 43.9825 98.3846 44.2696C97.2879 44.8145 96.6697 45.6907 95.5435 45.6612L95.4037 45.6391C94.4026 44.5862 93.144 44.2402 91.7308 44.3433C90.1262 43.8574 88.5437 43.3051 86.8729 43.0106C85.2242 42.7161 83.6049 42.186 82.1917 41.1994C81.3967 40.6398 80.8079 40.7355 80.1528 41.5233C77.5472 44.6599 74.8901 47.7301 72.7408 51.2275C69.8629 55.9102 68.2215 61.1083 66.2857 66.1812C65.9987 66.9322 65.7484 67.6906 65.4834 68.449C64.0629 72.1377 63.0103 75.9737 61.4352 79.6698C60.5372 79.1618 60.655 78.5507 60.655 78.0279C60.655 75.7013 60.7875 73.3894 61.4573 71.1511C61.656 70.4884 61.7959 69.8921 61.0156 69.5166C61.0009 69.3767 61.0304 69.2515 61.0966 69.1337C63.4372 64.8044 65.4246 60.3205 66.801 55.5862C67.0439 54.6511 67.537 53.8339 67.9934 52.9872C70.3561 48.6211 73.4769 44.7998 76.5904 40.9711C78.0551 39.1746 77.8858 38.7697 75.5893 38.3794C75.3612 38.3426 75.1109 38.3942 74.8754 38.4089C75.1845 37.5548 75.4936 36.7081 75.8028 35.854C75.9647 35.8319 76.134 35.8099 76.2959 35.7878C76.7523 35.9497 77.2086 36.1043 77.665 36.2663C78.1213 36.4283 78.5703 36.5903 79.0267 36.7449C79.1739 36.8333 79.3137 36.9216 79.4609 37.0026C80.3221 37.113 80.7196 36.4062 81.2495 35.9645C83.7005 33.9103 86.262 32.0254 89.1546 30.6265C93.4237 28.5575 97.6854 26.4665 101.954 24.3828C102.33 24.508 102.698 24.6258 103.073 24.751C97.84 28.5207 92.0473 31.4363 86.895 35.346C85.9455 36.0675 84.9077 36.6713 83.9582 37.3928C83.0823 38.0629 83.1411 38.7549 84.179 39.1599C86.9318 40.2348 89.6993 41.2877 92.6067 41.9135C93.1219 42.3553 93.7623 42.4732 94.4026 42.5983C94.7044 42.7088 94.9988 42.8192 95.3006 42.9296C95.4552 42.9959 95.6097 43.0622 95.7643 43.1284L97.1039 43.6365V43.6512Z" fill="#929499"/>
<path d="M103.081 24.7659C102.705 24.6407 102.33 24.5229 101.962 24.3977C99.3857 23.5437 98.9588 21.3938 99.0987 19.1702C99.2901 16.1294 100.46 13.2726 101.366 10.3864C101.822 8.92124 103.257 8.09661 104.487 7.21308C105.296 6.63878 106.106 6.16755 106.592 5.10732C107.276 3.62004 110.92 2.68497 112.141 3.61268C112.863 4.15752 113.238 5.15148 113.775 5.94666C114.57 6.21908 114.747 6.92591 114.997 7.61065C115.306 8.45737 116.41 7.71373 116.852 8.531C116.19 9.48815 115.196 9.34091 114.291 9.18629C113.304 9.01695 112.377 9.23782 111.435 9.36299C110.956 9.42926 110.404 9.62802 110.574 10.2539C110.927 11.5423 109.852 10.8724 109.462 11.1227C109.366 10.8797 109.411 10.438 108.925 10.7472C109.102 10.8724 109.286 10.9975 109.462 11.1227C108.152 12.6615 106.349 13.5745 104.737 14.7231C104.141 15.1501 103.53 15.5477 103.176 16.1882C102.764 16.954 103.25 17.7492 104.074 17.6314C104.943 17.5062 106.017 17.5062 106.606 16.9982C108.608 15.2679 110.956 16.0778 113.128 15.6066C113.157 15.8864 113.201 15.9895 113.164 16.0263C112.487 16.7699 111.692 17.3663 111.869 18.6401C112.105 20.3335 113.304 20.0095 114.364 20.1273C115.093 20.2083 115.328 20.6059 115.034 21.3054C114.872 21.6809 114.166 21.9386 114.754 22.4834C116.933 21.8797 117.043 21.7913 117.375 20.5029C117.689 19.2659 118.55 18.726 119.958 18.883C119.399 21.9901 117.64 24.1695 114.769 25.4285C114.269 25.6494 113.709 25.8188 113.164 25.8409C109.757 25.9734 106.356 25.8997 103.081 24.7659Z" fill="#DCB996"/>
<path d="M119.958 18.8829C118.55 18.7258 117.689 19.2658 117.375 20.5027C117.051 21.7912 116.94 21.8722 114.754 22.4833C114.158 21.9311 114.872 21.6734 115.034 21.3052C115.328 20.6058 115.093 20.2082 114.364 20.1272C113.304 20.0094 112.105 20.3334 111.869 18.6399C111.692 17.3662 112.487 16.7772 113.164 16.0261C113.201 15.9893 113.157 15.8863 113.128 15.6065C110.956 16.0703 108.608 15.2604 106.606 16.998C106.017 17.5061 104.943 17.5061 104.074 17.6312C103.25 17.749 102.764 16.9538 103.176 16.1881C103.522 15.5402 104.141 15.1426 104.737 14.7229C106.349 13.567 108.145 12.6614 109.462 11.1226C109.86 10.8722 110.927 11.5422 110.574 10.2537C110.404 9.62789 110.956 9.42912 111.435 9.36286C112.377 9.23769 113.304 9.01682 114.291 9.18616C115.196 9.34078 116.19 9.48802 116.852 8.53086C116.418 7.7136 115.306 8.45724 114.997 7.61052C114.747 6.92578 114.57 6.21895 113.775 5.94653C116.219 4.87156 118.744 5.60048 119.818 7.97866C120.525 9.5322 121.504 10.3347 123.101 10.7912C125.088 11.3655 125.95 12.7424 125.986 14.7524C126.038 17.3367 124.087 18.7872 121.217 18.2202C120.495 18.0803 119.958 17.8669 119.958 18.8903V18.8829Z" fill="#DBBCA5"/>
<path d="M61.0229 69.5095C61.8031 69.885 61.6632 70.4814 61.4645 71.144C60.7947 73.3897 60.6548 75.7016 60.6622 78.0209C60.6622 78.5436 60.5444 79.1547 61.4424 79.6627C63.0175 75.9666 64.0701 72.1306 65.4906 68.4419C65.5716 70.5476 65.13 72.6019 64.5853 74.5825C62.9955 80.3549 62.8041 86.2377 62.7305 92.15C62.3036 92.0911 61.8546 92.0985 61.8767 92.658C61.9061 93.49 61.6411 94.2263 61.332 94.9699C61.2363 95.1908 61.1259 95.2129 60.9713 94.992C60.7579 94.7417 61.3614 94.241 60.6475 93.9981C60.3015 95.5516 59.3888 96.9211 59.4772 98.5998C59.514 99.2624 59.2416 99.8882 58.351 99.8146C58.2259 99.0563 58.1008 98.2979 57.983 97.5469C57.8137 93.2838 57.7695 89.0282 58.3584 84.7946C58.4909 83.8374 58.4761 82.9023 58.5129 81.9525C58.6454 77.6601 59.5508 73.5222 61.0376 69.5021L61.0229 69.5095Z" fill="#A98D90"/>
<path d="M58.3439 99.8295C59.2345 99.9032 59.4995 99.2699 59.4701 98.6147C59.3817 96.9359 60.2944 95.5665 60.6404 94.0129C61.3543 94.2559 60.7508 94.7566 60.9642 95.0069C61.1188 95.2278 61.2366 95.2131 61.3249 94.9848C61.634 94.2485 61.899 93.5049 61.8696 92.6729C61.8475 92.1133 62.2965 92.106 62.7234 92.1649C62.6866 92.4299 62.6498 92.7024 62.6203 92.9674C62.5467 93.2399 62.6056 93.4828 62.7896 93.6963C62.9442 99.0491 63.3343 104.372 64.2544 109.651C64.615 111.698 64.4163 113.819 65.0566 115.836C65.2039 116.315 65.0419 116.793 64.8653 117.242C64.7769 117.463 64.6886 117.714 64.512 117.854C64.35 117.986 63.9011 118.06 63.8863 118.023C63.1871 116.499 61.163 118.207 60.5373 116.646C60.2503 115.925 60.4637 115.012 59.6614 114.496C59.9559 113.149 60.1325 111.816 58.9401 110.756V110.778C59.0726 110.476 59.1904 110.174 59.3155 109.88C61.2219 109.283 62.3774 108.076 62.7087 106.279C61.3543 106.67 60.6772 108.127 59.264 108.348C59.1388 108.245 58.9916 108.179 58.8297 108.157V108.179C58.9107 107.192 59.183 106.169 58.2556 105.396V105.425C58.4028 104.777 58.8297 104.056 57.814 103.71V103.739C58.734 102.532 58.0495 101.111 58.3513 99.8295H58.3439Z" fill="#8A8E93"/>
<path d="M75.8103 35.8616C75.5011 36.7157 75.192 37.5624 74.8829 38.4165C70.5255 38.9098 67.4856 41.4131 64.8211 44.7117C62.5835 47.4874 60.7729 50.3589 61.2513 54.0623C61.5163 56.1165 61.4353 58.2149 62.0168 60.2397C62.2302 60.9981 62.0168 61.8963 62.7749 62.5295C64.0924 60.0851 65.0493 57.6038 66.8084 55.5864C65.4247 60.3207 63.4374 64.7973 61.1041 69.1339C61.8401 65.8133 60.4417 62.7504 59.8528 59.6139C59.1683 55.9472 58.6236 52.2585 59.7424 48.717C60.4785 46.3756 61.5384 43.9827 63.5551 42.2525C64.328 41.5898 64.9463 40.7358 65.6381 39.97C68.3615 36.9366 71.7841 35.6555 75.8176 35.869L75.8103 35.8616Z" fill="#A98D90"/>
<path d="M59.2565 108.348C60.6623 108.127 61.3468 106.669 62.7012 106.279C62.3699 108.076 61.2144 109.283 59.308 109.879C58.5646 109.924 58.5278 110.262 58.94 110.778V110.756C58.3364 112.022 58.3879 113.244 59.1976 114.407C58.7339 114.739 58.41 115.181 58.1156 115.667C57.858 116.094 57.3943 116.307 56.8643 116.13C56.2387 115.924 55.9222 115.446 56.0473 114.835C56.2313 113.922 55.959 113.097 55.7455 112.25C55.8339 112.132 55.9148 112.007 55.9884 111.882C56.511 110.351 55.9296 108.9 55.6425 107.435C55.3702 106.036 54.6783 104.711 54.9138 103.223C55.6719 101.243 55.5395 99.0267 56.5258 97.105C56.7392 97.5173 56.9527 97.9296 57.1735 98.3419C57.4826 100.124 56.9453 102.009 57.8212 103.724V103.695C57.8874 104.284 57.8506 104.91 58.2628 105.41V105.381C58.1377 106.375 57.7181 107.435 58.8443 108.164L58.8369 108.142C58.6603 108.392 58.5572 108.804 58.7854 108.9C59.0798 109.011 59.1682 108.591 59.2712 108.341L59.2565 108.348Z" fill="#A98D90"/>
<path d="M59.1977 114.415C58.3807 113.252 58.3292 112.03 58.9327 110.763C60.1325 111.823 59.9485 113.149 59.6541 114.503C59.4921 114.518 59.3449 114.489 59.1977 114.423V114.415Z" fill="#746B3E"/>
<path d="M68.479 104.387C68.6778 104.622 68.8839 104.858 69.0826 105.094C68.9133 105.557 68.8544 106.102 68.2729 106.294C68.3392 105.66 68.4054 105.02 68.479 104.387Z" fill="#927150"/>
<path d="M106.915 71.7034C106.65 72.1378 106.65 72.7416 105.995 73.095C106.142 72.2409 105.995 71.3942 107.033 71.1733C106.996 71.35 106.952 71.5267 106.915 71.7034Z" fill="#DFC1AC"/>
<path d="M67.8386 107.766C68.1109 108.267 67.868 108.716 67.6914 109.165C67.4558 108.664 67.5073 108.201 67.8386 107.766Z" fill="#927150"/>
<path d="M102.595 42.4659C102.735 42.3039 102.874 42.1493 103.014 41.9873C103.051 42.0536 103.125 42.1198 103.117 42.1714C103.073 42.4364 102.874 42.5174 102.639 42.5395L102.595 42.4585V42.4659Z" fill="#DBBCA5"/>
<path d="M106.916 71.7034C106.952 71.5267 106.996 71.35 107.033 71.1733C107.055 71.3059 107.1 71.4458 107.1 71.5783C107.1 71.6225 106.982 71.6666 106.916 71.7034Z" fill="#E1E3E4"/>
<path d="M79.4606 37.0176C79.3134 36.9292 79.1736 36.8409 79.0264 36.7599C79.3134 36.6126 79.4386 36.7304 79.4606 37.0176Z" fill="#E1E3E4"/>
<path d="M49.7322 82.5635C49.5261 82.3868 49.4525 82.1733 49.5187 81.9082L49.5703 81.8936C49.666 82.0997 49.7543 82.3058 49.85 82.512L49.7396 82.5635H49.7322Z" fill="#929499"/>
<path d="M49.7837 85.5752C49.9824 85.7298 50.1076 85.9139 50.0266 86.1789C49.9456 85.9728 49.8647 85.774 49.7837 85.5752Z" fill="#E1E3E4"/>
<path d="M62.7822 93.6962C62.6055 93.4827 62.5466 93.2397 62.6129 92.9673C62.7895 93.1808 62.8778 93.4164 62.7822 93.6962Z" fill="#A98D90"/>
<path d="M67.6471 109.732C67.809 109.939 67.8164 110.159 67.6839 110.388C67.5072 110.182 67.4925 109.961 67.6471 109.732Z" fill="#927150"/>
<path d="M67.8977 110.888C68.0008 111.028 68.0155 111.175 67.9419 111.33C67.8609 111.19 67.8462 111.043 67.8977 110.888Z" fill="#927150"/>
<path d="M49.8422 82.5047C49.7465 82.2986 49.6582 82.0924 49.5625 81.8863C49.695 80.7745 49.8348 79.6627 49.9452 78.5509C49.9747 78.2196 49.9747 77.8662 50.3427 77.7705C50.777 77.66 51.1156 77.8956 51.329 78.2785C51.6234 78.816 51.5645 79.5964 52.3742 79.7658C52.6318 80.0088 52.6981 80.3106 52.6465 80.6493C52.0724 81.6875 51.8737 82.6299 53.2942 83.16C53.4488 83.5429 53.6107 83.9184 53.7653 84.3012C52.8453 84.9565 52.1387 84.3675 51.4615 83.8521C50.9021 83.4324 50.5194 82.7845 49.8422 82.4974V82.5047Z" fill="#A98D90"/>
<path d="M54.3324 85.5527C54.4796 86.6424 54.6268 87.7248 54.8329 89.2121C54.2048 88.0242 54.0379 86.8044 54.3324 85.5527Z" fill="#DFC1AC"/>
<path d="M53.7655 84.3087C53.6109 83.9258 53.449 83.5503 53.2944 83.1675C53.3607 82.8582 53.4343 82.549 53.5079 82.2397L53.4784 82.2545C54.1188 82.8656 54.0967 83.565 53.7655 84.3161V84.3087Z" fill="#DAB9A0"/>
<path d="M53.3457 81.1866C53.6475 81.5106 53.5592 81.8787 53.4782 82.2469L53.5077 82.2321C53.2427 81.9082 53.2795 81.5474 53.3752 81.1719H53.3457V81.1866Z" fill="#E1E3E4"/>
<path d="M109.447 11.1153C109.271 10.9901 109.087 10.865 108.91 10.7398C109.389 10.4306 109.344 10.8797 109.447 11.1153Z" fill="#DBBCA5"/>
<path d="M58.9401 110.785C58.5279 110.27 58.5647 109.931 59.3081 109.887C59.1829 110.189 59.0652 110.49 58.9401 110.785Z" fill="#746B3E"/>
<path d="M53.3756 81.1795C53.2726 81.5476 53.2432 81.9084 53.5081 82.2397C53.4345 82.5489 53.3683 82.8582 53.2947 83.1674C51.8815 82.6373 52.0729 81.6949 52.6543 80.6567C52.8972 80.8334 53.1401 81.0101 53.383 81.1868L53.3756 81.1795Z" fill="#929499"/>
</svg>
