<svg width="135" height="101" viewBox="0 0 135 101" fill="none" xmlns="http://www.w3.org/2000/svg">
<path d="M73.7837 14.0414C74.4314 14.6157 75.1601 15.293 75.2337 16.125C75.3294 17.2074 76.1537 17.5092 76.7352 18.0909C76.9266 18.2823 77.2652 18.4075 77.4786 18.2234C77.7951 17.9436 77.5743 17.6344 77.3388 17.3988C77.1916 17.2515 76.9928 17.1411 77.0076 16.8907C77.0959 16.7214 77.2725 16.6478 77.405 16.7214C78.7962 17.4135 80.1946 18.0909 81.549 18.8493C82.0053 19.107 82.5868 19.5119 82.6972 19.9463C83.2419 22.1625 85.2733 23.0387 86.6718 24.4376C88.6812 26.4476 91.0734 28.0527 93.1785 29.9891C93.966 30.7107 95.3204 30.9683 96.4612 31.1082C98.0732 31.307 99.1331 32.1611 99.9427 33.4202C100.465 34.2227 101.128 34.8117 101.974 35.2019C102.431 35.4081 102.872 35.6511 103.122 36.0634C104.087 37.6685 105.772 38.3827 107.222 39.3472C108.289 40.054 109.364 40.7461 110.402 41.5045C111.55 42.3438 112.809 43.1169 114.207 43.5808C114.826 43.7869 115.164 43.6102 115.157 42.9476C115.142 42.3365 115.635 41.6738 115.017 41.1069C115.032 40.7608 115.054 40.4221 115.068 40.0761C115.23 39.8773 115.584 39.627 115.348 39.4208C114.193 38.39 113.383 37.0279 112.102 36.1223C111.933 36.0045 111.712 35.953 111.513 35.872C111.454 35.7321 111.388 35.5848 111.329 35.4449C111.373 35.3492 111.41 35.2461 111.454 35.1504C113.074 35.5701 114.244 36.7776 115.51 37.7127C116.349 38.3311 117.122 38.5299 117.968 38.4784C118.955 38.4268 119.661 38.7066 120.154 39.5165C120.449 39.9951 120.707 40.3338 121.251 39.8037C121.862 39.2073 121.965 38.6035 121.406 38.1397C120.913 37.7347 120.353 37.3961 119.794 37.0721C119.396 36.8439 119.242 36.5641 119.47 36.1518C119.742 35.6658 120.022 36.0781 120.258 36.1959C120.67 36.4095 121.097 36.3505 121.524 36.3211C122.046 37.2414 122.848 37.9409 123.364 38.8981C123.71 39.5533 123.908 40.2749 124.298 40.886C126.352 44.1256 127.927 47.6303 129.885 50.9141C130.658 52.2099 130.982 53.6678 131.696 54.971C132.792 56.981 133.182 59.2634 134.11 61.3397C134.301 61.7668 134.264 62.2969 133.661 62.5399C133.315 62.6798 133.006 62.9301 132.653 63.0479C132.321 63.1584 132.078 63.1804 131.747 62.7681C130.724 61.487 129.51 60.3752 128.266 59.2929C126.845 58.056 125.756 56.4288 124.394 55.1624C122.841 53.7266 121.663 51.8713 119.669 50.8699C118.307 50.1925 117.174 49.0513 115.804 48.4034C113.802 47.4536 111.948 46.2534 109.99 45.2226C108.459 44.4127 106.913 43.6765 105.264 43.0948C103.645 42.5279 101.989 42.0862 100.406 41.4456C98.9196 40.8418 97.5138 40.0393 95.9902 39.5165C93.2153 38.5667 90.9482 36.7628 88.6444 35.062C86.3332 33.3612 84.2061 31.4101 82.0347 29.5253C81.1073 28.7227 80.0327 27.9349 79.4733 26.9041C78.4576 25.034 77.3461 23.208 76.3525 21.3231C75.0938 18.9229 74.0413 16.3754 72.2969 14.2475C72.7164 13.6217 73.2685 13.5701 73.791 14.034L73.7837 14.0414ZM129.657 56.716C129.804 56.7749 129.966 56.7822 130.025 56.6055C130.121 56.3036 129.878 56.149 129.701 55.9797C129.517 55.803 129.451 55.9797 129.37 56.1048C129.281 56.392 129.377 56.6055 129.657 56.716Z" fill="#6F653A"/>
<path d="M111.329 35.4374C111.374 35.3417 111.41 35.2387 111.455 35.143C111.705 33.4937 112.927 34.5318 113.641 34.4435C113.928 33.9354 113.626 33.6188 113.515 33.2728C113.199 32.2567 113.648 31.6972 114.671 31.9181C115.245 32.0432 115.783 32.2862 116.261 32.6764C117.012 33.2801 117.807 33.825 118.587 34.3993C118.771 34.5318 118.999 34.6496 119.176 34.495C119.426 34.2815 119.338 33.9796 119.124 33.7882C118.366 33.1034 117.586 32.4187 116.658 31.999C115.805 31.6162 115.334 30.983 114.914 30.1952C114.472 29.3558 114.156 28.3692 113.287 27.8612C112.713 27.5225 112.294 27.0513 111.823 26.6169C110.645 25.5419 109.43 24.5111 108.216 23.4729C108.069 23.3478 107.789 23.2079 107.642 23.2668C106.619 23.657 106.059 22.8471 105.382 22.398C104.83 22.0372 104.308 21.6102 103.623 21.7795C103.108 21.912 102.57 22.0446 102.423 21.4408C102.276 20.8592 102.556 20.2113 103.027 19.8578C103.579 19.4455 103.873 20.0935 104.168 20.4174C104.558 20.8445 104.941 20.9401 105.39 20.6604C105.448 19.6001 104.44 19.5191 103.8 18.9964C104.757 18.8344 105.507 19.1068 106.258 19.4161C106.95 19.7032 107.62 20.0934 108.422 19.9241C108.503 19.7327 108.577 19.5412 108.658 19.3498C108.451 19.2688 108.253 19.1805 108.047 19.0995C107.001 18.989 106.118 18.4736 105.213 17.995C104.477 17.6048 103.778 17.0084 102.821 17.4281C102.386 17.6195 101.96 17.4134 101.636 17.0968C101.275 16.7434 100.848 16.4931 100.377 16.3973C99.3614 16.1985 98.4119 15.9629 97.904 14.9248C97.8083 14.7334 97.5654 14.6966 97.3667 14.6156C96.6233 14.3211 95.5413 15.0867 95.0481 13.8424C94.9672 13.6363 94.1943 14.0044 93.8337 13.7099C92.9283 12.9589 91.9347 13.1724 90.9263 13.3418C90.1019 13.4817 89.2996 13.4596 88.7108 12.7601C87.6803 11.5306 86.4364 10.647 84.8907 10.1979C84.1988 9.99175 83.9927 9.47633 84.1988 8.79159C82.9034 8.44554 81.6153 8.09214 80.3199 7.74609C80.261 9.17447 80.0843 9.35116 78.8625 8.83577C77.6701 8.3351 76.3747 8.3351 75.1896 7.77553C75.1455 8.28356 75.9625 8.22468 75.6975 8.71798C75.4252 9.21865 74.9615 9.0272 74.5566 8.87994C73.9973 8.67379 73.4158 8.51183 72.9079 8.21732C71.4873 7.3706 70.1845 7.9375 68.8008 8.50443C69.9196 8.9462 70.7292 9.84446 71.8259 10.2568C72.2676 10.4188 72.6061 10.6397 72.4516 11.1992C73.5556 11.641 74.6597 12.0828 75.7638 12.5245C75.9699 12.5834 76.2128 12.7381 76.382 12.6792C77.7658 12.1564 78.7668 12.6055 79.5029 13.8277C79.6206 14.0192 79.9592 14.2106 80.0255 14.1149C80.4818 13.3933 81.7625 13.6731 81.8803 12.5981C81.9171 12.2374 82.0128 11.9576 82.3808 11.8692C82.8151 11.7588 83.0432 12.0386 83.3156 12.3331C83.8308 12.8853 83.6615 13.6069 83.8014 14.3358C84.5595 14.1075 85.2808 14.8512 85.877 14.1517C86.5321 13.3933 86.9884 13.8204 87.4595 14.3137C88.3575 15.2414 89.2555 16.1691 90.1461 17.1042C90.4773 17.4576 90.7864 17.8257 91.2649 18.0024C92.2659 18.3779 93.2375 18.7461 93.9441 19.6738C94.2164 20.0272 94.9819 20.5278 95.188 19.3719C95.2689 18.908 95.659 19.0921 95.9461 19.2762C97.1679 20.0419 98.3898 20.815 99.722 21.3893C100.259 21.6249 100.73 21.8899 100.51 22.7219C100.377 23.2152 100.833 23.8411 101.29 24.0178C102.114 24.3344 102.541 25.0339 103.064 25.6082C103.505 26.0941 104.263 26.7126 103.513 27.5593C103.917 27.898 104.278 28.4428 104.734 28.5385C106.479 28.8993 107.141 30.5117 108.356 31.4763C108.694 31.7487 109.276 32.1978 108.856 32.6764C107.944 33.7145 108.871 34.0827 109.438 34.5686C109.975 35.0325 110.704 35.1503 111.337 35.4448L111.329 35.4374Z" fill="#916D4D"/>
<path d="M72.2894 14.2548C72.7089 13.629 73.2609 13.5775 73.7835 14.0413C74.4312 14.6156 75.1599 15.293 75.2335 16.125C75.3292 17.2073 76.1536 17.5092 76.7351 18.0908C76.9264 18.2823 77.265 18.4074 77.4785 18.2234C77.795 17.9436 77.5742 17.6343 77.3386 17.3987C77.1914 17.2515 76.9927 17.141 77.0074 16.8907C77.0957 16.7214 77.2724 16.6477 77.4049 16.7214C78.796 17.4135 80.1945 18.0909 81.5488 18.8492C82.0051 19.1069 82.5866 19.5119 82.697 19.9463C83.2417 22.1625 85.2732 23.0386 86.6717 24.4375C88.6811 26.4476 91.0732 28.0527 93.1783 29.9891C93.9659 30.7106 95.3202 30.9683 96.4611 31.1082C98.073 31.307 99.1329 32.1611 99.9425 33.4201C100.465 34.2227 101.128 34.8117 101.974 35.2019C102.43 35.408 102.872 35.6511 103.122 36.0634C104.086 37.6684 105.772 38.3826 107.222 39.3471C108.289 40.054 109.364 40.746 110.402 41.5044C111.55 42.3438 112.809 43.1169 114.207 43.5807C114.825 43.7869 115.164 43.6102 115.157 42.9475C115.142 42.3364 115.635 41.6738 115.017 41.1068C114.774 41.5412 114.759 42.2628 113.979 42.064C112.043 41.5633 110.424 40.3853 108.65 39.5238C108.223 39.3177 108.223 38.8096 108.466 38.3826C108.709 37.9408 109.092 38.0439 109.445 38.1985C110.129 38.493 110.843 38.6992 111.491 39.1115C112.212 39.5754 113.022 39.7816 113.883 39.5975C113.368 38.6182 112.522 38.0218 111.521 37.6095C110.681 36.9469 109.879 36.2622 108.93 35.7394C107.995 35.224 107.244 34.392 106.309 33.8766C105.308 33.3244 104.41 32.6691 103.49 32.0138C101.54 30.6076 101.54 30.6149 100.45 30.6443C103.453 32.7795 106.118 34.8264 108.385 37.3665C108.032 37.5727 107.884 37.4107 107.708 37.2856C106.28 36.3063 105.242 34.6865 103.269 34.5981C103.144 34.5981 103.041 34.3552 102.894 34.3037C101.989 33.9797 101.819 33.0741 101.304 32.4409C100.774 31.7929 99.5892 32.0433 98.9489 31.2555C98.4705 30.6664 97.7786 30.3204 97.0352 30.0921C96.0341 29.7903 95.2098 29.2013 94.4443 28.5018C93.4065 27.5594 92.2509 26.8378 90.9628 26.212C88.8356 25.1738 87.2752 23.5172 86.9366 21.0065C86.8925 20.6605 86.7011 20.4028 86.4656 20.1819C84.964 18.805 83.4699 17.3251 81.5414 16.6257C80.1356 16.1176 78.7813 15.5065 77.4269 14.9101C76.4848 14.4978 75.4617 14.2254 74.6815 13.4891C74.284 13.3271 73.8792 13.1725 73.4817 13.0105C73.0401 13.2682 72.6574 13.0253 72.2673 12.8707C71.3251 12.5025 70.383 12.1196 69.4409 11.7441C69.382 11.9871 69.4777 12.1491 69.6985 12.2448C70.7363 12.6939 71.4282 13.5922 72.2967 14.2548H72.2894Z" fill="#75673A"/>
<path d="M108.312 20.6973C108.915 21.139 109.092 22.0079 109.857 22.2582C110.961 22.6264 111.867 23.1933 112.507 24.2241C112.816 24.7247 113.545 24.7468 114.075 25.0045C114.605 25.38 115.171 25.7187 115.252 26.455C115.252 26.8525 115.532 26.9777 115.849 27.0587C116.511 27.8612 117.056 28.7595 117.615 29.6283C119.006 31.8003 120.228 34.0828 121.524 36.3211C121.097 36.3432 120.67 36.4021 120.258 36.1959C120.015 36.0708 119.742 35.6658 119.47 36.1517C119.242 36.5641 119.396 36.8438 119.794 37.0721C120.353 37.3961 120.913 37.7273 121.406 38.1397C121.965 38.6035 121.862 39.2073 121.251 39.8036C120.707 40.3338 120.449 40.0024 120.154 39.5165C119.661 38.7066 118.955 38.4268 117.968 38.4784C117.122 38.5225 116.349 38.3311 115.51 37.7126C114.244 36.7776 113.074 35.5701 111.454 35.1504C111.705 33.5011 112.927 34.5393 113.64 34.4509C113.928 33.9429 113.626 33.6263 113.515 33.2802C113.199 32.2642 113.648 31.7046 114.671 31.9255C115.245 32.0506 115.782 32.2936 116.261 32.6839C117.012 33.2876 117.806 33.8325 118.587 34.4068C118.771 34.5393 118.999 34.6571 119.176 34.5024C119.426 34.2889 119.337 33.9871 119.124 33.7957C118.366 33.1109 117.586 32.4262 116.658 32.0065C115.804 31.6236 115.333 30.9904 114.914 30.2026C114.472 29.3633 114.156 28.3767 113.287 27.8686C112.713 27.53 112.294 27.0587 111.822 26.6243C110.645 25.5494 109.43 24.5186 108.216 23.4804C108.069 23.3552 107.789 23.2153 107.642 23.2742C106.619 23.6645 106.059 22.8546 105.382 22.4054C104.83 22.0447 104.307 21.6176 103.623 21.787C103.108 21.9195 102.57 22.052 102.423 21.4483C102.276 20.8666 102.556 20.2187 103.027 19.8653C103.579 19.453 103.873 20.1009 104.168 20.4249C104.558 20.8519 104.94 20.9476 105.389 20.6678C105.448 19.6076 104.44 19.5266 103.8 19.0038C104.756 18.8419 105.507 19.1143 106.258 19.4235C106.95 19.7107 107.62 20.1009 108.422 19.9316C108.378 20.1893 108.216 20.6163 108.312 20.6826V20.6973ZM106.118 21.3305C106.28 21.3747 106.39 21.2789 106.368 21.117C106.361 21.0507 106.243 20.955 106.17 20.955C106.103 20.955 106.037 21.0654 105.971 21.1243C106.015 21.1979 106.052 21.3158 106.111 21.3305H106.118Z" fill="#7D6D3F"/>
<path d="M84.1987 8.80661C83.9926 9.49135 84.1987 10.0067 84.8906 10.2129C86.4437 10.6694 87.6802 11.5529 88.7107 12.7752C89.2995 13.4746 90.1018 13.4967 90.9262 13.3568C91.9346 13.1875 92.9282 12.9739 93.8336 13.7249C94.1942 14.0194 94.9671 13.6513 95.048 13.8575C95.5412 15.1018 96.6158 14.3287 97.3666 14.6305C97.5727 14.7115 97.8082 14.7484 97.9039 14.9398C98.4118 15.978 99.3686 16.2136 100.377 16.4124C100.848 16.5081 101.275 16.7584 101.636 17.1118C101.959 17.4284 102.379 17.6346 102.821 17.4431C103.778 17.0308 104.477 17.6272 105.213 18.0101C106.118 18.4886 107.001 19.004 108.047 19.1145C107.392 18.5623 106.692 18.0984 105.905 17.7376C104.845 17.2517 103.858 16.5817 102.821 16.0589C101.466 15.3742 100.186 14.5864 98.6252 14.1888C97.2562 13.8427 95.9239 12.9813 94.5917 12.3113C91.8094 10.9124 88.8358 10.0215 85.9284 8.94651C85.3764 8.74035 84.7802 8.79189 84.1987 8.80661Z" fill="#867042"/>
<path d="M68.3958 9.85953C67.7996 9.44721 67.5199 8.86555 67.6451 8.06301C67.7628 7.2752 68.0793 6.85552 68.8816 7.01014C69.4116 7.11322 69.8311 7.06902 70.1108 6.56835C70.4715 6.56835 70.8469 6.39905 71.1854 6.65674C71.4504 7.0617 71.7522 7.18684 72.1202 6.77453C73.6659 5.81001 75.2116 5.95726 76.8309 6.63463C77.9571 7.10585 79.0758 7.65804 80.3271 7.76848C80.2682 9.19686 80.0916 9.3736 78.8697 8.8582C77.6774 8.35753 76.3819 8.35753 75.1969 7.79796C75.1527 8.30599 75.9697 8.24707 75.7048 8.74037C75.4324 9.24104 74.9687 9.04963 74.5639 8.90238C74.0045 8.69622 73.423 8.53422 72.9151 8.23971C71.4946 7.39299 70.1918 7.95994 68.808 8.52687C69.9268 8.96864 70.7365 9.8669 71.8332 10.2792C72.2748 10.4412 72.6134 10.6621 72.4588 11.2216C70.9425 11.2732 69.6103 10.7136 68.4032 9.87427L68.3958 9.85953ZM74.056 7.62126C74.1002 7.45928 74.0045 7.32673 73.8499 7.27519C73.6365 7.20156 73.423 7.23837 73.4083 7.49606C73.4083 7.59914 73.5776 7.70959 73.6365 7.77585C73.8646 7.82739 74.0045 7.79797 74.056 7.62126Z" fill="#867042"/>
<path d="M72.4514 11.1994C70.9352 11.2509 69.6029 10.6913 68.3958 9.85196C67.7996 9.43965 67.5199 8.85799 67.645 8.05544C67.7628 7.26763 68.0793 6.84796 68.8816 7.00258C69.4115 7.10565 69.8311 7.0615 70.1108 6.56083C69.0803 5.92027 68.0425 5.7509 66.9752 6.49454C66.8943 6.55344 66.7839 6.62706 66.6882 6.6197C65.0542 6.45035 64.2077 7.54743 63.376 8.67394C63.6189 9.35131 64.2077 8.97582 64.6273 9.09362C66.0478 9.50593 67.3948 10.0581 68.543 11.03C68.7785 11.2288 69.1171 11.3171 69.4115 11.457C70.7732 11.2582 71.8699 12.2228 73.1654 12.3406C73.4009 12.3627 73.4451 12.7455 73.4671 13.0106C73.8646 13.1726 74.2694 13.3272 74.6669 13.4892C75.1233 13.2683 75.6532 13.1358 75.7562 12.5246C74.6522 12.0829 73.5481 11.6411 72.444 11.1994H72.4514Z" fill="#7D6D3F"/>
<path d="M73.482 13.0104C73.4599 12.7453 73.4158 12.3625 73.1802 12.3404C71.8848 12.2226 70.7881 11.2654 69.4264 11.4569C69.3896 11.5526 69.397 11.6483 69.4411 11.744C70.3833 12.1195 71.3254 12.5024 72.2675 12.8705C72.6576 13.0252 73.0404 13.2681 73.482 13.0104Z" fill="#867042"/>
<path d="M71.1855 6.64909C71.4505 7.05404 71.7523 7.17919 72.1203 6.76687C71.8185 6.64907 71.5094 6.59019 71.1855 6.64909Z" fill="#7D6D3F"/>
<path d="M75.7637 12.532C75.6606 13.1431 75.1307 13.2756 74.6743 13.4965C75.4545 14.2328 76.4776 14.5052 77.4198 14.9175C78.7814 15.5213 80.1284 16.125 81.5343 16.633C83.4627 17.3325 84.9495 18.805 86.4584 20.1892C86.6939 20.4101 86.8853 20.6678 86.9295 21.0139C87.268 23.5246 88.8285 25.1812 90.9556 26.2193C92.2437 26.8452 93.3993 27.5668 94.4371 28.5092C95.21 29.2086 96.027 29.7903 97.028 30.0995C97.764 30.3204 98.4633 30.6738 98.9417 31.2629C99.5821 32.0507 100.774 31.8003 101.297 32.4482C101.812 33.0814 101.982 33.9871 102.887 34.311C103.027 34.3626 103.13 34.5982 103.262 34.6055C105.235 34.6865 106.273 36.3137 107.701 37.293C107.877 37.4108 108.017 37.5801 108.378 37.3739C106.111 34.8338 103.446 32.7869 100.443 30.6517C101.533 30.6223 101.533 30.6149 103.483 32.0212C104.396 32.6838 105.301 33.3391 106.302 33.884C107.237 34.3994 107.988 35.2314 108.922 35.7467C109.872 36.2695 110.674 36.9616 111.513 37.6169C111.793 37.0353 111.212 36.461 111.506 35.8793C111.447 35.7394 111.381 35.5922 111.322 35.4523C110.689 35.1578 109.96 35.0473 109.423 34.5761C108.856 34.0902 107.929 33.722 108.841 32.6839C109.261 32.2053 108.687 31.7561 108.341 31.4837C107.127 30.5266 106.464 28.9068 104.72 28.546C104.263 28.4503 103.903 27.9054 103.498 27.5667C104.249 26.72 103.498 26.1016 103.049 25.6156C102.526 25.0413 102.099 24.3418 101.275 24.0252C100.811 23.8485 100.362 23.2227 100.495 22.7294C100.716 21.8974 100.245 21.6323 99.7072 21.3967C98.3749 20.8151 97.1605 20.042 95.9313 19.2836C95.6442 19.1069 95.2541 18.9155 95.1732 19.3793C94.9671 20.5353 94.2016 20.0347 93.9292 19.6812C93.2226 18.7535 92.2511 18.3854 91.25 18.0099C90.7716 17.8258 90.4625 17.4576 90.1313 17.1116C89.2406 16.1765 88.3427 15.2488 87.4447 14.3211C86.9663 13.8278 86.5099 13.3934 85.8622 14.1592C85.266 14.8586 84.5447 14.115 83.7865 14.3432C83.6467 13.6143 83.8233 12.8927 83.3008 12.3405C83.0284 12.046 82.7929 11.7662 82.366 11.8767C81.998 11.965 81.9096 12.2448 81.8655 12.6056C81.7477 13.6806 80.4743 13.4008 80.0106 14.1223C79.9518 14.218 79.6058 14.0266 79.488 13.8352C78.752 12.6056 77.751 12.1639 76.3672 12.6866C76.2053 12.7455 75.955 12.5909 75.7489 12.532H75.7637Z" fill="#867042"/>
<path d="M105.978 21.1317C106.022 21.2054 106.059 21.3232 106.118 21.3379C106.28 21.3821 106.39 21.2863 106.368 21.1244C106.361 21.0581 106.243 20.9624 106.169 20.9624C106.103 20.9624 106.037 21.0728 105.971 21.1317H105.978Z" fill="#916D4D"/>
<path d="M73.6364 7.77586C73.8645 7.8274 74.0044 7.79798 74.0559 7.62127C74.1001 7.45929 74.0044 7.32674 73.8498 7.2752C73.6364 7.20157 73.4229 7.23838 73.4082 7.49607C73.4082 7.59915 73.5775 7.7096 73.6364 7.77586Z" fill="#916D4D"/>
<path d="M73.8943 88.0739C74.1666 86.7633 74.4831 85.4159 74.5494 84.1201C74.6671 81.926 75.7786 80.0632 76.1098 77.9869C76.5072 75.5203 77.8395 73.4441 78.6639 71.1616C78.7154 71.0291 78.6786 70.8671 78.6859 70.7198C78.1633 70.5063 78.1633 69.6228 77.4935 69.6817C76.6471 69.7553 77.4715 70.7493 76.8164 71.0143C75.8448 70.7346 76.257 69.9541 76.3306 69.3577C75.9699 69.0117 75.0131 69.9467 75.256 68.9454C75.4694 68.0619 75.6829 67.0753 76.3306 66.3169C76.7649 65.8015 77.1918 65.7647 77.5598 66.3095C77.8984 66.8102 78.1707 67.333 78.9362 67.0753C78.8037 66.6777 78.9141 66.1108 78.5166 65.9709C77.7732 65.7205 77.9352 65.2493 78.0677 64.756C78.2664 64.0271 78.421 63.2614 78.7522 62.5913C79.0319 62.0318 79.1864 61.4722 79.2453 60.8684C79.5177 58.1148 79.7532 55.3611 80.0918 52.6222C80.2831 51.0613 80.1948 49.493 80.2316 47.9321C80.2463 47.3578 80.6733 46.8719 80.4892 46.3123C79.8857 44.4495 79.2674 42.5941 78.5976 40.746C78.4872 40.4442 78.1192 40.238 77.8689 39.995C77.5892 40.3043 77.4715 40.6577 77.4052 41.0847C77.258 41.9756 77.1844 42.8812 76.89 43.7574C76.2496 45.6643 75.7123 47.6008 75.1161 49.5298C75.0352 49.7949 75.094 50.1704 74.5052 50.2513C74.5788 48.9408 74.1372 47.7112 74.0489 46.4301C74.0341 46.1797 74.012 45.9147 74.0489 45.6717C74.4022 43.6911 74.6819 41.6885 75.1529 39.7373C75.6313 37.7199 75.1308 35.8866 74.4684 34.0459C73.8575 34.5466 73.7765 35.2608 73.7618 35.9676C73.7397 36.7628 73.5851 37.3812 72.6136 37.3739C71.7598 37.3665 71.6567 38.7802 70.6189 38.4268C70.5821 38.5666 70.4938 38.7139 70.5158 38.8464C70.56 39.1409 70.641 39.4355 70.7293 39.7226C71.0973 40.9227 70.8839 41.2393 69.5443 41.4528C69.5001 41.8578 69.3971 42.2628 69.4265 42.6603C69.5075 43.9562 68.7935 44.8618 67.9986 45.7306C67.7925 45.9515 67.5569 46.3049 67.2625 46.1282C66.3572 45.5907 65.9892 46.2607 65.5402 46.7982C65.0249 47.4093 64.598 48.1309 63.6927 48.2781C63.4424 48.3223 63.1848 48.58 63.1996 48.8083C63.2437 49.7802 62.8095 50.8477 63.7221 51.665C64.2742 52.1583 64.4361 52.6663 63.7074 53.1375C63.4866 53.2848 63.2879 53.4247 63.2952 53.7192C63.31 54.7279 63.3247 55.7366 63.3468 56.7527C63.3541 57.2386 63.6117 57.4816 64.0975 57.5331C64.6937 57.592 64.9293 57.2386 65.0323 56.7527C65.1501 56.2078 65.209 55.6556 65.312 55.1108C65.4298 54.4629 65.5107 53.8223 66.394 53.6971C66.8724 53.6235 66.9166 53.1376 66.7841 52.7032C66.6295 52.173 66.4529 51.6429 66.313 51.1055C66.2615 50.8993 66.3425 50.6784 66.5927 50.6784C66.7178 50.6784 66.9239 50.7741 66.9607 50.8772C67.1595 51.4441 67.2993 52.0405 67.4907 52.6074C67.925 53.8959 67.7262 55.4053 68.6168 56.5023C69.4559 57.5405 69.8828 58.6007 70.0669 59.9555C70.4717 62.9374 71.2298 65.8383 71.0973 68.9307C70.9943 71.434 71.0237 73.9742 71.2592 76.507C71.4433 78.4802 71.5684 80.5344 70.6483 82.4414C70.4717 82.8021 70.4717 83.2513 69.8976 83.2145C69.3455 83.185 69.1247 82.9052 69.0438 82.3603C68.8524 81.035 68.3151 79.7907 68.6168 78.3624C68.7861 77.5598 68.5653 76.6616 68.7788 75.8075C68.9039 75.3142 68.8082 74.7914 68.6168 74.3129C68.4476 73.8932 68.2856 73.444 67.7778 73.3042C67.2552 73.1569 67.4686 74.092 66.843 73.8785C66.6369 73.5692 66.6442 73.1569 66.6222 72.7593C66.4823 69.9615 65.7389 67.274 65.1501 64.5572C65.0102 63.9166 64.76 63.2982 64.5686 62.6723C64.495 62.4367 64.4803 62.1348 64.1343 62.1643C63.8546 62.1937 63.678 62.4293 63.6191 62.665C63.5455 62.9521 63.5529 63.2687 63.5749 63.5632C63.6853 65.5217 63.7074 67.4876 63.943 69.4313C64.3183 72.5605 64.3551 75.7044 64.5612 78.8336C64.6275 79.8717 64.9881 81.0645 64.1711 82.0438C64.8777 82.5518 64.9366 83.1261 64.3331 83.7593C64.2815 84.0317 64.4214 84.2231 64.6128 84.3851C65.577 84.4735 65.1133 84.9963 64.9293 85.438C65.0838 85.5705 65.2458 85.6957 65.4003 85.8282C67.2478 86.2332 67.2257 86.2332 67.4686 88.0223C67.5422 88.5451 67.3067 89.5538 68.1973 89.3623C68.926 89.2077 68.5432 88.3684 68.3739 87.7941C68.1752 87.1241 68.1679 86.4909 68.8745 85.7399C69.1689 87.8309 69.5001 89.6569 69.9638 91.4534C70.2435 92.5283 70.4938 93.618 70.9722 94.6267C71.0605 94.8108 71.2077 94.9728 71.4359 94.9507C71.6862 94.9212 71.7745 94.7151 71.7303 94.5089C71.5095 93.4781 71.6862 92.3737 71.2004 91.4018C70.9575 90.9159 70.9648 90.452 71.0237 89.9367C71.2519 87.9929 72.5326 86.3068 72.3707 84.2673C72.356 84.0759 72.6136 83.9581 72.8344 83.9728C73.0478 83.9949 73.011 84.1642 73.0184 84.3189C73.0478 85.6294 73.0405 86.9547 73.909 88.0665L73.8943 88.0739Z" fill="#75673A"/>
<path d="M64.9217 85.4452C65.0762 85.5777 65.2382 85.7029 65.3927 85.8354C65.194 86.5349 65.5399 87.1239 65.7681 87.735C65.8712 88.0148 65.8049 88.2725 65.5399 88.3682C65.2234 88.486 65.113 88.1989 65.01 87.9706C64.9658 87.8823 64.929 87.7866 64.8849 87.6909C64.7008 87.308 64.826 86.5717 64.2224 86.6674C63.6115 86.7705 64.0163 87.4184 63.9648 87.8307C63.928 88.1105 64.0973 88.4934 63.6483 88.5523C63.3539 88.5891 63.2435 88.3093 63.1404 88.0737C62.6767 86.9914 62.1541 85.9311 61.7493 84.8267C61.293 83.5898 61.5359 82.2277 61.1458 80.9687C61.0574 80.6815 61.0942 80.3649 61.0427 80.063C60.9985 79.7832 61.0427 79.3709 60.6084 79.4077C60.2404 79.4446 60.1963 79.8053 60.1963 80.1145C60.1963 81.0054 59.5485 81.9037 60.3729 82.8167C60.6232 83.0965 60.8734 84.0168 60.0932 84.2009C59.3056 84.3923 59.4749 83.5898 59.3866 83.148C59.1437 81.8669 58.8493 80.5784 59.5191 79.2899C59.2247 79.1059 58.9303 78.9218 58.5622 78.6935C58.4665 79.9452 57.4214 79.8716 56.6338 80.1587C55.596 78.156 55.4709 75.9325 55.2721 73.7752C55.1764 72.7444 54.8231 71.7652 54.8158 70.6902C54.8158 69.2839 54.8378 67.8482 54.698 66.4272C54.5066 64.5423 54.779 62.6353 54.9703 60.7799C55.2721 57.8716 55.4267 54.9266 56.1701 52.0624C56.7221 49.942 56.9356 47.7331 57.6054 45.6274C58.2089 45.863 58.8493 46.0691 58.6579 46.9453C58.7904 46.9674 58.9155 46.9895 59.048 47.0116C59.129 47.3503 58.9891 47.6301 58.7536 47.8288C57.8041 48.624 57.6348 49.8389 57.1122 50.8623C56.965 51.1495 56.9209 51.466 57.23 51.6796C57.5244 51.8857 57.8188 51.7605 58.047 51.5397C58.2973 51.2893 58.577 51.039 58.7315 50.7298C59.2688 49.6475 59.6295 48.4694 60.5201 47.5859C60.3508 45.8998 62.3749 45.296 62.2866 43.6321C63.0374 44.3168 62.743 44.9795 62.5074 45.6126C62.4044 45.8924 62.1247 46.1059 62.029 46.3857C61.9039 46.7391 61.6242 47.2177 62.1836 47.4312C62.6841 47.6227 63.192 48.2853 63.7734 47.5123C64.2003 46.9453 64.6788 46.4152 65.1204 45.863C65.2455 45.7084 65.4369 45.4507 65.3854 45.3402C64.8554 44.199 65.6724 43.4995 66.2171 42.7191C66.5557 42.2331 66.7103 41.7398 66.5998 41.1508C66.5262 40.7459 66.5115 40.3409 66.8059 39.9949C66.9458 39.9801 67.093 39.9654 67.2328 39.9507C68.2486 40.0759 69.0362 40.5544 69.544 41.4674C69.4999 41.8724 69.3968 42.2773 69.4263 42.6749C69.5072 43.9708 68.7933 44.8764 67.9983 45.7452C67.7922 45.9661 67.5567 46.3195 67.2623 46.1427C66.357 45.6053 65.9889 46.2753 65.5399 46.8128C65.0247 47.4239 64.5978 48.1455 63.6925 48.2927C63.4422 48.3369 63.1846 48.5946 63.1993 48.8228C63.2435 49.7947 62.8092 50.8623 63.7219 51.6796C64.2739 52.1729 64.4359 52.6809 63.7072 53.1521C63.4864 53.2994 63.2876 53.4393 63.295 53.7338C63.3097 54.7425 63.3244 55.7512 63.3465 56.7673C63.3539 57.2532 63.6115 57.4962 64.0973 57.5477C64.6935 57.6066 64.929 57.2532 65.0321 56.7673C65.1498 56.2224 65.2087 55.6702 65.3118 55.1253C65.4295 54.4774 65.5105 53.8369 66.3938 53.7117C66.8722 53.6381 66.9163 53.1521 66.7839 52.7177C66.6293 52.1876 66.4526 51.6575 66.3128 51.12C66.2613 50.9138 66.3422 50.693 66.5925 50.693C66.7176 50.693 66.9237 50.7887 66.9605 50.8917C67.1592 51.4587 67.2991 52.0551 67.4905 52.622C67.9247 53.9105 67.726 55.4198 68.6166 56.5169C69.4557 57.555 69.8826 58.6153 70.0666 59.97C70.4714 62.952 71.2296 65.8529 71.0971 68.9452C70.994 71.4486 71.0235 73.9887 71.259 76.5215C71.443 78.4947 71.5681 80.5489 70.6481 82.4559C70.4714 82.8167 70.4714 83.2658 69.8973 83.229C69.3453 83.1996 69.1245 82.9198 69.0435 82.3749C68.8521 81.0496 68.3148 79.8053 68.6166 78.3769C68.7859 77.5744 68.5651 76.6762 68.7785 75.8221C68.9037 75.3288 68.808 74.806 68.6166 74.3274C68.4473 73.9077 68.2854 73.4586 67.7775 73.3187C67.2549 73.1715 67.4684 74.1065 66.8427 73.893C66.6366 73.5838 66.644 73.1715 66.6219 72.7739C66.4821 69.976 65.7387 67.2886 65.1498 64.5718C65.01 63.9312 64.7597 63.3127 64.5684 62.6869C64.4948 62.4513 64.48 62.1494 64.1341 62.1789C63.8544 62.2083 63.6777 62.4439 63.6189 62.6795C63.5453 62.9667 63.5526 63.2833 63.5747 63.5778C63.6851 65.5363 63.7072 67.5021 63.9427 69.4459C64.3181 72.5751 64.3549 75.719 64.561 78.8482C64.6272 79.8863 64.9879 81.0791 64.1709 82.0583C63.4128 82.7062 64.1415 83.2143 64.3328 83.7739C64.2813 84.0463 64.4212 84.2377 64.6125 84.3997C64.4874 84.8194 64.5904 85.1728 64.929 85.4525L64.9217 85.4452ZM68.1235 65.0872C68.2044 65.4774 68.2707 65.9633 68.5356 66.1989C69.2496 66.8469 69.0362 67.5389 68.8595 68.2826C68.7565 68.717 68.5577 69.1661 68.8301 69.6005C68.9625 69.8141 69.1613 69.9981 69.4336 70.0129C69.7354 70.0276 69.8752 69.8067 69.9488 69.5564C70.0666 69.1661 70.1991 68.7685 70.0813 68.3709C69.3968 66.0517 69.3747 63.6073 68.7417 61.2806C68.6019 60.7726 68.5283 60.2277 67.9542 59.5135C67.6597 61.6193 67.7775 63.3569 68.1235 65.0872Z" fill="#806B3B"/>
<path d="M66.8135 39.9801C66.7841 39.6929 66.7546 39.4058 66.7252 39.1186C66.9754 38.802 66.946 38.5223 66.6368 38.2646C66.7546 37.8154 66.7105 37.3884 66.5191 36.9761C66.762 36.6668 66.7399 36.3797 66.4308 36.122C66.2835 35.8348 66.2026 35.5035 65.9155 35.3047C66.578 34.1635 67.0564 32.9118 68.1163 32.0283C68.6463 31.5865 68.499 30.4527 67.7998 30.0183C67.1153 29.6059 67.3287 29.2746 67.682 28.8476L67.8219 28.877V28.796L67.682 28.8476C67.5937 28.6414 67.5054 28.4426 67.4171 28.2365L68.1605 27.6843C68.6904 27.9125 68.4696 28.634 69.0143 28.9433C69.5295 28.7077 69.765 28.1849 70.1331 27.7873C70.4422 27.456 70.663 26.9921 71.031 26.7713C71.7303 26.3589 72.1204 25.8804 71.7965 24.9527C72.4001 25.4902 72.7534 26.197 73.8133 26.3369C73.1729 25.365 72.6651 24.5919 72.1645 23.8188C72.8711 22.9574 73.6587 22.2432 74.6892 21.7278C77.5745 20.2773 80.4082 18.7238 83.2641 17.207C83.6174 17.5236 83.7499 17.9507 83.8824 18.3777C84.0001 18.7606 83.9854 19.1361 84.6552 18.9299C84.8319 18.871 85.4281 19.7251 85.6047 20.2405C85.7004 20.5203 85.1042 20.3215 84.8613 20.4835C84.1915 20.3509 83.5512 20.027 83.0506 20.9621C82.9034 21.2419 81.9907 21.0578 81.5197 20.8442C80.8351 20.535 80.6806 20.7412 80.4892 21.3891C80.0108 23.0089 79.9445 24.6729 79.7532 26.3295C79.709 26.6756 79.7311 27.0437 79.79 27.3897C79.9519 28.2733 80.0623 29.0832 79.6869 30.0035C79.3631 30.8061 79.3483 31.8074 79.8268 32.6688C80.1506 33.2358 80.1285 33.8101 79.9961 34.4359C79.8488 35.128 79.8562 35.8496 79.7458 36.549C79.6648 37.0791 79.7752 37.4694 80.0697 37.948C80.5628 38.7505 80.8204 39.6856 80.6438 40.6869C80.3641 42.2404 80.3862 43.7056 80.9529 45.2886C81.3725 46.4593 82.1159 47.5711 81.8656 49.0583C83.0506 48.5282 82.4765 47.1882 83.4776 46.879C83.9413 47.0925 83.6616 47.4974 83.6763 47.814C83.6984 48.2116 83.5953 48.624 83.6027 49.0215C83.6248 49.9787 84.0664 50.899 84.4638 50.8033C85.2146 50.6193 85.5753 49.9419 85.8623 49.3161C86.0611 48.8817 86.0684 48.3221 86.0537 47.8214C86.0316 47.144 86.1641 46.5256 86.3628 45.885C86.4806 45.4948 86.5101 45.2371 86.959 45.0088C87.754 44.5965 88.49 44.0296 89.0273 43.2639C89.6309 45.0751 88.9832 46.8716 88.8139 48.6387C88.674 50.0818 88.1956 51.5543 87.8791 53.0121C87.1946 56.2002 85.8108 59.0496 84.0296 61.737C83.5512 61.7223 83.5364 61.9506 83.7352 62.2893C83.7204 62.6353 83.4923 62.8488 83.242 63.0476C82.3146 62.4733 82.3072 62.4659 82.0202 63.2685C81.9171 63.5483 81.9392 63.9238 81.6522 64.0784C80.7027 64.5791 81.1517 65.1018 81.5859 65.6467C81.6595 66.0222 81.711 66.3903 81.2473 66.5597C80.5775 66.7364 80.0844 67.0309 80.4303 67.8555C79.9372 68.8789 79.4514 69.9023 78.6712 70.7491C78.1486 70.5355 78.1486 69.652 77.4788 69.7109C76.6323 69.7845 77.4567 70.7785 76.8016 71.0435C75.83 70.7638 76.2422 69.9833 76.3158 69.3869C75.9552 69.0409 74.9983 69.9759 75.2412 68.9746C75.4547 68.0911 75.6681 67.1045 76.3158 66.3461C76.7501 65.8307 77.177 65.7939 77.545 66.3388C77.8836 66.8394 78.1559 67.3622 78.9214 67.1045C78.7889 66.7069 78.8994 66.14 78.5019 66.0001C77.7585 65.7497 77.9204 65.2785 78.0529 64.7852C78.2516 64.0563 78.4062 63.2906 78.7374 62.6205C79.0171 62.061 79.1717 61.5014 79.2306 60.8977C79.5029 58.144 79.7384 55.3903 80.077 52.6514C80.2684 51.0905 80.1801 49.5222 80.2169 47.9613C80.2316 47.387 80.6585 46.9011 80.4745 46.3415C79.8709 44.4787 79.2527 42.6233 78.5829 40.7752C78.4724 40.4734 78.1044 40.2672 77.8542 40.0242C78.1559 39.715 78.178 39.3469 78.1928 38.9198C78.2369 37.5577 78.3252 36.1882 78.627 34.8482C78.8773 33.7585 79.1643 32.6983 78.6933 31.5792C78.5019 31.13 78.6933 30.6294 78.8478 30.1213C79.1791 29.0464 79.3851 27.9052 78.8478 26.6682C76.3747 28.6341 75.1161 31.1742 74.461 34.0751C73.8501 34.5758 73.7691 35.29 73.7544 35.9968C73.7323 36.792 73.5777 37.4104 72.6062 37.4031C71.7524 37.3957 71.6493 38.8094 70.6115 38.456C70.5747 38.5959 70.4864 38.7431 70.5084 38.8756C70.5526 39.1701 70.6336 39.4647 70.7219 39.7518C71.0899 40.9519 70.8765 41.2686 69.5369 41.4821C69.0364 40.5691 68.2414 40.0979 67.2257 39.9654C67.0858 39.9801 66.9386 39.9948 66.7988 40.0095L66.8135 39.9801ZM79.8783 62.2377C80.5775 61.8254 81.2179 62.0757 81.689 61.575C81.0412 61.2413 80.4377 61.4622 79.8783 62.2377ZM77.1402 67.2518C76.993 67.156 76.8605 67.2444 76.8016 67.3916C76.7501 67.5389 76.7648 67.7009 76.9194 67.7672C76.9709 67.7892 77.0813 67.6861 77.1697 67.642C77.2506 67.5021 77.2874 67.3475 77.1402 67.2518Z" fill="#6F653A"/>
<path d="M84.9492 20.8444C85.2804 20.6677 84.883 20.6088 84.8535 20.4836C85.089 20.3216 85.6926 20.5204 85.5969 20.2406C85.4276 19.7252 84.8314 18.8785 84.6474 18.9301C83.9776 19.1362 83.9923 18.7607 83.8746 18.3779C83.7421 17.9508 83.6096 17.5164 83.2563 17.2072C83.5213 16.8685 83.8083 16.5666 84.2941 16.817C84.25 17.244 84.3972 17.5901 84.7505 17.8846C85.2583 17.6931 85.1332 16.8169 85.8472 16.8464C86.3035 16.8685 86.3477 17.2734 86.5538 17.5237C86.6495 18.3631 87.1573 18.9374 87.7756 19.4455C87.621 19.924 87.4665 20.4026 87.3193 20.8812C86.8997 21.1094 86.6274 20.5941 86.2226 20.6456C86.2594 21.4481 86.9218 21.7574 87.4149 22.1918C87.5548 23.1416 87.8492 24.0913 87.3855 25.0338C87.1941 25.3651 87.3266 25.6228 87.5842 25.851C87.8198 27.3972 87.9449 28.9655 88.3939 30.4749C88.4601 30.7031 88.7546 30.8872 88.6294 31.1522C88.07 32.345 88.6073 33.4641 88.7914 34.6127C88.9606 35.6656 89.0784 36.7258 89.2183 37.7861C88.9901 37.9922 88.7251 38.0806 88.4086 38.1322C87.8492 38.2279 87.5842 38.6181 87.5106 39.1777C87.3929 40.1127 87.253 41.0404 87.1132 42.0565C87.8787 42.1596 88.5853 42.3731 89.1005 42.9621C89.1299 43.0726 89.1005 43.1609 89.0269 43.2419C88.4896 44.0076 87.7609 44.5746 86.9586 44.9869C86.5096 45.2225 86.4802 45.4728 86.3624 45.8631C86.1637 46.5036 86.0312 47.1221 86.0533 47.7994C86.068 48.3001 86.0606 48.8597 85.8619 49.2941C85.5748 49.9199 85.2142 50.6047 84.4634 50.7814C84.0586 50.8771 83.6243 49.9641 83.6022 48.9996C83.5949 48.5946 83.6979 48.1897 83.6758 47.7921C83.6611 47.4829 83.9335 47.0779 83.4771 46.857C82.4761 47.1589 83.0502 48.5063 81.8652 49.0364C82.1154 47.5491 81.372 46.4374 80.9525 45.2667C80.3857 43.691 80.3636 42.2185 80.6433 40.665C80.82 39.6636 80.5697 38.7359 80.0692 37.926C79.7748 37.4474 79.657 37.0572 79.7454 36.527C79.8558 35.8276 79.8484 35.106 79.9956 34.4139C80.1281 33.7881 80.1502 33.2212 79.8263 32.6469C79.3405 31.7854 79.3626 30.7841 79.6865 29.9816C80.0619 29.0539 79.9441 28.2439 79.7895 27.3678C79.7306 27.0217 79.7086 26.6536 79.7527 26.3076C79.9515 24.6583 80.0103 22.9869 80.4888 21.3671C80.6801 20.7192 80.8347 20.5131 81.5192 20.8223C81.9903 21.0358 82.903 21.2199 83.0502 20.9401C83.5434 20.0124 84.1837 20.329 84.8609 20.4615C84.8314 20.6088 84.8903 20.8591 84.9566 20.8223L84.9492 20.8444ZM86.8261 23.2005C86.8924 23.1047 86.8997 22.8839 86.8261 22.7955C86.6715 22.5967 86.4728 22.7513 86.3256 22.8471C86.171 22.9501 86.2005 23.09 86.355 23.2373C86.4949 23.3403 86.6863 23.3992 86.8261 23.2005ZM85.2215 22.5525C85.1921 22.4715 85.1774 22.3611 85.1185 22.3169C85.0596 22.2654 84.9492 22.2801 84.8682 22.2654C84.8977 22.3464 84.9345 22.4274 84.9639 22.5084C85.0522 22.5231 85.1406 22.5378 85.2215 22.5525Z" fill="#645A33"/>
<path d="M65.3929 85.8352C65.1941 86.5347 65.5401 87.1237 65.7683 87.7349C65.8713 88.0146 65.8051 88.2723 65.5401 88.368C65.2236 88.4858 65.1132 88.1987 65.0101 87.9705C64.966 87.8821 64.9292 87.7864 64.885 87.6907C64.701 87.3078 64.8261 86.5715 64.2226 86.6672C63.6116 86.7703 64.0165 87.4183 63.9649 87.8306C63.9281 88.1104 64.0974 88.4932 63.6484 88.5521C63.354 88.5889 63.2436 88.3091 63.1406 88.0735C62.6769 86.9912 62.1543 85.931 61.7495 84.8266C61.2931 83.5896 61.536 82.2275 61.1459 80.9685C61.0576 80.6813 61.0944 80.3647 61.0429 80.0628C60.9987 79.783 61.0429 79.3708 60.6086 79.4076C60.2406 79.4444 60.1964 79.8051 60.1964 80.1144C60.1964 81.0053 59.5487 81.9036 60.3731 82.8165C60.6233 83.0963 60.8736 84.0166 60.0934 84.2007C59.3058 84.3921 59.4751 83.5896 59.3868 83.1478C59.1439 81.8667 58.8494 80.5782 59.5192 79.2897C59.2248 79.1057 58.9304 78.9216 58.5624 78.6934C58.4667 79.945 57.4215 79.8714 56.6339 80.1585C56.3616 81.2777 57.1418 82.0655 57.5908 82.9049C58.636 84.856 59.2984 86.947 60.0934 88.9939C60.9913 91.2984 62.1911 93.3968 64.0974 95.0461C66.4013 97.0267 69.1541 98.0869 71.9658 99.044C72.2675 99.1471 72.5399 99.0956 72.849 99.044C73.3569 98.9631 73.7911 99.1324 74.115 99.6331C74.4389 100.141 74.8952 100.465 75.5429 100.649C76.2127 100.841 76.5513 100.715 76.9488 100.222C77.361 99.714 77.0297 99.3238 76.7795 99.0072C75.2559 97.0414 74.9909 94.6632 74.3579 92.3734C73.9531 90.9156 74.2549 89.4798 73.8868 88.0735C73.0183 86.9617 73.0257 85.6365 72.9962 84.3259C72.9962 84.1786 73.0257 84.0019 72.8122 83.9798C72.5914 83.9577 72.3338 84.0756 72.3485 84.2743C72.5104 86.3138 71.2371 87.9999 71.0015 89.9437C70.9426 90.4591 70.9353 90.9229 71.1782 91.4089C71.664 92.3807 71.4873 93.4851 71.7081 94.5159C71.7523 94.7221 71.664 94.9283 71.4137 94.9577C71.1855 94.9872 71.0383 94.8252 70.95 94.6338C70.4716 93.6251 70.2213 92.5354 69.9416 91.4604C69.4779 89.6639 69.1467 87.8379 68.8523 85.7469C68.1383 86.4979 68.153 87.1311 68.3518 87.8011C68.5211 88.368 68.9112 89.2147 68.1751 89.3694C67.2919 89.5608 67.52 88.5521 67.4464 88.0293C67.2035 86.2402 67.2256 86.2402 65.3782 85.8352H65.3929Z" fill="#7D6D3F"/>
<path d="M67.682 28.8479C67.5936 28.6417 67.5053 28.443 67.417 28.2368C65.805 29.3118 64.7599 30.9168 63.6558 32.4409C62.9492 33.4128 62.4413 34.5393 61.6758 35.4523C60.7484 36.5641 60.1081 37.801 59.6885 39.1484C59.3058 40.3927 58.8494 41.6002 58.2679 42.7635C57.9588 43.3894 58.2091 44.1698 57.7674 44.7809C58.0692 45.1196 58.0471 45.3994 57.6202 45.6055L57.5981 45.6203C58.2017 45.8559 58.8421 46.062 58.6433 46.9382C58.7758 46.9603 58.9009 46.9824 59.0334 47.0045C59.1806 46.7468 59.3499 46.5038 59.4824 46.2387C60.1228 44.9061 60.7484 43.5587 61.3814 42.2187C60.6748 41.0186 60.6895 40.3486 61.6538 39.6417C62.1322 39.2883 62.4855 38.9275 62.6106 38.3753C63.0228 36.5935 64.0827 35.5406 65.9155 35.2903C66.5779 34.1491 67.0563 32.8974 68.1162 32.0139C68.6462 31.5722 68.499 30.4383 67.7997 30.0039C67.1152 29.5915 67.3287 29.2602 67.682 28.8332V28.8479Z" fill="#7D6D3F"/>
<path d="M68.1602 27.677C68.6901 27.9052 68.4693 28.6267 69.014 28.936C69.5292 28.7004 69.7647 28.1777 70.1328 27.7801C70.4419 27.4487 70.6627 26.9849 71.0307 26.764C71.73 26.3517 72.1201 25.8731 71.7962 24.9454C72.3998 25.4829 72.7531 26.1897 73.813 26.3296C73.1726 25.3577 72.6648 24.5846 72.1642 23.8115C70.6038 24.857 69.117 25.9909 68.1749 27.677H68.1602Z" fill="#7D6D3F"/>
<path d="M89.2257 37.7862C88.9975 37.9923 88.7325 38.0807 88.416 38.1323C87.8567 38.228 87.5917 38.6182 87.5181 39.1778C87.4003 40.1128 87.2605 41.0405 87.1206 42.0566C87.8861 42.1597 88.5927 42.3732 89.1079 42.9622C89.7115 41.2467 89.3803 39.5091 89.2257 37.7788V37.7862Z" fill="#6F653A"/>
<path d="M86.5612 17.5164C86.9145 16.8537 86.6496 16.2156 85.7663 15.6021C85.4424 16.2058 84.4856 16.0438 84.3016 16.8096C84.2574 17.2366 84.4046 17.5827 84.7579 17.8772C85.2658 17.6857 85.1407 16.8095 85.8546 16.839C86.311 16.8611 86.3551 17.2661 86.5612 17.5164Z" fill="#6F653A"/>
<path d="M83.2637 63.0257C82.3363 62.4514 82.3289 62.444 82.0419 63.2466C81.9388 63.5264 81.9609 63.9018 81.6738 64.0565C80.7243 64.5571 81.1733 65.0799 81.6076 65.6247C82.4467 64.9474 82.6381 63.8503 83.2563 63.033L83.2637 63.0257Z" fill="#72673C"/>
<path d="M87.3267 20.8813C86.9071 21.1096 86.6348 20.5942 86.23 20.6457C86.2668 21.4483 86.9292 21.7575 87.4224 22.1919C87.5181 21.7428 87.3709 21.3157 87.3193 20.8813H87.3267Z" fill="#6F653A"/>
<path d="M81.2763 66.5376C80.6065 66.7143 80.1134 67.0088 80.4593 67.8335C80.5624 67.296 81.2984 67.1561 81.2763 66.5376Z" fill="#72673C"/>
<path d="M84.0442 61.715C83.5657 61.7003 83.551 61.9285 83.7497 62.2672C83.897 62.1126 84.184 62.0243 84.0442 61.715Z" fill="#916D4D"/>
<path d="M87.393 25.0337C87.2017 25.365 87.3342 25.6227 87.5918 25.8509C87.739 25.527 87.7095 25.2472 87.393 25.0337Z" fill="#A2888C"/>
<path d="M57.6274 45.6054C58.0543 45.3992 58.0763 45.1194 57.7746 44.7808C57.5464 45.0237 57.5685 45.3109 57.6274 45.6054Z" fill="#806B3B"/>
<path d="M77.8612 40.0021C78.1629 39.6928 78.185 39.3247 78.1997 38.8976C78.2439 37.5355 78.3322 36.166 78.634 34.826C78.8843 33.7363 79.1713 32.6761 78.7002 31.5569C78.5089 31.1078 78.7003 30.6072 78.8548 30.0991C79.186 29.0242 79.3921 27.8829 78.8548 26.646C76.3817 28.6119 75.1231 31.152 74.468 34.0529C75.1304 35.901 75.6309 37.7343 75.1525 39.7444C74.6814 41.7029 74.4017 43.6982 74.0484 45.6788C74.0043 45.9217 74.0264 46.1868 74.0484 46.4371C74.1368 47.7182 74.571 48.9478 74.5048 50.2584C75.0936 50.1774 75.0347 49.8019 75.1157 49.5368C75.7046 47.6152 76.2492 45.6714 76.8896 43.7644C77.184 42.8883 77.2576 41.9826 77.4048 41.0917C77.4711 40.6721 77.5888 40.3113 77.8685 40.0021H77.8612Z" fill="#7D6D3F"/>
<path d="M64.1637 82.0508C63.4056 82.6987 64.1343 83.2067 64.3257 83.7663C64.9292 83.1331 64.8703 82.5588 64.1637 82.0508Z" fill="#7D6D3F"/>
<path d="M64.605 84.3926C64.4799 84.8123 64.5829 85.1657 64.9215 85.4454C65.1055 85.011 65.5692 84.4883 64.605 84.3926Z" fill="#7D6D3F"/>
<path d="M61.3889 42.226C60.7559 43.566 60.1302 44.906 59.4899 46.2461C59.3647 46.5111 59.1954 46.7615 59.0409 47.0118C59.1218 47.3505 58.982 47.6303 58.7465 47.8291C57.797 48.6242 57.6277 49.8391 57.1051 50.8625C56.9579 51.1497 56.9137 51.4663 57.2228 51.6798C57.5173 51.8859 57.8117 51.7608 58.0399 51.5399C58.2901 51.2895 58.5698 51.0392 58.7244 50.73C59.2617 49.6477 59.6223 48.4696 60.513 47.5861C60.3437 45.9 62.3678 45.2963 62.2795 43.6323C63.0302 44.317 62.7358 44.9797 62.5003 45.6129C62.3972 45.8926 62.1175 46.1062 62.0219 46.3859C61.8967 46.7394 61.617 47.2179 62.1764 47.4314C62.6769 47.6229 63.1848 48.2856 63.7663 47.5125C64.1932 46.9455 64.6716 46.4154 65.1132 45.8632C65.2384 45.7086 65.4297 45.4509 65.3782 45.3404C64.8483 44.1992 65.6653 43.4998 66.2099 42.7193C66.5485 42.2334 66.7031 41.7401 66.5927 41.151C66.5191 40.7461 66.5044 40.3411 66.7988 39.9951C66.7693 39.7079 66.7399 39.4208 66.7105 39.1336C66.416 38.8759 66.3866 38.5888 66.6221 38.2795C66.2688 37.9924 65.9229 37.6979 65.7094 37.2782C65.5917 37.0352 65.312 36.8144 65.1059 36.9764C64.4361 37.4918 63.4424 37.477 63.1038 38.5888C62.7137 39.8626 61.963 41.0332 61.3741 42.2481L61.3889 42.226Z" fill="#916D4D"/>
<path d="M67.9539 59.5137C67.6595 61.6194 67.7773 63.357 68.1232 65.0873C68.2042 65.4775 68.2704 65.9635 68.5354 66.1991C69.2494 66.847 69.0359 67.5391 68.8593 68.2827C68.7562 68.7171 68.5575 69.1663 68.8298 69.6007C68.9623 69.8142 69.161 69.9983 69.4334 70.013C69.7352 70.0277 69.875 69.8068 69.9486 69.5565C70.0664 69.1663 70.1989 68.7686 70.0811 68.3711C69.3966 66.0518 69.3745 63.6074 68.7415 61.2808C68.6016 60.7727 68.528 60.2279 67.9539 59.5137Z" fill="#75673A"/>
<path d="M61.3886 42.2257C61.9848 41.0109 62.7282 39.8402 63.1183 38.5664C63.4569 37.4547 64.4506 37.4767 65.1204 36.954C65.3265 36.792 65.6062 37.0129 65.7239 37.2559C65.93 37.6829 66.2833 37.9701 66.6366 38.2572C66.7544 37.8154 66.7102 37.381 66.5189 36.9687C66.2171 36.711 66.1876 36.4239 66.4305 36.1146C66.2833 35.8275 66.2024 35.4962 65.9153 35.2974C64.0899 35.5477 63.0226 36.6006 62.6105 38.3824C62.4853 38.9272 62.132 39.2954 61.6536 39.6488C60.6894 40.3482 60.6747 41.0256 61.3813 42.2257H61.3886Z" fill="#806B3B"/>
<path d="M81.6886 61.5823C81.0409 61.2485 80.4373 61.4694 79.8779 62.2449C80.5772 61.8326 81.2175 62.0829 81.6886 61.5823Z" fill="#72673C"/>
<path d="M77.1696 67.642C77.2506 67.5021 77.2874 67.3475 77.1402 67.2518C76.993 67.1561 76.8605 67.2444 76.8016 67.3917C76.7501 67.5389 76.7648 67.7009 76.9194 67.7672C76.9709 67.7893 77.0813 67.6862 77.1696 67.642Z" fill="#75673A"/>
<path d="M66.6366 38.2646C66.3937 38.5739 66.4231 38.861 66.7249 39.1187C66.9752 38.8021 66.9457 38.5223 66.6366 38.2646Z" fill="#806B3B"/>
<path d="M66.4379 36.1147C66.195 36.424 66.2244 36.7112 66.5262 36.9689C66.7691 36.6596 66.747 36.3724 66.4379 36.1147Z" fill="#7D6D3F"/>
<path d="M86.3553 23.2448C86.4952 23.3479 86.6865 23.4068 86.8264 23.208C86.8926 23.1123 86.9 22.8914 86.8264 22.8031C86.6718 22.6043 86.4731 22.7589 86.3259 22.8546C86.1713 22.9577 86.2008 23.0976 86.3553 23.2448Z" fill="#6F653A"/>
<path d="M84.9643 22.5081C85.0527 22.5228 85.1336 22.5376 85.222 22.5523C85.1925 22.4713 85.1778 22.3609 85.1189 22.3167C85.06 22.2651 84.9496 22.2799 84.8687 22.2651C84.8981 22.3461 84.9349 22.4271 84.9643 22.5081Z" fill="#6F653A"/>
<path d="M84.854 20.4761C84.8245 20.6233 84.8834 20.8737 84.9497 20.8368C85.2809 20.6601 84.8834 20.6012 84.854 20.4761Z" fill="#6F653A"/>
<path d="M10.9622 10.8824C11.2713 11.1401 11.5584 11.5376 11.9632 11.5376C13.1629 11.5229 14.0683 12.2518 15.0104 12.7672C16.7254 13.7097 18.5802 14.0778 20.4203 13.9968C21.5759 13.9453 22.4886 14.6742 23.6 14.4901C24.7336 14.2987 25.8818 14.4901 27.0227 14.4607C28.6567 14.4312 30.2981 14.3355 31.9174 14.1441C34.1402 13.8864 36.2674 13.0617 38.5123 12.8924C38.8582 12.8703 39.0717 12.6862 39.2484 12.4212C38.6301 11.842 38.5246 11.1867 38.9319 10.4553C39.0349 10.2639 39.0717 10.0798 39.0275 9.87367C38.3504 9.61598 37.6217 9.7485 36.9298 9.63806C36.7311 9.60861 36.5618 9.40979 36.6133 9.19627C36.6354 9.08583 36.812 8.95331 36.9372 8.93122C37.8425 8.75451 38.7405 8.78398 39.5943 9.18157C40.5217 9.29201 40.7941 8.65146 40.9265 7.94463C41.0664 7.18627 40.2715 7.3703 39.9476 7.07579C39.9108 7.04634 39.8666 7.02426 39.8225 6.99481C37.8204 7.16415 35.8257 7.37033 33.8163 7.28934C32.5724 7.2378 31.2917 7.17888 30.0993 6.86228C29.1498 6.61195 28.2666 6.4205 27.295 6.56776C26.5957 6.6782 25.8818 6.66351 25.1825 6.78867C24.0196 6.99483 23.4087 6.16284 22.761 5.50019C22.1942 4.9259 23.0701 4.43993 23.0995 3.86563C23.0995 3.77728 23.1952 3.68894 23.2467 3.60059C22.1353 3.65949 21.0901 4.02762 20.148 4.56511C18.2269 5.65479 16.1366 6.28064 14.083 7.01692C13.4206 7.88572 12.4637 8.16552 11.448 8.31277C10.9474 8.3864 10.4396 8.40845 9.94642 8.50417C9.62256 8.57043 9.43119 8.82078 9.42383 9.15946C9.42383 9.51288 9.60048 9.75587 9.9685 9.73378C10.837 9.67488 10.9474 10.2271 10.9622 10.8897V10.8824Z" fill="#916D4D"/>
<path d="M23.2466 3.6008C23.195 3.68916 23.1067 3.77014 23.0993 3.86585C23.0699 4.44015 22.194 4.92611 22.7608 5.50041C23.4085 6.15569 24.0194 6.99505 25.1823 6.78889C25.8742 6.66373 26.5956 6.67842 27.2948 6.56797C28.2664 6.42072 29.157 6.61217 30.0991 6.8625C31.2915 7.1791 32.5722 7.23802 33.8162 7.28956C35.8256 7.37791 37.8202 7.17173 39.8223 6.99503C41.2208 6.11886 42.7665 5.87589 44.3784 5.94216C44.6213 5.94952 44.9231 6.01579 45.0335 5.72128C45.166 5.35314 44.8053 5.2206 44.6139 5.01444C44.4814 5.09543 44.4299 5.08073 44.4741 4.99238C44.4741 4.97765 44.5624 5.00708 44.6139 5.01444C44.9157 4.60213 45.3647 4.15301 44.3784 4.05729C44.1281 4.0352 43.8779 4.01312 43.8926 3.64498C44.3195 3.32102 44.7317 2.91608 45.269 2.82772C46.3215 2.65838 47.0429 2.02519 47.7053 1.27419C45.9682 0.611542 44.1134 0.530512 42.3101 0.221276C40.2786 -0.132137 38.2177 0.0225083 36.1715 0.110861C34.0296 0.199215 31.9466 0.685155 29.8857 1.25945C28.1486 1.73803 26.441 2.33439 24.7113 2.84979C24.1666 3.01177 23.6587 3.20322 23.2539 3.60817L23.2466 3.6008Z" fill="#867042"/>
<path d="M65.9596 12.3773C63.7809 12.3479 61.6022 12.2301 59.475 11.5748C58.6433 11.3171 57.7233 11.2729 56.8474 11.1256C55.4857 10.8974 54.0357 11.2729 52.7476 10.5661C52.1588 9.96235 51.408 9.69727 50.6057 9.52792C48.773 9.1377 47.3745 7.9523 45.9245 6.86998C45.8141 6.78899 45.6521 6.56812 45.6889 6.51658C46.0349 5.92756 46.5133 5.44161 46.8077 4.80841C46.9917 4.42555 47.4481 4.49179 47.7646 4.64641C48.6331 5.07345 49.6783 4.83787 50.5027 5.45634C51.0326 5.84657 51.4448 5.34587 51.8423 5.05872C52.144 4.83784 52.225 4.25621 52.7476 4.40347C53.4616 4.60226 54.2933 4.18992 54.9263 4.83048C55.5078 5.4195 56.2806 5.66247 57.0314 5.97907C57.392 5.62565 57.0314 5.02929 57.4951 4.75687C57.7527 4.92621 58.0103 5.08819 58.2679 5.25753C58.29 5.8171 58.555 5.72138 58.8715 5.48577C59.1953 5.56676 59.5266 5.64777 59.8504 5.73613C60.9177 6.28833 61.8304 7.17184 63.1111 7.27492H63.1185C63.354 8.42351 64.4286 9.30705 65.4812 9.2187H65.4444C65.3487 9.89607 65.9081 10.0286 66.335 10.2789C67.1446 10.7649 68.1824 11.0815 67.8659 12.3847C67.233 12.7896 66.5852 12.392 65.9522 12.3847L65.9596 12.3773ZM54.124 6.40612C54.9116 6.95096 55.6034 7.19395 56.7443 7.20868C55.8758 6.34724 55.2281 5.92018 54.124 6.40612Z" fill="#645A33"/>
<path d="M52.7549 10.5662C52.1661 9.96247 51.4153 9.69738 50.6131 9.52804C48.7803 9.13781 47.3818 7.95242 45.9318 6.87009C45.8214 6.7891 45.6595 6.56824 45.6963 6.5167C46.0422 5.92768 46.5207 5.44173 46.8151 4.80853C46.9991 4.42567 47.4554 4.49191 47.7719 4.64653C48.6405 5.07357 49.6856 4.83798 50.51 5.45646C51.04 5.84668 51.4521 5.34599 51.8496 5.05884C52.1514 4.83796 52.2324 4.25633 52.7549 4.40359C53.4689 4.60238 54.3006 4.19003 54.9336 4.8306C55.5151 5.41962 56.288 5.66259 57.0387 5.97918C57.3994 5.62577 57.0387 5.02941 57.5024 4.75699C56.0009 3.74092 54.2344 3.31388 52.5783 2.68068C51.0105 2.07693 49.4133 1.46581 47.713 1.28174C47.0506 2.03274 46.3293 2.66597 45.2767 2.83532C44.7321 2.92367 44.3199 3.32861 43.9003 3.65257C43.8856 4.02807 44.1359 4.0428 44.3861 4.06488C45.3651 4.1606 44.9161 4.60972 44.6217 5.02203C44.813 5.22819 45.1737 5.36073 45.0412 5.72151C44.9308 6.00865 44.6364 5.94974 44.3861 5.94238C42.7668 5.87611 41.2285 6.12644 39.83 6.99525C39.8742 7.0247 39.9183 7.04678 39.9551 7.07623C40.2864 7.37074 41.0813 7.18671 40.9341 7.94507C40.8016 8.6519 40.5292 9.29245 39.6018 9.18201C39.4105 9.41762 39.2264 9.65319 39.0351 9.88144C39.0719 10.0876 39.0351 10.2717 38.9394 10.4631C38.5321 11.1945 38.6376 11.8498 39.2559 12.429H39.278C39.4767 12.2228 39.6975 12.1124 39.9625 12.3112C40.8752 12.5321 41.729 12.2596 42.6049 12.0535C43.8046 11.7737 45.0191 11.5381 46.2336 11.3098C48.4049 10.9122 50.6278 11.1331 52.7549 10.5662Z" fill="#72673C"/>
<path d="M10.9622 10.8827C10.9475 10.22 10.8371 9.66783 9.96854 9.72673C9.60052 9.75619 9.4165 9.51319 9.42386 9.15242C9.42386 8.81373 9.6226 8.55607 9.94646 8.49717C10.4396 8.40145 10.9475 8.37935 11.448 8.30573C12.4637 8.15847 13.4206 7.87868 14.083 7.00987C12.7949 6.708 11.5069 7.20128 10.2114 7.03194C9.51955 6.94359 8.78351 6.98777 8.15787 6.67117C6.75202 5.96435 5.34618 6.44291 3.93297 6.56808C3.49871 6.60489 3.07916 6.78897 3.08652 7.26755C3.08652 7.68723 3.43246 8.03328 3.85201 8.09955C4.63958 8.22471 5.06648 8.71804 5.60379 9.27025C6.59009 10.2937 8.03274 10.6029 9.40178 10.7722C9.90229 10.8311 10.4102 11.6779 10.9696 10.8901L10.9622 10.8827Z" fill="#867042"/>
<path d="M56.7443 7.20881C55.8758 6.34737 55.2281 5.92031 54.124 6.40625C54.9116 6.9511 55.6035 7.19409 56.7443 7.20881Z" fill="#7D6D3F"/>
<path d="M8.91608 54.6101C9.61533 54.1978 10.4323 53.7339 11.1978 53.9033C12.1915 54.1242 12.6994 53.4762 13.3839 53.1228C13.6047 53.005 13.8181 52.7399 13.7151 52.497C13.5532 52.1362 13.2146 52.2393 12.9349 52.3866C12.7582 52.4749 12.6037 52.6221 12.3829 52.5411C12.2577 52.416 12.243 52.2393 12.3461 52.1362C13.3618 51.0907 14.3702 50.0305 15.4374 49.0365C15.7981 48.6978 16.3281 48.3002 16.7476 48.3297C18.8821 48.4769 20.2512 46.9086 21.9073 46.0619C24.2847 44.8397 26.4045 43.161 28.7378 41.8283C29.6063 41.335 30.2246 40.1864 30.6809 39.2146C31.3213 37.8304 32.3885 37.1235 33.7502 36.7554C34.6188 36.5198 35.3327 36.0928 35.9216 35.4448C36.2381 35.0988 36.5766 34.7675 37.0256 34.6644C38.7406 34.2594 39.8594 32.9562 41.1401 31.9328C42.0823 31.1818 43.0023 30.4161 43.9812 29.7019C45.0632 28.9141 46.1158 28.0084 46.9328 26.8893C47.2934 26.396 47.2346 26.0426 46.6384 25.8585C46.0863 25.6965 45.6373 25.0633 44.9528 25.4536C44.651 25.3357 44.3493 25.2253 44.0475 25.1075C43.9224 24.9014 43.7972 24.5185 43.5396 24.6657C42.2883 25.4094 40.831 25.7407 39.6607 26.6243C39.5061 26.7421 39.3957 26.9261 39.2706 27.0807C39.1234 27.0955 38.9835 27.1102 38.8363 27.1249C38.7627 27.0587 38.6817 26.9924 38.6081 26.9261C39.4472 25.6008 40.8678 24.894 42.0675 24.0325C42.8625 23.4583 43.2599 22.8251 43.4587 22.052C43.6942 21.1537 44.1505 20.6015 45.0191 20.388C45.5343 20.2628 45.9097 20.1229 45.5858 19.4824C45.2252 18.7608 44.7173 18.5031 44.1432 18.8712C43.6353 19.1952 43.179 19.6001 42.73 20.0051C42.4061 20.2996 42.1117 20.3585 41.8099 20.0346C41.4493 19.6517 41.8982 19.5192 42.0749 19.3425C42.384 19.0332 42.4503 18.6357 42.5533 18.2454C43.5249 18.0393 44.3861 17.5238 45.3871 17.3398C46.0716 17.2146 46.7709 17.2514 47.4333 17.0747C50.9221 16.1617 54.5067 15.7641 58.0103 14.9469C59.394 14.6303 60.7851 14.7554 62.1542 14.4904C64.2666 14.0854 66.4232 14.3873 68.5431 14.1591C68.9847 14.1076 69.441 14.2916 69.4926 14.9027C69.522 15.2561 69.6545 15.6022 69.6545 15.9556C69.6545 16.2869 69.6103 16.5078 69.1393 16.6845C67.6966 17.2294 66.357 18.0025 65.0321 18.805C63.5159 19.7253 61.7494 20.226 60.2257 21.0874C58.496 22.0667 56.494 22.5895 55.0293 24.0915C54.0283 25.1149 52.6887 25.807 51.7171 26.8451C50.2892 28.3692 48.6846 29.6798 47.2051 31.1376C46.0422 32.2789 44.9381 33.4495 43.9518 34.7601C42.9802 36.0412 42.1117 37.4033 41.0812 38.6403C40.117 39.7962 38.9982 40.827 38.0929 42.0419C36.4515 44.2507 34.1845 45.7674 32.0058 47.3357C29.8197 48.9113 27.4644 50.266 25.1606 51.665C24.1743 52.2614 23.1659 52.9977 22.0766 53.2038C20.1113 53.5793 18.1608 54.0505 16.1882 54.3966C13.6783 54.831 11.1021 55.0445 8.69527 55.9943C8.25364 55.4421 8.36405 54.9341 8.9308 54.5954L8.91608 54.6101ZM63.1184 16.8317C63.2141 16.7213 63.2656 16.5741 63.1184 16.471C62.8755 16.2943 62.6694 16.471 62.4633 16.5814C62.2572 16.6919 62.3971 16.8023 62.4781 16.9128C62.7136 17.0747 62.927 17.0453 63.1037 16.8317H63.1184Z" fill="#6F653A"/>
<path d="M38.8216 27.1397C38.748 27.0735 38.667 27.0072 38.5934 26.941C37.1876 26.2415 38.4683 25.4463 38.5934 24.7763C38.2181 24.3787 37.85 24.5554 37.5115 24.5481C36.5104 24.5481 36.1424 23.9811 36.6356 23.1271C36.9079 22.6485 37.2833 22.2362 37.7691 21.9196C38.5272 21.4189 39.2412 20.8667 39.9772 20.3292C40.1465 20.204 40.3158 20.0347 40.2348 19.8285C40.1171 19.5414 39.8226 19.5414 39.5945 19.6739C38.7627 20.1525 37.931 20.6605 37.2906 21.3674C36.7018 22.0226 36.0026 22.2582 35.1782 22.4129C34.3023 22.5675 33.3307 22.5675 32.6241 23.2007C32.153 23.6204 31.6157 23.856 31.0931 24.1578C29.7977 24.9015 28.5243 25.6967 27.251 26.4845C27.0964 26.5802 26.8903 26.7937 26.9051 26.941C26.9566 27.9718 26.0733 28.2442 25.4845 28.7154C24.9987 29.1056 24.4687 29.4517 24.4246 30.1143C24.3951 30.615 24.3583 31.1304 23.7769 31.0936C23.2175 31.0568 22.7096 30.6223 22.5329 30.0996C22.3269 29.4885 22.9893 29.4075 23.3647 29.2381C23.8578 29.0099 24.0566 28.6933 23.9314 28.2147C22.9967 27.8613 22.6434 28.7375 21.9883 29.1572C22.1134 28.2515 22.5771 27.6625 23.0703 27.0735C23.5266 26.536 24.0713 26.0501 24.1449 25.2843C23.9977 25.1592 23.8505 25.034 23.6959 24.9088C23.5634 25.0635 23.4309 25.2255 23.2984 25.3801C22.8936 26.2783 22.187 26.9263 21.4951 27.5963C20.9357 28.1411 20.1997 28.5976 20.3027 29.5768C20.3469 30.0186 20.0451 30.3426 19.6697 30.5414C19.2502 30.7623 18.9042 31.0715 18.6834 31.469C18.2124 32.3158 17.7266 33.1036 16.6519 33.2656C16.4532 33.295 16.3502 33.5012 16.2177 33.6558C15.7393 34.2375 16.1146 35.4229 14.8634 35.5112C14.6499 35.526 14.7603 36.3211 14.3923 36.5641C13.4575 37.1605 13.3618 38.1103 13.2293 39.0674C13.1189 39.8405 12.8687 40.5547 12.0738 40.886C10.6826 41.4603 9.5344 42.3144 8.68059 43.5734C8.29784 44.133 7.78261 44.1698 7.22322 43.7943C6.5387 44.8472 5.85417 45.9074 5.17701 46.9603C6.43565 47.4242 6.54606 47.6303 5.73641 48.5728C4.94148 49.4931 4.57346 50.6564 3.73437 51.5621C4.17599 51.7535 4.36 50.9951 4.72067 51.378C5.08869 51.7682 4.78691 52.129 4.53666 52.4456C4.19071 52.8874 3.88158 53.3659 3.46939 53.7267C2.30644 54.7575 2.43893 56.0828 2.54197 57.4891C3.2633 56.6129 4.29376 56.149 4.97828 55.2802C5.25062 54.9342 5.54504 54.6912 6.00138 54.9931C6.71535 54.1316 7.42931 53.2702 8.13591 52.4087C8.24632 52.2394 8.45241 52.0627 8.44505 51.9007C8.37881 50.5091 9.06333 49.7434 10.3661 49.4342C10.5722 49.39 10.8372 49.1323 10.771 49.0513C10.2557 48.4329 10.874 47.3726 9.94658 46.9603C9.63744 46.8204 9.41663 46.6584 9.43871 46.305C9.46815 45.8854 9.77729 45.7602 10.1232 45.5982C10.7636 45.2963 11.3671 45.6497 12.0517 45.7381C12.0664 44.9944 12.9349 44.5601 12.4859 43.8238C11.9928 43.0212 12.508 42.7341 13.0895 42.4543C14.1788 41.9168 15.2682 41.3794 16.3575 40.8492C16.7697 40.6504 17.1893 40.4811 17.4837 40.1056C18.1093 39.3178 18.7202 38.552 19.7507 38.1839C20.1482 38.044 20.8106 37.4992 19.839 36.9838C19.4489 36.7776 19.7286 36.4831 19.9715 36.2769C21.0093 35.4008 22.0472 34.532 22.9451 33.5012C23.3058 33.0889 23.6812 32.7428 24.3657 33.1772C24.7632 33.4349 25.455 33.2067 25.7495 32.8459C26.2721 32.198 27.0155 32.0139 27.6779 31.712C28.2446 31.4543 29.0101 30.9537 29.5548 31.874C29.9744 31.609 30.5632 31.4396 30.7766 31.0567C31.5937 29.5989 33.235 29.4737 34.4421 28.6565C34.7807 28.4282 35.3548 28.038 35.6566 28.5534C36.3191 29.6726 36.9153 28.9436 37.5115 28.5755C38.0856 28.2294 38.3947 27.611 38.8363 27.125L38.8216 27.1397Z" fill="#916D4D"/>
<path d="M8.68067 56.0091C8.23904 55.4569 8.34945 54.9489 8.9162 54.6102C9.61545 54.1978 10.4325 53.734 11.1979 53.9034C12.1916 54.1243 12.6995 53.4763 13.384 53.1229C13.6048 53.0051 13.8183 52.74 13.7152 52.4971C13.5533 52.1363 13.2147 52.2394 12.935 52.3866C12.7584 52.475 12.6038 52.6222 12.383 52.5412C12.2578 52.4161 12.2431 52.2394 12.3462 52.1363C13.3619 51.0908 14.3703 50.0306 15.4376 49.0366C15.7982 48.6979 16.3282 48.3003 16.7477 48.3298C18.8822 48.477 20.2513 46.9087 21.9074 46.062C24.2848 44.8398 26.4046 43.1611 28.7379 41.8284C29.6064 41.3351 30.2247 40.1865 30.681 39.2146C31.3214 37.8304 32.3887 37.1236 33.7504 36.7555C34.6189 36.5199 35.3328 36.0928 35.9217 35.4449C36.2382 35.0989 36.5768 34.7675 37.0257 34.6645C38.7407 34.2595 39.8595 32.9563 41.1402 31.9329C42.0824 31.1819 43.0024 30.4162 43.9814 29.702C45.0634 28.9142 46.1159 28.0085 46.9329 26.8894C47.2936 26.3961 47.2347 26.0427 46.6385 25.8586C46.0865 25.6966 45.6375 25.0634 44.9529 25.4536C45.2694 25.7923 45.9098 26.0132 45.5123 26.6538C44.5113 28.2441 42.9877 29.3559 41.7144 30.6959C41.4126 31.0199 40.9489 30.8727 40.6397 30.534C40.3159 30.1879 40.5146 29.8787 40.7575 29.6062C41.2138 29.0761 41.6113 28.4945 42.1633 28.038C42.7816 27.5299 43.2012 26.86 43.2821 26.028C42.2517 26.212 41.4788 26.7937 40.8237 27.5741C39.992 28.1337 39.1456 28.6564 38.4022 29.3559C37.6735 30.0406 36.7092 30.4824 35.9806 31.1672C35.2004 31.9034 34.3539 32.5219 33.5001 33.1551C31.6821 34.4951 31.6894 34.5025 31.4024 35.4817C34.1699 33.4054 36.7681 31.6089 39.6902 30.3057C39.7712 30.6812 39.5872 30.7622 39.4253 30.8874C38.1445 31.8887 36.3927 32.3452 35.7524 34.0901C35.7082 34.2006 35.4727 34.2301 35.3844 34.3405C34.8323 35.0621 33.9785 34.9516 33.2646 35.2314C32.5359 35.5186 32.4181 36.6524 31.5275 37.0058C30.8651 37.2635 30.3498 37.7863 29.9376 38.3827C29.3782 39.1926 28.6201 39.7595 27.7737 40.2528C26.6328 40.9154 25.6539 41.7401 24.7264 42.712C23.1881 44.3244 21.2597 45.2374 18.9117 44.8251C18.5878 44.7662 18.3008 44.8619 18.0358 45.0165C16.3723 45.9663 14.6206 46.8793 13.4429 48.4034C12.5817 49.5151 11.6543 50.5533 10.7269 51.5988C10.0865 52.3204 9.5492 53.1597 8.66595 53.6456C8.40833 53.9549 8.15072 54.2715 7.8931 54.5807C7.99615 55.0446 7.66493 55.3244 7.42203 55.6262C6.81848 56.3625 6.20756 57.0988 5.604 57.8351C5.80274 57.9602 5.97203 57.916 6.1266 57.7467C6.82584 56.9442 7.82686 56.5834 8.67331 55.9944L8.68067 56.0091Z" fill="#75673A"/>
<path d="M24.7705 25.6083C25.3373 25.196 26.169 25.2843 26.6106 24.6732C27.251 23.7897 28.0238 23.1418 29.1279 22.862C29.6652 22.7295 29.8934 22.0815 30.2761 21.684C30.7619 21.3158 31.233 20.9109 31.9102 21.0434C32.2635 21.1538 32.4622 20.9477 32.6241 20.6826C33.5368 20.3145 34.4937 20.0862 35.4285 19.8433C37.7691 19.2174 40.1612 18.7756 42.5386 18.2603C42.4356 18.6505 42.3694 19.0481 42.0602 19.3573C41.8836 19.534 41.4346 19.6666 41.7952 20.0494C42.097 20.3734 42.3914 20.3145 42.7153 20.02C43.1643 19.615 43.6206 19.2101 44.1285 18.8861C44.7026 18.518 45.2178 18.783 45.5711 19.4972C45.8876 20.1378 45.5123 20.2777 45.0044 20.4028C44.1359 20.6164 43.6795 21.1612 43.444 22.0668C43.2452 22.8399 42.8478 23.4731 42.0529 24.0474C40.8531 24.9089 39.4325 25.6157 38.5934 26.941C37.1876 26.2415 38.4683 25.4463 38.5934 24.7763C38.2181 24.3787 37.85 24.5554 37.5115 24.5481C36.5104 24.5481 36.1424 23.9812 36.6356 23.1271C36.9079 22.6485 37.2833 22.2362 37.7691 21.9196C38.5272 21.4189 39.2412 20.8667 39.9772 20.3292C40.1465 20.204 40.3158 20.0347 40.2348 19.8285C40.1171 19.5414 39.8226 19.5414 39.5945 19.6739C38.7627 20.1525 37.931 20.6605 37.2906 21.3674C36.7018 22.0226 36.0026 22.2582 35.1782 22.4129C34.3023 22.5675 33.3307 22.5675 32.6241 23.2007C32.1531 23.6204 31.6157 23.856 31.0932 24.1578C29.7977 24.9015 28.5244 25.6967 27.251 26.4845C27.0964 26.5802 26.8903 26.7937 26.9051 26.941C26.9566 27.9718 26.0733 28.2442 25.4845 28.7154C24.9987 29.1056 24.4688 29.4517 24.4246 30.1143C24.3951 30.615 24.3583 31.1304 23.7769 31.0936C23.2175 31.0568 22.7096 30.6223 22.533 30.0996C22.3269 29.4885 22.9893 29.4075 23.3647 29.2382C23.8578 29.0099 24.0566 28.6933 23.9314 28.2147C22.9967 27.8613 22.6434 28.7375 21.9883 29.1572C22.1134 28.2516 22.5771 27.6625 23.0703 27.0735C23.5266 26.536 24.0713 26.0501 24.1449 25.2844C24.3657 25.3948 24.6969 25.6672 24.7853 25.601L24.7705 25.6083ZM24.7116 27.7509C24.8 27.6183 24.7411 27.4932 24.5865 27.4637C24.5276 27.449 24.4025 27.53 24.3878 27.5889C24.3731 27.6478 24.4467 27.7362 24.4835 27.8172C24.5644 27.7951 24.6748 27.8024 24.7116 27.7509Z" fill="#7D6D3F"/>
<path d="M7.21582 43.7868C7.76785 44.1623 8.29045 44.1328 8.67319 43.5659C9.527 42.3069 10.6752 41.4528 12.0664 40.8785C12.8613 40.5546 13.1115 39.8404 13.2219 39.0599C13.3618 38.1101 13.4575 37.153 14.3849 36.5566C14.7529 36.321 14.6425 35.5185 14.856 35.5037C16.1072 35.4227 15.7319 34.23 16.2103 33.6483C16.3428 33.4863 16.4458 33.2875 16.6446 33.258C17.7192 33.1034 18.205 32.3157 18.676 31.4616C18.8968 31.0714 19.2428 30.7547 19.6623 30.5339C20.0377 30.3351 20.3395 30.0185 20.2953 29.5693C20.1996 28.5901 20.9357 28.141 21.4877 27.5888C22.1722 26.9114 22.8862 26.2708 23.291 25.3726C22.6065 25.7996 21.9956 26.2929 21.4436 26.8967C20.7002 27.7066 19.8243 28.3986 19.0588 29.1791C18.0578 30.1952 16.9831 31.1155 16.1808 32.3966C15.4816 33.5231 14.326 34.4655 13.3471 35.4669C11.3009 37.5579 9.64477 39.9655 7.84882 42.2554C7.50288 42.6898 7.38511 43.2346 7.22318 43.7647L7.21582 43.7868Z" fill="#867042"/>
<path d="M5.99399 54.9931C5.60389 56.3625 4.72064 57.3934 3.62393 58.2401C3.08662 58.6524 2.48306 58.7407 1.79854 58.3947C1.12874 58.0633 0.841681 57.6584 1.2097 56.9884C1.4526 56.5393 1.53356 56.1564 1.16554 55.7588C0.297008 56.4951 -0.151979 57.3786 0.201322 58.5419C0.230764 58.6376 0.267566 58.7555 0.230764 58.8291C-0.387514 60.2501 0.348531 61.3177 1.12138 62.3779C1.79854 62.3559 1.62925 61.7153 1.85742 61.3766C2.63763 60.2206 3.51352 59.1751 4.71328 58.4315C4.96353 58.2769 5.14018 57.9971 5.34627 57.7762C5.55973 56.5025 6.7374 55.7956 7.21583 54.6691C7.30415 54.463 7.65745 54.5292 7.90771 54.5881C8.16532 54.2789 8.42294 53.9623 8.68056 53.653C8.61431 53.1818 8.65111 52.6738 8.12852 52.4014C7.41456 53.2628 6.7006 54.1243 5.99399 54.9857V54.9931Z" fill="#7D6D3F"/>
<path d="M7.90763 54.5878C7.66473 54.5289 7.30407 54.4626 7.21574 54.6688C6.73732 55.7953 5.567 56.5021 5.34619 57.7759C5.42716 57.8348 5.50812 57.8568 5.61117 57.8421C6.21472 57.1058 6.82564 56.3696 7.4292 55.6333C7.67945 55.3241 8.00331 55.0516 7.90027 54.5878H7.90763Z" fill="#867042"/>
<path d="M8.12842 52.4088C8.65101 52.6739 8.61421 53.1893 8.68045 53.6605C9.5637 53.1746 10.101 52.3352 10.7414 51.6137C11.6688 50.5682 12.6036 49.53 13.4574 48.4182C14.6351 46.8941 16.3868 45.9812 18.0503 45.0314C18.3153 44.8841 18.6023 44.7884 18.9262 44.8399C21.2668 45.2523 23.2026 44.3393 24.7409 42.7268C25.6684 41.7549 26.6473 40.9303 27.7882 40.2677C28.6346 39.7817 29.3927 39.2074 29.9521 38.3975C30.3643 37.8011 30.8796 37.2784 31.542 37.0207C32.4326 36.6673 32.543 35.5334 33.2791 35.2462C33.993 34.9665 34.8542 35.0769 35.3989 34.3554C35.4872 34.2449 35.7227 34.2155 35.7669 34.105C36.4072 32.36 38.159 31.9036 39.4398 30.9022C39.6017 30.7771 39.7857 30.6961 39.7047 30.3206C36.7826 31.6238 34.1844 33.4203 31.4169 35.4966C31.7039 34.5173 31.6966 34.51 33.5146 33.1699C34.3684 32.5441 35.2149 31.9183 35.9951 31.182C36.7238 30.4973 37.688 30.0555 38.4167 29.3708C39.1601 28.6713 40.0065 28.1486 40.8382 27.589C40.3966 27.1767 39.7195 27.5227 39.2852 27.103C39.138 27.1178 38.9981 27.1325 38.8509 27.1472C38.4093 27.6331 38.0928 28.2443 37.526 28.5977C36.9298 28.9658 36.3336 29.6874 35.6712 28.5756C35.3621 28.0602 34.7953 28.4504 34.4567 28.6787C33.2496 29.4886 31.6156 29.6211 30.7912 31.0789C30.5778 31.4618 29.9816 31.6311 29.5694 31.8962C29.0247 30.9758 28.2592 31.4765 27.6925 31.7342C27.03 32.0361 26.2866 32.2202 25.764 32.8681C25.4696 33.2289 24.7777 33.4571 24.3803 33.1994C23.7031 32.765 23.3277 33.1037 22.9597 33.5234C22.0617 34.5468 21.0166 35.4156 19.9861 36.2991C19.7432 36.5053 19.4635 36.7998 19.8536 37.006C20.8252 37.5213 20.1627 38.0662 19.7653 38.2061C18.7348 38.5742 18.1239 39.3399 17.4983 40.1278C17.1965 40.5033 16.7769 40.6726 16.3721 40.8714C15.2828 41.4015 14.1934 41.939 13.1041 42.4765C12.5226 42.7636 12.0074 43.0508 12.5005 43.8459C12.9569 44.5822 12.0883 45.0166 12.0663 45.7603C11.3744 45.6719 10.7782 45.3185 10.1378 45.6204C9.79188 45.7824 9.48274 45.9075 9.4533 46.3272C9.43122 46.6806 9.65203 46.8426 9.96117 46.9825C10.8886 47.3948 10.2777 48.4551 10.7855 49.0735C10.8518 49.1545 10.5868 49.4122 10.3807 49.4564C9.07056 49.7582 8.38603 50.5314 8.45964 51.9229C8.467 52.0849 8.25355 52.2616 8.1505 52.4309L8.12842 52.4088Z" fill="#867042"/>
<path d="M24.4833 27.8244C24.5643 27.8023 24.6747 27.8097 24.7115 27.7582C24.7998 27.6256 24.741 27.5004 24.5864 27.471C24.5275 27.4563 24.4024 27.5373 24.3877 27.5962C24.3729 27.6551 24.4465 27.7434 24.4833 27.8244Z" fill="#916D4D"/>
</svg>
