<svg width="361" height="611" viewBox="0 0 361 611" fill="none" xmlns="http://www.w3.org/2000/svg">
<path d="M340.678 235.218C340.678 235.218 340.7 235.255 340.708 235.27C340.708 235.255 340.715 235.248 340.722 235.233C340.722 235.233 340.722 235.218 340.722 235.211C340.708 235.211 340.693 235.211 340.678 235.218Z" fill="#DAD0C4"/>
<path d="M346.979 348.818C343.623 341.139 342.577 332.988 342.43 324.742C342.136 308.448 343.593 292.213 344.668 275.971C345.691 260.539 347.332 245.165 349.055 229.792C350.011 221.281 349.938 212.813 347.546 204.494C347.479 204.28 347.413 204.066 347.347 203.853C347.001 202.52 346.648 201.188 346.302 199.862C345.683 198.471 345.89 196.925 345.279 195.482C342.703 189.4 339.221 183.907 334.871 178.967C332.111 175.83 329.52 172.458 326.348 169.8C320.349 164.771 313.386 161.223 305.989 158.727C302.264 157.475 298.312 156.606 294.403 156.231C290.046 155.811 285.608 156.231 281.206 156.135C277.121 156.047 273.257 154.773 269.812 152.711C265.617 150.201 262.003 147.093 258.786 143.169C254.149 137.507 248.194 133.067 242.048 128.907C232.384 122.369 222.057 117.031 210.899 114.145C195.641 110.199 180.044 109.573 164.366 112.761C156.078 114.447 148.254 117.296 140.747 120.904C132.113 125.049 124.222 130.505 117.031 136.896C114.875 138.81 111.953 140.217 110.561 142.558C108.022 146.836 104.43 149.744 100.426 152.233C95.1486 155.509 89.2456 156.348 83.0701 156.223C74.1934 156.047 65.4787 157.328 57.3969 161.164C52.6053 163.439 47.8725 165.876 43.7286 169.351C38.5762 173.673 33.7625 178.496 30.2589 184.04C27.2044 188.87 24.2455 194.024 22.4201 199.678C21.235 203.338 20.4843 206.945 20.3812 210.745C21.2424 210.98 21.5221 211.51 21.5515 212.07C21.5295 211.51 21.2424 210.98 20.3812 210.745C18.5706 220.066 20.1383 229.299 21.0878 238.546C20.6315 238.517 20.1751 238.48 19.7188 238.451C20.2487 238.988 20.7787 239.526 21.3086 240.063C21.9858 253.544 24.6944 266.871 24.4368 280.426C24.3338 280.794 24.5546 280.904 24.8637 280.941L24.9005 280.985C25.1655 285.388 25.4378 289.784 25.6955 294.187C26.6008 309.752 27.8594 325.316 24.9889 340.822C24.9447 341.007 24.9005 341.191 24.8564 341.375C24.3043 342.347 24.0394 343.399 23.7449 344.482C22.9279 347.456 22.052 350.482 19.2772 352.382C17.967 353.648 16.0165 354.252 15.8251 356.623C15.7441 357.639 15.2878 358.287 16.2667 359.229C19.3728 362.204 21.6325 365.738 23.2518 369.795C24.7828 373.631 25.2097 377.703 25.8648 381.634C26.8069 387.296 27.4546 393.164 26.6818 398.907C25.9678 404.223 26.3432 409.569 25.6881 414.826C25.4158 417.034 26.5714 419.17 25.747 421.135C23.8333 425.686 26.461 430.788 23.8554 435.206C23.767 435.353 23.6861 435.633 23.7597 435.736C25.9678 438.865 24.1351 442.274 23.8333 445.307C23.5094 448.576 23.3033 452.022 23.0825 455.24C22.7145 460.703 21.6914 466.115 21.6546 471.622C21.6104 478.602 19.4612 485.376 19.417 492.4C19.3802 497.473 18.9754 502.516 20.5137 507.471C21.5368 510.777 21.5221 514.282 22.9279 517.588C25.6955 524.089 28.5292 530.715 33.0706 535.98C38.2156 541.944 43.228 548.305 50.721 551.942C55.7997 554.409 60.7091 557.258 66.2883 558.363C73.1335 559.71 80.0597 560.277 87.0742 560.085C93.7502 559.909 99.403 563.023 104.504 566.896C107.441 569.127 109.766 572.153 112.379 574.811C117.149 579.641 121.882 584.684 127.674 588.145C139.113 594.978 151.007 600.956 164.352 603.415C169.945 604.446 175.576 605.609 181.207 605.58C194.367 605.514 207.351 603.975 219.754 599.049C233.422 593.623 245.743 586.179 256.077 575.606C259.64 571.954 262.878 567.949 267.111 564.996C272.867 560.976 279.454 560.093 286.248 560.1C300.49 560.115 313.349 556.272 324.655 547.252C336.608 537.71 344.418 525.716 347.906 510.836C350.394 500.241 350.313 489.653 348.164 479.036C348.098 478.241 348.039 477.446 347.973 476.651C348.068 476.179 348.061 475.738 347.693 475.362C347.06 468.507 346.42 461.653 345.787 454.805C345.882 454.047 345.963 453.296 345.58 452.589C345.684 450.344 345.838 447.899 345.463 445.889C344.66 441.597 344.844 437.282 344.233 433.004C343.556 428.285 343.512 423.469 343.269 418.691C342.592 405.652 341.517 392.59 343.571 379.58C344.624 372.931 346.265 366.467 350.946 361.225C351.999 360.039 353.706 359.509 354.207 357.97C351.248 355.334 348.598 352.514 346.994 348.848L346.979 348.818ZM344.013 253.574C344.388 250.467 344.83 247.36 344.778 244.23C344.822 247.36 344.388 250.467 344.013 253.574ZM278.38 159.573C278.843 158.66 279.756 159.478 280.463 159.478C287.44 159.537 294.411 159.323 301.271 161.178C318.671 165.898 331.448 176.324 339.552 192.316C345.713 204.479 347.538 217.445 345.566 230.963C345.058 234.46 344.918 238.009 344.609 241.536C344.624 241.639 344.624 241.749 344.638 241.852C344.631 241.749 344.624 241.639 344.609 241.536C343.954 241.698 343.652 242.139 343.711 242.795C344.337 249.966 343.115 257.071 342.092 264.058C341.554 267.74 341.775 271.34 341.51 274.955C341.238 278.637 339.722 282.119 340.104 285.859C340.171 286.529 340.347 287.678 339.236 287.582C338.743 287.538 338.352 286.544 338.404 285.742C338.662 281.663 338.779 277.569 339.147 273.505C340.34 260.524 341.621 247.551 342.864 234.578C343.144 231.625 343.416 228.68 343.689 225.728C344.852 223.902 343.792 221.958 343.969 220.08C343.969 219.83 343.969 219.58 343.969 219.33C343.836 218.262 345.028 217.157 343.873 216.127C344.057 213.741 343.328 211.481 342.916 209.184C340.259 194.289 332.42 182.523 320.805 173.121C320.15 172.591 319.554 171.597 318.406 171.987C318.406 171.987 318.325 171.935 318.332 171.935C318.678 171.258 318.111 171.221 317.714 171.067C316.86 170.345 316.109 169.462 314.909 169.285C313.886 168.519 312.871 167.753 311.848 166.988C311.001 167.289 310.339 166.642 309.573 166.546C305.76 164.749 301.778 163.483 297.62 162.791C296.891 162.356 296.096 162.445 295.309 162.496C295.036 162.57 294.712 163.071 294.455 163.071C294.712 163.071 295.044 162.577 295.309 162.496C294.904 162.437 294.499 162.386 294.087 162.327C293.557 161.937 292.961 161.929 292.342 162.032C290.149 162.408 287.956 162.518 285.762 162.496C287.956 162.518 290.156 162.408 292.342 162.032C287.992 161.929 283.65 161.834 279.3 161.731C278.821 161.068 277.938 160.42 278.372 159.566L278.38 159.573ZM339.641 350.423C339.78 350.777 339.898 351.145 340.082 351.484C341.297 353.737 343.49 355.99 343.468 358.228C343.446 360.481 341.01 362.624 339.987 364.965C336.365 373.248 335.298 382.054 335.003 390.985C334.584 403.634 335.99 416.224 336.277 428.852C336.284 429.205 336.476 429.61 335.806 429.831C335.033 428.402 335.055 426.834 334.989 425.266C334.422 412.168 333.06 399.062 333.944 385.971C334.422 378.807 335.806 371.636 338.654 364.891C339.133 363.765 339.633 362.653 340.119 361.534C340.2 361.379 340.266 361.239 340.332 361.092C340.759 360.128 340.752 359.237 340.539 358.375C340.752 359.237 340.759 360.135 340.332 361.092C341.113 359.833 343.041 358.994 341.738 356.962C336.851 349.371 335.254 340.8 334.297 332.017C333.23 322.268 333.907 312.535 334.4 302.801C335.349 300.364 334.967 297.809 335.084 295.298C335.121 294.496 334.658 293.517 335.99 293.333C335.651 301.844 335.195 310.348 334.996 318.867C334.746 329.631 335.681 340.255 339.641 350.416V350.423ZM161.422 594.366C160.796 594.175 160.127 594.16 159.472 594.065C159.162 593.682 158.75 593.645 158.301 593.704C155.195 592.217 151.581 591.915 148.902 589.404C152.391 590.501 155.88 591.605 159.361 592.703C163.424 593.962 167.502 595.169 171.815 595.228C173.508 595.228 175.201 595.213 176.894 595.206C175.201 595.213 173.508 595.221 171.815 595.228C180.199 596.862 188.589 596.649 196.988 595.331C197.341 595.272 197.687 595.213 198.04 595.154C207.248 594.146 215.86 591.186 224.207 587.284C228.807 585.134 233.025 582.343 237.382 579.796C240.503 577.314 243.624 574.833 246.744 572.352C244.529 575.864 241.357 578.308 237.816 580.355C231.92 585.185 225.127 588.425 218.12 591.171C207.175 595.456 195.781 597.665 184.004 597.51C176.356 597.415 168.783 596.612 161.422 594.359V594.366ZM55.336 172.51C53.9817 173.327 52.6347 174.137 51.1626 175.028C51.0007 173.459 52.1121 173.055 52.9144 172.547C62.5787 166.384 73.0967 163.431 84.6158 163.903C92.44 164.219 99.69 162.113 106.292 157.828C107.058 157.328 107.647 156.304 108.824 156.65C106.322 160.28 102.281 161.488 98.4976 162.945C93.8238 164.742 88.8996 165.088 83.8798 165.007C73.6929 164.838 64.0507 166.988 55.3286 172.51H55.336ZM31.5985 271.414C31.5323 270.346 31.5544 269.323 31.7384 268.285L31.7752 268.358V268.343C31.7605 268.329 31.7531 268.307 31.7384 268.292C30.627 266.436 31.0612 264.309 30.8331 262.328C29.9056 254.096 29.1622 245.843 28.4041 237.597C28.3011 236.492 27.8594 235.255 29.0886 233.709C29.6627 238.325 30.1706 242.404 30.6785 246.491C30.6785 246.866 30.6932 247.234 30.7006 247.61C31.0907 251.623 31.4808 255.643 31.8709 259.655C31.6869 262.549 32.7247 265.465 31.7826 268.351C33.2105 270.074 32.6437 272.209 32.9529 274.16C33.1148 275.161 32.8425 276.229 33.3724 277.186C33.6153 279.999 33.2252 282.863 34.0349 285.631L33.9686 285.594C34.7783 287.914 35.7425 290.174 36.162 292.596C35.7425 290.174 34.7856 287.914 33.9686 285.594C34.4912 296.734 35.0138 307.867 35.5364 319.007C35.6321 319.139 35.7057 319.279 35.7498 319.419C35.6983 319.279 35.6321 319.146 35.5364 319.007C35.5364 319.551 35.5364 320.096 35.5364 320.648C35.4481 322.651 35.3671 324.646 35.264 326.649C34.8151 335.389 33.63 343.988 30.1044 352.095C29.1696 354.252 26.9983 356.328 27.1013 358.361C27.2117 360.547 29.3168 362.631 30.5534 364.759C30.9435 365.804 31.3262 366.85 31.7163 367.895C32.629 367.682 33.1663 367.903 33.4975 368.337C33.1737 367.903 32.6364 367.682 31.7163 367.895C31.9298 368.668 32.1432 369.434 32.3567 370.207C32.9897 370.627 32.894 371.275 32.894 371.893C33.1516 373.049 33.4092 374.205 33.6668 375.361C33.7699 376.12 33.5417 376.937 34.0643 377.622C34.3219 379.381 34.5795 381.134 34.8371 382.893C34.7635 383.526 34.6384 384.174 35.1242 384.719C35.0359 384.83 35.0432 384.94 35.1463 385.036C34.6237 385.75 35.2714 387.002 34.0569 387.399C33.2841 380.294 32.5554 373.182 29.8394 366.467C28.8678 364.074 27.8226 361.696 26.2181 359.686C25.2906 358.523 25.5335 357.757 26.2401 356.674C32.2463 347.471 33.792 337.009 34.079 326.391C34.5795 308.021 32.7026 289.732 31.5912 271.414H31.5985ZM33.8508 369.118C33.792 368.889 33.7036 368.683 33.5932 368.492C33.7036 368.676 33.792 368.882 33.8508 369.118ZM35.2052 384.005C35.2052 384.086 35.2052 384.16 35.1904 384.241C35.1904 384.16 35.2052 384.086 35.2052 384.005ZM45.1491 180.432C44.7737 180.822 44.391 181.22 44.0156 181.61C44.1555 181.743 44.2953 181.882 44.4425 182.015C44.3027 181.882 44.1628 181.743 44.0156 181.61C42.043 183.429 40.3722 185.512 38.8486 187.706C37.4133 189.761 36.1105 191.903 34.3808 194.583C34.5574 189.65 45.3994 177.104 50.3898 174.8C49.2489 177.472 46.5182 178.334 45.1565 180.432H45.1491ZM28.463 233.23C25.3569 218.1 28.0876 204.251 33.6815 195.423C28.095 207.498 27.3736 220.235 28.463 233.23ZM33.895 408.442C34.1894 408.457 34.4912 408.471 34.7856 408.486C34.9034 420.2 33.5123 431.841 32.8425 443.518C32.526 443.511 32.2095 443.504 31.8856 443.496C32.5554 431.811 33.2252 420.134 33.8876 408.449L33.895 408.442ZM32.4303 447.627C31.8414 458.126 30.6564 468.242 29.464 478.366C28.2275 477.667 28.9414 476.445 28.6912 475.473C30.1412 466.365 30.2516 457.125 31.4808 448.002C31.4808 447.958 31.6353 447.936 32.4303 447.627ZM29.994 509.437C30.4503 510.35 30.5975 511.41 30.8919 512.404C30.9655 512.875 30.914 513.406 31.4734 513.649C31.363 513.693 31.3115 513.766 31.3262 513.884C33.3798 520.673 37.2955 526.489 40.9978 532.394C33.4607 523.632 28.6764 513.649 27.6681 502.001C29.5597 504.121 28.8163 507.066 29.994 509.43V509.437ZM42.8085 533.602C44.7811 535.501 46.7537 537.401 48.7263 539.3C48.5202 540.243 49.742 539.882 49.904 540.545C49.0281 540.964 48.8882 540.059 48.4172 539.801C45.7159 538.579 43.9494 536.422 42.3006 534.146C42.4699 533.962 42.6466 533.786 42.8159 533.602H42.8085ZM114.514 150.333C116.008 148.5 117.745 146.865 119.652 144.863C119.769 146.74 118.408 147.462 117.973 148.603C118.444 148.529 118.879 148.235 119.313 147.97C118.871 148.235 118.444 148.529 117.973 148.603C115.692 149.906 114.867 152.814 112.269 153.771C111.636 155.347 110.613 156.452 108.817 156.643C109.384 154.979 110.488 153.978 112.262 153.764C111.953 151.945 113.653 151.371 114.507 150.333H114.514ZM154.709 123.687C168.223 119.152 182.061 117.569 196.208 119.432C200.653 120.021 205.018 121.177 209.42 122.112C210.03 122.244 210.597 122.561 211.105 123.076C207.233 122.907 203.656 121.258 199.822 121.051C199.152 120.794 198.489 120.477 197.79 120.956C195.965 119.866 193.889 120.396 191.961 120.249C181.442 119.454 171.013 119.932 160.877 123.275L160.76 123.194L160.649 123.29C160.914 124.615 161.871 124.534 162.791 124.512C161.864 124.534 160.914 124.608 160.649 123.29C159.369 123.349 158.176 123.665 157.109 124.394L157.094 124.298C156.535 124.446 155.983 124.593 155.423 124.74C155.033 124.703 154.621 124.585 154.393 125.064C154.157 125.079 153.922 125.101 153.686 125.116C153.686 125.101 153.686 125.086 153.686 125.079C153.657 125.079 153.627 125.079 153.598 125.071C153.127 123.967 154.003 123.938 154.709 123.702V123.687ZM252.103 148.029C252.088 148.043 252.081 148.058 252.073 148.073C252.095 148.065 252.11 148.058 252.132 148.051C255.879 151.261 258.86 155.303 263.026 158.049C264.233 158.822 265.771 159.154 266.927 160.854C264.733 160.67 263.511 159.61 262.26 158.609C258.514 156.694 256.041 153.337 253.096 150.51C253.126 149.545 251.094 149.413 252.066 148.073C250.542 148.794 250.329 146.895 249.298 146.63C247.26 144.31 244.919 142.315 242.402 140.533C240.974 139.031 239.266 137.905 237.507 136.837L237.33 136.771C235.203 134.864 232.73 133.509 230.205 132.221C230.132 132.088 230.029 132.044 229.889 132.081C229.58 131.573 229.087 131.403 228.542 131.33C227.563 129.754 224.626 130.476 224.508 127.884C235.004 132.839 244.463 139.208 252.132 148.043L252.103 148.021V148.029ZM253.148 151.85C252.971 151.555 252.846 151.231 252.684 150.929C252.176 150.458 251.588 150.053 251.043 149.619C251.588 150.061 252.184 150.458 252.684 150.929C252.846 151.231 252.979 151.563 253.148 151.85ZM216.795 588.727C216.677 588.675 216.537 588.572 216.427 588.543C216.537 588.572 216.677 588.675 216.802 588.727H216.795ZM142.219 133.649C141.865 133.487 141.402 133.413 140.872 133.421C140.518 133.421 140.136 133.458 139.731 133.524C140.128 133.458 140.511 133.428 140.872 133.421C141.402 133.421 141.865 133.487 142.219 133.649ZM234.519 577.69C233.871 577.138 233.518 576.961 232.988 577.02C233.518 576.961 233.878 577.138 234.519 577.69ZM234.769 577.918C234.769 577.918 234.725 577.881 234.703 577.859C234.725 577.881 234.747 577.896 234.769 577.918ZM134.66 134.128C137.162 131.006 147.872 125.727 151.279 125.874C145.656 128.664 140.445 131.256 134.66 134.128ZM119.019 568.045C118.938 567.927 118.842 567.824 118.717 567.757C118.842 567.824 118.945 567.919 119.019 568.045ZM114.573 562.604C114.396 562.493 114.212 562.397 114.013 562.309C114.212 562.397 114.404 562.493 114.573 562.604ZM66.6195 552.2C66.6195 552.2 66.6269 552.229 66.6343 552.244C66.6269 552.229 66.6195 552.207 66.6122 552.193C66.6122 552.193 66.6122 552.193 66.6122 552.2H66.6195ZM69.4092 549.785C75.6803 551.294 82.0691 551.191 88.4653 551.294C95.9656 551.419 102.568 554.35 108.684 558.502L108.721 558.48C109.141 558.826 109.553 559.172 109.973 559.526L110.017 559.563C110.79 560.299 111.562 561.028 112.335 561.764L112.387 561.801C113.498 562.957 114.61 564.106 115.721 565.261L115.773 565.328C116.155 566.101 116.693 566.727 117.451 567.161C117.627 567.323 117.811 567.492 117.988 567.654C118.297 568.148 118.555 568.693 119.239 568.759C124.244 574.516 130.361 578.912 136.757 582.954C137.471 583.403 138.288 583.676 137.022 584.419C127.726 578.735 119.703 571.608 112.321 563.583C105.166 555.8 95.8847 552.274 85.3298 552.325C79.6549 552.355 74.0389 552.141 68.5848 550.536C68.6437 549.807 69.0559 549.711 69.4165 549.8L69.4092 549.785ZM113.704 562.191C113.417 562.088 113.123 562 112.814 561.911C113.123 561.992 113.417 562.081 113.704 562.191ZM251.227 567.735C255.157 563.995 258.477 559.629 263.298 556.824C269.9 552.98 276.907 551.096 284.57 551.316C295.596 551.633 305.819 548.975 315.145 542.864C322.704 537.909 328.843 531.687 333.311 523.831C333.73 523.095 334.025 522.292 334.378 521.519C336.77 517.639 338.264 513.42 339.103 508.958H339.125C342.062 499.652 340.936 490.257 339.898 480.833C338.706 470.017 337.705 459.186 336.667 448.356C336.247 443.975 335.931 439.587 335.622 435.191C335.519 433.682 335.268 432.158 335.673 430.648C336.748 430.729 336.564 431.517 336.608 432.143C337.904 450.756 339.839 469.31 341.716 487.879C343.924 509.754 336.498 527.991 318.987 541.598C308.8 549.52 297.024 552.656 284.106 552.244C271.829 551.854 261.966 557.104 254.075 566.366C252.486 568.229 251.058 570.438 248.246 570.857C249.24 569.812 250.241 568.774 251.234 567.728L251.227 567.735ZM308.499 168.173C308.476 167.96 308.506 167.79 308.572 167.636C308.506 167.783 308.469 167.96 308.499 168.173C309.095 168.549 309.698 168.924 310.294 169.3C310.118 170.117 309.566 170.08 309.006 169.815C300.704 165.92 291.915 164.639 282.84 164.882C282.693 164.882 282.531 164.683 282.104 164.381C285.453 163.402 288.647 164.116 291.783 163.962C297.598 164.396 303.066 166.222 308.499 168.166V168.173ZM329.498 184.666C339.53 197.558 343.306 212.224 341.775 228.297C341.562 230.572 341.871 233.046 340.723 235.226C341.017 237.523 340.406 239.761 340.222 242.029C340.185 242.515 340.112 243.052 339.486 243.001C338.86 242.942 338.956 242.331 338.86 241.896C339.545 240.475 339.39 238.929 339.589 237.427C339.699 236.595 339.273 235.417 340.678 235.218C339.56 233.54 340.244 231.758 340.435 230.013C342.967 206.577 335.261 187.618 315.896 173.754C315.594 173.54 315.219 173.423 314.88 173.268C314.806 172.922 314.733 172.576 314.659 172.23C314.792 171.862 314.998 171.611 315.439 171.7C320.496 175.632 325.523 179.556 329.505 184.68L329.498 184.666ZM337.219 257.682C337.219 257.807 337.219 257.932 337.219 258.058C337.219 257.932 337.212 257.807 337.219 257.682ZM336.078 514.031C336.078 514.031 336.093 514.046 336.108 514.061L336.078 514.031ZM334.606 519.502C334.51 519.863 334.444 520.238 334.407 520.614C334.444 520.238 334.518 519.863 334.606 519.502ZM335.533 353.494C335.489 353.288 335.416 353.081 335.349 352.883C335.276 352.676 335.202 352.463 335.143 352.257C335.107 352.117 335.07 351.977 335.048 351.844C335.07 351.984 335.099 352.124 335.143 352.257C335.202 352.463 335.276 352.676 335.349 352.883C335.416 353.089 335.489 353.295 335.533 353.494ZM335.033 351.631C335.026 351.491 335.033 351.359 335.055 351.219C335.026 351.351 335.026 351.491 335.033 351.631ZM338.698 362.049C338.485 362.152 338.286 362.263 338.102 362.381C338.286 362.255 338.485 362.152 338.698 362.049ZM337.793 362.609C337.697 362.69 337.602 362.771 337.513 362.867C337.602 362.778 337.697 362.69 337.793 362.609ZM336.085 283.452C335.32 279.77 336.225 276.111 336.284 272.444C336.328 269.985 336.579 267.533 336.741 265.074C337.359 263.153 337.167 261.15 337.285 259.184C337.764 258.249 337.675 257.248 337.639 256.246C337.904 253.007 338.168 249.775 338.433 246.535C338.433 246.343 338.411 246.152 338.397 245.961C338.404 246.152 338.426 246.343 338.433 246.535C338.875 246.24 339.523 246.196 339.663 245.526C338.698 257.689 337.727 269.86 336.763 282.023C336.718 282.59 336.77 283.194 336.085 283.452ZM343.615 216.937C343.556 217.209 343.527 217.474 343.534 217.739C343.534 217.474 343.556 217.202 343.615 216.937ZM343.542 217.827C343.542 217.931 343.549 218.034 343.571 218.137C343.556 218.034 343.549 217.931 343.542 217.827ZM50.6547 168.799C60.7606 162.091 71.9191 159.021 84.0417 159.514C91.1446 159.802 97.6806 158.057 103.672 154.221C106.844 152.188 109.487 149.575 111.997 146.792C128.447 128.561 148.939 117.723 173.228 114.874C201.397 111.568 226.385 119.711 248.113 137.883C251.492 140.703 254.591 143.817 257.469 147.152C262.753 153.263 269.26 157.401 277.261 159.279C275.023 159.824 272.822 160.398 270.533 159.551C262.621 156.562 257.491 150.12 251.749 144.428C236.219 129.033 217.487 120.102 195.898 117.075C189.149 116.126 182.237 115.794 175.569 116.597C155.269 119.041 137.162 126.905 121.609 140.393C117.156 144.251 113.513 148.897 109.178 152.858C102.767 158.727 95.1118 161.576 86.4928 161.871C82.1943 162.018 77.7633 161.281 73.6193 162.106C69.1221 162.997 64.5954 164.271 60.2896 166.097C56.418 167.739 52.907 170.014 49.2195 171.98C47.6296 172.826 46.4225 174.424 45.127 175.764C44.1555 176.765 43.0956 177.06 41.7928 176.67C44.0671 173.283 47.3573 171.008 50.6621 168.814L50.6547 168.799ZM21.5221 212.453C21.5074 212.563 21.4853 212.681 21.4558 212.791C21.4853 212.681 21.5074 212.57 21.5221 212.453ZM25.4526 273.335C25.5335 273.195 25.6439 273.078 25.7912 272.989C25.6513 273.078 25.5409 273.195 25.4526 273.335ZM26.0267 272.879C26.2033 272.82 26.4168 272.79 26.667 272.805C26.4094 272.79 26.2033 272.82 26.0267 272.879ZM22.6114 352.051C22.3465 352.551 22.685 353.14 23.2003 353.634C23.7449 353.45 23.767 352.993 23.7817 352.529C24.4736 352.058 24.6797 351.329 24.849 350.571C23.7817 350.21 23.4505 349.577 23.4432 348.914C23.4432 349.577 23.7817 350.21 24.849 350.571C26.034 348.656 26.8731 346.624 27.1234 344.364C26.829 344.084 26.7701 343.79 26.8069 343.436C26.7774 343.782 26.8363 344.084 27.1234 344.364C29.0371 338.996 29.6995 333.393 29.8909 327.768C30.5018 309.641 28.6691 291.602 27.6239 273.534C27.6018 273.343 27.5797 273.159 27.5577 272.967C26.5934 260.649 25.5115 248.339 24.0688 236.065C23.6419 237.133 23.5462 238.215 23.5977 239.305C23.5536 238.208 23.6419 237.125 24.0688 236.058C23.2518 229.159 22.5084 222.253 23.1119 215.295C24.2307 202.52 28.6323 191.027 36.9349 181.19C38.0316 179.887 38.5615 177.965 40.4458 177.369C40.7697 178.959 41.859 180.314 38.9295 181.293C37.612 181.735 36.5227 184.982 35.2861 186.933C32.2021 191.785 29.4199 196.851 27.8374 202.358C25.6292 210.023 24.3411 217.813 25.2612 225.941C26.0856 233.216 26.9394 240.505 27.3884 247.845C27.7196 253.294 28.7501 258.764 29.177 264.272C29.4493 267.754 29.361 271.237 29.545 274.697C29.7511 278.651 30.6932 282.539 30.9067 286.537C31.6059 299.908 32.9013 313.271 32.261 326.671C31.8856 334.52 30.8551 342.339 27.8962 349.776C27.0351 351.94 24.7754 353.236 24.9815 356.152C23.5904 355.379 23.2739 354.591 23.2003 353.626C22.6777 353.133 22.3465 352.544 22.6114 352.043V352.051ZM47.7915 545.721C46.6801 544.845 45.5613 543.968 44.4499 543.085C40.0999 538.675 35.5437 534.448 32.4524 528.963C26.7259 518.81 23.0678 508.207 23.2518 496.243C23.4505 483.719 25.3937 471.401 26.3579 458.973C26.7922 453.406 27.3368 447.848 27.7049 442.274C28.3526 432.334 28.9046 422.387 29.4861 412.447C30.2074 400.159 30.7595 387.885 28.279 375.685C27.0498 369.648 24.7092 364.184 21.0952 359.229C22.9206 358.677 24.113 359.362 25.0551 360.996C27.2044 364.707 28.5734 368.624 29.6922 372.799C30.8846 377.253 31.4219 381.723 32.0034 386.236C32.6143 390.992 31.5397 395.69 31.7605 400.402C32.1874 409.605 31.5912 418.772 30.9729 427.931C30.2001 439.513 29.4861 451.109 28.1318 462.625C27.4988 468.014 27.5282 473.448 26.6597 478.808C26.3358 480.803 24.4368 482.592 25.7764 484.831C27.094 484.772 27.8742 484.411 28.2054 483.594C27.8742 484.411 27.094 484.772 25.7764 484.838C25.6881 487.283 24.7975 489.668 25.2023 492.157C24.5031 494.616 24.4368 497.23 24.7386 499.637C25.2906 504.033 26.4315 508.369 27.5209 512.677C28.5734 516.837 29.7216 521.092 32.0181 524.693C36.7288 532.1 42.7423 538.491 48.9398 544.683C49.1458 545.132 49.8451 545.478 49.4918 545.993C48.9618 546.751 48.4319 545.794 47.8651 545.802L47.7842 545.735L47.7915 545.721ZM54.8355 174.571C56.337 174.461 55.9469 173.894 55.5862 173.342C55.9469 173.901 56.337 174.468 54.8355 174.571ZM65.118 551.766C65.0812 551.685 65.0665 551.581 65.0739 551.442C65.0739 551.581 65.0812 551.685 65.118 551.766ZM65.1401 551.795C65.1401 551.795 65.1695 551.847 65.1843 551.869C65.1695 551.847 65.1548 551.824 65.1401 551.795ZM327.341 540.339C321.556 546.243 314.689 550.587 306.901 553.209C299.335 555.756 291.511 556.942 283.436 556.684C273.213 556.353 264.939 560.792 258.256 568.273C247.098 580.767 233.827 590.199 218.09 595.942C202.56 601.611 186.521 603.702 170.122 600.919C161.694 599.491 153.583 596.966 145.612 593.557C131.62 587.563 120.204 578.456 110.039 567.411C102.774 559.519 93.5735 556.242 82.9597 556.64C78.043 556.824 73.2366 556.036 68.4081 555.167C66.4871 554.821 67.0096 553.503 66.7373 552.517C67.4292 553.974 68.8645 552.539 69.9612 552.966C73.9506 554.527 78.3447 554.703 82.5844 554.431C90.7986 553.908 98.2621 555.778 105.188 560.181C110.039 563.266 113.336 567.934 117.385 571.836C124.789 578.971 132.775 585.229 142.204 589.485C146.576 592.504 151.728 593.652 156.586 595.5C156.8 595.552 157.021 595.603 157.234 595.655C160.642 596.472 164.042 597.29 167.45 598.107C168.724 597.709 169.982 597.709 171.234 597.834C169.975 597.709 168.716 597.709 167.45 598.107C169.953 598.711 172.47 599.211 175.061 599.145C183.29 600.5 191.497 599.837 199.63 598.549C213.387 596.369 226.054 591.252 237.617 583.47C244.463 578.861 250.697 573.522 256.122 567.279C264.351 557.81 274.758 554.158 287.19 554.409C300.262 554.674 312.009 550.256 322.285 542.076C331.654 534.618 337.881 524.766 341.473 513.671C344.432 504.526 345.212 494.763 343.247 485.096C342.887 483.329 343.895 481.805 343.608 480.126C345.838 479.993 344.955 481.878 345.36 482.931C345.139 483.432 344.602 483.793 344.741 484.463C349.15 506.271 342.658 524.693 327.341 540.339ZM344.66 471.143C344.763 470.849 344.83 470.569 344.837 470.282C344.837 470.562 344.771 470.849 344.66 471.143ZM344.793 469.87C344.815 469.965 344.822 470.068 344.822 470.171C344.822 470.068 344.815 469.973 344.793 469.87ZM347.759 359.87C343.012 365.826 341.172 372.873 339.95 380.235C337.881 392.671 339.663 405.077 339.854 417.498C339.935 423.109 340.443 428.712 340.597 434.322C340.715 438.769 340.723 443.452 342.011 447.877C342.033 448.437 342.062 448.989 342.084 449.548C342.879 449.21 343.203 449.548 343.343 449.99C343.203 449.556 342.879 449.21 342.084 449.556C342.607 454.96 343.129 460.372 343.652 465.776C343.556 465.93 343.549 466.085 343.645 466.24C344.035 466.335 344.447 466.446 344.602 466.785C344.447 466.446 344.035 466.343 343.645 466.24C343.674 466.652 343.704 467.064 343.733 467.469C343.792 467.882 343.851 468.287 343.91 468.699C344.02 469.811 344.13 470.922 344.241 472.034C344.175 473.198 344.013 474.368 344.668 475.436C344.521 477.041 345.117 478.823 343.593 480.096C342.945 479.817 342.541 479.404 342.467 478.624C341.694 470.341 340.862 462.065 340.104 453.782C339.486 447.052 338.603 440.323 338.478 433.579C338.352 426.562 337.381 419.619 337.263 412.624C337.116 403.914 335.916 395.196 337.131 386.501C338.191 378.91 338.161 370.848 342.423 364.229C345.441 359.546 345.124 356.328 342.342 351.616C338.794 345.601 337.904 338.415 337.182 331.405C335.828 318.27 337.513 305.194 337.859 292.096C339.861 292.118 340.31 293.126 340.156 294.842C339.618 300.798 338.897 306.799 338.824 312.719C338.735 320.008 338.897 327.385 339.861 334.697C340.929 342.781 343.21 350.335 347.958 357.05C348.672 358.051 348.532 358.905 347.752 359.885L347.759 359.87Z" fill="#DAD0C4"/>
<path d="M19.6671 235.535C18.6367 235.726 17.4369 235.225 17.0395 236.418C16.0826 239.282 18.4159 237.972 19.461 238.31C18.541 237.434 17.6725 236.551 19.6598 235.527L19.6671 235.535Z" fill="#DAD0C4"/>
<path d="M19.4683 238.318C19.5124 238.362 19.5566 238.406 19.6081 238.45L19.6523 238.406C19.6007 238.369 19.5345 238.34 19.4683 238.318Z" fill="#DAD0C4"/>
<path d="M21.4408 200.569C20.3147 199.472 21.9045 197.992 20.5576 196.475C20.273 198.738 20.5674 200.102 21.4408 200.569Z" fill="#DAD0C4"/>
<path d="M19.6084 238.443C19.6084 238.443 19.6746 238.443 19.7114 238.443C19.6967 238.428 19.6746 238.406 19.6599 238.392L19.6158 238.436L19.6084 238.443Z" fill="#DAD0C4"/>
<path d="M339.987 364.965C341.01 362.623 343.439 360.481 343.468 358.228C343.49 355.997 341.297 353.737 340.082 351.484C339.898 351.145 339.78 350.784 339.641 350.423C335.681 340.263 334.746 329.638 334.996 318.874C335.195 310.363 335.651 301.851 335.99 293.34C334.658 293.524 335.121 294.503 335.084 295.306C334.967 297.816 335.342 300.371 334.4 302.808C333.899 312.542 333.23 322.276 334.297 332.024C335.261 340.808 336.851 349.378 341.738 356.969C343.188 359.222 340.649 360.002 340.119 361.526C339.626 362.646 339.125 363.757 338.654 364.884C335.806 371.621 334.422 378.799 333.944 385.963C333.06 399.054 334.429 412.16 334.989 425.258C335.055 426.819 335.04 428.395 335.806 429.823C336.483 429.603 336.284 429.205 336.277 428.844C335.997 416.217 334.584 403.627 335.004 390.977C335.298 382.046 336.373 373.241 339.987 364.957V364.965Z" fill="#B77055"/>
<path d="M329.498 184.665C325.516 179.548 320.489 175.616 315.432 171.692C314.99 171.604 314.784 171.854 314.652 172.222C314.725 172.568 314.799 172.914 314.873 173.26C315.211 173.422 315.587 173.533 315.888 173.746C335.254 187.618 342.968 206.577 340.428 230.005C340.237 231.743 339.552 233.532 340.671 235.211C339.265 235.409 339.692 236.588 339.582 237.419C339.39 238.922 339.538 240.468 338.853 241.889C338.949 242.33 338.853 242.942 339.479 242.993C340.112 243.052 340.178 242.515 340.215 242.021C340.399 239.753 341.002 237.523 340.715 235.218C341.856 233.039 341.547 230.565 341.768 228.29C343.291 212.209 339.523 197.543 329.491 184.658L329.498 184.665Z" fill="#B77055"/>
<path d="M339.663 245.526C339.523 246.196 338.875 246.24 338.434 246.535C338.169 249.774 337.904 253.006 337.639 256.246C337.683 257.24 337.764 258.249 337.285 259.184C337.168 261.157 337.359 263.152 336.741 265.074C336.579 267.533 336.321 269.985 336.284 272.444C336.226 276.111 335.32 279.77 336.086 283.451C336.77 283.194 336.719 282.59 336.763 282.023C337.727 269.86 338.699 257.689 339.663 245.526Z" fill="#B77055"/>
<path d="M73.6123 162.091C77.7562 161.274 82.1872 162.003 86.4857 161.856C95.0974 161.561 102.76 158.712 109.171 152.844C113.499 148.883 117.149 144.237 121.602 140.379C137.155 126.89 155.262 119.027 175.562 116.582C182.23 115.78 189.134 116.118 195.891 117.061C217.48 120.087 236.212 129.018 251.742 144.413C257.491 150.112 262.614 156.547 270.526 159.536C272.808 160.383 275.009 159.809 277.254 159.264C269.253 157.387 262.746 153.256 257.461 147.138C254.576 143.802 251.477 140.688 248.106 137.868C226.371 119.689 201.39 111.546 173.221 114.859C148.939 117.709 128.448 128.547 111.99 146.777C109.48 149.56 106.837 152.174 103.665 154.206C97.6809 158.042 91.1375 159.787 84.0346 159.5C71.912 159.014 60.7535 162.084 50.6477 168.784C47.3502 170.978 44.0527 173.253 41.7783 176.64C43.0811 177.038 44.141 176.743 45.1126 175.735C46.408 174.395 47.6225 172.797 49.205 171.95C52.8926 169.992 56.3962 167.709 60.2751 166.067C64.5883 164.241 69.1077 162.968 73.6049 162.077L73.6123 162.091Z" fill="#B77055"/>
<path d="M24.9888 356.152C24.7753 353.243 27.0423 351.94 27.9035 349.776C30.8624 342.339 31.9002 334.52 32.2682 326.671C32.9086 313.278 31.6132 299.915 30.9139 286.537C30.7078 282.539 29.7583 278.651 29.5522 274.698C29.3682 271.23 29.4565 267.747 29.1842 264.272C28.7499 258.772 27.7268 253.301 27.3956 247.846C26.9466 240.505 26.1002 233.223 25.2684 225.941C24.3484 217.805 25.6365 210.023 27.8446 202.358C29.4345 196.851 32.2167 191.785 35.2934 186.933C36.5299 184.982 37.6193 181.735 38.9368 181.293C41.8589 180.314 40.7769 178.959 40.453 177.369C38.5688 177.966 38.0388 179.895 36.9421 181.19C28.6395 191.027 24.238 202.52 23.1192 215.295C22.5083 222.253 23.259 229.159 24.0761 236.058C25.5187 248.331 26.6007 260.642 27.5649 272.96C27.587 273.151 27.6091 273.335 27.6312 273.527C28.669 291.595 30.5017 309.634 29.8982 327.761C29.7068 333.386 29.0517 338.989 27.1306 344.357C26.8804 346.61 26.0413 348.649 24.8563 350.563C24.687 351.322 24.4735 352.051 23.789 352.522C23.7816 352.986 23.7596 353.442 23.2075 353.626C23.2738 354.583 23.5976 355.379 24.9888 356.152Z" fill="#B77055"/>
<path d="M292.35 162.04C292.968 161.937 293.557 161.944 294.094 162.334C294.499 162.393 294.904 162.445 295.316 162.503C296.104 162.452 296.899 162.364 297.627 162.798C301.786 163.49 305.768 164.756 309.581 166.553C310.346 166.656 311.009 167.304 311.855 167.002C312.878 167.768 313.894 168.534 314.917 169.299C316.117 169.476 316.868 170.36 317.721 171.081C318.112 171.236 318.678 171.265 318.34 171.943L318.421 171.994C319.576 171.604 320.165 172.598 320.82 173.128C332.435 182.538 340.274 194.296 342.931 209.191C343.343 211.488 344.072 213.748 343.888 216.134C345.043 217.172 343.851 218.276 343.983 219.337C343.983 219.587 343.983 219.837 343.983 220.088C343.807 221.965 344.867 223.909 343.704 225.735C343.431 228.687 343.159 231.632 342.879 234.585C341.636 247.558 340.347 260.531 339.162 273.512C338.787 277.576 338.677 281.67 338.419 285.749C338.367 286.559 338.75 287.545 339.251 287.589C340.362 287.685 340.186 286.537 340.119 285.867C339.737 282.126 341.26 278.636 341.525 274.962C341.79 271.355 341.569 267.747 342.107 264.065C343.122 257.078 344.352 249.973 343.726 242.802C343.667 242.146 343.969 241.705 344.624 241.543C344.933 238.016 345.073 234.467 345.581 230.97C347.553 217.452 345.728 204.486 339.567 192.323C331.463 176.331 318.678 165.898 301.286 161.186C294.433 159.33 287.455 159.544 280.478 159.485C279.778 159.485 278.858 158.66 278.395 159.58C277.968 160.435 278.851 161.082 279.322 161.745C283.672 161.848 288.015 161.944 292.365 162.047L292.35 162.04Z" fill="#B77055"/>
<path d="M83.8874 164.999C88.8998 165.088 93.8313 164.734 98.5052 162.938C102.288 161.487 106.329 160.28 108.832 156.643C107.647 156.289 107.065 157.32 106.3 157.821C99.6976 162.098 92.4476 164.212 84.6234 163.895C73.1043 163.431 62.5862 166.376 52.922 172.539C52.1197 173.054 51.0082 173.452 51.1702 175.02C52.6423 174.137 53.9892 173.319 55.3436 172.502C64.0657 166.98 73.7079 164.823 83.8947 164.999H83.8874Z" fill="#B77055"/>
<path d="M155.423 124.733C155.983 124.585 156.535 124.438 157.094 124.291L157.109 124.386C158.176 123.658 159.376 123.341 160.649 123.282L160.76 123.186L160.877 123.267C171.013 119.925 181.442 119.446 191.961 120.241C193.882 120.389 195.957 119.858 197.79 120.948C198.489 120.47 199.152 120.779 199.822 121.044C203.649 121.25 207.233 122.899 211.105 123.069C210.597 122.561 210.03 122.237 209.42 122.104C205.025 121.176 200.653 120.013 196.208 119.424C182.061 117.561 168.223 119.144 154.709 123.68C153.988 123.923 153.09 123.945 153.613 125.108C153.87 125.086 154.128 125.071 154.393 125.049C154.621 124.571 155.033 124.696 155.423 124.725V124.733Z" fill="#B77055"/>
<path d="M249.306 146.629C250.336 146.894 250.542 148.794 252.073 148.072C251.102 149.412 253.133 149.545 253.104 150.51C256.04 153.337 258.514 156.702 262.267 158.609C263.519 159.61 264.74 160.67 266.934 160.854C265.778 159.146 264.24 158.822 263.033 158.049C258.859 155.303 255.878 151.261 252.139 148.05C244.47 139.222 235.012 132.846 224.516 127.891C224.633 130.475 227.57 129.761 228.549 131.337C229.101 131.411 229.594 131.587 229.896 132.095C230.043 132.058 230.146 132.103 230.22 132.235C232.745 133.524 235.225 134.878 237.345 136.785L237.522 136.844C239.281 137.912 240.988 139.038 242.416 140.54C244.934 142.322 247.267 144.31 249.313 146.637L249.306 146.629Z" fill="#B77055"/>
<path d="M309.014 169.815C309.581 170.08 310.133 170.117 310.302 169.299C309.706 168.924 309.102 168.548 308.506 168.173C303.067 166.229 297.605 164.403 291.79 163.969C288.655 164.116 285.468 163.402 282.111 164.388C282.546 164.69 282.7 164.889 282.847 164.889C291.93 164.646 300.719 165.927 309.014 169.822V169.815Z" fill="#B77055"/>
<path d="M108.832 156.643C110.62 156.451 111.651 155.347 112.276 153.771C114.874 152.814 115.699 149.906 117.981 148.603C118.415 147.454 119.777 146.74 119.659 144.862C117.752 146.872 116.015 148.507 114.521 150.333C113.675 151.378 111.974 151.953 112.276 153.764C110.502 153.977 109.391 154.979 108.832 156.643Z" fill="#B77055"/>
<path d="M28.463 233.23C27.381 220.235 28.095 207.497 33.6815 195.422C28.0876 204.25 25.3569 218.107 28.463 233.23Z" fill="#B77055"/>
<path d="M34.3736 194.583C36.1033 191.903 37.4134 189.76 38.8414 187.706C40.365 185.519 42.0358 183.428 44.0084 181.61C44.3838 181.22 44.7665 180.822 45.1419 180.432C46.5036 178.333 49.2343 177.472 50.3752 174.799C45.3922 177.104 34.5502 189.65 34.3662 194.583H34.3736Z" fill="#B77055"/>
<path d="M134.66 134.127C140.452 131.248 145.664 128.664 151.28 125.874C147.864 125.726 137.155 131.013 134.66 134.127Z" fill="#B77055"/>
<path d="M359.47 356.895C356.989 354.259 354.082 351.999 352.396 348.649C347.686 339.261 347.075 329.123 347.325 318.962C347.767 300.776 348.981 282.62 350.6 264.493C351.255 257.159 352.028 249.841 352.705 242.507C353.368 235.27 354.73 228.091 354.546 217.231C354.465 209.323 352.823 201.416 347.362 189.783C341.142 176.544 331.331 166.472 318.604 159.419C308.211 153.661 296.906 151.194 285.004 151.489C282.715 151.548 280.426 151.562 278.151 151.018C271.24 149.368 266.176 145.275 261.583 139.937C253.258 130.262 242.821 123.15 231.486 117.414C226.062 114.675 220.357 112.665 214.491 110.854C209.412 109.285 204.289 108.041 199.152 107.32C175.039 103.918 152.42 108.505 131.347 120.838C121.793 126.426 113.174 133.111 105.902 141.453C99.9698 148.257 92.7933 152.1 83.5854 151.481C78.4184 151.135 73.3029 151.901 68.3493 152.954C52.6421 156.282 39.4816 164.064 29.4714 176.809C17.9008 191.535 12.7043 208.212 14.3457 226.906C15.0891 235.395 16.149 243.855 16.9071 252.337C17.8272 262.534 18.7104 272.739 19.3876 282.951C20.4549 299.002 22.1257 315.045 20.845 331.17C20.0795 340.837 17.8345 349.908 9.79694 356.395C8.05987 357.801 8.05987 358.883 9.79694 360.473C13.6906 364.044 17.0617 367.998 18.4823 373.344C20.8818 382.319 21.7061 391.427 21.294 400.667C20.661 414.987 19.947 429.308 18.6663 443.592C17.7462 453.885 16.8188 464.178 15.8767 474.471C14.9861 484.175 13.1533 493.82 14.434 503.65C17.1279 524.354 26.5125 541.082 43.6771 553.194C55.6525 561.646 69.0044 565.357 83.6369 564.893C91.1225 564.658 97.7616 567.014 103.054 572.58C106.27 575.959 109.391 579.413 112.865 582.556C127.851 596.119 145.273 604.976 165.051 608.569C186.72 612.501 207.837 610.005 228.034 600.794C240.135 595.272 250.623 587.534 260.162 578.345C263.659 574.98 266.419 570.813 270.784 568.368C276.054 565.409 281.707 565.342 287.646 565.114C312.613 564.157 332.045 553.15 345.058 531.51C350.821 521.924 353.67 511.403 354.671 500.337C355.326 493.04 353.817 485.891 353.081 478.675C351.749 465.628 350.608 452.552 349.673 439.469C348.458 422.564 346.817 405.659 347.59 388.688C348.09 377.688 350.181 367.152 359.624 359.796C361.111 358.633 360.419 357.882 359.455 356.866L359.47 356.895ZM20.5579 196.483C21.8975 197.992 20.3077 199.472 21.4412 200.576C20.5677 200.115 20.2733 198.75 20.5579 196.483ZM17.047 236.426C17.4444 235.233 18.6442 235.734 19.6747 235.542C17.6873 236.558 18.5485 237.442 19.4686 238.318C18.416 237.994 16.0975 239.29 17.0543 236.433L17.047 236.426ZM350.932 361.188C346.25 366.43 344.609 372.887 343.556 379.543C341.503 392.553 342.577 405.615 343.255 418.654C343.505 423.432 343.549 428.248 344.219 432.967C344.83 437.245 344.646 441.567 345.448 445.852C345.823 447.862 345.676 450.307 345.566 452.552C345.948 453.259 345.868 454.017 345.772 454.768C346.405 461.623 347.045 468.478 347.678 475.325C348.039 475.693 348.054 476.143 347.958 476.614C348.024 477.409 348.083 478.204 348.149 478.999C350.291 489.616 350.379 500.204 347.892 510.799C344.395 525.679 336.593 537.673 324.64 547.215C313.334 556.242 300.476 560.085 286.233 560.063C279.44 560.056 272.852 560.939 267.096 564.96C262.871 567.912 259.633 571.917 256.063 575.569C245.729 586.142 233.407 593.586 219.739 599.012C207.329 603.938 194.353 605.477 181.192 605.543C175.562 605.573 169.938 604.409 164.337 603.378C150.985 600.919 139.098 594.941 127.66 588.108C121.874 584.648 117.134 579.604 112.365 574.774C109.744 572.124 107.426 569.09 104.489 566.859C99.3883 562.986 93.7355 559.872 87.0595 560.049C80.045 560.233 73.1189 559.673 66.2736 558.326C60.6944 557.229 55.785 554.372 50.7063 551.905C43.206 548.268 38.2009 541.907 33.0559 535.943C28.5146 530.678 25.6808 524.052 22.9133 517.551C21.5074 514.245 21.5221 510.74 20.499 507.434C18.9607 502.479 19.3655 497.436 19.4023 492.363C19.4538 485.339 21.5957 478.565 21.6399 471.585C21.6767 466.085 22.6998 460.673 23.0678 455.203C23.2886 451.985 23.4947 448.54 23.8186 445.27C24.1204 442.237 25.9531 438.828 23.745 435.699C23.6714 435.596 23.745 435.316 23.8407 435.169C26.4389 430.758 23.8186 425.656 25.7323 421.098C26.5567 419.133 25.3937 417.005 25.6734 414.789C26.3285 409.532 25.9531 404.186 26.6671 398.87C27.4326 393.127 26.7922 387.259 25.8501 381.597C25.195 377.666 24.7681 373.594 23.2371 369.758C21.6178 365.708 19.3582 362.174 16.252 359.192C15.2731 358.257 15.7295 357.602 15.8104 356.586C16.0018 354.223 17.9597 353.611 19.2625 352.345C22.0374 350.445 22.9133 347.419 23.7303 344.445C24.0247 343.362 24.2897 342.31 24.8417 341.338C24.8859 341.154 24.93 340.97 24.9742 340.785C27.8448 325.28 26.5935 309.707 25.6808 294.15C25.4232 289.747 25.1508 285.351 24.8859 280.948L24.849 280.904C24.5473 280.867 24.3265 280.757 24.4221 280.389C24.6798 266.834 21.9711 253.507 21.294 240.019C20.764 239.481 20.2341 238.944 19.7041 238.406C20.1604 238.436 20.6168 238.473 21.0731 238.502C20.1236 229.254 18.5632 220.021 20.3665 210.7C20.4696 206.901 21.2204 203.293 22.4054 199.634C24.2308 193.979 27.1897 188.833 30.2443 183.995C33.7478 178.459 38.5616 173.629 43.7139 169.307C47.8578 165.832 52.5979 163.394 57.3822 161.119C65.464 157.283 74.1861 156.002 83.0555 156.179C89.2309 156.297 95.1339 155.465 100.411 152.188C104.415 149.7 108.007 146.791 110.547 142.514C111.938 140.172 114.86 138.766 117.017 136.852C124.208 130.461 132.098 125.005 140.732 120.86C148.24 117.252 156.071 114.403 164.352 112.717C180.022 109.528 195.626 110.154 210.884 114.101C222.043 116.987 232.369 122.325 242.034 128.863C248.187 133.023 254.134 137.455 258.771 143.125C261.988 147.049 265.602 150.156 269.797 152.667C273.242 154.728 277.106 155.995 281.191 156.091C285.593 156.186 290.024 155.767 294.389 156.186C298.297 156.562 302.25 157.431 305.974 158.682C313.371 161.171 320.334 164.727 326.333 169.756C329.505 172.414 332.096 175.793 334.856 178.923C339.206 183.863 342.688 189.356 345.264 195.437C345.875 196.88 345.669 198.426 346.287 199.818C346.633 201.151 346.986 202.483 347.332 203.809C347.399 204.022 347.465 204.236 347.531 204.457C349.923 212.776 349.997 221.244 349.04 229.755C347.318 245.121 345.676 260.495 344.653 275.934C343.578 292.177 342.121 308.411 342.415 324.705C342.563 332.952 343.615 341.109 346.964 348.781C348.561 352.441 351.211 355.261 354.177 357.904C353.677 359.443 351.977 359.973 350.917 361.158L350.932 361.188Z" fill="#B77055"/>
<path d="M343.254 485.096C345.227 494.763 344.439 504.533 341.481 513.67C337.889 524.766 331.662 534.618 322.292 542.076C312.017 550.256 300.269 554.666 287.197 554.409C274.765 554.158 264.35 557.81 256.129 567.279C250.704 573.522 244.47 578.86 237.625 583.47C226.061 591.245 213.394 596.369 199.637 598.548C191.504 599.837 183.29 600.5 175.068 599.145C172.477 599.218 169.96 598.718 167.458 598.107C164.05 597.289 160.649 596.472 157.241 595.655L156.594 595.5C151.721 593.652 146.561 592.504 142.189 589.47L142.211 589.492C132.782 585.237 124.796 578.978 117.392 571.844C113.344 567.941 110.053 563.273 105.196 560.188C98.2693 555.786 90.8132 553.915 82.5916 554.438C78.352 554.703 73.9578 554.526 69.9684 552.973C68.8791 552.546 67.4512 553.967 66.7593 552.539C67.0243 553.518 66.509 554.828 68.4227 555.174C73.2512 556.036 78.0576 556.824 82.9743 556.647C93.5881 556.257 102.789 559.526 110.053 567.419C120.218 578.463 131.627 587.571 145.626 593.564C153.598 596.973 161.709 599.498 170.137 600.927C186.528 603.71 202.574 601.619 218.105 595.949C233.834 590.206 247.112 580.775 258.271 568.28C264.954 560.792 273.227 556.352 283.451 556.691C291.525 556.956 299.349 555.771 306.916 553.216C314.711 550.595 321.578 546.243 327.356 540.346C342.68 524.7 349.172 506.278 344.756 484.47C344.616 483.792 345.153 483.439 345.374 482.938C344.969 481.885 345.86 480.001 343.622 480.133C343.902 481.812 342.901 483.329 343.262 485.103L343.254 485.096Z" fill="#B77055"/>
<path d="M343.615 480.133C343.615 480.133 343.615 480.111 343.615 480.096C343.615 480.096 343.608 480.096 343.6 480.096C343.586 480.111 343.571 480.126 343.549 480.14C343.571 480.14 343.593 480.14 343.615 480.14V480.133Z" fill="#B77055"/>
<path d="M66.7521 552.538C66.7227 552.421 66.6785 552.303 66.6196 552.2C66.6638 552.332 66.708 552.443 66.7521 552.538Z" fill="#B77055"/>
<path d="M32.0255 524.685C29.7364 521.085 28.5808 516.829 27.5282 512.669C26.4389 508.362 25.298 504.025 24.746 499.63C24.4442 497.222 24.5105 494.608 25.2097 492.149C24.7975 489.661 25.6881 487.282 25.7765 484.831C24.4369 482.592 26.3359 480.811 26.6597 478.808C27.5282 473.448 27.4988 468.014 28.1318 462.625C29.4861 451.109 30.1927 439.505 30.9729 427.931C31.5839 418.772 32.1874 409.605 31.7605 400.402C31.5397 395.69 32.6143 390.992 32.0034 386.236C31.4219 381.722 30.8846 377.253 29.6922 372.799C28.5734 368.631 27.2044 364.707 25.0551 360.996C24.113 359.362 22.928 358.677 21.0952 359.229C24.7092 364.184 27.0572 369.648 28.279 375.685C30.7595 387.885 30.2074 400.159 29.4861 412.447C28.9046 422.387 28.3526 432.334 27.7049 442.274C27.3442 447.847 26.7922 453.406 26.3579 458.973C25.3937 471.401 23.4506 483.719 23.2518 496.243C23.0605 508.207 26.726 518.802 32.4524 528.963C35.5438 534.441 40.0999 538.674 44.4499 543.085C45.5613 543.961 46.6801 544.844 47.7916 545.721L47.8725 545.787C48.4319 545.787 48.9692 546.737 49.4992 545.978C49.8598 545.463 49.1532 545.117 48.9471 544.668C42.7496 538.476 36.7362 532.085 32.0255 524.678V524.685Z" fill="#B77055"/>
<path d="M48.9248 544.631C48.9248 544.631 48.9396 544.66 48.9469 544.675L48.9175 544.631H48.9248Z" fill="#B77055"/>
<path d="M339.869 334.682C338.904 327.371 338.75 320.001 338.831 312.704C338.897 306.784 339.618 300.784 340.163 294.827C340.318 293.104 339.869 292.103 337.866 292.081C337.521 305.179 335.835 318.256 337.189 331.391C337.911 338.393 338.801 345.586 342.349 351.602C345.131 356.314 345.44 359.524 342.43 364.214C338.168 370.833 338.205 378.895 337.138 386.486C335.923 395.182 337.123 403.907 337.27 412.609C337.388 419.604 338.352 426.547 338.485 433.564C338.61 440.308 339.493 447.038 340.111 453.767C340.87 462.05 341.701 470.326 342.474 478.609C342.548 479.39 342.953 479.802 343.6 480.082C345.124 478.808 344.528 477.026 344.675 475.421C344.02 474.354 344.182 473.183 344.248 472.02C344.138 470.908 344.027 469.796 343.917 468.684C343.858 468.279 343.799 467.867 343.74 467.455C343.711 467.042 343.681 466.637 343.652 466.225C343.556 466.07 343.563 465.916 343.659 465.761C343.137 460.357 342.614 454.953 342.091 449.541C342.062 448.982 342.04 448.429 342.018 447.87C340.73 443.445 340.722 438.762 340.605 434.315C340.45 428.704 339.949 423.109 339.861 417.491C339.677 405.07 337.896 392.664 339.957 380.228C341.179 372.865 343.019 365.819 347.766 359.863C348.546 358.883 348.686 358.029 347.972 357.028C343.225 350.32 340.943 342.759 339.876 334.675L339.869 334.682Z" fill="#B77055"/>
<path d="M254.076 566.366C261.966 557.103 271.829 551.846 284.106 552.244C297.031 552.656 308.801 549.512 318.987 541.597C336.491 527.991 343.925 509.746 341.716 487.879C339.84 469.317 337.911 450.763 336.608 432.143C336.564 431.517 336.748 430.722 335.673 430.648C335.269 432.157 335.512 433.681 335.622 435.191C335.931 439.579 336.248 443.975 336.667 448.355C337.705 459.186 338.706 470.017 339.898 480.833C340.936 490.257 342.062 499.659 339.126 508.958H339.103C338.257 513.42 336.763 517.639 334.378 521.519C334.025 522.292 333.73 523.102 333.311 523.831C328.843 531.687 322.712 537.909 315.145 542.864C305.82 548.975 295.596 551.633 284.57 551.316C276.9 551.095 269.901 552.973 263.298 556.824C258.485 559.629 255.158 564.002 251.227 567.735C250.233 568.773 249.24 569.819 248.239 570.864C251.05 570.445 252.478 568.236 254.068 566.373L254.076 566.366Z" fill="#B77055"/>
<path d="M33.3722 277.186C32.8423 276.229 33.1146 275.161 32.9527 274.16C32.6362 272.209 33.2103 270.066 31.7824 268.351C32.7245 265.465 31.6867 262.556 31.8707 259.655C31.4806 255.643 31.0905 251.623 30.7004 247.61C30.7004 247.234 30.6857 246.866 30.6783 246.491C30.1704 242.404 29.6626 238.325 29.0885 233.709C27.8666 235.255 28.3083 236.492 28.4039 237.597C29.1621 245.843 29.9055 254.096 30.8329 262.328C31.0537 264.309 30.6268 266.436 31.7382 268.292C31.5542 269.33 31.5321 270.353 31.5984 271.421C32.7098 289.732 34.5867 308.029 34.0862 326.399C33.7991 337.016 32.2535 347.478 26.2473 356.682C25.5481 357.757 25.2978 358.53 26.2252 359.693C27.8298 361.711 28.875 364.089 29.8466 366.474C32.5626 373.189 33.2913 380.302 34.0641 387.407C35.2786 387.009 34.6309 385.757 35.1535 385.051C35.0504 384.955 35.0431 384.844 35.1314 384.734C34.6456 384.189 34.7707 383.541 34.8443 382.908C34.5867 381.148 34.3291 379.396 34.0715 377.636C33.5489 376.952 33.7771 376.134 33.674 375.376C33.4164 374.22 33.1588 373.064 32.9012 371.908C32.9012 371.29 32.9969 370.642 32.3639 370.222C32.1504 369.449 31.937 368.683 31.7235 367.91C31.3334 366.865 30.9507 365.819 30.5606 364.774C29.324 362.646 27.2189 360.555 27.1085 358.375C27.0055 356.343 29.1768 354.267 30.1116 352.11C33.6372 344.003 34.8222 335.403 35.2712 326.664C35.3743 324.669 35.4552 322.666 35.5436 320.663C35.5436 320.118 35.5436 319.574 35.5436 319.021C35.021 307.881 34.4984 296.749 33.9758 285.609L34.042 285.646C33.2324 282.877 33.6225 280.013 33.3796 277.201L33.3722 277.186ZM32.5405 371.54C32.4743 371.429 32.4375 371.304 32.4154 371.186C32.4375 371.312 32.4743 371.429 32.5405 371.54Z" fill="#B77055"/>
<path d="M198.04 595.154C197.687 595.213 197.341 595.272 196.988 595.331C188.589 596.649 180.198 596.862 171.815 595.228C167.502 595.169 163.431 593.961 159.361 592.702C155.872 591.605 152.383 590.501 148.902 589.404C151.581 591.915 155.202 592.216 158.301 593.704C158.743 593.645 159.162 593.682 159.471 594.064C160.127 594.16 160.796 594.175 161.422 594.366C168.782 596.619 176.356 597.422 184.004 597.518C195.781 597.665 207.182 595.463 218.119 591.178C225.127 588.432 231.92 585.192 237.816 580.362C237.669 580.178 237.522 579.987 237.382 579.803C233.017 582.35 228.799 585.141 224.207 587.291C215.86 591.2 207.248 594.153 198.04 595.161V595.154Z" fill="#B77055"/>
<path d="M108.685 558.502C102.568 554.35 95.9659 551.42 88.4656 551.294C82.0693 551.191 75.6878 551.294 69.4094 549.785C69.0487 549.697 68.6365 549.8 68.5776 550.521C74.0317 552.126 79.6477 552.34 85.3227 552.31C95.8775 552.259 105.159 555.786 112.313 563.568C119.689 571.593 127.711 578.728 137.015 584.405C138.274 583.661 137.457 583.396 136.75 582.939C130.361 578.89 124.237 574.502 119.232 568.744C118.548 568.685 118.29 568.133 117.981 567.64C117.804 567.478 117.62 567.316 117.444 567.146C116.686 566.712 116.156 566.086 115.765 565.313L115.714 565.247C114.603 564.091 113.491 562.942 112.38 561.786L112.328 561.749C111.555 561.013 110.782 560.277 110.01 559.548L109.965 559.511C109.546 559.165 109.134 558.812 108.714 558.466L108.677 558.488L108.685 558.502Z" fill="#B77055"/>
<path d="M40.9977 532.394C37.2881 526.489 33.3797 520.672 31.3261 513.884C31.3188 513.766 31.3629 513.685 31.4733 513.648C30.9139 513.405 30.9654 512.875 30.8918 512.404C30.6048 511.41 30.4502 510.35 29.9939 509.437C28.8236 507.073 29.5596 504.128 27.668 502.008C28.6763 513.648 33.4606 523.64 40.9977 532.401V532.394Z" fill="#B77055"/>
<path d="M31.4737 448.009C30.2445 457.139 30.1341 466.379 28.6841 475.48C28.9343 476.444 28.2204 477.666 29.4569 478.373C30.642 468.25 31.8344 458.133 32.4232 447.634C31.6283 447.943 31.4737 447.965 31.4737 448.009Z" fill="#B77055"/>
<path d="M48.7192 539.3C46.7466 537.401 44.774 535.501 42.8014 533.602C42.6321 533.786 42.4554 533.962 42.2861 534.146C43.9349 536.421 45.7014 538.579 48.4027 539.801C48.8737 540.059 49.0136 540.964 49.8895 540.545C49.7275 539.882 48.5057 540.243 48.7118 539.3H48.7192Z" fill="#B77055"/>
<path d="M246.744 572.352C243.623 574.833 240.503 577.314 237.382 579.795C237.529 579.979 237.676 580.171 237.816 580.355C241.349 578.308 244.529 575.864 246.744 572.352Z" fill="#B77055"/>
<path d="M34.7857 408.479C34.4913 408.464 34.1895 408.449 33.8951 408.435C33.2253 420.119 32.5555 431.797 31.8931 443.481C32.2096 443.489 32.5261 443.496 32.8499 443.503C33.5197 431.826 34.9108 420.186 34.7931 408.471L34.7857 408.479Z" fill="#B77055"/>
</svg>
