<svg width="353" height="505" viewBox="0 0 353 505" fill="none" xmlns="http://www.w3.org/2000/svg">
<path d="M332.678 129.218C332.678 129.218 332.7 129.255 332.708 129.27C332.708 129.255 332.715 129.248 332.722 129.233C332.722 129.233 332.722 129.218 332.722 129.211C332.708 129.211 332.693 129.211 332.678 129.218Z" fill="#DAD0C4"/>
<path d="M338.979 242.818C335.623 235.139 334.577 226.988 334.43 218.742C334.136 202.448 335.593 186.213 336.668 169.971C337.691 154.539 339.332 139.165 341.055 123.792C342.011 115.281 341.938 106.813 339.546 98.4935C339.479 98.28 339.413 98.0665 339.347 97.853C339.001 96.5203 338.648 95.1877 338.302 93.8624C337.683 92.4708 337.89 90.9246 337.279 89.4815C334.703 83.3999 331.221 77.9073 326.871 72.9668C324.111 69.8303 321.52 66.4581 318.348 63.8002C312.349 58.7714 305.386 55.2226 297.989 52.7266C294.264 51.4749 290.312 50.6061 286.403 50.2306C282.046 49.8109 277.608 50.2306 273.206 50.1349C269.121 50.0466 265.257 48.7728 261.812 46.7112C257.617 44.2005 254.003 41.0934 250.786 37.1691C246.149 31.5071 240.194 27.0674 234.048 22.9074C224.384 16.3693 214.057 11.0313 202.899 8.14507C187.641 4.19863 172.044 3.5728 156.366 6.76087C148.078 8.44694 140.254 11.2963 132.747 14.9041C124.113 19.0493 116.222 24.5051 109.031 30.896C106.875 32.8103 103.953 34.2166 102.561 36.558C100.022 40.8357 96.4302 43.744 92.4261 46.2326C87.1486 49.5091 81.2456 50.3484 75.0701 50.2233C66.1934 50.0465 57.4787 51.3277 49.3969 55.1637C44.6053 57.4388 39.8725 59.8758 35.7286 63.3511C30.5762 67.673 25.7625 72.4956 22.2589 78.0398C19.2044 82.8698 16.2455 88.0237 14.4201 93.6783C13.235 97.3376 12.4843 100.945 12.3812 104.745C13.2424 104.98 13.5221 105.51 13.5515 106.07C13.5295 105.51 13.2424 104.98 12.3812 104.745C10.5706 114.066 12.1383 123.299 13.0878 132.546C12.6315 132.517 12.1751 132.48 11.7188 132.451C12.2487 132.988 12.7787 133.526 13.3086 134.063C13.9858 147.544 16.6944 160.871 16.4368 174.426C16.3338 174.794 16.5546 174.904 16.8637 174.941L16.9005 174.985C17.1655 179.388 17.4378 183.784 17.6955 188.187C18.6008 203.752 19.8594 219.316 16.9889 234.822C16.9447 235.006 16.9005 235.191 16.8564 235.375C16.3043 236.347 16.0394 237.399 15.7449 238.482C14.9279 241.456 14.052 244.482 11.2772 246.382C9.967 247.648 8.01648 248.252 7.82511 250.623C7.74414 251.639 7.28779 252.287 8.26673 253.229C11.3728 256.204 13.6325 259.738 15.2518 263.795C16.7828 267.631 17.2097 271.703 17.8648 275.634C18.8069 281.296 19.4546 287.164 18.6818 292.907C17.9678 298.223 18.3432 303.569 17.6881 308.826C17.4158 311.034 18.5714 313.17 17.747 315.135C15.8333 319.686 18.461 324.788 15.8554 329.206C15.767 329.353 15.6861 329.633 15.7597 329.736C17.9678 332.865 16.1351 336.274 15.8333 339.307C15.5094 342.576 15.3033 346.022 15.0825 349.24C14.7145 354.703 13.6914 360.115 13.6546 365.622C13.6104 372.602 11.4612 379.376 11.417 386.4C11.3802 391.473 10.9754 396.516 12.5137 401.471C13.5368 404.777 13.5221 408.282 14.9279 411.588C17.6955 418.089 20.5292 424.715 25.0706 429.98C30.2156 435.944 35.228 442.305 42.721 445.942C47.7997 448.409 52.7091 451.258 58.2883 452.363C65.1335 453.71 72.0597 454.277 79.0742 454.085C85.7502 453.909 91.403 457.023 96.5038 460.896C99.4406 463.127 101.766 466.153 104.379 468.811C109.149 473.641 113.882 478.684 119.674 482.145C131.113 488.978 143.007 494.956 156.352 497.415C161.945 498.446 167.576 499.609 173.207 499.58C186.367 499.514 199.351 497.975 211.754 493.049C225.422 487.623 237.743 480.179 248.077 469.606C251.64 465.954 254.878 461.949 259.111 458.996C264.867 454.976 271.454 454.093 278.248 454.1C292.49 454.115 305.349 450.272 316.655 441.252C328.608 431.71 336.417 419.716 339.906 404.836C342.394 394.241 342.313 383.653 340.164 373.036C340.098 372.241 340.039 371.446 339.973 370.651C340.068 370.179 340.061 369.738 339.693 369.362C339.06 362.507 338.42 355.653 337.787 348.805C337.882 348.047 337.963 347.296 337.58 346.589C337.683 344.344 337.838 341.899 337.463 339.889C336.66 335.597 336.844 331.282 336.233 327.004C335.556 322.285 335.512 317.469 335.269 312.691C334.592 299.652 333.517 286.59 335.571 273.58C336.624 266.931 338.265 260.467 342.946 255.225C343.999 254.039 345.706 253.509 346.207 251.97C343.248 249.334 340.598 246.514 338.994 242.848L338.979 242.818ZM336.013 147.574C336.388 144.467 336.83 141.36 336.778 138.23C336.822 141.36 336.388 144.467 336.013 147.574ZM270.38 53.5733C270.843 52.6603 271.756 53.4776 272.463 53.4776C279.44 53.5365 286.411 53.323 293.271 55.1784C310.671 59.8979 323.448 70.3236 331.552 86.3155C337.713 98.4788 339.538 111.445 337.566 124.963C337.058 128.46 336.918 132.009 336.609 135.536C336.624 135.639 336.624 135.749 336.638 135.852C336.631 135.749 336.624 135.639 336.609 135.536C335.954 135.698 335.652 136.139 335.711 136.795C336.337 143.966 335.115 151.071 334.092 158.058C333.554 161.74 333.775 165.34 333.51 168.955C333.238 172.637 331.722 176.119 332.104 179.859C332.171 180.529 332.347 181.678 331.236 181.582C330.743 181.538 330.352 180.544 330.404 179.742C330.662 175.663 330.779 171.569 331.147 167.505C332.34 154.524 333.621 141.551 334.864 128.578C335.144 125.625 335.416 122.68 335.689 119.728C336.852 117.902 335.792 115.958 335.969 114.081C335.969 113.83 335.969 113.58 335.969 113.33C335.836 112.262 337.028 111.157 335.873 110.127C336.057 107.741 335.328 105.481 334.916 103.184C332.259 88.2887 324.42 76.5231 312.805 67.1208C312.15 66.5907 311.554 65.5967 310.406 65.9869C310.406 65.9869 310.325 65.9354 310.332 65.9354C310.678 65.258 310.111 65.2212 309.714 65.0666C308.86 64.345 308.109 63.4615 306.909 63.2848C305.886 62.5191 304.871 61.7534 303.848 60.9876C303.001 61.2895 302.339 60.6416 301.573 60.5459C297.76 58.7493 293.778 57.483 289.62 56.7909C288.891 56.3564 288.096 56.4448 287.309 56.4963C287.036 56.57 286.712 57.0706 286.455 57.0706C286.712 57.0706 287.044 56.5773 287.309 56.4963C286.904 56.4374 286.499 56.3859 286.087 56.327C285.557 55.9368 284.961 55.9294 284.342 56.0325C282.149 56.408 279.956 56.5184 277.762 56.4963C279.956 56.5184 282.156 56.408 284.342 56.0325C279.992 55.9294 275.65 55.8337 271.3 55.7306C270.821 55.068 269.938 54.42 270.372 53.566L270.38 53.5733ZM331.641 244.423C331.78 244.777 331.898 245.145 332.082 245.484C333.297 247.737 335.49 249.99 335.468 252.228C335.446 254.481 333.01 256.624 331.987 258.965C328.365 267.248 327.298 276.054 327.003 284.985C326.584 297.634 327.99 310.224 328.277 322.852C328.284 323.205 328.476 323.61 327.806 323.831C327.033 322.402 327.055 320.834 326.989 319.266C326.422 306.168 325.06 293.062 325.944 279.971C326.422 272.807 327.806 265.636 330.654 258.891C331.133 257.765 331.633 256.653 332.119 255.534C332.2 255.379 332.266 255.239 332.332 255.092C332.759 254.128 332.752 253.237 332.539 252.375C332.752 253.237 332.759 254.135 332.332 255.092C333.113 253.833 335.041 252.994 333.738 250.962C328.851 243.371 327.254 234.8 326.297 226.017C325.23 216.268 325.907 206.535 326.4 196.801C327.349 194.364 326.967 191.809 327.084 189.298C327.121 188.496 326.658 187.517 327.99 187.333C327.651 195.844 327.195 204.348 326.996 212.867C326.746 223.631 327.681 234.255 331.641 244.416V244.423ZM153.422 488.366C152.796 488.175 152.127 488.16 151.472 488.065C151.162 487.682 150.75 487.645 150.301 487.704C147.195 486.217 143.581 485.915 140.902 483.404C144.391 484.501 147.88 485.605 151.361 486.703C155.424 487.962 159.502 489.169 163.815 489.228C165.508 489.228 167.201 489.213 168.894 489.206C167.201 489.213 165.508 489.221 163.815 489.228C172.199 490.862 180.589 490.649 188.988 489.331C189.341 489.272 189.687 489.213 190.04 489.154C199.248 488.146 207.86 485.186 216.207 481.284C220.807 479.134 225.025 476.343 229.382 473.796C232.503 471.314 235.624 468.833 238.744 466.352C236.529 469.864 233.357 472.308 229.816 474.355C223.92 479.185 217.127 482.425 210.12 485.171C199.175 489.456 187.781 491.665 176.004 491.51C168.356 491.415 160.783 490.612 153.422 488.359V488.366ZM47.336 66.5097C45.9817 67.327 44.6347 68.1369 43.1626 69.0278C43.0007 67.4595 44.1121 67.0545 44.9144 66.5465C54.5787 60.3839 65.0967 57.4314 76.6158 57.9026C84.44 58.2192 91.69 56.1135 98.2924 51.8283C99.0578 51.3277 99.6467 50.3042 100.824 50.6503C98.3218 54.2801 94.2809 55.4876 90.4976 56.9455C85.8238 58.742 80.8996 59.088 75.8798 59.007C65.6929 58.8377 56.0507 60.9876 47.3286 66.5097H47.336ZM23.5985 165.414C23.5323 164.346 23.5544 163.323 23.7384 162.285L23.7752 162.358V162.343C23.7605 162.329 23.7531 162.307 23.7384 162.292C22.627 160.436 23.0612 158.309 22.8331 156.328C21.9056 148.096 21.1622 139.843 20.4041 131.597C20.3011 130.492 19.8594 129.255 21.0886 127.709C21.6627 132.325 22.1706 136.404 22.6785 140.491C22.6785 140.866 22.6932 141.234 22.7006 141.61C23.0907 145.623 23.4808 149.643 23.8709 153.655C23.6869 156.549 24.7247 159.465 23.7826 162.351C25.2105 164.074 24.6437 166.209 24.9529 168.16C25.1148 169.161 24.8425 170.229 25.3724 171.186C25.6153 173.999 25.2252 176.863 26.0349 179.631L25.9686 179.594C26.7783 181.914 27.7425 184.174 28.162 186.596C27.7425 184.174 26.7856 181.914 25.9686 179.594C26.4912 190.734 27.0138 201.867 27.5364 213.007C27.6321 213.139 27.7057 213.279 27.7498 213.419C27.6983 213.279 27.6321 213.146 27.5364 213.007C27.5364 213.551 27.5364 214.096 27.5364 214.648C27.4481 216.651 27.3671 218.646 27.264 220.649C26.8151 229.389 25.63 237.988 22.1044 246.095C21.1696 248.252 18.9983 250.328 19.1013 252.361C19.2117 254.547 21.3168 256.631 22.5534 258.759C22.9435 259.804 23.3262 260.85 23.7163 261.895C24.629 261.682 25.1663 261.903 25.4975 262.337C25.1737 261.903 24.6364 261.682 23.7163 261.895C23.9298 262.668 24.1432 263.434 24.3567 264.207C24.9897 264.627 24.894 265.275 24.894 265.893C25.1516 267.049 25.4092 268.205 25.6668 269.361C25.7699 270.12 25.5417 270.937 26.0643 271.622C26.3219 273.381 26.5795 275.134 26.8371 276.893C26.7635 277.526 26.6384 278.174 27.1242 278.719C27.0359 278.83 27.0432 278.94 27.1463 279.036C26.6237 279.75 27.2714 281.002 26.0569 281.399C25.2841 274.294 24.5554 267.182 21.8394 260.467C20.8678 258.074 19.8226 255.696 18.2181 253.686C17.2906 252.523 17.5335 251.757 18.2401 250.674C24.2463 241.471 25.792 231.009 26.079 220.391C26.5795 202.021 24.7026 183.732 23.5912 165.414H23.5985ZM25.8508 263.118C25.792 262.889 25.7036 262.683 25.5932 262.492C25.7036 262.676 25.792 262.882 25.8508 263.118ZM27.2052 278.005C27.2052 278.086 27.2052 278.16 27.1904 278.241C27.1904 278.16 27.2052 278.086 27.2052 278.005ZM37.1491 74.432C36.7737 74.8222 36.391 75.2198 36.0156 75.6101C36.1555 75.7426 36.2953 75.8825 36.4425 76.015C36.3027 75.8825 36.1628 75.7426 36.0156 75.6101C34.043 77.4287 32.3722 79.5123 30.8486 81.7064C29.4133 83.7606 28.1105 85.9032 26.3808 88.5833C26.5574 83.6502 37.3994 71.1041 42.3898 68.7995C41.2489 71.4722 38.5182 72.3336 37.1565 74.432H37.1491ZM20.463 127.23C17.3569 112.1 20.0876 98.2506 25.6815 89.4226C20.095 101.498 19.3736 114.235 20.463 127.23ZM25.895 302.442C26.1894 302.457 26.4912 302.471 26.7856 302.486C26.9034 314.2 25.5123 325.841 24.8425 337.518C24.526 337.511 24.2095 337.503 23.8856 337.496C24.5554 325.811 25.2252 314.134 25.8876 302.449L25.895 302.442ZM24.4303 341.627C23.8414 352.126 22.6564 362.242 21.464 372.366C20.2275 371.667 20.9414 370.445 20.6912 369.473C22.1412 360.365 22.2516 351.125 23.4808 342.002C23.4808 341.958 23.6353 341.936 24.4303 341.627ZM21.994 403.437C22.4503 404.35 22.5975 405.41 22.8919 406.404C22.9655 406.875 22.914 407.406 23.4734 407.649C23.363 407.693 23.3115 407.766 23.3262 407.884C25.3798 414.673 29.2955 420.489 32.9978 426.394C25.4607 417.632 20.6764 407.649 19.6681 396.001C21.5597 398.121 20.8163 401.066 21.994 403.43V403.437ZM34.8085 427.602C36.7811 429.501 38.7537 431.401 40.7263 433.3C40.5202 434.243 41.742 433.882 41.904 434.545C41.0281 434.964 40.8882 434.059 40.4172 433.801C37.7159 432.579 35.9494 430.422 34.3006 428.146C34.4699 427.962 34.6466 427.786 34.8159 427.602H34.8085ZM106.514 44.333C108.008 42.4997 109.745 40.8652 111.652 38.8625C111.769 40.74 110.408 41.4616 109.973 42.6028C110.444 42.5292 110.879 42.2347 111.313 41.9696C110.871 42.2347 110.444 42.5292 109.973 42.6028C107.692 43.906 106.867 46.8143 104.269 47.7715C103.636 49.3471 102.613 50.4515 100.817 50.6429C101.384 48.979 102.488 47.9776 104.262 47.7641C103.953 45.9455 105.653 45.3712 106.507 44.333H106.514ZM146.709 17.6872C160.223 13.1518 174.061 11.5688 188.208 13.4315C192.653 14.0206 197.018 15.1765 201.42 16.1116C202.03 16.2441 202.597 16.5607 203.105 17.0761C199.233 16.9068 195.656 15.2575 191.822 15.0513C191.152 14.7937 190.489 14.477 189.79 14.9556C187.965 13.8659 185.889 14.3961 183.961 14.2488C173.442 13.4536 163.013 13.9322 152.877 17.2749L152.76 17.1939L152.649 17.2896C152.914 18.6149 153.871 18.5339 154.791 18.5118C153.864 18.5339 152.914 18.6076 152.649 17.2896C151.369 17.3485 150.176 17.6651 149.109 18.394L149.094 18.2983C148.535 18.4456 147.983 18.5928 147.423 18.7401C147.033 18.7033 146.621 18.5855 146.393 19.0641C146.157 19.0788 145.922 19.1009 145.686 19.1156C145.686 19.1009 145.686 19.0861 145.686 19.0788C145.657 19.0788 145.627 19.0788 145.598 19.0714C145.127 17.967 146.003 17.9375 146.709 17.7019V17.6872ZM244.103 42.0285C244.088 42.0432 244.081 42.058 244.073 42.0727C244.095 42.0653 244.11 42.058 244.132 42.0506C247.879 45.2608 250.86 49.3029 255.026 52.0492C256.233 52.8223 257.771 53.1536 258.927 54.8544C256.733 54.6704 255.511 53.6101 254.26 52.6088C250.514 50.6945 248.041 47.3371 245.096 44.5098C245.126 43.5452 243.094 43.4127 244.066 42.0727C242.542 42.7942 242.329 40.8946 241.298 40.6296C239.26 38.3103 236.919 36.315 234.402 34.5332C232.974 33.0312 231.266 31.9047 229.507 30.8371L229.33 30.7708C227.203 28.8639 224.73 27.5091 222.205 26.2207C222.132 26.0881 222.029 26.0439 221.889 26.0808C221.58 25.5727 221.087 25.4034 220.542 25.3298C219.563 23.7541 216.626 24.4757 216.508 21.884C227.004 26.8391 236.463 33.2079 244.132 42.0432L244.103 42.0211V42.0285ZM245.148 45.8498C244.971 45.5553 244.846 45.2313 244.684 44.9294C244.176 44.4582 243.588 44.0533 243.043 43.6189C243.588 44.0606 244.184 44.4582 244.684 44.9294C244.846 45.2313 244.979 45.5626 245.148 45.8498ZM208.795 482.727C208.677 482.675 208.537 482.572 208.427 482.543C208.537 482.572 208.677 482.675 208.802 482.727H208.795ZM134.219 27.649C133.865 27.4871 133.402 27.4134 132.872 27.4208C132.518 27.4208 132.136 27.4576 131.731 27.5239C132.128 27.4576 132.511 27.4282 132.872 27.4208C133.402 27.4208 133.865 27.4871 134.219 27.649ZM226.519 471.69C225.871 471.138 225.518 470.961 224.988 471.02C225.518 470.961 225.878 471.138 226.519 471.69ZM226.769 471.918C226.769 471.918 226.725 471.881 226.703 471.859C226.725 471.881 226.747 471.896 226.769 471.918ZM126.659 28.1276C129.162 25.0058 139.872 19.7267 143.279 19.874C137.656 22.6644 132.445 25.2561 126.659 28.1276ZM111.019 462.045C110.938 461.927 110.842 461.824 110.717 461.757C110.842 461.824 110.945 461.919 111.019 462.045ZM106.573 456.604C106.396 456.493 106.212 456.397 106.013 456.309C106.212 456.397 106.404 456.493 106.573 456.604ZM58.6195 446.2C58.6195 446.2 58.6269 446.229 58.6343 446.244C58.6269 446.229 58.6195 446.207 58.6122 446.193C58.6122 446.193 58.6122 446.193 58.6122 446.2H58.6195ZM61.4092 443.785C67.6803 445.294 74.0691 445.191 80.4654 445.294C87.9656 445.42 94.568 448.35 100.684 452.502L100.721 452.48C101.141 452.826 101.553 453.172 101.973 453.526L102.017 453.563C102.79 454.299 103.562 455.028 104.335 455.764L104.387 455.801C105.498 456.957 106.61 458.106 107.721 459.261L107.773 459.328C108.155 460.101 108.693 460.727 109.451 461.161C109.627 461.323 109.811 461.492 109.988 461.654C110.297 462.148 110.555 462.693 111.239 462.759C116.244 468.516 122.361 472.912 128.757 476.954C129.471 477.403 130.288 477.676 129.022 478.419C119.726 472.735 111.703 465.608 104.321 457.583C97.1662 449.8 87.8847 446.274 77.3298 446.325C71.6549 446.355 66.0389 446.141 60.5848 444.536C60.6437 443.807 61.0559 443.711 61.4165 443.8L61.4092 443.785ZM105.704 456.191C105.417 456.088 105.123 456 104.814 455.911C105.123 455.992 105.417 456.081 105.704 456.191ZM243.227 461.735C247.157 457.995 250.477 453.629 255.298 450.824C261.9 446.98 268.907 445.096 276.57 445.316C287.596 445.633 297.819 442.975 307.145 436.864C314.704 431.909 320.843 425.687 325.311 417.831C325.73 417.095 326.025 416.292 326.378 415.519C328.77 411.639 330.264 407.42 331.103 402.958H331.125C334.062 393.652 332.936 384.257 331.898 374.833C330.706 364.017 329.705 353.186 328.667 342.356C328.247 337.975 327.931 333.587 327.622 329.191C327.519 327.682 327.268 326.158 327.673 324.648C328.748 324.729 328.564 325.517 328.608 326.143C329.903 344.756 331.839 363.31 333.716 381.879C335.924 403.754 328.498 421.991 310.987 435.598C300.8 443.52 289.024 446.656 276.106 446.244C263.829 445.854 253.966 451.104 246.075 460.366C244.486 462.229 243.058 464.438 240.246 464.857C241.24 463.812 242.241 462.774 243.234 461.728L243.227 461.735ZM300.499 62.173C300.476 61.9595 300.506 61.7902 300.572 61.6355C300.506 61.7828 300.469 61.9595 300.499 62.173C301.095 62.5485 301.698 62.924 302.294 63.2995C302.118 64.1168 301.566 64.08 301.006 63.8149C292.704 59.92 283.915 58.6389 274.84 58.8819C274.693 58.8819 274.531 58.6831 274.104 58.3812C277.453 57.402 280.647 58.1161 283.783 57.9615C289.598 58.3959 295.067 60.2219 300.499 62.1657V62.173ZM321.498 78.6656C331.53 91.5578 335.306 106.224 333.775 122.297C333.562 124.572 333.871 127.046 332.723 129.226C333.017 131.523 332.406 133.761 332.222 136.029C332.185 136.515 332.112 137.052 331.486 137.001C330.86 136.942 330.956 136.331 330.86 135.896C331.545 134.475 331.39 132.929 331.589 131.427C331.699 130.595 331.273 129.417 332.678 129.218C331.56 127.54 332.244 125.758 332.435 124.013C334.967 100.577 327.261 81.6181 307.896 67.754C307.594 67.5405 307.219 67.4227 306.88 67.2681C306.806 66.922 306.733 66.576 306.659 66.2299C306.792 65.8618 306.998 65.6114 307.439 65.6998C312.496 69.6315 317.523 73.5559 321.505 78.6803L321.498 78.6656ZM329.219 151.682C329.219 151.807 329.219 151.932 329.219 152.058C329.219 151.932 329.212 151.807 329.219 151.682ZM328.078 408.031C328.078 408.031 328.093 408.046 328.108 408.061L328.078 408.031ZM326.606 413.502C326.51 413.863 326.444 414.238 326.407 414.614C326.444 414.238 326.518 413.863 326.606 413.502ZM327.533 247.494C327.489 247.288 327.416 247.081 327.349 246.883C327.276 246.676 327.202 246.463 327.143 246.257C327.107 246.117 327.07 245.977 327.048 245.844C327.07 245.984 327.099 246.124 327.143 246.257C327.202 246.463 327.276 246.676 327.349 246.883C327.416 247.089 327.489 247.295 327.533 247.494ZM327.033 245.631C327.026 245.491 327.033 245.359 327.055 245.219C327.026 245.351 327.026 245.491 327.033 245.631ZM330.698 256.049C330.485 256.152 330.286 256.263 330.102 256.381C330.286 256.255 330.485 256.152 330.698 256.049ZM329.793 256.609C329.697 256.69 329.602 256.771 329.513 256.867C329.602 256.778 329.697 256.69 329.793 256.609ZM328.085 177.452C327.32 173.77 328.225 170.111 328.284 166.444C328.328 163.985 328.579 161.533 328.741 159.074C329.359 157.153 329.167 155.15 329.285 153.184C329.764 152.249 329.675 151.248 329.639 150.246C329.903 147.007 330.168 143.775 330.433 140.535C330.433 140.343 330.411 140.152 330.397 139.961C330.404 140.152 330.426 140.343 330.433 140.535C330.875 140.24 331.523 140.196 331.663 139.526C330.698 151.689 329.727 163.86 328.763 176.023C328.718 176.59 328.77 177.194 328.085 177.452ZM335.615 110.937C335.556 111.209 335.527 111.474 335.534 111.739C335.534 111.474 335.556 111.202 335.615 110.937ZM335.542 111.827C335.542 111.931 335.549 112.034 335.571 112.137C335.556 112.034 335.549 111.931 335.542 111.827ZM42.6547 62.7989C52.7606 56.0914 63.9191 53.0211 76.0417 53.5144C83.1446 53.8016 89.6806 52.0566 95.672 48.2206C98.8444 46.1885 101.487 43.5747 103.997 40.7916C120.447 22.5614 140.939 11.7234 165.228 8.87399C193.397 5.56811 218.385 13.7113 240.113 31.8826C243.492 34.7026 246.591 37.817 249.469 41.1523C254.753 47.2634 261.26 51.4013 269.261 53.2788C267.023 53.8237 264.822 54.3979 262.533 53.5512C254.621 50.5619 249.491 44.1195 243.749 38.4281C228.219 23.0326 209.487 14.1015 187.898 11.0755C181.149 10.1257 174.237 9.79433 167.569 10.5969C147.269 13.0413 129.162 20.9047 113.609 34.3933C109.156 38.2514 105.513 42.8973 101.178 46.8585C94.7667 52.7266 87.1118 55.576 78.4928 55.8705C74.1943 56.0178 69.7633 55.2815 65.6193 56.1061C61.1221 56.997 56.5954 58.2708 52.2896 60.0967C48.418 61.7386 44.907 64.0137 41.2195 65.9796C39.6296 66.8263 38.4225 68.424 37.127 69.764C36.1555 70.7654 35.0956 71.0599 33.7928 70.6697C36.0671 67.2828 39.3573 65.0077 42.6621 62.8136L42.6547 62.7989ZM13.5221 106.453C13.5074 106.563 13.4853 106.681 13.4558 106.791C13.4853 106.681 13.5074 106.57 13.5221 106.453ZM17.4526 167.335C17.5335 167.195 17.6439 167.078 17.7912 166.989C17.6513 167.078 17.5409 167.195 17.4526 167.335ZM18.0267 166.879C18.2033 166.82 18.4168 166.791 18.667 166.805C18.4094 166.791 18.2033 166.82 18.0267 166.879ZM14.6114 246.051C14.3465 246.551 14.685 247.14 15.2003 247.634C15.7449 247.45 15.767 246.993 15.7817 246.529C16.4736 246.058 16.6797 245.329 16.849 244.571C15.7817 244.21 15.4505 243.577 15.4432 242.914C15.4432 243.577 15.7817 244.21 16.849 244.571C18.034 242.656 18.8731 240.624 19.1234 238.364C18.829 238.084 18.7701 237.79 18.8069 237.436C18.7774 237.782 18.8363 238.084 19.1234 238.364C21.0371 232.996 21.6995 227.393 21.8909 221.768C22.5018 203.641 20.6691 185.602 19.6239 167.534C19.6018 167.343 19.5797 167.159 19.5577 166.967C18.5934 154.649 17.5115 142.339 16.0688 130.065C15.6419 131.133 15.5462 132.215 15.5977 133.305C15.5536 132.208 15.6419 131.125 16.0688 130.058C15.2518 123.159 14.5084 116.253 15.1119 109.295C16.2307 96.5203 20.6323 85.027 28.9349 75.1904C30.0316 73.8872 30.5615 71.9655 32.4458 71.3691C32.7697 72.9595 33.859 74.3142 30.9295 75.2935C29.612 75.7352 28.5227 78.9822 27.2861 80.9333C24.2021 85.7854 21.4199 90.851 19.8374 96.3583C17.6292 104.023 16.3411 111.813 17.2612 119.941C18.0856 127.216 18.9394 134.505 19.3884 141.845C19.7196 147.294 20.7501 152.764 21.177 158.272C21.4493 161.754 21.361 165.237 21.545 168.697C21.7511 172.651 22.6932 176.539 22.9067 180.537C23.6059 193.908 24.9013 207.271 24.261 220.671C23.8856 228.52 22.8551 236.339 19.8962 243.776C19.0351 245.94 16.7754 247.236 16.9815 250.152C15.5904 249.379 15.2739 248.591 15.2003 247.626C14.6777 247.133 14.3465 246.544 14.6114 246.043V246.051ZM39.7915 439.721C38.6801 438.845 37.5613 437.968 36.4499 437.085C32.0999 432.675 27.5437 428.448 24.4524 422.963C18.7259 412.81 15.0678 402.207 15.2518 390.243C15.4505 377.719 17.3937 365.401 18.3579 352.973C18.7922 347.406 19.3368 341.848 19.7049 336.274C20.3526 326.334 20.9046 316.387 21.4861 306.447C22.2074 294.159 22.7595 281.885 20.279 269.685C19.0498 263.648 16.7092 258.184 13.0952 253.229C14.9206 252.677 16.113 253.362 17.0551 254.996C19.2044 258.707 20.5734 262.624 21.6922 266.799C22.8846 271.253 23.4219 275.723 24.0034 280.236C24.6143 284.992 23.5397 289.69 23.7605 294.402C24.1874 303.605 23.5912 312.772 22.9729 321.931C22.2001 333.513 21.4861 345.109 20.1318 356.625C19.4988 362.014 19.5282 367.448 18.6597 372.808C18.3358 374.803 16.4368 376.592 17.7764 378.831C19.0939 378.772 19.8742 378.411 20.2054 377.594C19.8742 378.411 19.0939 378.772 17.7764 378.838C17.6881 381.282 16.7975 383.668 17.2023 386.157C16.5031 388.616 16.4368 391.23 16.7386 393.637C17.2906 398.033 18.4315 402.369 19.5209 406.677C20.5734 410.837 21.7216 415.092 24.0181 418.693C28.7288 426.1 34.7423 432.491 40.9398 438.683C41.1458 439.132 41.8451 439.478 41.4918 439.993C40.9618 440.752 40.4319 439.794 39.8651 439.802L39.7842 439.735L39.7915 439.721ZM46.8355 68.5713C48.337 68.4608 47.9469 67.8939 47.5862 67.3417C47.9469 67.9012 48.337 68.4682 46.8355 68.5713ZM57.118 445.766C57.0812 445.685 57.0665 445.581 57.0739 445.442C57.0739 445.581 57.0812 445.685 57.118 445.766ZM57.1401 445.795C57.1401 445.795 57.1695 445.847 57.1843 445.869C57.1695 445.847 57.1548 445.824 57.1401 445.795ZM319.341 434.339C313.556 440.243 306.689 444.587 298.901 447.209C291.335 449.756 283.511 450.942 275.436 450.684C265.213 450.353 256.939 454.792 250.256 462.273C239.098 474.767 225.827 484.199 210.09 489.942C194.56 495.611 178.521 497.702 162.122 494.919C153.694 493.491 145.583 490.966 137.612 487.557C123.62 481.563 112.204 472.456 102.039 461.411C94.7741 453.519 85.5735 450.242 74.9597 450.64C70.043 450.824 65.2366 450.036 60.4081 449.167C58.4871 448.821 59.0096 447.503 58.7373 446.517C59.4292 447.974 60.8645 446.539 61.9612 446.966C65.9506 448.527 70.3447 448.703 74.5844 448.431C82.7986 447.908 90.2621 449.778 97.1883 454.181C102.039 457.266 105.336 461.934 109.385 465.836C116.789 472.971 124.775 479.229 134.204 483.485C138.576 486.504 143.728 487.652 148.586 489.5C148.8 489.552 149.021 489.603 149.234 489.655C152.642 490.472 156.042 491.29 159.45 492.107C160.724 491.709 161.982 491.709 163.234 491.834C161.975 491.709 160.716 491.709 159.45 492.107C161.953 492.711 164.47 493.211 167.061 493.145C175.29 494.5 183.497 493.837 191.63 492.549C205.387 490.369 218.054 485.252 229.617 477.47C236.463 472.861 242.697 467.522 248.122 461.279C256.351 451.81 266.758 448.158 279.19 448.409C292.262 448.674 304.009 444.256 314.285 436.076C323.654 428.618 329.881 418.766 333.473 407.671C336.432 398.526 337.212 388.763 335.247 379.096C334.887 377.329 335.895 375.805 335.608 374.126C337.838 373.993 336.955 375.878 337.36 376.931C337.139 377.432 336.601 377.793 336.741 378.463C341.15 400.271 334.658 418.693 319.341 434.339ZM336.66 365.143C336.763 364.849 336.83 364.569 336.837 364.282C336.837 364.562 336.771 364.849 336.66 365.143ZM336.793 363.87C336.815 363.965 336.822 364.068 336.822 364.171C336.822 364.068 336.815 363.973 336.793 363.87ZM339.759 253.87C335.012 259.826 333.172 266.873 331.95 274.235C329.881 286.671 331.663 299.077 331.854 311.498C331.935 317.109 332.443 322.712 332.597 328.322C332.715 332.769 332.723 337.452 334.011 341.877C334.033 342.437 334.062 342.989 334.084 343.548C334.879 343.21 335.203 343.548 335.343 343.99C335.203 343.556 334.879 343.21 334.084 343.556C334.607 348.96 335.129 354.372 335.652 359.776C335.556 359.93 335.549 360.085 335.645 360.24C336.035 360.335 336.447 360.446 336.601 360.785C336.447 360.446 336.035 360.343 335.645 360.24C335.674 360.652 335.704 361.064 335.733 361.469C335.792 361.882 335.851 362.287 335.91 362.699C336.02 363.811 336.13 364.922 336.241 366.034C336.175 367.198 336.013 368.368 336.668 369.436C336.521 371.041 337.117 372.823 335.593 374.096C334.945 373.817 334.541 373.404 334.467 372.624C333.694 364.341 332.862 356.065 332.104 347.782C331.486 341.052 330.603 334.323 330.478 327.579C330.352 320.562 329.381 313.619 329.263 306.624C329.116 297.914 327.916 289.196 329.131 280.501C330.191 272.91 330.161 264.848 334.423 258.229C337.441 253.546 337.124 250.328 334.342 245.616C330.794 239.601 329.903 232.415 329.182 225.405C327.828 212.27 329.513 199.194 329.859 186.096C331.861 186.118 332.31 187.126 332.156 188.842C331.618 194.798 330.897 200.799 330.824 206.719C330.735 214.008 330.897 221.385 331.861 228.697C332.929 236.781 335.21 244.335 339.958 251.05C340.672 252.051 340.532 252.905 339.752 253.885L339.759 253.87Z" fill="#DAD0C4"/>
<path d="M11.6671 129.535C10.6367 129.726 9.43692 129.225 9.03946 130.418C8.0826 133.282 10.4159 131.972 11.461 132.31C10.541 131.434 9.67246 130.551 11.6598 129.527L11.6671 129.535Z" fill="#DAD0C4"/>
<path d="M11.4683 132.318C11.5124 132.362 11.5566 132.406 11.6081 132.45L11.6523 132.406C11.6007 132.369 11.5345 132.34 11.4683 132.318Z" fill="#DAD0C4"/>
<path d="M13.4408 94.5688C12.3147 93.4717 13.9045 91.9918 12.5576 90.4751C12.273 92.7379 12.5674 94.1025 13.4408 94.5688Z" fill="#DAD0C4"/>
<path d="M11.6084 132.443C11.6084 132.443 11.6746 132.443 11.7114 132.443C11.6967 132.428 11.6746 132.406 11.6599 132.392L11.6158 132.436L11.6084 132.443Z" fill="#DAD0C4"/>
<path d="M331.987 258.965C333.01 256.623 335.439 254.481 335.468 252.228C335.49 249.997 333.297 247.737 332.082 245.484C331.898 245.145 331.78 244.784 331.641 244.423C327.681 234.263 326.746 223.638 326.996 212.874C327.195 204.363 327.651 195.851 327.99 187.34C326.658 187.524 327.121 188.503 327.084 189.306C326.967 191.816 327.342 194.371 326.4 196.808C325.899 206.542 325.23 216.276 326.297 226.024C327.261 234.808 328.851 243.378 333.738 250.969C335.188 253.222 332.649 254.002 332.119 255.526C331.626 256.646 331.125 257.757 330.654 258.884C327.806 265.621 326.422 272.799 325.944 279.963C325.06 293.054 326.429 306.16 326.989 319.258C327.055 320.819 327.04 322.395 327.806 323.823C328.483 323.603 328.284 323.205 328.277 322.844C327.997 310.217 326.584 297.627 327.004 284.977C327.298 276.046 328.373 267.241 331.987 258.957V258.965Z" fill="#B77055"/>
<path d="M321.498 78.6653C317.516 73.5482 312.489 69.6165 307.432 65.6921C306.99 65.6038 306.784 65.8541 306.652 66.2222C306.725 66.5683 306.799 66.9143 306.873 67.2604C307.211 67.4224 307.587 67.5328 307.888 67.7463C327.254 81.6178 334.968 100.577 332.428 124.005C332.237 125.743 331.552 127.532 332.671 129.211C331.265 129.409 331.692 130.588 331.582 131.419C331.39 132.922 331.538 134.468 330.853 135.889C330.949 136.33 330.853 136.942 331.479 136.993C332.112 137.052 332.178 136.515 332.215 136.021C332.399 133.753 333.002 131.523 332.715 129.218C333.856 127.039 333.547 124.565 333.768 122.29C335.291 106.209 331.523 91.5428 321.491 78.658L321.498 78.6653Z" fill="#B77055"/>
<path d="M331.663 139.526C331.523 140.196 330.875 140.24 330.434 140.535C330.169 143.774 329.904 147.006 329.639 150.246C329.683 151.24 329.764 152.249 329.285 153.184C329.168 155.157 329.359 157.152 328.741 159.074C328.579 161.533 328.321 163.985 328.284 166.444C328.226 170.111 327.32 173.77 328.086 177.451C328.77 177.194 328.719 176.59 328.763 176.023C329.727 163.86 330.699 151.689 331.663 139.526Z" fill="#B77055"/>
<path d="M65.6123 56.0914C69.7562 55.2741 74.1872 56.003 78.4857 55.8558C87.0974 55.5612 94.7596 52.7118 101.171 46.8437C105.499 42.8826 109.149 38.2367 113.602 34.3786C129.155 20.89 147.262 13.0266 167.562 10.5821C174.23 9.77958 181.134 10.1183 187.891 11.0607C209.48 14.0868 228.212 23.0178 243.742 38.4134C249.491 44.1121 254.614 50.5472 262.526 53.5365C264.808 54.3832 267.009 53.8089 269.254 53.2641C261.253 51.3865 254.746 47.256 249.461 41.1376C246.576 37.8023 243.477 34.6878 240.106 31.8679C218.371 13.6892 193.39 5.54599 165.221 8.85924C140.939 11.7086 120.448 22.5466 103.99 40.7768C101.48 43.5599 98.8373 46.1737 95.665 48.2058C89.6809 52.0418 83.1375 53.7868 76.0346 53.4997C63.912 53.0137 52.7535 56.084 42.6477 62.7841C39.3502 64.9782 36.0527 67.2533 33.7783 70.6402C35.0811 71.0378 36.141 70.7432 37.1126 69.7346C38.408 68.3945 39.6225 66.7968 41.205 65.9501C44.8926 63.9916 48.3962 61.7091 52.2751 60.0673C56.5883 58.2413 61.1077 56.9675 65.6049 56.0766L65.6123 56.0914Z" fill="#B77055"/>
<path d="M16.9888 250.152C16.7753 247.243 19.0423 245.94 19.9035 243.776C22.8624 236.339 23.9002 228.52 24.2682 220.671C24.9086 207.278 23.6132 193.915 22.9139 180.537C22.7078 176.539 21.7583 172.651 21.5522 168.698C21.3682 165.23 21.4565 161.747 21.1842 158.272C20.7499 152.772 19.7268 147.301 19.3956 141.846C18.9466 134.505 18.1002 127.223 17.2684 119.941C16.3484 111.805 17.6365 104.023 19.8446 96.3584C21.4345 90.851 24.2167 85.7854 27.2934 80.9334C28.5299 78.9822 29.6193 75.7353 30.9368 75.2935C33.8589 74.3142 32.7769 72.9595 32.453 71.3691C30.5688 71.9655 30.0388 73.8946 28.9421 75.1904C20.6395 85.0271 16.238 96.5203 15.1192 109.295C14.5083 116.253 15.259 123.159 16.0761 130.058C17.5187 142.331 18.6007 154.642 19.5649 166.96C19.587 167.151 19.6091 167.335 19.6312 167.527C20.669 185.595 22.5017 203.634 21.8982 221.761C21.7068 227.386 21.0517 232.989 19.1306 238.357C18.8804 240.61 18.0413 242.649 16.8563 244.563C16.687 245.322 16.4735 246.051 15.789 246.522C15.7816 246.986 15.7596 247.442 15.2075 247.626C15.2738 248.583 15.5976 249.379 16.9888 250.152Z" fill="#B77055"/>
<path d="M284.35 56.0396C284.968 55.9365 285.557 55.9439 286.094 56.3341C286.499 56.393 286.904 56.4446 287.316 56.5035C288.104 56.4519 288.899 56.3636 289.627 56.798C293.786 57.4901 297.768 58.7565 301.581 60.553C302.346 60.6561 303.009 61.304 303.855 61.0021C304.878 61.7678 305.894 62.5336 306.917 63.2993C308.117 63.476 308.868 64.3595 309.721 65.0811C310.112 65.2357 310.678 65.2651 310.34 65.9425L310.421 65.9941C311.576 65.6038 312.165 66.5978 312.82 67.1279C324.435 76.5375 332.274 88.2959 334.931 103.191C335.343 105.488 336.072 107.748 335.888 110.134C337.043 111.172 335.851 112.276 335.983 113.337C335.983 113.587 335.983 113.837 335.983 114.088C335.807 115.965 336.867 117.909 335.704 119.735C335.431 122.687 335.159 125.632 334.879 128.585C333.636 141.558 332.347 154.531 331.162 167.512C330.787 171.576 330.677 175.67 330.419 179.749C330.367 180.559 330.75 181.545 331.251 181.589C332.362 181.685 332.186 180.537 332.119 179.867C331.737 176.126 333.26 172.636 333.525 168.962C333.79 165.355 333.569 161.747 334.107 158.065C335.122 151.078 336.352 143.973 335.726 136.802C335.667 136.146 335.969 135.705 336.624 135.543C336.933 132.016 337.073 128.467 337.581 124.97C339.553 111.452 337.728 98.4859 331.567 86.3226C323.463 70.3307 310.678 59.8977 293.286 55.1855C286.433 53.3301 279.455 53.5436 272.478 53.4847C271.778 53.4847 270.858 52.6601 270.395 53.5804C269.968 54.4345 270.851 55.0824 271.322 55.7451C275.672 55.8482 280.015 55.9439 284.365 56.047L284.35 56.0396Z" fill="#B77055"/>
<path d="M75.8874 58.9994C80.8998 59.0877 85.8313 58.7343 90.5052 56.9378C94.2885 55.4873 98.3294 54.2798 100.832 50.6426C99.6469 50.2892 99.0654 51.32 98.2999 51.8207C91.6976 56.0984 84.4476 58.2115 76.6234 57.8949C65.1043 57.4311 54.5862 60.3762 44.922 66.5388C44.1197 67.0542 43.0082 67.4518 43.1702 69.0201C44.6423 68.1365 45.9892 67.3193 47.3436 66.502C56.0657 60.9799 65.7079 58.8226 75.8947 58.9994H75.8874Z" fill="#B77055"/>
<path d="M147.423 18.7325C147.983 18.5853 148.535 18.438 149.094 18.2908L149.109 18.3865C150.176 17.6576 151.376 17.341 152.649 17.2821L152.76 17.1864L152.877 17.2674C163.013 13.9247 173.442 13.4461 183.961 14.2413C185.882 14.3885 187.957 13.8584 189.79 14.9481C190.489 14.4695 191.152 14.7787 191.822 15.0438C195.649 15.25 199.233 16.8992 203.105 17.0686C202.597 16.5605 202.03 16.2366 201.42 16.104C197.025 15.1763 192.653 14.013 188.208 13.424C174.061 11.5612 160.223 13.1442 146.709 17.6797C145.988 17.9226 145.09 17.9447 145.613 19.108C145.87 19.086 146.128 19.0712 146.393 19.0491C146.621 18.5706 147.033 18.6957 147.423 18.7252V18.7325Z" fill="#B77055"/>
<path d="M241.306 40.6293C242.336 40.8944 242.542 42.794 244.073 42.0724C243.102 43.4125 245.133 43.545 245.104 44.5095C248.04 47.3368 250.514 50.7016 254.267 52.6086C255.519 53.6099 256.74 54.6701 258.934 54.8542C257.778 53.146 256.24 52.8221 255.033 52.049C250.859 49.3027 247.878 45.2605 244.139 42.0504C236.47 33.2224 227.012 26.8463 216.516 21.8911C216.633 24.4754 219.57 23.7613 220.549 25.3369C221.101 25.4105 221.594 25.5872 221.896 26.0953C222.043 26.0584 222.146 26.1026 222.22 26.2352C224.745 27.5236 227.225 28.8784 229.345 30.7853L229.522 30.8442C231.281 31.9118 232.988 33.0383 234.416 34.5403C236.934 36.3221 239.267 38.3101 241.313 40.6367L241.306 40.6293Z" fill="#B77055"/>
<path d="M301.014 63.8148C301.581 64.0799 302.133 64.1167 302.302 63.2994C301.706 62.9239 301.102 62.5484 300.506 62.1729C295.067 60.2292 289.605 58.4032 283.79 57.9688C280.655 58.1161 277.468 57.4019 274.111 58.3885C274.546 58.6904 274.7 58.8892 274.847 58.8892C283.93 58.6462 292.719 59.9273 301.014 63.8222V63.8148Z" fill="#B77055"/>
<path d="M100.832 50.6427C102.62 50.4513 103.651 49.3469 104.276 47.7713C106.874 46.8141 107.699 43.9058 109.981 42.6026C110.415 41.454 111.777 40.7398 111.659 38.8623C109.752 40.8723 108.015 42.5069 106.521 44.3328C105.675 45.3783 103.974 45.9526 104.276 47.7639C102.502 47.9774 101.391 48.9787 100.832 50.6427Z" fill="#B77055"/>
<path d="M20.463 127.23C19.381 114.235 20.095 101.497 25.6815 89.4224C20.0876 98.2503 17.3569 112.107 20.463 127.23Z" fill="#B77055"/>
<path d="M26.3736 88.5831C28.1033 85.903 29.4134 83.7604 30.8414 81.7062C32.365 79.5195 34.0358 77.4285 36.0084 75.6099C36.3838 75.2196 36.7665 74.8221 37.1419 74.4318C38.5036 72.3334 41.2343 71.472 42.3752 68.7993C37.3922 71.1039 26.5502 83.65 26.3662 88.5831H26.3736Z" fill="#B77055"/>
<path d="M126.66 28.1273C132.452 25.2484 137.664 22.6641 143.28 19.8736C139.864 19.7264 129.155 25.0128 126.66 28.1273Z" fill="#B77055"/>
<path d="M351.47 250.895C348.989 248.259 346.082 245.999 344.396 242.649C339.686 233.261 339.075 223.123 339.325 212.962C339.767 194.776 340.981 176.62 342.6 158.493C343.255 151.159 344.028 143.841 344.705 136.507C345.368 129.27 346.73 122.091 346.545 111.231C346.465 103.323 344.823 95.4158 339.362 83.7826C333.142 70.5443 323.331 60.4721 310.604 53.4185C300.211 47.6609 288.906 45.1943 277.004 45.4888C274.715 45.5477 272.426 45.5625 270.151 45.0176C263.24 43.3684 258.176 39.2747 253.583 33.9367C245.258 24.262 234.821 17.1496 223.486 11.414C218.062 8.67503 212.357 6.665 206.491 4.85376C201.412 3.28549 196.289 2.04118 191.152 1.31963C167.039 -2.08197 144.42 2.50503 123.347 14.8377C113.793 20.426 105.174 27.1114 97.9023 35.4534C91.9698 42.2566 84.7933 46.1 75.5854 45.4815C70.4184 45.1354 65.3029 45.9012 60.3493 46.954C44.6421 50.282 31.4816 58.0644 21.4714 70.8094C9.90079 85.5349 4.70432 102.212 6.34569 120.906C7.0891 129.395 8.149 137.855 8.90713 146.337C9.82718 156.534 10.7104 166.739 11.3876 176.951C12.4549 193.002 14.1257 209.045 12.845 225.17C12.0795 234.837 9.83455 243.908 1.79694 250.395C0.0598744 251.801 0.0598744 252.883 1.79694 254.474C5.69062 258.044 9.0617 261.998 10.4823 267.344C12.8818 276.319 13.7061 285.427 13.294 294.667C12.661 308.987 11.947 323.308 10.6663 337.592C9.74622 347.885 8.8188 358.178 7.87667 368.471C6.98605 378.175 5.1533 387.82 6.43402 397.65C9.12794 418.354 18.5125 435.082 35.6771 447.194C47.6525 455.646 61.0044 459.357 75.6369 458.893C83.1225 458.658 89.7616 461.014 95.0538 466.58C98.2703 469.959 101.391 473.413 104.865 476.556C119.851 490.119 137.273 498.976 157.051 502.569C178.72 506.501 199.837 504.005 220.034 494.794C232.135 489.272 242.623 481.534 252.162 472.345C255.659 468.98 258.419 464.813 262.784 462.368C268.054 459.409 273.707 459.342 279.646 459.114C304.613 458.157 324.045 447.15 337.058 425.51C342.821 415.924 345.67 405.403 346.671 394.337C347.326 387.04 345.817 379.891 345.081 372.675C343.749 359.628 342.608 346.552 341.673 333.469C340.458 316.564 338.817 299.659 339.59 282.688C340.09 271.688 342.181 261.152 351.624 253.796C353.111 252.633 352.419 251.882 351.455 250.866L351.47 250.895ZM12.5579 90.4827C13.8975 91.992 12.3077 93.472 13.4412 94.5764C12.5677 94.115 12.2733 92.7504 12.5579 90.4827ZM9.04698 130.426C9.44444 129.233 10.6442 129.734 11.6747 129.542C9.68734 130.558 10.5485 131.442 11.4686 132.318C10.416 131.994 8.09748 133.29 9.05434 130.433L9.04698 130.426ZM342.932 255.188C338.25 260.43 336.609 266.887 335.556 273.543C333.503 286.553 334.577 299.615 335.255 312.654C335.505 317.432 335.549 322.248 336.219 326.967C336.83 331.245 336.646 335.567 337.448 339.852C337.823 341.862 337.676 344.307 337.566 346.552C337.948 347.259 337.868 348.017 337.772 348.768C338.405 355.623 339.045 362.478 339.678 369.325C340.039 369.693 340.054 370.143 339.958 370.614C340.024 371.409 340.083 372.204 340.149 372.999C342.291 383.616 342.379 394.204 339.892 404.799C336.395 419.679 328.593 431.673 316.64 441.215C305.334 450.242 292.476 454.085 278.233 454.063C271.44 454.056 264.852 454.939 259.096 458.96C254.871 461.912 251.633 465.917 248.063 469.569C237.729 480.142 225.407 487.586 211.739 493.012C199.329 497.938 186.353 499.477 173.192 499.543C167.562 499.573 161.938 498.409 156.337 497.378C142.985 494.919 131.098 488.941 119.66 482.108C113.874 478.648 109.134 473.604 104.365 468.774C101.744 466.123 99.4259 463.09 96.4891 460.859C91.3883 456.986 85.7355 453.872 79.0595 454.049C72.045 454.233 65.1189 453.673 58.2736 452.326C52.6944 451.229 47.785 448.372 42.7063 445.905C35.206 442.268 30.2009 435.907 25.0559 429.943C20.5146 424.678 17.6808 418.052 14.9133 411.551C13.5074 408.245 13.5221 404.74 12.499 401.434C10.9607 396.479 11.3655 391.436 11.4023 386.363C11.4538 379.339 13.5957 372.565 13.6399 365.585C13.6767 360.085 14.6998 354.673 15.0678 349.203C15.2886 345.985 15.4947 342.54 15.8186 339.27C16.1204 336.237 17.9531 332.828 15.745 329.699C15.6714 329.596 15.745 329.316 15.8407 329.169C18.4389 324.758 15.8186 319.656 17.7323 315.098C18.5567 313.133 17.3937 311.005 17.6734 308.789C18.3285 303.532 17.9531 298.186 18.6671 292.87C19.4326 287.127 18.7922 281.259 17.8501 275.597C17.195 271.666 16.7681 267.594 15.2371 263.758C13.6178 259.708 11.3582 256.174 8.25205 253.192C7.27311 252.257 7.72946 251.602 7.81042 250.586C8.00179 248.223 9.95967 247.611 11.2625 246.345C14.0374 244.445 14.9133 241.419 15.7303 238.445C16.0247 237.362 16.2897 236.31 16.8417 235.338C16.8859 235.154 16.93 234.97 16.9742 234.785C19.8448 219.28 18.5935 203.707 17.6808 188.15C17.4232 183.747 17.1508 179.351 16.8859 174.948L16.849 174.904C16.5473 174.867 16.3265 174.757 16.4221 174.389C16.6798 160.834 13.9711 147.507 13.294 134.019C12.764 133.481 12.2341 132.944 11.7041 132.406C12.1604 132.436 12.6168 132.473 13.0731 132.502C12.1236 123.254 10.5632 114.021 12.3665 104.7C12.4696 100.901 13.2204 97.2933 14.4054 93.634C16.2308 87.9794 19.1897 82.8328 22.2443 77.9954C25.7478 72.4586 30.5616 67.6287 35.7139 63.3067C39.8578 59.8315 44.5979 57.3944 49.3822 55.1193C57.464 51.2833 66.1861 50.0022 75.0555 50.1789C81.2309 50.2967 87.1339 49.4647 92.4114 46.1883C96.4155 43.6997 100.007 40.7914 102.547 36.5136C103.938 34.1723 106.86 32.766 109.017 30.8517C116.208 24.4608 124.098 19.005 132.732 14.8597C140.24 11.252 148.071 8.40261 156.352 6.71654C172.022 3.52846 187.626 4.1543 202.884 8.10074C214.043 10.9869 224.369 16.3249 234.034 22.8631C240.187 27.023 246.134 31.4554 250.771 37.1247C253.988 41.0491 257.602 44.1562 261.797 46.6669C265.242 48.7285 269.106 49.9949 273.191 50.0906C277.593 50.1863 282.024 49.7666 286.389 50.1863C290.297 50.5618 294.25 51.4306 297.974 52.6823C305.371 55.1709 312.334 58.7271 318.333 63.7559C321.505 66.4138 324.096 69.7933 326.856 72.9225C331.206 77.8629 334.688 83.3555 337.264 89.4372C337.875 90.8803 337.669 92.4265 338.287 93.818C338.633 95.1507 338.986 96.4833 339.332 97.8086C339.399 98.0222 339.465 98.2357 339.531 98.4566C341.923 106.776 341.997 115.244 341.04 123.755C339.318 139.121 337.676 154.495 336.653 169.934C335.578 186.177 334.121 202.411 334.415 218.705C334.563 226.952 335.615 235.109 338.964 242.781C340.561 246.441 343.211 249.261 346.177 251.904C345.677 253.443 343.977 253.973 342.917 255.158L342.932 255.188Z" fill="#B77055"/>
<path d="M335.254 379.096C337.227 388.763 336.439 398.533 333.481 407.67C329.889 418.766 323.662 428.618 314.292 436.076C304.017 444.256 292.269 448.666 279.197 448.409C266.765 448.158 256.35 451.81 248.129 461.279C242.704 467.522 236.47 472.86 229.625 477.47C218.061 485.245 205.394 490.369 191.637 492.548C183.504 493.837 175.29 494.5 167.068 493.145C164.477 493.218 161.96 492.718 159.458 492.107C156.05 491.289 152.649 490.472 149.241 489.655L148.594 489.5C143.721 487.652 138.561 486.504 134.189 483.47L134.211 483.492C124.782 479.237 116.796 472.978 109.392 465.844C105.344 461.941 102.053 457.273 97.1955 454.188C90.2693 449.786 82.8132 447.915 74.5916 448.438C70.352 448.703 65.9578 448.526 61.9684 446.973C60.8791 446.546 59.4512 447.967 58.7593 446.539C59.0243 447.518 58.509 448.828 60.4227 449.174C65.2512 450.036 70.0576 450.824 74.9743 450.647C85.5881 450.257 94.7887 453.526 102.053 461.419C112.218 472.463 123.627 481.571 137.626 487.564C145.598 490.973 153.709 493.498 162.137 494.927C178.528 497.71 194.574 495.619 210.105 489.949C225.834 484.206 239.112 474.775 250.271 462.28C256.954 454.792 265.227 450.352 275.451 450.691C283.525 450.956 291.349 449.771 298.916 447.216C306.711 444.595 313.578 440.243 319.356 434.346C334.68 418.7 341.172 400.278 336.756 378.47C336.616 377.792 337.153 377.439 337.374 376.938C336.969 375.885 337.86 374.001 335.622 374.133C335.902 375.812 334.901 377.329 335.262 379.103L335.254 379.096Z" fill="#B77055"/>
<path d="M335.615 374.133C335.615 374.133 335.615 374.111 335.615 374.096C335.615 374.096 335.608 374.096 335.6 374.096C335.586 374.111 335.571 374.126 335.549 374.14C335.571 374.14 335.593 374.14 335.615 374.14V374.133Z" fill="#B77055"/>
<path d="M58.7521 446.538C58.7227 446.421 58.6785 446.303 58.6196 446.2C58.6638 446.332 58.708 446.443 58.7521 446.538Z" fill="#B77055"/>
<path d="M24.0255 418.685C21.7364 415.085 20.5808 410.829 19.5282 406.669C18.4389 402.362 17.298 398.025 16.746 393.63C16.4442 391.222 16.5105 388.608 17.2097 386.149C16.7975 383.661 17.6881 381.282 17.7765 378.831C16.4369 376.592 18.3359 374.811 18.6597 372.808C19.5282 367.448 19.4988 362.014 20.1318 356.625C21.4861 345.109 22.1927 333.505 22.9729 321.931C23.5839 312.772 24.1874 303.605 23.7605 294.402C23.5397 289.69 24.6143 284.992 24.0034 280.236C23.4219 275.722 22.8846 271.253 21.6922 266.799C20.5734 262.631 19.2044 258.707 17.0551 254.996C16.113 253.362 14.928 252.677 13.0952 253.229C16.7092 258.184 19.0572 263.648 20.279 269.685C22.7595 281.885 22.2074 294.159 21.4861 306.447C20.9046 316.387 20.3526 326.334 19.7049 336.274C19.3442 341.847 18.7922 347.406 18.3579 352.973C17.3937 365.401 15.4506 377.719 15.2518 390.243C15.0605 402.207 18.726 412.802 24.4524 422.963C27.5438 428.441 32.0999 432.674 36.4499 437.085C37.5613 437.961 38.6801 438.844 39.7916 439.721L39.8725 439.787C40.4319 439.787 40.9692 440.737 41.4992 439.978C41.8598 439.463 41.1532 439.117 40.9471 438.668C34.7496 432.476 28.7362 426.085 24.0255 418.678V418.685Z" fill="#B77055"/>
<path d="M40.9248 438.631C40.9248 438.631 40.9396 438.66 40.9469 438.675L40.9175 438.631H40.9248Z" fill="#B77055"/>
<path d="M331.869 228.682C330.904 221.371 330.75 214.001 330.831 206.704C330.897 200.784 331.618 194.784 332.163 188.827C332.318 187.104 331.869 186.103 329.866 186.081C329.521 199.179 327.835 212.256 329.189 225.391C329.911 232.393 330.801 239.586 334.349 245.602C337.131 250.314 337.44 253.524 334.43 258.214C330.168 264.833 330.205 272.895 329.138 280.486C327.923 289.182 329.123 297.907 329.27 306.609C329.388 313.604 330.352 320.547 330.485 327.564C330.61 334.308 331.493 341.038 332.111 347.767C332.87 356.05 333.701 364.326 334.474 372.609C334.548 373.39 334.953 373.802 335.6 374.082C337.124 372.808 336.528 371.026 336.675 369.421C336.02 368.354 336.182 367.183 336.248 366.02C336.138 364.908 336.027 363.796 335.917 362.684C335.858 362.279 335.799 361.867 335.74 361.455C335.711 361.042 335.681 360.637 335.652 360.225C335.556 360.07 335.563 359.916 335.659 359.761C335.137 354.357 334.614 348.953 334.091 343.541C334.062 342.982 334.04 342.429 334.018 341.87C332.73 337.445 332.722 332.762 332.605 328.315C332.45 322.704 331.949 317.109 331.861 311.491C331.677 299.07 329.896 286.664 331.957 274.228C333.179 266.865 335.019 259.819 339.766 253.863C340.546 252.883 340.686 252.029 339.972 251.028C335.225 244.32 332.943 236.759 331.876 228.675L331.869 228.682Z" fill="#B77055"/>
<path d="M246.076 460.366C253.966 451.103 263.829 445.846 276.106 446.244C289.031 446.656 300.801 443.512 310.987 435.597C328.491 421.991 335.925 403.746 333.716 381.879C331.84 363.317 329.911 344.763 328.608 326.143C328.564 325.517 328.748 324.722 327.673 324.648C327.269 326.157 327.512 327.681 327.622 329.191C327.931 333.579 328.248 337.975 328.667 342.355C329.705 353.186 330.706 364.017 331.898 374.833C332.936 384.257 334.062 393.659 331.126 402.958H331.103C330.257 407.42 328.763 411.639 326.378 415.519C326.025 416.292 325.73 417.102 325.311 417.831C320.843 425.687 314.712 431.909 307.145 436.864C297.82 442.975 287.596 445.633 276.57 445.316C268.9 445.095 261.901 446.973 255.298 450.824C250.485 453.629 247.158 458.002 243.227 461.735C242.233 462.773 241.24 463.819 240.239 464.864C243.05 464.445 244.478 462.236 246.068 460.373L246.076 460.366Z" fill="#B77055"/>
<path d="M25.3722 171.186C24.8423 170.229 25.1146 169.161 24.9527 168.16C24.6362 166.209 25.2103 164.066 23.7824 162.351C24.7245 159.465 23.6867 156.556 23.8707 153.655C23.4806 149.643 23.0905 145.623 22.7004 141.61C22.7004 141.234 22.6857 140.866 22.6783 140.491C22.1704 136.404 21.6626 132.325 21.0885 127.709C19.8666 129.255 20.3083 130.492 20.4039 131.597C21.1621 139.843 21.9055 148.096 22.8329 156.328C23.0537 158.309 22.6268 160.436 23.7382 162.292C23.5542 163.33 23.5321 164.353 23.5984 165.421C24.7098 183.732 26.5867 202.029 26.0862 220.399C25.7991 231.016 24.2535 241.478 18.2473 250.682C17.5481 251.757 17.2978 252.53 18.2252 253.693C19.8298 255.711 20.875 258.089 21.8466 260.474C24.5626 267.189 25.2913 274.302 26.0641 281.407C27.2786 281.009 26.6309 279.757 27.1535 279.051C27.0504 278.955 27.0431 278.844 27.1314 278.734C26.6456 278.189 26.7707 277.541 26.8443 276.908C26.5867 275.148 26.3291 273.396 26.0715 271.636C25.5489 270.952 25.7771 270.134 25.674 269.376C25.4164 268.22 25.1588 267.064 24.9012 265.908C24.9012 265.29 24.9969 264.642 24.3639 264.222C24.1504 263.449 23.937 262.683 23.7235 261.91C23.3334 260.865 22.9507 259.819 22.5606 258.774C21.324 256.646 19.2189 254.555 19.1085 252.375C19.0055 250.343 21.1768 248.267 22.1116 246.11C25.6372 238.003 26.8222 229.403 27.2712 220.664C27.3743 218.669 27.4552 216.666 27.5436 214.663C27.5436 214.118 27.5436 213.574 27.5436 213.021C27.021 201.881 26.4984 190.749 25.9758 179.609L26.042 179.646C25.2324 176.877 25.6225 174.013 25.3796 171.201L25.3722 171.186ZM24.5405 265.54C24.4743 265.429 24.4375 265.304 24.4154 265.186C24.4375 265.312 24.4743 265.429 24.5405 265.54Z" fill="#B77055"/>
<path d="M190.04 489.154C189.687 489.213 189.341 489.272 188.988 489.331C180.589 490.649 172.198 490.862 163.815 489.228C159.502 489.169 155.431 487.961 151.361 486.702C147.872 485.605 144.383 484.501 140.902 483.404C143.581 485.915 147.202 486.216 150.301 487.704C150.743 487.645 151.162 487.682 151.471 488.064C152.127 488.16 152.796 488.175 153.422 488.366C160.782 490.619 168.356 491.422 176.004 491.518C187.781 491.665 199.182 489.463 210.119 485.178C217.127 482.432 223.92 479.192 229.816 474.362C229.669 474.178 229.522 473.987 229.382 473.803C225.017 476.35 220.799 479.141 216.207 481.291C207.86 485.2 199.248 488.153 190.04 489.161V489.154Z" fill="#B77055"/>
<path d="M100.685 452.502C94.5682 448.35 87.9659 445.42 80.4656 445.294C74.0693 445.191 67.6878 445.294 61.4094 443.785C61.0487 443.697 60.6365 443.8 60.5776 444.521C66.0317 446.126 71.6477 446.34 77.3227 446.31C87.8775 446.259 97.1591 449.786 104.313 457.568C111.689 465.593 119.711 472.728 129.015 478.405C130.274 477.661 129.457 477.396 128.75 476.939C122.361 472.89 116.237 468.502 111.232 462.744C110.548 462.685 110.29 462.133 109.981 461.64C109.804 461.478 109.62 461.316 109.444 461.146C108.686 460.712 108.156 460.086 107.765 459.313L107.714 459.247C106.603 458.091 105.491 456.942 104.38 455.786L104.328 455.749C103.555 455.013 102.782 454.277 102.01 453.548L101.965 453.511C101.546 453.165 101.134 452.812 100.714 452.466L100.677 452.488L100.685 452.502Z" fill="#B77055"/>
<path d="M32.9977 426.394C29.2881 420.489 25.3797 414.672 23.3261 407.884C23.3188 407.766 23.3629 407.685 23.4733 407.648C22.9139 407.405 22.9654 406.875 22.8918 406.404C22.6048 405.41 22.4502 404.35 21.9939 403.437C20.8236 401.073 21.5596 398.128 19.668 396.008C20.6763 407.648 25.4606 417.64 32.9977 426.401V426.394Z" fill="#B77055"/>
<path d="M23.4737 342.009C22.2445 351.139 22.1341 360.379 20.6841 369.48C20.9343 370.444 20.2204 371.666 21.4569 372.373C22.642 362.25 23.8344 352.133 24.4232 341.634C23.6283 341.943 23.4737 341.965 23.4737 342.009Z" fill="#B77055"/>
<path d="M40.7192 433.3C38.7466 431.401 36.774 429.501 34.8014 427.602C34.6321 427.786 34.4554 427.962 34.2861 428.146C35.9349 430.421 37.7014 432.579 40.4027 433.801C40.8737 434.059 41.0136 434.964 41.8895 434.545C41.7275 433.882 40.5057 434.243 40.7118 433.3H40.7192Z" fill="#B77055"/>
<path d="M238.744 466.352C235.623 468.833 232.503 471.314 229.382 473.795C229.529 473.979 229.676 474.171 229.816 474.355C233.349 472.308 236.529 469.864 238.744 466.352Z" fill="#B77055"/>
<path d="M26.7857 302.479C26.4913 302.464 26.1895 302.449 25.8951 302.435C25.2253 314.119 24.5555 325.797 23.8931 337.481C24.2096 337.489 24.5261 337.496 24.8499 337.503C25.5197 325.826 26.9108 314.186 26.7931 302.471L26.7857 302.479Z" fill="#B77055"/>
</svg>
