<svg width="195" height="141" viewBox="0 0 195 141" fill="none" xmlns="http://www.w3.org/2000/svg">
<path d="M21.5146 40.4953C21.8233 45.3925 21.1986 51.1942 21.1472 57.0106C21.1251 59.8415 21.228 62.6578 21.6102 65.4447C21.9556 68.0036 21.6102 70.636 22.4921 73.1214C22.5509 73.2832 22.5509 73.4743 22.5436 73.6435C22.5289 74.2758 22.6832 74.9965 21.8821 75.2979C21.2354 75.5406 20.5371 75.1141 20.1329 74.195C19.0452 71.7022 18.3176 69.1066 18.0236 66.4006C17.4063 60.7166 17.4798 55.0326 17.9281 49.3412C17.9575 48.9294 17.9795 48.5176 17.9795 48.1059C17.9795 42.2895 17.9942 36.4658 17.9795 30.6494C17.9795 28.6052 17.759 28.414 15.8482 29.1935C12.2175 30.6862 8.47665 31.9656 5.23553 34.2892C4.52263 34.7966 3.73623 35.2231 2.92779 35.5613C1.67103 36.0761 0.737643 35.5246 0.436314 34.201C0.105588 32.723 0.539206 31.5612 1.84741 30.7082C3.57454 29.5832 5.44866 28.7082 7.32278 27.8846C12.8716 25.4507 18.5601 23.4139 24.5573 22.3771C28.6142 21.6712 32.6932 21.2667 36.7795 22.1859C38.8741 22.6565 40.8217 23.4212 42.2622 25.1272C42.5709 25.4875 42.8796 25.8478 42.9237 26.3404C42.9751 26.8331 42.8943 27.2963 42.4092 27.5611C41.9976 27.789 41.5934 27.6934 41.2847 27.3772C39.2122 25.2522 36.5223 25.1639 33.8912 25.3845C30.334 25.6786 26.7548 25.9728 23.2785 26.914C21.5661 27.3772 21.4999 27.3919 21.4926 29.1641C21.4779 32.6348 21.4926 36.0981 21.4926 40.4953H21.5146Z" fill="#E5E1D6"/>
<path d="M86.5431 46.3485C86.2638 46.2308 86.0874 46.3043 85.9845 46.4367C84.7204 48.1426 83.008 49.4515 81.7218 51.1207C79.7448 53.6869 77.1798 55.5179 74.5634 57.3121C73.5859 57.9812 72.4467 58.3268 71.337 58.6945C70.6241 58.9298 69.8818 58.893 69.4629 58.165C69.0733 57.4885 69.6907 57.1062 70.0655 56.6723C70.2199 56.4959 70.3889 56.3267 70.5579 56.165C72.851 53.9958 74.4532 51.3266 75.9598 48.6059C76.7462 47.1794 76.4449 46.0396 75.1587 45.0617C72.6893 43.1866 69.1027 43.7234 67.4785 46.3779C66.1997 48.4809 65.0458 50.6868 64.8547 53.231C64.818 53.709 64.6636 54.1428 64.4285 54.562C63.3628 56.4664 61.9884 58.1503 60.7096 59.9077C60.1878 60.6283 59.3941 61.0842 58.5783 61.4298C57.6816 61.8049 57.1084 61.5769 56.6968 60.7239C56.5204 60.3563 56.4396 59.9445 56.3293 59.5548C55.9619 58.29 56.0207 56.9885 56.0721 55.7017C56.1382 53.8119 55.9104 51.9442 55.5944 50.0912C55.3004 48.3485 54.5067 47.8044 52.7648 47.9515C51.3464 48.0691 50.2293 48.7824 49.193 49.6942C48.3772 50.4221 47.5247 51.1133 46.6501 51.856C46.5766 51.8192 46.5692 51.5692 46.5692 51.3413C46.5692 48.753 46.5545 46.172 46.5692 43.5837C46.5692 43.1792 46.628 42.738 46.8044 42.3851C47.8701 40.2233 48.9137 38.0541 50.0896 35.9584C50.8613 34.5687 51.5669 33.1642 52.2577 31.7303C54.1833 27.7523 55.6164 23.583 57.0349 19.4211C58.3725 15.5092 60.3642 11.7664 60.5112 7.49423C60.57 5.74418 60.9889 3.98677 60.3936 2.25142C59.9159 0.854311 59.2765 0.39106 57.8139 0.295469C56.5278 0.207231 55.3665 0.494004 54.3597 1.31756C52.2136 3.07497 50.8393 5.41328 49.8912 7.94278C49.4429 9.14135 49.1121 10.3987 48.5536 11.5605C47.995 12.7371 47.6202 13.9724 47.2821 15.2077C45.0479 23.2227 44.0483 31.4289 43.7323 39.7232C43.6882 40.8336 43.3501 41.7527 42.7695 42.6719C41.9831 43.9293 40.7631 44.8264 40.0061 46.0911C38.8155 48.0691 37.228 49.7089 35.5964 51.2972C34.2956 52.5619 33.0388 53.9296 32.0025 55.3561C30.7384 57.0841 29.4082 58.8415 28.4454 60.7975C28.2911 61.1137 27.9456 61.3931 28.1367 61.9666C29.7022 60.6798 31.2382 59.5768 32.5538 58.2606C33.3842 57.4224 34.4499 56.8635 35.1702 55.937C37.3309 53.1428 39.9179 50.7457 42.2992 48.1573C42.99 47.4073 43.3208 47.5103 43.5706 48.4662C43.6294 48.6941 43.6809 48.9294 43.6809 49.1574C43.6147 51.8633 44.0116 54.5473 44.0483 57.2459C44.0704 59.1945 44.4746 61.099 44.4967 63.0402C44.4967 63.3784 44.629 63.7314 44.7612 64.0549C45.0185 64.702 45.5623 64.8638 46.2017 64.7976C46.9293 64.7314 47.216 64.2608 47.216 63.599C47.216 63.0108 47.216 62.4152 47.0984 61.849C46.4222 58.4297 46.9661 55.4149 49.9132 53.1796C50.0529 53.0766 50.1558 52.9149 50.2881 52.8119C50.8172 52.4001 51.1847 51.481 51.9858 51.8119C52.7648 52.1354 52.5517 53.0399 52.5223 53.7164C52.4268 55.8414 52.7722 57.9371 52.9339 60.0401C53.0294 61.3048 53.5512 62.4152 54.2935 63.4299C55.1608 64.6138 56.3293 64.9961 57.7037 64.68C58.9825 64.3932 60.1364 63.827 61.0624 62.8564C62.2751 61.5769 63.3775 60.2166 64.3182 58.7092C65.0017 57.6062 65.2663 57.6356 66.0453 58.6503C68.0297 61.2313 71.822 62.1505 74.7765 60.7754C78.4366 59.0768 81.3617 56.54 83.5151 53.1134C83.8605 52.5619 84.1986 52.0031 84.3382 51.3707C84.6248 50.0839 85.2716 48.9735 85.9404 47.8632C86.227 47.3853 86.6753 46.9588 86.5504 46.3485H86.5431ZM47.4218 27.5831C48.2082 23.7374 48.8843 19.877 50.0455 16.1048C51.3684 11.7885 53.3528 7.84719 55.9619 4.19266C56.0941 4.00147 56.2485 3.81765 56.4249 3.66323C56.807 3.31763 57.1084 2.6779 57.6816 2.83232C58.4239 3.03085 58.4386 3.80294 58.4974 4.43531C58.6518 6.03831 58.4386 7.61189 57.9389 9.12664C56.3734 13.9136 55.124 18.7961 53.1985 23.4727C51.4566 27.7008 49.7589 31.9509 47.5761 35.9805C47.4953 36.1275 47.363 36.2452 47.0028 36.6717C46.7824 33.3848 46.8338 30.4729 47.4291 27.5831H47.4218ZM71.0503 46.6794C71.1312 46.5985 71.2341 46.5249 71.337 46.4808C71.8441 46.2602 72.3586 45.7014 72.9171 46.2161C73.4095 46.6646 72.9906 47.2088 72.7848 47.6647C71.7338 50.003 70.0949 51.9222 68.3531 53.7899C68.1693 50.9516 69.0513 48.5912 71.0503 46.6794Z" fill="#E5E1D6"/>
<path d="M157.12 56.7753C157.465 55.3194 157.95 54.1355 158.421 52.9369C158.641 52.3854 158.898 51.8634 159.325 51.4442C160.574 50.2089 162.419 50.2898 163.492 51.6722C164.175 52.5546 164.712 53.5252 165.057 54.6134C165.373 55.6208 165.778 56.6062 166.255 57.5474C166.733 58.4959 167.225 58.5327 168.056 57.8415C169.416 56.7165 170.187 55.2017 170.819 53.6061C171.003 53.1428 170.871 52.6869 170.819 52.2163C170.569 49.5692 170.606 46.9514 171.326 44.3484C172.524 40.01 176.287 38.2158 180.396 40.113C181.214 40.4904 182 40.3189 182.755 39.5982C183.358 39.0247 184.151 38.9438 184.894 38.9953C185.614 39.0468 185.753 39.738 185.783 40.3336C185.842 41.6277 185.922 42.9072 186.15 44.1866C186.716 47.4294 187.422 50.6427 188.142 53.8561C188.23 54.2531 188.363 54.6502 188.517 55.0326C188.921 56.0106 189.142 56.1135 190.104 55.5767C191.339 54.8855 192.625 54.3193 193.955 53.8414C194.294 53.7164 194.69 53.6281 194.918 53.9811C195.161 54.3561 194.852 54.6649 194.588 54.8782C193.397 55.8267 192.236 56.8415 190.957 57.665C189.612 58.5327 189.369 59.5548 189.649 61.099C190.097 63.577 190.442 66.1065 191.045 68.5183C191.846 71.7243 191.618 74.9229 191.898 78.1216C192.125 80.6805 191.868 83.1806 191.508 85.6439C190.942 89.5484 190.347 93.5265 188.282 97.0119C187.054 99.0782 185.665 101.064 183.262 101.997C180.653 103.005 178.095 103.027 175.685 101.468C173.546 100.086 172.142 98.2767 171.547 95.6369C169.879 88.2249 170.79 81.1805 173.906 74.32C176.273 69.1139 179.734 64.702 183.651 60.6136C184.056 60.1872 184.46 59.7533 184.901 59.3636C185.687 58.6651 185.981 57.8709 185.614 56.8415C184.798 54.562 184.533 52.1575 184.026 49.8045C183.99 49.6353 183.96 49.4589 183.901 49.2897C183.769 48.9221 183.821 48.3779 183.321 48.2971C182.725 48.1941 182.498 48.7162 182.373 49.15C181.807 51.0619 180.8 52.6575 179.308 53.9958C177.64 55.4885 175.824 56.165 173.664 55.3341C172.84 55.0179 172.451 55.3708 172.135 56.0179C171.642 57.0253 171.121 57.9959 170.283 58.7827C168.107 60.8122 165.917 60.621 164.153 58.2018C163.389 57.1503 162.705 56.062 162.345 54.7899C162.22 54.3487 162.125 53.8634 161.515 53.5399C160.897 54.1281 160.552 54.9076 160.302 55.7385C159.707 57.7165 159.273 59.7313 159.097 61.7828C159.016 62.6872 158.766 63.4961 158.391 64.305C158.075 64.9741 157.781 65.6359 156.885 65.4962C156.054 65.3638 155.481 64.8344 155.305 64.0255C154.988 62.5328 154.467 61.0843 154.496 59.5254C154.525 58.1062 154.195 56.7238 153.938 55.3414C153.879 55.0326 153.908 54.6134 153.32 54.459C152.747 55.665 152.607 57.0106 152.394 58.3047C151.99 60.8122 151.38 63.2314 150.366 65.577C149.675 67.1727 148.499 68.261 147.286 69.3639C146.662 69.9301 145.853 69.9007 145.111 69.6434C143.457 69.0698 142.244 68.0551 141.884 66.2388C141.759 65.6138 141.73 64.9594 141.37 64.4152C141.208 64.4667 141.032 64.4741 141.017 64.5329C140.231 67.5403 137.901 69.3051 135.63 71.0478C134.204 72.1434 132.381 72.467 130.625 72.5405C129.082 72.6067 127.832 71.7611 126.884 70.5257C126.502 70.0257 126.215 69.4301 125.517 69.158C125.017 69.7095 125.01 70.3787 124.834 70.9743C124.179 73.1802 123.386 75.3127 121.879 77.1215C119.924 79.4893 117.168 79.629 115.096 77.401C114.346 76.5921 114.368 76.6509 113.545 77.5701C111.458 79.901 109.267 82.0261 105.953 82.6217C103.858 82.9967 102.271 82.4526 100.911 80.9158C100.455 80.4084 100.242 79.6584 99.3897 79.4304C98.9119 79.901 98.9193 80.5849 98.7429 81.1731C98.0814 83.4453 97.2583 85.6292 95.6855 87.4675C94.7595 88.5557 93.6203 89.1734 92.1798 89.2322C90.8275 89.2911 89.828 88.7249 89.0122 87.666C87.4321 85.5998 87.3659 85.5924 86.0504 87.894C84.5584 90.5043 82.5152 92.5485 79.9723 94.1221C78.3995 95.1001 76.6871 95.4016 74.9012 95.1295C72.3436 94.7398 70.5356 92.7103 70.2343 90.0779C69.9109 87.2469 70.3886 84.5483 71.7115 82.0555C73.2549 79.1584 76.0551 78.8716 78.62 80.3349C79.6269 80.9084 79.8621 81.7246 79.4946 82.9379C79.0169 84.5189 78.3407 86.0189 77.4514 87.416C76.5695 88.7984 75.6435 90.1661 74.7321 91.5338C74.5043 91.872 74.1589 92.1882 74.4161 92.6368C74.6954 93.1221 75.1878 93.1662 75.6582 93.0706C76.8782 92.8206 78.0027 92.3353 79.0022 91.5632C81.06 89.9676 82.7431 88.041 84.4114 86.0483C86.3002 83.8056 87.3145 81.4305 87.6011 78.4892C87.873 75.7465 89.6442 73.6729 91.9961 72.1949C92.8192 71.6728 93.7526 71.5478 94.708 71.614C95.9575 71.7022 96.6189 72.4449 96.5969 73.6803C96.5748 74.8347 95.8913 75.2759 94.855 74.8053C92.7016 73.82 91.9226 74.092 90.9671 76.2759C90.0558 78.3642 89.6442 80.5481 90.1073 82.8203C90.3057 83.7982 90.2469 84.813 90.5997 85.7689C91.1435 87.2542 92.121 87.4822 93.2308 86.3351C93.6718 85.8718 94.1274 85.3498 94.3626 84.7762C95.9428 80.9673 97.3979 77.1215 97.3759 72.9008C97.3759 71.5331 97.0525 70.2169 96.7585 68.9007C95.5826 63.7388 94.9579 58.5033 94.4876 53.231C94.2156 50.2309 94.2083 47.2456 94.1936 44.2528C94.1642 39.5394 94.6933 34.8775 95.7223 30.2744C96.2514 27.914 97.2657 25.8846 99.544 24.6345C102.08 23.2448 105.027 24.1933 105.696 27.0464C105.762 27.3331 105.791 27.6567 105.953 27.8846C107.305 29.7597 107.085 32.0245 107.606 34.1054C108.422 37.3702 107.768 40.635 107.842 43.8925C107.886 45.6793 107.32 47.4809 106.996 49.2603C106.166 53.8855 104.828 58.4003 104.005 63.0328C103.895 63.6652 103.733 64.3123 103.461 64.8858C102.307 67.3492 101.764 70.011 100.933 72.5773C100.602 73.592 100.676 74.5921 101.014 75.5186C101.543 76.9524 102.366 78.2613 103.336 79.4452C104.049 80.3128 105.049 80.379 106.085 80.1069C108.275 79.526 109.877 78.0628 111.45 76.548C111.575 76.4303 111.649 76.2465 111.781 76.1362C113.096 75.0921 113.405 73.7979 113.295 72.114C113.148 69.8272 113.486 67.555 114.677 65.4815C115.426 64.1726 116.448 63.1358 117.616 62.2461C118.535 61.5475 119.623 61.2975 120.784 61.3857C122.085 61.4887 122.805 62.3343 122.68 63.6211C122.585 64.6579 121.923 65.0403 120.953 64.577C120.637 64.43 120.372 64.1652 120.049 64.0329C119.108 63.6432 118.263 63.9888 117.55 65.1064C116.646 66.5256 116.22 68.1212 116.058 69.7684C115.867 71.717 116.205 73.6508 116.705 75.5186C117.109 77.048 118.19 77.2613 119.307 76.1142C119.755 75.6583 120.203 75.1362 120.446 74.5553C122.033 70.7463 123.481 66.9006 123.467 62.6799C123.467 61.3122 123.151 59.996 122.849 58.6798C121.673 53.5178 121.041 48.2824 120.571 43.0101C120.306 40.0688 120.292 37.1423 120.277 34.2084C120.24 29.4361 120.762 24.7154 121.798 20.0535C122.342 17.6196 123.4 15.5533 125.774 14.3253C128.236 13.0532 131.11 13.9871 131.771 16.8034C131.838 17.0901 131.874 17.4063 132.029 17.6416C133.918 20.6123 133.322 24.1566 134.263 27.3405C133.447 30.2523 134.314 33.2672 133.521 36.2452C132.977 38.3041 132.771 40.51 132.315 42.6278C131.544 46.1867 130.64 49.7162 129.993 53.3046C129.912 53.7605 129.758 54.2237 129.552 54.6429C128.383 57.0988 127.847 59.7607 127.016 62.3269C126.671 63.4005 126.752 64.4594 127.149 65.4373C127.7 66.7977 128.464 68.0698 129.405 69.2022C130.125 70.0698 131.117 70.1434 132.154 69.8713C134.351 69.2978 135.961 67.8418 137.519 66.3124C138.313 65.5329 138.981 64.6064 139.819 63.8785C140.98 62.8711 141.216 61.6504 141.017 60.2239C140.841 59.0033 140.701 57.7753 140.584 56.5547C140.495 55.5988 140.745 55.4149 141.701 55.665C143.215 56.0547 143.648 56.6576 143.898 58.2239C144.236 60.371 144.082 62.5696 144.633 64.6947C144.765 65.2094 144.846 65.7388 145.045 66.2241C145.309 66.8786 145.787 66.9889 146.265 66.4668C146.698 65.9962 147.08 65.4594 147.382 64.8932C148.308 63.1211 149.293 61.3637 150.035 59.518C151.005 57.1209 152.519 54.9664 153.122 52.4148C153.225 51.981 153.519 51.6501 153.982 51.6648C154.783 51.6869 155.562 51.9222 155.863 52.7237C156.172 53.5399 156.289 54.4296 156.51 55.2752C156.62 55.7091 156.407 56.2238 157.09 56.7826L157.12 56.7753ZM189.046 78.3642C189.259 74.4818 188.473 70.4963 187.782 66.5109C187.569 65.2976 187.282 64.0991 186.981 62.9005C186.716 61.8196 186.474 61.7681 185.599 62.5255C185.379 62.7167 185.188 62.9446 184.967 63.1431C182.696 65.2241 181.072 67.8345 179.22 70.2537C177.426 72.5993 176.177 75.2465 174.92 77.901C173.796 80.2761 173.421 82.8276 172.899 85.3571C171.9 90.122 172.818 94.5118 175.053 98.784C176.104 100.799 180.3 101.571 181.895 100.108C184.004 98.1737 185.812 96.0707 186.709 93.2838C188.238 88.4969 189.252 83.6365 189.046 78.3716V78.3642ZM125.26 56.3782C125.862 55.8782 125.936 55.2091 126.098 54.6061C127.06 50.9736 128.111 47.3485 128.905 43.6793C129.971 38.7453 130.831 33.7745 130.897 28.6861C130.948 25.1125 130.125 21.6932 129.523 18.2299C129.376 17.4063 129.015 16.6637 128.501 16.0092C127.854 15.1783 127.465 15.171 126.899 16.0239C126.546 16.5607 126.237 17.1343 125.958 17.7152C124.106 21.5976 123.356 25.7448 123.106 29.995C122.959 32.5098 123.026 35.0246 123.033 37.5393C123.048 41.0689 123.584 44.569 123.481 48.0985C123.467 48.4956 123.606 48.9074 123.702 49.3044C124.179 51.2898 124.885 53.231 124.856 55.312C124.856 55.6502 124.812 56.0253 125.26 56.3782ZM99.2059 66.6138C99.7498 66.0991 99.8527 65.4373 100.014 64.827C100.977 61.1872 102.028 57.5694 102.815 53.9002C103.88 48.9662 104.74 43.9954 104.806 38.907C104.858 35.3334 104.035 31.9142 103.425 28.4508C103.292 27.6861 102.969 26.9949 102.506 26.3699C101.756 25.3478 101.381 25.3478 100.713 26.414C100.397 26.9066 100.11 27.4287 99.86 27.9582C98.008 31.8406 97.2657 35.9878 97.0084 40.238C96.8541 42.8116 96.9276 45.3852 96.9423 47.9588C96.957 51.4295 97.4935 54.8708 97.3833 58.3415C97.3759 58.6871 97.4567 59.0401 97.5523 59.3783C98.1329 61.5254 98.809 63.6432 98.7796 65.9079C98.7796 66.1432 98.8311 66.3712 99.1986 66.6212L99.2059 66.6138ZM173.583 51.8119C173.517 52.9663 174.215 53.4075 175.273 52.8634C175.53 52.731 175.758 52.5398 176.001 52.3707C178.397 50.7677 179.639 48.3044 180.903 45.8411C181.366 44.9367 181.594 44.1425 180.55 43.4293C180.197 43.1866 180.036 42.6645 179.793 42.2674C178.874 40.76 177.978 40.5615 176.692 41.7968C175.097 43.3263 173.833 45.0543 174.2 47.4956C174.296 48.1279 174.281 48.7971 174.178 49.4295C174.053 50.2309 173.796 51.0177 173.59 51.8119H173.583ZM72.7551 89.0999C73.9163 88.4455 74.2691 87.6145 74.688 86.8866C75.4744 85.5262 76.2314 84.1291 76.768 82.6438C76.9664 82.0923 77.0619 81.4305 76.4078 81.0923C75.8934 80.8202 75.5406 81.2761 75.2099 81.5923C73.1373 83.5629 72.711 86.063 72.7551 89.0999Z" fill="#E5E1D6"/>
<path d="M61.797 96.6075C61.2311 92.7471 61.187 88.6661 60.3124 84.7027C59.4378 80.7467 58.5486 76.7833 57.1301 72.9744C56.4099 71.0331 55.6382 69.1434 54.1903 67.5992C53.911 67.3051 53.6905 66.9448 53.4701 66.5992C53.1687 66.1212 53.3598 65.7977 53.8596 65.6874C54.7562 65.4888 55.6382 65.6065 56.3805 66.1727C57.4167 66.9595 58.3501 67.8565 58.8866 69.0772C61.1135 74.1876 62.554 79.4819 62.826 85.0777C62.9068 86.7763 63.0685 88.4822 63.4801 90.1367C63.9063 91.8279 63.774 93.6589 64.7662 95.2177C64.9059 95.4383 64.9059 95.7913 64.8838 96.0781C64.7221 98.1811 64.6045 100.291 64.3326 102.387C64.1562 103.792 63.6417 105.13 62.8186 106.306C61.8044 107.748 60.7681 109.174 59.8862 110.704C59.5554 111.27 59.0924 111.704 58.5045 112.027C54.8077 114.064 49.663 113.321 46.4807 110.527C42.6516 107.159 40.5938 102.836 39.1974 98.0855C39.0357 97.5193 38.896 96.9531 38.7196 96.3869C38.6462 96.1589 38.4918 95.9457 38.2419 95.9163C37.8965 95.8795 37.6981 96.1295 37.6025 96.4163C37.4188 96.9752 37.2865 97.5487 37.1175 98.1076C35.2654 104.181 34.0674 110.424 32.4211 116.549C32.039 117.968 31.6347 119.38 30.7308 120.586C29.3564 122.432 26.7326 122.351 25.6523 120.285C24.1456 117.41 22.9991 114.38 22.6463 111.123C22.0363 105.461 21.4778 99.7988 20.9119 94.1295C20.6767 91.7912 20.4635 89.4528 20.2798 87.1145C20.1328 85.2689 21.5145 84.2689 23.0799 85.0189C23.6826 85.3057 23.9178 85.7836 23.9913 86.4086C24.1971 88.041 24.4837 89.6661 24.6307 91.2985C24.932 94.6883 25.1231 98.0855 25.4318 101.475C25.8287 105.74 26.0859 110.027 26.9237 114.24C27.0707 114.99 27.181 115.755 27.5999 116.417C27.9233 116.932 28.3716 117.035 28.695 116.461C29.18 115.593 29.6504 114.696 30.0032 113.77C32.2741 107.777 34.1556 101.652 36.0297 95.5266C36.772 93.1074 37.5217 90.6955 38.2566 88.2837C38.558 87.2837 39.0798 86.4601 40.0646 86.0189C41.0568 85.5704 41.7991 85.8939 42.1519 86.9086C42.3282 87.4234 42.3282 87.9528 42.2327 88.4749C41.5786 92.1735 42.3282 95.7619 43.4233 99.2326C44.3053 102.012 45.2092 104.821 47.0099 107.24C48.2666 108.931 49.8468 110.196 51.5445 111.365C52.2941 111.88 53.0879 111.895 53.8816 111.498C56.4907 110.204 58.6147 108.336 59.7833 105.667C61.018 102.858 61.5692 99.8355 61.775 96.6001L61.797 96.6075Z" fill="#E5E1D6"/>
<path d="M142.48 47.8412C142.458 49.1353 141.906 49.8927 140.892 50.0251C139.533 50.2089 138.607 49.3559 138.695 47.9735C138.717 47.6868 138.798 47.3926 138.893 47.1206C139.327 45.9146 140.194 45.1793 140.995 45.297C141.833 45.422 142.502 46.5691 142.472 47.8338L142.48 47.8412Z" fill="#E5E1D6"/>
<path d="M126.274 122.329C125.708 120.167 125.032 118.035 124.62 115.843C124.069 112.917 122.548 110.696 120.313 108.814C119.365 108.012 118.528 107.461 117.19 107.645C116.014 107.806 115.514 107.056 115.683 105.858C115.808 104.975 116.359 104.564 117.168 104.336C118.969 103.814 120.762 103.255 122.562 102.718C123.07 102.564 123.68 102.512 123.907 101.983C124.26 101.137 125.032 100.659 125.642 99.9164C125.105 99.4091 124.708 99.6517 124.334 99.762C122.364 100.336 120.402 100.939 118.432 101.497C116.896 101.931 116.609 101.689 116.874 100.122C117.396 97.0193 117.734 93.8942 118.719 90.8573C119.74 87.7175 120.828 84.6512 122.717 81.9158C123.312 81.0482 123.18 80.5702 122.202 80.2099C120.857 79.7099 119.828 80.0849 119.167 81.4452C117.851 84.1439 116.903 86.9895 116.168 89.894C115.25 93.5412 114.368 97.1958 113.831 100.916C113.625 102.314 113.008 103.152 111.553 103.38C110.634 103.519 109.73 103.814 108.834 104.093C108.069 104.336 107.952 104.784 108.407 105.424C108.79 105.961 109.333 106.145 109.943 106.115C110.642 106.078 111.34 105.99 112.038 105.909C112.633 105.843 112.942 106.086 112.898 106.696C112.868 107.167 112.839 107.637 112.773 108.101C112.273 111.645 112.207 115.218 112.104 118.792C112.038 121.138 112.266 123.476 112.405 125.814C112.582 128.8 112.788 131.756 113.655 134.631C114.155 136.278 114.919 137.778 116.198 138.984C118.072 140.756 121.622 140.447 122.959 138.219C124.378 135.859 125.488 133.344 125.892 130.542C126.186 128.506 126.068 126.439 126.48 124.417C126.619 123.719 126.45 123.013 126.274 122.329ZM123.025 125.653C123.062 127.888 122.739 130.094 122.313 132.278C121.982 133.991 121.041 135.418 120.137 136.859C119.917 137.212 119.579 137.454 119.218 137.66C118.167 138.249 117.668 138.138 117.036 137.116C116.595 136.41 116.315 135.638 116.11 134.844C115.441 132.285 115.279 129.667 115.059 127.042C114.75 123.41 115 119.792 114.875 116.167C114.794 113.807 115.375 111.417 115.705 109.042C115.786 108.483 116.22 108.461 116.639 108.718C117.815 109.424 118.733 110.395 119.542 111.49C120.968 113.432 121.614 115.682 122.107 117.983C122.643 120.505 123.106 123.042 123.025 125.645V125.653Z" fill="#E5E1D6"/>
<path d="M111.774 109.498C111.428 109.027 111.024 109.468 110.693 109.652C109.054 110.571 107.452 111.549 105.799 112.446C104.534 113.13 104.424 113.115 103.711 111.924C102.918 110.601 101.786 109.924 100.294 109.74C99.5368 109.645 98.7651 109.667 98.0522 109.336C96.7586 108.748 95.6636 109.167 94.6494 110.027C93.444 111.049 92.665 112.307 92.371 113.887C92.1285 115.218 91.93 116.549 91.9594 117.91C91.9962 118.733 91.9594 119.564 92.0844 120.373C92.4004 122.572 93.7307 124.05 95.715 124.388C98.2653 124.822 100.353 123.947 101.911 121.917C103.065 120.41 103.836 118.667 104.233 116.821C104.461 115.763 104.939 115.255 105.879 114.799C107.989 113.777 110.047 112.615 111.399 110.571C111.619 110.24 112.068 109.909 111.766 109.498H111.774ZM101.212 116.99C100.639 119.366 99.4265 121.314 97.2658 122.535C95.9429 123.285 95.1271 122.976 94.7669 121.505C94.179 119.079 94.2892 116.667 95.4578 114.211C96.9497 115.52 98.6107 116.093 100.485 116.057C101.051 116.042 101.352 116.402 101.212 116.99ZM99.5074 114.498C98.721 114.461 98.1257 113.807 98.133 112.983C98.1403 112.123 98.9708 111.181 99.7352 111.174C100.477 111.167 101.433 112.409 101.404 113.351C101.381 114.012 100.507 114.542 99.5147 114.498H99.5074Z" fill="#E5E1D6"/>
</svg>
