<svg width="376" height="16" viewBox="0 0 376 16" fill="none" xmlns="http://www.w3.org/2000/svg">
<path d="M376 0H1V16H376V0Z" fill="#D08E61"/>
<path d="M352.226 13.077C354.279 15.4331 354.485 15.4478 356.664 13.0328C357.68 11.9063 358.732 10.8019 359.667 9.61652C360.661 8.35012 361.573 8.40168 362.574 9.54291C363.715 10.8461 364.849 12.1567 366.012 13.4378C367.602 15.1828 368.058 15.1975 369.604 13.5335C370.708 12.3481 371.768 11.1185 372.827 9.88893C373.659 8.92441 374.071 8.54894 374.638 8.76246V6.33275C374.064 6.39165 373.541 5.87625 372.607 4.75711C371.701 3.68215 370.774 2.61452 369.802 1.59846C368.205 -0.0581652 367.867 -0.0434055 366.166 1.67948C364.871 2.99005 363.62 4.33744 362.331 5.64065C361.5 6.48001 360.697 6.54624 359.866 5.55963C358.681 4.15334 357.451 2.77651 356.2 1.42913C354.912 0.0522906 354.353 0.0154732 352.969 1.33341C351.872 2.37892 350.923 3.57169 349.863 4.65402C347.728 6.82604 347.5 6.79657 345.616 4.55093C344.711 3.47597 343.805 2.39363 342.797 1.41439C341.325 -0.0139887 340.758 0.0301898 339.308 1.55428C338.336 2.57034 337.438 3.65268 336.489 4.69083C334.612 6.73031 334.465 6.73768 332.441 4.65402C331.69 3.88093 330.991 3.04158 330.299 2.21695C328.304 -0.153861 327.782 -0.198042 325.713 1.93716C324.815 2.87223 323.984 3.87357 323.115 4.83809C321.547 6.5757 321.084 6.61251 319.486 5.01479C318.493 4.01345 317.595 2.93116 316.623 1.91509C314.709 -0.0875768 314.334 -0.0802501 312.516 1.87824C311.854 2.59243 311.213 3.33607 310.536 4.03553C308.306 6.33271 308.033 6.3401 305.95 4.06501C305.148 3.18884 304.478 2.18015 303.625 1.35552C302.3 0.0743969 301.637 0.0670108 300.32 1.37758C299.171 2.51881 298.185 3.82938 297.074 5.01479C295.572 6.61987 295.182 6.61987 293.688 5.10314C292.702 4.09444 291.796 3.0121 290.81 2.01077C288.837 0.0154605 288.558 0.00810143 286.629 1.92242C285.555 2.99002 284.583 4.16072 283.494 5.2136C281.801 6.85549 281.749 6.84077 280.182 5.2136C278.982 3.96193 277.885 2.61455 276.656 1.39969C275.279 0.0375812 274.772 0.044944 273.41 1.39969C272.181 2.61455 271.062 3.94721 269.884 5.22097C268.515 6.70825 268.206 6.74503 266.8 5.28721C265.674 4.11653 264.688 2.81331 263.562 1.64263C262.045 0.0596371 261.633 0.0301843 260.117 1.50274C258.873 2.71023 257.681 3.97663 256.606 5.33138C255.576 6.63459 254.692 6.47262 253.691 5.3903C252.661 4.27852 251.594 3.19617 250.593 2.05494C248.694 -0.0949828 248.296 -0.139132 246.25 1.94453C245.345 2.87224 244.513 3.87355 243.674 4.86752C242.003 6.84811 241.863 6.86283 240.001 4.86752C238.963 3.76311 237.977 2.61453 236.939 1.51748C235.533 0.0301987 234.959 0.0154732 233.487 1.51748C232.582 2.44518 231.742 3.44652 230.933 4.46258C228.916 6.97328 228.614 7.02483 226.458 4.83809C225.471 3.83675 224.573 2.74707 223.617 1.70892C222.041 0.00811767 221.533 -0.0655262 219.936 1.55428C218.722 2.78386 217.684 4.18281 216.543 5.48602C215.535 6.64197 214.526 6.56096 213.54 5.41973C212.407 4.10916 211.317 2.75443 210.103 1.52485C208.579 -0.0139706 207.792 0.0228593 206.356 1.67948C205.363 2.82807 204.568 4.13128 203.567 5.27251C202.293 6.7377 201.712 6.77449 200.372 5.43447C199.224 4.29324 198.23 2.99739 197.156 1.7899C195.47 -0.102335 194.705 -0.0876056 192.997 1.88561C191.937 3.1152 190.929 4.38897 189.832 5.58174C188.949 6.5389 188.043 6.6125 187.101 5.50808C185.909 4.10916 184.65 2.76177 183.347 1.45856C181.942 0.0449117 181.5 0.0375561 180.175 1.46593C178.997 2.73233 177.952 4.1239 176.819 5.43447C175.84 6.56834 174.809 6.59044 173.801 5.44921C172.587 4.06501 171.438 2.61455 170.143 1.31134C168.847 0.00813382 168.097 0.0743699 166.919 1.46593C165.94 2.62189 165.116 3.9104 164.115 5.04427C162.598 6.75979 162.01 6.77448 160.434 5.19149C159.213 3.96927 158.153 2.57772 156.901 1.38495C155.503 0.0449296 154.98 0.111196 153.7 1.52485C152.537 2.80597 151.418 4.13127 150.284 5.44184C149.21 6.68615 148.12 6.73034 147.002 5.50076C145.979 4.38162 144.919 3.29927 143.91 2.1654C141.835 -0.168592 141.746 -0.18332 139.722 2.02551C138.92 2.90168 138.176 3.8441 137.337 4.68346C135.939 6.07502 135.563 6.06769 134.187 4.67613C133.12 3.5938 132.104 2.46729 131.081 1.35552C130.102 0.29528 129.123 0.081756 128.063 1.2598C126.9 2.54092 125.723 3.80729 124.523 5.05896C122.837 6.8113 122.285 6.80397 120.614 4.94855C119.525 3.74106 118.495 2.48936 117.413 1.28186C116.419 0.170086 115.374 0.170116 114.358 1.26717C113.18 2.54093 112.076 3.88092 110.847 5.10314C109.265 6.67877 108.58 6.6714 107.093 5.09577C105.982 3.91773 105.032 2.57772 103.891 1.42913C102.471 0.000751225 101.779 0.059648 100.381 1.56165C99.4973 2.51145 98.7318 3.57168 97.8265 4.49939C95.4711 6.9291 95.2209 6.90704 93.0495 4.44052C92.1221 3.38028 91.1505 2.35686 90.2084 1.31134C89.2147 0.214291 88.2505 0.111184 87.198 1.28186C85.9688 2.65134 84.7028 3.984 83.4074 5.28721C81.9132 6.79657 81.3906 6.81869 79.9332 5.31669C78.7261 4.07238 77.6809 2.67343 76.4812 1.42913C75.1489 0.0596534 74.5675 0.059648 73.2352 1.37758C72.3078 2.29057 71.5276 3.33609 70.637 4.28588C68.1344 6.96593 67.6928 6.94384 65.3669 4.19753C64.5278 3.20356 63.6593 2.22431 62.7171 1.34078C61.3702 0.0670197 60.7593 0.0891188 59.4565 1.44387C58.3303 2.60718 57.3146 3.88093 56.2032 5.06633C54.5471 6.84076 54.0097 6.8334 52.3021 4.97798C51.2717 3.86621 50.3663 2.64399 49.3432 1.52485C47.9595 0.0228432 47.2529 0.00812118 45.8764 1.4365C44.8239 2.52619 43.845 3.68214 42.8219 4.79392C40.9155 6.85549 40.6284 6.8702 38.7442 4.91907C37.8388 3.984 36.9997 2.99742 36.1018 2.04762C34.0629 -0.109671 33.7391 -0.102329 31.7812 2.02551C30.7507 3.13729 29.6908 4.22698 28.6677 5.34612C27.8213 6.26647 27.0558 6.26646 26.2388 5.29458C25.2598 4.13862 24.2515 3.00476 23.221 1.89298C21.4471 -0.00660793 20.8068 -0.00662048 19.0329 1.83407C18.1276 2.76914 17.259 3.73368 16.3463 4.66139C14.2044 6.84813 14.0572 6.84075 12.0258 4.69083C11.0542 3.6674 10.1415 2.58509 9.12574 1.62057C7.55796 0.125925 7.24147 0.118561 5.65161 1.66474C4.33409 2.94586 3.05337 4.28586 1.8757 5.69215C0.565541 7.25306 0.639146 8.03351 2.05971 9.65332C3.20058 10.9565 4.37825 12.2303 5.54856 13.5114C7.16786 15.2859 7.74198 15.2711 9.4128 13.4157C10.5684 12.1272 11.7166 10.8314 12.8575 9.52817C13.7775 8.48265 14.6608 8.50475 15.5809 9.53554C16.8027 10.9124 18.0098 12.3039 19.2905 13.6292C20.5786 14.9619 21.2042 14.9472 22.5438 13.6292C23.7068 12.4954 24.7667 11.2511 25.9444 10.1393C27.3576 8.80663 27.8066 8.83605 29.1756 10.2497C30.2281 11.3394 31.1776 12.5322 32.2155 13.6292C33.6581 15.146 33.9157 15.1681 35.351 13.7765C36.6759 12.4954 37.8977 11.1112 39.2005 9.81532C40.7609 8.26914 40.9965 8.26912 42.5422 9.92574C43.5726 11.0302 44.5221 12.2156 45.5305 13.3494C47.2234 15.2564 47.665 15.2711 49.3506 13.4599C50.4546 12.2671 51.5072 11.0302 52.6554 9.88156C54.1717 8.35747 54.6869 8.39432 56.0707 9.91104C57.16 11.1112 58.2346 12.326 59.3534 13.5041C60.9654 15.2049 61.1715 15.2122 62.9527 13.4304C64.1745 12.2082 65.3227 10.9124 66.5299 9.66069C67.4057 8.74771 68.3479 8.51946 69.3342 9.5208C69.7905 9.98465 70.291 10.4043 70.7106 10.8976C74.8913 15.7791 74.1774 16.3166 78.866 10.986C81.8764 7.56229 82.1193 8.3575 84.5041 10.9639C89.3252 16.2209 87.7132 16.1031 92.7036 11.0302C95.5595 8.12186 95.4932 8.05561 98.2681 11.1848C100.874 14.1299 103.469 14.1814 106.055 11.3394C109.11 7.982 109.287 7.98935 112.135 11.4204C112.201 11.5014 112.26 11.5971 112.334 11.6781C116.051 15.8822 115.631 15.6098 119.076 11.9873C122.697 8.17344 122.661 8.23231 126.194 11.9579C129.587 15.5362 129.094 15.8601 132.494 12.1935C133.009 11.6339 133.532 11.0817 134.091 10.5737C135.593 9.20419 136.108 9.24101 137.58 10.7651C138.405 11.6192 139.222 12.4953 140.017 13.3789C141.761 15.3153 141.82 15.2932 143.616 13.2317C144.749 11.9284 145.993 10.7136 147.156 9.43245C148.201 8.28386 149.202 8.36484 150.167 9.47662C151.374 10.8608 152.551 12.2745 153.714 13.6955C154.944 15.1902 155.473 15.2638 156.813 13.8722C158.013 12.6279 159.095 11.2658 160.295 10.0141C161.951 8.27652 162.164 8.26176 163.901 10.073C164.946 11.1627 165.837 12.3997 166.809 13.5556C168.156 15.1533 168.656 15.1754 170.18 13.6587C171.335 12.5101 172.439 11.3247 173.58 10.1614C175.28 8.4311 175.369 8.40901 177.143 10.2055C178.129 11.2069 179.005 12.3187 179.91 13.3936C181.456 15.2196 181.875 15.249 183.465 13.5703C184.731 12.2303 186.034 10.9271 187.226 9.52817C188.169 8.43111 189.037 8.46058 189.913 9.49873C190.892 10.6547 191.841 11.8327 192.754 13.0402C194.513 15.3816 195.051 15.4552 196.964 13.3936C198.068 12.2082 199.106 10.9566 200.21 9.77115C201.601 8.27651 201.962 8.23234 203.324 9.6828C204.501 10.9492 205.502 12.3775 206.658 13.6587C207.939 15.087 208.425 15.0871 209.838 13.7176C211.236 12.3628 212.591 10.9492 213.93 9.54291C214.784 8.64465 215.594 8.62257 216.403 9.55028C217.544 10.8608 218.619 12.2156 219.804 13.482C221.305 15.087 221.725 15.1018 223.241 13.6071C224.632 12.2376 225.935 10.7872 227.267 9.35884C228.239 8.32069 229.152 8.46794 229.998 9.49136C230.962 10.662 231.875 11.8695 232.846 13.0402C234.753 15.33 235.15 15.33 237.108 13.2317C238.293 11.9653 239.522 10.743 240.707 9.47662C241.686 8.43111 242.503 8.55628 243.372 9.66069C244.373 10.9344 245.411 12.2008 246.559 13.3421C248.215 14.984 248.73 14.9398 250.283 13.3053C251.402 12.1272 252.447 10.8755 253.61 9.74167C255.163 8.22494 255.259 8.26913 256.621 9.84476C257.681 11.0743 258.733 12.3113 259.859 13.482C261.501 15.1901 261.744 15.1901 263.495 13.4525C264.651 12.3113 265.689 11.0523 266.822 9.88893C268.302 8.37957 268.5 8.37957 269.892 9.84476C270.937 10.9492 271.908 12.1051 272.946 13.2243C274.713 15.1312 275.302 15.1018 277.09 13.1359C277.966 12.1788 278.827 11.1995 279.747 10.2866C281.852 8.18817 281.889 8.18078 284.053 10.4043C285.106 11.494 286.04 12.6941 287.078 13.7986C288.388 15.1901 288.963 15.2196 290.287 13.8427C291.634 12.4364 292.878 10.9345 294.188 9.49136C295.028 8.56365 295.764 8.61517 296.595 9.60915C297.773 11.0228 299.017 12.3849 300.32 13.6881C301.755 15.1239 302.116 15.1165 303.522 13.747C304.684 12.6131 305.825 11.4425 306.856 10.1908C307.901 8.92444 308.806 9.07906 309.793 10.1908C310.794 11.3247 311.787 12.4733 312.825 13.5777C314.334 15.168 314.577 15.1754 316.189 13.5777C317.418 12.3555 318.662 11.1333 319.788 9.82269C320.826 8.6152 321.753 8.65198 322.74 9.78584C323.733 10.9271 324.712 12.0904 325.691 13.2464C327.494 15.3816 327.87 15.3889 329.673 13.401C330.836 12.1199 332.029 10.8535 333.191 9.57234C334.119 8.54892 334.965 8.54157 335.878 9.63863C336.989 10.9639 338.16 12.2377 339.345 13.5041C340.898 15.1533 341.17 15.1828 342.716 13.644C344.019 12.3481 345.248 10.9786 346.484 9.60915C347.301 8.71089 348.082 8.5931 348.943 9.52817C350.047 10.7209 351.188 11.8769 352.255 13.0991L352.226 13.077Z" fill="#7C7C59"/>
</svg>
