<svg width="238" height="156" viewBox="0 0 238 156" fill="none" xmlns="http://www.w3.org/2000/svg">
<path d="M0.435692 127.713C0.487216 127.875 0.55346 128.037 0.568181 128.199C0.568181 128.258 0.465134 128.339 0.40625 128.405C0.41361 128.169 0.42097 127.941 0.42833 127.713H0.435692Z" fill="#B0A480"/>
<path d="M8.69442 148.962L8.57666 149.087L8.70179 148.977L8.69442 148.962Z" fill="#757059"/>
<path d="M143.103 132.638C142.766 132.557 142.437 132.476 142.1 132.388C141.617 132.057 141.119 132.116 140.621 132.359C140.131 132.344 139.64 132.322 139.157 132.307C136.463 132.153 133.754 131.865 131.067 132.403C130.913 132.454 130.752 132.506 130.591 132.557H130.525C130.166 132.484 129.808 132.418 129.456 132.344C125.766 131.983 122.069 132.02 118.379 132.351C117.889 132.359 117.391 132.366 116.908 132.381C114.192 131.836 111.475 132.145 108.752 132.351C108.254 132.314 107.756 132.285 107.258 132.248C106.724 132.241 106.182 132.226 105.64 132.219C103.466 132.234 101.277 131.865 99.1172 132.388C98.6267 132.388 98.1289 132.388 97.6383 132.388C97.1259 132.13 96.606 132.13 96.0936 132.395C95.603 132.41 95.1198 132.425 94.6293 132.44C93.9045 132.079 93.1797 131.806 92.4622 132.454C87.7181 132.388 82.9813 132.292 78.2372 132.278C70.4035 132.241 62.5625 132.278 54.7288 132.248C51.9834 132.241 49.2453 132.145 46.4998 132.086C47.2832 131.041 48.6449 131.549 49.5894 130.93C49.8236 130.945 50.0506 130.967 50.2849 130.982C50.4459 130.982 50.607 130.982 50.7608 130.967C61.845 130.967 72.9293 130.967 84.0136 130.96C84.57 131.379 85.1118 131.335 85.6535 130.93C86.5101 130.93 87.3594 130.93 88.216 130.93C89.3434 131.505 90.5661 131.343 91.7594 131.343C120.568 131.365 149.37 131.402 178.179 131.343C183.055 131.335 187.953 131.88 192.806 130.93C193.648 130.945 194.49 130.96 195.332 130.982C196.504 131.49 197.668 131.519 198.832 130.96C199.688 130.761 199.842 130.061 199.945 129.355C200.97 122.205 205.362 118.347 212.142 117.11C213.928 116.786 213.84 115.896 213.848 114.644C213.913 90.148 213.965 65.652 214.097 41.1561C214.111 39.1093 213.452 38.5129 211.483 38.1374C205.472 36.9962 201.724 33.2117 200.545 27.1669C200.135 25.0685 199.403 24.4647 197.265 24.4721C176.326 24.5457 155.388 24.4942 134.457 24.4721C103.598 24.4427 72.7316 24.4279 41.8728 24.3396C39.8815 24.3396 39.1274 24.8402 38.8126 26.9165C37.9487 32.6595 33.351 37.3422 27.6844 38.0711C25.3928 38.3656 24.9975 39.1829 25.0048 41.2666C25.0414 51.5523 24.9169 61.8381 24.8511 72.1313C23.9066 72.9044 25.4367 74.6641 23.6797 75.1058C23.6797 74.0014 23.6577 72.897 23.6577 71.7999C23.6431 60.3803 23.6284 48.9607 23.6138 37.541C24.0018 36.9741 24.6021 36.9446 25.2098 36.9078C33.0947 36.3998 37.773 31.3489 37.729 23.3898C38.8126 23.272 39.9034 23.0584 40.987 23.0584C79.8186 23.0658 118.657 23.11 157.489 23.11C171.897 23.11 186.298 23.0364 200.706 22.9922C201.284 23.1394 201.416 23.5739 201.497 24.104C202.968 33.2927 206.373 36.5176 215.217 37.0992C215.488 38.0049 214.763 39.043 215.561 39.8824C215.597 40.199 215.627 40.5082 215.663 40.8248V40.95C215.341 41.9145 215.37 42.8716 215.766 43.8067L215.663 43.9466L215.751 44.0939C215.656 44.1675 215.575 44.2559 215.51 44.3516C214.931 46.6267 215.239 48.9533 215.305 51.2358C215.517 58.3482 214.792 65.468 215.531 72.573C215.89 72.8749 215.883 73.162 215.517 73.4418C215.012 80.8709 215.085 88.2999 215.429 95.7289C215.385 96.1486 215.341 96.5609 215.297 96.9806C215.268 100.353 215.239 103.725 215.217 107.104C215.209 110.359 215.173 113.613 215.195 116.867C215.195 117.964 214.902 118.414 213.665 118.487C206.892 118.877 202.851 122.588 201.262 129.134C200.955 131.549 199.579 132.292 197.236 132.094C195.186 131.917 193.099 132.138 191.027 132.175C188.099 132.204 185.156 131.88 182.242 132.41C182.103 132.513 181.964 132.602 181.817 132.683H181.598C181.268 132.602 180.939 132.521 180.609 132.447C179.95 132.108 179.284 131.792 178.611 132.432C177.893 132.903 177.176 132.719 176.466 132.432C174.159 131.924 171.853 132.02 169.54 132.388C169.042 132.388 168.544 132.381 168.054 132.373C162.123 132.086 156.193 131.836 150.263 132.462C149.773 132.432 149.289 132.41 148.806 132.381C147.108 132.035 145.402 132.042 143.696 132.381C143.557 132.476 143.418 132.565 143.286 132.661H143.118L143.103 132.638Z" fill="#375646"/>
<path d="M200.685 22.9851C186.276 23.0293 171.876 23.1029 157.468 23.1029C118.636 23.1029 79.7971 23.0587 40.9655 23.0514C39.882 23.0514 38.7911 23.2649 37.7076 23.3827C37.6563 22.6906 37.7368 21.947 37.5172 21.3064C37.0633 19.959 37.6417 19.8707 38.7984 19.7381C41.7781 19.3774 44.7359 19.8633 47.701 19.8265C55.9813 19.7161 64.3055 19.5393 72.5418 19.9149C77.3299 20.1357 82.2717 19.3037 87.067 20.7395C88.6631 21.2181 90.6324 20.8794 92.3236 20.4597C95.1496 19.7602 97.8951 20.1505 100.662 20.5186C101.519 20.629 102.244 20.4818 102.939 20.0253C103.554 19.6277 104.448 19.208 104.901 19.6645C107.2 21.947 109.66 20.364 111.922 19.9222C114.324 19.451 116.33 21.0634 118.753 20.4965C123.175 19.4657 127.707 21.38 132.356 19.9664C133.974 19.4731 136.741 21.1076 139.165 20.6438C144.172 19.6792 149.158 19.9517 154.114 21.0634C154.495 21.1518 154.956 21.277 155.293 21.1518C160.425 19.2743 165.675 20.1063 170.931 20.2314C180.354 20.4671 189.783 20.4155 199.213 20.4155C200.07 20.4155 200.758 20.3713 201.365 21.0634C202.31 22.1384 200.458 22.1973 200.699 23.0072L200.685 22.9851Z" fill="#D7E3D8"/>
<path d="M23.5923 37.5262C23.6069 48.9458 23.6216 60.3655 23.6362 71.7851C23.6362 72.8895 23.6509 73.9939 23.6582 75.091C23.4752 75.5033 23.2555 75.9156 23.6509 76.3279C23.6289 77.3293 23.6143 78.3306 23.5923 79.3319C23.5484 82.5053 23.4825 85.6786 23.4678 88.852C23.4459 97.7609 23.4312 106.67 23.4678 115.571C23.4678 116.632 22.8675 118.104 24.6905 118.443C21.374 118.664 20.1074 117.655 20.5174 114.519C20.8102 112.28 20.2319 109.784 20.9786 107.929C22.0914 105.168 21.7766 102.068 21.2568 100.029C20.3124 96.3105 21.8425 92.7395 20.6638 89.1097C20.0708 87.2911 21.0445 84.9497 21.3081 82.844C21.5497 80.8487 19.8146 78.846 21.3154 76.8507C21.967 76.2838 21.9084 75.7168 21.3008 75.1646C20.8908 70.4893 21.0958 65.8213 21.1251 61.1386C21.1617 55.8742 21.3374 50.6172 21.535 45.3675C21.579 44.1821 21.7913 42.9967 21.9231 41.8113C22.15 41.6935 22.3697 41.5831 22.5966 41.4653C22.4941 41.3548 22.3843 41.2517 22.2818 41.1413C22.1647 41.3622 22.0475 41.5904 21.9304 41.8113C21.0811 40.8762 21.4325 39.7203 21.33 38.638C21.1031 36.2303 22.3111 36.8194 23.585 37.5115L23.5923 37.5262Z" fill="#D7E3D8"/>
<path d="M18.3066 7.30975C19.9978 5.23345 22.2894 4.85059 24.7859 4.85059C65.1989 4.89476 105.612 4.93892 146.025 4.94628C168.486 4.94628 190.955 4.89475 213.416 4.8653C214.302 4.8653 215.188 4.8653 216.191 4.8653C215.635 5.98444 214.807 5.53532 214.178 5.53532C177.572 5.57213 140.973 5.42487 104.367 5.66784C89.2417 5.77092 74.1088 5.86663 58.9832 5.91817C48.3967 5.95499 37.803 5.95499 27.2165 5.94026C24.2002 5.94026 21.2058 5.94027 18.4457 7.42018L18.3066 7.30238V7.30975Z" fill="#B7AC89"/>
<path d="M186.841 150.044C168.289 150.096 149.737 150.177 131.185 150.199C95.9849 150.243 60.7846 150.258 25.577 150.265C23.7175 150.265 21.8066 150.53 19.4126 149.625C24.1933 149.625 28.3444 149.625 32.4956 149.625C83.0411 149.617 133.587 149.603 184.132 149.603C185.033 149.603 185.933 149.676 186.834 149.72C186.834 149.831 186.834 149.941 186.834 150.052L186.841 150.044Z" fill="#B7AC89"/>
<path d="M23.651 76.3355C23.2556 75.9158 23.4753 75.5109 23.6583 75.0986C25.4227 74.6568 23.8853 72.8971 24.8297 72.124C24.8663 72.6247 24.9322 73.1253 24.9249 73.626C24.8809 87.1072 24.859 100.588 24.7272 114.062C24.7052 116.021 25.0786 116.956 27.2457 117.11C28.9881 117.228 30.7672 117.832 32.1289 119.143C31.8873 119.422 31.6384 119.702 31.3968 119.975C29.1785 119.371 27.1212 118.06 24.6833 118.458C22.8603 118.119 23.468 116.639 23.4606 115.586C23.424 106.677 23.4387 97.7685 23.4606 88.8669C23.468 85.6936 23.5412 82.5202 23.5851 79.3469C24.8004 78.3676 24.7858 77.3663 23.6437 76.3429L23.651 76.3355Z" fill="#757059"/>
<path d="M5.67705 55.7568C5.68438 77.3076 5.69902 98.8511 5.70634 120.402C5.70634 125.703 5.70634 131.004 5.22314 136.305C5.22314 109.453 5.22314 82.6088 5.22314 55.7568H5.4501H5.67705Z" fill="#B0A480"/>
<path d="M232.598 99.3224C232.568 80.7977 232.539 62.273 232.517 43.7557C232.51 35.7155 232.517 27.6827 232.517 19.4512C233.388 19.9813 233.183 20.6071 233.183 21.0931C233.176 46.8701 233.139 72.6471 233.11 98.4241C233.11 98.726 233.059 99.0279 233.03 99.3224C232.883 99.3224 232.744 99.3224 232.598 99.3224Z" fill="#B0A480"/>
<path d="M5.67705 55.7569H5.4501H5.22314C5.23047 43.9397 5.23778 32.1224 5.25975 20.2978C5.25975 19.7088 5.23046 19.0683 6.33596 18.6191C6.33596 24.4504 6.33596 30.1198 6.33596 35.7891C6.29204 35.9732 6.28472 36.1646 6.32865 36.356C5.8967 42.8132 6.57024 49.3072 5.68438 55.7496L5.67705 55.7569Z" fill="#B7AC89"/>
<path d="M230.672 139.199C231.741 137.306 232.027 135.289 232.027 133.11C232.012 124.046 232.114 114.983 232.195 105.912C232.195 105.323 232.378 104.734 232.48 104.145C232.656 104.145 232.839 104.145 233.015 104.159C233.015 114.224 233.059 124.289 232.949 134.354C232.927 136.187 232.81 138.242 230.994 139.508C230.884 139.405 230.782 139.302 230.672 139.199Z" fill="#B7AC89"/>
<path d="M150.249 132.44C156.179 131.814 162.109 132.064 168.04 132.352C165.931 132.006 166.107 133.898 165.594 135.091C164.049 134.833 166.07 131.998 163.566 132.587C161.729 133.022 163.632 134.317 162.71 135.135C161.729 134.303 162.058 131.777 159.386 132.734C157.951 133.25 155.886 131.983 155.798 135.282C155.842 132.764 154.861 132.175 152.899 132.631C152.072 132.823 151.128 132.521 150.242 132.44H150.249Z" fill="#EEE9DD"/>
<path d="M186.84 150.044C186.84 149.934 186.84 149.823 186.84 149.713C196.833 149.624 206.827 149.529 216.813 149.44C216.886 149.521 216.952 149.61 217.025 149.691C216.564 150.169 215.956 150.199 215.356 150.199C205.853 150.155 196.343 150.096 186.84 150.044Z" fill="#B4A986"/>
<path d="M31.4116 119.975C31.6532 119.695 31.9021 119.415 32.1437 119.143C34.7135 121.388 37.0636 123.722 38.0885 127.22C38.4326 128.405 37.598 129.855 38.8939 130.776C39.4356 130.96 39.9701 131.181 40.5265 131.328C41.449 131.578 41.1049 131.865 40.5778 132.175C38.601 132.454 37.3271 132.322 37.2539 129.59C37.1441 125.43 34.2742 122.625 31.4189 119.967L31.4116 119.975Z" fill="#375646"/>
<path d="M24.9684 29.7364C24.5096 28.5535 24.7024 27.5423 25.5467 26.703L25.5101 26.7324C26.4106 25.9741 27.5381 26.3054 28.5557 26.1066L28.5265 26.0771C28.3434 27.3215 28.9364 27.9252 30.9205 27.9915C28.3288 28.3522 26.9158 29.9352 24.9391 29.707L24.9684 29.7438V29.7364Z" fill="#B7AC89"/>
<path d="M227.927 17.7205C227.832 18.4199 227.832 19.1489 227.612 19.8041C227.188 21.0853 226.163 21.5491 224.991 21.0411C223.739 20.4962 224.362 19.4065 224.852 18.7512C225.723 17.5953 225.723 14.9521 228.352 16.3657C227.737 16.6676 227.956 17.2345 227.927 17.7131V17.7205Z" fill="#D7E3D8"/>
<path d="M209.052 129.568C209.609 128.515 207.171 128.619 208.181 127.801C209.206 126.977 210.004 124.363 212.091 126.542L212.142 126.594C212.164 127.602 213.233 127.558 213.731 128.147C212.098 128.449 211.3 131.129 209.14 129.642L209.06 129.561L209.052 129.568Z" fill="#D7E3D8"/>
<path d="M22.1282 13.7079C21.8061 12.5372 19.0899 10.9689 22.4064 10.2032C23.5778 9.93079 24.2221 10.91 24.1562 12.0513C24.083 13.3103 23.5778 14.481 22.1136 14.5178C20.5761 14.5472 21.6963 14.076 22.1282 13.7079Z" fill="#B7AC89"/>
<path d="M8.69336 137.468C9.22781 137.748 9.76957 138.028 10.3113 138.308C10.8311 138.558 11.534 138.985 11.8634 138.418C12.0758 138.043 11.2338 137.917 10.8458 137.711C10.736 137.225 10.6262 136.739 10.5163 136.246L10.487 136.261C12.1856 137.601 12.4931 135.451 13.4961 135.053L13.518 135.031C14.6675 136.062 15.1799 137.085 13.4961 138.087C13.3936 137.932 13.518 137.417 13.0641 137.822C13.2179 137.903 13.3716 137.976 13.5253 138.057C11.5633 139.964 10.1796 139.795 8.69336 137.461V137.468ZM13.7523 136.681L13.8621 136.518L13.7011 136.489L13.7523 136.681Z" fill="#B7AC89"/>
<path d="M118.373 132.344C122.07 132.006 125.76 131.976 129.45 132.337C128.783 132.528 128 133.044 127.473 132.86C125.233 132.065 124.061 132.735 123.878 135.415C123.205 133.758 123.336 130.666 120.796 133.78C120.364 132.654 119.354 132.528 118.365 132.352L118.373 132.344Z" fill="#EEE9DD"/>
<path d="M191.014 132.168C193.086 132.124 195.172 131.903 197.222 132.087C199.565 132.286 200.941 131.542 201.249 129.127C201.249 131.108 201.622 133.147 200.451 135.098C200.348 133.191 200.129 132.146 197.742 132.646C195.567 133.096 193.203 132.61 190.926 132.529C190.999 132.418 191.028 132.3 191.014 132.168Z" fill="#757059"/>
<path d="M108.745 132.344C111.461 132.13 114.185 131.828 116.901 132.373C114.661 131.983 114.888 133.986 114.375 135.164C112.75 134.884 115.363 132.329 112.757 132.55C110.663 132.727 112.245 134.236 111.725 135.245C110.385 134.449 110.956 131.777 108.745 132.344Z" fill="#A2966F"/>
<path d="M40.5706 132.182C41.0977 131.865 41.4418 131.585 40.5193 131.335C39.9629 131.188 39.4285 130.967 38.8867 130.775C42.4521 130.827 46.0249 130.871 49.5903 130.923C48.6459 131.534 47.2914 131.026 46.5008 132.079C44.524 132.115 42.54 132.152 40.5633 132.182H40.5706Z" fill="#757059"/>
<path d="M191.014 132.167C191.029 132.3 190.999 132.417 190.926 132.528C189.469 132.439 188.012 133.051 186.548 132.565C186.46 132.535 186.343 132.587 186.255 132.557C183.986 131.909 186.489 135.841 184.366 134.663C183.846 134.376 184.044 132.255 182.229 132.403C185.15 131.873 188.093 132.196 191.021 132.167H191.014Z" fill="#EEE9DD"/>
<path d="M169.525 132.367C171.839 132.006 174.145 131.903 176.451 132.411C174.994 132.558 175.456 133.891 174.914 135.017C174.775 132.794 174.306 131.652 172.161 133.316C171.509 133.824 170.704 131.954 169.518 132.367H169.525Z" fill="#EEE9DD"/>
<path d="M18.4453 7.42738C18.0793 8.56861 17.5448 9.68038 17.3838 10.8511C17.23 11.9628 17.4716 13.1335 17.3398 14.2674C16.2051 11.7567 16.1026 9.37851 18.3062 7.30957L18.4453 7.42738Z" fill="#B7AC89"/>
<path d="M17.7135 139.876C16.7471 142.46 16.608 145.008 17.9917 147.504C17.8673 147.614 17.7501 147.732 17.633 147.857C15.5391 144.942 15.5611 142.865 17.7208 139.898L17.7062 139.876H17.7135Z" fill="#B7AC89"/>
<path d="M227.927 17.7204C227.956 17.2345 227.737 16.6676 228.352 16.373C230.314 18.0076 230.98 19.8041 229.018 21.9098C228.93 21.7994 228.842 21.6889 228.754 21.5785C229.142 20.1501 229.75 18.6702 227.927 17.7204Z" fill="#B7AC89"/>
<path d="M143.682 132.359C145.387 132.013 147.086 132.013 148.792 132.359C148.089 132.852 146.024 131.991 147.042 134.192C147.269 134.686 146.991 135.209 146.376 135.223C145.761 135.238 145.497 134.745 145.673 134.222C146.39 132.065 144.494 132.823 143.682 132.367V132.359Z" fill="#EEE9DD"/>
<path d="M131.067 132.403C133.762 131.865 136.463 132.153 139.157 132.307C136.47 133.412 133.762 132.484 131.067 132.403Z" fill="#EEE9DD"/>
<path d="M221.799 133.89C221.755 135.665 221.587 137.439 221.726 139.213C220.423 137.454 220.071 135.657 221.704 133.787L221.806 133.89H221.799Z" fill="#D7E3D8"/>
<path d="M220.613 140.414C222.136 142.483 222.165 144.596 220.774 146.746C220.649 146.643 220.525 146.54 220.4 146.429C220.796 144.515 220.971 142.601 220.349 140.694C220.437 140.605 220.525 140.51 220.613 140.421V140.414Z" fill="#B7AC89"/>
<path d="M220.481 15.1288C220.833 13.3986 221.572 11.7273 220.855 9.35645C223.161 11.5137 221.067 13.4796 221.74 15.2025L221.777 15.1657C221.367 15.173 220.964 15.1877 220.554 15.1951L220.481 15.1215V15.1288Z" fill="#B7AC89"/>
<path d="M18.9434 139.301C20.6638 137.417 22.3257 138.226 23.973 139.441C22.2965 139.132 20.6199 139.022 18.9287 139.279L18.9507 139.301H18.9434Z" fill="#B7AC89"/>
<path d="M9.36029 21.1885C10.744 22.1088 12.113 23.0881 13.9141 22.8598C14.0239 22.9703 14.1264 23.0734 14.2362 23.1838C12.0252 24.0158 10.0778 24.1483 9.19922 21.3284L9.36029 21.1958V21.1885Z" fill="#B7AC89"/>
<path d="M22.5166 144.721C21.7259 146.12 20.9206 144.603 20.1225 144.728L20.1372 144.75C20.1372 143.933 20.1372 143.116 20.1372 142.291L20.1006 142.328C20.5618 142.873 23.3219 141.319 21.5648 143.977C21.272 144.419 22.1139 144.596 22.5385 144.758L22.5093 144.728L22.5166 144.721Z" fill="#B7AC89"/>
<path d="M99.1177 132.381C101.277 131.858 103.466 132.227 105.641 132.212L105.612 132.484C104.638 131.741 106.402 135.503 104.323 133.243C102.954 131.748 100.772 133.272 99.125 132.389L99.1177 132.381Z" fill="#AA9E7A"/>
<path d="M16.6522 15.6592C17.7723 17.5514 18.175 19.4215 16.5131 21.2475C16.5131 19.5099 16.8206 17.7576 16.2642 16.042C16.3959 15.9169 16.5204 15.7917 16.6449 15.6592H16.6522Z" fill="#B7AC89"/>
<path d="M227.919 22.6388C226.396 24.0304 224.918 23.6181 222.721 22.1455C224.881 22.4768 226.301 22.6977 227.707 22.3811C227.78 22.4695 227.846 22.5504 227.919 22.6388Z" fill="#B7AC89"/>
<path d="M14.2653 141.297C12.8449 142.158 11.3953 142.497 9.82861 141.297C11.2343 141.208 12.6399 141.113 14.0456 141.024C14.1188 141.113 14.192 141.208 14.2653 141.297Z" fill="#B7AC89"/>
<path d="M20.1226 144.728C19.7785 145.523 20.496 145.943 20.7596 146.517L20.6058 146.679C18.3948 145.655 17.8604 144.153 19.288 142.077C19.3905 142.18 19.493 142.283 19.5955 142.379C19.5955 143.204 19.0757 144.153 20.13 144.742L20.1153 144.72L20.1226 144.728Z" fill="#B7AC89"/>
<path d="M214.895 10.6158C215.957 9.79115 216.799 9.68806 217.348 10.6968C217.728 11.3889 217.867 12.5816 216.879 12.6258C215.129 12.7068 217.077 11.8969 216.755 11.3815C216.264 10.5863 215.422 11.2122 214.888 10.6158H214.895Z" fill="#B7AC89"/>
<path d="M25.3936 14.4515C25.54 13.1925 25.6937 11.9334 25.8768 10.3799C27.1872 12.0586 26.7553 13.4428 25.8255 14.827C25.6864 14.7018 25.54 14.5767 25.3936 14.4515Z" fill="#B7AC89"/>
<path d="M24.72 9.3782C23.8268 9.05424 22.9336 8.73026 21.7476 8.30322C23.263 7.72893 24.2368 8.07499 25.086 9.01007C24.9616 9.12787 24.8444 9.25304 24.72 9.3782Z" fill="#B7AC89"/>
<path d="M215.115 16.4175C216.703 16.4249 218.219 16.042 219.72 15.5781C219.815 15.6738 219.91 15.7696 220.013 15.8653C218.504 17.1464 216.894 17.4556 215.137 16.3954L215.122 16.4175H215.115Z" fill="#B7AC89"/>
<path d="M222.963 132.631C224.098 131.976 225.21 131.136 226.572 132.602C225.357 132.602 224.149 132.602 222.934 132.602L222.963 132.631Z" fill="#B7AC89"/>
<path d="M232.598 99.3216C232.744 99.3216 232.883 99.3143 233.03 99.3216C233.03 100.338 233.03 101.361 233.022 102.377C232.861 102.392 232.7 102.392 232.539 102.392C232.151 101.361 232.078 100.338 232.605 99.329L232.598 99.3216Z" fill="#B7AC89"/>
<path d="M20.7665 146.518C21.916 146.488 23.0581 146.451 24.2075 146.422L24.3759 146.577C23.1532 147.674 21.9086 148.056 20.6128 146.687L20.7665 146.525V146.518Z" fill="#B7AC89"/>
<path d="M23.1306 141.717C24.5436 143.05 24.7779 144.147 22.5156 144.714L22.5449 144.743C23.321 143.837 23.2551 142.77 23.1526 141.688L23.1306 141.71V141.717Z" fill="#B7AC89"/>
<path d="M19.9028 141.467C21.0669 140.436 22.1797 140.105 23.1388 141.717L23.1608 141.695C22.1724 141.717 21.1914 141.747 20.203 141.769C20.1005 141.666 20.0053 141.57 19.9028 141.467Z" fill="#B7AC89"/>
<path d="M223.966 138.264C223.117 137.344 222.619 136.394 223.842 135.039C224.01 136.173 224.142 137.064 224.274 137.962C224.171 138.065 224.069 138.168 223.966 138.271V138.264Z" fill="#B7AC89"/>
<path d="M10.5171 135.664C11.176 133.809 12.0472 132.947 13.5188 135.038L13.4968 135.06C12.3767 134.67 11.381 134.906 10.4805 135.649L10.5171 135.672V135.664Z" fill="#B7AC89"/>
<path d="M143.104 132.638H143.272C143.426 133.375 143.58 134.111 143.792 135.105C142.284 134.398 143.001 133.441 143.104 132.631V132.638Z" fill="#A2966F"/>
<path d="M14.9314 14.5984C13.3207 14.2303 12.3836 14.0094 10.7803 13.6412C12.4568 13.4866 13.4525 13.2436 14.9314 14.5984Z" fill="#B7AC89"/>
<path d="M230.357 140.083C229.845 140.804 229.325 141.504 228.198 141.106C228.586 140.23 229.391 140.097 230.072 139.788C230.167 139.891 230.262 139.987 230.357 140.09V140.083Z" fill="#B7AC89"/>
<path d="M9.19163 21.3285C8.5254 20.445 7.92506 19.5541 8.98663 18.2656C9.12574 19.3627 9.23556 20.2757 9.35269 21.1886L9.19163 21.3212V21.3285Z" fill="#B7AC89"/>
<path d="M229.091 133.721C229.955 134.707 230.189 135.76 229.244 137.365C229.047 136.011 228.908 135.039 228.761 134.067C228.871 133.949 228.981 133.831 229.091 133.721Z" fill="#B7AC89"/>
<path d="M224.164 13.9876C225.269 13.1188 226.47 13.3103 227.707 13.9656H224.149L224.171 13.9876H224.164Z" fill="#B7AC89"/>
<path d="M237.942 90.9288C237.02 90.2809 237.342 89.2943 237.342 88.4402C237.474 66.4329 237.627 44.4182 237.781 22.411C237.781 22.0134 237.847 21.6084 237.884 21.2108C237.152 17.2276 235.885 13.5241 232.598 10.8588C231.229 10.0489 229.926 9.12118 228.227 9.03283C227.041 8.96656 226.25 8.18611 225.723 7.12587C223.461 2.6125 219.354 1.00005 214.8 0.955874C202.186 0.823345 189.571 1.0663 176.957 1.05894C170.258 1.05894 163.552 1.36819 156.853 0.860155C154.62 0.882243 152.394 0.896959 150.161 0.919047C147.335 1.19883 144.502 1.19885 141.669 0.955874C141.09 0.955874 140.519 0.94115 139.941 0.933787C139.297 1.16203 138.66 1.19147 138.023 0.919047C135.643 0.955861 133.271 1.00004 130.892 1.03685C130.467 1.02949 130.05 1.01478 129.625 1.00742C127.436 1.02214 125.24 1.03687 123.051 1.05159C119.222 1.03687 115.4 1.01477 111.571 1.00005C110.993 1.00005 110.422 1.00005 109.843 1.00005C109.411 1.00005 108.987 1.00005 108.562 1.00005C107.383 1.02214 106.212 1.03685 105.033 1.05894C104.601 1.05894 104.177 1.05894 103.745 1.05894C100.97 1.02949 98.1881 0.992673 95.4133 0.963222C94.1907 1.27982 92.9607 1.32401 91.7381 0.948504C80.6172 1.15466 69.489 1.33136 58.3754 0.712891C57.9581 1.11048 57.5408 1.03685 57.1235 0.712891C55.8496 1.15466 54.5611 0.985331 53.2726 0.82335C53.0529 0.82335 52.8333 0.80861 52.6137 0.80861C50.0073 1.08103 47.401 1.03686 44.7946 0.742348L44.5091 0.81598L44.2236 0.749718C37.8322 0.749718 31.4408 0.749718 25.0421 0.749718C20.664 0.749718 17.018 2.33271 14.4849 5.992C13.3282 7.66335 11.9518 8.90029 9.9238 8.98128C8.18135 9.04755 7.31013 10.7631 5.68483 10.9324C3.45919 12.0368 3.14438 14.5991 1.6655 16.2704C0.911413 19.2229 0.984622 22.2416 0.969979 25.253C0.91141 40.0448 0.852843 54.8439 0.801595 69.6357C0.786953 69.864 0.764989 70.0996 0.750347 70.3278C0.64785 89.4563 0.538032 108.585 0.435535 127.721C0.486784 127.883 0.552675 128.045 0.567317 128.206C0.567317 128.265 0.46482 128.346 0.40625 128.413C0.435535 130.43 0.508746 132.44 0.479461 134.457C0.391607 139.935 3.46651 144.36 8.59866 145.936C10.2972 146.459 11.5491 147.32 12.5301 148.911C15.0926 153.071 18.8923 155.162 23.8194 155.066C26.0158 155.029 28.2195 155.088 30.4231 155.103C32.4072 155.081 34.3912 155.058 36.3753 155.036C36.7779 155.036 37.1806 155.036 37.5833 155.029C65.5575 154.948 93.5318 154.808 121.506 154.808C151.786 154.808 182.067 154.97 212.34 155.044C213.841 155.044 215.349 154.941 216.85 154.889C219.998 153.549 222.941 151.973 224.581 148.69C225.101 147.652 226.148 147.298 227.261 146.967C233.967 144.957 237.13 140.723 237.181 133.699C237.261 121.418 237.269 109.144 237.371 96.8632C237.379 95.6336 236.844 94.2568 237.928 93.1671C237.928 92.4235 237.942 91.6798 237.95 90.9362L237.942 90.9288ZM231.705 16.4545C231.705 16.4545 231.946 16.7196 232.071 16.8594C232.378 17.073 232.686 17.4853 232.356 17.6914C231.924 17.9565 231.983 17.338 231.822 17.1024C231.529 16.9257 231.324 16.7343 231.705 16.4545ZM229.691 14.4592C230.167 14.5328 230.606 14.6653 230.819 15.1586C230.892 15.2985 230.965 15.4311 231.031 15.571C230.885 15.5047 230.738 15.4384 230.592 15.3795C230.233 15.1366 229.874 14.8862 229.516 14.6432C229.384 14.5475 229.252 14.4445 229.12 14.3487C229.384 14.0174 229.545 14.2236 229.691 14.4665V14.4592ZM227.7 13.9732H224.186C225.284 13.1265 226.477 13.3253 227.7 13.9732ZM223.93 14.069C223.981 14.0321 224.047 14.0174 224.113 14.0027C224.039 14.0837 223.966 14.1647 223.893 14.2383C223.908 14.1794 223.893 14.091 223.937 14.069H223.93ZM222.48 14.9672C222.48 14.9672 222.597 14.9525 222.663 14.9451C222.575 15.004 222.48 15.0703 222.392 15.1292C222.414 15.0703 222.443 15.0114 222.487 14.9672H222.48ZM221.916 16.3367C221.265 16.2557 221.85 15.6151 221.777 15.2102C221.96 15.2102 222.15 15.2102 222.333 15.2102C222.377 15.6814 222.377 16.4029 221.916 16.344V16.3367ZM220.833 8.06831C220.891 8.13457 221.001 8.2082 220.994 8.27446C220.994 8.34073 220.877 8.39961 220.811 8.46588C220.752 8.39961 220.642 8.32599 220.65 8.25972C220.65 8.19346 220.767 8.13457 220.833 8.06831ZM220.481 15.1292C220.825 13.3916 221.572 11.7276 220.847 9.35679C223.139 11.4994 221.082 13.4578 221.718 15.1734C221.33 15.1807 220.935 15.1955 220.547 15.2028C220.371 15.4237 220.188 15.6372 220.013 15.8581C218.519 17.1245 216.916 17.4411 215.173 16.4103C216.74 16.4103 218.241 16.0348 219.72 15.571C219.976 15.4237 220.225 15.2764 220.481 15.1292ZM217.443 88.396C217.685 88.8967 217.245 88.8378 217.018 88.9409C217.157 88.7568 217.296 88.5727 217.443 88.396ZM215.503 73.4496C214.998 80.8713 215.071 88.3003 215.415 95.722C215.371 96.1417 215.327 96.554 215.283 96.9737C215.254 100.346 215.225 103.718 215.203 107.097C215.195 110.352 215.159 113.606 215.181 116.86C215.181 117.958 214.888 118.407 213.651 118.48C206.878 118.87 202.837 122.581 201.248 129.127C201.248 131.107 201.622 133.147 200.45 135.098C200.348 133.191 200.128 132.146 197.742 132.646C195.567 133.095 193.202 132.609 190.926 132.528C189.469 132.44 188.012 133.051 186.548 132.565C186.46 132.536 186.343 132.587 186.255 132.558C183.985 131.91 186.489 135.842 184.358 134.664C183.839 134.376 184.036 132.256 182.213 132.403C182.089 132.499 181.942 132.595 181.796 132.676C181.716 133.051 181.65 133.434 181.54 133.802C181.54 133.824 181.24 133.765 181.079 133.743C181.247 133.39 181.415 133.029 181.584 132.676C181.254 132.595 180.925 132.514 180.595 132.44C179.929 132.44 179.263 132.433 178.597 132.425C177.879 132.897 177.162 132.713 176.452 132.418C175.002 132.573 175.463 133.898 174.921 135.024C174.782 132.801 174.314 131.66 172.169 133.324C171.517 133.832 170.712 131.962 169.526 132.374C169.028 132.374 168.53 132.366 168.032 132.359C165.924 132.013 166.099 133.905 165.594 135.098C164.049 134.84 166.07 132.006 163.566 132.595C161.729 133.022 163.632 134.325 162.71 135.142C161.729 134.31 162.058 131.785 159.386 132.742C157.951 133.257 155.886 131.991 155.799 135.289C155.842 132.771 154.861 132.182 152.899 132.639C152.072 132.83 151.128 132.528 150.242 132.447C149.751 132.418 149.268 132.396 148.777 132.366C148.082 132.86 146.017 131.998 147.028 134.2C147.255 134.693 146.976 135.216 146.361 135.231C145.747 135.245 145.483 134.752 145.659 134.229C146.376 132.072 144.48 132.83 143.667 132.374C143.528 132.47 143.389 132.558 143.257 132.654C143.411 133.39 143.572 134.126 143.777 135.12C142.269 134.413 142.986 133.456 143.089 132.646C142.752 132.565 142.423 132.484 142.086 132.396C141.588 132.683 141.09 132.69 140.607 132.366C140.117 132.352 139.626 132.33 139.135 132.315C136.449 133.419 133.747 132.492 131.046 132.411C130.892 132.462 130.731 132.514 130.57 132.565L130.592 133.051C130.562 132.889 130.533 132.727 130.504 132.565C130.145 132.492 129.786 132.425 129.428 132.352C128.761 132.543 127.985 133.059 127.458 132.874C125.218 132.079 124.047 132.749 123.863 135.429C123.19 133.773 123.322 130.68 120.781 133.795C120.349 132.668 119.339 132.543 118.351 132.366C117.86 132.374 117.362 132.381 116.872 132.389C114.631 132.006 114.866 134.001 114.353 135.179C112.728 134.899 115.342 132.344 112.735 132.565C110.641 132.742 112.223 134.251 111.703 135.26C110.363 134.465 110.934 131.792 108.723 132.359C108.225 132.322 107.728 132.293 107.23 132.256C106.739 132.735 106.154 132.565 105.582 132.499C104.609 131.755 106.373 135.518 104.294 133.257C102.925 131.763 100.743 133.287 99.0959 132.403C98.6054 132.403 98.1075 132.403 97.617 132.396C97.1045 132.735 96.5921 132.735 96.0723 132.403C95.5817 132.418 95.0985 132.433 94.608 132.447C93.8905 132.447 93.1657 132.462 92.4482 132.469C87.7041 132.403 82.9673 132.308 78.2232 132.285C70.3895 132.249 62.5485 132.285 54.7148 132.256C51.9694 132.249 49.2313 132.153 46.4858 132.094C44.5091 132.131 42.5251 132.168 40.5483 132.197C38.5716 132.477 37.2977 132.337 37.2245 129.613C37.1147 125.453 34.2448 122.648 31.3895 119.99C29.1712 119.386 27.114 118.075 24.676 118.473C21.3595 118.694 20.0929 117.685 20.5029 114.549C20.7958 112.31 20.2174 109.814 20.9642 107.959C22.077 105.198 21.7622 102.098 21.2424 100.059C20.2979 96.3405 21.8281 92.7695 20.6493 89.1397C20.0563 87.3211 21.03 84.9797 21.2936 82.8739C21.5352 80.8786 19.8001 78.876 21.3009 76.8807C20.7079 76.3211 20.6713 75.7615 21.2863 75.1946C20.8763 70.5192 21.0813 65.8513 21.1106 61.1685C21.1472 55.9042 21.3229 50.6471 21.5206 45.3975C21.5645 44.2121 21.7768 43.0267 21.9086 41.8413C21.0667 40.9062 21.4107 39.7503 21.3156 38.6753C21.0886 36.2677 22.2966 36.8567 23.5705 37.5488C23.9585 36.9819 24.5589 36.9524 25.1665 36.9156C33.0514 36.4076 37.7297 31.3567 37.6858 23.3976C37.6345 22.7055 37.715 21.9618 37.4954 21.3213C37.0415 19.9739 37.6199 19.8855 38.7766 19.7456C41.7563 19.3849 44.7141 19.8708 47.6792 19.834C55.9594 19.7235 64.2836 19.5468 72.52 19.9223C77.308 20.1432 82.2498 19.3112 87.0452 20.747C88.6412 21.2256 90.6106 20.8869 92.3018 20.4672C95.1278 19.7677 97.8733 20.1579 100.641 20.5261C101.497 20.6365 102.222 20.4893 102.918 20.0328C103.533 19.6352 104.426 19.2155 104.88 19.672C107.178 21.9545 109.638 20.3715 111.901 19.9297C114.302 19.4585 116.308 21.0709 118.731 20.504C123.153 19.4732 127.685 21.3875 132.334 19.9739C133.952 19.4806 136.719 21.1151 139.143 20.6513C144.15 19.6867 149.136 19.9592 154.093 21.0709C154.473 21.1593 154.935 21.2845 155.271 21.1593C160.404 19.2818 165.653 20.1138 170.909 20.239C180.332 20.4746 189.762 20.423 199.191 20.423C200.048 20.423 200.736 20.3788 201.344 21.0709C202.288 22.1459 200.436 22.2048 200.677 23.0147C201.256 23.162 201.388 23.5964 201.468 24.1265C202.94 33.3152 206.344 36.5327 215.188 37.1218C215.459 38.0274 214.734 39.0582 215.532 39.9049C215.569 40.2215 215.598 40.5307 215.635 40.8473V40.9725C215.312 41.937 215.342 42.8942 215.737 43.8292L215.635 43.9691L215.722 44.1164C215.627 44.19 215.547 44.2784 215.481 44.3741C214.902 46.6492 215.21 48.9684 215.276 51.2509C215.488 58.3633 214.763 65.4831 215.503 72.5882C215.862 72.8901 215.854 73.1772 215.481 73.4644C215.481 73.4644 215.481 73.4644 215.481 73.4717L215.503 73.4496ZM208.182 127.802C209.207 126.977 210.005 124.363 212.091 126.542C212.303 126.285 212.508 126.034 212.721 125.777C212.779 125.836 212.845 125.902 212.904 125.961C212.648 126.174 212.399 126.381 212.142 126.594C212.164 127.603 213.233 127.559 213.731 128.155C212.098 128.457 211.3 131.137 209.141 129.65L208.943 129.76L209.053 129.561C209.609 128.508 207.171 128.611 208.182 127.794V127.802ZM208.123 125.32H208.291L208.204 125.482L208.123 125.32ZM25.4374 140.819C25.3715 140.878 25.3056 140.944 25.2397 141.003C25.1812 140.929 25.0787 140.856 25.0787 140.789C25.0787 140.723 25.1958 140.664 25.269 140.605C25.3276 140.679 25.3861 140.745 25.4447 140.819H25.4374ZM18.7751 15.9464C18.6946 15.8139 18.6214 15.674 18.5482 15.5415C18.6799 15.6225 18.8117 15.7035 18.9435 15.7845C19.0314 15.9023 19.1192 16.0201 19.2071 16.1379C19.0606 16.0716 18.9142 16.0127 18.7751 15.9464ZM18.9142 139.302C18.6799 139.81 18.27 139.972 17.7355 139.884C17.9698 139.368 18.4017 139.251 18.9142 139.302ZM23.9658 139.435C22.3039 139.133 20.642 139.022 18.9655 139.273C20.6786 137.425 22.3259 138.227 23.9658 139.435ZM30.921 27.9919C28.3366 28.3527 26.9309 29.9283 24.9542 29.7075C24.2807 27.9698 24.288 27.9551 25.5326 26.7182C26.4258 25.9819 27.5239 26.2985 28.5269 26.1144C28.3659 27.3366 28.9589 27.933 30.921 27.9919ZM29.2957 25.415C29.3908 25.3561 29.4787 25.3045 29.5739 25.2456C29.5226 25.2898 29.4714 25.3487 29.4128 25.3781C29.3762 25.3929 29.3396 25.4002 29.2957 25.415ZM24.3685 25.3708C25.452 25.5843 25.496 26.1218 25.5106 26.6593C25.1958 26.3059 24.8737 25.9451 24.3685 25.3708ZM25.8254 14.8273C25.6351 15.085 25.496 15.6225 25.1079 15.3133C24.7785 15.0482 25.1006 14.6801 25.3935 14.4518C25.5399 13.1928 25.6936 11.9337 25.8767 10.3802C27.1872 12.0589 26.7552 13.4431 25.8254 14.8273ZM24.7199 9.37888C23.8267 9.05491 22.9336 8.73094 21.7475 8.3039C23.263 7.7296 24.2367 8.07567 25.086 9.01074C25.1592 9.20953 25.2324 9.40833 25.3056 9.60712C25.1079 9.53349 24.9176 9.4525 24.7199 9.37888ZM22.4064 10.1961C23.5778 9.92371 24.2221 10.903 24.1562 12.0442C24.083 13.3032 23.5778 14.4739 22.1136 14.5107C20.5761 14.5402 21.6963 14.069 22.1282 13.7008C21.8061 12.5301 19.0899 10.9619 22.4064 10.1961ZM24.1049 16.0274L24.083 16.2041L23.9 16.0937L24.1049 16.0274ZM22.8384 16.6533C21.9745 17.1171 21.3375 17.0803 20.664 16.7564C21.257 16.2483 21.872 16.4177 22.8384 16.6533ZM212.172 27.1305C212.157 26.9464 212.135 26.755 212.113 26.5636C212.135 26.7624 212.157 26.9538 212.172 27.1305C212.252 28.0067 212.23 28.7061 211.608 29.0522C211.454 29.1405 211.315 29.1847 211.183 29.1847C211.315 29.1847 211.454 29.1332 211.608 29.0522C212.23 28.7061 212.245 28.0067 212.172 27.1305ZM210.437 26.8433C210.158 27.0127 209.88 27.1599 209.587 27.2925C209.294 27.425 208.994 27.5502 208.687 27.6753C209.002 27.5502 209.302 27.4324 209.587 27.2925C209.88 27.1599 210.158 27.0127 210.437 26.8433C210.986 26.4973 211.513 26.0555 212.04 25.415C211.52 26.0629 210.993 26.5047 210.437 26.8433ZM210.114 28.4926C210.041 28.4116 209.961 28.3233 209.88 28.2423C209.653 28.014 209.412 27.8079 209.111 27.7195C209.412 27.8079 209.661 28.014 209.88 28.2423C209.961 28.3233 210.034 28.4116 210.114 28.4926ZM214.295 12.9645C214.046 12.6553 213.797 12.1399 214.141 11.9853C214.646 11.7497 214.5 12.3976 214.646 12.6627C215.02 13.0823 215.4 13.5094 215.774 13.9291C216.125 14.0027 216.477 14.0763 216.835 14.1499C216.755 14.2604 216.638 14.4813 216.594 14.4665C216.264 14.3708 215.949 14.2309 215.627 14.1058C214.888 14.0689 214.478 13.6419 214.302 12.9572L214.295 12.9645ZM215.064 16.3735C214.851 16.2999 214.639 16.2336 214.427 16.16C214.485 16.0937 214.58 15.9685 214.588 15.9759C214.749 16.1011 214.902 16.2336 215.064 16.3735ZM215.649 91.0098C215.598 90.8257 215.605 90.6343 215.693 90.4134C215.613 90.6343 215.605 90.8257 215.649 91.0098ZM217.348 10.6968C217.728 11.3889 217.868 12.5817 216.879 12.6259C215.129 12.7068 217.077 11.8969 216.755 11.3815C216.264 10.5864 215.422 11.2122 214.888 10.6158C215.949 9.79119 216.791 9.6881 217.34 10.6968H217.348ZM18.3066 7.30994C19.9978 5.23364 22.2893 4.85078 24.7858 4.85078C65.1988 4.89496 105.612 4.93912 146.025 4.94648C168.486 4.94648 190.955 4.89495 213.416 4.8655C214.302 4.8655 215.188 4.8655 216.191 4.8655C215.635 5.98464 214.807 5.53551 214.178 5.53551C177.572 5.57233 140.973 5.42507 104.367 5.66804C89.2416 5.77112 74.1087 5.86683 58.9831 5.91837C48.3967 5.95518 37.8029 5.95518 27.2164 5.94046C24.2001 5.94046 21.2058 5.94046 18.4457 7.42038C18.0796 8.56161 17.5452 9.67338 17.3841 10.8441C17.2303 11.9558 17.4719 13.1265 17.3402 14.2604C16.2054 11.7497 16.1029 9.37151 18.3066 7.30257V7.30994ZM16.0663 15.0482C16.2639 15.2543 16.4616 15.4532 16.652 15.6593C17.7721 17.5515 18.1675 19.4217 16.5202 21.2403C16.5202 19.5027 16.8277 17.7503 16.2713 16.0422C16.1175 15.7992 15.9565 15.5562 15.8027 15.3133C15.6709 15.1807 15.4147 14.9598 15.4367 14.9378C15.7075 14.5549 15.8906 14.82 16.0663 15.0556V15.0482ZM14.9315 14.5991C13.3208 14.2309 12.3837 14.01 10.7804 13.6419C12.4569 13.4873 13.4526 13.2443 14.9315 14.5991ZM9.36007 14.1499C9.404 14.2309 9.45524 14.3193 9.49917 14.4003C9.2356 14.4592 8.97936 14.5181 8.7158 14.577C8.92811 14.4371 9.14775 14.2898 9.36007 14.1499ZM8.45956 14.7095C8.51813 14.658 8.59866 14.6285 8.6792 14.5917C8.59866 14.6948 8.51813 14.7905 8.4376 14.8936C8.4376 14.8273 8.42295 14.739 8.45956 14.7095ZM8.98669 18.2657C9.12579 19.3628 9.23561 20.2757 9.35275 21.1887C10.7365 22.1091 12.1055 23.0883 13.9065 22.8527C14.1554 22.7055 14.4044 22.5509 14.6533 22.4036C15.034 22.1754 15.4147 21.9471 15.7881 21.7188L16.4909 21.255C16.3079 21.4612 16.1248 21.6673 15.9418 21.8735C15.605 22.1459 15.2756 22.4109 14.9388 22.6834C14.6972 22.8454 14.4556 23.0073 14.214 23.1693C12.003 24.0013 10.0556 24.1338 9.17704 21.3139C8.51081 20.4304 7.91047 19.5395 8.97204 18.251L8.98669 18.2657ZM16.4177 134.752C16.4177 134.818 16.3006 134.877 16.2273 134.943C16.1688 134.87 16.059 134.796 16.0663 134.73C16.0663 134.664 16.1834 134.605 16.2566 134.538C16.3152 134.612 16.425 134.686 16.4177 134.752ZM15.649 133.648L15.4513 133.625L15.5684 133.434L15.649 133.648ZM14.5654 132.948L14.3824 133.007L14.4044 132.845L14.5728 132.948H14.5654ZM9.79934 133.132L9.3381 133.206C9.4406 133.088 9.5431 132.97 9.64559 132.852C9.69684 132.948 9.74809 133.044 9.79934 133.132ZM8.41563 134.612L8.46688 134.789L8.31314 134.767L8.41563 134.612ZM6.78301 16.2925C6.96604 16.2041 7.14174 16.1158 7.32477 16.0274C7.25888 16.2262 7.19299 16.4324 7.1271 16.6312C6.96604 16.9036 6.92943 17.5147 6.48284 17.2055C6.14607 16.9699 6.46087 16.5355 6.78301 16.2925ZM5.22359 136.306V55.7569C5.23092 43.9397 5.23823 32.1224 5.2602 20.3052C5.2602 19.7162 5.23091 19.0756 6.33641 18.6265V35.7965C6.38034 35.929 6.43891 36.0542 6.45355 36.1867C6.45355 36.2382 6.37302 36.3045 6.32177 36.3634C5.88982 42.8205 6.57069 49.3145 5.6775 55.7569C5.68483 77.3077 5.69947 98.8512 5.70679 120.402C5.70679 125.703 5.70679 131.004 5.22359 136.306ZM5.78001 137.785C6.67319 137.97 6.61462 138.728 6.85622 139.251C6.21927 139.044 5.58966 138.824 5.78001 137.785ZM7.82994 140.76C7.62494 140.554 7.41995 140.348 7.21496 140.142C7.11978 139.876 7.03193 139.604 6.93675 139.339C7.14907 139.494 7.36138 139.648 7.5737 139.803C7.78601 139.994 7.991 140.193 8.196 140.384C8.30581 140.561 8.40831 140.738 8.51813 140.915C8.29117 140.863 8.05689 140.812 7.82994 140.753V140.76ZM8.29117 137.086C8.38634 137.02 8.48153 136.961 8.5767 136.895C8.61331 137.086 8.65723 137.27 8.69384 137.461C8.56206 137.336 8.43027 137.211 8.29117 137.086ZM8.70116 137.476C9.23561 137.756 9.77005 138.028 10.3045 138.308C10.4802 138.109 10.6632 137.911 10.8389 137.712C10.7291 137.226 10.6193 136.74 10.5095 136.247C10.4509 136.114 10.3631 135.982 10.3338 135.842C10.3265 135.797 10.4436 135.716 10.5095 135.658C11.1684 133.802 12.0396 132.941 13.5112 135.032C14.6679 136.063 15.1731 137.086 13.4892 138.087L13.5185 138.058C11.5564 139.965 10.1727 139.795 8.69384 137.469L8.70116 137.476ZM15.3561 140.524C14.9974 140.782 14.6313 141.04 14.2726 141.298C12.8523 142.159 11.4027 142.505 9.83594 141.298C11.2416 141.209 12.6473 141.113 14.0529 141.025C14.4117 140.789 14.7777 140.546 15.1365 140.311C15.3708 140.142 15.5977 139.972 15.832 139.803C15.9052 139.162 15.9345 138.507 16.5275 138.073C16.5641 137.682 16.608 137.292 16.6446 136.909C16.7691 136.976 16.9887 137.02 17.0034 137.108C17.0766 137.528 16.9741 137.896 16.5275 138.073C16.5275 138.75 16.6007 139.449 15.9418 139.906C15.7515 140.112 15.5538 140.311 15.3634 140.517L15.3561 140.524ZM18.2187 148.461C18.021 148.263 17.8307 148.056 17.633 147.858C15.5538 144.964 15.5611 142.895 17.6769 139.965C16.7398 142.52 16.6154 145.038 17.9917 147.504C18.1748 147.725 18.3505 147.939 18.5335 148.16C18.6214 148.344 18.7092 148.535 18.7971 148.727C18.6067 148.638 18.4091 148.55 18.2187 148.461ZM19.2949 142.085C19.4999 141.879 19.7049 141.673 19.9026 141.474C21.0666 140.436 22.1721 140.112 23.1312 141.725C24.5442 143.057 24.7785 144.154 22.5162 144.721C21.7256 146.12 20.9202 144.603 20.1222 144.729C19.7781 145.524 20.4956 145.943 20.7592 146.518C21.9086 146.488 23.0507 146.451 24.2001 146.422C24.3685 146.186 24.5369 145.951 24.7053 145.715C24.9396 145.347 25.1738 144.986 25.4081 144.618C25.6278 143.83 25.2178 142.917 25.884 142.144C26.3745 143.131 26.2574 144.036 25.7742 144.927C25.5106 145.288 25.2544 145.649 24.9908 146.01C24.7785 146.194 24.5735 146.385 24.3612 146.569C23.1385 147.666 21.8939 148.049 20.5981 146.672C18.3871 145.656 17.8526 144.147 19.2803 142.078L19.2949 142.085ZM218.314 149.124C217.89 149.316 217.458 149.5 217.033 149.691C216.572 150.177 215.964 150.199 215.364 150.199C205.861 150.155 196.351 150.096 186.848 150.044C168.296 150.096 149.744 150.177 131.192 150.199C95.9917 150.243 60.7914 150.258 25.5838 150.265C23.7242 150.265 21.8134 150.53 19.4194 149.625C24.2001 149.625 28.3512 149.625 32.5023 149.625C83.0479 149.617 133.593 149.603 184.139 149.603C185.039 149.603 185.94 149.676 186.84 149.72C196.834 149.632 206.82 149.536 216.813 149.448C217.231 149.264 217.648 149.08 218.058 148.896C218.278 148.565 218.695 148.167 218.936 148.535C219.237 149.006 218.622 149.021 218.307 149.131L218.314 149.124ZM220.774 146.746C220.598 147.033 220.54 147.666 220.086 147.357C219.72 147.107 220.086 146.68 220.401 146.437C220.796 144.522 220.972 142.608 220.349 140.694C220.108 140.495 219.903 140.289 220.269 140.031C220.284 140.016 220.496 140.289 220.62 140.421C222.143 142.49 222.172 144.603 220.781 146.753L220.774 146.746ZM222.348 133.559C222.165 133.67 221.982 133.78 221.799 133.891C221.755 135.665 221.587 137.439 221.726 139.214C220.423 137.454 220.071 135.658 221.697 133.787C221.806 133.603 221.916 133.419 222.026 133.228C222.312 133.044 222.597 132.86 222.875 132.676C222.692 132.97 222.517 133.265 222.333 133.559H222.348ZM223.966 138.264C223.117 137.344 222.619 136.394 223.842 135.039C224.01 136.173 224.142 137.064 224.274 137.962C224.369 138.146 224.464 138.323 224.566 138.507C224.369 138.426 224.171 138.345 223.973 138.271L223.966 138.264ZM225.43 136.998C225.379 137.012 225.299 136.946 225.225 136.909C225.255 136.843 225.277 136.725 225.328 136.71C225.379 136.696 225.467 136.762 225.533 136.799C225.496 136.865 225.482 136.976 225.43 136.998ZM225.101 134.406C224.954 134.413 224.801 134.251 224.654 134.17C224.903 134.075 225.145 133.935 225.401 133.898C225.548 133.883 225.709 134.045 225.965 134.178C225.621 134.273 225.372 134.391 225.108 134.406H225.101ZM223.007 132.602C224.127 131.954 225.225 131.159 226.565 132.602H223.007ZM222.722 22.1459C224.881 22.4772 226.302 22.6981 227.707 22.3815C228.059 22.1165 228.41 21.8514 228.754 21.5863C229.142 20.1506 229.743 18.6707 227.92 17.7209C227.824 18.4203 227.824 19.1493 227.605 19.8046C227.18 21.0857 226.155 21.5495 224.984 21.0415C223.732 20.4966 224.354 19.4069 224.845 18.7517C225.716 17.5957 225.716 14.9525 228.344 16.3661C230.306 18.0007 230.972 19.7972 229.01 21.9029C228.644 22.1459 228.278 22.3889 227.912 22.6318C226.389 24.0308 224.918 23.6184 222.714 22.1385L222.722 22.1459ZM228.205 132.874C228.476 132.624 228.908 133.287 229.084 133.721C229.948 134.708 230.182 135.761 229.237 137.366C229.04 136.011 228.901 135.039 228.754 134.067C228.469 133.692 227.575 133.464 228.205 132.874ZM233.176 21.093C233.169 46.8701 233.132 72.6471 233.103 98.4241C233.103 98.726 233.052 99.0279 233.022 99.3224C233.022 100.338 233.022 101.362 233.015 102.378C233.015 102.974 233.015 103.563 233.015 104.16C233.015 114.225 233.059 124.29 232.949 134.354C232.927 136.188 232.81 138.242 230.994 139.508C230.782 139.7 230.57 139.891 230.35 140.083C229.838 140.804 229.318 141.511 228.19 141.106C228.578 140.23 229.384 140.097 230.065 139.788C230.27 139.589 230.467 139.398 230.672 139.199C231.741 137.307 232.027 135.282 232.027 133.11C232.012 124.047 232.115 114.983 232.195 105.912C232.195 105.323 232.378 104.734 232.481 104.145C232.254 103.556 232.254 102.967 232.532 102.393C232.144 101.362 232.071 100.338 232.598 99.3298C232.569 80.805 232.539 62.2803 232.517 43.763C232.51 35.7228 232.517 27.6901 232.517 19.4585C233.388 19.9886 233.183 20.6144 233.183 21.1004L233.176 21.093Z" fill="#EEE9DD"/>
<path d="M21.3087 75.1797C21.9163 75.7393 21.9749 76.2989 21.3233 76.8658C20.7303 76.3062 20.6937 75.7466 21.3087 75.1797Z" fill="#757059"/>
<path d="M232.532 102.393C232.693 102.393 232.854 102.393 233.015 102.378C233.015 102.974 233.015 103.563 233.015 104.16C232.839 104.145 232.656 104.145 232.481 104.145C232.254 103.556 232.261 102.967 232.532 102.385V102.393Z" fill="#B0A480"/>
<path d="M6.91536 139.265C6.25646 139.052 5.59023 138.845 5.78058 137.785C6.69573 137.977 6.60788 138.772 6.87876 139.295L6.91536 139.265Z" fill="#B7AC89"/>
<path d="M22.8385 16.6527C21.9746 17.1165 21.3376 17.0797 20.6641 16.7558C21.2571 16.2477 21.8721 16.4171 22.8385 16.6527Z" fill="#B7AC89"/>
<path d="M221.733 15.2023C221.938 15.2023 222.151 15.2023 222.356 15.2023L222.326 15.1729C222.37 15.6441 222.378 16.3951 221.916 16.3362C221.25 16.2478 221.887 15.5778 221.77 15.1729L221.733 15.2097V15.2023Z" fill="#B7AC89"/>
<path d="M25.4155 144.611C25.6352 143.823 25.2252 142.91 25.8914 142.137C26.3892 143.123 26.2648 144.029 25.7816 144.92C25.6571 144.817 25.5327 144.714 25.4082 144.611H25.4155Z" fill="#B7AC89"/>
<path d="M25.5469 26.7028C25.2174 26.3346 24.8953 25.9665 24.3682 25.3701C25.5029 25.5984 25.4956 26.1726 25.5176 26.7322L25.5542 26.7028H25.5469Z" fill="#B7AC89"/>
<path d="M225.542 136.798C225.505 136.865 225.49 136.975 225.439 136.997C225.387 137.012 225.306 136.946 225.233 136.909C225.262 136.843 225.284 136.725 225.336 136.71C225.387 136.695 225.476 136.762 225.542 136.798Z" fill="#B7AC89"/>
<path d="M225.957 134.177C225.613 134.273 225.364 134.391 225.101 134.405C224.954 134.413 224.8 134.251 224.654 134.17C224.903 134.074 225.145 133.934 225.401 133.897C225.547 133.883 225.708 134.045 225.965 134.177H225.957Z" fill="#B7AC89"/>
<path d="M228.754 134.067C228.469 133.691 227.575 133.463 228.205 132.874C228.476 132.624 228.908 133.287 229.084 133.721C228.974 133.839 228.864 133.949 228.754 134.067Z" fill="#B7AC89"/>
<path d="M181.584 132.668H181.803C181.723 133.043 181.65 133.426 181.547 133.794C181.547 133.817 181.247 133.758 181.086 133.736C181.254 133.382 181.423 133.021 181.591 132.668H181.584Z" fill="#9E936C"/>
<path d="M178.597 132.418C179.271 131.77 179.937 132.094 180.596 132.433C179.93 132.433 179.263 132.425 178.597 132.418Z" fill="#EEE9DD"/>
<path d="M212.091 126.542C212.304 126.284 212.509 126.034 212.721 125.776C212.78 125.835 212.845 125.902 212.904 125.96C212.648 126.174 212.399 126.38 212.143 126.594L212.091 126.542Z" fill="#D7E3D8"/>
<path d="M92.4697 132.447C93.1872 131.792 93.912 132.072 94.6368 132.433C93.912 132.433 93.1945 132.447 92.4697 132.447Z" fill="#AA9E7A"/>
<path d="M216.937 89.0586C217.106 88.8377 217.274 88.6168 217.443 88.4033C217.728 89.0071 217.047 88.7935 216.916 89.0365L216.937 89.0586Z" fill="#B7AC89"/>
<path d="M96.0938 132.388C96.6062 132.123 97.126 132.123 97.6385 132.381C97.126 132.72 96.6062 132.72 96.0938 132.388Z" fill="#AA9E7A"/>
<path d="M105.604 132.484L105.633 132.212C106.175 132.219 106.717 132.234 107.251 132.241C106.761 132.72 106.175 132.551 105.604 132.484Z" fill="#A2966F"/>
<path d="M140.622 132.359C141.119 132.116 141.617 132.057 142.1 132.388C141.595 132.676 141.105 132.683 140.622 132.359Z" fill="#EEE9DD"/>
<path d="M215.62 14.1199C214.881 14.0758 214.478 13.6561 214.302 12.964C214.419 12.8609 214.537 12.7652 214.646 12.6621C215.02 13.0891 215.4 13.5088 215.774 13.9359L215.62 14.1199Z" fill="#B7AC89"/>
<path d="M215.773 13.9283C216.125 14.0019 216.476 14.0755 216.835 14.1491C216.754 14.2596 216.637 14.4805 216.593 14.4658C216.264 14.37 215.949 14.2301 215.627 14.105L215.781 13.9209L215.773 13.9283Z" fill="#B7AC89"/>
<path d="M16.5195 138.073C16.5561 137.682 16.6001 137.292 16.6367 136.909C16.7611 136.975 16.9808 137.02 16.9954 137.108C17.0686 137.528 16.9661 137.896 16.5195 138.073Z" fill="#B7AC89"/>
<path d="M16.5197 138.072C16.5197 138.75 16.5929 139.449 15.934 139.906L15.8242 139.795C15.9048 139.155 15.934 138.499 16.5197 138.072Z" fill="#B7AC89"/>
<path d="M208.123 125.32H208.292L208.204 125.482L208.123 125.32Z" fill="#D7E3D8"/>
<path d="M9.30859 133.235C9.41841 133.102 9.53555 132.977 9.64536 132.845C9.69661 132.94 9.74786 133.036 9.79911 133.125C9.63072 133.154 9.45501 133.176 9.28662 133.205L9.30859 133.228V133.235Z" fill="#B7AC89"/>
<path d="M130.525 132.55H130.592C130.599 132.712 130.606 132.874 130.614 133.036C130.584 132.874 130.555 132.712 130.525 132.55Z" fill="#A2966F"/>
<path d="M8.7015 137.469C8.56971 137.344 8.43061 137.211 8.29883 137.086C8.394 137.02 8.48918 136.961 8.58435 136.895C8.62096 137.086 8.66489 137.277 8.7015 137.469Z" fill="#B7AC89"/>
<path d="M17.728 139.898C17.9696 139.36 18.4162 139.243 18.9433 139.301L18.9214 139.279C18.6798 139.817 18.2625 139.979 17.7134 139.876L17.728 139.898Z" fill="#B7AC89"/>
<path d="M14.0454 141.017C14.4041 140.781 14.7702 140.538 15.1289 140.303C15.2022 140.376 15.2754 140.45 15.3486 140.516C14.9898 140.774 14.6238 141.032 14.265 141.289C14.1918 141.201 14.1186 141.105 14.0454 141.017Z" fill="#B7AC89"/>
<path d="M25.7818 144.927C25.5182 145.288 25.262 145.649 24.9984 146.01C24.9032 145.907 24.8007 145.804 24.6982 145.708C24.9325 145.347 25.1741 144.979 25.4084 144.618C25.5329 144.721 25.65 144.832 25.7818 144.927Z" fill="#B7AC89"/>
<path d="M220.774 146.746C220.598 147.033 220.54 147.666 220.086 147.357C219.72 147.107 220.086 146.679 220.401 146.437C220.525 146.54 220.65 146.65 220.774 146.753V146.746Z" fill="#B7AC89"/>
<path d="M218.065 148.888C218.292 148.557 218.71 148.159 218.944 148.527C219.244 148.999 218.629 149.013 218.314 149.124C218.226 149.05 218.146 148.976 218.073 148.888H218.065Z" fill="#B7AC89"/>
<path d="M216.82 149.44C217.238 149.256 217.655 149.072 218.065 148.888C218.138 148.976 218.219 149.05 218.307 149.123C217.882 149.315 217.45 149.506 217.025 149.69C216.952 149.609 216.886 149.521 216.813 149.44H216.82Z" fill="#B4A986"/>
<path d="M29.1782 25.4807C29.31 25.3997 29.4418 25.3261 29.5809 25.2451C29.5296 25.2893 29.4784 25.3482 29.4198 25.3776C29.3393 25.4145 29.2441 25.4292 29.1562 25.4586L29.1855 25.4881L29.1782 25.4807Z" fill="#B7AC89"/>
<path d="M227.707 22.3885C228.059 22.1234 228.41 21.8584 228.754 21.5859C228.842 21.6964 228.923 21.7995 229.01 21.9099C228.644 22.1529 228.278 22.3958 227.912 22.6388C227.846 22.5578 227.773 22.4695 227.7 22.3811L227.707 22.3885Z" fill="#B7AC89"/>
<path d="M14.6611 22.4103C15.0418 22.1821 15.4225 21.9538 15.7959 21.7256L15.957 21.8802C15.6202 22.1526 15.2908 22.4177 14.954 22.6901C14.8588 22.5944 14.7636 22.4987 14.6611 22.4103Z" fill="#B7AC89"/>
<path d="M232.071 16.8594C232.378 17.0729 232.686 17.4852 232.356 17.6913C231.924 17.9564 231.983 17.3379 231.822 17.1023C231.917 17.0361 232.005 16.9551 232.071 16.8594Z" fill="#B0A480"/>
<path d="M7.13407 16.638C6.973 16.9105 6.92907 17.5216 6.4898 17.205C6.15303 16.9694 6.46784 16.535 6.78997 16.292C6.89979 16.4098 7.01693 16.5276 7.13407 16.638Z" fill="#B7AC89"/>
<path d="M215.137 16.3956C214.903 16.3146 214.668 16.241 214.434 16.16C214.493 16.0937 214.588 15.9685 214.595 15.9759C214.778 16.1158 214.947 16.263 215.122 16.4177L215.137 16.3956Z" fill="#B7AC89"/>
<path d="M229.691 14.4585C230.167 14.5322 230.606 14.6647 230.819 15.158C230.738 15.2316 230.665 15.3053 230.592 15.3789C230.233 15.1286 229.874 14.8856 229.516 14.6352L229.699 14.4512L229.691 14.4585Z" fill="#B7AC89"/>
<path d="M25.8252 14.8267C25.6348 15.0844 25.4957 15.6219 25.1077 15.3126C24.7783 15.0476 25.1004 14.6794 25.3932 14.4512C25.5397 14.5763 25.6861 14.7015 25.8252 14.8267Z" fill="#B7AC89"/>
<path d="M8.70068 14.5912L9.35959 14.1494C9.40352 14.2304 9.45476 14.3188 9.49869 14.3997C9.2278 14.4586 8.95692 14.5249 8.68604 14.5838L8.70068 14.5912Z" fill="#B7AC89"/>
<path d="M214.295 12.9645C214.046 12.6553 213.797 12.1398 214.141 11.9852C214.646 11.7496 214.5 12.3976 214.646 12.6626C214.529 12.7657 214.419 12.8688 214.302 12.9645H214.295Z" fill="#B7AC89"/>
<path d="M57.1167 0.712891C57.534 0.712891 57.9513 0.712891 58.3686 0.712891C57.9513 1.11048 57.534 1.03685 57.1167 0.712891Z" fill="#998E66"/>
<path d="M44.2158 0.742188C44.4062 0.742188 44.5965 0.742188 44.7942 0.742188L44.5087 0.81582L44.2231 0.749557L44.2158 0.742188Z" fill="#998E66"/>
<path d="M220.834 8.06836C220.892 8.13462 221.003 8.20825 220.995 8.27452C220.995 8.34078 220.878 8.39967 220.811 8.46593C220.753 8.39967 220.642 8.32604 220.65 8.25978C220.65 8.19351 220.767 8.13462 220.834 8.06836Z" fill="#B7AC89"/>
<path d="M25.078 9.01074C25.1512 9.20954 25.2244 9.40833 25.2976 9.60712C25.0999 9.5335 24.9096 9.45251 24.7119 9.37888C24.8291 9.25371 24.9535 9.13591 25.078 9.01074Z" fill="#B7AC89"/>
<path d="M224.143 13.9727C224.062 14.061 223.974 14.1494 223.893 14.2451C223.908 14.1862 223.893 14.0978 223.937 14.0757C224.003 14.0316 224.092 14.0242 224.165 13.9947L224.143 13.9727Z" fill="#B7AC89"/>
<path d="M229.508 14.6358C229.376 14.5401 229.245 14.4371 229.113 14.3413C229.376 14.01 229.537 14.2162 229.684 14.4591L229.508 14.6432V14.6358Z" fill="#B7AC89"/>
<path d="M8.69558 14.584C8.60726 14.6871 8.52629 14.7975 8.43797 14.9006C8.43797 14.8343 8.42325 14.746 8.46005 14.7165C8.52629 14.6576 8.61462 14.6355 8.70294 14.5914L8.69558 14.584Z" fill="#B7AC89"/>
<path d="M15.8024 15.3129C15.6707 15.1803 15.4144 14.9594 15.4364 14.9374C15.7073 14.5545 15.8903 14.8196 16.066 15.0552C15.9782 15.1435 15.8903 15.2319 15.8024 15.3202V15.3129Z" fill="#B7AC89"/>
<path d="M222.356 15.202C222.392 15.121 222.422 15.0327 222.481 14.9664C222.51 14.9296 222.598 14.9517 222.665 14.9443C222.554 15.018 222.444 15.099 222.333 15.1726L222.363 15.202H222.356Z" fill="#B7AC89"/>
<path d="M16.2708 16.0418C16.1171 15.7989 15.956 15.5559 15.8022 15.3129C15.8901 15.2246 15.978 15.1362 16.0658 15.0479C16.2635 15.254 16.4612 15.4528 16.6588 15.659C16.5344 15.7841 16.4099 15.9167 16.2781 16.0418H16.2708Z" fill="#B7AC89"/>
<path d="M18.7748 15.9533L18.5552 15.541C18.687 15.622 18.8187 15.703 18.9505 15.784L18.7748 15.9533Z" fill="#B7AC89"/>
<path d="M219.72 15.5707C219.976 15.4234 220.225 15.2762 220.474 15.1289L220.54 15.2025C220.364 15.4234 220.181 15.6369 220.005 15.8578C219.91 15.7621 219.808 15.6664 219.712 15.5707H219.72Z" fill="#B7AC89"/>
<path d="M230.819 15.1582C230.892 15.2981 230.965 15.4306 231.031 15.5705C230.885 15.5043 230.738 15.438 230.592 15.3791C230.665 15.3054 230.738 15.2318 230.819 15.1582Z" fill="#B7AC89"/>
<path d="M6.7832 16.2924C6.96623 16.204 7.14194 16.1157 7.32497 16.0273C7.25908 16.2261 7.19319 16.4323 7.1273 16.6311C7.01016 16.5207 6.89302 16.4028 6.7832 16.285V16.2924Z" fill="#B7AC89"/>
<path d="M18.9506 15.7837C19.0385 15.9015 19.1263 16.0193 19.2142 16.1371C19.0677 16.0709 18.9213 16.012 18.7749 15.9457L18.9506 15.7764V15.7837Z" fill="#B7AC89"/>
<path d="M23.8999 16.101L24.106 16.0273L24.0839 16.2114L23.8999 16.101Z" fill="#B7AC89"/>
<path d="M231.822 17.1016C231.529 16.9249 231.324 16.7335 231.705 16.4537C231.719 16.439 231.946 16.7188 232.071 16.8586C232.005 16.9544 231.917 17.0353 231.822 17.1016Z" fill="#B7AC89"/>
<path d="M15.7949 21.7256C16.0365 21.5637 16.2781 21.4091 16.5197 21.2471C16.3294 21.4606 16.1463 21.6741 15.956 21.8876L15.7949 21.733V21.7256Z" fill="#B7AC89"/>
<path d="M13.9141 22.8593C14.163 22.712 14.4119 22.5574 14.6608 22.4102C14.7633 22.4985 14.8585 22.5942 14.9537 22.6899C14.7121 22.8519 14.4705 23.0139 14.2289 23.1833C14.119 23.0728 14.0166 22.9697 13.9067 22.8593H13.9141Z" fill="#B7AC89"/>
<path d="M29.1496 25.459C28.9447 25.6651 28.7397 25.8713 28.5273 26.0848L28.5566 26.1143C28.7616 25.9081 28.9666 25.702 29.1716 25.4884L29.1423 25.459H29.1496Z" fill="#B7AC89"/>
<path d="M18.5336 148.16C18.6214 148.351 18.7093 148.535 18.7971 148.727C18.6068 148.638 18.4091 148.55 18.2188 148.462C18.3212 148.358 18.4311 148.255 18.5336 148.152V148.16Z" fill="#B7AC89"/>
<path d="M18.2185 148.461C18.0208 148.262 17.8305 148.056 17.6328 147.857C17.75 147.732 17.8671 147.622 17.9915 147.504C18.1746 147.725 18.3503 147.938 18.5333 148.159C18.4308 148.262 18.321 148.365 18.2185 148.461Z" fill="#B7AC89"/>
<path d="M24.9401 29.7075C24.896 29.7885 24.8445 29.8695 24.8003 29.9505C24.8592 29.8769 24.9181 29.8106 24.9769 29.737L24.9475 29.7002L24.9401 29.7075Z" fill="#B7AC89"/>
<path d="M24.207 146.421C24.3754 146.186 24.5438 145.95 24.7122 145.707C24.8147 145.803 24.9099 145.906 25.005 146.009C24.7927 146.193 24.5877 146.384 24.3754 146.568L24.207 146.414V146.421Z" fill="#B7AC89"/>
<path d="M6.32215 36.3628C6.28535 36.1714 6.28535 35.9873 6.32952 35.7959C6.37368 35.9284 6.43256 36.0536 6.44728 36.1861C6.44728 36.2377 6.36631 36.3039 6.31479 36.3628H6.32215Z" fill="#F7F3E8"/>
<path d="M19.2949 142.085C19.4999 141.879 19.7049 141.672 19.9026 141.474C19.9978 141.577 20.1002 141.672 20.1954 141.775C20.1954 141.967 20.1735 142.151 20.1076 142.335L20.1442 142.298C19.9611 142.335 19.7854 142.365 19.6024 142.394C19.4999 142.291 19.3974 142.188 19.2949 142.092V142.085Z" fill="#B7AC89"/>
<path d="M25.4388 140.819C25.3725 140.878 25.3063 140.944 25.2401 141.003C25.1812 140.929 25.0781 140.856 25.0781 140.79C25.0781 140.723 25.1959 140.664 25.2695 140.605C25.3284 140.679 25.3873 140.745 25.4461 140.819H25.4388Z" fill="#B7AC89"/>
<path d="M8.19565 140.384C8.30547 140.561 8.40797 140.738 8.51778 140.914C8.29083 140.863 8.05655 140.811 7.82959 140.752C7.95405 140.627 8.07851 140.509 8.19565 140.377V140.384Z" fill="#B7AC89"/>
<path d="M220.35 140.686C220.108 140.487 219.903 140.281 220.269 140.023C220.284 140.008 220.496 140.281 220.62 140.413C220.533 140.502 220.445 140.597 220.357 140.686H220.35Z" fill="#B7AC89"/>
<path d="M15.9342 139.913C15.7439 140.119 15.5462 140.318 15.3559 140.524C15.2827 140.458 15.2094 140.384 15.1362 140.311C15.3632 140.141 15.5975 139.972 15.8317 139.803L15.9416 139.913H15.9342Z" fill="#B7AC89"/>
<path d="M7.83031 140.76C7.62532 140.554 7.42033 140.348 7.21533 140.141C7.33979 140.038 7.45693 139.928 7.57407 139.803C7.77906 139.994 7.99138 140.193 8.19637 140.384C8.07923 140.51 7.95477 140.635 7.83031 140.76Z" fill="#B7AC89"/>
<path d="M230.072 139.78C230.277 139.582 230.475 139.39 230.68 139.191C230.79 139.294 230.892 139.398 231.002 139.501C230.79 139.692 230.577 139.884 230.365 140.075C230.27 139.972 230.175 139.876 230.079 139.773L230.072 139.78Z" fill="#B7AC89"/>
<path d="M7.2147 140.141C7.11221 139.846 7.00971 139.559 6.91453 139.265L6.87793 139.294C7.10489 139.463 7.33916 139.633 7.56612 139.802C7.4563 139.92 7.33916 140.03 7.20738 140.141H7.2147Z" fill="#B7AC89"/>
<path d="M224.274 137.954L224.567 138.499C224.369 138.418 224.171 138.337 223.974 138.263C224.076 138.16 224.179 138.057 224.281 137.961L224.274 137.954Z" fill="#B7AC89"/>
<path d="M10.5173 136.246C10.4584 136.113 10.3701 135.981 10.3406 135.841C10.3333 135.797 10.4584 135.716 10.5173 135.657L10.4805 135.635C10.4805 135.841 10.4805 136.047 10.4805 136.261L10.5099 136.246H10.5173Z" fill="#B7AC89"/>
<path d="M16.2576 134.538C16.3165 134.612 16.4269 134.685 16.4196 134.752C16.4196 134.818 16.3018 134.877 16.2282 134.943C16.1693 134.869 16.0589 134.796 16.0663 134.729C16.0663 134.663 16.184 134.604 16.2576 134.538Z" fill="#B7AC89"/>
<path d="M8.41551 134.611L8.46704 134.788L8.31982 134.766L8.41551 134.611Z" fill="#B7AC89"/>
<path d="M222.348 133.559C222.165 133.67 221.982 133.78 221.799 133.891C221.799 133.891 221.704 133.795 221.697 133.795C221.806 133.611 221.916 133.419 222.026 133.235C222.172 133.309 222.275 133.419 222.341 133.559H222.348Z" fill="#D7E3D8"/>
<path d="M15.5689 133.434L15.6499 133.647L15.4512 133.625L15.5689 133.434Z" fill="#B7AC89"/>
<path d="M9.28747 133.213C9.26539 133.294 9.23595 133.375 9.21387 133.463C9.25067 133.39 9.28011 133.316 9.31691 133.235L9.29483 133.213H9.28747Z" fill="#B7AC89"/>
<path d="M222.033 133.235C222.341 133.036 222.655 132.83 222.963 132.631L222.934 132.602C222.736 132.918 222.546 133.242 222.348 133.559C222.282 133.411 222.18 133.301 222.033 133.235Z" fill="#B7AC89"/>
<path d="M14.5663 132.948L14.3823 133.007L14.397 132.845L14.5663 132.948Z" fill="#B7AC89"/>
<path d="M209.134 129.649L208.943 129.76L209.053 129.568L209.134 129.649Z" fill="#D7E3D8"/>
<path d="M49.5897 130.923C46.0243 130.872 42.4516 130.828 38.8862 130.776C37.5976 129.856 38.4322 128.405 38.0881 127.22C37.0705 123.723 34.7204 121.396 32.1433 119.143C30.7743 117.832 29.0026 117.229 27.2528 117.111C25.0857 116.963 24.7197 116.021 24.7343 114.063C24.8661 100.581 24.8807 87.1001 24.932 73.6263C24.932 73.1256 24.8661 72.6249 24.8368 72.1243C24.9027 61.8385 25.0271 51.5527 24.9905 41.2669C24.9832 39.1833 25.3786 38.366 27.6701 38.0715C33.3367 37.3426 37.9344 32.6598 38.7983 26.9169C39.1131 24.8406 39.8672 24.3326 41.8586 24.3399C72.7174 24.4283 103.584 24.443 134.442 24.4725C155.381 24.4946 176.32 24.5461 197.251 24.4725C199.396 24.4651 200.128 25.0689 200.531 27.1672C201.702 33.2047 205.451 36.9892 211.469 38.1378C213.445 38.5133 214.097 39.117 214.082 41.1565C213.943 65.6524 213.892 90.1483 213.833 114.644C213.833 115.889 213.914 116.779 212.127 117.111C205.348 118.355 200.955 122.206 199.93 129.355C199.828 130.062 199.674 130.769 198.818 130.96C197.653 130.96 196.482 130.975 195.318 130.982C194.476 130.967 193.634 130.953 192.792 130.931C179.673 130.923 166.553 130.901 153.434 130.901C131.69 130.901 109.946 130.923 88.2017 130.938C87.3451 130.938 86.4959 130.938 85.6466 130.938C85.1048 130.945 84.5557 130.96 84.0066 130.967C72.9224 130.967 61.8381 130.967 50.7538 130.975C50.5927 130.901 50.4317 130.901 50.2779 130.99C50.0437 130.975 49.8167 130.953 49.5824 130.938L49.5897 130.923ZM201.234 33.9557L201.277 34.0072C201.307 33.0427 200.677 32.439 200.099 31.8058C199.85 30.9443 199.484 30.105 199.374 29.2214C199.045 26.6297 197.646 25.8567 195.113 26.0113C191.423 26.2395 187.719 26.0849 184.014 26.0923C160.916 26.1291 137.817 26.1585 114.712 26.1954C113.438 26.1954 112.164 26.2101 110.89 26.2174C110.766 26.1438 110.648 26.1438 110.531 26.2322C106.651 26.2322 102.771 26.2248 98.8906 26.2174C98.7515 26.1364 98.6124 26.1365 98.466 26.2027C97.0164 26.1954 95.5595 26.188 94.1099 26.1806C93.7438 26.1806 93.3778 26.1806 93.0117 26.1806C91.9721 26.1806 90.9325 26.1806 89.8929 26.1806C89.1315 26.1806 88.3701 26.1806 87.6087 26.1806C85.9468 26.1953 84.2922 26.2101 82.6303 26.2322C82.4912 26.1585 82.3594 26.1512 82.213 26.2174C72.6222 26.188 63.0314 26.1144 53.4407 26.1438C49.2676 26.1585 45.0799 25.6947 40.9288 26.4604C40.6652 27.1967 39.8159 28.0139 41.1996 28.5293C41.0386 29.4129 40.6432 30.3259 40.7531 31.1799C41.1045 33.8379 39.6695 34.5595 37.4439 34.5963C36.5946 35.9731 34.6618 36.1056 33.959 37.6518L34.0102 37.6076C32.0775 38.3218 30.1813 39.1759 28.1972 39.6987C26.4987 40.1478 26.6891 41.2227 26.8794 42.4302C26.8648 43.6377 26.8574 44.8452 26.8428 46.0601C26.8428 46.2736 26.8428 46.4871 26.8428 46.7007C26.8135 52.0239 26.7476 57.3472 26.7549 62.6705C26.7696 74.7159 26.8208 86.7541 26.8574 98.7995C26.2425 104.012 26.3596 109.24 26.7037 114.468C28.5047 116.455 31.3014 116.227 33.4099 117.53L33.3294 117.472C33.8711 118.679 35.1377 118.723 36.1114 119.231C40.0502 119.938 39.6768 123.435 40.5261 126.137C39.1058 128.818 40.6725 129.186 42.8176 129.178C52.5036 129.119 62.1895 129.024 71.8754 129.031C100.186 129.046 128.498 129.105 156.809 129.149C169.606 129.171 182.411 129.215 195.208 129.178C196.233 129.178 197.851 129.974 198.239 128.229C198.803 125.629 200.377 123.516 201.285 121.094L201.234 121.153C201.717 121.197 201.892 120.939 201.885 120.49L201.841 120.542C203.298 119.806 204.44 118.686 205.502 117.464L205.451 117.508C206.659 117.067 207.845 116.316 209.067 116.235C212.193 116.028 212.186 114.114 212.171 111.699C212.113 99.6978 212.23 87.7039 212.237 75.7026C212.237 64.5185 212.208 53.3345 212.113 42.1504C212.113 41.4436 212.764 40.1699 211.293 39.9637C209.25 39.6766 207.566 38.2187 205.443 38.2335L205.48 38.2629C205.846 37.4677 205.304 37.5855 204.843 37.6224L204.887 37.6592C204.404 36.6063 203.869 35.6197 202.449 35.8258L202.464 35.8406C202.859 34.6846 202.068 34.3238 201.241 33.9851L201.234 33.9557Z" fill="#D7E3D8"/>
<path d="M88.2095 130.923C109.953 130.908 131.697 130.893 153.441 130.886C166.561 130.886 179.68 130.908 192.8 130.915C187.946 131.865 183.048 131.32 178.172 131.327C149.363 131.394 120.562 131.35 91.7529 131.327C90.5669 131.327 89.3443 131.489 88.2095 130.915V130.923Z" fill="#757059"/>
<path d="M195.326 130.967C196.49 130.967 197.661 130.953 198.825 130.945C197.661 131.498 196.497 131.475 195.326 130.967Z" fill="#757059"/>
<path d="M84.0142 130.952C84.5632 130.945 85.105 130.93 85.6541 130.923C85.1123 131.335 84.5706 131.379 84.0142 130.952Z" fill="#757059"/>
<path d="M50.2856 130.975C50.4467 130.894 50.6005 130.886 50.7615 130.96C50.6005 130.96 50.4394 130.967 50.2856 130.975Z" fill="#757059"/>
<path d="M233.754 7.28729L233.946 7.16211L233.813 7.35355L233.754 7.28729Z" fill="#AA9E7A"/>
<path d="M23.6513 76.3359C24.8008 77.3594 24.8154 78.3607 23.5928 79.34C23.6147 78.3386 23.6294 77.3373 23.6513 76.3359Z" fill="#375646"/>
<path d="M21.938 41.8262C22.0551 41.6054 22.1723 41.3771 22.2894 41.1562C22.3919 41.2667 22.5017 41.3698 22.6042 41.4802C22.3773 41.598 22.1576 41.7084 21.9307 41.8262H21.938Z" fill="#EEE9DD"/>
<path d="M220.525 155.051C220.13 155.235 219.727 155.419 219.332 155.61C219.727 155.426 220.13 155.242 220.525 155.051Z" fill="#928761"/>
<path d="M10.4878 136.268C10.4878 136.062 10.4878 135.856 10.4878 135.642C11.3883 134.899 12.384 134.663 13.5041 135.053C12.5011 135.458 12.1936 137.608 10.4951 136.261L10.4878 136.268Z" fill="#EEE9DD"/>
<path d="M10.8465 137.712C11.2345 137.918 12.0764 138.043 11.8641 138.419C11.5347 138.986 10.8391 138.566 10.312 138.308C10.4877 138.11 10.6708 137.911 10.8465 137.712Z" fill="#EEE9DD"/>
<path d="M13.5325 138.065C13.3788 137.984 13.225 137.91 13.0713 137.829C13.5179 137.425 13.3934 137.947 13.5032 138.095L13.5325 138.065Z" fill="#EEE9DD"/>
<path d="M13.7532 136.681L13.6943 136.489L13.8636 136.519L13.7532 136.681Z" fill="#EEE9DD"/>
<path d="M100.201 0.0646136C100.362 0.0498881 100.531 0.042519 100.692 0.0351562C100.523 0.042519 100.362 0.0572508 100.201 0.0646136Z" fill="#998E66"/>
<path d="M20.1079 142.328C20.1738 142.151 20.2031 141.959 20.1958 141.768C21.1841 141.746 22.1652 141.716 23.1535 141.694C23.256 142.777 23.3146 143.844 22.5459 144.75C22.1139 144.595 21.2793 144.411 21.5721 143.969C23.3292 141.311 20.5765 142.865 20.1079 142.32V142.328Z" fill="#EEE9DD"/>
<path d="M19.6023 142.387C19.7853 142.357 19.961 142.328 20.144 142.291C20.144 143.108 20.144 143.926 20.144 144.75C19.0898 144.161 19.6096 143.219 19.6096 142.387H19.6023Z" fill="#EEE9DD"/>
<path d="M40.5335 126.123C39.677 123.421 40.0577 119.923 36.1189 119.217C35.1159 118.753 34.9036 117.022 33.3368 117.457L33.4174 117.516C32.1215 114.998 29.2296 115.624 27.2895 114.379C27.2529 109.188 27.2236 103.99 27.187 98.7996C27.2309 81.4235 27.2676 64.0474 27.3115 46.6712C27.3115 46.4724 27.3115 46.2663 27.3115 46.0675C27.2968 44.8453 27.2895 43.6304 27.2749 42.4082C27.1797 40.8105 28.3511 40.5749 29.5005 40.1773C31.1478 39.603 33.1538 39.5956 34.003 37.5929L33.9518 37.6371C36.1262 37.7918 36.2433 35.5682 37.4367 34.5816C39.6623 34.5521 41.0973 33.8306 40.7459 31.1653C40.636 30.3185 41.0241 29.3982 41.1925 28.5147C41.1925 28.2496 41.1998 27.9919 41.2071 27.7268C43.2204 26.1144 45.6511 27.5575 47.7742 26.8065C59.2685 26.8065 70.7627 26.7918 82.257 26.7844L82.4108 26.8875L82.5572 26.7771C84.0068 26.7918 85.4564 26.8065 86.906 26.8212C89.9296 27.2336 92.946 27.2041 95.9696 26.858C96.8115 26.8212 97.6461 26.777 98.4881 26.7402L98.6491 26.8433L98.8102 26.7402C104.074 26.939 109.331 27.1305 114.595 26.7991C115.385 26.8949 116.169 27.0789 116.959 27.0789C142.305 27.1305 167.651 27.2262 192.997 27.1084C196.285 27.0936 198.627 27.3366 199.045 31.18C199.103 31.7101 199.652 32.1887 199.982 32.6894C200.26 33.271 200.319 34.0662 201.263 33.9852L201.219 33.9337C200.941 35.016 201.812 35.3252 202.442 35.7891L202.427 35.7744C202.976 36.7389 203.65 37.5488 204.865 37.6077L204.821 37.5709C204.682 38.1378 205.041 38.2041 205.458 38.2114L205.421 38.182C206.659 40.7884 211.293 38.7268 211.527 42.5555C211.703 45.368 211.527 48.1953 211.52 51.0153C211.469 71.2702 211.395 91.5252 211.41 111.78C211.41 113.761 211.088 114.917 208.877 115.314C207.61 115.543 205.927 115.712 205.414 117.449L205.465 117.405C203.54 117.582 202.295 118.583 201.805 120.483L201.849 120.431C201.182 120.203 201.117 120.571 201.197 121.094L201.248 121.035C199.125 121.955 198.056 124.253 197.917 125.895C197.683 128.648 196.35 128.324 194.615 128.324C166.861 128.324 139.106 128.346 111.351 128.354C88.7143 128.354 66.0845 128.332 43.4474 128.354C41.7562 128.354 40.4164 128.236 40.4969 126.079L40.5335 126.123Z" fill="#F7F3E8"/>
<path d="M199.996 32.7113C199.674 32.2106 199.118 31.732 199.059 31.2019C198.649 27.3512 196.299 27.1156 193.012 27.1303C167.666 27.2481 142.32 27.145 116.974 27.1008C116.183 27.1008 115.4 26.9168 114.609 26.8211C114.639 26.6149 114.668 26.4087 114.705 26.1952C137.803 26.1584 160.901 26.129 184.007 26.0921C187.704 26.0921 191.416 26.2394 195.106 26.0112C197.646 25.8565 199.037 26.6223 199.367 29.2213C199.477 30.0975 199.843 30.9442 200.092 31.8057C200.055 32.1075 200.026 32.4094 199.989 32.7113H199.996Z" fill="#9E936C"/>
<path d="M40.5342 126.123C40.4537 128.28 41.7935 128.398 43.4847 128.398C66.1218 128.368 88.7516 128.398 111.389 128.398C139.143 128.398 166.898 128.368 194.653 128.368C196.388 128.368 197.72 128.692 197.954 125.939C198.094 124.297 199.162 121.999 201.286 121.079C200.378 123.501 198.811 125.615 198.24 128.214C197.859 129.959 196.241 129.163 195.209 129.163C182.412 129.2 169.607 129.149 156.809 129.134C128.498 129.09 100.187 129.031 71.8762 129.016C62.1903 129.016 52.5044 129.104 42.8184 129.163C40.6733 129.178 39.1139 128.803 40.5269 126.123H40.5342Z" fill="#757059"/>
<path d="M205.451 117.486C205.963 115.741 207.64 115.579 208.914 115.351C211.117 114.954 211.447 113.798 211.447 111.817C211.432 91.5621 211.505 71.3071 211.557 51.0522C211.557 48.2322 211.74 45.3976 211.564 42.5923C211.322 38.7637 206.695 40.8253 205.458 38.2189C207.581 38.2041 209.265 39.662 211.308 39.9491C212.779 40.1553 212.12 41.429 212.128 42.1359C212.223 53.3199 212.252 64.5039 212.252 75.6879C212.252 87.6893 212.135 99.6832 212.186 111.685C212.201 114.099 212.201 116.014 209.082 116.22C207.852 116.301 206.666 117.045 205.465 117.494L205.451 117.486Z" fill="#757059"/>
<path d="M27.3187 46.6709C27.2748 64.047 27.2382 81.4231 27.1942 98.7992C27.0844 98.7035 26.9819 98.7035 26.8721 98.7992C26.8355 86.7538 26.7842 74.7156 26.7696 62.6702C26.7623 57.3469 26.8282 52.0236 26.8575 46.7004C27.0112 46.6783 27.1723 46.6783 27.326 46.6783L27.3187 46.6709Z" fill="#375646"/>
<path d="M82.2788 26.7993C70.7845 26.7993 59.2903 26.814 47.796 26.8213C45.6143 26.7919 43.4252 26.7624 41.2362 26.733C41.141 26.6373 41.0385 26.5489 40.936 26.4532C45.0871 25.6875 49.2749 26.1513 53.448 26.1366C63.0387 26.1071 72.6295 26.1808 82.2202 26.2102C82.1983 26.409 82.2202 26.6078 82.2861 26.7993H82.2788Z" fill="#757059"/>
<path d="M26.8651 98.7919C26.9749 98.7035 27.0848 98.7035 27.1872 98.7919C27.2165 103.983 27.2531 109.181 27.2897 114.371C27.0994 114.408 26.9017 114.438 26.7114 114.452C26.3673 109.225 26.2575 104.005 26.8651 98.7845V98.7919Z" fill="#928761"/>
<path d="M114.712 26.1953C114.682 26.4015 114.646 26.6076 114.617 26.8212C109.353 27.1525 104.096 26.961 98.832 26.7622C98.8979 26.5855 98.9126 26.4015 98.8833 26.2174C102.764 26.2174 106.644 26.2248 110.524 26.2321L110.707 26.3794L110.883 26.2174C112.157 26.2174 113.43 26.2027 114.704 26.1953H114.712Z" fill="#757059"/>
<path d="M34.0178 37.5928C33.1685 39.5881 31.1552 39.6028 29.5153 40.1771C28.3585 40.5821 27.1945 40.8177 27.2896 42.408C27.1578 42.4448 27.0261 42.4522 26.887 42.4228C26.6966 41.2079 26.5063 40.1403 28.2048 39.6912C30.1888 39.161 32.085 38.3143 34.0178 37.6001V37.5928Z" fill="#757059"/>
<path d="M26.7109 114.452C26.9086 114.437 27.099 114.415 27.2893 114.371C29.2294 115.615 32.114 114.997 33.4172 117.508C31.3086 116.212 28.512 116.433 26.7109 114.445V114.452Z" fill="#757059"/>
<path d="M95.9845 26.8723C92.9609 27.2184 89.9372 27.2404 86.9136 26.8355C87.1405 26.6146 87.3748 26.3937 87.6018 26.1729C88.3632 26.1729 89.1246 26.1729 89.886 26.1729C90.9256 26.8723 91.9652 26.784 93.0048 26.1729C93.3709 26.1729 93.7369 26.1729 94.103 26.1729C94.7326 26.4011 95.3549 26.6367 95.9845 26.865V26.8723Z" fill="#9E936C"/>
<path d="M37.4517 34.5811C36.2583 35.5603 36.1412 37.7912 33.9668 37.6366C34.677 36.0978 36.6024 35.9653 37.4517 34.5811Z" fill="#757059"/>
<path d="M201.834 120.519C202.332 118.619 203.576 117.625 205.495 117.441C204.433 118.656 203.291 119.775 201.834 120.519Z" fill="#757059"/>
<path d="M87.6092 26.1729C87.3823 26.3937 87.148 26.6146 86.9211 26.8355C85.4715 26.8208 84.0219 26.806 82.5723 26.7913C82.6382 26.6073 82.6601 26.4158 82.6308 26.2244C84.2927 26.2097 85.9473 26.1949 87.6092 26.1729Z" fill="#757059"/>
<path d="M33.3369 117.456C34.9036 117.022 35.116 118.752 36.119 119.216C35.1453 118.7 33.8787 118.664 33.3369 117.456Z" fill="#757059"/>
<path d="M95.9841 26.8728C95.3545 26.6445 94.7322 26.4089 94.1025 26.1807C95.5521 26.188 97.009 26.1954 98.4586 26.2028C98.4367 26.3868 98.4586 26.5783 98.5026 26.755C97.6606 26.7918 96.826 26.836 95.9841 26.8728Z" fill="#757059"/>
<path d="M204.888 37.6366C203.665 37.5703 202.999 36.7604 202.45 35.8032C203.87 35.6044 204.404 36.5837 204.888 37.6366Z" fill="#757059"/>
<path d="M26.8872 42.4229C27.019 42.4524 27.1581 42.4524 27.2899 42.4082C27.3045 43.6304 27.3118 44.8453 27.3265 46.0675C27.1654 46.0675 27.0117 46.0601 26.8506 46.0454C26.8652 44.8379 26.8726 43.6304 26.8872 42.4156V42.4229Z" fill="#375646"/>
<path d="M93.0124 26.1729C91.9728 26.784 90.9332 26.8723 89.8936 26.1729C90.9332 26.1729 91.9728 26.1729 93.0124 26.1729Z" fill="#757059"/>
<path d="M199.997 32.7113C200.033 32.4094 200.062 32.1075 200.099 31.8057C200.677 32.4389 201.307 33.0426 201.278 34.0071C200.333 34.0881 200.275 33.293 199.997 32.7113Z" fill="#757059"/>
<path d="M202.464 35.8105C201.827 35.3393 200.956 35.03 201.241 33.9551C202.069 34.2938 202.867 34.6545 202.464 35.8105Z" fill="#757059"/>
<path d="M41.2218 27.7411C41.2218 28.0062 41.2145 28.2638 41.2072 28.5289C39.8235 28.0135 40.6727 27.1962 40.9363 26.46C41.0388 26.5483 41.1413 26.644 41.2364 26.7397C41.2364 27.0711 41.2291 27.4098 41.2218 27.7484V27.7411Z" fill="#757059"/>
<path d="M82.6307 26.2242C82.66 26.4157 82.6381 26.6071 82.5722 26.7911L82.4258 26.9016L82.272 26.7985C82.2134 26.6071 82.1915 26.4083 82.2134 26.2095C82.3525 26.1432 82.4916 26.1506 82.6307 26.2242Z" fill="#9E936C"/>
<path d="M98.503 26.7545C98.4518 26.5704 98.4371 26.3864 98.4591 26.2023C98.6055 26.1287 98.7446 26.136 98.8837 26.217C98.913 26.4011 98.8984 26.5851 98.8325 26.7618L98.6714 26.8649L98.5104 26.7618L98.503 26.7545Z" fill="#9E936C"/>
<path d="M110.892 26.2169L110.715 26.3789L110.531 26.2317C110.649 26.1507 110.774 26.1433 110.899 26.2169H110.892Z" fill="#9E936C"/>
<path d="M205.488 38.241C205.07 38.2337 204.712 38.1674 204.851 37.6005C205.312 37.5637 205.854 37.4459 205.488 38.241Z" fill="#757059"/>
<path d="M26.8506 46.0449C27.0117 46.0596 27.1654 46.067 27.3265 46.067C27.3265 46.2658 27.3265 46.472 27.3265 46.6708C27.1727 46.6708 27.0116 46.6708 26.8579 46.6928C26.8579 46.4793 26.8579 46.2658 26.8579 46.0523L26.8506 46.0449Z" fill="#757059"/>
<path d="M201.233 121.13C201.153 120.615 201.219 120.247 201.885 120.468C201.892 120.91 201.716 121.167 201.233 121.13Z" fill="#757059"/>
<path d="M41.2222 27.7411C41.2222 27.4025 41.2295 27.0711 41.2368 26.7324C43.4258 26.7619 45.6076 26.7913 47.7966 26.8208C45.6661 27.5644 43.2355 26.1287 41.2222 27.7411Z" fill="#9E936C"/>
</svg>
