<svg width="32" height="24" viewBox="0 0 32 24" fill="none" xmlns="http://www.w3.org/2000/svg">
<path d="M9.04414 12.1592H0.090332V15.8626H9.04414V12.1592Z" fill="#B6A29F"/>
<path d="M10.1716 6.40213H14.6741V5.68792L7.91669 0.0996094H5.38355C2.46239 0.0996094 0.090332 2.05811 0.090332 4.47309V6.40213H10.1716Z" fill="#B6A29F"/>
<path d="M15.2458 18.7119L9.82812 23.1959H20.7001L15.2824 18.7119H15.2458Z" fill="#B6A29F"/>
<path d="M15.2824 4.58309L20.7074 0.0917969H9.82812L15.2458 4.58309H15.2824Z" fill="#B6A29F"/>
<path d="M9.04414 7.4248H0.090332V11.1283H9.04414V7.4248Z" fill="#B6A29F"/>
<path d="M31.0737 7.4248H21.5635V11.1283H31.0737V7.4248Z" fill="#B6A29F"/>
<path d="M25.7804 0.0917969H22.625L16.0286 5.54763V7.51347H10.2888V16.8863H0.0976562V18.8153C0.0976562 21.2303 2.46973 23.1888 5.39088 23.1888H7.91669L14.5131 17.733V15.7671H20.3261V6.39432H31.0736V4.46528C31.0736 2.05029 28.7015 0.0917969 25.7804 0.0917969Z" fill="#B6A29F"/>
<path d="M31.0737 12.1592H21.5635V15.8626H31.0737V12.1592Z" fill="#B6A29F"/>
<path d="M20.356 16.8936H15.8535V17.6077L22.611 23.1961H25.7664C28.6876 23.1961 31.0596 21.2376 31.0596 18.8226V16.8936H20.3487H20.356Z" fill="#B6A29F"/>
</svg>
