<svg width="77" height="41" viewBox="0 0 77 41" fill="none" xmlns="http://www.w3.org/2000/svg">
<path d="M16.9443 8.29742C15.611 10.0574 14.2777 11.7641 12.9443 13.4174C12.3843 14.1108 11.7843 14.8308 11.1443 15.5774C10.531 16.3241 9.90432 17.0574 9.26432 17.7774C8.62432 18.4708 7.98432 19.1374 7.34432 19.7774C6.73098 20.3908 6.14432 20.9374 5.58432 21.4174L4.98432 23.3374C5.54432 23.7641 6.17098 24.3774 6.86432 25.1774C7.55765 25.9508 8.23765 27.0174 8.90432 28.3774C9.59765 29.7374 10.251 31.4041 10.8643 33.3774C11.5043 35.3774 12.051 37.7908 12.5043 40.6174L11.5443 40.7774C11.1177 38.1108 10.6243 35.8174 10.0643 33.8974C9.50432 32.0041 8.91765 30.4174 8.30432 29.1374C7.69098 27.8308 7.06432 26.7908 6.42432 26.0174C5.81098 25.2441 5.25098 24.6574 4.74432 24.2574L1.42432 35.9774L0.544316 35.5774L3.98432 23.6574C3.79765 23.5774 3.50432 23.4841 3.10432 23.3774C2.73098 23.2708 2.41098 23.1641 2.14432 23.0574C1.85098 22.9508 1.69098 22.8441 1.66432 22.7374C1.61098 22.6041 1.83765 22.4708 2.34432 22.3374C2.61098 22.2308 2.83765 22.1374 3.02432 22.0574C3.21098 21.9774 3.38432 21.8974 3.54432 21.8174C3.70432 21.7374 3.87765 21.6441 4.06432 21.5374C4.25098 21.4041 4.47765 21.2308 4.74432 21.0174L8.30432 8.45742L9.18432 8.69742L5.98432 19.8174C6.70432 19.1241 7.45098 18.3508 8.22432 17.4974C8.99765 16.6174 9.75765 15.7374 10.5043 14.8574C11.2776 13.9508 11.9977 13.0708 12.6643 12.2174C13.3577 11.3641 13.9577 10.6041 14.4643 9.93742C14.9977 9.27075 15.4243 8.73742 15.7443 8.33742C16.0643 7.91075 16.2243 7.69742 16.2243 7.69742L16.9443 8.29742ZM4.30432 22.4574C4.25098 22.5108 4.19765 22.5508 4.14432 22.5774C4.09098 22.5774 4.03765 22.6041 3.98432 22.6574C4.06432 22.7108 4.13098 22.7641 4.18432 22.8174L4.30432 22.4574ZM16.6324 21.7374C16.5524 21.6308 16.4458 21.5908 16.3124 21.6174C16.1791 21.6174 16.0458 21.6441 15.9124 21.6974C15.7791 21.7508 15.6458 21.8308 15.5124 21.9374C15.3791 22.0441 15.2591 22.1508 15.1524 22.2574C14.9658 22.4174 14.7258 22.6708 14.4324 23.0174C14.1658 23.3641 13.9124 23.7241 13.6724 24.0974C13.4324 24.4441 13.2458 24.7641 13.1124 25.0574C12.9791 25.3508 12.9924 25.5241 13.1524 25.5774C13.4724 25.7108 13.8858 25.5774 14.3924 25.1774C14.8991 24.7774 15.4058 24.2574 15.9124 23.6174C16.4458 22.9774 16.9391 22.2841 17.3924 21.5374C17.8724 20.7641 18.2324 20.0841 18.4724 19.4974L19.3124 19.8974C19.2858 19.8974 19.1791 20.0708 18.9924 20.4174C18.8324 20.7374 18.6458 21.1508 18.4324 21.6574C18.2458 22.1374 18.0458 22.6841 17.8324 23.2974C17.6458 23.9108 17.5124 24.4974 17.4324 25.0574C17.3791 25.4041 17.4191 25.5908 17.5524 25.6174C17.7124 25.6174 17.9124 25.5241 18.1524 25.3374C18.3924 25.1508 18.6591 24.8974 18.9524 24.5774C19.2724 24.2574 19.5658 23.9374 19.8324 23.6174C20.1258 23.2974 20.3658 23.0174 20.5524 22.7774C20.7658 22.5374 20.8991 22.4041 20.9524 22.3774L21.1124 23.2974C21.1124 23.2974 21.0058 23.4174 20.7924 23.6574C20.6058 23.8974 20.3524 24.1908 20.0324 24.5374C19.7391 24.8574 19.4058 25.1908 19.0324 25.5374C18.6858 25.8574 18.3391 26.1241 17.9924 26.3374C17.6724 26.5241 17.3791 26.6041 17.1124 26.5774C16.8458 26.5508 16.6724 26.3508 16.5924 25.9774C16.5391 25.7641 16.5258 25.4708 16.5524 25.0974C16.6058 24.6974 16.6991 24.2708 16.8324 23.8174C16.4058 24.3508 15.9391 24.8841 15.4324 25.4174C14.9524 25.9508 14.4058 26.3108 13.7924 26.4974C13.1791 26.6574 12.7391 26.6708 12.4724 26.5374C12.2058 26.4041 12.0724 26.1774 12.0724 25.8574C12.0458 25.5374 12.1258 25.1641 12.3124 24.7374C12.4991 24.3108 12.7391 23.8841 13.0324 23.4574C13.2991 23.0041 13.5924 22.5908 13.9124 22.2174C14.2591 21.8441 14.5658 21.5508 14.8324 21.3374C15.2858 20.9908 15.6724 20.7908 15.9924 20.7374C16.3124 20.6574 16.5791 20.6441 16.7924 20.6974C17.0324 20.7774 17.2191 20.9108 17.3524 21.0974L16.6324 21.7374ZM25.8228 22.0174C25.8494 21.8041 25.8628 21.5641 25.8628 21.2974C25.8894 21.0308 25.8894 20.7774 25.8628 20.5374C25.8628 20.2974 25.8228 20.0974 25.7428 19.9374C25.6628 19.7774 25.5294 19.7108 25.3428 19.7374C24.9694 19.8174 24.4894 20.0574 23.9028 20.4574C23.3428 20.8308 22.8094 21.2708 22.3028 21.7774C21.7961 22.2841 21.3961 22.8041 21.1028 23.3374C20.8094 23.8708 20.7694 24.3108 20.9828 24.6574C21.2761 25.0841 21.6494 25.2574 22.1028 25.1774C22.5828 25.0708 23.0628 24.8441 23.5428 24.4974C24.0228 24.1508 24.4494 23.7374 24.8228 23.2574C25.2228 22.7774 25.5028 22.3508 25.6628 21.9774L25.8228 22.0174ZM32.3428 3.85742L23.7028 32.1374L22.9028 31.8974L25.1828 24.3374C24.8894 24.6574 24.4761 24.9774 23.9428 25.2974C23.4361 25.5908 22.9161 25.7908 22.3828 25.8974C21.8494 26.0041 21.3561 25.9774 20.9028 25.8174C20.4494 25.6308 20.1428 25.2174 19.9828 24.5774C19.8761 24.0974 19.9961 23.5508 20.3428 22.9374C20.6894 22.3241 21.1294 21.7374 21.6628 21.1774C22.2228 20.5908 22.8094 20.0841 23.4228 19.6574C24.0628 19.2308 24.6228 18.9641 25.1028 18.8574C25.8761 18.8308 26.3694 19.1241 26.5828 19.7374L31.5428 3.61742L32.3428 3.85742ZM31.6306 21.3374C30.8039 21.5774 30.1906 22.0041 29.7906 22.6174C29.4172 23.2308 29.1906 23.8708 29.1106 24.5374C29.0306 25.2041 29.0839 25.8174 29.2706 26.3774C29.4572 26.9108 29.7239 27.2441 30.0706 27.3774C30.4172 27.4841 30.8172 27.2841 31.2706 26.7774C31.7239 26.2708 32.1772 25.2974 32.6306 23.8574C32.3372 23.7774 32.0439 23.6308 31.7506 23.4174C31.4839 23.2041 31.2839 22.9774 31.1506 22.7374C31.0172 22.4974 30.9639 22.2574 30.9906 22.0174C31.0439 21.7508 31.2572 21.5241 31.6306 21.3374ZM32.5106 20.7374L32.1506 21.3374C32.3106 21.3374 32.4706 21.3774 32.6306 21.4574C32.8706 21.5908 33.0839 21.8041 33.2706 22.0974C33.4839 22.3641 33.6039 22.6974 33.6306 23.0974C34.0839 23.0708 34.4839 22.9908 34.8306 22.8574C35.2039 22.7241 35.5772 22.5374 35.9506 22.2974L36.1106 23.1374C35.2839 23.6708 34.4039 23.9374 33.4706 23.9374C32.9639 25.4574 32.4439 26.5641 31.9106 27.2574C31.4039 27.9241 30.9239 28.3108 30.4706 28.4174C30.0172 28.4974 29.6039 28.3508 29.2306 27.9774C28.8839 27.6041 28.6172 27.1241 28.4306 26.5374C28.2439 25.9241 28.1639 25.2574 28.1906 24.5374C28.2172 23.8174 28.3906 23.1641 28.7106 22.5774C29.0039 21.9641 29.4572 21.4841 30.0706 21.1374C30.6839 20.7641 31.4972 20.6308 32.5106 20.7374ZM32.7106 23.0174C32.6839 22.8308 32.6172 22.6708 32.5106 22.5374C32.4306 22.4041 32.3372 22.3108 32.2306 22.2574C32.0439 22.1508 31.9239 22.1241 31.8706 22.1774C31.8172 22.2308 31.8172 22.3108 31.8706 22.4174C31.9506 22.4974 32.0572 22.6041 32.1906 22.7374C32.3239 22.8708 32.4972 22.9641 32.7106 23.0174ZM42.4168 20.5374C42.4701 20.5374 42.7368 20.4708 43.2168 20.3374C43.6968 20.1774 44.3235 19.9508 45.0968 19.6574L47.2968 11.3374C46.5501 11.5241 45.8568 11.6841 45.2168 11.8174C44.6035 11.9508 44.0701 12.0841 43.6168 12.2174C43.0835 12.3508 42.6035 12.4841 42.1768 12.6174L41.9368 11.7374L47.5368 10.3374L48.3768 6.93742L49.2168 7.17742L48.4568 10.0974C49.7102 9.80409 51.0035 9.49742 52.3368 9.17742C53.6968 8.85742 54.9635 8.56409 56.1368 8.29742C57.3368 8.03075 58.3902 7.81742 59.2968 7.65742C60.2302 7.47075 60.8835 7.36409 61.2568 7.33742L61.3368 8.13742C60.9635 8.19075 60.2968 8.32409 59.3368 8.53742C58.4035 8.72409 57.3235 8.96409 56.0968 9.25742C54.8702 9.52409 53.5635 9.81742 52.1768 10.1374C50.7902 10.4574 49.4835 10.7641 48.2568 11.0574L46.0568 19.3774C46.8835 19.1108 47.7768 18.8441 48.7368 18.5774C49.7235 18.2841 50.6702 18.0174 51.5768 17.7774C52.5102 17.5374 53.3635 17.3374 54.1368 17.1774C54.9102 16.9908 55.5235 16.8708 55.9768 16.8174L56.1768 17.5774C55.6968 17.6308 55.0435 17.7641 54.2168 17.9774C53.3902 18.1908 52.4835 18.4308 51.4968 18.6974C50.5368 18.9641 49.5502 19.2574 48.5368 19.5774C47.5501 19.8708 46.6435 20.1374 45.8168 20.3774L41.6168 36.3774L40.6968 36.1774L44.7368 20.6974L43.2968 21.1774C43.0835 21.2574 42.8968 21.3108 42.7368 21.3374L42.4168 20.5374ZM56.4471 17.4974C56.6605 17.4174 56.8471 17.4041 57.0071 17.4574C57.1671 17.4841 57.2738 17.5641 57.3271 17.6974C57.3805 17.8308 57.3671 17.9908 57.2871 18.1774C57.2071 18.3641 57.0738 18.4841 56.8871 18.5374C56.6738 18.6441 56.4871 18.6708 56.3271 18.6174C56.1671 18.5641 56.0338 18.4708 55.9271 18.3374C55.7938 17.9374 55.9671 17.6574 56.4471 17.4974ZM56.2471 21.0574C56.2205 21.0574 56.1405 21.2041 56.0071 21.4974C55.9005 21.7641 55.7538 22.1108 55.5671 22.5374C55.3805 22.9641 55.1938 23.4308 55.0071 23.9374C54.8205 24.4441 54.6605 24.9374 54.5271 25.4174C54.3938 25.8974 54.3005 26.3241 54.2471 26.6974C54.1938 27.0441 54.2338 27.2841 54.3671 27.4174C54.4471 27.4974 54.6205 27.4308 54.8871 27.2174C55.1538 27.0041 55.4605 26.7108 55.8071 26.3374C56.1538 25.9641 56.5138 25.5508 56.8871 25.0974C57.2605 24.6441 57.5938 24.2174 57.8871 23.8174C58.2071 23.3908 58.4738 23.0441 58.6871 22.7774C58.9005 22.5108 59.0071 22.3774 59.0071 22.3774L59.3671 23.0974C58.5138 24.2708 57.7271 25.2841 57.0071 26.1374C56.6871 26.5108 56.3671 26.8574 56.0471 27.1774C55.7271 27.4974 55.4205 27.7641 55.1271 27.9774C54.8338 28.1908 54.5671 28.3241 54.3271 28.3774C54.0871 28.4308 53.8871 28.3774 53.7271 28.2174C53.5405 28.0041 53.4471 27.6708 53.4471 27.2174C53.4471 26.7641 53.5138 26.2708 53.6471 25.7374C53.7805 25.1774 53.9538 24.6041 54.1671 24.0174C54.3538 23.4041 54.5538 22.8574 54.7671 22.3774C54.9538 21.8708 55.1138 21.4574 55.2471 21.1374C55.3805 20.8174 55.4471 20.6574 55.4471 20.6574L56.2471 21.0574ZM59.3143 22.3374C59.4743 22.2308 59.661 22.0974 59.8743 21.9374C60.1143 21.7774 60.341 21.6041 60.5543 21.4174C60.7676 21.2308 60.9276 21.0574 61.0343 20.8974C61.1676 20.7374 61.2076 20.6041 61.1543 20.4974C61.101 20.3908 60.941 20.3374 60.6743 20.3374C60.4343 20.3374 60.1676 20.3908 59.8743 20.4974C59.6076 20.6041 59.3676 20.7508 59.1543 20.9374C58.941 21.0974 58.8476 21.2841 58.8743 21.4974C58.8743 21.7641 59.021 22.0441 59.3143 22.3374ZM61.9143 20.0574C62.0476 20.2974 62.061 20.5641 61.9543 20.8574C61.8476 21.1241 61.6743 21.4041 61.4343 21.6974C61.221 21.9641 60.9676 22.2174 60.6743 22.4574C60.4076 22.6708 60.1676 22.8574 59.9543 23.0174H59.9943C60.2076 23.2308 60.3943 23.4308 60.5543 23.6174C60.741 23.7774 60.901 23.9641 61.0343 24.1774C61.4076 23.9108 61.7943 23.6574 62.1943 23.4174C62.621 23.1508 62.9943 22.9241 63.3143 22.7374C63.661 22.5241 63.941 22.3508 64.1543 22.2174C64.3677 22.0841 64.4743 22.0174 64.4743 22.0174V22.9374C64.1543 23.1508 63.821 23.3774 63.4743 23.6174C63.181 23.8308 62.8343 24.0708 62.4343 24.3374C62.0343 24.6041 61.621 24.8841 61.1943 25.1774C61.1676 25.3641 61.101 25.6308 60.9943 25.9774C60.8876 26.2974 60.7543 26.6708 60.5943 27.0974C60.4343 27.4974 60.2343 27.9241 59.9943 28.3774C59.781 28.8041 59.5543 29.2174 59.3143 29.6174C59.1543 29.8841 58.9676 30.1641 58.7543 30.4574C58.541 30.7774 58.3143 31.0574 58.0743 31.2974C57.8076 31.5374 57.5276 31.7108 57.2343 31.8174C56.9143 31.9508 56.581 31.9508 56.2343 31.8174C55.861 31.6841 55.661 31.4308 55.6343 31.0574C55.6076 30.7108 55.6476 30.3908 55.7543 30.0974C55.941 29.4841 56.2076 28.9241 56.5543 28.4174C56.8743 27.9108 57.2476 27.4441 57.6743 27.0174C58.0743 26.5641 58.501 26.1508 58.9543 25.7774C59.4076 25.4041 59.861 25.0574 60.3143 24.7374C60.2076 24.4974 60.0343 24.2708 59.7943 24.0574C59.5543 23.8174 59.301 23.5774 59.0343 23.3374C58.7943 23.0974 58.5676 22.8441 58.3543 22.5774C58.141 22.2841 58.0076 21.9508 57.9543 21.5774C57.901 21.1508 58.0476 20.7641 58.3943 20.4174C58.7143 20.0708 59.101 19.8174 59.5543 19.6574C60.0343 19.4974 60.501 19.4441 60.9543 19.4974C61.4076 19.5241 61.7276 19.7108 61.9143 20.0574ZM59.9943 26.0574C59.2743 26.6708 58.5943 27.3241 57.9543 28.0174C57.2876 28.7108 56.8343 29.4974 56.5943 30.3774C56.4343 30.8841 56.4076 31.1641 56.5143 31.2174C56.621 31.2708 56.8076 31.1774 57.0743 30.9374C57.3143 30.6974 57.6076 30.3508 57.9543 29.8974C58.2743 29.4708 58.581 29.0174 58.8743 28.5374C59.1943 28.0308 59.461 27.5508 59.6743 27.0974C59.8876 26.6441 59.9943 26.2974 59.9943 26.0574ZM65.9393 17.4974C66.1526 17.4174 66.3393 17.4041 66.4993 17.4574C66.6593 17.4841 66.766 17.5641 66.8193 17.6974C66.8726 17.8308 66.8593 17.9908 66.7793 18.1774C66.6993 18.3641 66.566 18.4841 66.3793 18.5374C66.166 18.6441 65.9793 18.6708 65.8193 18.6174C65.6593 18.5641 65.526 18.4708 65.4193 18.3374C65.286 17.9374 65.4593 17.6574 65.9393 17.4974ZM65.7393 21.0574C65.7126 21.0574 65.6326 21.2041 65.4993 21.4974C65.3926 21.7641 65.246 22.1108 65.0593 22.5374C64.8726 22.9641 64.686 23.4308 64.4993 23.9374C64.3126 24.4441 64.1526 24.9374 64.0193 25.4174C63.886 25.8974 63.7926 26.3241 63.7393 26.6974C63.686 27.0441 63.726 27.2841 63.8593 27.4174C63.9393 27.4974 64.1126 27.4308 64.3793 27.2174C64.646 27.0041 64.9526 26.7108 65.2993 26.3374C65.646 25.9641 66.006 25.5508 66.3793 25.0974C66.7526 24.6441 67.086 24.2174 67.3793 23.8174C67.6993 23.3908 67.966 23.0441 68.1793 22.7774C68.3926 22.5108 68.4993 22.3774 68.4993 22.3774L68.8593 23.0974C68.006 24.2708 67.2193 25.2841 66.4993 26.1374C66.1793 26.5108 65.8593 26.8574 65.5393 27.1774C65.2193 27.4974 64.9126 27.7641 64.6193 27.9774C64.326 28.1908 64.0593 28.3241 63.8193 28.3774C63.5793 28.4308 63.3793 28.3774 63.2193 28.2174C63.0326 28.0041 62.9393 27.6708 62.9393 27.2174C62.9393 26.7641 63.006 26.2708 63.1393 25.7374C63.2726 25.1774 63.446 24.6041 63.6593 24.0174C63.846 23.4041 64.046 22.8574 64.2593 22.3774C64.446 21.8708 64.606 21.4574 64.7393 21.1374C64.8726 20.8174 64.9393 20.6574 64.9393 20.6574L65.7393 21.0574ZM76.1665 0.817421L69.6065 21.3374C69.9265 21.0174 70.2198 20.7374 70.4865 20.4974C70.7798 20.2308 71.0332 19.9908 71.2465 19.7774C71.5132 19.5374 71.7532 19.3241 71.9665 19.1374L72.5665 19.7774C72.5398 19.7774 72.4065 19.8841 72.1665 20.0974C71.9265 20.2841 71.6332 20.5374 71.2865 20.8574C70.9398 21.1774 70.5532 21.5508 70.1265 21.9774C69.7265 22.4041 69.3398 22.8308 68.9665 23.2574L68.0065 26.2974C68.3265 26.4308 68.8998 26.3241 69.7265 25.9774C70.5532 25.6041 71.3932 25.1508 72.2465 24.6174C73.2598 24.0308 74.3532 23.3241 75.5265 22.4974L75.2465 23.6974C75.2465 23.6974 75.0998 23.7908 74.8065 23.9774C74.5398 24.1641 74.1798 24.4041 73.7265 24.6974C73.2732 24.9641 72.7665 25.2574 72.2065 25.5774C71.6732 25.8974 71.1265 26.1774 70.5665 26.4174C70.0065 26.6574 69.4732 26.8441 68.9665 26.9774C68.4865 27.1108 68.0865 27.1374 67.7665 27.0574L65.2065 35.0974L64.4465 34.8574L67.0065 26.5774C66.9798 26.5241 66.9532 26.4574 66.9265 26.3774C66.8998 26.2974 66.8732 26.2308 66.8465 26.1774C66.7398 25.7508 66.8198 25.2574 67.0865 24.6974C67.3532 24.1108 67.6998 23.5508 68.1265 23.0174L75.3265 0.53742L76.1665 0.817421Z" fill="#AE4460"/>
</svg>
