<svg width="115" height="47" viewBox="0 0 115 47" fill="none" xmlns="http://www.w3.org/2000/svg">
<path d="M37.7064 5.232C37.7064 5.264 37.0504 5.456 35.7384 5.808C34.4584 6.16 32.7944 6.608 30.7464 7.152C28.6984 7.696 26.3944 8.288 23.8344 8.928C21.3064 9.568 18.7784 10.176 16.2504 10.752C16.5704 11.2 16.6824 11.856 16.5864 12.72C16.4584 13.488 16.2024 14.56 15.8184 15.936C15.4344 17.312 14.9704 18.88 14.4264 20.64C13.9144 22.368 13.3384 24.208 12.6984 26.16C12.0904 28.112 11.4664 30.048 10.8264 31.968C10.2184 33.888 9.61044 35.728 9.00244 37.488C8.42644 39.248 7.91444 40.8 7.46644 42.144C7.01844 43.52 6.65044 44.608 6.36244 45.408C6.07444 46.208 5.93044 46.608 5.93044 46.608L4.92244 46.32C4.92244 46.288 5.06644 45.872 5.35444 45.072C5.61044 44.272 5.97844 43.2 6.45844 41.856C6.90644 40.512 7.41844 38.96 7.99444 37.2C8.60244 35.44 9.21044 33.6 9.81844 31.68C10.4584 29.76 11.0824 27.824 11.6904 25.872C12.3304 23.888 12.9064 22.032 13.4184 20.304C13.9624 18.576 14.4264 17.024 14.8104 15.648C15.1944 14.272 15.4504 13.184 15.5784 12.384C15.6744 11.808 15.5144 11.344 15.0984 10.992C13.6584 11.312 12.2504 11.616 10.8744 11.904C9.53044 12.192 8.28244 12.448 7.13044 12.672C5.97844 12.864 4.97044 13.008 4.10644 13.104C3.21044 13.2 2.50644 13.232 1.99444 13.2C1.00244 13.104 0.506437 12.784 0.506437 12.24C0.538437 11.888 1.05044 11.504 2.04244 11.088C3.03444 10.672 4.23444 10.288 5.64244 9.936C6.98644 9.584 8.37844 9.36 9.81844 9.264C11.2584 9.136 12.5384 9.152 13.6584 9.312C14.2984 9.44 14.8424 9.632 15.2904 9.888C16.9864 9.504 18.6984 9.104 20.4264 8.688C22.1864 8.24 23.8824 7.824 25.5144 7.44C27.1784 7.024 28.7304 6.624 30.1704 6.24C31.6104 5.856 32.8584 5.536 33.9144 5.28C35.0024 4.992 35.8504 4.768 36.4584 4.608C37.0984 4.416 37.4184 4.32 37.4184 4.32L37.7064 5.232ZM13.2264 10.32C11.5304 10.256 9.96244 10.32 8.52244 10.512C7.08244 10.672 5.88244 10.88 4.92244 11.136C3.96244 11.36 3.32244 11.584 3.00244 11.808C2.68244 12 2.81044 12.112 3.38644 12.144C3.93044 12.144 5.00244 12.016 6.60244 11.76C8.17044 11.504 10.3784 11.024 13.2264 10.32ZM18.4678 28.176C18.7558 28.208 19.1398 28.128 19.6198 27.936C20.0998 27.744 20.5158 27.52 20.8678 27.264C21.2198 27.008 21.4278 26.784 21.4918 26.592C21.5558 26.368 21.3158 26.256 20.7718 26.256C20.3558 26.32 19.9078 26.528 19.4278 26.88C18.9478 27.2 18.5318 27.584 18.1798 28.032C17.8278 28.48 17.6038 28.96 17.5078 29.472C17.3798 29.952 17.4758 30.352 17.7958 30.672C18.2438 31.12 18.7878 31.232 19.4278 31.008C20.0998 30.752 20.7558 30.368 21.3958 29.856C22.0678 29.312 22.6918 28.736 23.2678 28.128C23.8438 27.52 24.2758 27.072 24.5638 26.784L24.7078 28.032C24.2598 28.544 23.7318 29.12 23.1238 29.76C22.5158 30.368 21.8758 30.896 21.2038 31.344C20.5318 31.76 19.8438 32.016 19.1398 32.112C18.4358 32.176 17.7638 31.936 17.1238 31.392C16.5798 30.88 16.3398 30.288 16.4038 29.616C16.4678 28.912 16.7238 28.256 17.1718 27.648C17.5878 27.008 18.1158 26.464 18.7558 26.016C19.3958 25.536 20.0358 25.264 20.6758 25.2C21.2518 25.104 21.7478 25.232 22.1638 25.584C22.6118 25.904 22.6918 26.352 22.4038 26.928C22.2438 27.28 21.9078 27.632 21.3958 27.984C20.8838 28.304 20.3718 28.56 19.8598 28.752C19.3798 28.944 18.9638 29.024 18.6118 28.992C18.2918 28.928 18.2438 28.656 18.4678 28.176ZM26.2213 23.904C25.9973 24.576 25.8053 25.168 25.6453 25.68C25.4853 26.128 25.3573 26.544 25.2613 26.928C25.1973 27.28 25.2293 27.472 25.3573 27.504C25.5173 27.568 25.8213 27.44 26.2693 27.12C26.7173 26.768 27.1813 26.368 27.6613 25.92C28.2373 25.408 28.8613 24.816 29.5333 24.144L30.4453 24.72C29.6773 26.32 29.0213 27.744 28.4773 28.992C28.2213 29.536 27.9813 30.064 27.7573 30.576C27.5653 31.056 27.4053 31.504 27.2773 31.92C27.1493 32.304 27.0533 32.624 26.9893 32.88C26.9573 33.104 26.9893 33.216 27.0853 33.216C27.1493 33.248 27.3573 33.12 27.7093 32.832C28.0613 32.512 28.4773 32.112 28.9573 31.632C29.4693 31.152 29.9973 30.624 30.5413 30.048C31.1173 29.472 31.6453 28.944 32.1253 28.464C32.6053 27.952 33.0053 27.536 33.3253 27.216C33.6453 26.864 33.8213 26.688 33.8533 26.688L34.0933 27.936C34.0613 27.936 33.8693 28.144 33.5173 28.56C33.1653 28.944 32.7173 29.424 32.1733 30C31.6293 30.576 31.0373 31.184 30.3973 31.824C29.7573 32.464 29.1333 33.04 28.5253 33.552C27.9493 34.032 27.4373 34.384 26.9893 34.608C26.5413 34.832 26.2533 34.8 26.1253 34.512C25.9333 34.32 25.8853 33.936 25.9813 33.36C26.0773 32.784 26.2373 32.128 26.4613 31.392C26.7173 30.624 27.0053 29.824 27.3253 28.992C27.6773 28.16 27.9973 27.392 28.2853 26.688C27.9973 26.944 27.6773 27.2 27.3253 27.456C26.9733 27.712 26.6213 27.936 26.2693 28.128C25.9493 28.32 25.6453 28.48 25.3573 28.608C25.1013 28.704 24.8773 28.72 24.6853 28.656C24.3013 28.528 24.1093 28.192 24.1093 27.648C24.1093 27.072 24.1893 26.48 24.3493 25.872C24.5413 25.168 24.8293 24.384 25.2133 23.52L26.2213 23.904ZM35.6477 21.168C35.9037 21.072 36.1277 21.056 36.3197 21.12C36.5117 21.152 36.6397 21.248 36.7037 21.408C36.7677 21.568 36.7517 21.76 36.6557 21.984C36.5597 22.208 36.3997 22.352 36.1757 22.416C35.9197 22.544 35.6957 22.576 35.5037 22.512C35.3117 22.448 35.1517 22.336 35.0237 22.176C34.8637 21.696 35.0717 21.36 35.6477 21.168ZM35.4077 25.44C35.3757 25.44 35.2797 25.616 35.1197 25.968C34.9917 26.288 34.8157 26.704 34.5917 27.216C34.3677 27.728 34.1437 28.288 33.9197 28.896C33.6957 29.504 33.5037 30.096 33.3437 30.672C33.1837 31.248 33.0717 31.76 33.0077 32.208C32.9437 32.624 32.9917 32.912 33.1517 33.072C33.2477 33.168 33.4557 33.088 33.7757 32.832C34.0957 32.576 34.4637 32.224 34.8797 31.776C35.2957 31.328 35.7277 30.832 36.1757 30.288C36.6237 29.744 37.0237 29.232 37.3757 28.752C37.7597 28.24 38.0797 27.824 38.3357 27.504C38.5917 27.184 38.7197 27.024 38.7197 27.024L39.1517 27.888C38.1277 29.296 37.1837 30.512 36.3197 31.536C35.9357 31.984 35.5517 32.4 35.1677 32.784C34.7837 33.168 34.4157 33.488 34.0637 33.744C33.7117 34 33.3917 34.16 33.1037 34.224C32.8157 34.288 32.5757 34.224 32.3837 34.032C32.1597 33.776 32.0477 33.376 32.0477 32.832C32.0477 32.288 32.1277 31.696 32.2877 31.056C32.4477 30.384 32.6557 29.696 32.9117 28.992C33.1357 28.256 33.3757 27.6 33.6317 27.024C33.8557 26.416 34.0477 25.92 34.2077 25.536C34.3677 25.152 34.4477 24.96 34.4477 24.96L35.4077 25.44ZM40.7683 23.472L38.7043 29.52C39.1203 28.944 39.5363 28.352 39.9523 27.744C40.4003 27.136 40.8163 26.592 41.2003 26.112C41.6163 25.632 41.9843 25.248 42.3043 24.96C42.6243 24.672 42.8803 24.544 43.0723 24.576C43.3923 24.544 43.5843 24.672 43.6483 24.96C43.7443 25.216 43.7443 25.568 43.6483 26.016C43.5523 26.464 43.4083 26.96 43.2163 27.504C43.0563 28.048 42.9123 28.544 42.7843 28.992C43.2003 28.544 43.6323 28.08 44.0803 27.6C44.5603 27.088 45.0083 26.64 45.4243 26.256C45.8403 25.872 46.2243 25.584 46.5763 25.392C46.9283 25.2 47.1843 25.184 47.3443 25.344C47.5683 25.6 47.6643 26 47.6323 26.544C47.6003 27.056 47.5043 27.584 47.3443 28.128C47.2163 28.672 47.0723 29.152 46.9123 29.568C46.7843 29.984 46.7203 30.192 46.7203 30.192C46.7203 30.192 46.9123 30.032 47.2963 29.712C47.6803 29.36 48.0963 28.992 48.5443 28.608C48.9923 28.192 49.4083 27.808 49.7923 27.456C50.2083 27.104 50.4163 26.928 50.4163 26.928L50.4643 27.984C50.4643 27.984 50.2563 28.192 49.8403 28.608C49.4243 28.992 48.9443 29.408 48.4003 29.856C47.8883 30.304 47.3763 30.688 46.8643 31.008C46.3843 31.328 46.0483 31.408 45.8563 31.248C45.6643 31.088 45.6003 30.8 45.6643 30.384C45.7283 29.936 45.8403 29.44 46.0003 28.896C46.1603 28.32 46.2883 27.84 46.3843 27.456C46.5123 27.04 46.5443 26.784 46.4803 26.688C46.4163 26.624 46.1443 26.832 45.6643 27.312C45.1843 27.792 44.6723 28.352 44.1283 28.992C43.5843 29.6 43.0883 30.176 42.6403 30.72C42.1923 31.264 41.9683 31.536 41.9683 31.536L41.0563 31.008C41.3763 30.112 41.6483 29.296 41.8723 28.56C42.0643 27.952 42.2403 27.392 42.4003 26.88C42.5603 26.368 42.6083 26.112 42.5443 26.112C42.4483 26.112 42.2563 26.304 41.9683 26.688C41.6803 27.04 41.3443 27.504 40.9603 28.08C40.5763 28.624 40.1763 29.232 39.7603 29.904C39.3443 30.544 38.9443 31.152 38.5603 31.728C38.2083 32.304 37.9203 32.784 37.6963 33.168C37.4723 33.552 37.3603 33.744 37.3603 33.744L36.3523 33.264L39.7603 23.088L40.7683 23.472ZM53.4951 26.256C53.3991 26.128 53.2711 26.08 53.1111 26.112C52.9511 26.112 52.7911 26.144 52.6311 26.208C52.4711 26.272 52.3111 26.368 52.1511 26.496C51.9911 26.624 51.8471 26.752 51.7191 26.88C51.4951 27.072 51.2071 27.376 50.8551 27.792C50.5351 28.208 50.2311 28.64 49.9431 29.088C49.6551 29.504 49.4311 29.888 49.2711 30.24C49.1111 30.592 49.1271 30.8 49.3191 30.864C49.7031 31.024 50.1991 30.864 50.8071 30.384C51.4151 29.904 52.0231 29.28 52.6311 28.512C53.2711 27.744 53.8631 26.912 54.4071 26.016C54.9831 25.088 55.4151 24.272 55.7031 23.568L56.7111 24.048C56.6791 24.048 56.5511 24.256 56.3271 24.672C56.1351 25.056 55.9111 25.552 55.6551 26.16C55.4311 26.736 55.1911 27.392 54.9351 28.128C54.7111 28.864 54.5511 29.568 54.4551 30.24C54.3911 30.656 54.4391 30.88 54.5991 30.912C54.7911 30.912 55.0311 30.8 55.3191 30.576C55.6071 30.352 55.9271 30.048 56.2791 29.664C56.6631 29.28 57.0151 28.896 57.3351 28.512C57.6871 28.128 57.9751 27.792 58.1991 27.504C58.4551 27.216 58.6151 27.056 58.6791 27.024L58.8711 28.128C58.8711 28.128 58.7431 28.272 58.4871 28.56C58.2631 28.848 57.9591 29.2 57.5751 29.616C57.2231 30 56.8231 30.4 56.3751 30.816C55.9591 31.2 55.5431 31.52 55.1271 31.776C54.7431 32 54.3911 32.096 54.0711 32.064C53.7511 32.032 53.5431 31.792 53.4471 31.344C53.3831 31.088 53.3671 30.736 53.3991 30.288C53.4631 29.808 53.5751 29.296 53.7351 28.752C53.2231 29.392 52.6631 30.032 52.0551 30.672C51.4791 31.312 50.8231 31.744 50.0871 31.968C49.3511 32.16 48.8231 32.176 48.5031 32.016C48.1831 31.856 48.0231 31.584 48.0231 31.2C47.9911 30.816 48.0871 30.368 48.3111 29.856C48.5351 29.344 48.8231 28.832 49.1751 28.32C49.4951 27.776 49.8471 27.28 50.2311 26.832C50.6471 26.384 51.0151 26.032 51.3351 25.776C51.8791 25.36 52.3431 25.12 52.7271 25.056C53.1111 24.96 53.4311 24.944 53.6871 25.008C53.9751 25.104 54.1991 25.264 54.3591 25.488L53.4951 26.256ZM76.4203 1.152L68.5483 25.776C68.9323 25.392 69.2843 25.056 69.6043 24.768C69.9563 24.448 70.2603 24.16 70.5163 23.904C70.8363 23.616 71.1243 23.36 71.3803 23.136L72.1003 23.904C72.0683 23.904 71.9083 24.032 71.6203 24.288C71.3323 24.512 70.9803 24.816 70.5643 25.2C70.1483 25.584 69.6843 26.032 69.1723 26.544C68.6923 27.056 68.2283 27.568 67.7803 28.08L66.6283 31.728C67.0123 31.888 67.7003 31.76 68.6923 31.344C69.6843 30.896 70.6923 30.352 71.7163 29.712C72.9323 29.008 74.2443 28.16 75.6523 27.168L75.3163 28.608C75.3163 28.608 75.1403 28.72 74.7883 28.944C74.4683 29.168 74.0363 29.456 73.4923 29.808C72.9483 30.128 72.3403 30.48 71.6683 30.864C71.0283 31.248 70.3723 31.584 69.7003 31.872C69.0283 32.16 68.3883 32.384 67.7803 32.544C67.2043 32.704 66.7243 32.736 66.3403 32.64L63.2683 42.288L62.3563 42L65.4283 32.064C65.3963 32 65.3643 31.92 65.3323 31.824C65.3003 31.728 65.2683 31.648 65.2363 31.584C65.1083 31.072 65.2043 30.48 65.5243 29.808C65.8443 29.104 66.2603 28.432 66.7723 27.792L75.4123 0.815998L76.4203 1.152ZM78.9013 26.256C78.8053 26.128 78.6773 26.08 78.5173 26.112C78.3573 26.112 78.1973 26.144 78.0373 26.208C77.8773 26.272 77.7173 26.368 77.5573 26.496C77.3973 26.624 77.2533 26.752 77.1253 26.88C76.9013 27.072 76.6133 27.376 76.2613 27.792C75.9413 28.208 75.6373 28.64 75.3493 29.088C75.0613 29.504 74.8373 29.888 74.6773 30.24C74.5173 30.592 74.5333 30.8 74.7253 30.864C75.1093 31.024 75.6053 30.864 76.2133 30.384C76.8213 29.904 77.4293 29.28 78.0373 28.512C78.6773 27.744 79.2693 26.912 79.8133 26.016C80.3893 25.088 80.8213 24.272 81.1093 23.568L82.1173 24.048C82.0853 24.048 81.9573 24.256 81.7333 24.672C81.5413 25.056 81.3173 25.552 81.0613 26.16C80.8373 26.736 80.5973 27.392 80.3413 28.128C80.1173 28.864 79.9573 29.568 79.8613 30.24C79.7973 30.656 79.8453 30.88 80.0053 30.912C80.1973 30.912 80.4373 30.8 80.7253 30.576C81.0133 30.352 81.3333 30.048 81.6853 29.664C82.0693 29.28 82.4213 28.896 82.7413 28.512C83.0933 28.128 83.3813 27.792 83.6053 27.504C83.8613 27.216 84.0213 27.056 84.0853 27.024L84.2773 28.128C84.2773 28.128 84.1493 28.272 83.8933 28.56C83.6693 28.848 83.3653 29.2 82.9813 29.616C82.6293 30 82.2293 30.4 81.7813 30.816C81.3653 31.2 80.9493 31.52 80.5333 31.776C80.1493 32 79.7973 32.096 79.4773 32.064C79.1573 32.032 78.9493 31.792 78.8533 31.344C78.7893 31.088 78.7733 30.736 78.8053 30.288C78.8693 29.808 78.9813 29.296 79.1413 28.752C78.6293 29.392 78.0693 30.032 77.4613 30.672C76.8853 31.312 76.2293 31.744 75.4933 31.968C74.7573 32.16 74.2293 32.176 73.9093 32.016C73.5893 31.856 73.4293 31.584 73.4293 31.2C73.3973 30.816 73.4933 30.368 73.7173 29.856C73.9413 29.344 74.2293 28.832 74.5813 28.32C74.9013 27.776 75.2533 27.28 75.6373 26.832C76.0533 26.384 76.4213 26.032 76.7413 25.776C77.2853 25.36 77.7493 25.12 78.1333 25.056C78.5173 24.96 78.8373 24.944 79.0933 25.008C79.3813 25.104 79.6053 25.264 79.7653 25.488L78.9013 26.256ZM84.6977 26.976C84.8897 26.848 85.1137 26.688 85.3697 26.496C85.6577 26.304 85.9297 26.096 86.1857 25.872C86.4417 25.648 86.6337 25.44 86.7617 25.248C86.9217 25.056 86.9697 24.896 86.9057 24.768C86.8417 24.64 86.6497 24.576 86.3297 24.576C86.0417 24.576 85.7217 24.64 85.3697 24.768C85.0497 24.896 84.7617 25.072 84.5057 25.296C84.2497 25.488 84.1377 25.712 84.1697 25.968C84.1697 26.288 84.3457 26.624 84.6977 26.976ZM87.8177 24.24C87.9777 24.528 87.9937 24.848 87.8657 25.2C87.7377 25.52 87.5297 25.856 87.2417 26.208C86.9857 26.528 86.6817 26.832 86.3297 27.12C86.0097 27.376 85.7217 27.6 85.4657 27.792H85.5137C85.7697 28.048 85.9937 28.288 86.1857 28.512C86.4097 28.704 86.6017 28.928 86.7617 29.184C87.2097 28.864 87.6737 28.56 88.1537 28.272C88.6657 27.952 89.1137 27.68 89.4977 27.456C89.9137 27.2 90.2497 26.992 90.5057 26.832C90.7617 26.672 90.8897 26.592 90.8897 26.592V27.696C90.5057 27.952 90.1057 28.224 89.6897 28.512C89.3377 28.768 88.9217 29.056 88.4417 29.376C87.9617 29.696 87.4657 30.032 86.9537 30.384C86.9217 30.608 86.8417 30.928 86.7137 31.344C86.5857 31.728 86.4257 32.176 86.2337 32.688C86.0417 33.168 85.8017 33.68 85.5137 34.224C85.2577 34.736 84.9857 35.232 84.6977 35.712C84.5057 36.032 84.2817 36.368 84.0257 36.72C83.7697 37.104 83.4977 37.44 83.2097 37.728C82.8897 38.016 82.5537 38.224 82.2017 38.352C81.8177 38.512 81.4177 38.512 81.0017 38.352C80.5537 38.192 80.3137 37.888 80.2817 37.44C80.2497 37.024 80.2977 36.64 80.4257 36.288C80.6497 35.552 80.9697 34.88 81.3857 34.272C81.7697 33.664 82.2177 33.104 82.7297 32.592C83.2097 32.048 83.7217 31.552 84.2657 31.104C84.8097 30.656 85.3537 30.24 85.8977 29.856C85.7697 29.568 85.5617 29.296 85.2737 29.04C84.9857 28.752 84.6817 28.464 84.3617 28.176C84.0737 27.888 83.8017 27.584 83.5457 27.264C83.2897 26.912 83.1297 26.512 83.0657 26.064C83.0017 25.552 83.1777 25.088 83.5937 24.672C83.9777 24.256 84.4417 23.952 84.9857 23.76C85.5617 23.568 86.1217 23.504 86.6657 23.568C87.2097 23.6 87.5937 23.824 87.8177 24.24ZM85.5137 31.44C84.6497 32.176 83.8337 32.96 83.0657 33.792C82.2657 34.624 81.7217 35.568 81.4337 36.624C81.2417 37.232 81.2097 37.568 81.3377 37.632C81.4657 37.696 81.6897 37.584 82.0097 37.296C82.2977 37.008 82.6497 36.592 83.0657 36.048C83.4497 35.536 83.8177 34.992 84.1697 34.416C84.5537 33.808 84.8737 33.232 85.1297 32.688C85.3857 32.144 85.5137 31.728 85.5137 31.44ZM92.6477 21.168C92.9037 21.072 93.1277 21.056 93.3197 21.12C93.5117 21.152 93.6397 21.248 93.7037 21.408C93.7677 21.568 93.7517 21.76 93.6557 21.984C93.5597 22.208 93.3997 22.352 93.1757 22.416C92.9197 22.544 92.6957 22.576 92.5037 22.512C92.3117 22.448 92.1517 22.336 92.0237 22.176C91.8637 21.696 92.0717 21.36 92.6477 21.168ZM92.4077 25.44C92.3757 25.44 92.2797 25.616 92.1197 25.968C91.9917 26.288 91.8157 26.704 91.5917 27.216C91.3677 27.728 91.1437 28.288 90.9197 28.896C90.6957 29.504 90.5037 30.096 90.3437 30.672C90.1837 31.248 90.0717 31.76 90.0077 32.208C89.9437 32.624 89.9917 32.912 90.1517 33.072C90.2477 33.168 90.4557 33.088 90.7757 32.832C91.0957 32.576 91.4637 32.224 91.8797 31.776C92.2957 31.328 92.7277 30.832 93.1757 30.288C93.6237 29.744 94.0237 29.232 94.3757 28.752C94.7597 28.24 95.0797 27.824 95.3357 27.504C95.5917 27.184 95.7197 27.024 95.7197 27.024L96.1517 27.888C95.1277 29.296 94.1837 30.512 93.3197 31.536C92.9357 31.984 92.5517 32.4 92.1677 32.784C91.7837 33.168 91.4157 33.488 91.0637 33.744C90.7117 34 90.3917 34.16 90.1037 34.224C89.8157 34.288 89.5757 34.224 89.3837 34.032C89.1597 33.776 89.0477 33.376 89.0477 32.832C89.0477 32.288 89.1277 31.696 89.2877 31.056C89.4477 30.384 89.6557 29.696 89.9117 28.992C90.1357 28.256 90.3757 27.6 90.6317 27.024C90.8557 26.416 91.0477 25.92 91.2077 25.536C91.3677 25.152 91.4477 24.96 91.4477 24.96L92.4077 25.44ZM96.2323 27.504C96.4243 27.28 96.6963 26.992 97.0483 26.64C97.4323 26.256 97.8163 25.904 98.2003 25.584C98.6163 25.232 99.0003 24.944 99.3523 24.72C99.7363 24.496 100.04 24.432 100.264 24.528C100.52 24.624 100.648 24.864 100.648 25.248C100.648 25.6 100.536 26.096 100.312 26.736C100.12 27.376 99.8963 28.032 99.6403 28.704C99.4163 29.376 99.2083 30 99.0163 30.576C98.8563 31.12 98.7443 31.568 98.6803 31.92C99.0003 31.728 99.4963 31.344 100.168 30.768C100.84 30.16 101.512 29.536 102.184 28.896C102.856 28.224 103.448 27.632 103.96 27.12C104.504 26.576 104.776 26.304 104.776 26.304L104.728 27.6C103.768 28.624 102.872 29.552 102.04 30.384C101.304 31.088 100.6 31.728 99.9283 32.304C99.2563 32.88 98.7443 33.168 98.3923 33.168C97.8803 33.168 97.6243 32.832 97.6243 32.16C97.6243 31.776 97.7203 31.248 97.9123 30.576C98.1363 29.872 98.3763 29.152 98.6323 28.416C98.7923 27.936 98.9363 27.472 99.0643 27.024C99.2243 26.544 99.3363 26.128 99.4003 25.776C98.7603 26.544 98.0723 27.264 97.3363 27.936C96.6003 28.608 95.9603 29.376 95.4163 30.24L92.8243 40.032L91.8643 39.696L100.552 6.144L101.56 6.432L96.2323 27.504ZM114.257 8.64C112.657 13.504 111.217 17.872 109.937 21.744C109.393 23.376 108.865 24.992 108.353 26.592C107.841 28.192 107.377 29.616 106.961 30.864C106.577 32.112 106.257 33.136 106.001 33.936C105.777 34.736 105.665 35.168 105.665 35.232H104.609C104.609 35.168 104.737 34.736 104.993 33.936C105.249 33.104 105.569 32.048 105.953 30.768C106.369 29.488 106.833 28.048 107.345 26.448C107.889 24.848 108.417 23.216 108.929 21.552C109.473 19.888 110.001 18.256 110.513 16.656C111.057 15.056 111.521 13.632 111.905 12.384C112.321 11.136 112.657 10.144 112.913 9.408C113.169 8.64 113.297 8.24 113.297 8.208L114.257 8.64ZM103.457 40.752C103.713 40.656 103.937 40.624 104.129 40.656C104.321 40.72 104.449 40.832 104.513 40.992C104.577 41.152 104.561 41.344 104.465 41.568C104.369 41.792 104.209 41.936 103.985 42C103.729 42.128 103.505 42.16 103.313 42.096C103.121 42.032 102.961 41.92 102.833 41.76C102.673 41.28 102.881 40.944 103.457 40.752Z" fill="#AE4460"/>
</svg>
