<svg width="127" height="98" viewBox="0 0 127 98" fill="none" xmlns="http://www.w3.org/2000/svg">
<path d="M22.6507 46.2856C22.3268 46.2488 22.0618 46.212 21.8484 46.1752C20.6707 46.1384 19.5814 45.623 18.5803 44.6216C18.4037 44.4449 18.1608 44.2241 17.859 43.9811C17.5572 43.7308 17.3291 43.4951 17.1892 43.2816C16.2618 41.9563 15.5773 40.2261 15.1504 38.0835C15.0105 36.9423 14.9369 35.6906 14.9369 34.3285C14.9369 33.7542 14.9516 33.2388 14.9884 32.775C15.0252 32.3111 15.062 31.8988 15.0988 31.538C15.1725 31.2509 15.2093 30.9858 15.2093 30.7355C15.2093 30.522 15.1725 30.4115 15.0988 30.4115C14.9884 30.4115 14.8339 30.5367 14.6131 30.787C13.9359 31.6779 13.2882 32.5909 12.6846 33.5186L10.8077 35.8231C10.8077 35.8231 10.3955 36.3974 9.57116 37.6491C8.06963 39.9389 7.23054 41.1685 7.05389 41.3526C6.76683 41.6397 6.41352 42.1036 5.97926 42.7441C5.40514 43.7087 4.60285 44.4597 3.56503 44.9972C3.38838 45.137 3.07924 45.2107 2.65233 45.2107C2.29167 45.2107 2.0267 45.0708 1.85005 44.7836C1.85005 44.71 1.79852 44.6585 1.68812 44.6216C1.01095 44.4449 0.672382 43.8706 0.672382 42.9061C0.598777 41.9784 0.569336 41.2642 0.569336 40.7636C0.569336 39.9389 0.62086 39.0996 0.731267 38.2455C0.841673 37.3914 1.02568 36.4858 1.29801 35.536C1.56299 34.5862 1.75436 33.953 1.86477 33.6364C3.3295 28.4162 4.54397 24.1973 5.50819 20.9798C5.54499 20.6927 5.68484 20.3024 5.9351 19.8018C6.18535 19.4116 6.54602 19.2128 7.00973 19.2128C7.18638 19.2128 7.33358 19.2348 7.43662 19.2643C7.47342 19.3747 7.59856 19.4631 7.81201 19.5293C8.27572 19.7429 8.51125 20.0521 8.51125 20.4423L8.40085 20.8694L8.02546 22.4229C7.81201 23.1371 7.6648 23.6746 7.59855 24.028L5.34626 31.5896C5.23585 31.9135 5.08865 32.4584 4.88991 33.2241C4.69118 33.9898 4.47037 34.6598 4.22011 35.2341C3.93305 36.3753 3.73432 37.2368 3.63127 37.8111L3.25589 39.4162C3.11605 39.9537 3.04245 40.7415 3.04245 41.7723C3.11605 41.8091 3.20438 41.8238 3.30742 41.8238C3.44727 41.8238 3.55767 41.7354 3.63127 41.5587C3.88153 41.3084 4.24219 40.9697 4.7059 40.5427C5.16961 40.1156 5.56708 39.7033 5.88358 39.3057C6.8846 38.1645 7.59855 37.3031 8.02546 36.7361L9.79197 34.6451C11.4702 32.6424 13.3618 30.2864 15.4742 27.5695C15.9011 27.1056 16.4237 26.443 17.0273 25.5889C17.4174 24.9778 18.0283 24.6759 18.8527 24.6759C19.4268 24.6759 19.7654 24.8526 19.8684 25.2134C19.942 25.5005 19.9788 25.7509 19.9788 25.9644C19.9788 26.1779 19.9052 26.3914 19.7654 26.605C18.8012 28.2469 18.0872 30.522 17.6235 33.4155C17.5867 33.629 17.5793 33.8867 17.594 34.196C17.6088 34.4979 17.6235 34.7261 17.6235 34.866L17.572 36.1545C17.4984 36.9423 17.4836 37.5313 17.5204 37.9215C17.6971 39.4972 18.0062 40.7636 18.4331 41.7281C18.6834 42.2288 19.1618 43.0534 19.8831 44.1946C20.1334 44.5186 20.5235 44.6805 21.0608 44.6805C21.5245 44.6805 21.9735 44.6069 22.4004 44.467C23.7915 44.2167 25.0796 43.5909 26.2573 42.5895C26.6842 42.2288 27.2215 41.5882 27.8619 40.6605C27.9723 40.5206 28.0974 40.3365 28.2372 40.123C28.3771 39.9095 28.5611 39.6739 28.7746 39.4235C29.3119 38.459 29.6873 37.6786 29.9007 37.0895C30.1142 36.5005 30.3497 35.7201 30.5999 34.7555L30.9238 33.5186C31.7114 31.0153 32.2119 28.6224 32.4253 26.3325C32.5358 25.8319 32.6609 24.8305 32.8007 23.3285C32.9111 22.5407 32.9627 21.6572 32.9627 20.6779V18.8299C32.9259 18.1157 32.786 17.453 32.5357 16.8493C32.4989 16.7094 32.3812 16.3634 32.1898 15.8332C31.9911 15.2958 31.969 15.0307 32.1088 15.0307C32.1824 14.9939 32.2855 14.9865 32.4327 15.0013C32.5725 15.0233 32.6682 15.0307 32.6977 15.0307C33.2718 14.9571 33.7944 15.2663 34.2802 15.9437C34.766 16.6211 35.0383 17.269 35.1119 17.8727C35.2223 18.2998 35.2738 19.1097 35.2738 20.2877C35.2738 21.7161 35.1855 23.0561 35.0089 24.3078C34.8984 25.4858 34.7071 26.6123 34.42 27.6873C34.133 28.7623 33.7576 30.0139 33.2939 31.4423C33.1172 31.943 32.9553 32.6793 32.8081 33.6438C32.6682 34.6083 32.5946 35.1458 32.5946 35.2488C32.1972 35.6391 32.1309 35.9999 32.3812 36.3238C32.4916 36.4343 32.4769 36.7361 32.3517 37.2368C32.2266 37.7375 32.1088 38.0762 32.0058 38.2529C31.8954 38.3633 31.7114 38.702 31.439 39.2689C31.1741 39.8432 30.9827 40.2703 30.8796 40.5574C30.7692 40.7341 30.6367 40.9844 30.4748 41.3084C30.3129 41.6324 30.1436 41.8827 29.9669 42.0594C29.3266 42.8472 28.539 43.5614 27.6116 44.202C27.4718 44.202 27.2878 44.2756 27.0743 44.4155C26.2131 45.1665 25.4992 45.704 24.9324 46.0279C24.6085 46.2415 24.2184 46.3519 23.7547 46.3519C23.3646 46.3519 23.004 46.3298 22.6801 46.3004L22.6507 46.2856Z" fill="#AE4460"/>
<path d="M50.6056 34.5712C50.5541 34.6595 50.4731 34.7405 50.3627 34.8142L50.2008 35.0277C49.9505 35.1381 49.899 35.2633 50.0388 35.4032C50.002 35.44 49.9211 35.4989 49.7959 35.5873C49.6708 35.6756 49.5898 35.8302 49.553 36.0437V36.0953C49.5162 36.1984 49.4132 36.3456 49.2292 36.5223L48.5299 37.1113L47.5142 37.9139C47.1903 38.0906 46.815 38.3262 46.388 38.6133C46.2114 38.7164 45.9759 38.871 45.6888 39.0698C45.4017 39.2686 45.1515 39.4012 44.938 39.4748C44.7614 39.5484 44.5627 39.6 44.3492 39.6368C44.1357 39.6736 43.9738 39.6883 43.8634 39.6883C43.7236 39.6883 43.5616 39.7398 43.3776 39.8503C43.2746 39.9239 43.0022 39.9902 42.5753 40.0638C42.2147 40.1742 41.8761 40.2258 41.5596 40.2258C41.0591 40.2258 40.4482 40.1154 39.7342 39.9018C39.2337 39.7251 38.8215 39.5116 38.4976 39.2613C38.4608 39.1876 38.4167 39.1435 38.3652 39.1287C38.3136 39.1067 38.2695 39.0846 38.2327 39.0477C37.9824 38.871 37.6806 38.5103 37.32 37.9728C37.2464 37.8992 37.1801 37.6856 37.1065 37.3322C36.9667 37.0083 36.8931 36.6548 36.8931 36.2573C36.8931 35.0792 37.1801 33.9306 37.7469 32.8262C38.0339 32.3992 38.2621 32.0752 38.4461 31.8617L39.8961 30.1977C40.4334 29.6602 41.0223 29.3731 41.6626 29.3436C41.7362 29.3436 41.9129 29.3068 42.2 29.2332C42.2736 29.1964 42.3766 29.1816 42.5238 29.1816C42.7373 29.1816 42.9507 29.2405 43.1642 29.3657C43.3776 29.4909 43.5175 29.5719 43.5911 29.6087C43.9812 29.7854 44.4154 30.0725 44.8792 30.4701C45.0926 30.61 45.2545 30.8604 45.3649 31.2211C45.4754 31.5819 45.4901 31.8617 45.4165 32.0752C45.3061 32.3624 45.1662 32.5906 44.9896 32.7747L43.5395 34.2767C43.4659 34.3503 43.3703 34.4092 43.2451 34.4608C43.12 34.5123 43.039 34.5786 43.0022 34.6448C42.9654 34.8583 42.8624 34.9909 42.6784 35.0498C42.4944 35.1087 42.3913 35.1455 42.3545 35.1823L41.6038 35.7198C41.6038 35.7198 41.5522 35.8008 41.5522 35.8523C41.5522 35.9039 41.5302 35.948 41.5007 35.9848C41.3241 36.0953 41.1327 36.191 40.9413 36.2793C40.7426 36.3677 40.5586 36.4634 40.3746 36.5739C40.3378 36.5739 40.2126 36.6843 39.9992 36.8978L39.035 37.3838C39.1454 37.7077 39.241 37.9212 39.3294 38.0243C39.4177 38.1348 39.5723 38.2231 39.7857 38.2894C40.0728 38.2526 40.4187 38.2378 40.8309 38.2378C41.2431 38.2378 41.589 38.2231 41.8761 38.1863C42.1263 38.1495 42.406 38.0759 42.7078 37.9728C43.0096 37.8623 43.2157 37.7961 43.3261 37.7593L44.5626 37.2218C44.6731 37.185 44.8055 37.1482 44.9675 37.1113C45.1294 37.0745 45.2619 37.023 45.3723 36.9494L47.1388 35.9333L47.3007 35.8229L49.3396 34.5859C49.6929 34.4092 49.9137 34.284 49.9799 34.2104L51.8053 32.8704L51.9157 33.2459L51.9673 33.2974L51.5404 33.6729L50.7381 34.3724C50.7381 34.3724 50.6571 34.4681 50.6056 34.5638V34.5712ZM39.9109 34.6522L41.3609 33.4741L42.8109 32.1856C43.0611 31.9721 43.3114 31.6482 43.5616 31.2211C43.5984 31.1843 43.6132 31.1107 43.6132 31.0076C43.6132 30.9045 43.569 30.7941 43.4807 30.6837C43.3923 30.5806 43.3114 30.5438 43.2378 30.5806C43.0611 30.6542 42.8256 30.7205 42.5385 30.7941C42.2515 30.8677 42.0233 30.9708 41.8393 31.1181C41.6994 31.2285 41.4786 31.3757 41.1989 31.5745C40.9119 31.7733 40.6837 31.9942 40.4997 32.2446C40.1096 32.782 39.7342 33.4079 39.3735 34.1221C39.2631 34.3724 39.138 34.7479 38.9982 35.2486L39.9109 34.6595V34.6522Z" fill="#AE4460"/>
<path d="M76.2055 5.643C76.2055 5.89334 76.1172 6.25412 75.9405 6.71797L75.6756 7.73404C75.602 8.09481 75.521 8.43349 75.4327 8.75009C75.3443 9.07405 75.2634 9.39066 75.1898 9.71462C75.1898 9.78825 75.1383 9.83978 75.0279 9.87659C75.1015 10.0901 75.1383 10.3036 75.1383 10.5172C75.1383 10.9442 74.9984 11.2313 74.7113 11.3786L74.4464 12.1296C74.2697 12.1296 74.1446 12.1517 74.071 12.1811V12.2327L74.0195 12.4977C73.9827 12.6745 73.9679 12.9616 73.9679 13.3518L73.703 13.4623C73.5926 13.9629 73.4674 14.2869 73.3276 14.4268C73.3276 14.6771 73.1877 15.0526 72.9007 15.5533L72.3118 16.1938C72.1352 16.481 72.0248 16.6798 71.988 16.7829H71.8776C71.8408 17.1436 71.7893 17.394 71.7157 17.5339C71.642 17.6738 71.539 17.8357 71.3918 18.0198L70.376 19.2568C70.4865 19.2936 70.192 19.8163 69.4928 20.8398C68.7935 21.8558 68.3372 22.4743 68.1238 22.6878C68.0501 22.7614 67.9324 22.9308 67.7778 23.1958C67.6159 23.4609 67.4466 23.726 67.2699 23.9763L66.5707 25.3679C66.5707 25.3679 66.4824 25.4194 66.4088 25.5298C66.3351 25.6403 66.2689 25.6697 66.1953 25.6403L65.7684 26.3913C65.5917 26.6784 65.4225 26.8919 65.2605 27.0318C65.0986 27.1717 65.0029 27.2822 64.9661 27.3558C64.7527 27.4957 64.5171 27.746 64.2669 28.1068C64.0902 28.2835 63.9651 28.3719 63.8915 28.3719C63.8547 28.4455 63.8179 28.5044 63.7884 28.5559C63.7516 28.6075 63.7148 28.6737 63.678 28.7474C63.6412 28.7842 63.5676 28.8873 63.4646 29.0713L61.1092 32.0753C61.0356 32.1858 60.9988 32.3109 60.9988 32.4508V32.6644C60.9988 32.8042 60.962 32.9 60.8884 32.9294C60.9252 32.9662 60.9399 33.0178 60.9399 33.0914C60.9399 33.165 60.8884 33.2902 60.778 33.4669L60.7265 33.5773C60.7265 33.651 60.7412 33.7172 60.778 33.7909C60.8148 33.8645 60.8295 33.9528 60.8295 34.0559L61.0945 35.9334L61.2565 36.5224C61.2565 36.5961 61.2712 36.6771 61.308 36.7654C61.3448 36.8538 61.3963 36.92 61.4699 36.9495C61.6098 37.163 61.8306 37.3471 62.1103 37.4869C62.3973 37.5974 62.677 37.6563 62.942 37.6784C63.207 37.7005 63.4867 37.6857 63.7737 37.6489C64.2374 37.6489 65.0397 37.4722 66.188 37.1115C66.5781 36.9716 66.9976 36.7801 67.4466 36.5445C67.8956 36.3163 68.2268 36.1396 68.4402 36.0365L70.1037 35.2339L70.906 34.748C70.906 34.748 70.9796 34.7038 71.0164 34.7186C71.0532 34.7406 71.09 34.748 71.1268 34.748C70.7293 35.3886 70.5527 35.7125 70.5895 35.7125L69.5738 36.7286C69.6842 36.7654 69.7357 36.8169 69.7357 36.8906C69.272 37.2513 68.7862 37.6563 68.2857 38.1275C68.109 38.238 67.9029 38.3337 67.6674 38.422C67.4319 38.5104 67.2111 38.5914 66.9976 38.665C66.5707 38.7754 66.2321 38.9006 65.9819 39.0405C65.4813 39.254 65.0544 39.3792 64.6938 39.416C64.5171 39.4896 64.2301 39.5264 63.84 39.5264C63.6633 39.5264 63.4793 39.5044 63.3027 39.4749C63.126 39.4381 62.942 39.4234 62.7653 39.4234C62.0514 39.4234 61.3374 39.2246 60.6235 38.8343C60.0493 38.4073 59.674 37.9434 59.4973 37.4428L59.3354 37.2808L59.2838 37.0673C59.2102 36.7433 59.1146 36.4046 58.9894 36.0512C58.8643 35.6904 58.7833 35.4401 58.7465 35.3002L58.1577 36.1617C58.0841 36.2353 58.0252 36.3236 57.9737 36.4267C57.9222 36.5372 57.878 36.6255 57.8412 36.6918C57.6278 36.9789 57.4364 37.1998 57.2818 37.3618C57.1199 37.5238 56.9874 37.6784 56.877 37.8183L55.6993 39.0552C55.3387 39.3056 54.8234 39.6074 54.1463 39.9682C53.7194 40.2554 53.2336 40.3953 52.6963 40.3953C52.2988 40.3953 51.9455 40.3437 51.6216 40.2333C51.4082 40.1965 51.1726 40.0787 50.9224 39.8872C50.6721 39.6884 50.5102 39.5706 50.4366 39.5412C50.3262 39.4675 50.2305 39.3276 50.1422 39.1141C50.0539 38.9006 49.9729 38.7239 49.8993 38.5766V38.3631C49.8993 38.1864 49.811 37.8993 49.6343 37.5017C49.4577 37.1115 49.3841 36.7728 49.4209 36.4856C49.5313 36.1985 49.6564 35.6242 49.7962 34.7701V34.7186H49.9066L50.4955 33.1061C50.4955 33.1061 50.5691 33.0546 50.6059 33.0546C50.9297 32.414 51.1579 32.0017 51.3051 31.8176L51.629 31.3317C53.0937 29.7266 54.6468 28.9167 56.2955 28.9167C56.9359 28.9167 57.4953 29.0271 57.959 29.2407C58.4227 29.6309 58.6582 30.0947 58.6582 30.6322C58.6582 31.0961 58.408 31.5599 57.9074 32.0238H57.6425C57.1052 32.0238 56.7813 31.6851 56.6783 31.0077C56.5679 30.6838 56.3176 30.5218 55.9275 30.5218C55.6772 30.5218 55.3902 30.5733 55.0737 30.6838C54.9633 30.7574 54.8381 30.8457 54.6983 30.9488C54.5584 31.0519 54.4333 31.1623 54.3229 31.2728C53.6458 31.8471 53.0864 32.5981 52.6594 33.5258L52.2841 34.2253C52.2841 34.3651 52.2473 34.4903 52.1737 34.6007C51.9602 35.3149 51.8498 35.8156 51.8498 36.1028C51.8498 36.1764 51.8277 36.2647 51.7983 36.3678C51.7615 36.4783 51.7247 36.5445 51.6879 36.5813C51.5112 36.9053 51.4376 37.2513 51.4744 37.6268C51.5112 38.0023 51.5259 38.2969 51.5259 38.5104C51.7394 38.6208 51.9381 38.6724 52.1148 38.6724C52.4018 38.6724 52.7551 38.5472 53.1894 38.2969C53.6899 38.0097 54.08 37.7226 54.3671 37.4354C54.5437 37.2955 54.7425 37.0894 54.9559 36.8169C55.1694 36.5519 55.3681 36.3236 55.5447 36.1469C55.6183 35.9702 55.7582 35.7788 55.9716 35.58C56.1851 35.3812 56.347 35.2119 56.4574 35.072L57.9074 33.0325L58.7686 31.4789C58.7686 31.5526 58.8937 31.2801 59.144 30.6764C59.144 30.6028 59.1587 30.5365 59.1955 30.4629C59.2323 30.3893 59.2471 30.3377 59.2471 30.3009C59.3207 30.161 59.3575 29.999 59.3575 29.815L59.8948 26.2219C60.2481 24.6463 60.4689 23.7554 60.5351 23.5419L60.962 21.3404C60.9988 21.2005 61.1681 20.6189 61.4699 19.5954C61.7717 18.5794 61.9999 17.8357 62.1397 17.3719C62.3164 16.5841 62.7506 15.2956 63.4278 13.5138C63.7148 12.6597 63.9283 12.1222 64.0681 11.9087L64.5539 10.4583L65.3562 8.90471C65.4298 8.76482 65.4887 8.61021 65.5402 8.44823C65.5918 8.28625 65.6727 8.10217 65.7831 7.88129C66.0334 7.59414 66.1732 7.34381 66.21 7.13029L66.6958 6.21731C66.6958 6.14368 66.7106 6.09214 66.7474 6.05533C66.924 5.84181 67.1963 5.37796 67.5496 4.66377C67.5496 4.59014 67.5864 4.55332 67.6527 4.55332C67.7263 4.41343 67.822 4.27353 67.9471 4.14837C68.0722 4.0232 68.1679 3.89068 68.2415 3.74342L68.293 3.63297C68.293 3.38264 68.3814 3.16912 68.558 2.99242C68.7347 2.81571 68.8598 2.69055 68.9334 2.61692L69.6326 1.70393C70.3098 0.952932 71.2961 0.452258 72.5842 0.201924C72.724 0.16511 72.9228 0.150391 73.173 0.150391C73.887 0.150391 74.5273 0.363907 75.1014 0.790947C75.3885 0.93084 75.6093 1.1959 75.7712 1.5714C75.9332 1.9469 76.0657 2.22669 76.1761 2.40339V2.61692C76.1761 2.75681 76.1466 2.94824 76.0951 3.17649C76.0436 3.41209 76.0509 3.59617 76.1246 3.74342C76.0877 3.85386 76.0362 3.92012 75.9626 3.95694L76.1246 4.2809L76.1761 5.24542L76.2276 5.62092L76.2055 5.643ZM62.1618 26.9288C62.3384 26.752 62.8242 26.1262 63.6118 25.0512C63.7884 24.8745 63.9504 24.6758 64.0976 24.4622C64.2374 24.2487 64.3994 24.0352 64.5834 23.8217L65.5991 22.3712L66.8357 20.6557L67.9618 18.9402C68.0722 18.7266 68.2194 18.4763 68.4182 18.1892C68.6169 17.902 68.7641 17.6885 68.8745 17.5486L69.6253 16.2086L70.5895 14.4415C71.0164 13.7641 71.3403 13.1751 71.5537 12.6744L72.4149 10.3699L72.9007 9.29494C73.2245 8.4335 73.4159 7.71931 73.4895 7.15237C73.5263 6.86523 73.7177 5.84917 74.0784 4.09683C74.152 3.59616 74.1888 3.22066 74.1888 2.97033C74.1888 2.50648 74.0783 2.05734 73.8649 1.6303C73.8649 1.4536 73.8281 1.36524 73.7545 1.36524C73.4674 1.43887 73.254 1.52722 73.1141 1.6303L72.7387 2.05734C72.6651 2.16778 72.5695 2.24141 72.4443 2.30032C72.3192 2.35186 72.2382 2.39604 72.2014 2.43285L71.1857 3.4489C70.6484 3.98639 70.0596 4.73739 69.4192 5.70191C69.2425 5.95224 69.0806 6.20258 68.9334 6.45291C68.6831 6.91677 68.3961 7.34381 68.0796 7.7414L67.6527 8.75746C67.6159 8.8679 67.557 9.03725 67.4687 9.26549C67.3803 9.5011 67.2847 9.68517 67.1742 9.82506L66.5854 10.8411C66.5486 11.0178 66.5118 11.1724 66.475 11.2976C66.4382 11.4228 66.4014 11.5185 66.3646 11.5921C66.1511 11.8793 66.0039 12.0928 65.9377 12.2327C65.8641 12.4094 65.8126 12.6008 65.7758 12.7996C65.739 12.9984 65.7022 13.1825 65.6727 13.3592C65.4961 13.72 65.2605 14.3237 64.9735 15.1851L64.6496 16.3632C64.576 16.4368 64.5098 16.6135 64.4362 16.9007C64.3626 17.1878 64.2374 17.3498 64.0608 17.3866L64.1123 17.6517L63.8473 18.6677C63.7737 18.8813 63.6854 19.1095 63.5823 19.3377C63.4719 19.5734 63.4057 19.7942 63.3689 20.0078C63.2953 20.5452 63.1922 20.8986 63.045 21.0827C63.0082 21.2594 62.9346 21.4582 62.8316 21.6717C62.7285 21.8853 62.6549 22.0472 62.6181 22.1577V22.2681C62.6181 22.5185 62.6917 22.6804 62.8316 22.7541C62.758 22.894 62.6697 23.1148 62.5666 23.3946L62.5151 23.5566C62.3752 23.7333 62.3016 23.9616 62.3016 24.2266C62.3016 24.4917 62.2795 24.6684 62.2501 24.7347C62.2501 24.7715 62.2648 24.7936 62.3016 24.8156C62.3384 24.8377 62.3752 24.8451 62.412 24.8451C62.412 24.8819 62.4194 24.9187 62.4415 24.9555C62.4562 24.9924 62.4488 25.0292 62.412 25.066L61.9851 25.9201L61.8232 26.6711C61.6834 26.9582 61.6098 27.2969 61.6098 27.6871C61.573 27.7239 61.7717 27.4736 62.1986 26.9361L62.1618 26.9288Z" fill="#AE4460"/>
<path d="M95.5561 5.643C95.5561 5.89334 95.4678 6.25412 95.2911 6.71797L95.0261 7.73404C94.9525 8.09481 94.8716 8.43349 94.7833 8.75009C94.6949 9.07405 94.614 9.39066 94.5403 9.71462C94.5403 9.78825 94.4888 9.83978 94.3784 9.87659C94.452 10.0901 94.4888 10.3036 94.4888 10.5172C94.4888 10.9442 94.349 11.2313 94.0619 11.3786L93.797 12.1296C93.6203 12.1296 93.4952 12.1517 93.4216 12.1811V12.2327L93.37 12.4977C93.3332 12.6745 93.3185 12.9616 93.3185 13.3518L93.0535 13.4623C92.9431 13.9629 92.818 14.2869 92.6782 14.4268C92.6782 14.6771 92.5383 15.0526 92.2513 15.5533L91.6624 16.1938C91.4858 16.481 91.3754 16.6798 91.3386 16.7829H91.2281C91.1913 17.1436 91.1398 17.394 91.0662 17.5339C90.9926 17.6738 90.8896 17.8357 90.7424 18.0198L89.7266 19.2568C89.837 19.2936 89.5426 19.8163 88.8434 20.8398C88.1441 21.8558 87.6878 22.4743 87.4743 22.6878C87.4007 22.7614 87.283 22.9308 87.1284 23.1958C86.9665 23.4609 86.7972 23.726 86.6205 23.9763L85.9213 25.3679C85.9213 25.3679 85.8329 25.4194 85.7593 25.5298C85.6857 25.6403 85.6195 25.6697 85.5459 25.6403L85.119 26.3913C84.9423 26.6784 84.773 26.8919 84.6111 27.0318C84.4492 27.1717 84.3535 27.2822 84.3167 27.3558C84.1032 27.4957 83.8677 27.746 83.6174 28.1068C83.4408 28.2835 83.3157 28.3719 83.2421 28.3719C83.2053 28.4455 83.1685 28.5044 83.139 28.5559C83.1022 28.6075 83.0654 28.6737 83.0286 28.7474C82.9918 28.7842 82.9182 28.8873 82.8152 29.0713L80.4598 32.0753C80.3862 32.1858 80.3494 32.3109 80.3494 32.4508V32.6644C80.3494 32.8042 80.3126 32.9 80.239 32.9294C80.2758 32.9662 80.2905 33.0178 80.2905 33.0914C80.2905 33.165 80.239 33.2902 80.1286 33.4669L80.0771 33.5773C80.0771 33.651 80.0918 33.7172 80.1286 33.7909C80.1654 33.8645 80.1801 33.9528 80.1801 34.0559L80.4451 35.9334L80.607 36.5224C80.607 36.5961 80.6218 36.6771 80.6586 36.7654C80.6954 36.8538 80.7469 36.92 80.8205 36.9495C80.9603 37.163 81.1811 37.3471 81.4608 37.4869C81.7479 37.5974 82.0276 37.6563 82.2926 37.6784C82.5576 37.7005 82.8373 37.6857 83.1243 37.6489C83.588 37.6489 84.3903 37.4722 85.5385 37.1115C85.9286 36.9716 86.3482 36.7801 86.7972 36.5445C87.2462 36.3163 87.5774 36.1396 87.7908 36.0365L89.4543 35.2339L90.2566 34.748C90.2566 34.748 90.3302 34.7038 90.367 34.7186C90.4038 34.7406 90.4406 34.748 90.4774 34.748C90.0799 35.3886 89.9033 35.7125 89.9401 35.7125L88.9243 36.7286C89.0348 36.7654 89.0863 36.8169 89.0863 36.8906C88.6225 37.2513 88.1368 37.6563 87.6363 38.1275C87.4596 38.238 87.2535 38.3337 87.018 38.422C86.7824 38.5104 86.5616 38.5914 86.3482 38.665C85.9213 38.7754 85.5827 38.9006 85.3324 39.0405C84.8319 39.254 84.405 39.3792 84.0444 39.416C83.8677 39.4896 83.5807 39.5264 83.1906 39.5264C83.0139 39.5264 82.8299 39.5044 82.6532 39.4749C82.4766 39.4381 82.2926 39.4234 82.1159 39.4234C81.402 39.4234 80.688 39.2246 79.974 38.8343C79.3999 38.4073 79.0245 37.9434 78.8479 37.4428L78.686 37.2808L78.6344 37.0673C78.5608 36.7433 78.4652 36.4046 78.34 36.0512C78.2149 35.6904 78.1339 35.4401 78.0971 35.3002L77.5083 36.1617C77.4347 36.2353 77.3758 36.3236 77.3243 36.4267C77.2728 36.5372 77.2286 36.6255 77.1918 36.6918C76.9783 36.9789 76.787 37.1998 76.6324 37.3618C76.4705 37.5238 76.338 37.6784 76.2276 37.8183L75.0499 39.0552C74.6892 39.3056 74.174 39.6074 73.4968 39.9682C73.0699 40.2554 72.5841 40.3953 72.0468 40.3953C71.6494 40.3953 71.2961 40.3437 70.9722 40.2333C70.7588 40.1965 70.5232 40.0787 70.273 39.8872C70.0227 39.6884 69.8608 39.5706 69.7872 39.5412C69.6768 39.4675 69.5811 39.3276 69.4928 39.1141C69.4044 38.9006 69.3235 38.7239 69.2499 38.5766V38.3631C69.2499 38.1864 69.1615 37.8993 68.9849 37.5017C68.8082 37.1115 68.7346 36.7728 68.7714 36.4856C68.8818 36.1985 69.007 35.6242 69.1468 34.7701V34.7186H69.2572L69.8461 33.1061C69.8461 33.1061 69.9197 33.0546 69.9565 33.0546C70.2803 32.414 70.5085 32.0017 70.6557 31.8176L70.9796 31.3317C72.4443 29.7266 73.9974 28.9167 75.6461 28.9167C76.2865 28.9167 76.8458 29.0271 77.3095 29.2407C77.7733 29.6309 78.0088 30.0947 78.0088 30.6322C78.0088 31.0961 77.7585 31.5599 77.258 32.0238H76.993C76.4557 32.0238 76.1319 31.6851 76.0288 31.0077C75.9184 30.6838 75.6682 30.5218 75.2781 30.5218C75.0278 30.5218 74.7408 30.5733 74.4243 30.6838C74.3139 30.7574 74.1887 30.8457 74.0489 30.9488C73.909 31.0519 73.7839 31.1623 73.6735 31.2728C72.9963 31.8471 72.4369 32.5981 72.01 33.5258L71.6346 34.2253C71.6346 34.3651 71.5978 34.4903 71.5242 34.6007C71.3108 35.3149 71.2004 35.8156 71.2004 36.1028C71.2004 36.1764 71.1783 36.2647 71.1489 36.3678C71.1121 36.4783 71.0753 36.5445 71.0385 36.5813C70.8618 36.9053 70.7882 37.2513 70.825 37.6268C70.8618 38.0023 70.8765 38.2969 70.8765 38.5104C71.09 38.6208 71.2887 38.6724 71.4654 38.6724C71.7524 38.6724 72.1057 38.5472 72.54 38.2969C73.0405 38.0097 73.4306 37.7226 73.7177 37.4354C73.8943 37.2955 74.093 37.0894 74.3065 36.8169C74.5199 36.5519 74.7187 36.3236 74.8953 36.1469C74.9689 35.9702 75.1088 35.7788 75.3222 35.58C75.5357 35.3812 75.6976 35.2119 75.808 35.072L77.258 33.0325L78.1192 31.4789C78.1192 31.5526 78.2443 31.2801 78.4946 30.6764C78.4946 30.6028 78.5093 30.5365 78.5461 30.4629C78.5829 30.3893 78.5976 30.3377 78.5976 30.3009C78.6712 30.161 78.708 29.999 78.708 29.815L79.2453 26.2219C79.5986 24.6463 79.8195 23.7554 79.8857 23.5419L80.3126 21.3404C80.3494 21.2005 80.5187 20.6189 80.8205 19.5954C81.1223 18.5794 81.3504 17.8357 81.4903 17.3719C81.6669 16.5841 82.1012 15.2956 82.7784 13.5138C83.0654 12.6597 83.2789 12.1222 83.4187 11.9087L83.9045 10.4583L84.7068 8.90471C84.7804 8.76482 84.8393 8.61021 84.8908 8.44823C84.9423 8.28625 85.0233 8.10217 85.1337 7.88129C85.384 7.59414 85.5238 7.34381 85.5606 7.13029L86.0464 6.21731C86.0464 6.14368 86.0611 6.09214 86.0979 6.05533C86.2746 5.84181 86.5469 5.37796 86.9002 4.66377C86.9002 4.59014 86.937 4.55332 87.0033 4.55332C87.0769 4.41343 87.1725 4.27353 87.2977 4.14837C87.4228 4.0232 87.5185 3.89068 87.5921 3.74342L87.6436 3.63297C87.6436 3.38264 87.732 3.16912 87.9086 2.99242C88.0853 2.81571 88.2104 2.69055 88.284 2.61692L88.9832 1.70393C89.6604 0.952932 90.6467 0.452258 91.9348 0.201924C92.0746 0.16511 92.2733 0.150391 92.5236 0.150391C93.2376 0.150391 93.8779 0.363907 94.452 0.790947C94.7391 0.93084 94.9599 1.1959 95.1218 1.5714C95.2838 1.9469 95.4162 2.22669 95.5266 2.40339V2.61692C95.5266 2.75681 95.4972 2.94824 95.4457 3.17649C95.3942 3.41209 95.4015 3.59617 95.4751 3.74342C95.4383 3.85386 95.3868 3.92012 95.3132 3.95694L95.4751 4.2809L95.5266 5.24542L95.5782 5.62092L95.5561 5.643ZM81.5124 26.9288C81.689 26.752 82.1748 26.1262 82.9624 25.0512C83.139 24.8745 83.301 24.6758 83.4482 24.4622C83.588 24.2487 83.7499 24.0352 83.9339 23.8217L84.9497 22.3712L86.1863 20.6557L87.3124 18.9402C87.4228 18.7266 87.57 18.4763 87.7688 18.1892C87.9675 17.902 88.1147 17.6885 88.2251 17.5486L88.9759 16.2086L89.9401 14.4415C90.367 13.7641 90.6908 13.1751 90.9043 12.6744L91.7655 10.3699L92.2513 9.29494C92.5751 8.4335 92.7665 7.71931 92.8401 7.15237C92.8769 6.86523 93.0683 5.84917 93.4289 4.09683C93.5025 3.59616 93.5393 3.22066 93.5393 2.97033C93.5393 2.50648 93.4289 2.05734 93.2155 1.6303C93.2155 1.4536 93.1787 1.36524 93.1051 1.36524C92.818 1.43887 92.6046 1.52722 92.4647 1.6303L92.0893 2.05734C92.0157 2.16778 91.92 2.24141 91.7949 2.30032C91.6698 2.35186 91.5888 2.39604 91.552 2.43285L90.5363 3.4489C89.999 3.98639 89.4101 4.73739 88.7698 5.70191C88.5931 5.95224 88.4312 6.20258 88.284 6.45291C88.0337 6.91677 87.7467 7.34381 87.4302 7.7414L87.0033 8.75746C86.9665 8.8679 86.9076 9.03725 86.8192 9.26549C86.7309 9.5011 86.6352 9.68517 86.5248 9.82506L85.936 10.8411C85.8992 11.0178 85.8624 11.1724 85.8256 11.2976C85.7888 11.4228 85.752 11.5185 85.7152 11.5921C85.5017 11.8793 85.3545 12.0928 85.2883 12.2327C85.2147 12.4094 85.1632 12.6008 85.1264 12.7996C85.0896 12.9984 85.0527 13.1825 85.0233 13.3592C84.8466 13.72 84.6111 14.3237 84.3241 15.1851L84.0002 16.3632C83.9266 16.4368 83.8604 16.6135 83.7867 16.9007C83.7131 17.1878 83.588 17.3498 83.4114 17.3866L83.4629 17.6517L83.1979 18.6677C83.1243 18.8813 83.036 19.1095 82.9329 19.3377C82.8225 19.5734 82.7563 19.7942 82.7195 20.0078C82.6459 20.5452 82.5428 20.8986 82.3956 21.0827C82.3588 21.2594 82.2852 21.4582 82.1822 21.6717C82.0791 21.8853 82.0055 22.0472 81.9687 22.1577V22.2681C81.9687 22.5185 82.0423 22.6804 82.1822 22.7541C82.1086 22.894 82.0202 23.1148 81.9172 23.3946L81.8657 23.5566C81.7258 23.7333 81.6522 23.9616 81.6522 24.2266C81.6522 24.4917 81.6301 24.6684 81.6007 24.7347C81.6007 24.7715 81.6154 24.7936 81.6522 24.8156C81.689 24.8377 81.7258 24.8451 81.7626 24.8451C81.7626 24.8819 81.77 24.9187 81.7921 24.9555C81.8068 24.9924 81.7994 25.0292 81.7626 25.066L81.3357 25.9201L81.1738 26.6711C81.0339 26.9582 80.9603 27.2969 80.9603 27.6871C80.9235 27.7239 81.1223 27.4736 81.5492 26.9361L81.5124 26.9288Z" fill="#AE4460"/>
<path d="M89.5496 36.1541C89.6232 35.6903 89.7998 34.9908 90.0869 34.0631C90.1237 33.8864 90.3739 32.9219 90.8376 31.1695V30.7425C90.764 30.4922 90.8376 30.367 91.0511 30.367C91.0879 30.367 91.1468 30.3523 91.2351 30.3155C91.3234 30.2786 91.4265 30.3376 91.5295 30.4774C91.6031 30.5511 91.7283 30.6542 91.9049 30.8014C92.0816 30.9413 92.192 31.0665 92.2288 31.1769C92.5526 31.4272 92.744 31.626 92.8176 31.7659C92.928 31.9794 92.9427 32.2519 92.8691 32.5685C92.8691 32.782 92.7955 33.0691 92.6557 33.4299C92.5821 33.6802 92.3907 34.3429 92.0668 35.4105C91.927 35.6976 91.8313 35.9112 91.8019 36.0511C91.7282 36.1909 91.6914 36.2867 91.6914 36.3161C91.7283 36.3897 91.743 36.4781 91.743 36.5812C91.743 36.7579 91.7062 36.964 91.6326 37.1996C91.559 37.4352 91.5074 37.6414 91.4706 37.8181C91.4706 37.9948 91.4412 38.2378 91.3897 38.5397C91.3381 38.8415 91.294 39.1066 91.2572 39.3201C91.8681 39.1434 92.3613 38.8931 92.7587 38.5691L93.6199 37.8181C94.4074 37.1776 94.9963 36.6548 95.3864 36.2646L96.7775 34.9245L97.7933 33.9085C99.0813 32.7305 99.7585 32.1046 99.8321 32.031C99.9057 32.1046 99.9425 32.193 99.9425 32.296C99.9425 32.4728 99.8689 32.6863 99.7291 32.9366L99.6775 32.9881C99.6039 33.0912 99.361 33.4594 98.9562 34.0852C98.544 34.711 98.2643 35.116 98.1245 35.2927C98.0509 35.4031 97.9331 35.624 97.7786 35.9627C97.6166 36.3014 97.3737 36.6842 97.0572 37.1186L96.4684 37.9801L96.2034 38.3556L95.9384 38.6207C95.5778 38.8342 95.2024 39.2097 94.8123 39.7472C94.6356 39.9607 94.3633 40.1963 94.01 40.4466C93.9069 40.5497 93.7524 40.6307 93.5536 40.6896C93.3549 40.7411 93.2224 40.7853 93.1488 40.8221L92.0742 41.3596L91.8092 41.4111C91.6326 41.4111 91.3602 41.3375 91.0069 41.1976C90.7567 41.1608 90.5432 41.0356 90.3666 40.8221C90.1899 40.6086 90.028 40.4466 89.8808 40.3362C89.844 40.2994 89.8072 40.2478 89.7704 40.1742C89.7336 40.1006 89.7189 40.049 89.7189 40.0122C89.6821 39.8723 89.5937 39.7251 89.4539 39.5852C89.4171 39.4747 89.3729 39.3864 89.3214 39.3201C89.2699 39.2465 89.2257 39.1581 89.1889 39.0551C89.1153 38.3409 89.2404 37.3764 89.5643 36.1615L89.5496 36.1541ZM92.2288 27.0611C92.1184 27.0096 92.0153 26.9286 91.9049 26.8182C91.581 26.4574 91.478 26.0156 91.581 25.4781C91.6915 25.1173 91.8681 24.8228 92.1184 24.5946C92.3686 24.3663 92.7072 24.1381 93.1341 23.9246C93.1709 23.8878 93.2592 23.873 93.3991 23.873H93.6125C94.0394 23.873 94.3118 24.035 94.4148 24.359C94.4516 24.4326 94.5031 24.5946 94.5768 24.8449C94.6504 25.0953 94.6872 25.3309 94.6872 25.5444C94.6872 25.9346 94.5988 26.2439 94.4222 26.4574C94.2455 26.6709 94.0468 26.8623 93.8333 27.0243C93.6199 27.1863 93.4727 27.282 93.4064 27.3188C93.3328 27.3556 93.2077 27.3704 93.0311 27.3704C92.8912 27.3704 92.7072 27.3188 92.4937 27.2084C92.4201 27.1716 92.3318 27.1274 92.2288 27.0758V27.0611Z" fill="#AE4460"/>
<path d="M98.7432 40.8227C98.4782 40.4988 98.3604 40.2484 98.3972 40.0717L98.883 37.3401C99.3467 35.7277 99.6117 34.7853 99.6853 34.4981C99.7221 34.4245 99.8251 33.7987 100.009 32.6206C100.009 32.5102 99.9871 32.4586 99.9576 32.4586C99.884 32.3187 99.8472 32.2083 99.8472 32.1347L99.8987 31.6487C99.9355 31.3616 100.039 31.2217 100.223 31.2217C100.9 31.2217 101.474 31.5825 101.938 32.2966L101.989 32.4071C101.916 32.731 101.849 33.136 101.776 33.644C101.702 34.2551 101.651 34.5938 101.614 34.6601L101.238 35.7351L101.187 35.9486L101.238 35.897C101.812 35.0356 102.401 34.3067 103.005 33.6956C103.358 33.2685 103.734 32.9078 104.131 32.6206C104.308 32.5102 104.595 32.4439 104.985 32.4071C105.235 32.4071 105.471 32.4439 105.684 32.5102C105.758 32.5102 105.89 32.5617 106.089 32.6721C106.288 32.7826 106.523 32.9077 106.81 33.0476C106.81 33.1213 106.818 33.2317 106.84 33.3937C106.854 33.5557 106.921 33.6514 107.024 33.6882C107.06 33.6882 107.068 33.725 107.053 33.7913C107.031 33.8649 107.024 33.9312 107.024 34.0048C107.2 34.4687 107.311 34.9546 107.348 35.4553C107.348 35.7424 107.311 36.1695 107.237 36.7438C107.237 36.7806 107.244 36.8395 107.267 36.9278C107.281 37.0162 107.274 37.0972 107.237 37.1708C107.274 37.4211 107.289 37.8114 107.289 38.3488L107.451 38.8863C107.451 38.9599 107.524 39.063 107.664 39.2103H107.826L108.952 38.6213C109.305 38.5108 109.615 38.3562 109.865 38.1353L114.848 33.3642C115.024 33.3642 115.15 33.4158 115.223 33.5262C115.297 33.6367 115.26 33.7618 115.113 33.9017L114.627 34.6527C114.59 34.7632 114.553 34.8736 114.517 34.9988C114.48 35.1239 114.443 35.2418 114.406 35.3448C114.266 35.5952 114.082 35.8087 113.869 35.9854L112.956 37.0604C112.956 37.0604 112.934 37.1561 112.905 37.2444C112.868 37.3328 112.78 37.4138 112.64 37.4874L112.691 37.6494C112.691 37.6494 112.61 37.7009 112.559 37.7009C112.507 37.7009 112.478 37.723 112.478 37.7524C112.367 37.966 112.198 38.1795 111.97 38.393C111.734 38.6065 111.565 38.7685 111.462 38.879C111.175 39.2029 110.748 39.5563 110.174 39.9539C109.784 40.2411 109.313 40.4178 108.783 40.4914C108.253 40.565 107.892 40.6166 107.708 40.6534H107.657C107.583 40.6166 107.473 40.5724 107.311 40.5209C107.149 40.4693 106.994 40.3515 106.854 40.1748C106.28 39.7478 105.905 39.225 105.728 38.6213C105.404 37.48 105.279 36.4566 105.353 35.5657L105.404 34.6012C105.264 34.4245 105.169 34.314 105.139 34.2772C105.066 34.5644 104.977 34.7632 104.874 34.8662C104.764 34.9693 104.609 35.043 104.389 35.0798C104.278 35.4774 104.028 35.7571 103.638 35.9412V35.9927C103.638 36.1326 103.572 36.2578 103.446 36.3683C103.321 36.4787 103.226 36.5818 103.152 36.6922C103.115 36.7658 103.056 36.8542 102.968 36.9573C102.88 37.0677 102.85 37.1192 102.887 37.1192L102.622 37.4948C102.482 37.7083 102.276 38.0838 102.004 38.6213C101.739 39.1587 101.496 39.6373 101.282 40.0717C101.069 40.3589 100.834 40.4988 100.583 40.4988L100.421 40.8743L100.259 41.0362C100.149 41.2498 100.039 41.3823 99.9135 41.4412C99.7883 41.4927 99.619 41.4854 99.4056 41.4117C99.2289 41.3381 99.0008 41.1467 98.7358 40.8227H98.7432Z" fill="#AE4460"/>
<path d="M126.219 42.9653C126.433 42.9653 126.609 43.0463 126.757 43.2082C126.896 43.3702 126.97 43.5396 126.97 43.7163L122.576 44.9532L122.311 45.0637H122.2C121.987 45.0637 121.788 45.2036 121.612 45.4907C121.612 45.6011 121.575 45.6895 121.501 45.7558C121.612 45.9325 121.678 46.146 121.715 46.3963L121.339 46.5068C121.339 46.5804 121.369 46.6908 121.42 46.8528C121.472 47.0148 121.428 47.1621 121.288 47.3093C121.361 47.5228 121.398 47.648 121.398 47.6848C121.398 47.8615 121.31 47.9867 121.133 48.0603L121.185 48.3254C121.185 48.4653 121.045 48.6272 120.758 48.8113L120.971 49.0248C120.898 49.2384 120.876 49.393 120.89 49.4813C120.905 49.5697 120.883 49.6875 120.809 49.8274V49.8789C120.809 49.9893 120.787 50.0998 120.758 50.225C120.721 50.3501 120.721 50.4311 120.758 50.4679L120.706 50.895C120.743 51.0349 120.75 51.16 120.736 51.2705C120.714 51.3809 120.64 51.4472 120.493 51.484L120.228 52.0215C120.405 52.1319 120.515 52.1982 120.552 52.235L120.176 53.575C120.066 54.1125 120 54.4365 119.963 54.5395C119.889 54.6794 119.823 54.7899 119.749 54.8635C119.823 55.0402 119.823 55.239 119.749 55.4525C119.573 55.6292 119.484 55.7765 119.484 55.8796C119.411 55.9164 119.359 55.9679 119.323 56.0415C119.286 56.1152 119.3 56.152 119.374 56.152C119.374 56.3655 119.337 56.5275 119.271 56.6379L118.307 58.729C118.38 58.8394 118.432 58.8909 118.469 58.8909L118.093 59.156C118.13 59.2959 118.145 59.4799 118.145 59.6935L118.093 59.8555L118.145 59.907C118.071 59.9438 117.968 60.1058 117.821 60.3929C117.681 60.6801 117.571 60.9451 117.497 61.1955C117.46 61.3059 117.357 61.4311 117.173 61.571C116.997 61.7109 116.886 61.836 116.849 61.9465C116.813 61.9465 116.798 62.0201 116.798 62.16C116.798 62.2999 116.768 62.3956 116.717 62.4251C116.665 62.4619 116.562 62.4251 116.423 62.3146C116.496 62.4913 116.584 62.6386 116.687 62.7417V62.7932C116.687 62.9331 116.607 63.0067 116.445 63.0067H116.099C116.239 63.0803 116.349 63.1466 116.423 63.2202C116.283 63.2939 116.158 63.3601 116.047 63.4338L116.099 63.5957C116.099 63.7356 115.981 63.8608 115.753 63.9712C115.517 64.0817 115.385 64.1848 115.348 64.2952L115.672 64.5087C115.532 64.6854 115.348 64.9578 115.134 65.3113L115.083 65.2597L114.384 65.8487C114.384 65.9224 114.398 65.9592 114.435 65.9592H114.597L114.649 66.0696C114.472 66.2831 114.222 66.5556 113.898 66.8722L113.096 67.6747C113.096 67.8514 113.051 68.006 112.963 68.1312C112.875 68.2564 112.757 68.3742 112.617 68.4773C112.441 68.6171 112.234 68.7865 111.999 68.9853C111.763 69.1841 111.594 69.3534 111.491 69.4933L111.381 69.6038C111.241 69.6406 111.013 69.7731 110.711 70.0087C110.409 70.2443 110.115 70.3548 109.828 70.3548C109.754 70.3916 109.688 70.4652 109.614 70.5683C109.541 70.6787 109.474 70.7671 109.401 70.8333C108.974 71.0837 108.672 71.2088 108.488 71.2088C107.914 71.3487 107.273 71.4223 106.56 71.4223C106.309 71.496 106.111 71.496 105.971 71.4223C104.97 71.1352 104.167 70.8112 103.556 70.4578C102.806 70.1339 102.32 69.6553 102.106 69.0074C102.033 68.8969 101.952 68.8086 101.864 68.7423C101.775 68.6687 101.694 68.5803 101.621 68.4773C101.231 67.5127 100.98 66.9237 100.87 66.7102C100.833 66.6734 100.796 66.5997 100.767 66.4967C100.73 66.3936 100.715 66.2979 100.715 66.2316L100.818 65.3186C100.958 64.1038 101.105 63.1908 101.245 62.587C101.282 62.3735 101.356 62.0348 101.459 61.571C101.569 61.1071 101.672 60.6948 101.783 60.334L101.945 60.1205L102.268 58.9425L102.644 58.1915C103.034 57.3668 103.556 56.4539 104.197 55.4599C104.373 55.1727 104.543 54.915 104.705 54.6794C104.867 54.4438 105.021 54.2377 105.161 54.061C105.411 53.737 105.684 53.3836 105.963 52.986L107.251 51.646C107.752 51.1453 108.054 50.8582 108.164 50.7919C108.238 50.7183 108.37 50.571 108.569 50.3354C108.768 50.0998 108.988 49.9157 109.239 49.7685L111.866 47.891C112.617 47.2504 113.442 46.7497 114.332 46.389L116.371 45.2625C116.584 45.1888 116.945 45.0563 117.446 44.8575C117.946 44.6587 118.373 44.4526 118.734 44.239L118.947 44.1875C119.521 44.0476 119.786 43.6868 119.749 43.1125C119.713 43.0757 119.698 42.9874 119.698 42.8475C119.698 42.7738 119.713 42.656 119.749 42.5014C119.786 42.3394 119.838 42.1848 119.911 42.0449L119.86 41.5074C119.86 41.1467 119.911 40.8301 120.022 40.5429C120.132 40.2558 120.184 40.057 120.184 39.9539L120.235 39.8508C120.309 39.2765 120.5 38.1868 120.824 36.5818C120.787 36.6186 120.699 36.6333 120.559 36.6333L120.235 36.5818C120.162 36.6186 120.117 36.6701 120.103 36.7437C120.081 36.8174 120.037 36.8689 119.97 36.9057C119.794 37.1192 119.646 37.2665 119.543 37.3328C119.116 37.9071 118.631 38.3856 118.093 38.7832V38.8348C117.769 38.9452 117.453 39.0777 117.129 39.2397C116.805 39.4017 116.503 39.5342 116.216 39.6447C116.143 39.6447 116.018 39.6741 115.841 39.7257C115.664 39.7772 115.466 39.8067 115.252 39.8067C115.142 39.8435 114.987 39.8582 114.766 39.8582C114.443 39.8582 114.214 39.8361 114.067 39.8067L112.728 39.3207C112.654 39.2839 112.529 39.1219 112.352 38.8348C112.352 38.7243 112.315 38.636 112.242 38.5697C112.168 38.4961 112.102 38.4445 112.028 38.4077C111.852 38.2678 111.734 38.0838 111.682 37.8702C111.631 37.6567 111.594 37.48 111.579 37.3328C111.557 37.1929 111.55 37.0824 111.55 37.0088C111.44 36.7217 111.388 36.4713 111.388 36.2578C111.388 35.8676 111.528 35.2786 111.815 34.4907L112.301 33.5262C112.441 33.136 112.625 32.7752 112.838 32.4512C112.875 32.4512 112.89 32.4365 112.89 32.3997C113.103 32.223 113.316 31.9138 113.53 31.4867C113.817 30.9861 114.067 30.6474 114.281 30.4707C114.42 30.3602 114.671 30.1614 115.031 29.8522C115.392 29.5503 115.642 29.381 115.782 29.3442C116.209 29.1675 116.621 29.0791 117.019 29.0791C117.129 29.0791 117.32 29.1159 117.608 29.1895C117.718 29.2264 117.865 29.2337 118.064 29.219C118.263 29.2043 118.41 29.2116 118.52 29.2485C118.631 29.3589 118.851 29.462 119.19 29.5724C119.529 29.6828 119.757 29.7712 119.86 29.8375C120.434 30.2645 120.861 30.6768 121.148 31.0744L121.523 31.7739C121.663 31.634 121.832 31.4425 122.031 31.2069C122.23 30.9713 122.377 30.8241 122.488 30.7505L123.128 30.9124C123.518 30.9492 123.952 31.0376 124.416 31.1775L124.254 32.1936C124.18 32.3335 124.114 32.5322 124.041 32.7826C123.967 33.0329 123.901 33.2464 123.827 33.4231L123.614 34.2846L123.076 37.0162C123.003 37.5168 122.863 38.2678 122.649 39.2692C122.613 39.4827 122.591 39.8508 122.568 40.3662C122.546 40.8816 122.473 41.2866 122.326 41.5737C122.289 41.7872 122.274 42.0376 122.274 42.3247C122.274 42.6119 122.237 42.8254 122.164 42.9653C122.164 43.0389 122.171 43.0978 122.193 43.1567C122.208 43.2083 122.237 43.2377 122.274 43.2377C122.627 43.2009 122.973 43.1567 123.29 43.1052C123.614 43.0536 123.952 43.0095 124.306 42.9726C124.946 42.899 125.572 42.899 126.182 42.9726H126.234L126.219 42.9653ZM102.467 66.99C102.578 67.9545 103.093 68.7055 104.02 69.243L104.285 69.4565L104.499 69.5596C104.962 69.7363 105.389 69.8246 105.787 69.8246C106.037 69.8246 106.309 69.7731 106.589 69.6627C106.802 69.589 107.009 69.508 107.207 69.4197C107.406 69.3313 107.575 69.2503 107.715 69.1767C108.252 69.0368 108.746 68.7718 109.187 68.3963C109.636 68.0208 109.909 67.7999 110.019 67.7262C110.372 67.4391 110.74 67.0857 111.116 66.6513C111.491 66.2242 111.749 65.9371 111.896 65.7898C112.257 65.326 112.72 64.6633 113.287 63.8093C113.427 63.5589 113.677 63.1834 114.038 62.6828C114.325 62.2925 114.582 61.8508 114.818 61.3722C115.053 60.8936 115.201 60.577 115.274 60.4371L115.812 59.3621C116.172 58.6848 116.489 57.8601 116.776 56.8956C116.879 56.5717 117.07 56.0268 117.335 55.2611C117.6 54.4954 117.806 53.7885 117.953 53.1406C118.057 52.7136 118.174 52.2055 118.299 51.6092C118.425 51.0201 118.52 50.5416 118.594 50.1881C118.631 50.0777 118.69 49.8421 118.778 49.4666C118.866 49.0911 118.91 48.745 118.91 48.4211V48.2076C118.984 47.9572 119.05 47.6259 119.124 47.2136C119.197 46.8013 119.264 46.4699 119.337 46.2196C119.197 46.2564 119.013 46.3301 118.8 46.4331C118.587 46.5436 118.388 46.6319 118.211 46.6982C117.534 46.9485 116.872 47.2283 116.231 47.5302C115.591 47.8321 114.995 48.1781 114.465 48.5757L113.449 49.2163L112.058 50.1292C111.808 50.306 111.484 50.5121 111.094 50.7477C110.696 50.9833 110.38 51.2042 110.129 51.4177C110.056 51.5282 109.923 51.6681 109.725 51.8448C109.526 52.0215 109.379 52.1687 109.268 52.2718C109.128 52.3822 108.981 52.478 108.841 52.5663C108.701 52.6547 108.576 52.7577 108.466 52.8608C108.216 53.1112 107.929 53.4499 107.605 53.8769C107.465 53.9873 107.104 54.326 106.53 54.893C106.456 55.0034 106.228 55.3126 105.831 55.828C105.441 56.3434 105.257 56.6747 105.294 56.822L104.167 58.486C104.094 58.5964 103.983 58.7805 103.821 59.0529C103.66 59.318 103.542 59.5609 103.475 59.7745C103.299 59.988 103.188 60.2383 103.152 60.5255C103.041 60.8126 102.975 61.0703 102.938 61.3059C102.901 61.5415 102.865 61.7256 102.828 61.8729C102.791 62.0496 102.703 62.4177 102.563 62.9699C102.423 63.5221 102.349 64.089 102.349 64.656C102.349 65.1198 102.386 65.8929 102.46 66.9605L102.467 66.99ZM113.891 37.6567C114.281 37.6199 114.7 37.5242 115.149 37.3622C115.598 37.2002 115.929 37.0824 116.143 37.0162L117.644 36.1621H117.696C117.909 35.8013 118.211 35.5362 118.609 35.3595C118.645 35.3595 118.748 35.2712 118.932 35.0945C119.006 35.0208 119.153 34.9104 119.389 34.7484C119.617 34.5865 119.757 34.4171 119.794 34.2404C119.794 34.1668 119.83 34.13 119.904 34.13H119.956C120.132 34.13 120.25 34.0711 120.301 33.9459C120.353 33.8207 120.397 33.7397 120.434 33.7029C120.324 33.6661 120.228 33.5925 120.14 33.4894C120.051 33.379 119.985 33.2906 119.948 33.2243C119.698 32.974 119.624 32.6869 119.735 32.3703V32.2598C119.735 32.0463 119.691 31.7886 119.602 31.4794C119.514 31.1775 119.433 31.0082 119.359 30.9713C119.256 30.7946 119.094 30.7063 118.874 30.7063C117.836 30.8462 117.107 31.1554 116.673 31.6193C116.496 31.7592 116.297 31.9138 116.084 32.0758C115.87 32.2377 115.657 32.4218 115.444 32.6353C115.407 32.7089 115.355 32.7752 115.282 32.8488L115.068 33.0624L115.12 33.3274C115.009 33.5041 114.869 33.6735 114.693 33.8355C114.516 33.9974 114.354 34.2036 114.207 34.4539C114.03 34.8147 113.876 35.1534 113.751 35.47C113.626 35.7939 113.508 36.0811 113.405 36.3241C113.265 36.8247 113.191 37.1266 113.191 37.237C113.191 37.3475 113.228 37.5021 113.302 37.723L113.891 37.6714V37.6567Z" fill="#AE4460"/>
<path d="M55.8828 68.9555C56.0963 68.9555 56.2729 69.0365 56.4202 69.1985C56.56 69.3605 56.6336 69.5298 56.6336 69.7065L52.2394 70.9435L51.9745 71.0539H51.864C51.6506 71.0539 51.4519 71.1938 51.2752 71.4809C51.2752 71.5914 51.2384 71.6797 51.1648 71.746C51.2752 71.9227 51.3415 72.1362 51.3783 72.3865L51.0029 72.497C51.0029 72.5706 51.0323 72.6811 51.0838 72.8431C51.1354 73.005 51.0912 73.1523 50.9513 73.2995C51.025 73.5131 51.0618 73.6382 51.0618 73.675C51.0618 73.8517 50.9734 73.9769 50.7968 74.0505L50.8483 74.3156C50.8483 74.4555 50.7085 74.6175 50.4214 74.8015L50.6348 75.0151C50.5612 75.2286 50.5392 75.3832 50.5539 75.4715C50.5686 75.5599 50.5465 75.6777 50.4729 75.8176V75.8691C50.4729 75.9796 50.4508 76.09 50.4214 76.2152C50.3846 76.3404 50.3846 76.4213 50.4214 76.4582L50.3699 76.8852C50.4067 77.0251 50.414 77.1503 50.3993 77.2607C50.3772 77.3712 50.3036 77.4374 50.1564 77.4742L49.8914 78.0117C50.0681 78.1221 50.1785 78.1884 50.2153 78.2252L49.8399 79.5652C49.7295 80.1027 49.6633 80.4267 49.6265 80.5298C49.5529 80.6697 49.4866 80.7801 49.413 80.8537C49.4866 81.0304 49.4866 81.2292 49.413 81.4428C49.2364 81.6195 49.148 81.7667 49.148 81.8698C49.0744 81.9066 49.0229 81.9581 48.9861 82.0318C48.9493 82.1054 48.964 82.1422 49.0376 82.1422C49.0376 82.3557 49.0008 82.5177 48.9346 82.6282L47.9704 84.7192C48.044 84.8296 48.0955 84.8812 48.1323 84.8812L47.7569 85.1462C47.7937 85.2861 47.8084 85.4702 47.8084 85.6837L47.7569 85.8457L47.8084 85.8972C47.7348 85.934 47.6318 86.096 47.4846 86.3832C47.3447 86.6703 47.2343 86.9354 47.1607 87.1857C47.1239 87.2961 47.0209 87.4213 46.8369 87.5612C46.6602 87.7011 46.5498 87.8263 46.513 87.9367C46.4762 87.9367 46.4615 88.0103 46.4615 88.1502C46.4615 88.2901 46.432 88.3858 46.3805 88.4153C46.329 88.4521 46.2259 88.4153 46.0861 88.3049C46.1597 88.4816 46.248 88.6288 46.3511 88.7319V88.7834C46.3511 88.9233 46.2701 88.997 46.1082 88.997H45.7622C45.9021 89.0706 46.0125 89.1368 46.0861 89.2105C45.9462 89.2841 45.8211 89.3504 45.7107 89.424L45.7622 89.586C45.7622 89.7259 45.6445 89.851 45.4163 89.9615C45.1808 90.0719 45.0483 90.175 45.0115 90.2854L45.3353 90.4989C45.1955 90.6757 45.0115 90.9481 44.798 91.3015L44.7465 91.25L44.0472 91.839C44.0472 91.9126 44.062 91.9494 44.0988 91.9494H44.2607L44.3122 92.0598C44.1356 92.2734 43.8853 92.5458 43.5615 92.8624L42.7592 93.6649C42.7592 93.8417 42.715 93.9963 42.6267 94.1214C42.5384 94.2466 42.4206 94.3644 42.2807 94.4675C42.1041 94.6074 41.898 94.7767 41.6625 94.9755C41.4269 95.1743 41.2576 95.3437 41.1546 95.4836L41.0442 95.594C40.9043 95.6308 40.6762 95.7633 40.3744 95.9989C40.0726 96.2345 39.7782 96.345 39.4911 96.345C39.4175 96.3818 39.3513 96.4554 39.2777 96.5585C39.2041 96.6689 39.1378 96.7573 39.0642 96.8236C38.6373 97.0739 38.3355 97.1991 38.1515 97.1991C37.5774 97.339 36.9371 97.4126 36.2231 97.4126C35.9728 97.4862 35.7741 97.4862 35.6343 97.4126C34.6332 97.1254 33.831 96.8015 33.22 96.4481C32.4693 96.1241 31.9835 95.6455 31.77 94.9976C31.6964 94.8872 31.6155 94.7988 31.5271 94.7325C31.4388 94.6589 31.3578 94.5706 31.2842 94.4675C30.8941 93.503 30.6439 92.9139 30.5335 92.7004C30.4967 92.6636 30.4599 92.59 30.4304 92.4869C30.3936 92.3838 30.3789 92.2881 30.3789 92.2218L30.482 91.3089C30.6218 90.094 30.769 89.181 30.9089 88.5773C30.9457 88.3638 31.0193 88.0251 31.1223 87.5612C31.2327 87.0974 31.3358 86.685 31.4462 86.3243L31.6081 86.1107L31.932 84.9327L32.3073 84.1817C32.6974 83.3571 33.22 82.4441 33.8604 81.4501C34.037 81.163 34.2063 80.9053 34.3683 80.6697C34.5302 80.434 34.6848 80.2279 34.8246 80.0512C35.0749 79.7272 35.3472 79.3738 35.6269 78.9762L36.915 77.6362C37.4155 77.1355 37.7173 76.8484 37.8277 76.7821C37.9013 76.7085 38.0338 76.5612 38.2325 76.3256C38.4312 76.09 38.652 75.906 38.9023 75.7587L41.53 73.8812C42.2807 73.2406 43.1051 72.74 43.9957 72.3792L46.0346 71.2527C46.248 71.1791 46.6087 71.0465 47.1092 70.8477C47.6097 70.6489 48.0366 70.4428 48.3973 70.2293L48.6107 70.1777C49.1848 70.0378 49.4498 69.6771 49.413 69.1028C49.3762 69.0659 49.3615 68.9776 49.3615 68.8377C49.3615 68.7641 49.3762 68.6463 49.413 68.4916C49.4498 68.3297 49.5013 68.1751 49.5749 68.0352L49.5234 67.4977C49.5234 67.1369 49.5749 66.8203 49.6854 66.5332C49.7958 66.246 49.8473 66.0472 49.8473 65.9441L49.8988 65.8411C49.9724 65.2668 50.1638 64.1771 50.4876 62.572C50.4508 62.6088 50.3625 62.6235 50.2227 62.6235L49.8988 62.572C49.8252 62.6088 49.781 62.6603 49.7663 62.734C49.7442 62.8076 49.7001 62.8591 49.6338 62.896C49.4572 63.1095 49.31 63.2567 49.2069 63.323C48.78 63.8973 48.2942 64.3759 47.7569 64.7735V64.825C47.4331 64.9354 47.1166 65.068 46.7927 65.23C46.4688 65.3919 46.1671 65.5245 45.88 65.6349C45.8064 65.6349 45.6813 65.6644 45.5046 65.7159C45.328 65.7674 45.1292 65.7969 44.9158 65.7969C44.8054 65.8337 44.6508 65.8484 44.43 65.8484C44.1061 65.8484 43.878 65.8263 43.7308 65.7969L42.3911 65.3109C42.3175 65.2741 42.1924 65.1121 42.0158 64.825C42.0158 64.7146 41.979 64.6262 41.9054 64.5599C41.8318 64.4863 41.7655 64.4348 41.6919 64.398C41.5153 64.2581 41.3975 64.074 41.346 63.8605C41.2944 63.647 41.2576 63.4703 41.2429 63.323C41.2208 63.1831 41.2135 63.0727 41.2135 62.999C41.1031 62.7119 41.0516 62.4615 41.0516 62.248C41.0516 61.8578 41.1914 61.2688 41.4784 60.481L41.9642 59.5165C42.1041 59.1262 42.2881 58.7654 42.5016 58.4415C42.5384 58.4415 42.5531 58.4268 42.5531 58.3899C42.7665 58.2132 42.98 57.904 43.1934 57.477C43.4805 56.9763 43.7308 56.6376 43.9442 56.4609C44.0841 56.3505 44.3343 56.1517 44.695 55.8424C45.0556 55.5406 45.3059 55.3712 45.4457 55.3344C45.8726 55.1577 46.2848 55.0693 46.6823 55.0693C46.7927 55.0693 46.9841 55.1062 47.2711 55.1798C47.3815 55.2166 47.5287 55.224 47.7275 55.2092C47.9262 55.1945 48.0734 55.2019 48.1838 55.2387C48.2942 55.3491 48.515 55.4522 48.8536 55.5626C49.1922 55.6731 49.4204 55.7614 49.5234 55.8277C50.0975 56.2547 50.5244 56.6671 50.8115 57.0646L51.1869 57.7641C51.3267 57.6242 51.496 57.4328 51.6948 57.1972C51.8935 56.9616 52.0407 56.8143 52.1511 56.7407L52.7915 56.9027C53.1816 56.9395 53.6158 57.0278 54.0795 57.1677L53.9176 58.1838C53.844 58.3237 53.7778 58.5225 53.7041 58.7728C53.6305 59.0231 53.5643 59.2367 53.4907 59.4134L53.2773 60.2748L52.7399 63.0064C52.6663 63.5071 52.5265 64.2581 52.313 65.2594C52.2762 65.4729 52.2541 65.8411 52.2321 66.3565C52.21 66.8718 52.1364 67.2768 51.9892 67.5639C51.9524 67.7775 51.9376 68.0278 51.9376 68.3149C51.9376 68.6021 51.9009 68.8156 51.8272 68.9555C51.8272 69.0291 51.8346 69.088 51.8567 69.1469C51.8714 69.1985 51.9008 69.2279 51.9376 69.2279C52.2909 69.1911 52.6369 69.1469 52.9534 69.0954C53.2773 69.0439 53.6158 68.9997 53.9691 68.9629C54.6095 68.8892 55.2351 68.8892 55.846 68.9629H55.8976L55.8828 68.9555ZM32.1381 92.9728C32.2485 93.9374 32.7637 94.6884 33.6911 95.2258L33.9561 95.4394L34.1695 95.5424C34.6332 95.7192 35.0601 95.8075 35.4576 95.8075C35.7079 95.8075 35.9802 95.756 36.2599 95.6455C36.4733 95.5719 36.6794 95.4909 36.8782 95.4025C37.0769 95.3142 37.2462 95.2332 37.386 95.1596C37.9234 95.0197 38.4165 94.7546 38.8581 94.3791C39.3071 94.0036 39.5795 93.7827 39.6899 93.7091C40.0432 93.422 40.4112 93.0685 40.7866 92.6341C41.162 92.2071 41.4196 91.92 41.5668 91.7727C41.9274 91.3089 42.3912 90.6462 42.9579 89.7921C43.0978 89.5418 43.348 89.1663 43.7087 88.6656C43.9957 88.2754 44.2533 87.8336 44.4889 87.3551C44.7244 86.8765 44.8716 86.5599 44.9452 86.42L45.4825 85.345C45.8432 84.6676 46.1597 83.843 46.4467 82.8785C46.5498 82.5545 46.7412 82.0097 47.0062 81.2439C47.2711 80.4782 47.4772 79.7714 47.6244 79.1235C47.7275 78.6965 47.8452 78.1884 47.9704 77.592C48.0955 77.003 48.1912 76.5244 48.2648 76.171C48.3016 76.0606 48.3605 75.825 48.4488 75.4495C48.5371 75.074 48.5813 74.7279 48.5813 74.404V74.1904C48.6549 73.9401 48.7211 73.6088 48.7947 73.1965C48.8683 72.7841 48.9346 72.4528 49.0082 72.2025C48.8683 72.2393 48.6843 72.3129 48.4709 72.416C48.2574 72.5264 48.0587 72.6148 47.882 72.6811C47.2049 72.9314 46.5424 73.2112 45.9021 73.513C45.2617 73.8149 44.6655 74.161 44.1356 74.5586L43.1198 75.1991L41.7287 76.1121C41.4785 76.2888 41.1546 76.495 40.7645 76.7306C40.367 76.9662 40.0505 77.1871 39.8003 77.4006C39.7267 77.511 39.5942 77.6509 39.3955 77.8276C39.1967 78.0043 39.0495 78.1516 38.9391 78.2547C38.7992 78.3651 38.652 78.4608 38.5122 78.5492C38.3723 78.6376 38.2472 78.7406 38.1368 78.8437C37.8866 79.094 37.5995 79.4327 37.2756 79.8598C37.1358 79.9702 36.7751 80.3089 36.201 80.8758C36.1274 80.9863 35.8992 81.2955 35.5018 81.8109C35.1117 82.3263 34.9277 82.6576 34.9645 82.8049L33.8383 84.4688C33.7647 84.5793 33.6543 84.7634 33.4924 85.0358C33.3304 85.3008 33.2127 85.5438 33.1464 85.7573C32.9698 85.9708 32.8594 86.2212 32.8226 86.5083C32.7122 86.7955 32.6459 87.0532 32.6091 87.2888C32.5723 87.5244 32.5355 87.7085 32.4987 87.8557C32.4619 88.0324 32.3736 88.4006 32.2337 88.9528C32.0939 89.505 32.0203 90.0719 32.0203 90.6388C32.0203 91.1027 32.0571 91.8758 32.1307 92.9434L32.1381 92.9728ZM43.5541 63.647C43.9442 63.6101 44.3638 63.5144 44.8127 63.3524C45.2617 63.1905 45.5929 63.0727 45.8064 63.0064L47.3079 62.1523H47.3594C47.5729 61.7915 47.8747 61.5265 48.2721 61.3498C48.309 61.3498 48.412 61.2614 48.596 61.0847C48.6696 61.0111 48.8168 60.9006 49.0524 60.7387C49.2805 60.5767 49.4204 60.4073 49.4572 60.2306C49.4572 60.157 49.494 60.1202 49.5676 60.1202H49.6191C49.7958 60.1202 49.9135 60.0613 49.9651 59.9361C50.0166 59.811 50.0607 59.73 50.0975 59.6932C49.9871 59.6563 49.8914 59.5827 49.8031 59.4796C49.7148 59.3692 49.6485 59.2808 49.6117 59.2146C49.3615 58.9642 49.2879 58.6771 49.3983 58.3605V58.2501C49.3983 58.0365 49.3541 57.7788 49.2658 57.4696C49.1775 57.1677 49.0965 56.9984 49.0229 56.9616C48.9199 56.7849 48.7579 56.6965 48.5371 56.6965C47.4993 56.8364 46.7706 57.1456 46.3363 57.6095C46.1597 57.7494 45.961 57.904 45.7475 58.066C45.5341 58.228 45.3206 58.412 45.1072 58.6256C45.0704 58.6992 45.0188 58.7654 44.9452 58.8391L44.7318 59.0526L44.7833 59.3177C44.6729 59.4944 44.533 59.6637 44.3564 59.8257C44.1797 59.9877 44.0178 60.1938 43.8706 60.4442C43.6939 60.8049 43.5394 61.1436 43.4142 61.4602C43.2891 61.7842 43.1714 62.0713 43.0683 62.3143C42.9285 62.815 42.8549 63.1168 42.8549 63.2273C42.8549 63.3377 42.8917 63.4923 42.9653 63.7132L43.5541 63.6617V63.647Z" fill="#AE4460"/>
<path d="M57.8113 62.1444C57.8849 61.6805 58.0615 60.981 58.3486 60.0533C58.3854 59.8766 58.6356 58.9121 59.0994 57.1598V56.7327C59.0258 56.4824 59.0994 56.3572 59.3128 56.3572C59.3496 56.3572 59.4085 56.3425 59.4968 56.3057C59.5852 56.2689 59.6882 56.3278 59.7912 56.4677C59.8648 56.5413 59.99 56.6444 60.1666 56.7916C60.3433 56.9315 60.4537 57.0567 60.4905 57.1671C60.8143 57.4175 61.0057 57.6163 61.0793 57.7562C61.1897 57.9697 61.2044 58.2421 61.1308 58.5587C61.1308 58.7722 61.0572 59.0594 60.9174 59.4201C60.8438 59.6705 60.6524 60.3331 60.3285 61.4007C60.1887 61.6879 60.093 61.9014 60.0636 62.0413C59.99 62.1812 59.9532 62.2769 59.9532 62.3063C59.99 62.38 60.0047 62.4683 60.0047 62.5714C60.0047 62.7481 59.9679 62.9543 59.8943 63.1899C59.8207 63.4255 59.7692 63.6316 59.7324 63.8083C59.7324 63.985 59.7029 64.228 59.6514 64.5299C59.5999 64.8318 59.5557 65.0968 59.5189 65.3104C60.1298 65.1336 60.623 64.8833 61.0204 64.5593L61.8816 63.8083C62.6692 63.1678 63.258 62.645 63.6481 62.2548L65.0392 60.9148L66.055 59.8987C67.3431 58.7207 68.0202 58.0949 68.0938 58.0212C68.1674 58.0949 68.2042 58.1832 68.2042 58.2863C68.2042 58.463 68.1306 58.6765 67.9908 58.9268L67.9393 58.9784C67.8657 59.0815 67.6228 59.4496 67.2179 60.0754C66.8057 60.7013 66.526 61.1062 66.3862 61.2829C66.3126 61.3934 66.1948 61.6142 66.0402 61.9529C65.8783 62.2916 65.6354 62.6745 65.3189 63.1089L64.7301 63.9703L64.4651 64.3458L64.2001 64.6109C63.8395 64.8244 63.4641 65.1999 63.074 65.7374C62.8974 65.9509 62.625 66.1865 62.2717 66.4369C62.1687 66.5399 62.0141 66.6209 61.8154 66.6798C61.6166 66.7314 61.4841 66.7755 61.4105 66.8124L60.3359 67.3498L60.0709 67.4014C59.8943 67.4014 59.622 67.3278 59.2687 67.1879C59.0184 67.151 58.8049 67.0259 58.6283 66.8124C58.4516 66.5988 58.2897 66.4369 58.1425 66.3264C58.1057 66.2896 58.0689 66.2381 58.0321 66.1644C57.9953 66.0908 57.9806 66.0393 57.9806 66.0025C57.9438 65.8626 57.8554 65.7153 57.7156 65.5754C57.6788 65.465 57.6346 65.3766 57.5831 65.3104C57.5316 65.2367 57.4874 65.1484 57.4506 65.0453C57.377 64.3311 57.5021 63.3666 57.826 62.1517L57.8113 62.1444ZM60.4905 53.0514C60.3801 52.9998 60.277 52.9188 60.1666 52.8084C59.8428 52.4476 59.7397 52.0058 59.8428 51.4684C59.9532 51.1076 60.1298 50.8131 60.3801 50.5848C60.6303 50.3566 60.9689 50.1283 61.3958 49.9148C61.4326 49.878 61.5209 49.8633 61.6608 49.8633H61.8742C62.3012 49.8633 62.5735 50.0253 62.6765 50.3492C62.7133 50.4228 62.7649 50.5848 62.8385 50.8352C62.9121 51.0855 62.9489 51.3211 62.9489 51.5346C62.9489 51.9248 62.8605 52.2341 62.6839 52.4476C62.5072 52.6611 62.3085 52.8526 62.0951 53.0145C61.8816 53.1765 61.7344 53.2722 61.6682 53.309C61.5945 53.3459 61.4694 53.3606 61.2928 53.3606C61.1529 53.3606 60.9689 53.3091 60.7555 53.1986C60.6819 53.1618 60.5935 53.1176 60.4905 53.0661V53.0514Z" fill="#AE4460"/>
<path d="M68.241 79.6534C67.9024 79.5282 67.6595 79.3368 67.5197 79.0865C67.1958 78.6962 66.9529 78.3649 66.7983 78.0925C66.6364 77.8274 66.5407 77.5329 66.5039 77.209C66.3273 76.7819 66.2022 76.3181 66.1285 75.8174C66.0181 75.6775 65.9666 75.5303 65.9666 75.3904C65.9666 75.2505 66.0402 75.1253 66.1801 75.0149C66.0402 74.9044 65.9593 74.6909 65.9372 74.3743C65.9151 74.0503 65.8709 73.8368 65.8047 73.7337C65.8047 73.6969 65.8194 73.5718 65.8562 73.3582C65.893 73.1447 65.996 72.9459 66.1801 72.7692L66.1285 72.7177C66.0181 72.5778 65.9666 72.379 65.9666 72.1287C65.9666 71.8783 65.9813 71.6575 66.0181 71.4587C66.0549 71.2599 66.0917 71.0905 66.1285 70.9506C66.1285 70.877 66.1065 70.7813 66.077 70.6561C66.0402 70.531 66.0549 70.3984 66.1285 70.2512C66.2022 70.1113 66.239 69.9198 66.239 69.6916C66.239 69.4633 66.2537 69.3087 66.2905 69.2351C66.2905 69.1247 66.3273 69.0731 66.4009 69.0731C66.4745 68.7492 66.4966 68.3957 66.4818 67.9981C66.4598 67.6079 66.4524 67.3355 66.4524 67.1956C66.7026 65.9439 66.8425 65.1782 66.8793 64.8911C67.0192 64.6775 67.1222 64.3462 67.1737 63.8971C67.2252 63.448 67.3062 63.1387 67.4166 62.962V62.8516C67.4166 62.7485 67.4534 62.6381 67.527 62.5276C67.6006 62.4172 67.6522 62.3288 67.689 62.2626C67.6522 62.1595 67.6374 61.9386 67.6374 61.622C67.6374 61.4085 67.689 61.195 67.7994 60.9814C67.873 60.9446 67.976 60.6354 68.1232 60.0464C68.2631 59.4574 68.322 59.1113 68.2852 59.0009C68.4618 58.6106 68.6679 58.0732 68.9034 57.3884C69.139 56.711 69.3083 56.1736 69.4113 55.7833L69.5217 55.5183L69.3598 55.5698L69.1463 55.5183L68.7709 55.5698H67.8582L67.5344 55.6213L67.3724 55.5698C67.1222 55.4299 66.8719 55.3416 66.6217 55.3048C66.445 55.3784 66.3567 55.1428 66.3567 54.6053L66.2463 54.5537C66.2463 54.5537 66.239 54.5832 66.2169 54.5243C66.1948 54.4728 66.1727 54.3697 66.1359 54.2298C66.0991 54.1562 66.1359 54.031 66.2463 53.8543C66.9603 53.8911 67.5712 53.8911 68.0717 53.8543H68.3367L68.6605 53.7438C68.7341 53.7438 68.8445 53.7512 69.0065 53.7733C69.1684 53.7954 69.2641 53.7807 69.3009 53.7438L69.6248 53.6923H70.1621L70.8024 51.9252C71.5164 50.1361 72.0022 48.9949 72.2524 48.4942C72.3628 48.2439 72.4953 47.9199 72.6573 47.5297C72.8192 47.1395 72.9664 46.8155 73.1136 46.5651C73.4007 45.7773 73.938 44.6877 74.7182 43.2961L74.8286 43.031L76.4332 40.4541L77.3459 39.276C77.4857 39.1361 77.6844 39.0625 77.9347 39.0625C78.2217 39.0625 78.6487 39.2024 79.2228 39.4895C79.2964 39.5263 79.3921 39.6221 79.5172 39.784C79.6423 39.946 79.7233 40.0786 79.7601 40.189V40.2405C79.7601 40.351 79.6202 40.4835 79.3332 40.6455C79.0461 40.8075 78.8106 40.9915 78.6339 41.2124C78.2733 41.7131 78.0083 42.0665 77.8317 42.2874C77.471 42.6482 77.206 43.0237 77.0294 43.4139C76.8527 43.7378 76.6392 44.0544 76.389 44.3784C76.1387 44.7024 75.9621 44.9895 75.8517 45.2399C75.675 45.4534 75.5646 45.6595 75.5278 45.8583C75.491 46.0571 75.4395 46.2265 75.3659 46.3664L75.2555 46.5283L75.307 46.6388C75.307 46.7492 75.2334 46.8523 75.0936 46.9627C74.9537 47.0732 74.858 47.1247 74.8286 47.1247C74.7918 47.1615 74.7403 47.3014 74.6666 47.5518C74.49 47.6917 74.4017 47.8757 74.4017 48.0892C74.4017 48.1997 74.3796 48.288 74.3502 48.3543C74.3134 48.4279 74.2986 48.4942 74.2986 48.5678C74.1882 48.7813 74.0778 49.0685 73.9527 49.4219C73.8276 49.7827 73.7319 50.033 73.6583 50.1729C73.5847 50.3128 73.5037 50.4306 73.4154 50.519L73.1725 50.7619C73.1725 50.8356 73.2093 50.8724 73.2755 50.8724C73.2387 50.9828 73.224 51.1595 73.224 51.4098L72.5837 52.8603C72.4732 53.1843 72.3702 53.4346 72.2598 53.6113L72.0979 53.6628L72.3628 53.6113C72.5027 53.5745 72.7897 53.5524 73.224 53.5303C73.6509 53.5156 73.9232 53.4861 74.0263 53.4493C74.9905 53.3757 75.5793 53.3094 75.7928 53.2358C76.0799 53.1622 76.4184 53.1254 76.8085 53.1254C77.1986 53.1254 77.4489 53.1107 77.5593 53.0738C77.8464 53.0002 78.1997 52.9634 78.6339 52.9634L79.0608 53.1254C79.0608 53.1254 79.1124 53.199 79.1124 53.3389C79.1124 53.5156 78.8768 53.626 78.4131 53.6628L77.6624 53.9279C77.6624 54.1046 77.6403 54.2666 77.6108 54.4139C77.574 54.5537 77.5593 54.6495 77.5593 54.6789C77.4195 54.7157 77.2207 54.7673 76.9705 54.8409C76.7202 54.9145 76.5804 54.8924 76.5436 54.7894C76.5068 54.8262 76.4626 54.8483 76.4111 54.8703C76.3596 54.8924 76.3301 54.8777 76.3301 54.8409C76.1535 54.8409 75.9179 54.8703 75.6309 54.9219C75.3438 54.9734 75.042 55.0176 74.7182 55.0544L73.0032 55.2164C72.8634 55.2532 72.6425 55.2606 72.3628 55.2458C72.0758 55.2311 71.877 55.2385 71.774 55.2753L71.6636 55.3268C71.6268 55.4299 71.5532 55.5035 71.4501 55.5404L71.2882 56.3429L71.0232 57.359L71.6636 57.3074L71.9286 57.5725L72.142 57.5209C72.2524 57.5578 72.3187 57.5578 72.3555 57.5209C72.3923 57.5209 72.4291 57.5062 72.4659 57.4694C72.5027 57.4326 72.5542 57.4326 72.6278 57.4694L72.8928 57.6314H73.2166C73.2902 57.7713 73.3786 57.9185 73.4816 58.0584C73.592 58.1983 73.6803 58.3456 73.7466 58.4855C73.7834 58.5223 73.8349 58.5665 73.9085 58.618C73.9821 58.6695 73.9969 58.7137 73.9601 58.7505C73.9969 58.9272 74.1146 59.0377 74.306 59.0745C74.5047 59.1113 74.6151 59.1628 74.6519 59.2365C74.6151 59.4132 74.7403 59.7519 75.0273 60.2525C75.3144 60.7532 75.5278 61.0772 75.6677 61.2171L75.6162 61.3275C75.6162 61.4011 75.6898 61.5778 75.8296 61.865C75.7928 61.9018 75.7781 61.9754 75.7781 62.0785C75.7781 62.2184 75.8075 62.3656 75.8591 62.5055C75.9106 62.6454 75.9547 62.7559 75.9915 62.8295C76.0651 62.9031 76.1167 62.9399 76.1535 62.9399C76.0431 63.0798 75.9768 63.1535 75.94 63.1535L75.9915 63.205C76.0283 63.2786 76.0357 63.367 76.021 63.4701C75.9989 63.5805 75.9915 63.6688 75.9915 63.7351L75.94 63.9486C76.0504 64.0223 76.0946 64.1842 76.0725 64.4346C76.0504 64.6849 76.0651 64.8616 76.1019 64.9721V65.0825L76.2639 68.6755C76.3007 68.7491 76.3154 68.8375 76.3154 68.9406C76.3154 69.0437 76.2859 69.1909 76.2344 69.3676C76.1829 69.5443 76.1535 69.6548 76.1535 69.6916L75.8885 70.8696L75.7266 70.7076L75.837 71.1936L75.4101 72.5336C75.4101 72.7839 75.388 72.9238 75.3585 72.9606C75.2481 73.211 75.1377 73.5276 75.0126 73.8957C74.8875 74.2712 74.7697 74.6026 74.6666 74.8897C74.4532 75.464 74.1661 75.9794 73.8128 76.4432C73.7392 76.6199 73.6141 76.8335 73.4375 77.0838C73.2608 77.3341 73.1136 77.5329 73.0105 77.6728L72.959 77.7833C72.8486 77.9232 72.7014 78.144 72.5027 78.4238C72.3039 78.7036 72.0831 78.9392 71.8329 79.1233C71.406 79.4767 71.0085 79.6608 70.6552 79.6608C70.5154 79.6608 70.2946 79.6976 70.0149 79.7712C69.7278 79.8448 69.4996 79.8817 69.3156 79.8817C68.955 79.8817 68.609 79.8154 68.2704 79.6976L68.241 79.6534ZM67.5933 75.6554C67.6448 75.729 67.6742 75.7806 67.6742 75.8174L67.7773 76.6199C67.7773 77.0838 67.8877 77.4814 68.1011 77.798C68.1379 77.8716 68.1821 77.9821 68.2336 78.144C68.2851 78.306 68.4029 78.3649 68.5796 78.3281L69.2199 78.1661C69.7204 78.0557 70.0811 77.8274 70.2945 77.4667C70.9349 76.8924 71.5311 76.1414 72.0611 75.2137C72.3481 74.6394 72.591 74.043 72.7824 73.4172C72.9811 72.7913 73.1504 72.1728 73.2902 71.5691C73.3639 71.3188 73.5405 70.5162 73.8276 69.1541C73.9012 68.3295 73.9159 67.7036 73.8791 67.2766C73.9895 66.8127 74.041 66.3121 74.041 65.7746C74.041 65.377 74.0189 65.0751 73.9895 64.8616L73.8276 62.8221C73.6509 61.9312 73.4595 61.2318 73.2608 60.7311C73.0621 60.2304 72.7677 59.6782 72.3776 59.0671L71.3029 57.7786L70.876 57.5136L70.6111 58.4781C70.6111 58.7652 70.5006 59.1187 70.2872 59.5531C70.2136 59.9801 70.1105 60.3409 69.9633 60.628C69.8897 60.8415 69.8235 61.0919 69.7499 61.379C69.6763 61.6662 69.5953 61.9091 69.507 62.1006C69.4187 62.2994 69.2862 62.4466 69.1022 62.5571C69.139 62.6675 69.1978 62.778 69.2862 62.9031C69.3745 63.0283 69.3671 63.1608 69.2567 63.3081L68.1821 68.2927C68.1821 68.2927 68.1306 68.3957 68.0202 68.5062C68.057 68.543 68.0717 68.6166 68.0717 68.7197C68.0717 68.8228 67.9981 68.9479 67.8582 69.0952C67.9318 69.132 67.976 69.1762 67.9907 69.2277C68.0055 69.2793 68.0349 69.3235 68.0717 69.3603V69.6842L68.1232 69.7947C68.0496 70.0818 67.9539 70.4941 67.8288 71.0316C67.7037 71.5691 67.6595 71.9593 67.6963 72.2096L67.7478 72.5852C67.7478 72.6588 67.6742 72.9091 67.5344 73.3362C67.5712 73.373 67.5859 73.6233 67.5859 74.0872C67.5859 74.3743 67.5638 74.551 67.5344 74.6246C67.5712 74.6614 67.608 74.7866 67.6448 75.0001C67.6816 75.2137 67.6448 75.3756 67.5344 75.4861C67.4976 75.5229 67.5049 75.5744 67.5638 75.6481L67.5933 75.6554Z" fill="#AE4460"/>
<path d="M89.2329 59.052L89.1813 59.1551C90.9699 59.1182 92.1623 59.0667 92.7732 58.9931C92.8837 59.0667 92.8837 59.133 92.7732 59.2066L91.971 59.317C91.8311 59.4275 91.4557 59.479 90.8448 59.479C90.3443 59.479 89.8585 59.5011 89.3948 59.5306C89.1814 59.5306 88.8649 59.5232 88.46 59.5011C88.0479 59.4864 87.7387 59.4937 87.5252 59.5306H86.9364L86.3476 61.3565C86.2372 61.4302 86.1488 61.5406 86.0826 61.7026C86.009 61.8646 85.9943 61.9971 86.0311 62.1075C86.0679 62.1443 86.009 62.2695 85.8691 62.483V62.5935C85.8691 62.8438 85.7587 63.0794 85.5453 63.2929L85.4938 63.558C85.5674 63.8083 85.4938 63.9703 85.2803 64.0439C85.2435 64.0439 85.2362 64.0734 85.2509 64.1249C85.2656 64.1765 85.2803 64.2206 85.2803 64.2574C85.2067 64.3973 85.1626 64.574 85.1478 64.7655C85.1258 64.9643 85.1037 65.1336 85.0669 65.2735C84.8902 65.7005 84.8019 65.9362 84.8019 65.973C84.7283 66.2233 84.6473 66.5031 84.559 66.805C84.4707 67.1068 84.4044 67.3498 84.375 67.5265C84.1615 67.9536 84.0511 68.2775 84.0511 68.491C84.0143 68.6309 83.9407 68.896 83.8377 69.2715C83.7273 69.647 83.661 69.9783 83.6242 70.2655L83.3004 70.7514C83.3372 70.825 83.3519 70.9134 83.3519 71.0165L83.3004 71.6055C83.3004 71.6791 83.2709 71.7454 83.2194 71.819C83.1679 71.8926 83.1384 71.981 83.1384 72.0841C83.0648 72.408 83.0501 72.6216 83.0869 72.7246C82.947 73.1517 82.8735 73.5861 82.8735 74.0131C82.8735 74.1236 82.8366 74.2119 82.763 74.2782C82.6894 74.2782 82.7263 74.315 82.8735 74.3886L82.6085 74.9261C82.7189 75.066 82.7704 75.3163 82.7704 75.6771C82.7704 76.0379 82.7189 76.2146 82.6085 76.2146C82.6453 76.2514 82.6894 76.2882 82.741 76.325C82.7925 76.3618 82.7704 76.4134 82.66 76.487C82.7999 76.5238 82.8735 76.6637 82.8735 76.914V77.1275C82.8735 77.4147 82.925 77.7166 83.0354 78.0405C83.0354 78.2909 83.1458 78.5265 83.3592 78.74L83.7346 79.167C83.9113 79.2775 84.0732 79.3511 84.2204 79.41C84.3676 79.4689 84.5443 79.4689 84.7577 79.4395H84.8608C85.1478 79.4395 85.4717 79.3511 85.825 79.1744L85.8765 79.3879C85.8765 79.5646 85.7882 79.7561 85.6115 79.9475C85.4349 80.1463 85.3098 80.3156 85.2362 80.4555C85.1258 80.5954 84.9491 80.669 84.6988 80.669H84.8019L84.213 80.7206C83.926 80.7206 83.5506 80.5807 83.0869 80.2936C82.7998 80.1831 82.557 80.0138 82.3656 79.7855C82.1669 79.5499 82.0344 79.4027 81.9608 79.329L81.6369 78.9535C81.3866 78.5633 81.1879 78.1436 81.0481 77.6945C80.9082 77.2454 80.761 76.6637 80.6211 75.9495C80.5475 75.4489 80.5107 75.0586 80.5107 74.7715C80.5107 74.3076 80.5255 73.9027 80.5623 73.564C80.5991 73.2253 80.6359 72.9308 80.6727 72.6805C80.6359 72.3565 80.6653 72.0031 80.7536 71.6055C80.842 71.2153 80.9082 70.9281 80.9377 70.7514L81.313 69.2494C81.3866 69.0359 81.4455 68.7487 81.497 68.388C81.5486 68.0345 81.6295 67.6885 81.7399 67.3719C81.7399 67.2615 81.7767 67.1584 81.8503 67.0479C81.924 66.9375 81.9755 66.8344 82.0123 66.724H82.1227L82.0123 66.5105L83.7273 61.1504L84.2646 59.4864C83.6537 59.4864 82.8366 59.4348 81.7988 59.3244C81.3351 59.214 81.0113 59.1182 80.8346 59.0299C80.658 58.9415 80.5475 58.7869 80.5107 58.5734C80.5107 58.463 80.5475 58.3525 80.6211 58.2274C80.6947 58.1022 80.7831 58.0212 80.8861 57.9844C81.0628 57.7709 81.2247 57.6825 81.3719 57.7193C81.5486 57.7561 81.659 57.7561 81.6958 57.7193C82.0859 57.5058 82.4465 57.469 82.7704 57.6089L83.7861 57.7193C84.11 57.6825 84.5001 57.6678 84.9638 57.6678C85.0742 57.4911 85.1846 57.2186 85.3098 56.8652C85.4349 56.5118 85.5527 56.2394 85.6557 56.0627C85.7293 55.8492 85.9207 55.3338 86.2445 54.5092C86.3181 54.2588 86.4212 53.9643 86.5684 53.6256C86.7082 53.2869 86.8187 52.9924 86.8923 52.7421C87.0027 52.4917 87.1131 52.1899 87.2382 51.8291C87.3633 51.4757 87.4811 51.1665 87.5841 50.9161C87.5841 50.8057 87.6283 50.7026 87.7166 50.5922C87.805 50.4817 87.8712 50.3934 87.9006 50.3271L88.3275 49.0386C88.4379 48.7515 88.5925 48.6484 88.8133 48.7147C88.8133 48.7515 88.9017 48.803 89.0783 48.8766C89.1887 48.9503 89.3654 49.046 89.6156 49.1711C89.8659 49.2963 90.0057 49.4657 90.0425 49.6792C90.0793 49.7528 90.1382 49.8191 90.2265 49.8927C90.3149 49.9663 90.3811 50.0326 90.4106 50.1062C90.5872 50.1799 90.6755 50.305 90.6755 50.4817C90.6755 50.6216 90.624 50.8057 90.5136 51.0192C89.9763 52.2341 89.5126 53.1986 89.1225 53.9128C89.0489 54.1631 88.9164 54.4944 88.7176 54.9067C88.5189 55.3191 88.3717 55.6651 88.2613 55.9522C88.1509 56.2762 88.0258 56.6149 87.8859 56.9683C87.7461 57.3291 87.6504 57.631 87.6209 57.8813C87.9448 57.9181 88.2392 57.9623 88.5042 58.0138C88.7692 58.0654 88.9385 58.0727 89.0121 58.0433L91.5809 58.1537C92.0078 58.1537 92.4936 58.1022 93.0309 57.9917C93.0677 57.9917 93.1486 57.9476 93.2738 57.8592C93.3989 57.7709 93.4946 57.7635 93.5682 57.8298V57.9328C93.5682 58.1095 93.4357 58.2715 93.1634 58.4188C92.8984 58.5587 92.7438 58.6691 92.707 58.7427L92.5966 58.7943C92.0225 58.7943 91.6103 58.8458 91.3601 58.9563C91.2202 58.8826 91.073 58.8458 90.9331 58.8458C90.6829 58.8458 90.4179 58.8826 90.1308 58.9563L89.2182 59.0667L89.2329 59.052Z" fill="#AE4460"/>
</svg>
