<svg width="86" height="80" viewBox="0 0 86 80" fill="none" xmlns="http://www.w3.org/2000/svg">
<path d="M79.7673 68.8369C79.701 67.6589 79.6642 66.4293 79.4287 65.3101C79.0239 63.4105 79.5465 61.5625 79.3551 59.7144C79.1343 57.5203 79.7894 55.4367 79.9734 53.3015C79.9807 53.1763 79.9219 53.0512 79.8924 52.9186C79.3993 52.8524 79.1932 52.1013 78.6338 52.3075C77.9345 52.5652 78.862 53.2205 78.3541 53.596C77.4635 53.5813 77.6328 52.8155 77.5592 52.2928C77.1764 52.0792 76.5655 53.0953 76.5434 52.1897C76.5213 51.3872 76.4845 50.4963 76.8599 49.7011C77.1102 49.1636 77.4635 49.0311 77.9051 49.4139C78.3099 49.7674 78.6632 50.1428 79.2521 49.7526C79.046 49.4434 79.0165 48.928 78.6411 48.9059C77.9493 48.8617 77.9787 48.42 77.9787 47.9782C77.9787 47.3082 77.9345 46.6235 78.067 45.9755C78.1774 45.4307 78.1848 44.9226 78.0965 44.3925C77.699 41.9849 77.2721 39.5773 76.9335 37.1549C76.7348 35.7781 76.3079 34.4602 75.9767 33.1201C75.8589 32.6268 76.1092 32.1114 75.8295 31.677C74.8873 30.2266 73.9305 28.7835 72.9442 27.3625C72.7822 27.1342 72.4216 27.0385 72.1492 26.8839C71.9799 27.2152 71.9652 27.5392 72.002 27.922C72.083 28.7172 72.2228 29.505 72.1787 30.3223C72.0683 32.0967 72.0535 33.8785 71.9873 35.6529C71.9799 35.8959 72.1198 36.2051 71.634 36.4113C71.3911 35.2774 70.7434 34.3276 70.368 33.2527C70.2944 33.0391 70.2134 32.8256 70.1987 32.6047C70.0441 30.8303 69.8307 29.0633 69.7792 27.2815C69.7276 25.4555 68.8812 23.9977 67.8949 22.5767C67.4901 23.1436 67.5858 23.7768 67.733 24.3805C67.9023 25.0653 67.9023 25.6248 67.0705 25.8384C66.3418 26.0224 66.5774 27.252 65.6132 27.1931C65.6132 27.3257 65.5764 27.4655 65.6205 27.576C65.7236 27.8189 65.8634 28.0472 66.0033 28.2754C66.5921 29.2179 66.4817 29.5345 65.3923 30.0278C65.4439 30.3812 65.4512 30.7493 65.569 31.0806C65.937 32.1703 65.5322 33.098 65.0538 34.0257C64.9286 34.2614 64.8035 34.6148 64.5165 34.5338C63.6185 34.2834 63.4639 34.9387 63.1989 35.4983C62.8972 36.1389 62.6984 36.8531 61.9624 37.1844C61.7563 37.2728 61.6017 37.5525 61.6606 37.7513C61.9182 38.5686 61.7931 39.5847 62.7647 40.0706C63.3461 40.3651 63.6038 40.7627 63.0885 41.3296C62.934 41.5063 62.7941 41.6757 62.8677 41.9187C63.1106 42.7801 63.3535 43.6342 63.6038 44.4956C63.7215 44.9079 63.9939 45.0552 64.4208 44.9889C64.9434 44.9079 65.0611 44.5471 65.039 44.1127C65.017 43.6194 64.936 43.1335 64.8992 42.6476C64.855 42.0659 64.7741 41.5063 65.5027 41.1897C65.8929 41.0204 65.8192 40.5933 65.6058 40.2547C65.3482 39.835 65.0758 39.4227 64.8403 38.9956C64.7446 38.8336 64.7667 38.6275 64.9802 38.5612C65.0906 38.5318 65.2893 38.5686 65.3408 38.6496C65.6426 39.0913 65.8929 39.5625 66.1946 40.0043C66.8644 40.9983 67.0337 42.3383 68.0421 43.0746C68.999 43.7667 69.6025 44.5766 70.0662 45.6884C71.0967 48.1402 72.4068 50.4447 73.003 53.1101C73.4815 55.2673 74.0924 57.432 74.8726 59.5377C75.4835 61.1796 76.0576 62.9025 75.7117 64.7432C75.6454 65.0893 75.7485 65.4721 75.248 65.5752C74.7695 65.6709 74.5119 65.4868 74.3206 65.0377C73.8569 63.948 73.1061 63.0129 73.0398 61.7245C73.003 61.0029 72.6056 60.2887 72.5982 59.5083C72.5982 59.0591 72.3921 58.6321 72.1124 58.2713C71.8695 57.9547 71.634 57.6087 71.1629 57.6013C70.6845 57.6013 71.082 58.345 70.4931 58.3082C70.2502 58.0873 70.1546 57.7338 70.0515 57.4025C69.2934 55.0464 68.0421 52.926 66.916 50.7392C66.651 50.2238 66.2977 49.7526 65.9885 49.2667C65.8708 49.0826 65.7898 48.8249 65.5027 48.9353C65.2672 49.0237 65.1789 49.2667 65.1789 49.4802C65.1789 49.7379 65.2599 50.0103 65.3408 50.2606C65.8781 51.9099 66.3566 53.5812 66.9969 55.1863C68.0347 57.7706 68.7781 60.4433 69.6761 63.0719C69.9705 63.9407 70.552 64.8758 70.0736 65.8992C70.7949 66.1716 70.9789 66.6502 70.6035 67.3276C70.6183 67.5705 70.7802 67.703 70.9863 67.7987C71.8327 67.6515 71.553 68.211 71.4942 68.6234C71.6561 68.697 71.8254 68.778 71.9873 68.8516C73.6581 68.7706 73.636 68.778 74.2543 70.2505C74.4383 70.685 74.4678 71.5906 75.1817 71.2298C75.7706 70.9279 75.248 70.3021 74.9756 69.853C74.6518 69.3229 74.4972 68.7853 74.9315 67.9828C75.6602 69.6983 76.3594 71.1856 77.1691 72.6066C77.6475 73.4607 78.1112 74.3369 78.7589 75.0879C78.8767 75.2278 79.0386 75.3308 79.23 75.2572C79.4361 75.1762 79.4655 74.9775 79.3772 74.8155C78.9503 73.9908 78.8472 73.0042 78.2142 72.29C77.8977 71.9293 77.7947 71.5317 77.7285 71.0752C77.4782 69.367 78.1848 67.6294 77.5812 65.9286C77.5224 65.7666 77.7137 65.6047 77.9051 65.5752C78.0891 65.5458 78.1038 65.7004 78.1406 65.8255C78.4645 66.9373 78.7589 68.0712 79.7599 68.8222L79.7673 68.8369Z" fill="#75673A"/>
<path d="M71.5014 68.6457C71.6633 68.7193 71.8326 68.8003 71.9945 68.874C71.9798 69.5145 72.414 69.9416 72.7453 70.4128C72.8998 70.6263 72.8998 70.8619 72.7011 71.0092C72.4582 71.1785 72.3036 70.965 72.1564 70.7883C72.0975 70.722 72.046 70.6484 71.9871 70.5821C71.7442 70.3023 71.678 69.6397 71.1922 69.8606C70.6991 70.0888 71.1922 70.5527 71.2364 70.9135C71.2732 71.1564 71.5014 71.4509 71.1333 71.5982C70.8904 71.6939 70.7359 71.4804 70.5887 71.3037C69.9409 70.4864 69.2564 69.7059 68.6529 68.8518C67.9831 67.902 67.88 66.6799 67.2544 65.7006C67.1145 65.4797 67.0704 65.1926 66.96 64.9496C66.8569 64.7213 66.8054 64.3532 66.4447 64.4857C66.1356 64.5962 66.1798 64.9201 66.2534 65.1852C66.4594 65.9436 66.1061 66.8566 67.0188 67.4456C67.2985 67.6223 67.7181 68.3512 67.0998 68.6899C66.4742 69.0359 66.43 68.307 66.2607 67.9536C65.7602 66.9155 65.2155 65.8847 65.4952 64.6256C65.2008 64.5373 64.9138 64.4489 64.5457 64.3311C64.7518 65.4208 63.8391 65.5975 63.2356 66.0246C61.8886 64.552 61.2777 62.6819 60.6153 60.8854C60.2988 60.0239 59.7688 59.2729 59.5185 58.3526C59.1873 57.1525 58.8929 55.9155 58.4366 54.7374C57.8404 53.1692 57.6343 51.4831 57.3767 49.8559C56.9645 47.3084 56.4272 44.7535 56.4051 42.1398C56.3904 40.2034 56.0665 38.2669 56.1622 36.3158C56.7289 36.3821 57.3251 36.4115 57.3619 37.1993C57.4797 37.192 57.5975 37.1773 57.7079 37.1699C57.8551 37.4423 57.7962 37.7147 57.6416 37.9356C57.0086 38.8339 57.1485 39.9088 56.935 40.8955C56.8761 41.1752 56.9129 41.455 57.2221 41.5655C57.5239 41.6759 57.7447 41.4992 57.8919 41.2562C58.0465 40.9838 58.2305 40.704 58.2894 40.4095C58.5028 39.364 58.5396 38.2743 59.099 37.3172C58.5691 35.9182 60.1589 34.939 59.7026 33.5401C60.4975 33.9524 60.4018 34.5856 60.3503 35.1819C60.3282 35.4396 60.1368 35.69 60.1221 35.9477C60.1 36.279 59.9675 36.7502 60.4901 36.8018C60.9612 36.8459 61.55 37.2951 61.8665 36.5072C62.1021 35.9256 62.3891 35.366 62.6394 34.7917C62.7056 34.6298 62.816 34.3721 62.7424 34.2837C62.0285 33.4296 62.5658 32.6492 62.8528 31.8613C63.0295 31.368 63.0442 30.9115 62.8234 30.433C62.6688 30.109 62.5584 29.763 62.7351 29.3948C62.8528 29.3507 62.9706 29.3065 63.0884 29.2623C63.9863 29.1371 64.7665 29.3654 65.4069 30.028C65.4584 30.3814 65.4658 30.7496 65.5836 31.0809C65.9516 32.1706 65.5468 33.0983 65.0683 34.026C64.9432 34.2616 64.8181 34.615 64.531 34.534C63.633 34.2837 63.4785 34.939 63.2135 35.4985C62.9117 36.1391 62.713 36.8533 61.9769 37.1846C61.7708 37.273 61.6163 37.5528 61.6752 37.7515C61.9328 38.5688 61.8076 39.5849 62.7792 40.0708C63.3607 40.3653 63.6183 40.7629 63.1031 41.3299C62.9485 41.5066 62.8087 41.6759 62.8823 41.9189C63.1252 42.7803 63.3681 43.6344 63.6183 44.4959C63.7361 44.9082 64.0084 45.0554 64.4353 44.9892C64.9579 44.9082 65.0757 44.5474 65.0536 44.113C65.0315 43.6197 64.9506 43.1337 64.9138 42.6478C64.8696 42.0661 64.7886 41.5066 65.5173 41.19C65.9074 41.0206 65.8338 40.5936 65.6204 40.2549C65.3627 39.8352 65.0904 39.4229 64.8549 38.9959C64.7592 38.8339 64.7813 38.6277 64.9947 38.5615C65.1051 38.532 65.3039 38.5688 65.3554 38.6498C65.6572 39.0916 65.9074 39.5628 66.2092 40.0045C66.879 40.9985 67.0483 42.3386 68.0567 43.0749C69.0135 43.767 69.6171 44.5768 70.0808 45.6886C71.1112 48.1404 72.4214 50.445 73.0176 53.1103C73.496 55.2676 74.1069 57.4322 74.8872 59.538C75.4981 61.1799 76.0722 62.9028 75.7262 64.7435C75.66 65.0895 75.7631 65.4724 75.2625 65.5755C74.7841 65.6712 74.5265 65.4871 74.3351 65.0379C73.8714 63.9482 73.1206 63.0132 73.0544 61.7247C73.0176 61.0031 72.6201 60.2889 72.6128 59.5085C72.6128 59.0594 72.4067 58.6323 72.127 58.2716C71.8841 57.955 71.6486 57.6089 71.1775 57.6016C70.6991 57.6016 71.0965 58.3452 70.5077 58.3084C70.2648 58.0875 70.1691 57.7341 70.0661 57.4028C69.3079 55.0467 68.0567 52.9262 66.9305 50.7395C66.6655 50.2241 66.3122 49.7529 66.0031 49.2669C65.8853 49.0828 65.8044 48.8251 65.5173 48.9356C65.2818 49.0239 65.1935 49.2669 65.1935 49.4804C65.1935 49.7381 65.2744 50.0105 65.3554 50.2609C65.8927 51.9101 66.3711 53.5815 67.0115 55.1866C68.0493 57.7709 68.7927 60.4436 69.6907 63.0721C69.9851 63.9409 70.5666 64.876 70.0881 65.8994C69.5876 66.6283 70.331 66.8934 70.6181 67.3278C70.6328 67.5708 70.7947 67.7033 71.0008 67.799C70.9861 68.1892 71.1628 68.4616 71.5087 68.6236L71.5014 68.6457ZM69.5803 50.5333C69.7348 50.8499 69.9115 51.2475 70.1838 51.3874C70.942 51.7776 70.9199 52.4182 70.9346 53.0956C70.9493 53.4858 70.8757 53.9202 71.2069 54.2294C71.3689 54.384 71.575 54.4945 71.8105 54.443C72.0755 54.3841 72.1417 54.1705 72.1491 53.9349C72.1638 53.5742 72.1859 53.1986 71.9945 52.8894C70.8831 51.0634 70.3016 48.9871 69.227 47.1391C68.9914 46.7415 68.8001 46.285 68.1523 45.8138C68.3879 47.6766 68.881 49.1344 69.5729 50.5333H69.5803Z" fill="#806B3B"/>
<path d="M62.7202 29.4024C62.6318 29.1667 62.5435 28.9238 62.4478 28.6881C62.5877 28.3642 62.4993 28.1286 62.1755 27.974C62.1755 27.569 62.0356 27.2082 61.778 26.899C61.9179 26.575 61.8295 26.3395 61.513 26.1848C61.3217 25.9713 61.1745 25.7136 60.8874 25.6031C61.1892 24.4766 61.3143 23.2986 62.0136 22.3046C62.3669 21.804 61.9768 20.8689 61.2849 20.6628C60.6077 20.464 60.7108 20.14 60.9169 19.6909H61.042L61.0199 19.6172L60.9169 19.6909C60.7917 19.5363 60.674 19.3816 60.5488 19.227L61.0567 18.5791C61.5572 18.6527 61.5351 19.3154 62.0724 19.4626C62.4552 19.146 62.5435 18.638 62.7643 18.2257C62.9557 17.8723 63.0367 17.4231 63.3016 17.1507C63.8021 16.6353 64.0303 16.142 63.5372 15.4205C64.1702 15.7371 64.6339 16.2672 65.5687 16.142C64.8032 15.4573 64.1922 14.9124 63.5813 14.3676C63.9862 13.4693 64.494 12.6815 65.2595 12.0041C67.394 10.1046 69.455 8.13131 71.5453 6.18018C71.9207 6.36424 72.1342 6.70296 72.3403 7.04165C72.5316 7.34352 72.6052 7.66746 73.1278 7.33613C73.2677 7.24778 73.9743 7.83683 74.2393 8.23442C74.3865 8.4553 73.8271 8.41849 73.6651 8.60992C73.0616 8.64674 72.4433 8.52156 72.2299 9.42718C72.1636 9.6996 71.3466 9.75112 70.8976 9.67749C70.2425 9.56705 70.1616 9.78058 70.1468 10.377C70.11 11.8716 70.4339 13.3074 70.6474 14.7652C70.6915 15.0744 70.7946 15.3836 70.9271 15.6634C71.2656 16.3776 71.5453 17.0476 71.4349 17.9238C71.3466 18.6822 71.5527 19.5436 72.1636 20.1621C72.5684 20.5744 72.6788 21.0677 72.7083 21.6273C72.7451 22.2531 72.9144 22.8642 72.9806 23.4827C73.0321 23.9539 73.2162 24.2631 73.5768 24.6018C74.1877 25.1761 74.6146 25.9124 74.6956 26.8107C74.8134 28.2022 75.1667 29.4465 76.0131 30.6687C76.6388 31.5744 77.5294 32.3475 77.6545 33.6801C78.5451 32.9586 77.7502 31.9425 78.5378 31.4492C78.9794 31.5302 78.8395 31.9351 78.9205 32.2002C79.0309 32.5389 79.0309 32.907 79.134 33.2531C79.3768 34.0703 79.9583 34.7477 80.2748 34.571C80.871 34.247 81.0256 33.577 81.1286 32.9806C81.2022 32.561 81.0771 32.0824 80.952 31.6627C80.7753 31.0884 80.7532 30.5362 80.7753 29.9398C80.7901 29.5791 80.7532 29.3582 81.0845 29.0563C81.6733 28.5262 82.1665 27.8709 82.4462 27.0904C83.3736 28.4967 83.2337 30.1828 83.4913 31.7216C83.7048 32.988 83.6312 34.3575 83.6974 35.6681C83.8446 38.5469 83.3073 41.2932 82.4093 43.9954C81.9972 44.0911 82.0413 44.2899 82.2842 44.5328C82.3505 44.8347 82.2033 45.0629 82.0413 45.2912C81.1139 45.0114 81.1139 45.0114 81.0477 45.755C81.0256 46.0201 81.1286 46.3367 80.9225 46.5282C80.2307 47.1687 80.7312 47.5147 81.2243 47.8829C81.3715 48.1847 81.504 48.4866 81.1434 48.737C80.6134 49.0462 80.2601 49.407 80.7385 50.0328C80.5472 51.0194 80.3705 52.006 79.8994 52.9043C79.4063 52.838 79.2002 52.087 78.6408 52.2932C77.9416 52.5509 78.869 53.2061 78.3611 53.5816C77.4705 53.5669 77.6398 52.8012 77.5662 52.2785C77.1834 52.0649 76.5725 53.081 76.5504 52.1754C76.5284 51.3728 76.4916 50.4819 76.8669 49.6868C77.1172 49.1493 77.4705 49.0167 77.9121 49.3996C78.3169 49.753 78.6702 50.1285 79.2591 49.7383C79.053 49.4291 79.0235 48.9137 78.6482 48.8916C77.9563 48.8474 77.9857 48.4056 77.9857 47.9639C77.9857 47.2938 77.9416 46.6091 78.074 45.9612C78.1845 45.4164 78.1918 44.9083 78.1035 44.3782C77.706 41.9706 77.2791 39.563 76.9405 37.1406C76.7418 35.7638 76.3149 34.4458 75.9837 33.1058C75.8659 32.6125 76.1162 32.0971 75.8365 31.6627C74.8943 30.2123 73.9375 28.7691 72.9512 27.3481C72.7892 27.1199 72.4286 27.0242 72.1562 26.8696C72.3403 26.5309 72.2814 26.2216 72.1931 25.8461C71.9134 24.6681 71.6778 23.4827 71.6337 22.2752C71.5969 21.2886 71.6042 20.3167 70.9418 19.47C70.6768 19.1313 70.721 18.6601 70.743 18.1888C70.7798 17.1949 70.6915 16.1715 69.9555 15.2364C68.292 17.4821 67.7989 19.9338 67.9019 22.5623C67.4971 23.1293 67.5928 23.7625 67.74 24.3662C67.9093 25.0509 67.9093 25.6105 67.0775 25.824C66.3489 26.0081 66.5844 27.2377 65.6202 27.1788C65.6202 27.3113 65.5834 27.4512 65.6275 27.5617C65.7306 27.8046 65.8704 28.0329 66.0103 28.2611C66.5991 29.2036 66.4887 29.5201 65.3994 30.0134C64.759 29.3508 63.9788 29.1226 63.0808 29.2477C62.9631 29.2919 62.8453 29.3361 62.7275 29.3802L62.7202 29.4024ZM78.9647 45.4164C79.4652 44.901 80.0687 44.9746 80.3558 44.4371C79.7228 44.2997 79.2591 44.6261 78.9647 45.4164ZM77.7723 50.3199C77.6251 50.2684 77.5294 50.3789 77.5147 50.5188C77.4999 50.6513 77.5515 50.7912 77.6987 50.8132C77.7502 50.8206 77.8238 50.7102 77.8827 50.6513C77.9195 50.5114 77.9121 50.3715 77.7649 50.3199H77.7723Z" fill="#6F653A"/>
<path d="M73.8272 8.91915C74.0701 8.6909 73.7168 8.73507 73.6653 8.63199C73.8346 8.44056 74.3866 8.47737 74.2394 8.25648C73.9744 7.85889 73.2678 7.26989 73.128 7.35825C72.6054 7.68957 72.5318 7.35823 72.3404 7.06372C72.1343 6.72503 71.9208 6.39372 71.5455 6.20229C71.7 5.84887 71.8693 5.53225 72.3404 5.62797C72.3993 6.00347 72.6054 6.26119 72.9734 6.43053C73.3635 6.15075 73.0544 5.42921 73.6726 5.29668C74.0627 5.20833 74.1952 5.54698 74.4308 5.71632C74.7031 6.40842 75.2698 6.78395 75.9102 7.07846C75.8881 7.52022 75.866 7.96935 75.844 8.41112C75.5348 8.70563 75.1889 8.32277 74.8577 8.46266C75.0785 9.14004 75.7041 9.25046 76.2267 9.50816C76.5653 10.2886 77.0364 11.0322 76.8523 11.9379C76.764 12.2692 76.9333 12.4533 77.2056 12.5858C77.765 13.8522 78.2287 15.1627 78.9574 16.3482C79.0678 16.5249 79.3623 16.6206 79.3181 16.8709C79.112 18.0122 79.826 18.8515 80.2529 19.7866C80.643 20.648 80.9816 21.5242 81.3422 22.4004C81.195 22.6286 80.9889 22.7611 80.7313 22.8789C80.275 23.0851 80.1351 23.4827 80.2087 23.976C80.3265 24.8006 80.4148 25.6252 80.5252 26.5235C81.2024 26.4351 81.8574 26.4499 82.4242 26.8475C82.4757 26.9358 82.4757 27.0168 82.4242 27.1052C82.1445 27.8783 81.644 28.5335 81.0625 29.071C80.7313 29.3729 80.7681 29.5938 80.7534 29.9546C80.7313 30.5436 80.7534 31.1031 80.93 31.6774C81.0625 32.0971 81.1803 32.5757 81.1067 32.9954C81.0036 33.5918 80.8564 34.2618 80.2529 34.5857C79.929 34.7624 79.3475 34.0777 79.112 33.2678C79.009 32.9291 79.009 32.5536 78.8986 32.2149C78.8102 31.9499 78.9574 31.5449 78.5158 31.4639C77.7282 31.9572 78.5232 32.9733 77.6326 33.6948C77.5074 32.3695 76.6168 31.5891 75.9912 30.6835C75.1447 29.4686 74.7914 28.217 74.6737 26.8254C74.6 25.9271 74.1658 25.1909 73.5549 24.6166C73.1942 24.2779 73.0028 23.9686 72.9587 23.4974C72.8924 22.8789 72.7231 22.2605 72.6863 21.642C72.6569 21.075 72.5465 20.5891 72.1417 20.1768C71.5307 19.551 71.3173 18.6969 71.413 17.9385C71.516 17.0624 71.2363 16.3997 70.9051 15.6782C70.7726 15.3984 70.6696 15.0891 70.6254 14.7799C70.4193 13.3221 70.0881 11.8863 70.1249 10.3917C70.1396 9.79532 70.2206 9.58179 70.8757 9.69223C71.332 9.76586 72.149 9.7143 72.2079 9.44188C72.4214 8.53626 73.0396 8.66143 73.6432 8.62462C73.6432 8.75715 73.761 8.96332 73.8051 8.91178L73.8272 8.91915ZM75.9691 10.5021C75.9985 10.4064 75.9617 10.215 75.8808 10.1561C75.7041 10.0236 75.5716 10.2002 75.4612 10.318C75.3508 10.4359 75.4097 10.5537 75.579 10.642C75.7188 10.7009 75.9028 10.7083 75.9691 10.5021ZM74.4455 10.318C74.4013 10.2518 74.3645 10.1634 74.3056 10.1413C74.2467 10.1119 74.1511 10.1414 74.0775 10.1561C74.1216 10.215 74.1658 10.2813 74.2173 10.3402C74.2983 10.3402 74.3719 10.3254 74.4528 10.318H74.4455Z" fill="#645A33"/>
<path d="M71.9948 68.8739C71.9801 69.5144 72.4143 69.9415 72.7455 70.4127C72.9001 70.6262 72.9001 70.8618 72.7014 71.0091C72.4585 71.1784 72.3039 70.9649 72.1567 70.7882C72.0978 70.7219 72.0463 70.6483 71.9874 70.582C71.7445 70.3022 71.6783 69.6396 71.1925 69.8605C70.6993 70.0887 71.1925 70.5526 71.2366 70.9134C71.2734 71.1563 71.5016 71.4508 71.1336 71.5981C70.8907 71.6938 70.7361 71.4803 70.5889 71.3036C69.9412 70.4863 69.2567 69.7058 68.6531 68.8518C67.9833 67.902 67.8803 66.6798 67.2546 65.7005C67.1148 65.4796 67.0706 65.1925 66.9602 64.9495C66.8572 64.7213 66.8057 64.3531 66.445 64.4856C66.1359 64.5961 66.18 64.9201 66.2536 65.1851C66.4597 65.9435 66.1064 66.8565 67.0191 67.4455C67.2988 67.6222 67.7184 68.3511 67.1001 68.6898C66.4744 69.0358 66.4303 68.3069 66.261 67.9535C65.7605 66.9154 65.2158 65.8846 65.4955 64.6255C65.2011 64.5372 64.914 64.4489 64.546 64.3311C64.7521 65.4207 63.8394 65.5974 63.2358 66.0245C63.2579 67.0405 64.1044 67.5339 64.6785 68.1523C66.0181 69.5733 67.0633 71.2079 68.2115 72.7761C69.5069 74.5358 71.0085 76.0599 73.0179 77.0245C75.4321 78.1878 78.0303 78.4602 80.6507 78.6369C80.9304 78.659 81.1512 78.5485 81.4014 78.4307C81.821 78.2466 82.2258 78.2909 82.6159 78.6443C83.0134 78.9977 83.4697 79.1744 84.0733 79.1891C84.6915 79.2038 84.9492 79.0198 85.1773 78.5044C85.4129 77.9743 85.0375 77.7239 84.7578 77.503C83.0134 76.1703 82.2405 74.2045 81.1732 72.3932C80.4961 71.2447 80.4225 69.9415 79.7895 68.8297C78.7958 68.0787 78.494 66.9448 78.1702 65.833C78.1334 65.7079 78.1187 65.5532 77.9347 65.5827C77.7433 65.6121 77.5519 65.7742 77.6108 65.9361C78.2144 67.6369 77.5151 69.3745 77.758 71.0827C77.8242 71.5392 77.9273 71.9294 78.2438 72.2976C78.8768 73.0191 78.9798 73.9984 79.4067 74.823C79.4951 74.9923 79.4656 75.1837 79.2595 75.2647C79.0682 75.3384 78.9062 75.2353 78.7885 75.0954C78.1481 74.3444 77.6844 73.4682 77.1986 72.6142C76.3963 71.1858 75.6897 69.7058 74.961 67.9903C74.5268 68.7929 74.6813 69.3304 75.0052 69.8605C75.2775 70.3096 75.8001 70.9355 75.2113 71.2373C74.4973 71.5981 74.4679 70.6925 74.2839 70.2581C73.6656 68.7855 73.6877 68.7781 72.0169 68.8591L71.9948 68.8739Z" fill="#7D6D3F"/>
<path d="M60.9172 19.6982C60.792 19.5436 60.6743 19.389 60.5491 19.2344C59.4156 20.5229 58.893 22.1279 58.3042 23.6815C57.9288 24.6754 57.7448 25.7504 57.3032 26.7076C56.7659 27.8709 56.5009 29.071 56.4567 30.3153C56.4126 31.4639 56.2948 32.5978 56.074 33.7243C55.9562 34.328 56.3463 34.9391 56.1108 35.5576C56.4494 35.7785 56.4935 36.0215 56.177 36.2939L56.1623 36.3086C56.7291 36.3749 57.3253 36.4043 57.3621 37.1921C57.4798 37.1848 57.5976 37.17 57.708 37.1627C57.7743 36.9123 57.8626 36.662 57.9141 36.4043C58.1496 35.1159 58.3778 33.8274 58.6133 32.5389C57.7374 31.6774 57.5976 31.0958 58.26 30.2785C58.5913 29.8662 58.8047 29.476 58.79 28.9827C58.7311 27.3702 59.4009 26.229 60.9024 25.5958C61.2042 24.4693 61.3293 23.2912 62.0286 22.2973C62.3819 21.7966 61.9918 20.8615 61.2999 20.6554C60.6227 20.4566 60.7258 20.1326 60.9319 19.6835L60.9172 19.6982Z" fill="#7D6D3F"/>
<path d="M61.0571 18.5938C61.5576 18.6675 61.5356 19.3301 62.0729 19.4773C62.4556 19.1607 62.5439 18.6527 62.7648 18.2404C62.9561 17.887 63.0371 17.4379 63.3021 17.1655C63.8026 16.6501 64.0308 16.1567 63.5376 15.4352C64.1706 15.7518 64.6343 16.2819 65.5691 16.1568C64.8036 15.472 64.1927 14.9272 63.5818 14.3823C62.4851 15.634 61.4767 16.9372 61.0571 18.5938Z" fill="#7D6D3F"/>
<path d="M81.3498 22.4004C81.2026 22.6286 80.9965 22.7611 80.7389 22.8789C80.2825 23.0851 80.1427 23.4827 80.2163 23.976C80.3341 24.8007 80.4224 25.6253 80.5328 26.5235C81.21 26.4352 81.865 26.4499 82.4318 26.8475C82.5569 25.2498 81.8724 23.8435 81.3498 22.4004Z" fill="#6F653A"/>
<path d="M74.4384 5.70879C74.5906 5.06087 74.2176 4.57735 73.3197 4.2583C73.1798 4.84732 72.326 4.9283 72.3481 5.62776C72.407 6.00326 72.6131 6.26098 72.9811 6.43032C73.3712 6.15054 73.062 5.42901 73.6803 5.29648C74.0704 5.20812 74.2029 5.54677 74.4384 5.71611V5.70879Z" fill="#6F653A"/>
<path d="M82.0342 45.3129C81.1068 45.0331 81.1068 45.0331 81.0405 45.7768C81.0185 46.0418 81.1215 46.3584 80.9154 46.5499C80.2235 47.1904 80.724 47.5365 81.2172 47.9046C81.7766 47.1315 81.6956 46.1523 82.0342 45.3129Z" fill="#72673C"/>
<path d="M75.8589 8.40332C75.5497 8.69783 75.2038 8.31497 74.8726 8.45487C75.0934 9.13224 75.719 9.24267 76.2416 9.50036C76.2195 9.09541 75.9987 8.7641 75.8589 8.40332Z" fill="#6F653A"/>
<path d="M81.1435 48.7588C80.6135 49.068 80.2602 49.4288 80.7386 50.0546C80.7092 49.5687 81.298 49.2815 81.1435 48.7588Z" fill="#72673C"/>
<path d="M82.4024 44.0098C81.9902 44.1055 82.0344 44.3043 82.2773 44.5473C82.3656 44.3779 82.5938 44.2454 82.4024 44.0098Z" fill="#916D4D"/>
<path d="M76.8673 11.9302C76.779 12.2615 76.9483 12.4456 77.2206 12.5781C77.2721 12.2689 77.1838 12.0333 76.8673 11.9302Z" fill="#A2888C"/>
<path d="M56.1696 36.3085C56.4861 36.0361 56.4419 35.7858 56.1033 35.5723C55.9635 35.83 56.0518 36.0729 56.1696 36.3085Z" fill="#806B3B"/>
<path d="M72.1565 26.8915C72.3405 26.5528 72.2816 26.2436 72.1933 25.8681C71.9136 24.69 71.6781 23.5046 71.6339 22.2971C71.5971 21.3105 71.6045 20.3386 70.942 19.4919C70.6771 19.1532 70.7212 18.682 70.7433 18.2108C70.7801 17.2168 70.6918 16.1934 69.9557 15.2583C68.2923 17.5039 67.7991 19.9558 67.9022 22.5843C68.8885 24.0053 69.7349 25.4631 69.7864 27.2891C69.838 29.0635 70.0514 30.8379 70.206 32.6123C70.2281 32.8332 70.3017 33.0467 70.3753 33.2603C70.7433 34.3352 71.3984 35.285 71.6413 36.4189C72.1271 36.2127 71.9872 35.9109 71.9946 35.6605C72.0608 33.8861 72.0755 32.1043 72.1859 30.3299C72.2375 29.5126 72.0903 28.7248 72.0093 27.9296C71.9725 27.5541 71.9872 27.2228 72.1565 26.8915Z" fill="#7D6D3F"/>
<path d="M70.081 65.9214C69.5805 66.6503 70.3239 66.9154 70.611 67.3498C70.979 66.6724 70.8024 66.1938 70.081 65.9214Z" fill="#7D6D3F"/>
<path d="M70.9935 67.821C70.9788 68.2112 71.1555 68.4836 71.5014 68.6456C71.5529 68.2333 71.8326 67.6811 70.9935 67.821Z" fill="#7D6D3F"/>
<path d="M58.6059 32.5605C58.3704 33.849 58.1422 35.1375 57.9067 36.426C57.8625 36.6837 57.7742 36.934 57.7006 37.1844C57.8478 37.4568 57.7889 37.7292 57.6344 37.9501C57.0014 38.8483 57.1412 39.9233 56.9278 40.9099C56.8689 41.1897 56.9057 41.4695 57.2148 41.5799C57.5166 41.6904 57.7374 41.5137 57.8846 41.2707C58.0392 40.9983 58.2232 40.7185 58.2821 40.424C58.4955 39.3784 58.5323 38.2888 59.0917 37.3316C58.5618 35.9327 60.1516 34.9534 59.6953 33.5545C60.4902 33.9668 60.3945 34.6 60.343 35.1964C60.3209 35.4541 60.1296 35.7044 60.1148 35.9621C60.0928 36.2935 59.9603 36.7647 60.4829 36.8162C60.9539 36.8604 61.5428 37.3095 61.8593 36.5217C62.0948 35.94 62.3818 35.3805 62.6321 34.8062C62.6983 34.6442 62.8088 34.3865 62.7351 34.2981C62.0212 33.4441 62.5585 32.6636 62.8456 31.8758C63.0222 31.3825 63.0369 30.926 62.8161 30.4474C62.6615 30.1235 62.5511 29.7774 62.7278 29.4093C62.6395 29.1737 62.5511 28.9307 62.4555 28.6951C62.1463 28.5405 62.0506 28.3049 62.1831 27.9809C61.8151 27.8116 61.4544 27.6496 61.1747 27.333C61.0202 27.1563 60.7257 27.0237 60.5859 27.2078C60.1296 27.8042 59.2757 28.0177 59.2463 29.0412C59.2095 30.2192 58.8341 31.3899 58.6059 32.5605Z" fill="#916D4D"/>
<path d="M68.1597 45.814C68.3952 47.6767 68.8884 49.1346 69.5803 50.5335C69.7348 50.8501 69.9115 51.2477 70.1838 51.3876C70.942 51.7778 70.9199 52.4184 70.9346 53.0957C70.9493 53.486 70.8757 53.9204 71.2069 54.2296C71.3689 54.3842 71.575 54.4947 71.8105 54.4431C72.0755 54.3842 72.1417 54.1707 72.1491 53.9351C72.1638 53.5743 72.1859 53.1988 71.9945 52.8896C70.8831 51.0636 70.3016 48.9873 69.227 47.1393C68.9914 46.7417 68.8001 46.2852 68.1523 45.814H68.1597Z" fill="#75673A"/>
<path d="M58.6057 32.5608C58.8339 31.3901 59.2093 30.2195 59.2461 29.0414C59.2829 28.0106 60.1367 27.8044 60.5857 27.2081C60.7255 27.024 61.0126 27.1492 61.1745 27.3333C61.4468 27.6499 61.8149 27.8192 62.1829 27.9812C62.1829 27.5762 62.043 27.2228 61.7854 26.9062C61.4689 26.7516 61.3806 26.516 61.5205 26.192C61.3291 25.9785 61.1819 25.7208 60.8948 25.6104C59.3933 26.2435 58.7235 27.3848 58.7824 28.9972C58.7971 29.4906 58.5836 29.8881 58.2524 30.2931C57.59 31.1103 57.7298 31.692 58.6057 32.5534V32.5608Z" fill="#806B3B"/>
<path d="M80.356 44.4368C79.723 44.2994 79.2593 44.6258 78.9648 45.4161C79.4654 44.9007 80.0689 44.9743 80.356 44.4368Z" fill="#72673C"/>
<path d="M77.8905 50.6435C77.9273 50.5036 77.9199 50.3637 77.7727 50.3122C77.6255 50.2607 77.5298 50.3711 77.5151 50.511C77.5004 50.6435 77.5519 50.7835 77.6991 50.8055C77.7506 50.8129 77.8242 50.7024 77.8831 50.6435H77.8905Z" fill="#75673A"/>
<path d="M62.183 27.981C62.0505 28.3049 62.1388 28.5405 62.4553 28.6951C62.5951 28.3712 62.5068 28.1356 62.183 27.981Z" fill="#806B3B"/>
<path d="M61.5131 26.1919C61.3732 26.5159 61.4689 26.7515 61.778 26.9061C61.9179 26.5821 61.8296 26.3465 61.5131 26.1919Z" fill="#7D6D3F"/>
<path d="M75.5793 10.642C75.7191 10.7009 75.9031 10.7082 75.9694 10.5021C75.9988 10.4064 75.962 10.215 75.8811 10.1561C75.7044 10.0235 75.5719 10.2002 75.4615 10.318C75.3511 10.4358 75.41 10.5536 75.5793 10.642Z" fill="#6F653A"/>
<path d="M74.2174 10.3398C74.2984 10.3398 74.372 10.3251 74.453 10.3177C74.4088 10.2515 74.372 10.1631 74.3131 10.141C74.2542 10.1116 74.1586 10.141 74.085 10.1558C74.1291 10.2147 74.1733 10.2809 74.2248 10.3472L74.2174 10.3398Z" fill="#6F653A"/>
<path d="M73.6655 8.62451C73.6655 8.75704 73.7833 8.96321 73.8275 8.91167C74.0703 8.68342 73.7171 8.72759 73.6655 8.62451Z" fill="#6F653A"/>
<path d="M8.39271 17.3493C8.71657 17.4966 9.04779 17.7763 9.39373 17.6806C10.4168 17.3934 11.3516 17.8058 12.279 18.034C13.9572 18.4464 15.628 18.3359 17.1737 17.85C18.1527 17.5407 19.0948 17.953 20.0001 17.5407C20.9276 17.121 21.9433 17.0106 22.9149 16.7382C24.306 16.3406 25.6824 15.8841 27.022 15.3466C28.8621 14.6177 30.4888 13.4249 32.3657 12.7696C32.6527 12.6666 32.7926 12.4678 32.8809 12.2027C31.8946 11.6726 31.8873 11.6726 32.1596 10.5976C32.2038 10.4136 32.189 10.2442 32.1081 10.0823C31.4677 10.016 30.8789 10.2957 30.2606 10.362C30.0839 10.3841 29.8926 10.2516 29.8852 10.0528C29.8852 9.9497 29.9956 9.80247 30.0987 9.75093C30.8347 9.39015 31.6002 9.21342 32.4246 9.35331C33.2416 9.23551 33.3225 8.62442 33.2784 7.99122C33.2269 7.30648 32.5865 7.65252 32.2406 7.47582C32.2038 7.45373 32.1596 7.44637 32.1154 7.43164C30.452 8.03539 28.7885 8.66859 27.0588 9.05146C25.9842 9.29443 24.8801 9.53002 23.7908 9.53738C22.9222 9.53738 22.1199 9.58158 21.325 9.92763C20.7509 10.178 20.14 10.3326 19.5732 10.5976C18.6311 11.0394 17.9171 10.4651 17.2105 10.0528C16.5923 9.69201 17.2326 9.07353 17.1222 8.58023C17.1075 8.49924 17.1664 8.4109 17.1884 8.32255C16.2537 8.62442 15.444 9.18401 14.7669 9.85402C13.3757 11.2235 11.7344 12.2395 10.1445 13.3366C9.77648 14.2275 9.02571 14.684 8.19398 15.0448C7.7818 15.2215 7.35489 15.354 6.95743 15.5528C6.69981 15.678 6.58941 15.943 6.66301 16.2302C6.73661 16.532 6.95007 16.7014 7.25921 16.5909C7.98789 16.3406 8.2087 16.7897 8.37063 17.3493H8.39271Z" fill="#916D4D"/>
<path d="M17.2107 8.31509C17.1887 8.40344 17.1298 8.49178 17.1445 8.57277C17.2476 9.06607 16.6146 9.68454 17.2328 10.0453C17.9321 10.4576 18.6534 11.032 19.5955 10.5902C20.1623 10.3251 20.7732 10.1705 21.3473 9.92016C22.1422 9.56675 22.9445 9.52996 23.8131 9.52996C24.9024 9.52996 26.0065 9.28697 27.0811 9.04399C28.8108 8.66113 30.4743 8.02792 32.1377 7.42418C33.1314 6.35658 34.39 5.79704 35.7885 5.48044C36.002 5.4289 36.2743 5.41416 36.2964 5.14174C36.3258 4.79569 35.9872 4.76624 35.7812 4.63371C35.6855 4.72942 35.6413 4.7368 35.656 4.64845C35.656 4.63372 35.737 4.64844 35.7812 4.64108C35.9431 4.2214 36.2228 3.73543 35.3616 3.87532C35.1408 3.91213 34.92 3.95634 34.8537 3.63238C35.1408 3.25688 35.4058 2.81511 35.8474 2.61632C36.7086 2.22609 37.1723 1.52663 37.5697 0.731451C35.9357 0.562107 34.3311 0.915529 32.7192 1.06278C30.9085 1.22477 29.1788 1.83585 27.4491 2.37333C25.6385 2.9329 23.975 3.83118 22.3483 4.78834C20.9719 5.59824 19.6544 6.48911 18.2927 7.33583C17.8658 7.60089 17.4757 7.88069 17.2181 8.32246L17.2107 8.31509Z" fill="#867042"/>
<path d="M55.6765 6.04007C53.807 6.51128 51.9227 6.90888 49.9575 6.83526C49.192 6.80581 48.3897 6.9825 47.6169 7.05613C46.4024 7.17393 45.2542 7.82922 43.9955 7.51999C43.3552 7.13713 42.6559 7.0856 41.9272 7.12242C40.2711 7.21077 38.8064 6.5113 37.327 5.92228C37.2092 5.87811 37.0252 5.72347 37.0399 5.67193C37.2018 5.09027 37.4962 4.56018 37.6066 3.95644C37.6729 3.5883 38.0851 3.53677 38.3869 3.59567C39.2259 3.75765 40.065 3.32322 40.9115 3.66191C41.4488 3.87543 41.6917 3.35267 41.964 3.01398C42.1701 2.75628 42.1112 2.24091 42.5897 2.24827C43.2448 2.24827 43.863 1.71079 44.5475 2.11575C45.1805 2.48388 45.8945 2.52069 46.6085 2.60904C46.8366 2.22617 46.3877 1.79914 46.7262 1.46045C46.9839 1.54144 47.2415 1.62977 47.4991 1.71076C47.6463 2.18934 47.8524 2.04209 48.0658 1.7623C48.3676 1.7623 48.662 1.75497 48.9638 1.74761C50.0016 1.96849 50.9879 2.52067 52.0994 2.31451H52.1067C52.5704 3.24222 53.6892 3.75026 54.5651 3.43366L54.5357 3.4484C54.6093 4.05215 55.1171 4.03743 55.5367 4.14788C56.339 4.37612 57.2958 4.40554 57.3253 5.59095C56.8763 6.08425 56.2286 5.89284 55.6913 6.02537L55.6765 6.04007ZM44.209 3.64717C45.0039 3.93432 45.6516 3.97853 46.6306 3.72819C45.6958 3.19071 45.0407 2.97716 44.209 3.64717Z" fill="#645A33"/>
<path d="M43.9879 7.51237C43.3475 7.12951 42.6482 7.07799 41.9196 7.1148C40.2635 7.20315 38.7987 6.50369 37.3193 5.91467C37.2015 5.87049 37.0175 5.7159 37.0322 5.66436C37.1942 5.0827 37.4886 4.55257 37.599 3.94882C37.6652 3.58068 38.0774 3.52915 38.3792 3.58805C39.2183 3.75003 40.0574 3.31561 40.9038 3.65429C41.4411 3.86781 41.684 3.34505 41.9564 3.00637C42.1625 2.74867 42.1036 2.23329 42.582 2.24065C43.2371 2.24065 43.8554 1.70318 44.5399 2.10813C45.1729 2.47627 45.8868 2.51307 46.6008 2.60142C46.829 2.21856 46.38 1.79152 46.7186 1.45283C45.2023 0.930077 43.5977 0.966888 42.0373 0.804907C40.5579 0.650289 39.0564 0.495682 37.5622 0.723927C37.1721 1.51911 36.701 2.21857 35.8398 2.60879C35.3982 2.80759 35.1406 3.24936 34.8462 3.62486C34.9198 3.94882 35.1332 3.90466 35.354 3.86784C36.2152 3.72795 35.9355 4.21387 35.7736 4.63355C35.987 4.76608 36.3256 4.79553 36.2888 5.13421C36.2667 5.40664 35.9944 5.42138 35.781 5.47292C34.3898 5.78952 33.1238 6.34905 32.1302 7.41665C32.1743 7.43138 32.2185 7.43878 32.2553 7.46087C32.6012 7.63758 33.2416 7.29149 33.2931 7.97623C33.3446 8.60943 33.2563 9.2132 32.4393 9.33837C32.3289 9.58134 32.2259 9.8243 32.1155 10.0673C32.1964 10.2366 32.2111 10.3986 32.167 10.5827C31.8946 11.6576 31.902 11.6576 32.8883 12.1878H32.903C33.0281 11.9669 33.1827 11.8196 33.4624 11.93C34.2941 11.9079 34.9566 11.4809 35.6632 11.1054C36.6274 10.59 37.6063 10.1114 38.5926 9.64022C40.3518 8.80087 42.3023 8.48426 43.9879 7.51237Z" fill="#72673C"/>
<path d="M8.39294 17.3491C8.23101 16.7896 8.0102 16.3404 7.28151 16.5908C6.97237 16.6938 6.75892 16.5319 6.68532 16.23C6.61171 15.9355 6.71476 15.6778 6.97973 15.5526C7.3772 15.3538 7.8041 15.2213 8.21629 15.0446C9.04802 14.6838 9.79879 14.2273 10.1668 13.3364C8.9965 13.3732 8.01756 14.0874 6.86197 14.242C6.25105 14.323 5.63277 14.5292 5.02186 14.404C3.66017 14.1243 2.57083 14.8532 1.39316 15.2802C1.02513 15.4127 0.715995 15.663 0.826402 16.068C0.922088 16.4288 1.29747 16.6423 1.67285 16.5981C2.3721 16.5245 2.85052 16.8485 3.432 17.1945C4.51399 17.8424 5.80942 17.7762 7.01654 17.6068C7.45816 17.5406 8.0838 18.1443 8.38558 17.3491H8.39294Z" fill="#867042"/>
<path d="M46.6306 3.73526C45.6958 3.19778 45.0407 2.98427 44.209 3.65428C45.0039 3.94143 45.6516 3.9856 46.6306 3.73526Z" fill="#7D6D3F"/>
<path d="M16.6439 55.1424C17.1444 54.627 17.7406 54.0453 18.4325 54.0232C19.3305 53.9864 19.6175 53.3164 20.1254 52.8599C20.2873 52.7127 20.4051 52.4329 20.2652 52.2488C20.0444 51.9764 19.7795 52.1457 19.5734 52.3298C19.4409 52.4476 19.3452 52.6022 19.1391 52.5875C19.0066 52.5065 18.9477 52.3592 19.014 52.2488C19.647 51.1223 20.2652 49.9884 20.9424 48.8914C21.1706 48.5232 21.5312 48.0594 21.8993 47.9858C23.7541 47.6176 24.5711 45.9684 25.7856 44.864C27.5374 43.281 28.9579 41.3593 30.6508 39.6806C31.2838 39.0547 31.5488 37.943 31.7107 37.0005C31.9389 35.6679 32.6897 34.8285 33.7643 34.2027C34.4488 33.8051 34.9641 33.2749 35.3174 32.5902C35.5087 32.2221 35.7222 31.8613 36.0828 31.6772C37.4519 30.941 38.1143 29.5715 38.9681 28.4008C39.6011 27.5394 40.212 26.6779 40.8892 25.8459C41.6326 24.9256 42.3245 23.9095 42.7661 22.7757C42.9575 22.2676 42.8324 21.9805 42.2803 21.9657C41.7725 21.951 41.2425 21.5166 40.7494 22.0099C40.4623 21.9805 40.1826 21.951 39.8955 21.9289C39.741 21.7817 39.5422 21.4798 39.3582 21.6713C38.4603 22.5916 37.29 23.2101 36.495 24.2335C36.3846 24.3734 36.3405 24.5501 36.2669 24.7121C36.1491 24.7563 36.024 24.8004 35.9062 24.8446C35.8252 24.8078 35.7443 24.771 35.6633 24.7268C36.0755 23.4015 37.128 22.4738 37.9524 21.4651C38.5044 20.7951 38.6958 20.1619 38.6884 19.4551C38.6884 18.6304 38.9461 18.0561 39.6379 17.6806C40.0501 17.4524 40.3372 17.2536 39.9176 16.7824C39.4466 16.2523 38.9461 16.1418 38.5412 16.5909C38.1806 16.9812 37.8861 17.4377 37.5917 17.8868C37.3856 18.2108 37.1427 18.3286 36.8115 18.1224C36.4214 17.8794 36.7674 17.6659 36.8851 17.4671C37.0765 17.1284 37.0471 16.775 37.0397 16.4216C37.8199 16.024 38.4382 15.3835 39.2478 15.0006C39.8072 14.7355 40.4108 14.603 40.9334 14.3085C43.7009 12.7329 46.6745 11.5696 49.4789 10.0749C50.5829 9.48589 51.8047 9.27237 52.9162 8.73489C54.6238 7.91026 56.5375 7.67465 58.2967 6.98991C58.6647 6.85002 59.099 6.90157 59.2756 7.4096C59.3786 7.70411 59.57 7.96915 59.6583 8.27103C59.7393 8.55081 59.7467 8.75698 59.386 9.01467C58.2819 9.80985 57.3104 10.7744 56.3609 11.761C55.2789 12.8875 53.8804 13.7268 52.7837 14.8092C51.5324 16.0387 49.9426 16.9443 49.0372 18.5642C48.4189 19.6686 47.4326 20.5595 46.8364 21.6713C45.9679 23.2984 44.9007 24.7857 43.9659 26.3687C43.2372 27.6057 42.56 28.8647 42.0154 30.2047C41.478 31.5226 41.0511 32.8847 40.4549 34.1732C39.8955 35.3807 39.1742 36.5146 38.6811 37.7663C37.7831 40.0266 36.1932 41.8378 34.6917 43.6785C33.1828 45.5266 31.4899 47.22 29.8412 48.9429C29.1346 49.6792 28.4427 50.5406 27.5668 50.9603C25.9769 51.726 24.4165 52.5801 22.812 53.3238C20.7657 54.2736 18.6165 55.0393 16.7764 56.4014C16.2759 56.0259 16.2538 55.5694 16.6586 55.1571L16.6439 55.1424ZM54.2705 10.4872C54.3294 10.3694 54.3367 10.2295 54.1969 10.178C53.9466 10.0822 53.8141 10.281 53.6669 10.4209C53.5124 10.5682 53.6669 10.6271 53.7553 10.7007C53.9908 10.7817 54.1674 10.7155 54.2705 10.4872Z" fill="#6F653A"/>
<path d="M35.8916 24.8447C35.8106 24.8079 35.7297 24.7711 35.6487 24.7269C34.287 24.4545 35.1997 23.4826 35.1556 22.8788C34.7434 22.6211 34.471 22.8568 34.184 22.9378C33.3302 23.1586 32.8885 22.7684 33.1094 21.9217C33.2345 21.4505 33.4627 21.0161 33.8012 20.6332C34.3312 20.0295 34.817 19.3963 35.3248 18.7705C35.4426 18.6232 35.5457 18.4391 35.4279 18.2845C35.2586 18.071 35.0083 18.1299 34.8391 18.2992C34.2429 18.903 33.6467 19.5214 33.2566 20.2724C32.9033 20.9645 32.3586 21.3327 31.6888 21.6493C30.9748 21.988 30.1431 22.2015 29.6867 22.9083C29.385 23.3722 28.9728 23.6961 28.5974 24.079C27.6626 25.014 26.7499 25.9786 25.8446 26.9431C25.7342 27.0609 25.6091 27.2892 25.6532 27.4143C25.9329 28.2831 25.241 28.7102 24.8436 29.255C24.5197 29.6968 24.1443 30.1165 24.2621 30.6908C24.3504 31.1252 24.4387 31.5743 23.9309 31.6774C23.4451 31.7731 22.9151 31.5227 22.6428 31.1178C22.3263 30.6392 22.871 30.4257 23.1507 30.1901C23.5187 29.8809 23.6144 29.5642 23.4009 29.1887C22.525 29.1004 22.4146 29.9324 21.9583 30.4404C21.8626 29.6379 22.1202 29.0268 22.4073 28.4157C22.6722 27.8561 23.0255 27.3113 22.9151 26.6412C22.7606 26.5676 22.606 26.494 22.4514 26.4204C22.3778 26.5824 22.2969 26.7517 22.2233 26.9137C22.0834 27.7751 21.6271 28.4893 21.1928 29.2182C20.8395 29.8146 20.3169 30.3668 20.626 31.1767C20.7659 31.5448 20.5819 31.8909 20.3022 32.1412C19.993 32.4284 19.7649 32.7744 19.6692 33.1573C19.4631 33.9893 19.2276 34.7697 18.3443 35.1526C18.1824 35.2262 18.1382 35.425 18.0646 35.587C17.7849 36.1907 18.3811 37.1184 17.3286 37.4792C17.1519 37.5381 17.4316 38.1934 17.1666 38.4805C16.5042 39.2021 16.644 40.0341 16.7471 40.8808C16.828 41.5729 16.7765 42.2356 16.173 42.6921C15.1131 43.502 14.3329 44.4959 13.8912 45.7623C13.6925 46.3293 13.2582 46.4765 12.6988 46.2777C12.3603 47.338 12.0143 48.3908 11.6757 49.4511C12.8608 49.5615 12.9933 49.7088 12.5222 50.7028C12.0585 51.6673 12.007 52.7496 11.4991 53.7068C11.9186 53.7657 11.9039 53.0809 12.3014 53.3239C12.7062 53.5742 12.5295 53.9497 12.3897 54.281C12.1983 54.7375 12.0438 55.2161 11.7714 55.6211C11.0133 56.7623 11.4328 57.8667 11.845 59.0448C12.2572 58.1318 13.0301 57.4986 13.4202 56.6003C13.5747 56.2396 13.7735 55.9671 14.2298 56.1217C14.642 55.2235 15.0542 54.3252 15.459 53.427C15.5105 53.2576 15.6504 53.0588 15.6062 52.919C15.2308 51.7483 15.6357 50.931 16.6882 50.3714C16.8501 50.2831 17.0268 50.0106 16.9458 49.9517C16.3643 49.5394 16.6514 48.4939 15.7608 48.354C15.4664 48.3099 15.2382 48.2215 15.1793 47.9122C15.1057 47.5515 15.3486 47.3748 15.5989 47.1539C16.0773 46.7489 16.6735 46.9183 17.277 46.8299C17.1225 46.1894 17.7628 45.6225 17.2108 45.0997C16.6072 44.5254 16.9826 44.1646 17.4095 43.7891C18.2118 43.0823 19.0215 42.3755 19.8311 41.6686C20.1329 41.4036 20.4567 41.168 20.626 40.7778C20.9793 39.9605 21.3253 39.1653 22.1202 38.6204C22.422 38.4069 22.871 37.7958 21.9215 37.5749C21.5387 37.4866 21.708 37.17 21.87 36.9417C22.5545 35.9551 23.239 34.9759 23.7763 33.8936C23.9898 33.4592 24.2327 33.0763 24.9098 33.2972C25.3073 33.4223 25.852 33.0763 26.0139 32.7008C26.3083 32.0308 26.9045 31.6995 27.405 31.2945C27.8319 30.9485 28.3692 30.3447 29.039 31C29.3334 30.676 29.8045 30.3962 29.9002 30.0281C30.2682 28.5997 31.6373 28.1138 32.4764 27.1419C32.7119 26.8695 33.1094 26.4056 33.4921 26.7738C34.3165 27.5763 34.655 26.818 35.082 26.3688C35.4941 25.9418 35.6119 25.338 35.8842 24.83L35.8916 24.8447Z" fill="#916D4D"/>
<path d="M16.7617 56.3939C16.2612 56.0184 16.2391 55.5619 16.644 55.1496C17.1445 54.6342 17.7407 54.0526 18.4326 54.0305C19.3305 53.9937 19.6176 53.3236 20.1255 52.8672C20.2874 52.7199 20.4052 52.4401 20.2653 52.256C20.0445 51.9836 19.7795 52.1529 19.5734 52.337C19.4409 52.4548 19.3453 52.6095 19.1392 52.5947C19.0067 52.5137 18.9478 52.3665 19.014 52.256C19.647 51.1295 20.2653 49.9957 20.9425 48.8986C21.1706 48.5305 21.5313 48.0666 21.8993 47.993C23.7542 47.6249 24.5712 45.9756 25.7856 44.8712C27.5374 43.2882 28.958 41.3665 30.6509 39.6878C31.2839 39.062 31.5489 37.9502 31.7108 37.0077C31.939 35.6751 32.6897 34.8357 33.7644 34.2099C34.4489 33.8123 34.9641 33.2822 35.3174 32.5975C35.5088 32.2293 35.7222 31.8685 36.0829 31.6845C37.452 30.9482 38.1144 29.5787 38.9682 28.408C39.6012 27.5466 40.2121 26.6852 40.8893 25.8532C41.6327 24.9328 42.3246 23.9168 42.7662 22.7829C42.9576 22.2749 42.8324 21.9877 42.2804 21.973C41.7725 21.9583 41.2426 21.5239 40.7494 22.0172C41.0954 22.238 41.6989 22.2749 41.5002 22.9154C41.007 24.5058 39.9619 25.8016 39.1817 27.2374C38.9976 27.5834 38.5707 27.5613 38.2248 27.3478C37.8715 27.1269 37.9672 26.8177 38.107 26.5305C38.3794 25.971 38.5781 25.3893 38.9461 24.8739C39.3583 24.2996 39.557 23.6296 39.4393 22.9081C38.6002 23.2983 38.0776 23.9757 37.6948 24.7856C37.1134 25.4556 36.5098 26.0961 36.0387 26.8619C35.575 27.6129 34.8537 28.2092 34.39 28.9602C33.8969 29.7628 33.3154 30.4917 32.7265 31.2206C31.4826 32.7815 31.49 32.7889 31.4679 33.6872C33.3595 31.2795 35.1629 29.1517 37.3563 27.3699C37.5108 27.6718 37.371 27.7822 37.2606 27.9295C36.392 29.0781 35.0009 29.8659 34.8537 31.5004C34.8464 31.6035 34.6476 31.6845 34.5961 31.7949C34.2943 32.5312 33.5362 32.6417 32.9915 33.0392C32.4321 33.4516 32.5941 34.4455 31.9169 34.9462C31.409 35.3217 31.0925 35.8813 30.8791 36.485C30.5847 37.3023 30.0694 37.9649 29.4585 38.576C28.6341 39.4006 27.9864 40.3284 27.4197 41.3739C26.4775 43.0968 25.0349 44.3263 22.9445 44.5104C22.6575 44.5325 22.4366 44.6798 22.2453 44.8712C21.0382 46.064 19.7574 47.242 19.1024 48.8176C18.6239 49.9662 18.0645 51.0633 17.5125 52.1677C17.1298 52.9334 16.8648 53.7728 16.2244 54.3913C16.0772 54.7152 15.93 55.0392 15.7828 55.3631C15.9742 55.7386 15.7607 56.0479 15.6209 56.3645C15.2749 57.1302 14.9216 57.9033 14.5757 58.669C14.7744 58.7279 14.9143 58.6543 15.0026 58.4776C15.4148 57.6309 16.1876 57.0934 16.7765 56.4013L16.7617 56.3939Z" fill="#75673A"/>
<path d="M23.5481 26.759C23.9382 26.2804 24.6669 26.1626 24.9098 25.5368C25.2558 24.6312 25.7636 23.9023 26.6469 23.4163C27.0738 23.1807 27.118 22.5769 27.3535 22.1499C27.6847 21.7229 27.9938 21.2737 28.6048 21.2296C28.936 21.2443 29.0537 21.0234 29.1274 20.7584C29.8192 20.2356 30.5847 19.8233 31.3281 19.3962C33.183 18.3286 35.1261 17.4009 37.0325 16.4217C37.0325 16.7825 37.0693 17.1359 36.8779 17.4672C36.7675 17.6586 36.4142 17.8722 36.8043 18.1225C37.1355 18.3286 37.3711 18.2108 37.5845 17.8869C37.8716 17.4377 38.1733 16.9886 38.534 16.591C38.9388 16.1493 39.4393 16.2523 39.9104 16.7825C40.33 17.2537 40.0429 17.4598 39.6307 17.6807C38.9388 18.0636 38.6739 18.6305 38.6812 19.4551C38.6812 20.162 38.4972 20.7952 37.9452 21.4652C37.1208 22.4739 36.0683 23.4016 35.6561 24.7269C34.2944 24.4544 35.2071 23.4825 35.1629 22.8788C34.7507 22.6211 34.4784 22.8567 34.1913 22.9377C33.3375 23.1586 32.8959 22.7684 33.1167 21.9217C33.2418 21.4504 33.47 21.016 33.8086 20.6332C34.3385 20.0294 34.8243 19.3962 35.3322 18.7704C35.45 18.6232 35.553 18.4391 35.4353 18.2844C35.266 18.0709 35.0157 18.1298 34.8464 18.2992C34.2502 18.9029 33.654 19.5214 33.2639 20.2724C32.9106 20.9645 32.3659 21.3326 31.6961 21.6492C30.9822 21.9879 30.1505 22.2015 29.6941 22.9083C29.3923 23.3721 28.9801 23.6961 28.6048 24.0789C27.67 25.014 26.7573 25.9785 25.852 26.9431C25.7415 27.0609 25.6164 27.2891 25.6606 27.4143C25.9403 28.2831 25.2484 28.7101 24.8509 29.255C24.5271 29.6967 24.1517 30.1164 24.2695 30.6907C24.3578 31.1251 24.4461 31.5742 23.9382 31.6773C23.4524 31.773 22.9225 31.5227 22.6502 31.1177C22.3337 30.6392 22.8783 30.4257 23.158 30.1901C23.5261 29.8808 23.6217 29.5642 23.4083 29.1887C22.5324 29.1003 22.422 29.9323 21.9656 30.4404C21.87 29.6378 22.1276 29.0267 22.4146 28.4156C22.6796 27.856 23.0329 27.3112 22.9225 26.6412C23.1359 26.6854 23.4819 26.84 23.5408 26.7664L23.5481 26.759ZM23.9824 28.5997C24.0266 28.4672 23.9456 28.3715 23.8131 28.3862C23.7616 28.3862 23.6733 28.4892 23.6733 28.5408C23.6733 28.5997 23.7616 28.6512 23.8058 28.7101C23.8646 28.6733 23.9677 28.6512 23.9824 28.5997Z" fill="#7D6D3F"/>
<path d="M12.7207 46.2923C13.2801 46.4911 13.7144 46.3439 13.9131 45.7769C14.3547 44.5105 15.1349 43.5166 16.1948 42.7067C16.7984 42.2502 16.8499 41.5801 16.7689 40.8954C16.6659 40.0487 16.5334 39.2167 17.1885 38.4951C17.4461 38.208 17.1738 37.5527 17.3504 37.4938C18.403 37.133 17.8068 36.2053 18.0865 35.6016C18.1601 35.4396 18.2042 35.2408 18.3662 35.1672C19.2494 34.7843 19.485 34.0039 19.691 33.1719C19.7867 32.789 20.0149 32.443 20.324 32.1558C20.5964 31.9055 20.7878 31.5594 20.6479 31.1913C20.3388 30.3814 20.8614 29.8292 21.2147 29.2328C21.6489 28.4965 22.1053 27.7897 22.2451 26.9282C21.7593 27.451 21.3471 28.0106 21.0159 28.6511C20.5669 29.5126 19.9781 30.3078 19.4997 31.1471C18.8814 32.2442 18.1674 33.275 17.7847 34.5561C17.4461 35.6752 16.6733 36.7502 16.0697 37.8251C14.7963 40.0782 13.9352 42.5078 12.9342 44.8786C12.7428 45.3278 12.7575 45.8211 12.7428 46.307L12.7207 46.2923Z" fill="#867042"/>
<path d="M12.9561 59.4497C12.588 59.9283 12.1022 60.1418 11.4324 60.0019C10.7847 59.8694 10.4535 59.5969 10.6081 58.9343C10.7111 58.4999 10.6964 58.1465 10.2916 57.8961C10.3063 57.5943 10.1812 57.2777 10.4093 57.0126C10.7553 56.8064 10.8657 56.5635 10.5418 56.2395C9.80578 54.9216 9.98979 53.6405 10.6154 52.3225C11.0497 51.4095 11.5502 50.5039 11.6974 49.4731C12.8824 49.5836 13.0149 49.7308 12.5439 50.7248C12.0802 51.6893 12.0286 52.7716 11.5208 53.7288C11.9403 53.7877 11.9256 53.1029 12.3231 53.3459C12.7279 53.5963 12.5512 53.9718 12.4114 54.3031C12.22 54.7596 12.0654 55.2381 11.7931 55.6431C11.035 56.7843 11.4545 57.8888 11.8667 59.0668C12.2789 58.1538 13.0517 57.5206 13.4418 56.6224C13.5964 56.2616 13.7951 55.9892 14.2515 56.1438C14.2294 57.4028 13.7142 58.4852 12.9708 59.457L12.9561 59.4497ZM11.3294 54.6639C11.1969 54.6197 11.0865 54.6933 11.035 54.8185C10.9614 54.9878 10.9908 55.1719 11.1969 55.194C11.2779 55.2013 11.3809 55.0615 11.4398 55.0173C11.4913 54.8332 11.4692 54.7081 11.3294 54.6639Z" fill="#867042"/>
<path d="M14.237 56.1362C14.2149 57.3952 13.6997 58.4776 12.9562 59.4494C12.5882 59.928 12.1024 60.1415 11.4326 60.0017C10.7849 59.8691 10.4537 59.5967 10.6083 58.934C10.7113 58.4996 10.6966 58.1462 10.2918 57.8959C9.71765 58.7279 9.53364 59.582 10.1078 60.4949C10.1519 60.5686 10.2108 60.6643 10.1961 60.7379C9.98999 62.0927 10.8659 62.8363 11.7712 63.5652C12.3453 63.3885 12.0509 62.8879 12.176 62.5418C12.5735 61.3785 13.0887 60.2888 13.9352 59.3685C14.1118 59.177 14.2002 58.9046 14.3253 58.669C14.2149 57.5278 15.054 56.659 15.2085 55.584C15.238 55.3926 15.5545 55.3631 15.7753 55.3558C15.9225 55.0318 16.0697 54.7078 16.2169 54.3839C16.055 54.001 15.9667 53.5518 15.4588 53.4414C15.0466 54.3397 14.6344 55.2379 14.2296 56.1362H14.237Z" fill="#7D6D3F"/>
<path d="M15.7825 55.356C15.5617 55.356 15.2379 55.3854 15.2158 55.5842C15.0612 56.6592 14.2295 57.528 14.3325 58.6692C14.4135 58.706 14.4945 58.706 14.5754 58.6692C14.9214 57.9035 15.2747 57.1377 15.6206 56.3647C15.7605 56.0481 15.9813 55.7388 15.7825 55.3633V55.356Z" fill="#867042"/>
<path d="M10.4094 57.0123C10.7553 56.8062 10.8657 56.5632 10.5419 56.2393C10.4315 56.4896 10.3726 56.7399 10.4094 57.0123Z" fill="#7D6D3F"/>
<path d="M15.4662 53.4414C15.9741 53.5518 16.055 53.9936 16.2243 54.3838C16.8647 53.7653 17.1296 52.926 17.5124 52.1602C18.0644 51.0558 18.6238 49.9588 19.1022 48.8102C19.7573 47.2346 21.0454 46.0565 22.2452 44.8638C22.4365 44.6723 22.6573 44.5251 22.9444 44.503C25.0348 44.3189 26.4774 43.0967 27.4196 41.3665C27.9863 40.3209 28.634 39.3932 29.4584 38.5686C30.0693 37.9575 30.5845 37.3022 30.879 36.4776C31.0924 35.8738 31.4163 35.3142 31.9168 34.9387C32.5939 34.4381 32.432 33.4441 32.9914 33.0318C33.5361 32.6342 34.2942 32.5238 34.596 31.7875C34.6401 31.6697 34.8462 31.596 34.8536 31.493C35.0008 29.8584 36.3919 29.0633 37.2605 27.922C37.3709 27.7822 37.5107 27.6717 37.3562 27.3625C35.1627 29.1443 33.3521 31.2721 31.4678 33.6797C31.4825 32.7741 31.4825 32.7741 32.7264 31.2132C33.3079 30.4843 33.8894 29.7553 34.3899 28.9528C34.8536 28.2018 35.5749 27.6054 36.0386 26.8544C36.5097 26.0887 37.1133 25.4481 37.6947 24.7781C37.2237 24.5278 36.7232 24.9843 36.2594 24.7192C36.1417 24.7634 36.0166 24.8076 35.8988 24.8518C35.6338 25.3672 35.5087 25.9635 35.0965 26.3906C34.6696 26.8397 34.331 27.5981 33.5066 26.7955C33.1239 26.4274 32.7264 26.8839 32.4909 27.1637C31.6444 28.1355 30.2828 28.6142 29.9147 30.0499C29.8191 30.4254 29.3553 30.7052 29.0536 31.0218C28.3838 30.3591 27.8391 30.9629 27.4196 31.3163C26.9264 31.7212 26.3302 32.0526 26.0284 32.7226C25.8591 33.0981 25.3218 33.4515 24.9244 33.319C24.2472 33.1054 24.0043 33.4809 23.7908 33.9153C23.2609 34.9977 22.569 35.9769 21.8845 36.9635C21.7226 37.1991 21.5533 37.5157 21.936 37.5967C22.8855 37.8102 22.4439 38.4287 22.1347 38.6422C21.3398 39.1944 20.9939 39.9896 20.6406 40.7995C20.4713 41.1897 20.1548 41.4327 19.8457 41.6904C19.036 42.3899 18.2264 43.0967 17.4241 43.8109C16.9972 44.1864 16.6218 44.5472 17.2253 45.1215C17.7774 45.6442 17.137 46.2112 17.2916 46.8517C16.6807 46.9401 16.0918 46.7633 15.6134 47.1756C15.3558 47.3965 15.1202 47.5733 15.1938 47.934C15.2527 48.2433 15.4809 48.3316 15.7753 48.3758C16.6659 48.5157 16.3789 49.5612 16.9604 49.9735C17.0413 50.0251 16.8647 50.3049 16.7027 50.3932C15.6576 50.9528 15.2454 51.7627 15.6208 52.9407C15.6649 53.0806 15.5251 53.2794 15.4735 53.4487L15.4662 53.4414Z" fill="#867042"/>
<path d="M23.8132 28.7102C23.872 28.6734 23.9751 28.6513 23.9898 28.5998C24.034 28.4672 23.953 28.3715 23.8205 28.3863C23.769 28.3863 23.6807 28.4893 23.6807 28.5409C23.6807 28.5998 23.769 28.6513 23.8132 28.7102Z" fill="#916D4D"/>
<path d="M11.4473 55.0172C11.4988 54.8331 11.4767 54.708 11.3369 54.6638C11.2044 54.6196 11.094 54.6932 11.0425 54.8184C10.9688 54.9877 10.9983 55.1718 11.2044 55.1939C11.2853 55.2012 11.3884 55.0614 11.4473 55.0172Z" fill="#916D4D"/>
</svg>
