<svg width="185" height="89" viewBox="0 0 185 89" fill="none" xmlns="http://www.w3.org/2000/svg">
<path d="M8.44098 44.7183L7.88895 50.2625C8.14656 49.7692 8.52194 49.0991 9.02246 48.2451C9.52297 47.391 10.1044 46.6179 10.7742 45.9332C11.444 45.2411 12.1433 44.7919 12.8646 44.5858C13.5859 44.3796 14.2705 44.652 14.9255 45.403C15.3377 45.8742 15.6027 46.397 15.7131 46.9787C15.8235 47.5603 15.8382 48.1641 15.7573 48.7899C15.6763 49.4157 15.5438 50.0342 15.3819 50.6453C15.2126 51.2564 15.0801 51.8013 14.9771 52.2725C15.7425 51.7792 16.4639 51.3153 17.141 50.8809C17.8108 50.4465 18.4144 50.0489 18.9443 49.6808C19.5185 49.2611 20.0631 48.8414 20.5857 48.4218L21.653 49.6955C20.6888 50.314 19.754 50.9546 18.8486 51.6246C18.0316 52.1768 17.1705 52.7584 16.2578 53.3769C15.3451 53.988 14.4839 54.577 13.6669 55.1292C12.4303 57.478 11.3631 59.1272 10.4577 60.077C9.55977 61.0268 8.86788 61.5275 8.38209 61.579C7.89631 61.6306 7.60925 61.3287 7.51356 60.6734C7.41788 60.0181 7.51356 59.2745 7.80798 58.4425C8.1024 57.6105 8.63235 56.7711 9.38312 55.9171C10.1412 55.063 11.1202 54.4666 12.3126 54.1279C12.4745 53.7524 12.7027 53.2223 12.9897 52.5449C13.2768 51.8675 13.5197 51.1607 13.7258 50.4171C13.9245 49.6734 14.0717 48.9666 14.1527 48.2819C14.2337 47.6045 14.1527 47.0744 13.9024 46.6842C13.4902 46.2129 13.0339 46.1246 12.5187 46.4117C12.0108 46.6989 11.5103 47.1922 11.0171 47.8843C10.524 48.5838 10.0382 49.4231 9.55241 50.4024C9.06662 51.3816 8.63235 52.3461 8.24225 53.2886C7.85215 54.231 7.52093 55.0777 7.24123 55.8287C6.96153 56.5797 6.78488 57.0877 6.71128 57.3528L2.20668 88.269L0.491699 88.1439L6.92473 44.4312L8.42626 44.733L8.44098 44.7183ZM9.32424 59.2156C9.55977 59.0315 9.78794 58.7812 10.0088 58.4425C10.2296 58.1112 10.4945 57.7209 10.811 57.2718C10.3326 57.581 9.97931 57.905 9.7585 58.2363C9.53769 58.5677 9.39048 58.8916 9.32424 59.2082V59.2156Z" fill="#E2E0DE"/>
<path d="M27.0042 45.0127L26.4448 46.2349C26.7466 46.1981 27.0631 46.2423 27.3869 46.3674C27.8727 46.5736 28.3364 46.9197 28.7781 47.413C29.2197 47.9063 29.5067 48.5321 29.6392 49.2905C30.5004 49.1432 31.2585 48.9076 31.9136 48.5763C32.576 48.2449 33.2311 47.8179 33.8936 47.2804L34.372 48.8487C32.9073 50.0415 31.2806 50.7336 29.5067 50.925C28.859 53.929 28.1082 56.1378 27.2544 57.5441C26.4006 58.9504 25.5542 59.7898 24.7077 60.0622C23.8613 60.3346 23.059 60.1505 22.2935 59.5173C21.528 58.8768 20.9097 58.008 20.4239 56.9036C19.9455 55.7991 19.6585 54.5548 19.5554 53.178C19.4597 51.8012 19.6364 50.5053 20.1001 49.2978C20.5564 48.0903 21.3366 47.0816 22.4333 46.2644C23.5301 45.4471 25.0537 45.0421 27.0115 45.0348L27.0042 45.0127ZM25.4511 46.338C23.9202 46.9712 22.8529 47.9063 22.242 49.1579C21.6311 50.4096 21.3219 51.676 21.3072 52.9645C21.2925 54.253 21.5207 55.4016 21.9917 56.4029C22.4628 57.4042 23.0369 57.9859 23.7288 58.1479C24.4133 58.3025 25.1346 57.8534 25.9001 56.7931C26.6582 55.7329 27.3207 53.7817 27.8874 50.9397C27.3133 50.8514 26.7318 50.6305 26.1577 50.2771C25.5763 49.931 25.1346 49.5408 24.8329 49.1064C24.5311 48.6793 24.3912 48.2155 24.4133 47.7222C24.4354 47.2289 24.7813 46.765 25.4585 46.3306L25.4511 46.338ZM27.858 49.3199C27.7697 48.9665 27.6225 48.6794 27.4164 48.4437C27.2103 48.2081 26.9968 48.0535 26.7834 47.9725C26.408 47.8105 26.1724 47.7811 26.0768 47.8915C25.9884 48.002 26.0105 48.1419 26.1577 48.3039C26.3049 48.4658 26.5184 48.6646 26.7981 48.8929C27.0778 49.1211 27.4311 49.261 27.8506 49.3199H27.858Z" fill="#E2E0DE"/>
<path d="M28.0421 35.4047L36.5875 33.0854C37.3236 29.9194 37.9345 27.2909 38.4277 25.1999C38.9208 23.1162 39.1637 22.0413 39.1563 21.9897L40.8124 22.3505C40.7168 22.4168 40.4665 23.396 40.0543 25.2883C39.6421 27.1805 39.1122 29.6397 38.4645 32.6437L53.3988 28.6972L53.8036 30.2728L38.0449 34.4623C37.3457 37.9375 36.6317 41.5526 35.9104 45.315C35.1891 49.0774 34.6076 52.5084 34.1733 55.6228C33.739 58.7299 33.5477 61.248 33.6066 63.177C33.6654 65.0987 34.0924 65.9675 34.8946 65.7761C35.6969 65.5847 36.9629 64.0679 38.6853 61.2333C40.4076 58.3912 42.7482 53.7748 45.7071 47.3766L46.1856 49.6443C45.5231 51.161 44.9269 52.4863 44.3823 53.6275C43.8376 54.7688 43.2119 56.0204 42.5127 57.3825C41.8135 58.7447 41.0701 60.0626 40.2751 61.329C39.4876 62.5954 38.7074 63.7366 37.9419 64.7527C37.1764 65.7614 36.4551 66.4829 35.7853 66.9173C34.4825 67.7272 33.5256 67.7788 32.9073 67.0793C32.289 66.3798 31.9284 65.165 31.818 63.4495C31.7076 61.7339 31.7885 59.6576 32.0609 57.2058C32.3332 54.754 32.7012 52.2065 33.1576 49.5559C33.6139 46.9053 34.1144 44.2916 34.6591 41.7072C35.2038 39.1229 35.6748 36.8625 36.0797 34.9114L28.4322 36.9803L28.0273 35.4047H28.0421Z" fill="#E2E0DE"/>
<path d="M48.0107 40.8753C47.7678 41.9797 47.5691 42.9589 47.3998 43.7983C47.2232 44.5419 47.1054 45.2119 47.0392 45.8083C46.9729 46.4047 47.0465 46.7213 47.26 46.7508C47.5249 46.8244 47.9813 46.5593 48.6364 45.9409C49.2915 45.3298 49.9613 44.6229 50.6458 43.8277C51.4701 42.9148 52.3608 41.8619 53.3103 40.6765L54.8559 41.4348C53.9138 44.1149 53.1189 46.4931 52.4712 48.5694C52.1547 49.4824 51.8823 50.3438 51.6321 51.1684C51.3892 51.9931 51.1978 52.7367 51.0653 53.392C50.9328 54.0546 50.8445 54.5774 50.8077 54.9676C50.7709 55.3578 50.8298 55.5419 50.9844 55.5272C51.0948 55.564 51.3965 55.3137 51.9044 54.7688C52.4123 54.224 53.0158 53.5319 53.7224 52.6778C54.429 51.8311 55.1725 50.896 55.9674 49.8873C56.755 48.8712 57.491 47.9362 58.1681 47.06C58.8453 46.1912 59.4121 45.4549 59.8611 44.8659C60.31 44.2769 60.5603 43.975 60.6118 43.975L61.208 45.9188C61.1565 45.9188 60.8842 46.2796 60.3984 46.9717C59.9052 47.6711 59.2796 48.5252 58.5141 49.5339C57.7486 50.5426 56.9095 51.6102 56.0042 52.7441C55.0988 53.8706 54.2156 54.8866 53.3618 55.7775C52.508 56.6684 51.7425 57.3311 51.0653 57.7655C50.3882 58.1999 49.9318 58.1999 49.6742 57.7655C49.3356 57.493 49.1958 56.8893 49.2473 55.9616C49.2988 55.0265 49.4534 53.9442 49.7036 52.7072C49.9539 51.4703 50.2778 50.1597 50.6679 48.7829C51.058 47.3987 51.4186 46.1249 51.7572 44.9542C51.345 45.4107 50.8813 45.8746 50.3661 46.3385C49.8508 46.8097 49.343 47.222 48.8425 47.5828C48.342 47.9435 47.8856 48.238 47.4734 48.4663C47.0612 48.6945 46.6932 48.7682 46.3767 48.7019C45.7437 48.562 45.3831 48.054 45.28 47.1631C45.1843 46.2722 45.2064 45.3298 45.361 44.3358C45.545 43.1872 45.8688 41.884 46.3252 40.4482L47.996 40.8826L48.0107 40.8753Z" fill="#E2E0DE"/>
<path d="M65.7345 42.7231C65.5579 42.539 65.3444 42.4727 65.0942 42.5243C64.8439 42.5758 64.5937 42.6715 64.3508 42.7967C64.1079 42.9292 63.865 43.1059 63.6368 43.3342C63.4013 43.5624 63.1952 43.7981 63.0185 44.0189C62.6946 44.365 62.3045 44.8951 61.8408 45.6167C61.3771 46.3382 60.9576 47.0671 60.5748 47.8034C60.1921 48.5397 59.905 49.2023 59.7137 49.7913C59.5223 50.3804 59.5812 50.7043 59.8977 50.7779C60.538 50.9694 61.2962 50.6233 62.1794 49.7545C63.0627 48.8857 63.9312 47.7887 64.7924 46.456C65.6535 45.1307 66.4485 43.6876 67.1772 42.1414C67.9058 40.5953 68.4432 39.2331 68.7817 38.0698L70.4673 38.6588C70.4158 38.6588 70.2612 39.0049 69.9962 39.6749C69.7312 40.3449 69.4663 41.1769 69.1866 42.1561C68.9069 43.1428 68.6419 44.2398 68.3843 45.4473C68.134 46.6622 67.9868 47.8108 67.95 48.8931C67.9206 49.5631 68.0457 49.9018 68.3327 49.8944C68.6124 49.8944 68.9658 49.6809 69.3853 49.2759C69.8048 48.871 70.2759 48.3261 70.7911 47.6561C71.3064 46.9788 71.7995 46.3088 72.2706 45.6387C72.7343 44.9687 73.1391 44.3871 73.4703 43.8864C73.8016 43.3857 74.015 43.1059 74.1107 43.047L74.6039 44.7699C73.9414 45.7713 73.3526 46.618 72.8373 47.3175C72.3221 48.0169 71.7554 48.7237 71.1371 49.4306C70.5188 50.1447 69.9153 50.719 69.3191 51.1755C68.7229 51.6247 68.1708 51.8529 67.6556 51.8603C67.1404 51.8603 66.7723 51.5216 66.5368 50.8221C66.3896 50.4245 66.316 49.8576 66.3086 49.1066C66.3086 48.363 66.3822 47.5383 66.5442 46.6474C65.8376 47.7519 65.0721 48.871 64.2477 49.9901C63.416 51.1093 62.437 51.9118 61.3035 52.3978C60.17 52.8322 59.3309 52.95 58.7936 52.7512C58.2563 52.5524 57.9472 52.1474 57.8515 51.5437C57.7632 50.9326 57.8515 50.2037 58.1165 49.3496C58.3814 48.4955 58.7421 47.6193 59.1837 46.7211C59.6253 45.8228 60.1259 44.9835 60.6852 44.203C61.2446 43.4226 61.7525 42.7967 62.2162 42.3402C63.0111 41.5892 63.703 41.1106 64.2992 40.9192C64.8954 40.7278 65.4033 40.6615 65.8228 40.7131C66.2939 40.8161 66.684 41.0297 66.9711 41.361L65.7345 42.7305V42.7231Z" fill="#E2E0DE"/>
<path d="M76.3557 40.2564C76.3041 40.2564 76.1937 40.5435 76.0244 41.1031C75.8551 41.6627 75.6343 42.3695 75.3694 43.2236C75.1044 44.0777 74.8394 45.0054 74.5891 46.0141C74.3389 47.0228 74.1328 47.9946 73.9782 48.9371C73.8237 49.8795 73.7353 50.7041 73.7059 51.3962C73.6764 52.0957 73.8089 52.5596 74.0886 52.7804C74.2579 52.9203 74.5744 52.751 75.0381 52.2871C75.5018 51.8233 76.0244 51.2048 76.6059 50.417C77.1874 49.6365 77.7909 48.7677 78.4092 47.8253C79.0275 46.8829 79.5869 45.9846 80.0874 45.1305C80.5879 44.2764 81.1915 43.2972 81.8907 42.1928L82.7298 43.4886C81.346 45.9036 80.058 48.002 78.8582 49.7764C78.3283 50.5569 77.7909 51.2858 77.2463 51.9632C76.7016 52.6405 76.1716 53.2148 75.6564 53.6787C75.1412 54.1499 74.6628 54.4591 74.2138 54.6064C73.7648 54.761 73.3747 54.6947 73.0361 54.4223C72.6386 54.0542 72.3884 53.4357 72.2927 52.5743C72.197 51.7128 72.2191 50.7409 72.3663 49.6733C72.5061 48.6057 72.7049 47.4719 72.9625 46.2865C73.2201 45.1011 73.4851 44.0187 73.7648 43.0321C74.0445 42.0529 74.3683 40.919 74.7437 39.6453L76.3557 40.2417V40.2564ZM75.995 33.4237C76.3851 33.2249 76.7384 33.1513 77.0475 33.1955C77.364 33.2397 77.5848 33.3796 77.71 33.6225C77.8425 33.8655 77.8498 34.1747 77.7321 34.5429C77.6143 34.9184 77.3861 35.1761 77.0402 35.316C76.6574 35.5663 76.3041 35.6546 75.9876 35.5884C75.6711 35.5221 75.3988 35.3675 75.1633 35.1393C74.8247 34.403 75.097 33.836 75.9803 33.4311L75.995 33.4237Z" fill="#E2E0DE"/>
<path d="M75.6421 30.2138L84.1876 27.8945C84.9236 24.7285 85.5345 22.1 86.0277 20.009C86.5208 17.9253 86.7637 16.8504 86.7564 16.7988L88.4198 17.1596C88.3241 17.2185 88.0665 18.2051 87.6617 20.0973C87.2569 21.9896 86.7196 24.4487 86.0718 27.4527L101.006 23.5063L101.411 25.0819L85.6523 29.2713C84.953 32.7466 84.2391 36.3617 83.5178 40.1241C82.7964 43.8864 82.215 47.3175 81.7807 50.4319C81.3464 53.5464 81.1551 56.0571 81.2139 57.9861C81.2728 59.9078 81.6997 60.7766 82.502 60.5852C83.3043 60.3938 84.5703 58.877 86.2927 56.0424C88.015 53.2003 90.3556 48.5839 93.3145 42.1856L93.793 44.4534C93.1305 45.9701 92.5343 47.2954 91.9896 48.4366C91.445 49.5779 90.8193 50.8295 90.1201 52.1916C89.4208 53.5537 88.6774 54.8717 87.8899 56.1381C87.1023 57.4045 86.3221 58.5457 85.5566 59.5618C84.7911 60.5705 84.0698 61.292 83.4 61.7264C82.0972 62.5363 81.1403 62.5878 80.5221 61.8884C79.9038 61.1816 79.5431 59.9741 79.4327 58.2585C79.3223 56.543 79.4033 54.4667 79.6756 52.0149C79.9479 49.5631 80.316 47.0156 80.7723 44.365C81.2287 41.7144 81.7292 39.1006 82.2738 36.5163C82.8185 33.932 83.2896 31.6716 83.6944 29.7205L76.0469 31.7894L75.6421 30.2138Z" fill="#E2E0DE"/>
<path d="M113.21 35.6182L112.65 36.8404C112.96 36.8036 113.269 36.8477 113.593 36.9729C114.078 37.1791 114.542 37.5251 114.984 38.0184C115.425 38.5117 115.712 39.1376 115.845 39.8959C116.706 39.7487 117.464 39.5131 118.119 39.1817C118.782 38.8504 119.437 38.4234 120.099 37.8859L120.578 39.4542C119.113 40.6469 117.486 41.3317 115.705 41.5305C115.057 44.5345 114.306 46.7433 113.453 48.1496C112.599 49.5559 111.752 50.3952 110.906 50.6677C110.06 50.9401 109.257 50.756 108.492 50.1228C107.726 49.4822 107.108 48.6134 106.622 47.509C106.144 46.4046 105.857 45.1603 105.754 43.7835C105.658 42.4066 105.835 41.1108 106.298 39.9033C106.762 38.6958 107.535 37.6871 108.632 36.8698C109.728 36.0526 111.252 35.6476 113.21 35.6403V35.6182ZM111.657 36.9508C110.126 37.584 109.058 38.5191 108.455 39.7708C107.844 41.0224 107.535 42.2888 107.52 43.5773C107.505 44.8658 107.734 46.0144 108.205 47.0157C108.676 48.0171 109.25 48.5987 109.942 48.7607C110.626 48.9153 111.348 48.4662 112.113 47.4059C112.871 46.3457 113.534 44.3946 114.1 41.5525C113.526 41.4642 112.945 41.2433 112.371 40.8899C111.789 40.5439 111.348 40.1536 111.046 39.7192C110.744 39.2922 110.604 38.8283 110.626 38.335C110.648 37.8417 110.994 37.3779 111.671 36.9435L111.657 36.9508ZM114.064 39.9327C113.975 39.5793 113.828 39.2922 113.622 39.0566C113.416 38.821 113.202 38.6663 112.989 38.5854C112.614 38.4234 112.378 38.3939 112.282 38.5044C112.187 38.6148 112.216 38.7547 112.363 38.9167C112.511 39.0787 112.724 39.2775 113.004 39.5057C113.283 39.7339 113.637 39.8738 114.056 39.9327H114.064Z" fill="#E2E0DE"/>
<path d="M128.335 2.23535C127.555 6.43949 126.745 10.7982 125.899 15.319C125.192 19.2065 124.412 23.5285 123.566 28.2774C122.719 33.0264 121.888 37.768 121.063 42.4876L130.05 35.7138L129.594 37.9227L121.689 44.0338C122.476 47.0378 122.962 49.8135 123.139 52.3684C123.315 54.9233 123.293 57.2425 123.087 59.3262C122.874 61.4099 122.506 63.2211 121.983 64.7747C121.461 66.3282 120.886 67.5946 120.276 68.5886C119.797 69.3617 119.282 70.0979 118.745 70.8048C118.207 71.5042 117.442 71.8061 116.448 71.7104C115.926 71.6662 115.675 70.7238 115.675 68.8978C115.675 67.0718 115.845 64.6716 116.168 61.7044C116.485 58.7372 116.949 55.3135 117.56 51.4333C118.17 47.5605 118.826 43.5625 119.532 39.4394C120.239 35.3236 120.975 31.2225 121.748 27.1509C122.513 23.0793 123.227 19.3317 123.882 15.9154C124.537 12.499 125.104 9.53921 125.582 7.04323C126.054 4.54726 126.37 2.85382 126.532 1.95557L128.335 2.22063V2.23535ZM120.423 45.8744C120.452 46.1321 120.379 46.758 120.202 47.7519C120.025 48.7533 119.797 49.9608 119.517 51.3818C119.238 52.8028 118.936 54.3416 118.627 55.9982C118.318 57.6549 118.045 59.2526 117.802 60.7988C117.56 62.3449 117.353 63.7807 117.192 65.1133C117.03 66.446 116.971 67.4694 117.022 68.1836C117.074 68.8978 117.243 69.2512 117.523 69.2512C117.802 69.2512 118.274 68.6916 118.921 67.5946C119.444 66.7111 119.915 65.5919 120.334 64.2372C120.754 62.8824 121.07 61.2847 121.284 59.4587C121.497 57.6328 121.556 55.5933 121.468 53.3403C121.38 51.0873 121.026 48.5987 120.423 45.8892V45.8744Z" fill="#E2E0DE"/>
<path d="M145.389 34.8156C144.867 36.6268 144.499 38.0773 144.285 39.1817C144.072 40.2861 143.954 41.339 143.932 42.3477C143.91 43.3564 144.153 44.0117 144.646 44.3135C144.926 44.5418 145.272 44.4092 145.684 43.9307C146.096 43.4521 146.523 42.7968 146.972 41.9722C147.421 41.1475 147.892 40.2272 148.37 39.1964C148.849 38.1656 149.305 37.179 149.747 36.2292C150.181 35.2794 150.571 34.4401 150.902 33.7112C151.234 32.9822 151.469 32.5331 151.602 32.3638C152.227 32.4521 152.507 32.8571 152.433 33.586C152.367 33.9026 152.286 34.2486 152.198 34.6168C152.11 34.9849 151.962 35.3899 151.749 35.8243C151.403 38.7988 151.469 40.669 151.933 41.4421C152.404 42.2151 153.066 42.3109 153.935 41.7292C154.796 41.1475 155.768 40.1168 156.842 38.6295C157.917 37.1496 158.911 35.6402 159.823 34.094L159.764 36.4133C159.257 37.3925 158.69 38.3571 158.072 39.2995C157.49 40.0873 156.806 40.9046 156.025 41.7587C155.245 42.6201 154.34 43.3048 153.317 43.8276C152.632 44.1589 152.073 44.2325 151.638 44.0485C151.204 43.8644 150.866 43.5552 150.608 43.1208C150.35 42.6864 150.181 42.1636 150.093 41.5525C149.997 40.9414 149.953 40.4113 149.953 39.9474C149.74 40.3818 149.519 40.7941 149.276 41.177C149.033 41.5672 148.783 41.9795 148.525 42.4139C148.128 43.025 147.76 43.5625 147.428 44.0411C147.097 44.5123 146.759 44.9026 146.435 45.1897C145.367 46.2868 144.536 46.7506 143.925 46.5813C143.314 46.4193 142.872 45.9113 142.6 45.0645C142.328 44.2178 142.202 43.1502 142.21 41.8617C142.224 40.5732 142.305 39.3437 142.467 38.1656C142.622 36.9876 142.835 36.001 143.108 35.1984C143.38 34.3959 143.623 34.0351 143.836 34.1161L145.375 34.8008L145.389 34.8156Z" fill="#E2E0DE"/>
<path d="M164.718 28.6972C165.02 29.1242 165.101 29.6175 164.954 30.1771C164.806 30.7366 164.549 31.3036 164.173 31.8852C163.798 32.4669 163.371 33.0044 162.885 33.4903C162.399 33.9836 161.965 34.4033 161.597 34.7493H161.671C162.12 35.1028 162.532 35.4341 162.9 35.7286C163.268 36.0231 163.599 36.3618 163.901 36.7373C164.556 36.1483 165.255 35.574 165.991 35.007C166.727 34.4401 167.39 33.9247 167.986 33.4756C168.582 33.0265 169.252 32.5037 170.018 31.9L170.209 33.6523C169.642 34.1235 169.053 34.6242 168.442 35.1543C167.927 35.6255 167.316 36.1556 166.61 36.7447C165.903 37.3337 165.167 37.9595 164.416 38.6074C164.401 38.9682 164.328 39.4836 164.195 40.1389C164.063 40.8015 163.886 41.5378 163.665 42.3624C163.445 43.1871 163.165 44.0411 162.826 44.9247C162.488 45.8082 162.127 46.6623 161.752 47.4722C161.501 48.0097 161.207 48.5987 160.861 49.2319C160.515 49.8577 160.132 50.432 159.698 50.9401C159.264 51.4481 158.771 51.853 158.211 52.1476C157.652 52.4421 157.026 52.4936 156.342 52.3169C155.598 52.1402 155.171 51.7131 155.046 51.0284C154.921 50.3437 154.929 49.7178 155.076 49.1362C155.304 47.9287 155.687 46.8022 156.217 45.7714C156.747 44.7332 157.365 43.754 158.057 42.8263C158.756 41.8986 159.499 41.0371 160.28 40.2272C161.067 39.4247 161.862 38.6663 162.657 37.9595C162.399 37.5251 162.024 37.1128 161.524 36.7299C161.016 36.3471 160.5 35.9568 159.963 35.5519C159.426 35.1469 158.933 34.6978 158.469 34.2119C158.005 33.7186 157.681 33.1295 157.505 32.4227C157.313 31.6202 157.505 30.8544 158.064 30.1255C158.631 29.3966 159.338 28.8297 160.191 28.4247C161.045 28.0198 161.914 27.8136 162.79 27.7915C163.665 27.7768 164.313 28.0787 164.74 28.6972H164.718ZM162.304 40.5438C161.06 41.8618 159.882 43.2533 158.785 44.7112C157.681 46.169 156.997 47.7667 156.717 49.4896C156.518 50.4909 156.526 51.0284 156.739 51.1094C156.953 51.1904 157.277 50.9769 157.711 50.4615C158.145 49.9535 158.631 49.2393 159.176 48.3336C159.72 47.428 160.235 46.4709 160.714 45.4622C161.2 44.4608 161.597 43.5037 161.906 42.5907C162.215 41.6851 162.348 41.0003 162.304 40.5365V40.5438ZM160.235 33.586C160.515 33.3504 160.861 33.0559 161.259 32.7025C161.656 32.3491 162.039 31.9736 162.407 31.576C162.775 31.1784 163.055 30.8103 163.253 30.4789C163.445 30.1476 163.481 29.8899 163.364 29.6985C163.239 29.5071 162.937 29.4334 162.451 29.4923C161.965 29.5439 161.472 29.7059 160.957 29.9635C160.442 30.2286 160 30.5452 159.632 30.9207C159.264 31.2962 159.124 31.6864 159.22 32.084C159.279 32.5921 159.61 33.1001 160.235 33.5934V33.586Z" fill="#E2E0DE"/>
<path d="M170.857 54.5919C171.247 54.3931 171.6 54.3195 171.917 54.3636C172.226 54.4078 172.447 54.5477 172.579 54.7907C172.704 55.0336 172.719 55.3429 172.601 55.7184C172.491 56.0865 172.255 56.3442 171.917 56.4915C171.534 56.7418 171.181 56.8302 170.864 56.7565C170.548 56.6903 170.275 56.5356 170.04 56.3074C169.701 55.5711 169.973 55.0042 170.857 54.5992V54.5919ZM182.464 1.66098C180.764 9.67166 179.233 16.8651 177.864 23.2412C177.282 25.9286 176.723 28.594 176.186 31.2225C175.648 33.8583 175.17 36.1997 174.75 38.2539C174.331 40.3081 174 41.9942 173.757 43.3048C173.514 44.6153 173.396 45.3295 173.411 45.4252L171.733 45.6093C171.725 45.5062 171.85 44.7847 172.115 43.4446C172.38 42.1046 172.719 40.3817 173.138 38.276C173.551 36.1702 174.044 33.7994 174.603 31.1636C175.163 28.5277 175.722 25.8403 176.274 23.1013C176.826 20.3624 177.378 17.675 177.945 15.0391C178.504 12.4032 178.997 10.0619 179.417 8.00768C179.836 5.95347 180.182 4.30421 180.462 3.06726C180.742 1.83032 180.874 1.1824 180.867 1.13086L182.464 1.65361V1.66098Z" fill="#E2E0DE"/>
<path d="M10.3033 43.6949L9.75125 49.239C10.0089 48.7457 10.3842 48.0757 10.8848 47.2216C11.3853 46.3675 11.9667 45.5945 12.6365 44.9097C13.3063 44.2176 14.0056 43.7685 14.7269 43.5623C15.4482 43.3562 16.1328 43.6286 16.7878 44.3796C17.2 44.8508 17.465 45.3736 17.5754 45.9552C17.6858 46.5369 17.7005 47.1406 17.6196 47.7665C17.5386 48.3923 17.4061 49.0108 17.2442 49.6219C17.0749 50.233 16.9424 50.7778 16.8394 51.2491C17.6048 50.7557 18.3262 50.2919 19.0033 49.8575C19.6731 49.4231 20.2767 49.0255 20.8066 48.6574C21.3808 48.2377 21.9254 47.818 22.448 47.3983L23.5153 48.6721C22.5511 49.2906 21.6163 49.9311 20.711 50.6011C19.8939 51.1533 19.0328 51.735 18.1201 52.3535C17.2074 52.9646 16.3462 53.5536 15.5292 54.1058C14.2927 56.4545 13.2254 58.1038 12.3201 59.0536C11.4221 60.0034 10.7302 60.504 10.2444 60.5556C9.75862 60.6071 9.47156 60.3053 9.37587 59.65C9.28019 58.9947 9.37587 58.251 9.67029 57.4191C9.9647 56.5871 10.4947 55.7477 11.2454 54.8936C12.0035 54.0395 12.9825 53.4432 14.1749 53.1045C14.3368 52.729 14.565 52.1988 14.852 51.5215C15.1391 50.8441 15.382 50.1373 15.5881 49.3936C15.7868 48.65 15.934 47.9432 16.015 47.2584C16.096 46.5811 16.015 46.0509 15.7647 45.6607C15.3526 45.1895 14.8962 45.1012 14.381 45.3883C13.8731 45.6754 13.3726 46.1688 12.8794 46.8609C12.3863 47.5603 11.9005 48.3997 11.4147 49.3789C10.9289 50.3582 10.4947 51.3227 10.1046 52.2651C9.71445 53.2076 9.38323 54.0543 9.10353 54.8053C8.82384 55.5563 8.64719 56.0643 8.57358 56.3294L4.06899 87.2456L2.354 87.1204L8.78703 43.4077L10.2886 43.7096L10.3033 43.6949ZM11.1865 58.1995C11.4221 58.0154 11.6502 57.7651 11.8711 57.4264C12.0919 57.0951 12.3568 56.7049 12.6733 56.2557C12.1949 56.565 11.8416 56.8889 11.6208 57.2203C11.4 57.5516 11.2528 57.8755 11.1865 58.1921V58.1995Z" fill="#A8242C"/>
<path d="M28.8592 43.9893L28.2998 45.2115C28.6015 45.1747 28.918 45.2188 29.2419 45.344C29.7277 45.5502 30.1914 45.8962 30.633 46.3895C31.0747 46.8828 31.3617 47.5087 31.4942 48.267C32.3554 48.1198 33.1135 47.8842 33.7686 47.5528C34.431 47.2215 35.0861 46.7945 35.7485 46.257L36.227 47.8253C34.7622 49.018 33.1356 49.7101 31.3617 49.9016C30.714 52.9056 29.9632 55.1144 29.1094 56.5207C28.2556 57.927 27.4092 58.7663 26.5627 59.0387C25.7162 59.3112 24.914 59.1271 24.1485 58.4939C23.383 57.8533 22.7647 56.9845 22.2789 55.8801C21.8005 54.7757 21.5134 53.5314 21.4104 52.1546C21.3147 50.7777 21.4914 49.4819 21.9551 48.2744C22.4114 47.0669 23.1916 46.0582 24.2883 45.2409C25.385 44.4237 26.9086 44.0187 28.8665 44.0113L28.8592 43.9893ZM27.3061 45.3219C25.7751 45.9551 24.7079 46.8902 24.097 48.1419C23.486 49.3935 23.1769 50.6599 23.1622 51.9484C23.1475 53.2369 23.3756 54.3855 23.8467 55.3868C24.3178 56.3881 24.8919 56.9698 25.5838 57.1318C26.2683 57.2864 26.9896 56.8373 27.7551 55.777C28.5132 54.7168 29.1757 52.7657 29.7424 49.9236C29.1683 49.8353 28.5868 49.6144 28.0127 49.261C27.4312 48.9149 26.9896 48.5247 26.6878 48.0903C26.386 47.6633 26.2462 47.1994 26.2683 46.7061C26.2904 46.2128 26.6363 45.749 27.3135 45.3146L27.3061 45.3219ZM29.713 48.3038C29.6246 47.9504 29.4774 47.6633 29.2713 47.4277C29.0653 47.1921 28.8518 47.0374 28.6383 46.9564C28.263 46.7945 28.0274 46.765 27.9317 46.8755C27.8434 46.9859 27.8655 47.1258 28.0127 47.2878C28.1599 47.4498 28.3734 47.6485 28.6531 47.8768C28.9328 48.105 29.2861 48.2449 29.7056 48.3038H29.713Z" fill="#A8242C"/>
<path d="M29.8966 34.3813L38.442 32.062C39.1781 28.896 39.789 26.2675 40.2821 24.1765C40.7753 22.0928 41.0182 21.0178 41.0108 20.9663L42.6669 21.3271C42.5712 21.3933 42.321 22.3726 41.9088 24.2648C41.4966 26.1571 40.9667 28.6162 40.3189 31.6202L55.2533 27.6738L55.6581 29.2494L39.8994 33.4388C39.2002 36.914 38.4862 40.5292 37.7649 44.2915C37.0435 48.0539 36.4621 51.485 36.0278 54.5994C35.5935 57.7065 35.4022 60.2246 35.461 62.1536C35.5199 64.0753 35.9468 64.9441 36.7491 64.7527C37.5514 64.5612 38.8174 63.0445 40.5398 60.2098C42.2621 57.3678 44.6027 52.7514 47.5616 46.3531L48.0401 48.6208C47.3776 50.1376 46.7814 51.4629 46.2367 52.6041C45.6921 53.7453 45.0664 54.997 44.3672 56.3591C43.6679 57.7212 42.9245 59.0392 42.1296 60.3055C41.342 61.5719 40.5618 62.7132 39.7964 63.7292C39.0309 64.7379 38.3095 65.4595 37.6397 65.8939C36.3369 66.7038 35.3801 66.7553 34.7618 66.0559C34.1435 65.3564 33.7829 64.1416 33.6725 62.426C33.5621 60.7105 33.643 58.6342 33.9154 56.1824C34.1877 53.7306 34.5557 51.1831 35.0121 48.5325C35.4684 45.8819 35.9689 43.2681 36.5136 40.6838C37.0583 38.0995 37.5293 35.8391 37.9342 33.888L30.2867 35.9569L29.8818 34.3813H29.8966Z" fill="#A8242C"/>
<path d="M49.8657 39.8514C49.6228 40.9558 49.4241 41.935 49.2548 42.7744C49.0782 43.518 48.9604 44.188 48.8941 44.7844C48.8279 45.3808 48.9015 45.6974 49.115 45.7268C49.3799 45.8005 49.8363 45.5354 50.4914 44.9169C51.1464 44.3058 51.8162 43.599 52.5008 42.8038C53.3251 41.8908 54.2157 40.838 55.1652 39.6526L56.7109 40.4109C55.7688 43.091 54.9739 45.4691 54.3261 47.5454C54.0096 48.4584 53.7373 49.3199 53.4871 50.1445C53.2442 50.9691 53.0528 51.7128 52.9203 52.3681C52.7878 53.0307 52.6995 53.5535 52.6627 53.9437C52.6259 54.3339 52.6848 54.518 52.8393 54.5033C52.9498 54.5401 53.2515 54.2897 53.7594 53.7449C54.2673 53.2 54.8708 52.5079 55.5774 51.6539C56.284 50.8071 57.0274 49.8721 57.8224 48.8634C58.6099 47.8473 59.346 46.9122 60.0231 46.0361C60.7003 45.1673 61.2671 44.431 61.716 43.842C62.165 43.253 62.4153 42.9511 62.4668 42.9511L63.063 44.8948C63.0115 44.8948 62.7391 45.2556 62.2534 45.9477C61.7602 46.6472 61.1346 47.5013 60.3691 48.51C59.6036 49.5187 58.7645 50.5863 57.8592 51.7201C56.9538 52.8466 56.0706 53.8627 55.2168 54.7536C54.363 55.6445 53.5975 56.3071 52.9203 56.7415C52.2431 57.1759 51.7868 57.1759 51.5292 56.7415C51.1906 56.4691 51.0508 55.8654 51.1023 54.9377C51.1538 54.0026 51.3084 52.9203 51.5586 51.6833C51.8089 50.4464 52.1327 49.1358 52.5228 47.759C52.9129 46.3748 53.2736 45.101 53.6122 43.9303C53.2 44.3868 52.7363 44.8507 52.2211 45.3145C51.7058 45.7857 51.198 46.1981 50.6975 46.5588C50.1969 46.9196 49.7406 47.2141 49.3284 47.4424C48.9162 47.6706 48.5482 47.7442 48.2317 47.678C47.5987 47.5381 47.238 47.03 47.135 46.1392C47.0393 45.2483 47.0614 44.3058 47.216 43.3119C47.4 42.1633 47.7238 40.8601 48.1802 39.4243L49.851 39.8587L49.8657 39.8514Z" fill="#A8242C"/>
<path d="M67.5968 41.6996C67.4202 41.5156 67.2067 41.4493 66.9565 41.5008C66.7062 41.5524 66.456 41.6481 66.2131 41.7733C65.9702 41.9058 65.7273 42.0825 65.4991 42.3108C65.2636 42.539 65.0575 42.7746 64.8808 42.9955C64.557 43.3416 64.1669 43.8717 63.7031 44.5932C63.2394 45.3148 62.8199 46.0437 62.4371 46.78C62.0544 47.5162 61.7673 48.1789 61.576 48.7679C61.3846 49.3569 61.4435 49.6809 61.76 49.7545C62.4003 49.9459 63.1585 49.5999 64.0417 48.7311C64.925 47.8623 65.7935 46.7652 66.6547 45.4326C67.5159 44.1073 68.3108 42.6642 69.0395 41.118C69.7682 39.5718 70.3055 38.2097 70.644 37.0464L72.3296 37.6354C72.2781 37.6354 72.1235 37.9815 71.8585 38.6515C71.5935 39.3215 71.3286 40.1535 71.0489 41.1327C70.7692 42.1193 70.5042 43.2164 70.2466 44.4239C69.9963 45.6387 69.8491 46.7873 69.8123 47.8696C69.7829 48.5397 69.908 48.8783 70.1951 48.871C70.4747 48.871 70.8281 48.6575 71.2476 48.2525C71.6671 47.8476 72.1382 47.3027 72.6535 46.6327C73.1687 45.9553 73.6618 45.2853 74.1329 44.6153C74.5966 43.9453 75.0014 43.3636 75.3327 42.863C75.6639 42.3623 75.8773 42.0825 75.973 42.0236L76.4662 43.7465C75.8037 44.7478 75.2149 45.5946 74.6997 46.294C74.1844 46.9935 73.6177 47.7003 72.9994 48.4071C72.3811 49.1213 71.7776 49.6956 71.1814 50.1521C70.5852 50.6012 70.0331 50.8295 69.5179 50.8368C69.0027 50.8368 68.6346 50.4981 68.3991 49.7987C68.2519 49.4011 68.1783 48.8342 68.1709 48.0832C68.1709 47.3395 68.2445 46.5149 68.4065 45.624C67.6999 46.7284 66.9344 47.8476 66.11 48.9667C65.2783 50.0858 64.2993 50.8884 63.1658 51.3743C62.0323 51.8087 61.1932 51.9265 60.6559 51.7277C60.1186 51.5289 59.8095 51.124 59.7138 50.5202C59.6255 49.9091 59.7138 49.1802 59.9788 48.3261C60.2437 47.4721 60.6044 46.5959 61.046 45.6976C61.4877 44.7994 61.9882 43.96 62.5476 43.1796C63.1069 42.3991 63.6148 41.7733 64.0785 41.3168C64.8735 40.5658 65.5653 40.0872 66.1615 39.8958C66.7577 39.7043 67.2656 39.6381 67.6852 39.6896C68.1562 39.7927 68.5463 40.0062 68.8334 40.3375L67.5968 41.707V41.6996Z" fill="#A8242C"/>
<path d="M78.2106 39.2329C78.1591 39.2329 78.0487 39.5201 77.8794 40.0797C77.7101 40.6392 77.4893 41.3461 77.2243 42.2001C76.9594 43.0542 76.6944 43.9819 76.4441 44.9906C76.1939 45.9993 75.9878 46.9712 75.8332 47.9136C75.6786 48.8561 75.5903 49.6807 75.5609 50.3728C75.5314 51.0723 75.6639 51.5361 75.9436 51.757C76.1129 51.8969 76.4294 51.7275 76.8931 51.2637C77.3568 50.7998 77.8794 50.1814 78.4609 49.3935C79.0424 48.6131 79.6459 47.7443 80.2642 46.8019C80.8825 45.8594 81.4419 44.9612 81.9424 44.1071C82.4429 43.253 83.0464 42.2738 83.7457 41.1693L84.5848 42.4652C83.201 44.8802 81.9129 46.9786 80.7132 48.753C80.1832 49.5334 79.6459 50.2624 79.1012 50.9397C78.5566 51.6171 78.0266 52.1914 77.5114 52.6553C76.9962 53.1265 76.5177 53.4357 76.0687 53.583C75.6198 53.7376 75.2297 53.6713 74.8911 53.3989C74.4936 53.0308 74.2434 52.4123 74.1477 51.5508C74.052 50.6894 74.0741 49.7175 74.2213 48.6499C74.3611 47.5823 74.5599 46.4484 74.8175 45.263C75.0751 44.0776 75.3401 42.9953 75.6198 42.0087C75.8995 41.0294 76.2233 39.8956 76.5987 38.6218L78.2106 39.2182V39.2329ZM77.85 32.4003C78.2401 32.2015 78.5934 32.1279 78.9025 32.172C79.219 32.2162 79.4398 32.3561 79.565 32.5991C79.6974 32.8421 79.7048 33.1513 79.587 33.5194C79.4693 33.8949 79.2411 34.1526 78.8952 34.2925C78.5124 34.5429 78.1591 34.6312 77.8426 34.5649C77.5261 34.4987 77.2538 34.3441 77.0182 34.1158C76.6797 33.3795 76.952 32.8126 77.8352 32.4077L77.85 32.4003Z" fill="#A8242C"/>
<path d="M77.5044 29.1977L86.0499 26.8784C86.7859 23.7124 87.3968 21.0839 87.89 18.9929C88.3831 16.9092 88.626 15.8343 88.6187 15.7827L90.2821 16.1435C90.1864 16.2024 89.9288 17.189 89.524 19.0812C89.1192 20.9735 88.5819 23.4326 87.9341 26.4366L102.868 22.4902L103.273 24.0658L87.5146 28.2552C86.8154 31.7305 86.1014 35.3456 85.3801 39.1079C84.6587 42.8703 84.0773 46.3014 83.643 49.4158C83.2087 52.5303 83.0174 55.041 83.0762 56.97C83.1351 58.8917 83.562 59.7605 84.3643 59.5691C85.1666 59.3776 86.4326 57.8609 88.155 55.0262C89.8773 52.1842 92.2179 47.5678 95.1768 41.1695L95.6553 43.4372C94.9928 44.954 94.3966 46.2793 93.8519 47.4205C93.3073 48.5617 92.6816 49.8134 91.9824 51.1755C91.2831 52.5376 90.5397 53.8556 89.7522 55.1219C88.9646 56.3883 88.1844 57.5296 87.4189 58.5456C86.6534 59.5543 85.9321 60.2759 85.2623 60.7103C83.9595 61.5202 83.0027 61.5717 82.3844 60.8723C81.7661 60.1654 81.4054 58.958 81.295 57.2424C81.1846 55.5269 81.2656 53.4506 81.5379 50.9988C81.8103 48.547 82.1783 45.9995 82.6346 43.3489C83.091 40.6983 83.5915 38.0845 84.1362 35.5002C84.6808 32.9159 85.1519 30.6555 85.5567 28.7044L77.9092 30.7733L77.5044 29.1977Z" fill="#A8242C"/>
<path d="M115.064 34.6021L114.505 35.8243C114.814 35.7875 115.123 35.8316 115.447 35.9568C115.933 36.163 116.397 36.509 116.838 37.0023C117.28 37.4956 117.567 38.1214 117.699 38.8798C118.56 38.7326 119.319 38.4969 119.974 38.1656C120.636 37.8343 121.291 37.4073 121.954 36.8698L122.432 38.4381C120.967 39.6308 119.341 40.3156 117.559 40.5143C116.912 43.5184 116.161 45.7272 115.307 47.1335C114.453 48.5398 113.607 49.3791 112.76 49.6515C111.914 49.924 111.112 49.7399 110.346 49.1067C109.581 48.4661 108.962 47.5973 108.477 46.4929C107.998 45.3885 107.711 44.1442 107.608 42.7674C107.512 41.3905 107.689 40.0947 108.153 38.8872C108.617 37.6797 109.389 36.671 110.486 35.8537C111.583 35.0365 113.106 34.6315 115.064 34.6241V34.6021ZM113.511 35.9274C111.98 36.5605 110.913 37.4956 110.309 38.7473C109.699 39.999 109.389 41.2654 109.375 42.5538C109.36 43.8423 109.588 44.9909 110.059 45.9922C110.53 46.9936 111.104 47.5752 111.796 47.7372C112.481 47.8918 113.202 47.4427 113.968 46.3825C114.726 45.3222 115.388 43.3711 115.955 40.5291C115.381 40.4407 114.799 40.2198 114.225 39.8664C113.644 39.5204 113.202 39.1301 112.9 38.6957C112.599 38.2687 112.459 37.8049 112.481 37.3116C112.503 36.8182 112.849 36.3544 113.526 35.92L113.511 35.9274ZM115.918 38.9093C115.83 38.5559 115.683 38.2687 115.476 38.0331C115.27 37.7975 115.057 37.6429 114.843 37.5619C114.468 37.3999 114.233 37.3705 114.137 37.4809C114.041 37.5913 114.071 37.7312 114.218 37.8932C114.365 38.0552 114.578 38.254 114.858 38.4822C115.138 38.7105 115.491 38.8504 115.911 38.9093H115.918Z" fill="#A8242C"/>
<path d="M130.19 1.21191C129.41 5.41605 128.6 9.7748 127.754 14.2955C127.047 18.1831 126.267 22.505 125.421 27.254C124.574 32.003 123.742 36.7446 122.918 41.4641L131.905 34.6904L131.449 36.8992L123.544 43.0103C124.331 46.0143 124.817 48.7901 124.994 51.345C125.17 53.8998 125.148 56.2191 124.942 58.3028C124.729 60.3864 124.361 62.1977 123.838 63.7512C123.316 65.3047 122.741 66.5712 122.131 67.5651C121.652 68.3382 121.137 69.0745 120.6 69.7813C120.062 70.4808 119.297 70.7826 118.303 70.6869C117.781 70.6428 117.53 69.7003 117.53 67.8744C117.53 66.0484 117.7 63.6481 118.023 60.6809C118.34 57.7137 118.804 54.2901 119.415 50.4099C120.025 46.5371 120.681 42.5391 121.387 38.416C122.094 34.3002 122.83 30.1991 123.603 26.1275C124.368 22.0559 125.082 18.3082 125.737 14.8919C126.392 11.4756 126.959 8.51577 127.437 6.01979C127.908 3.52382 128.225 1.83039 128.387 0.932129L130.19 1.19719V1.21191ZM122.285 44.8584C122.315 45.1161 122.241 45.7419 122.064 46.7359C121.888 47.7372 121.659 48.9447 121.38 50.3657C121.1 51.7867 120.798 53.3255 120.489 54.9822C120.18 56.6388 119.908 58.2365 119.665 59.7827C119.422 61.3289 119.216 62.7646 119.054 64.0973C118.892 65.4299 118.833 66.4533 118.885 67.1675C118.936 67.8817 119.105 68.2351 119.385 68.2351C119.665 68.2351 120.136 67.6756 120.784 66.5785C121.306 65.695 121.777 64.5758 122.197 63.2211C122.616 61.8663 122.933 60.2686 123.146 58.4427C123.36 56.6167 123.419 54.5772 123.33 52.3242C123.242 50.0712 122.889 47.5826 122.285 44.8731V44.8584Z" fill="#A8242C"/>
<path d="M147.244 33.7995C146.722 35.6107 146.354 37.0612 146.14 38.1656C145.927 39.27 145.809 40.3229 145.787 41.3316C145.765 42.3403 146.008 42.9955 146.501 43.2974C146.781 43.5257 147.127 43.3931 147.539 42.9146C147.951 42.436 148.378 41.7807 148.827 40.9561C149.276 40.1314 149.747 39.2111 150.225 38.1803C150.704 37.1495 151.16 36.1629 151.602 35.2131C152.036 34.2633 152.426 33.424 152.757 32.695C153.089 31.9661 153.324 31.517 153.457 31.3477C154.082 31.436 154.362 31.841 154.288 32.5699C154.222 32.8865 154.141 33.2325 154.053 33.6007C153.965 33.9688 153.817 34.3737 153.604 34.8082C153.258 37.7827 153.324 39.6529 153.788 40.4259C154.259 41.199 154.921 41.2947 155.79 40.7131C156.651 40.1314 157.623 39.1006 158.697 37.6134C159.772 36.1334 160.766 34.6241 161.678 33.0779L161.619 35.3972C161.112 36.3764 160.545 37.3409 159.927 38.2834C159.345 39.0712 158.661 39.8885 157.88 40.7425C157.1 41.604 156.195 42.2887 155.172 42.8115C154.487 43.1428 153.928 43.2164 153.493 43.0324C153.059 42.8483 152.721 42.5391 152.463 42.1047C152.205 41.6702 152.036 41.1475 151.948 40.5364C151.852 39.9253 151.808 39.3952 151.808 38.9313C151.594 39.3657 151.374 39.778 151.131 40.1609C150.888 40.5511 150.638 40.9634 150.38 41.3978C149.983 42.0089 149.615 42.5464 149.283 43.025C148.952 43.4962 148.614 43.8864 148.29 44.1736C147.222 45.2706 146.391 45.7345 145.78 45.5651C145.169 45.4032 144.727 44.8951 144.455 44.0484C144.183 43.2017 144.057 42.1341 144.065 40.8456C144.079 39.5571 144.16 38.3276 144.322 37.1495C144.477 35.9715 144.69 34.9849 144.963 34.1823C145.235 33.3798 145.478 33.019 145.691 33.1L147.23 33.7847L147.244 33.7995Z" fill="#A8242C"/>
<path d="M166.573 27.6737C166.875 28.1008 166.956 28.5941 166.809 29.1536C166.661 29.7132 166.404 30.2801 166.028 30.8618C165.653 31.4434 165.226 31.9809 164.74 32.4669C164.254 32.9602 163.82 33.3799 163.452 33.7259H163.526C163.975 34.0793 164.387 34.4106 164.755 34.7051C165.123 34.9997 165.454 35.3383 165.756 35.7138C166.411 35.1248 167.11 34.5505 167.846 33.9836C168.582 33.4167 169.245 32.9013 169.841 32.4521C170.437 32.003 171.107 31.4803 171.873 30.8765L172.064 32.6289C171.497 33.1001 170.908 33.6007 170.297 34.1309C169.782 34.6021 169.171 35.1322 168.465 35.7212C167.758 36.3102 167.022 36.9361 166.271 37.584C166.256 37.9448 166.183 38.4602 166.05 39.1154C165.918 39.7781 165.741 40.5144 165.52 41.339C165.3 42.1636 165.02 43.0177 164.681 43.9012C164.343 44.7848 163.982 45.6388 163.607 46.4488C163.356 46.9862 163.062 47.5753 162.716 48.2085C162.37 48.8343 161.987 49.4086 161.553 49.9166C161.119 50.4247 160.626 50.8296 160.066 51.1241C159.507 51.4186 158.881 51.4702 158.197 51.2935C157.453 51.1167 157.026 50.6897 156.901 50.005C156.776 49.3202 156.784 48.6944 156.931 48.1127C157.159 46.9053 157.542 45.7787 158.072 44.748C158.602 43.7098 159.22 42.7306 159.912 41.8029C160.611 40.8751 161.354 40.0137 162.135 39.2038C162.922 38.4013 163.717 37.6429 164.512 36.9361C164.254 36.5017 163.879 36.0893 163.379 35.7065C162.871 35.3236 162.355 34.9334 161.818 34.5285C161.281 34.1235 160.788 33.6744 160.324 33.1884C159.86 32.6951 159.536 32.1061 159.36 31.3993C159.168 30.5967 159.36 29.831 159.919 29.1021C160.486 28.3732 161.192 27.8062 162.046 27.4013C162.9 26.9963 163.769 26.7902 164.645 26.7681C165.52 26.7534 166.168 27.0552 166.595 27.6737H166.573ZM164.159 39.5204C162.915 40.8383 161.737 42.2299 160.64 43.6877C159.536 45.1455 158.852 46.7433 158.572 48.4662C158.373 49.4675 158.381 50.005 158.594 50.086C158.808 50.167 159.132 49.9534 159.566 49.438C160 48.93 160.486 48.2158 161.031 47.3102C161.575 46.4046 162.09 45.4474 162.569 44.4387C163.055 43.4374 163.452 42.4802 163.761 41.5672C164.07 40.6616 164.203 39.9769 164.159 39.513V39.5204ZM162.09 32.5626C162.37 32.327 162.716 32.0325 163.114 31.6791C163.511 31.3256 163.894 30.9501 164.262 30.5526C164.63 30.155 164.91 29.7868 165.108 29.4555C165.3 29.1242 165.336 28.8665 165.219 28.6751C165.094 28.4836 164.792 28.41 164.306 28.4689C163.82 28.5204 163.327 28.6824 162.812 28.9401C162.297 29.2052 161.855 29.5218 161.487 29.8973C161.119 30.2728 160.979 30.663 161.075 31.0606C161.134 31.5686 161.465 32.0766 162.09 32.57V32.5626Z" fill="#A8242C"/>
<path d="M172.712 53.5684C173.102 53.3696 173.455 53.296 173.772 53.3402C174.081 53.3843 174.301 53.5242 174.434 53.7672C174.559 54.0102 174.574 54.3194 174.456 54.6949C174.346 55.063 174.11 55.3207 173.772 55.468C173.389 55.7183 173.036 55.8067 172.719 55.7331C172.403 55.6668 172.13 55.5122 171.895 55.2839C171.556 54.5476 171.828 53.9807 172.712 53.5758V53.5684ZM184.319 0.644866C182.619 8.65555 181.088 15.849 179.719 22.2251C179.137 24.9125 178.578 27.5778 178.041 30.2064C177.503 32.8422 177.025 35.1836 176.605 37.2378C176.186 39.292 175.855 40.9781 175.612 42.2887C175.369 43.5992 175.251 44.3134 175.266 44.4091L173.588 44.5932C173.58 44.4901 173.705 43.7686 173.97 42.4285C174.235 41.0885 174.574 39.3656 174.993 37.2599C175.406 35.1541 175.899 32.7833 176.458 30.1475C177.017 27.5116 177.577 24.8242 178.129 22.0852C178.681 19.3463 179.233 16.6589 179.8 14.023C180.359 11.3871 180.852 9.04577 181.272 6.99156C181.691 4.93735 182.037 3.28809 182.317 2.05115C182.597 0.814207 182.729 0.166285 182.722 0.114746L184.319 0.637502V0.644866Z" fill="#A8242C"/>
</svg>
