<svg width="376" height="670" viewBox="0 0 376 670" fill="none" xmlns="http://www.w3.org/2000/svg">
<path d="M375 2.82239H0V669H375V2.82239Z" fill="#4D362F"/>
<path d="M118.455 469.683C126.136 480.931 133.633 491.916 141.225 503.039C133.574 513.723 125.959 524.354 118.257 535.104C125.908 546.33 133.537 557.52 141.174 568.739C133.449 579.584 125.82 590.289 118.044 601.215C110.422 590.216 102.962 579.452 95.4718 568.644C95.7214 568.225 95.927 567.843 96.1767 567.484C102.337 558.621 108.498 549.759 114.659 540.889C115.591 539.546 116.472 538.165 117.434 536.851C118.058 535.999 118.007 535.287 117.412 534.443C114.945 530.97 112.507 527.46 110.069 523.965C105.473 517.379 100.883 510.786 96.2942 504.192C96.0152 503.788 95.7655 503.355 95.4277 502.804C103.05 491.842 110.657 480.887 118.448 469.683H118.455Z" stroke="#60423E" stroke-miterlimit="10"/>
<path d="M305.933 469.668C313.621 480.968 321.074 491.908 328.608 502.981C321.081 513.862 313.364 524.347 305.757 535.126C313.349 546.293 320.942 557.439 328.622 568.732C320.934 579.562 313.342 590.238 305.647 601.075C305.206 600.605 304.846 600.304 304.582 599.922C302.151 596.413 299.743 592.874 297.312 589.364C292.877 582.961 288.42 576.581 283.978 570.186C283.625 569.679 283.317 569.143 282.942 568.541C284.139 566.815 285.27 565.163 286.416 563.519C291.798 555.78 297.18 548.048 302.563 540.317C303.311 539.237 304.046 538.136 304.773 537.035C305.632 535.735 305.654 535.603 304.787 534.347C302.394 530.889 299.978 527.445 297.577 523.995C293.017 517.452 288.457 510.903 283.904 504.354C283.589 503.898 283.317 503.406 282.935 502.797C290.542 491.842 298.12 480.931 305.94 469.668H305.933Z" stroke="#60423E" stroke-miterlimit="10"/>
<path d="M71.233 601.112C63.6552 590.179 56.2315 579.467 48.7125 568.622C49.3072 567.704 49.8873 566.742 50.5188 565.832C56.4078 557.388 62.3041 548.951 68.1931 540.508C69.0522 539.274 69.8452 537.974 70.7484 536.778C71.3432 535.985 71.3211 535.39 70.7484 534.582C68.2371 531.058 65.7773 527.497 63.2954 523.95C58.662 517.306 54.036 510.668 49.41 504.016C49.1677 503.663 48.9695 503.274 48.6904 502.797C56.2976 491.849 63.8828 480.939 71.5634 469.874C71.96 470.292 72.283 470.549 72.5107 470.879C76.9458 477.363 81.3809 483.846 85.7866 490.352C88.3566 494.148 90.8752 497.98 93.4085 501.798C94.2602 503.076 94.2529 503.083 93.4232 504.258C88.3199 511.483 83.2166 518.708 78.0986 525.933C76.2115 528.598 74.3317 531.264 72.3638 533.87C71.6663 534.795 71.6883 535.427 72.3491 536.374C77.6654 544.076 82.9375 551.815 88.2024 559.561C90.0675 562.315 91.8591 565.127 93.7095 567.888C94.1795 568.592 94.0767 569.106 93.6067 569.767C88.1363 577.425 82.6879 585.105 77.2468 592.786C75.5433 595.194 73.8691 597.632 72.1729 600.047C71.96 600.348 71.6883 600.591 71.2257 601.105L71.233 601.112Z" stroke="#60423E" stroke-miterlimit="10"/>
<path d="M187.823 503.025C185.738 505.976 183.799 508.752 181.824 511.498C178.975 515.477 176.104 519.435 173.247 523.407C170.758 526.865 168.262 530.331 165.78 533.797C164.854 535.089 164.869 535.104 165.78 536.44C171.191 544.377 176.61 552.307 182.022 560.237C183.931 563.034 185.818 565.832 187.786 568.732C180.128 579.481 172.498 590.179 164.708 601.112C164.223 600.525 163.812 600.106 163.474 599.621C160.228 594.922 156.99 590.216 153.774 585.495C151.615 582.33 149.523 579.121 147.356 575.957C146.013 573.989 144.588 572.08 143.215 570.134C142.172 568.651 142.158 568.629 143.142 567.183C144.867 564.635 146.629 562.116 148.37 559.576C151.924 554.399 155.463 549.216 159.024 544.047C160.625 541.719 162.255 539.414 163.856 537.086C164.818 535.691 164.832 535.662 163.878 534.289C160.485 529.391 157.056 524.523 153.664 519.618C150.059 514.405 146.512 509.148 142.892 503.95C142.319 503.127 142.327 502.577 142.907 501.769C144.772 499.17 146.556 496.512 148.362 493.869C151.946 488.641 155.522 483.398 159.12 478.178C161.036 475.395 162.982 472.634 165.053 469.668C172.689 480.85 180.216 491.879 187.816 503.017L187.823 503.025Z" stroke="#60423E" stroke-miterlimit="10"/>
<path d="M118.815 136.733C126.473 147.923 133.948 158.841 141.534 169.921C133.919 180.597 126.29 191.302 118.595 202.088C126.26 213.344 133.86 224.49 141.563 235.797C133.882 246.503 126.224 257.171 118.411 268.06C110.782 257.127 103.321 246.444 95.7876 235.65C96.9551 233.94 98.0712 232.28 99.2094 230.636C105.223 221.972 111.244 213.315 117.265 204.658C117.442 204.401 117.611 204.129 117.809 203.887C118.477 203.072 118.374 202.316 117.787 201.472C115.701 198.491 113.675 195.458 111.597 192.47C106.545 185.208 101.478 177.954 96.4117 170.692C96.2355 170.435 96.0887 170.156 95.8243 169.716C103.409 158.827 111.017 147.909 118.815 136.719V136.733Z" stroke="#60423E" stroke-miterlimit="10"/>
<path d="M306.117 202.169C313.738 213.366 321.302 224.468 328.791 235.482C327.697 237.743 307.622 265.989 305.786 267.854C298.194 257.259 290.909 246.466 283.288 235.746C284.029 234.564 284.69 233.433 285.432 232.361C290.55 224.982 295.682 217.617 300.808 210.253C302.203 208.249 303.627 206.259 305.015 204.24C306.021 202.771 306.021 202.654 305.037 201.215C301.344 195.825 297.65 190.436 293.927 185.069C290.711 180.421 287.458 175.802 284.227 171.169C283.912 170.714 283.647 170.222 283.332 169.693C290.939 158.775 298.495 147.931 306.05 137.086C307.335 138.048 326.581 165.927 328.799 170.024C321.456 180.788 313.533 191.258 306.109 202.169H306.117Z" stroke="#60423E" stroke-miterlimit="10"/>
<path d="M165.42 136.741C173.057 147.894 180.532 158.819 188.131 169.914C187.059 171.448 185.965 173.034 184.849 174.598C178.586 183.387 172.322 192.191 166.022 200.95C165.391 201.824 165.376 202.433 165.985 203.314C171.412 211.171 176.816 219.042 182.206 226.92C184.188 229.821 186.12 232.758 188.176 235.827C180.51 246.495 172.851 257.164 165.097 267.95C164.642 267.436 164.326 267.149 164.091 266.804C159.619 260.358 155.147 253.904 150.69 247.442C148.267 243.933 145.873 240.394 143.406 236.913C142.753 235.996 142.687 235.357 143.384 234.402C145.058 232.133 146.608 229.762 148.208 227.427C152.034 221.825 155.852 216.215 159.685 210.627C161.176 208.454 162.725 206.317 164.238 204.151C165.229 202.742 165.229 202.72 164.275 201.325C159.729 194.687 155.191 188.057 150.639 181.427C148.223 177.91 145.815 174.385 143.34 170.912C142.731 170.053 142.65 169.451 143.318 168.57C144.941 166.419 146.483 164.194 148.01 161.977C152.034 156.132 156.028 150.265 160.052 144.421C161.756 141.947 163.496 139.494 165.42 136.741Z" stroke="#60423E" stroke-miterlimit="10"/>
<path d="M71.6003 267.972C63.9857 257.076 56.5621 246.436 49.021 235.636C50.3427 233.719 51.6497 231.825 52.9641 229.931C57.5461 223.33 62.1353 216.729 66.7246 210.136C68.1198 208.124 69.537 206.127 70.9321 204.115C71.8867 202.734 71.8867 202.69 70.9101 201.288C63.9343 191.229 56.9513 181.177 49.9682 171.118C49.6819 170.707 49.4175 170.281 49.0724 169.76C56.7016 158.812 64.3235 147.872 72.0556 136.777C72.8119 137.842 73.436 138.686 74.0308 139.56C79.3764 147.395 84.7146 155.236 90.0456 163.078C91.3159 164.943 92.5128 166.867 93.8492 168.688C94.4733 169.539 94.5467 170.119 93.9006 171.023C88.4154 178.666 82.9744 186.339 77.5333 194.019C75.8959 196.324 74.3465 198.703 72.687 200.98C72.0556 201.846 72.0482 202.455 72.665 203.336C75.4626 207.353 78.2015 211.42 80.9478 215.481C85.1772 221.722 89.3994 227.963 93.6142 234.211C94.6642 235.768 94.6642 235.79 93.7904 237.024C90.3613 241.899 86.9322 246.782 83.481 251.642C79.9565 256.606 76.4025 261.547 72.8559 266.496C72.5328 266.944 72.151 267.34 71.6076 267.979L71.6003 267.972Z" stroke="#60423E" stroke-miterlimit="10"/>
<path d="M281.716 568.666C274.058 579.533 266.517 590.238 258.858 601.112C258.359 600.532 257.969 600.157 257.668 599.724C253.336 593.41 249.026 587.066 244.679 580.766C242.182 577.146 239.612 573.585 237.086 569.995C236.161 568.673 236.139 568.636 237.02 567.351C241.301 561.147 245.604 554.965 249.9 548.768C252.617 544.847 255.348 540.926 258.058 537.005C258.337 536.601 258.557 536.139 258.895 535.537C257.742 533.921 256.56 532.313 255.422 530.676C251.882 525.558 248.38 520.426 244.84 515.316C242.263 511.6 239.642 507.929 237.05 504.221C236.161 502.951 236.139 502.907 237.05 501.578C239.957 497.327 242.887 493.09 245.824 488.861C249.87 483.031 253.931 477.216 257.984 471.393C258.337 470.887 258.704 470.395 259.203 469.719C266.744 480.887 274.19 491.901 281.738 503.091C281.063 504.008 280.365 504.956 279.682 505.91C276.165 510.8 272.633 515.676 269.145 520.595C267.478 522.945 265.922 525.39 264.27 527.754C262.904 529.707 261.443 531.587 260.077 533.547C258.968 535.133 258.997 535.17 260.121 536.822C262.133 539.781 264.167 542.732 266.171 545.699C270.636 552.307 275.093 558.922 279.557 565.531C280.255 566.566 280.975 567.601 281.724 568.688L281.716 568.666Z" stroke="#60423E" stroke-miterlimit="10"/>
<path d="M47.6256 568.681C39.989 579.511 32.4405 590.223 24.7085 601.178C16.9912 590.333 9.79515 579.32 2.01172 568.666C4.29535 565.362 6.49086 562.16 8.70841 558.974C12.2917 553.819 15.8824 548.672 19.4584 543.518C20.9636 541.352 22.4689 539.186 23.9448 537.005C24.8407 535.691 24.848 535.647 23.9448 534.333C20.5524 529.435 17.1454 524.545 13.7309 519.655C10.1036 514.457 6.46884 509.273 2.83412 504.082C2.58446 503.722 2.37152 503.34 2.06312 502.826C9.67032 491.879 17.2922 480.909 25.0757 469.705C32.6461 480.895 40.1138 491.93 47.6476 503.076C45.4227 506.197 43.1978 509.31 40.9876 512.423C37.676 517.071 34.3791 521.733 31.0674 526.381C29.4373 528.679 27.7778 530.955 26.1697 533.275C24.8994 535.118 24.9288 535.133 26.1183 536.903C32.301 546.066 38.4837 555.237 44.6664 564.4C45.643 565.846 46.649 567.278 47.6109 568.673L47.6256 568.681Z" stroke="#60423E" stroke-miterlimit="10"/>
<path d="M189.519 502.9C197.192 491.798 204.748 480.858 212.436 469.734C220.036 480.865 227.555 491.894 235.082 502.929C234.802 503.414 234.619 503.825 234.369 504.17C230.345 509.772 226.292 515.353 222.276 520.955C219.206 525.235 216.159 529.531 213.126 533.841C212.223 535.126 212.245 535.17 213.148 536.491C218.318 544.069 223.509 551.632 228.679 559.209C230.801 562.322 232.893 565.45 235.111 568.739C227.46 579.489 219.801 590.238 212.04 601.134C204.498 590.201 197.097 579.474 189.556 568.548C190.672 566.933 191.832 565.244 193 563.556C197.721 556.742 202.45 549.935 207.157 543.107C208.544 541.095 209.881 539.032 211.232 536.991C212.106 535.669 212.128 535.647 211.217 534.325C205.409 525.896 199.586 517.475 193.771 509.053C192.383 507.041 190.988 505.029 189.512 502.893L189.519 502.9Z" stroke="#60423E" stroke-miterlimit="10"/>
<path d="M47.9779 169.987C45.7897 173.071 43.6089 176.133 41.428 179.202C38.1164 183.85 34.7901 188.49 31.5005 193.153C29.7308 195.664 27.9979 198.204 26.265 200.752C25.3178 202.14 25.3178 202.176 26.265 203.586C31.5959 211.501 36.9415 219.416 42.2871 227.324C44.1816 230.129 46.0834 232.926 48.0072 235.768C40.3706 246.517 32.7928 257.178 25.0608 268.06C17.4683 257.193 10.0079 246.51 2.4668 235.717C3.10563 234.711 3.70774 233.69 4.38328 232.728C10.867 223.403 17.3655 214.093 23.8639 204.776C24.0401 204.519 24.2237 204.262 24.3926 203.997C25.1783 202.786 25.2003 202.632 24.3926 201.449C22.3806 198.483 20.3687 195.524 18.3274 192.587C13.2388 185.274 8.12814 177.976 3.02485 170.67C2.84863 170.413 2.70177 170.127 2.47414 169.745C10.074 158.834 17.7032 147.894 25.45 136.777C32.9911 147.901 40.4147 158.849 47.9779 169.995V169.987Z" stroke="#60423E" stroke-miterlimit="10"/>
<path d="M189.901 235.599C191.641 233.081 193.352 230.606 195.07 228.139C199.557 221.7 204.058 215.275 208.53 208.821C209.712 207.118 210.769 205.334 211.922 203.608C212.392 202.911 212.297 202.331 211.856 201.684C208.897 197.316 205.982 192.918 202.986 188.578C198.676 182.322 194.321 176.111 189.93 169.804C197.515 158.856 205.079 147.945 212.796 136.799C220.374 147.864 227.864 158.805 235.471 169.914C227.856 180.597 220.234 191.295 212.532 202.096C220.249 213.403 227.849 224.549 235.522 235.79C227.819 246.517 220.168 257.186 212.392 268.008C204.814 257.098 197.391 246.4 189.886 235.599H189.901Z" stroke="#60423E" stroke-miterlimit="10"/>
<path d="M118.814 2.23499C126.488 13.4762 133.977 24.4531 141.607 35.6283C133.904 46.3996 126.223 57.1563 118.411 68.0818C110.789 57.1122 103.314 46.3556 95.7358 35.4594C103.402 24.4164 111.009 13.4689 118.814 2.23499Z" stroke="#60423E" stroke-miterlimit="10"/>
<path d="M305.896 68.0965C298.252 57.0975 290.777 46.3482 283.214 35.4594C290.865 24.4385 298.443 13.535 306.182 2.38184C306.66 2.96923 307.056 3.39509 307.379 3.87969C312.093 10.7669 316.807 17.6541 321.507 24.5559C323.945 28.1317 326.353 31.7368 328.901 35.5035C321.61 46.6199 313.54 57.0315 305.896 68.0965Z" stroke="#60423E" stroke-miterlimit="10"/>
<path d="M118.748 70.0642C126.679 81.1146 134 92.2016 141.599 103.223C133.867 114.038 126.216 124.736 118.418 135.654C110.811 124.721 103.314 113.935 95.7139 103.017C103.372 92.0621 110.972 81.188 118.748 70.0569V70.0642Z" stroke="#60423E" stroke-miterlimit="10"/>
<path d="M165.471 2.30837C173.078 13.4468 180.605 24.4678 188.219 35.6283C180.524 46.3776 172.873 57.0755 165.053 68.001C164.37 67.0612 163.819 66.3343 163.298 65.5853C159.2 59.7187 155.096 53.8668 151.028 47.9782C148.495 44.3143 146.013 40.6064 143.523 36.9058C142.517 35.408 142.539 35.4006 143.553 33.9248C147.422 28.2785 151.263 22.6102 155.155 16.9712C158.363 12.3161 161.616 7.70505 164.854 3.07198C164.994 2.87373 165.156 2.69752 165.471 2.30103V2.30837Z" stroke="#60423E" stroke-miterlimit="10"/>
<path d="M71.6072 67.9863C63.9486 56.9727 56.503 46.2674 48.9912 35.4594C56.6792 24.3944 64.2864 13.4321 72.2314 2C72.459 2.536 72.5398 2.86641 72.7087 3.11605C78.2599 11.2735 83.8257 19.4089 89.3696 27.5736C90.8822 29.8057 92.3214 32.0966 93.8047 34.3507C94.6124 35.5842 94.6418 35.5989 93.7827 36.8398C90.3095 41.84 86.851 46.8475 83.3411 51.811C79.8973 56.679 76.3948 61.503 72.9143 66.3416C72.5618 66.8336 72.1579 67.2888 71.6072 67.979V67.9863Z" stroke="#60423E" stroke-miterlimit="10"/>
<path d="M118.448 335.427C126.15 346.616 133.655 357.513 141.262 368.563C133.567 379.327 125.915 390.017 118.059 401.002C110.422 390.047 102.881 379.364 95.3765 368.343C102.984 357.483 110.598 346.616 118.44 335.427H118.448Z" stroke="#60423E" stroke-miterlimit="10"/>
<path d="M71.6807 135.669C64.0074 124.64 56.5323 113.884 48.9839 103.039C56.6865 92.0988 64.0955 81.0558 72.202 70.0055C72.4664 70.5048 72.5912 70.7985 72.7674 71.0628C77.32 77.6857 81.8946 84.3012 86.4325 90.9314C88.8116 94.4043 91.1393 97.9067 93.4816 101.402C93.6946 101.717 93.8488 102.07 94.0764 102.364C94.517 102.951 94.4949 103.465 94.0544 104.082C90.9263 108.472 87.835 112.893 84.7216 117.298C81.8946 121.292 79.0529 125.279 76.2186 129.273C74.772 131.315 73.3181 133.356 71.6733 135.676L71.6807 135.669Z" stroke="#60423E" stroke-miterlimit="10"/>
<path d="M305.933 70.3947C307.761 71.7897 326.742 99.3238 328.843 103.48C321.287 114.075 313.657 124.773 305.903 135.647C304.604 133.811 303.399 132.152 302.232 130.47C296.218 121.806 290.212 113.142 284.213 104.471C283.221 103.039 283.229 103.024 284.169 101.673C289.823 93.5306 295.469 85.3805 301.131 77.2451C302.452 75.3434 303.833 73.4858 305.184 71.5988C305.47 71.195 305.713 70.7618 305.933 70.3947Z" stroke="#60423E" stroke-miterlimit="10"/>
<path d="M165.479 70.0569C173.123 81.1953 180.612 92.1135 188.219 103.201C180.517 113.972 172.836 124.699 165.009 135.639C163.878 134.031 162.879 132.607 161.888 131.183C158.158 125.823 154.42 120.477 150.712 115.103C148.252 111.534 145.844 107.929 143.421 104.339C142.532 103.024 142.525 103.01 143.435 101.688C145.183 99.1549 146.96 96.6438 148.7 94.1033C152.474 88.6185 156.212 83.1117 160.008 77.6416C161.719 75.1672 163.518 72.7662 165.479 70.0569Z" stroke="#60423E" stroke-miterlimit="10"/>
<path d="M328.497 368.835C320.905 379.474 313.312 390.12 305.522 401.038C297.856 390.017 290.388 379.283 282.81 368.387C290.505 357.417 298.113 346.565 305.72 335.706C307.122 336.917 326.75 365.464 328.49 368.827L328.497 368.835Z" stroke="#60423E" stroke-miterlimit="10"/>
<path d="M71.688 335.449C72.5985 336.734 73.3916 337.835 74.1626 338.958C79.2512 346.359 84.3324 353.761 89.4063 361.176C90.8602 363.298 92.2187 365.494 93.6799 367.608C94.1572 368.306 94.1351 368.82 93.6579 369.488C89.2521 375.67 84.8684 381.86 80.4848 388.057C77.8707 391.743 75.2787 395.444 72.6573 399.129C72.2754 399.665 71.8349 400.157 71.2328 400.914C63.6182 389.973 56.1799 379.283 48.6021 368.394C56.2753 357.439 63.9193 346.528 71.688 335.449Z" stroke="#60423E" stroke-miterlimit="10"/>
<path d="M118.815 268.647C126.51 279.933 134.029 290.946 141.519 301.923C133.794 312.805 126.187 323.517 118.411 334.472C110.782 323.422 103.321 312.614 95.8096 301.74C103.453 290.741 111.031 279.837 118.815 268.64V268.647Z" stroke="#60423E" stroke-miterlimit="10"/>
<path d="M306.065 268.97C307.541 270.175 327.675 299.779 328.733 302.239C321.221 312.841 313.658 323.532 305.896 334.487C298.304 323.495 290.865 312.731 283.28 301.754C290.858 290.843 298.458 279.903 306.065 268.963V268.97Z" stroke="#60423E" stroke-miterlimit="10"/>
<path d="M164.649 401.038C163.944 400.003 163.459 399.291 162.967 398.579C160.691 395.275 158.407 391.963 156.124 388.659C151.85 382.462 147.569 376.272 143.296 370.068C142.527 368.952 142.51 367.858 143.244 366.786C146.967 361.345 150.668 355.883 154.427 350.471C157.68 345.779 160.999 341.146 164.296 336.491C164.502 336.197 164.737 335.918 165.082 335.463C172.704 346.536 180.238 357.476 187.867 368.563C180.164 379.334 172.52 390.025 164.641 401.046L164.649 401.038Z" stroke="#60423E" stroke-miterlimit="10"/>
<path d="M49.0649 301.754C56.7015 290.763 64.294 279.844 71.982 268.779C72.3785 269.257 72.709 269.594 72.9733 269.984C78.6053 278.236 84.2373 286.482 89.8545 294.75C91.2277 296.776 92.4759 298.905 93.8931 300.895C94.4879 301.725 94.4805 302.276 93.9078 303.076C90.2364 308.238 86.6017 313.429 82.9523 318.612C79.7361 323.172 76.5199 327.739 73.2964 332.291C72.8338 332.952 72.3198 333.569 71.6516 334.45C64.0884 323.495 56.6501 312.731 49.0723 301.754H49.0649Z" stroke="#60423E" stroke-miterlimit="10"/>
<path d="M165.082 334.391C164.627 333.833 164.297 333.481 164.018 333.084C158.826 325.456 153.649 317.819 148.451 310.198C146.894 307.915 145.249 305.704 143.67 303.443C142.415 301.644 142.452 301.982 143.56 300.359C149.126 292.231 154.685 284.096 160.273 275.982C161.903 273.611 163.592 271.283 165.442 268.669C173.057 279.822 180.568 290.829 188.139 301.923C180.451 312.753 172.814 323.51 165.082 334.399V334.391Z" stroke="#60423E" stroke-miterlimit="10"/>
<path d="M259.144 68.0818C257.015 65.02 255.12 62.2959 253.233 59.5719C248.152 52.2515 243.064 44.9311 237.982 37.6107C237.806 37.3537 237.615 37.1041 237.446 36.8398C236.55 35.43 236.528 35.408 237.498 33.9909C240.383 29.8057 243.291 25.6352 246.192 21.4574C250.443 15.3191 254.695 9.18087 258.946 3.04261C259.093 2.83703 259.188 2.59473 259.453 2.10278C267.104 13.4321 274.542 24.4384 282.091 35.6209C274.528 46.3188 266.935 57.0534 259.144 68.0818Z" stroke="#60423E" stroke-miterlimit="10"/>
<path d="M2.38623 35.452C10.0962 24.3576 17.7108 13.4027 25.4502 2.26428C33.028 13.4688 40.481 24.4898 48.0148 35.6282C40.4076 46.3702 32.8077 57.1048 25.0536 68.0524C17.4391 57.1048 9.93469 46.3041 2.38623 35.4594V35.452Z" stroke="#60423E" stroke-miterlimit="10"/>
<path d="M118.448 403.006C126.106 414.233 133.625 425.254 141.196 436.341C133.464 447.097 125.798 457.759 118.036 468.552C110.429 457.663 102.969 446.973 95.4131 436.15C103.042 425.173 110.65 414.218 118.448 403.006Z" stroke="#60423E" stroke-miterlimit="10"/>
<path d="M259.643 70.3065C267.368 81.0632 274.417 92.2677 282.142 103.142C274.491 113.965 266.883 124.721 259.151 135.669C257.617 133.495 256.244 131.564 254.893 129.626C249.202 121.439 243.519 113.245 237.828 105.058C237.652 104.801 237.512 104.5 237.306 104.273C236.513 103.406 236.682 102.643 237.328 101.739C239.766 98.3178 242.138 94.8449 244.539 91.3939C247.726 86.8123 250.905 82.2233 254.107 77.6563C255.686 75.4022 257.301 73.1701 258.909 70.9306C259.049 70.7397 259.276 70.6149 259.643 70.3065Z" stroke="#60423E" stroke-miterlimit="10"/>
<path d="M259.262 335.515C266.795 346.587 274.241 357.52 281.753 368.556C274.146 379.32 266.56 390.054 258.799 401.031C258.226 400.223 257.83 399.687 257.448 399.144C255.201 395.884 252.969 392.617 250.707 389.371C246.265 382.991 241.793 376.618 237.358 370.237C236.088 368.409 236.095 368.379 237.314 366.624C241.066 361.206 244.818 355.787 248.592 350.39C251.933 345.61 255.304 340.845 258.667 336.08C258.77 335.933 258.931 335.83 259.262 335.522V335.515Z" stroke="#60423E" stroke-miterlimit="10"/>
<path d="M212.803 2.30835C220.455 13.5129 227.944 24.4898 235.551 35.6282C227.849 46.4069 220.176 57.1415 212.407 68.0156C204.851 57.0901 197.413 46.3335 189.894 35.4667C197.508 24.4531 205.086 13.4909 212.811 2.31569L212.803 2.30835Z" stroke="#60423E" stroke-miterlimit="10"/>
<path d="M328.593 634.902C320.876 645.791 313.335 656.437 305.61 667.341C305.001 666.577 304.479 666.004 304.039 665.366C297.621 656.055 291.218 646.745 284.808 637.435C284.213 636.569 283.567 635.732 282.869 634.777C290.52 623.852 298.106 613.029 305.632 602.287C305.874 602.302 305.933 602.294 305.992 602.309C306.051 602.324 306.109 602.338 306.161 602.375C306.264 602.441 306.381 602.507 306.454 602.603C306.822 603.109 307.189 603.623 307.541 604.144C314.524 614.35 321.507 624.556 328.593 634.917V634.902Z" stroke="#60423E" stroke-miterlimit="10"/>
<path d="M259.159 334.509C257.352 331.932 255.766 329.685 254.202 327.423C248.959 319.831 243.731 312.225 238.496 304.625C238.459 304.574 238.422 304.522 238.386 304.471C236.006 301.24 236.249 302.195 238.386 299.038C243.07 292.128 247.917 285.344 252.689 278.493C254.701 275.608 256.677 272.708 258.681 269.815C258.894 269.506 259.159 269.242 259.394 268.963C260.495 269.829 280.644 299.375 281.943 302.019C274.41 312.753 266.869 323.51 259.151 334.501L259.159 334.509Z" stroke="#60423E" stroke-miterlimit="10"/>
<path d="M212.414 135.581C204.873 124.692 197.42 113.928 189.872 103.032C197.457 92.1135 205.027 81.2247 212.737 70.1377C220.623 81.122 227.966 92.187 235.544 103.223C227.82 114.031 220.146 124.765 212.414 135.581Z" stroke="#60423E" stroke-miterlimit="10"/>
<path d="M282.884 436.15C290.52 425.166 298.098 414.262 305.676 403.366C307.086 404.46 326.376 432.596 328.461 436.546C320.912 447.09 313.305 457.722 305.529 468.581C297.951 457.729 290.498 447.061 282.884 436.157V436.15Z" stroke="#60423E" stroke-miterlimit="10"/>
<path d="M118.455 601.868C126.121 613.014 133.611 623.91 141.166 634.887C133.486 645.702 125.842 656.459 118.051 667.436C110.415 656.386 102.969 645.614 95.4351 634.711C103.057 623.837 110.672 612.977 118.455 601.868Z" stroke="#60423E" stroke-miterlimit="10"/>
<path d="M71.3065 468.567C63.6626 457.626 56.2096 446.951 48.6685 436.157C56.2977 425.18 63.9049 414.233 71.6663 403.058C72.731 404.563 73.6709 405.862 74.5814 407.191C79.4351 414.292 84.2887 421.392 89.1203 428.506C90.5962 430.687 91.962 432.956 93.4673 435.115C94.1208 436.054 94.1134 436.701 93.4305 437.633C89.7811 442.648 86.1905 447.714 82.5925 452.766C79.2074 457.516 75.8297 462.274 72.452 467.025C72.1289 467.473 71.7911 467.906 71.2992 468.567H71.3065Z" stroke="#60423E" stroke-miterlimit="10"/>
<path d="M164.627 468.589C162.967 466.217 161.462 464.073 159.964 461.922C156.88 457.494 153.789 453.074 150.712 448.639C148.208 445.027 145.726 441.407 143.237 437.787C142.128 436.172 142.136 436.165 143.296 434.505C144.985 432.09 146.681 429.674 148.355 427.244C152.129 421.759 155.882 416.267 159.648 410.782C161.139 408.608 162.637 406.435 164.142 404.269C164.385 403.917 164.686 403.608 165.112 403.109C172.719 414.255 180.253 425.283 187.801 436.348C180.084 447.09 172.447 457.715 164.627 468.603V468.589Z" stroke="#60423E" stroke-miterlimit="10"/>
<path d="M24.6939 401.009C17.0646 390.047 9.58225 379.298 1.99707 368.394C9.6777 357.439 17.329 346.521 25.083 335.449C32.6682 346.572 40.1285 357.505 47.6697 368.556C40.0551 379.312 32.4553 390.039 24.6939 401.009Z" stroke="#60423E" stroke-miterlimit="10"/>
<path d="M259.063 202.492C259.511 202.889 260.055 203.212 260.385 203.696C265.099 210.664 269.777 217.661 274.491 224.637C276.811 228.073 279.175 231.473 281.518 234.887C281.694 235.144 281.841 235.415 282.127 235.878C274.3 246.348 267.023 257.303 259.122 268.045C257.286 265.424 255.642 263.074 253.997 260.717C250.839 256.194 247.689 251.657 244.532 247.134C242.123 243.69 239.73 240.239 237.284 236.818C236.675 235.966 236.66 235.349 237.284 234.454C241.367 228.66 245.384 222.808 249.429 216.986C252.433 212.654 255.465 208.337 258.454 203.997C258.762 203.549 258.894 202.977 259.107 202.463L259.063 202.485V202.492Z" stroke="#60423E" stroke-miterlimit="10"/>
<path d="M25.5236 70.1083C33.1087 81.2614 40.5324 92.1869 48.0221 103.193C40.4002 113.957 32.8077 124.684 25.061 135.625C17.5052 124.765 10.0081 113.994 2.39355 103.054C10.0448 92.1355 17.4905 81.0852 25.5236 70.1083Z" stroke="#60423E" stroke-miterlimit="10"/>
<path d="M212.436 335.478C220.073 346.565 227.577 357.461 235.221 368.548C227.511 379.327 219.845 390.054 212.047 400.958C204.454 389.973 197.009 379.224 189.512 368.379C197.178 357.373 204.733 346.528 212.436 335.471V335.478Z" stroke="#60423E" stroke-miterlimit="10"/>
<path d="M71.7176 601.846C72.6502 603.205 73.4652 604.387 74.2803 605.576C78.0325 611.076 81.7774 616.582 85.5222 622.089C88.1656 625.981 90.787 629.894 93.4672 633.764C94.0546 634.615 94.1501 635.195 93.5039 636.106C89.994 640.989 86.5649 645.937 83.0991 650.849C79.6626 655.718 76.2188 660.578 72.775 665.439C72.3491 666.041 71.8792 666.606 71.2697 667.392C63.6992 656.437 56.2609 645.666 48.6978 634.718C56.3196 623.837 63.9636 612.926 71.725 601.846H71.7176Z" stroke="#60423E" stroke-miterlimit="10"/>
<path d="M25.45 268.677C33.0352 279.889 40.4808 290.902 47.9338 301.916C40.3266 312.746 32.7708 323.495 25.0608 334.472C17.4756 323.488 10.0079 312.672 2.45947 301.747C10.1034 290.748 17.7179 279.793 25.45 268.669V268.677Z" stroke="#60423E" stroke-miterlimit="10"/>
<path d="M212.84 268.757C220.41 279.837 227.907 290.821 235.478 301.908C227.783 312.746 220.146 323.502 212.363 334.472C211.489 333.216 210.733 332.159 209.998 331.087C206.76 326.307 203.551 321.498 200.276 316.747C197.112 312.151 193.866 307.613 190.664 303.046C189.901 301.952 189.893 301.754 190.753 300.521C194.468 295.153 198.184 289.793 201.914 284.433C204.139 281.239 206.4 278.075 208.61 274.874C209.785 273.17 210.872 271.401 212.01 269.675C212.208 269.374 212.487 269.132 212.825 268.75L212.84 268.757Z" stroke="#60423E" stroke-miterlimit="10"/>
<path d="M165.045 601.854C172.682 612.955 180.208 623.895 187.764 634.88C180.098 645.68 172.484 656.393 164.752 667.282C164.34 666.827 163.995 666.511 163.738 666.136C158.672 658.728 153.627 651.297 148.553 643.889C146.85 641.4 145.102 638.947 143.34 636.51C142.143 634.85 142.121 634.872 143.244 633.25C148.774 625.246 154.303 617.243 159.847 609.255C161.521 606.839 163.224 604.445 165.045 601.861V601.854Z" stroke="#60423E" stroke-miterlimit="10"/>
<path d="M259.247 403.08C266.803 414.277 274.212 425.246 281.687 436.326C274.094 447.017 266.487 457.729 258.77 468.596C257.095 466.21 255.546 464.022 254.011 461.819C249.246 454.961 244.488 448.103 239.715 441.245C238.856 440.012 237.923 438.83 237.071 437.589C236.109 436.194 236.117 436.157 237.086 434.762C239.876 430.738 242.696 426.737 245.494 422.713C249.752 416.582 254.004 410.444 258.263 404.313C258.513 403.961 258.799 403.638 259.254 403.08H259.247Z" stroke="#60423E" stroke-miterlimit="10"/>
<path d="M259.107 202.47C255.487 197.198 251.882 191.912 248.247 186.647C244.678 181.485 241.08 176.353 237.505 171.206C236.499 169.76 236.476 169.723 237.512 168.232C241.969 161.859 246.448 155.501 250.905 149.127C253.49 145.427 256.053 141.711 258.637 138.004C258.88 137.651 259.159 137.321 259.592 136.77C267.111 147.879 274.549 158.871 282.017 169.914C274.388 180.751 266.736 191.618 259.078 202.485L259.115 202.463L259.107 202.47Z" stroke="#60423E" stroke-miterlimit="10"/>
<path d="M212.047 468.501C204.491 457.634 197.053 446.929 189.563 436.15C197.163 425.158 204.748 414.189 212.443 403.072C220.087 414.262 227.614 425.29 235.147 436.326C227.423 447.09 219.786 457.722 212.047 468.501Z" stroke="#60423E" stroke-miterlimit="10"/>
<path d="M2.06299 436.15C9.73628 425.107 17.3435 414.167 25.0829 403.036C32.6901 414.277 40.1284 425.283 47.5961 436.333C39.9889 447.024 32.411 457.685 24.6863 468.552C17.1379 457.744 9.65551 447.031 2.06299 436.157V436.15Z" stroke="#60423E" stroke-miterlimit="10"/>
<path d="M258.799 667.443C256.905 664.756 255.201 662.362 253.527 659.947C248.122 652.164 242.733 644.366 237.321 636.59C236.124 634.872 236.066 634.814 237.248 633.125C241.932 626.451 246.632 619.784 251.317 613.109C253.586 609.871 255.825 606.611 258.087 603.366C258.403 602.918 258.74 602.492 259.196 601.89C266.737 612.97 274.182 623.903 281.65 634.872C274.072 645.666 266.524 656.422 258.799 667.436V667.443Z" stroke="#60423E" stroke-miterlimit="10"/>
<path d="M25.0901 601.89C32.6533 612.992 40.1063 623.917 47.5813 634.887C40.0035 645.666 32.4404 656.415 24.6936 667.429C17.1158 656.474 9.64811 645.673 2.08496 634.725C9.70685 623.844 17.3581 612.933 25.0901 601.897V601.89Z" stroke="#60423E" stroke-miterlimit="10"/>
<path d="M212.047 667.37C204.513 656.4 197.134 645.658 189.607 634.704C197.163 623.873 204.748 612.999 212.451 601.949C220.022 612.948 227.548 623.881 235.118 634.872C227.453 645.666 219.838 656.393 212.047 667.363V667.37Z" stroke="#60423E" stroke-miterlimit="10"/>
<path d="M352.024 469.668C359.712 480.968 367.165 491.908 374.699 502.981C367.173 513.862 359.455 524.347 351.848 535.126C359.441 546.293 367.033 557.439 374.714 568.732C367.026 579.562 359.433 590.238 351.738 601.075C351.297 600.605 350.937 600.304 350.673 599.922C348.243 596.413 345.834 592.874 343.404 589.364C338.969 582.961 334.511 576.581 330.069 570.186C329.717 569.679 329.408 569.143 329.034 568.541C330.231 566.815 331.361 565.163 332.507 563.519C337.889 555.78 343.272 548.048 348.654 540.317C349.403 539.237 350.137 538.136 350.864 537.035C351.723 535.735 351.745 535.603 350.879 534.347C348.485 530.889 346.069 527.445 343.668 523.995C339.108 517.452 334.548 510.903 329.996 504.354C329.68 503.898 329.408 503.406 329.026 502.797C336.634 491.842 344.211 480.931 352.032 469.668H352.024Z" stroke="#60423E" stroke-miterlimit="10"/>
<path d="M352.207 202.169C359.829 213.366 367.392 224.468 374.882 235.482C373.788 237.743 353.713 265.989 351.877 267.854C344.284 257.259 337 246.466 329.378 235.746C330.12 234.564 330.781 233.433 331.523 232.361C336.64 224.982 341.773 217.617 346.898 210.253C348.294 208.249 349.718 206.259 351.106 204.24C352.112 202.771 352.112 202.654 351.128 201.215C347.435 195.825 343.741 190.436 340.018 185.069C336.802 180.421 333.549 175.802 330.318 171.169C330.003 170.714 329.738 170.222 329.422 169.693C337.03 158.775 344.585 147.931 352.141 137.086C353.426 138.048 372.672 165.927 374.889 170.024C367.547 180.788 359.624 191.258 352.2 202.169H352.207Z" stroke="#60423E" stroke-miterlimit="10"/>
<path d="M351.987 68.0965C344.343 57.0975 336.868 46.3482 329.305 35.4594C336.956 24.4385 344.534 13.535 352.274 2.38184C352.751 2.96923 353.147 3.39509 353.471 3.87969C358.185 10.7669 362.899 17.6541 367.598 24.5559C370.036 28.1317 372.444 31.7368 374.992 35.5035C367.701 46.6199 359.631 57.0315 351.987 68.0965Z" stroke="#60423E" stroke-miterlimit="10"/>
<path d="M352.024 70.3947C353.852 71.7897 372.834 99.3238 374.934 103.48C367.378 114.075 359.749 124.773 351.995 135.647C350.695 133.811 349.491 132.152 348.323 130.47C342.309 121.806 336.303 113.142 330.304 104.471C329.313 103.039 329.32 103.024 330.26 101.673C335.914 93.5306 341.561 85.3805 347.222 77.2451C348.544 75.3434 349.924 73.4858 351.275 71.5988C351.562 71.195 351.804 70.7618 352.024 70.3947Z" stroke="#60423E" stroke-miterlimit="10"/>
<path d="M374.589 368.835C366.996 379.474 359.404 390.12 351.613 401.038C343.947 390.017 336.479 379.283 328.901 368.387C336.597 357.417 344.204 346.565 351.811 335.706C353.214 336.917 372.841 365.464 374.581 368.827L374.589 368.835Z" stroke="#60423E" stroke-miterlimit="10"/>
<path d="M352.156 268.97C353.632 270.175 373.766 299.779 374.823 302.239C367.312 312.841 359.749 323.532 351.987 334.487C344.395 323.495 336.956 312.731 329.371 301.754C336.949 290.843 344.549 279.903 352.156 268.963V268.97Z" stroke="#60423E" stroke-miterlimit="10"/>
<path d="M374.684 634.902C366.967 645.791 359.425 656.437 351.701 667.341C351.091 666.577 350.57 666.004 350.129 665.366C343.712 656.055 337.309 646.745 330.898 637.435C330.304 636.569 329.658 635.732 328.96 634.777C336.611 623.852 344.196 613.029 351.723 602.287C351.965 602.302 352.024 602.294 352.083 602.309C352.141 602.324 352.2 602.338 352.252 602.375C352.354 602.441 352.472 602.507 352.545 602.603C352.912 603.109 353.28 603.623 353.632 604.144C360.615 614.35 367.598 624.556 374.684 634.917V634.902Z" stroke="#60423E" stroke-miterlimit="10"/>
<path d="M328.975 436.15C336.611 425.166 344.189 414.262 351.767 403.366C353.177 404.46 372.466 432.596 374.552 436.546C367.003 447.09 359.396 457.722 351.62 468.581C344.042 457.729 336.589 447.061 328.975 436.157V436.15Z" stroke="#60423E" stroke-miterlimit="10"/>
</svg>
